<?xml version="1.0" encoding="utf-8"?>
<!-- Generator: Adobe Illustrator 16.0.0, SVG Export Plug-In . SVG Version: 6.00 Build 0)  -->
<!DOCTYPE svg PUBLIC "-//W3C//DTD SVG 1.1//EN" "http://www.w3.org/Graphics/SVG/1.1/DTD/svg11.dtd">
<svg version="1.1" id="Layer_1" xmlns="http://www.w3.org/2000/svg" xmlns:xlink="http://www.w3.org/1999/xlink" x="0px" y="0px"
	 width="100px" height="100px" viewBox="0 0 100 100" enable-background="new 0 0 100 100" xml:space="preserve">
<path fill="#DE761C" d="M64.95,59.345c0.262-0.496,0.538-0.978,0.845-1.459c0.176-0.276,0.352-0.568,0.408-0.89
	c0.19-0.934-0.583-1.765-1.298-2.407c-0.816-0.743-1.647-1.488-2.522-2.158c-2.729-2.101-5.937-3.487-9.146-4.771
	c-1.503-0.598-3.034-1.181-4.654-1.399c-0.773-0.103-1.561-0.117-2.334-0.19c-0.86-0.087-1.721-0.247-2.582-0.364
	c-3.5-0.481-7.308-0.132-10.152,1.954c-0.438,0.321-0.875,0.7-1.138,1.182c-0.758,1.343-0.248,2.218-0.131,3.604
	c0.131,1.561,0.481,3.617,0.772,5.164c0.292,1.546,0.453,2.917,0.773,4.464c0.161,0.772,0.379,1.604,0.496,2.378
	c0.116,0.714,0.219,1.59,0.394,2.275c1.546,6.286,2.247,12.952,6.885,17.46c0.992,0.963,1.356,1.196,1.853,1.459
	c0.978,0.511,2.553-0.452,3.166-0.803c3.078-1.765,5.849-4.521,7.746-7.688c2.654-3.689,5.047-7.833,7.191-11.406
	c0.671-1.343,1.488-2.642,2.174-3.982C64.117,60.949,64.512,60.146,64.95,59.345"/>
<g>
	<g>
		<defs>
			<path id="SVGID_1_" d="M33.514,47.675c-0.438,0.321-0.875,0.7-1.138,1.181c-0.758,1.343-0.248,2.218-0.131,3.604
				c0.131,1.561,0.481,3.617,0.772,5.164c0.292,1.546,0.453,2.917,0.773,4.464c0.161,0.772,0.379,1.604,0.496,2.378
				c0.116,0.714,0.219,1.589,0.394,2.275c1.546,6.286,2.247,12.953,6.885,17.46c0.992,0.963,1.356,1.195,1.853,1.459
				c0.978,0.51,2.553-0.453,3.166-0.802c3.078-1.766,5.849-4.522,7.746-7.688c2.654-3.69,5.047-7.834,7.191-11.408
				c0.671-1.342,1.488-2.64,2.174-3.981c0.422-0.832,0.831-1.635,1.27-2.422c0.262-0.496,0.538-0.978,0.845-1.458
				c0.175-0.277,0.351-0.568,0.409-0.891c0.189-0.934-0.584-1.765-1.299-2.407c-0.817-0.743-1.647-1.487-2.523-2.158
				c-2.728-2.101-5.937-3.487-9.146-4.755c-1.503-0.598-3.035-1.196-4.654-1.4c-0.773-0.103-1.561-0.117-2.333-0.189
				c-0.861-0.087-1.722-0.248-2.582-0.364c-0.89-0.117-1.794-0.19-2.713-0.19C38.299,45.517,35.644,46.115,33.514,47.675"/>
		</defs>
		<clipPath id="SVGID_2_">
			<use xlink:href="#SVGID_1_"  overflow="visible"/>
		</clipPath>
		<path clip-path="url(#SVGID_2_)" fill="#BE4F18" d="M57.991,68.855c-0.379-0.395-0.772-0.773-1.138-1.211
			c-0.423-0.524-0.773-1.094-1.123-1.677c-0.35-0.599-0.671-1.196-1.05-1.78c-0.189-0.291-0.38-0.584-0.599-0.86
			c-0.307-0.409-0.642-0.831-0.934-1.254c0.379-0.263,0.758-0.541,1.138-0.803c0.351-0.263,0.699-0.511,1.065-0.759
			c0.686-0.496,1.386-0.977,2.085-1.459c0.7-0.481,1.387-0.978,2.072-1.488c0.35-0.262,0.7-0.524,1.05-0.801
			c0.248-0.19,0.613-0.409,0.759-0.716c0.059-0.116,0.103-0.263,0.218-0.32c0.045-0.029,0.103-0.029,0.162-0.059
			c0.043-0.028,0.087-0.073,0.087-0.131c0-0.029-0.015-0.045-0.029-0.06c-0.117-0.175-0.262-0.32-0.409-0.466
			c-0.306,0.248-0.553,0.525-0.787,0.803c-0.277,0.321-0.758,0.568-1.094,0.816c-0.715,0.525-1.43,1.05-2.145,1.575
			s-1.43,1.035-2.159,1.561c-0.365,0.263-0.729,0.526-1.093,0.803c-0.176,0.131-0.352,0.262-0.526,0.379
			c-0.174,0.132-0.495,0.525-0.715,0.496c-0.072-0.015-0.729-1.647-0.845-1.91c-0.307-0.716-0.599-1.43-0.861-2.16
			c-0.277-0.743-0.54-1.487-0.802-2.245c-0.146-0.409-0.292-0.817-0.423-1.24c-0.087-0.248-0.102-0.293,0.131-0.482
			c0.35-0.276,0.715-0.568,1.066-0.845c-0.045-0.22-0.191-0.409-0.366-0.525c-0.438,0.204-0.846,0.408-1.269,0.642
			c-0.306-0.351-0.598-0.699-0.89-1.051c-0.146,0.03-0.292,0.045-0.438,0.073c0.102,0.438,0.263,0.861,0.481,1.255
			c0.175,0.335-0.263,0.481-0.481,0.627c-0.364,0.248-0.715,0.51-1.079,0.759c-0.715,0.511-1.43,1.021-2.145,1.531
			c-0.613,0.438-1.24,0.875-1.867,1.312c-0.496,0.351-1.05,0.628-1.546,0.948c-0.043-0.816-0.306-1.634-0.51-2.421
			c-0.204-0.803-0.438-1.59-0.642-2.393c-0.205-0.788-0.394-1.575-0.525-2.378c-0.131-0.802-0.117-1.59-0.496-2.333
			c-0.029-0.073-0.073-0.146-0.131-0.204c-0.131-0.132-0.335-0.132-0.51-0.074c0,0.029-0.043,0.627-0.015,0.642
			c0.452,3.253,1.298,6.462,2.101,9.643c0.044,0.145-1.531,0.933-1.707,1.034c-0.583,0.307-1.182,0.584-1.78,0.861
			c-0.598,0.263-1.211,0.524-1.823,0.773c-0.583,0.247-1.094,0.599-1.692,0.803c-0.306,0.102-0.656,0.189-0.875,0.423
			c0.087,0.116,0.175,0.233,0.292,0.335c0.015,0.015,0.044,0.044,0.073,0.044s0.059,0,0.087-0.014
			c0.292-0.089,0.569-0.176,0.861-0.278c1.152-0.365,2.275-0.963,3.384-1.459c0.598-0.262,1.196-0.539,1.765-0.845
			c0.146-0.088,1.634-0.861,1.604-0.964c0.963,2.729,1.94,5.616,2.917,8.403c-1.196,0.977-2.538,1.765-3.895,2.508
			c-0.686,0.38-1.371,0.744-2.057,1.123c-0.598,0.321-1.255,0.453-1.853,0.758c-0.525,0.265-0.86,0.803-1.356,1.109l0.146,0.613
			c1.634-0.642,3.092-1.707,4.639-2.539c0.408-0.218,4.799-2.479,4.697-2.683c1.021,2.275,1.707,4.695,2.83,6.957
			c-1.604,1.226-3.501,2.043-5.251,3.063c-0.306,0.189-0.744,0.263-1.079,0.423c-0.365,0.175-0.715,0.394-1.08,0.569
			c-0.306,0.146-0.627,0.175-0.904,0.38c-0.263,0.189-0.467,0.466-0.803,0.553c-0.058,0.016-0.116,0.03-0.146,0.088
			c-0.015,0.029-0.015,0.059,0,0.087c0.014,0.117,0.059,0.22,0.102,0.321c0.029,0.045,0.043,0.088,0.087,0.103
			c0.059,0.029,0.117,0,0.161-0.015c1.575-0.584,3.063-1.429,4.537-2.217c0.394-0.204,4.493-2.597,4.565-2.509
			c0.481,0.627,0.511,1.604,0.919,2.319c0.715,1.035,1.372,2.086,2.247,2.976c0.044,0.043,0.073,0.087,0.131,0.102
			c0.043,0.015,0.073,0.015,0.117,0.015c0.146-0.015,0.292-0.043,0.379-0.16c0.073-0.103,0.059-0.234,0.015-0.35
			c-0.146-0.365-0.481-0.744-0.729-1.051c-1.298-1.167-1.794-2.786-2.232-4.361c0-0.016,0.7-0.321,0.759-0.351
			c1.575-0.787,3.034-1.793,4.507-2.757c0.745-0.481,1.488-0.963,2.247-1.386c0.38-0.219,0.787-0.394,1.167-0.612
			c0.364-0.219,0.686-0.481,1.064-0.671c0.189,0.131,0.335,0.292,0.496,0.452c0.16,0.16,0.351,0.307,0.568,0.35
			c0.219,0.044,0.481-0.043,0.569-0.247c0.029-0.059,0.044-0.132,0.014-0.189c-0.014-0.045-0.058-0.089-0.087-0.132l-0.714-0.716
			c0.467-0.232,0.977-0.408,1.487-0.51c0.073-0.015,0.146-0.028,0.189-0.088c0.029-0.029,0.044-0.088,0.059-0.131
			c0.058-0.248,0.087-0.51,0.058-0.773c0-0.043-0.014-0.088-0.043-0.116c-0.06-0.088-0.204-0.059-0.291-0.029
			c-0.453,0.16-0.905,0.379-1.313,0.627c-0.146,0-0.525,0.277-0.671,0.351C58.079,68.957,58.035,68.914,57.991,68.855
			 M41.829,58.878c2.392-1.619,4.813-3.15,7.191-4.857c1.051,2.51,1.736,5.324,3.152,7.761c-2.466,1.779-4.931,3.88-7.513,5.499
			C43.55,64.553,42.587,61.752,41.829,58.878 M57.233,69.425c-0.264,0.16-0.817,0.539-0.876,0.569
			c-0.394,0.232-0.787,0.48-1.182,0.729c-0.787,0.496-1.546,1.006-2.334,1.502c-1.531,1.007-3.092,1.984-4.741,2.801
			c-0.131,0.059-0.262,0.133-0.394,0.19c-1.036-2.349-1.882-4.756-2.83-7.134l7.601-5.571c0.218-0.161,2.158,3.209,2.333,3.516
			c0.336,0.612,0.7,1.211,1.108,1.779c0.424,0.598,0.92,1.05,1.443,1.531C57.378,69.337,57.32,69.366,57.233,69.425"/>
	</g>
	<g>
		<defs>
			<path id="SVGID_3_" d="M33.514,47.675c-0.438,0.321-0.875,0.7-1.138,1.181c-0.758,1.343-0.248,2.218-0.131,3.604
				c0.131,1.561,0.481,3.617,0.772,5.164c0.292,1.546,0.453,2.917,0.773,4.464c0.161,0.772,0.379,1.604,0.496,2.378
				c0.116,0.714,0.219,1.589,0.394,2.275c1.546,6.286,2.247,12.953,6.885,17.46c0.992,0.963,1.356,1.195,1.853,1.459
				c0.978,0.51,2.553-0.453,3.166-0.802c3.078-1.766,5.849-4.522,7.746-7.688c2.654-3.69,5.047-7.834,7.191-11.408
				c0.671-1.342,1.488-2.64,2.174-3.981c0.422-0.832,0.831-1.635,1.27-2.422c0.262-0.496,0.538-0.978,0.845-1.458
				c0.175-0.277,0.351-0.568,0.409-0.891c0.189-0.934-0.584-1.765-1.299-2.407c-0.817-0.743-1.647-1.487-2.523-2.158
				c-2.728-2.101-5.937-3.487-9.146-4.755c-1.503-0.598-3.035-1.196-4.654-1.4c-0.773-0.103-1.561-0.117-2.333-0.189
				c-0.861-0.087-1.722-0.248-2.582-0.364c-0.89-0.117-1.794-0.19-2.713-0.19C38.299,45.517,35.644,46.115,33.514,47.675"/>
		</defs>
		<clipPath id="SVGID_4_">
			<use xlink:href="#SVGID_3_"  overflow="visible"/>
		</clipPath>
		<path clip-path="url(#SVGID_4_)" fill="#BE4F18" d="M31.079,49.455c-0.088,0.059-0.54,2.247,0.423,2.26
			c0.963,0.03,2.801-0.51,3.822-0.992c1.021-0.481,2.465-1.924,2.465-1.924s0.89,1.969,2.771,2.159
			c2.407,0.233,4.245-1.109,4.245-1.109s1.852,3.414,4.361,4.259c3.034,1.007,4.989,0.964,6.404,0.395
			c1.414-0.568,2.582-1.604,2.582-1.604s1.838,3.253,4.084,4.565c2.246,1.298,4.172,1.59,4.172,1.59l0.628-1.225
			c0,0-6.58-8.358-6.667-8.358c-0.088,0-23.077-3.487-23.325-3.428C36.796,46.085,31.079,49.455,31.079,49.455"/>
	</g>
</g>
<g>
	<path fill="#FFFAC8" d="M77.946,43.621c-1.415-2.057-3.56-3.166-5.835-3.661c0.876-1.225,1.502-2.582,1.854-4.041
		c0.583-2.975,0.655-7.6-0.395-10.298c-1.371-3.545-5.004-7.775-9.146-9.832c-3.851-1.911-7.366-2.509-8.942-2.713
		c-1.575-0.205-4.068-0.307-5.046-0.117c-2.348,0.102-4.084,0.744-6.403,1.78c-2.173,1.269-4.493,2.815-5.981,5.091
		c-2.159,3.37-2.917,6.826-2.742,10.765h-0.161c-3.078-0.875-6.958-1.284-9.7,0.642c-3.895,2.597-4.653,7.409-3.705,11.728
		c0.919,2.946,2.48,4.769,4.551,6.067c1.94,1.225,4.843,1.75,7.177,1.283c0.86-0.175,1.707-0.496,2.45-0.963
		c0.234-0.145,2.203-1.545,2.072-1.794c0.686,2.684,4.974,3.021,6.301,1.677c0.744-0.743,0.905-1.284,0.905-1.284
		c0.204,1.459,1.065,2.758,2.13,3.735c0.554,0.496,1.823,1.255,1.823,1.255s4.828,1.765,7.512-0.044
		c1.619-1.08,1.882-1.94,1.882-1.94c0.131,0.496,0.306,1.181,0.642,1.707c0.452,0.686,0.847,1.371,1.356,2.027
		c0.467,0.584,1.094,1.153,1.707,1.619c4.434,3.399,11.261,2.086,14.5-2.115c1.094-1.326,1.662-2.421,2.246-4.682
		C79.449,47.281,78.981,45.663,77.946,43.621"/>
	<path fill="#FFD27C" d="M61.813,14.884c-0.773-0.189-6.929-0.496-8.038,3.385c-0.744,2.64,4.099,3.982,5.178,5.047
		c1.065,1.065,2.568,4.011-0.641,4.04c-3.21,0.03-7.921-1.298-12.852-0.539c-2.071,0.32-3.209,2.027-3.034,3.806
		c0.175,1.78,2.378,3.619,5.339,4.463c2.392,0.686,4.58,0.773,4.944,2.786c0.352,2.028-1.91,2.48-6.359,2.028
		c-5.543-0.569-8.096-0.686-11.597,0.569c-3.544,1.283-4.011,4.434-3.603,6.155c0.715,3.034,2.874,3.15,3.311,3.194
		c-0.321-0.35-1.896-3.166,0.35-4.755c2.261-1.59,9.452-0.292,14.689,1.312c5.236,1.605,13.813,4.479,15.579-0.875
		c1.882-5.717-7.439-8.066-6.17-11.464c0.977-2.64,8.459,0.175,9.423-4.406c0.947-4.58-7.192-7.556-8.402-8.256
		c-1.342-0.772-2.538-2.057-2.247-3.165C58.181,16.27,61.813,14.884,61.813,14.884"/>
	<path fill="#FFD27C" d="M48.831,14.214c-2.844,0.043-4.361,2.378-3.617,4.113c0.685,1.605,3.369,1.678,4.375,2.203
		c1.007,0.525,0.934,1.546,0.642,1.94c-0.642,0.861-3.516,1.386-7.848,1.649c-4.333,0.262-5.572,2.537-5.674,4.04
		c-0.117,1.488,1.576,3.706,1.576,4.333c0,0.642-0.642,1.153-0.642,1.649c0,0.481,0.86,1.049,0.481,1.647
		c-0.379,0.598-3.15-0.072-5.922-0.409c-2.771-0.335-5.047,0.102-5.688,1.488c-0.642,1.386-0.015,3.341,0.904,4.157
		c1.707,1.518,3.822,0.643,3.822,0.643s-1.4-1.707-0.35-3.327c1.05-1.618,3.253-1.779,4.814-1.633
		c1.575,0.146,5.558,2.115,6.462,0.087c1.123-2.509-2.99-2.917-2.99-4.259c0-1.342,1.152-1.94,1.152-2.874
		c0-0.934-1.05-3.881,0.861-4.712c1.91-0.817,11.057,0.744,11.801-1.721c0.743-2.465-3.034-3.166-4.26-3.705
		C45.796,18.254,47.081,15.162,48.831,14.214"/>
	<path fill="#FFD27C" d="M73.366,28.889c0.029-0.176,0.029-0.365,0.015-0.556c-0.059-0.728-0.423-1.386-0.904-1.939
		c-0.481-0.54-1.065-0.992-1.648-1.415c-0.627-0.467-1.24-0.934-1.854-1.386c-0.349-0.263-0.729-0.555-0.904-0.963
		c-0.175-0.409-0.349-1.08-0.087-1.444c0.146-0.189,0.583-0.233,0.772-0.423c-0.539-0.262-0.802,0.043-1.371,0.204
		c-0.583,0.161-1.094,0.598-1.238,1.182c-0.189,0.729,0.218,1.488,0.758,2.013c0.539,0.525,1.196,0.89,1.75,1.399
		c0.861,0.789,1.43,1.897,1.562,3.064c0.146,1.312-0.277,3.034-1.4,3.822c-0.904,0.641-2.159,1.21-2.597,2.291
		c-0.817,2.012,1.225,4.04,0.934,5.119c-0.292,1.08-1.211,1.59-0.891,3.063c0.365,1.721,3.151,1.823,4.697,3.121
		c1.124,0.948,1.431,2.902,0.351,4.682c-2.202,3.663-6.623,0.992-7.118-0.875c-1.46,3.734,4.186,8.388,8.62,4.755
		c4.143-3.369,2.35-7.629-0.495-8.854c-1.795-0.773-4.625-1.546-4.974-3.369c-0.19-0.963,1.487-0.89,1.53-2.436
		c0.045-1.532-1.575-2.917-1.151-3.88c0.408-0.977,1.983-0.933,2.508-2.507c0.219-0.658,0.103-1.372,0.307-2.014
		c0.131-0.394,0.51-0.657,0.904-0.817c0.38-0.16,0.802-0.262,1.153-0.511C73.017,29.938,73.293,29.427,73.366,28.889"/>
	<path fill="#622F23" d="M61.872,14.841c-0.773-0.189-7.353-0.934-8.446,2.947c-0.744,2.64,4.1,3.982,5.179,5.047
		c1.064,1.065,2.567,4.012-0.643,4.041c-3.208,0.03-7.92-1.298-12.851-0.54c-2.071,0.32-3.209,2.027-3.034,3.807
		c0.175,1.779,2.377,3.618,5.338,4.464c2.393,0.685,4.581,0.772,4.946,2.786c0.349,2.027-1.911,2.48-6.36,2.027
		c-5.543-0.569-8.271-1.123-11.597,0.569c-3.252,1.663-3.734,4.491-3.325,6.213c0.714,3.033,2.946,3.574,3.384,3.618
		c-0.321-0.35-2.232-3.647,0.015-5.238c2.26-1.588,9.452-0.292,14.688,1.313s13.814,4.479,15.579-0.875
		c1.882-5.718-7.439-8.067-6.171-11.464c0.978-2.642,8.462,0.175,9.424-4.406c0.962-4.58-7.191-7.556-8.401-8.256
		c-1.343-0.773-2.539-2.057-2.247-3.165C57.816,15.789,61.872,14.841,61.872,14.841"/>
	<path fill="#CF7418" d="M48.86,14.141c-2.844,0.044-4.741,1.969-4.011,3.705c0.686,1.604,3.37,1.678,4.376,2.203
		c1.006,0.525,0.934,1.546,0.642,1.94c-0.642,0.86-3.515,1.386-7.848,1.648c-4.332,0.263-5.572,2.538-5.674,4.041
		c-0.117,1.488,1.576,3.705,1.576,4.332c0,0.643-0.642,1.153-0.642,1.648c0,0.482,0.861,1.051,0.481,1.648
		c-0.379,0.598-3.151-0.073-5.922-0.409c-2.771-0.335-4.667,0.174-5.31,1.56c-0.642,1.386-0.146,3.37,0.759,4.172
		c1.707,1.518,3.997,1.05,3.997,1.05s-1.823-2.202-0.772-3.822c1.05-1.619,3.252-1.78,4.813-1.633
		c1.576,0.145,5.558,2.114,6.462,0.087c1.123-2.509-2.99-2.918-2.99-4.259c0-1.343,1.152-1.94,1.152-2.874
		c0-0.934-1.05-3.88,0.861-4.711c1.911-0.817,11.057,0.744,11.815-1.722c0.745-2.465-3.034-3.166-4.259-3.705
		C45.447,17.788,47.11,15.089,48.86,14.141"/>
	<path fill="#CF7418" d="M73.001,28.421c0.029-0.189,0.029-0.365,0.016-0.554c-0.059-0.729-0.423-1.386-0.905-1.939
		c-0.481-0.541-1.065-0.993-1.648-1.416c-0.613-0.467-1.239-0.934-1.852-1.386c-0.351-0.263-0.73-0.555-0.905-0.963
		c-0.174-0.408-0.087-0.963,0.307-1.167c0.248-0.117,0.568-0.087,0.744-0.277c-0.54-0.263-1.167-0.365-1.751-0.219
		c-0.583,0.16-1.094,0.598-1.239,1.181c-0.189,0.729,0.218,1.488,0.759,2.013c0.539,0.525,1.196,0.89,1.749,1.4
		c0.861,0.788,1.431,1.896,1.562,3.063c0.146,1.313-0.277,3.034-1.4,3.822c-0.903,0.642-2.158,1.21-2.596,2.304
		c-0.817,2.013,1.238,4.041,0.934,5.12c-0.307,1.08-1.212,1.59-0.905,3.064c0.365,1.72,3.151,1.822,4.697,3.12
		c1.124,0.948,1.43,2.904,0.35,4.683c-2.202,3.662-6.302,1.386-6.798-0.481c-1.458,3.733,3.866,7.993,8.301,4.361
		c4.143-3.37,2.349-7.629-0.496-8.855c-1.794-0.772-4.624-1.545-4.975-3.369c-0.189-0.962,1.488-0.89,1.532-2.421
		c0.044-1.531-1.575-2.917-1.152-3.879c0.409-0.978,1.984-0.934,2.509-2.509c0.219-0.656,0.103-1.371,0.307-2.013
		c0.131-0.395,0.51-0.656,0.903-0.817c0.38-0.161,0.803-0.263,1.153-0.51C72.651,29.472,72.928,28.961,73.001,28.421"/>
	<path fill="#4B191C" d="M43.915,29.398c-0.174,1.065,2.086,2.8,3.005,3.035c0.409,0.102,0.904,0.072,1.254,0.174
		c0.423,0.117,0.802,0.481,1.211,0.628c0.729,0.262,2.421,0.146,1.21-0.919c-0.379-0.335-1.576-0.379-2.129-0.656
		c-0.686-0.336-1.97-0.7-2.509-1.196c-0.379-0.336-0.364-1.488-0.992-1.765c-0.598-0.264-1.109,0.116-0.948,0.801"/>
	<path fill="#4B191C" d="M51.865,44.277c0.613,0.189,1.327,0.744,1.954,0.831c0.583,0.087,1.108-0.219,1.662-0.219
		c1.08,0.015,2.072,0.7,3.108,0.833c1.647,0.204,4.609-1.065,3.486-3.209c-0.569-1.094-1.795-0.627-2.567-0.058
		c-1.24,0.904-1.4,0.831-3.021,0.496c-0.524-0.102-1.341-0.292-1.837-0.029c-0.394,0.219-0.467,0.744-0.643,0.846
		c-0.599,0.365-1.604-0.058-2.042,0.482c0.292,0.218,0.599,0.393,0.919,0.538"/>
	<path fill="#4B191C" d="M65.927,26.189c0.452,0.205,1.007,0.992,1.123,1.532c0.307,1.429-0.831,1.474-1.91,1.75
		c-0.686,0.175-2.816,1.576-3.326,0.934c-0.599-0.759,0.524-0.876,0.903-1.094c0.76-0.422,0.687-0.51,1.109-1.357
		c0.35-0.7,1.036-2.26,2.188-1.662"/>
	<path fill="#010101" d="M11.721,66.579c-0.175,0.074-0.306,0.22-0.364,0.395c-0.059,0.175-0.059,0.38,0.014,0.54l5.762,12.544
		c0.16,0.352,0.583,0.511,0.948,0.352c10.152-4.653,20.976-7.017,32.179-7.017c11.13,0,21.91,2.334,32.003,6.943
		c0.364,0.16,0.788,0,0.948-0.351l5.791-12.53c0.073-0.175,0.088-0.364,0.03-0.539c-0.073-0.175-0.204-0.321-0.38-0.409
		c-12.106-5.528-25.031-8.344-38.378-8.344C36.855,58.163,23.887,60.994,11.721,66.579"/>
	<path fill="#FFFFFF" d="M21.771,72.196c-0.146-0.395-0.743-0.336-1.05-0.219l-0.175,0.058c0.059,0.263,0.117,0.511,0.219,0.759
		l0.103,0.248c0.116,0.015,0.248,0,0.364-0.044C21.509,72.911,21.889,72.502,21.771,72.196L21.771,72.196z M20.751,69.702
		c-0.131-0.38-0.773-0.277-1.065-0.176c-0.073,0.029-0.161,0.146-0.131,0.219c0.087,0.249,0.204,0.481,0.292,0.729
		c0.117-0.015,0.248-0.043,0.365-0.087C20.517,70.285,20.882,70.066,20.751,69.702L20.751,69.702 M24.295,71.481
		c0.496,1.342-0.219,2.64-1.532,3.121l-1.94,0.715c-0.394,0.146-2.101,0.861-2.319,0.292c-0.131-0.379-0.248-0.758-0.379-1.123
		c-0.117-0.335-0.175-0.686,0.205-0.816c0.35-0.132,0.452-0.204,0.335-0.569c-0.044-0.146-0.146-0.248-0.205-0.38
		c-0.16-0.437-0.262-0.89-0.438-1.341c-0.043-0.132-0.043-0.277-0.102-0.409c-0.043-0.132-0.117-0.248-0.189-0.364
		c-0.19,0.043-0.379,0.088-0.555,0.146c-0.175,0.059-0.277-0.117-0.321-0.247l-0.423-1.139c-0.029-0.088-0.087-0.175-0.117-0.263
		c-0.102-0.277-0.015-0.583,0.277-0.685l2.377-0.861c0.7-0.248,1.225-0.438,1.969-0.233c0.758,0.204,1.284,0.568,1.561,1.327
		c0.219,0.598-0.014,1.43-0.029,1.444c0.015,0.058,0.132,0.044,0.175,0.058c0.35,0.103,0.744,0.176,1.036,0.424
		C24.019,70.825,24.164,71.103,24.295,71.481L24.295,71.481"/>
	<path fill="#FFFFFF" d="M29.824,70.009c0.088,0.291,0.131,0.612,0.219,0.903c0.058,0.233,0.16,0.452,0.233,0.672
		c0.161,0.538,0.044,0.655-0.481,0.816c-0.219,0.059-0.452,0.073-0.671,0.146c-0.263,0.072-0.511,0.189-0.759,0.263
		c-0.788,0.219-1.59,0.408-2.378,0.612c-0.131,0.045-0.262,0.117-0.394,0.146c-0.131,0.043-0.321,0-0.351-0.16
		c-0.16-0.569-0.321-1.138-0.452-1.722c-0.044-0.219,0.175-0.321,0.335-0.364c0.306-0.089-0.029-0.89-0.073-1.08
		c-0.161-0.598-0.306-1.195-0.481-1.794l-0.058-0.176c-0.073-0.232-0.306-0.014-0.496-0.042c-0.321-0.06-0.394-0.38-0.482-0.672
		c-0.043-0.131-0.029-0.277-0.058-0.394c-0.058-0.278-0.175-0.525-0.263-0.803c-0.087-0.335,0.292-0.481,0.555-0.555
		c0.277-0.072,0.569-0.102,0.86-0.175c0.905-0.263,1.809-0.569,2.728-0.817c0.583-0.159,0.714-0.248,0.904,0.395
		c0.146,0.54,0.321,1.079,0.482,1.619c0.116,0.409-0.015,0.438-0.379,0.539c-0.233,0.073-0.452,0.204-0.686,0.277
		c-0.569,0.161-0.54-0.014-0.7-0.524c-0.131,0.028-0.292,0.044-0.438,0.072c-0.161,0.045-0.131,0.175-0.103,0.307l0.219,0.817
		c0.044,0.145,0.175,0.087,0.292,0.058c0.131-0.044,0.248-0.116,0.379-0.145c0.263-0.074,0.321-0.03,0.394,0.218
		c0.088,0.292,0.146,0.599,0.234,0.903c0.116,0.409-0.088,0.395-0.409,0.482c-0.058,0.014-0.248,0.131-0.233,0.204l0.248,0.89
		c0.029,0.088,0.189,0.074,0.248,0.059c0.481-0.132,0.365-0.175,0.262-0.583c-0.043-0.161-0.043-0.351,0.146-0.408
		c0.365-0.103,0.744-0.205,1.108-0.307C29.722,69.585,29.722,69.629,29.824,70.009L29.824,70.009z"/>
	<path fill="#FFFFFF" d="M37.38,70.416c0.059,0.278-0.16,0.38-0.394,0.438c-0.204,0.045-0.423,0.059-0.627,0.088
		c-0.233,0.044-0.438,0.117-0.686,0.161c-0.103,0.028-0.292,0.058-0.379-0.044c-0.715-0.773-1.328-1.619-2.057-2.378
		c-0.088-0.088-0.452-0.613-0.554-0.599c-0.059,0.015,0,0.337,0,0.379l0.116,0.585c0.088,0.467,0.365,0.102,0.496,0.263
		c0.19,0.204,0.219,0.568,0.263,0.816c0.073,0.335,0.233,0.642,0.292,0.963c0.102,0.496-0.453,0.394-0.788,0.466
		c-0.234,0.045-0.453,0.146-0.671,0.189c-0.204,0.045-0.423,0.03-0.627,0.059c-0.248,0.059-0.496,0.146-0.758,0.22
		c-0.379,0.073-0.511-1.168-0.569-1.444c-0.044-0.22-0.087-0.452-0.102-0.657c-0.015-0.146,0.496-0.175,0.496-0.364
		c0-0.146-0.029-0.32-0.059-0.467l-0.394-1.998c-0.087-0.423-0.16-0.512-0.569-0.423c-0.102,0.014-0.233,0-0.262-0.117
		c-0.102-0.481-0.175-0.963-0.277-1.459c-0.029-0.16-0.029-0.335-0.059-0.51c-0.073-0.395,0.584-0.409,0.817-0.452
		c0.307-0.059,0.598-0.175,0.905-0.22l0.189-0.043c0.438-0.073,1.124,0.992,1.415,1.298c0.307,0.293,0.569,0.627,0.875,0.919
		c0.087,0.073,0.422,0.584,0.481,0.569c0.044-0.015,0.029-0.103,0.029-0.132l-0.175-0.904c-0.043-0.233-0.161-0.146-0.35-0.117
		c-0.219,0.045-0.364,0.03-0.408-0.218c-0.029-0.117-0.015-0.248-0.029-0.365c-0.029-0.189-0.131-0.364-0.175-0.54
		c-0.059-0.263-0.175-0.802,0.175-0.875c0.438-0.088,0.875-0.131,1.298-0.219c0.365-0.073,0.729-0.203,1.094-0.276
		c0.409-0.089,0.54-0.117,0.627,0.335c0.103,0.511,0.175,1.051,0.277,1.561c0.044,0.249-0.219,0.351-0.423,0.394
		c-0.044,0.015-0.103,0.029-0.103,0.088c0.103,0.891,0.292,1.839,0.467,2.713c0.073,0.364,0.321,0.233,0.569,0.19
		c0.234-0.044,0.263,0.16,0.292,0.35C37.205,69.249,37.263,69.833,37.38,70.416"/>
	<path fill="#FFFFFF" d="M52.055,63.138c0,0.233,0.058,0.48,0.058,0.729c0,0.175-0.043,0.32-0.277,0.32
		c-0.291,0-0.438,0-0.438,0.351c0.016,0.803,0.176,1.59,0.176,2.406c0.015,1.766-0.627,3.05-2.64,3.064
		c-1.736,0.014-2.582-0.832-2.597-2.568c0-0.934,0.627-1.648,1.575-1.648c0.671,0,1.138,0.321,1.153,1.007
		c0,0.248-0.117,0.583-0.307,0.759c-0.059,0.044-0.277,0.073-0.277,0.146c0,0.117,0.146,0.16,0.234,0.146
		c0.466,0,0.7-0.701,0.7-1.08c0-0.204-0.029-0.395-0.029-0.598c0.014-0.204,0.043-0.394,0.043-0.584
		c0-0.175-0.029-1.006-0.073-1.137c-0.029-0.059-0.365-0.074-0.452-0.074c-0.307,0-1.386,0.205-1.386-0.277l-0.015-1.561
		c0-0.539,0.087-0.539,0.627-0.554c0.555,0,1.094,0.058,1.648,0.043l1.167-0.014c0.204,0,0.423-0.059,0.642-0.044
		c0.395,0,0.511,0.16,0.511,0.54C52.099,62.714,52.04,62.918,52.055,63.138"/>
	<path fill="#FFFFFF" d="M57.642,68.024c-0.015,0.306-0.074,0.612-0.103,0.933c-0.014,0.234,0.015,0.482,0,0.716
		c-0.029,0.554-0.176,0.642-0.729,0.612c-0.233-0.015-0.452-0.073-0.686-0.087c-0.263-0.015-0.54,0.014-0.802,0
		c-0.817-0.059-1.634-0.146-2.45-0.204c-0.132-0.016-0.278,0.028-0.424,0.015c-0.132-0.015-0.307-0.103-0.276-0.264
		c0.042-0.584,0.072-1.182,0.145-1.765c0.015-0.233,0.264-0.247,0.438-0.233c0.321,0.015,0.262-0.846,0.276-1.036
		c0.045-0.612,0.103-1.239,0.146-1.852v-0.176c0.015-0.248-0.292-0.102-0.468-0.204c-0.291-0.16-0.247-0.496-0.231-0.787
		c0-0.146,0.058-0.264,0.087-0.395c0.028-0.277,0.015-0.554,0.015-0.846c0.014-0.351,0.437-0.364,0.699-0.336
		c0.293,0.015,0.585,0.102,0.876,0.116c0.947,0.059,1.896,0.074,2.844,0.117c0.599,0.044,0.759,0,0.716,0.671
		c-0.03,0.555-0.045,1.124-0.073,1.678c-0.029,0.423-0.161,0.408-0.54,0.394c-0.234-0.014-0.496,0.044-0.729,0.029
		c-0.598-0.029-0.511-0.189-0.481-0.729c-0.131-0.016-0.292-0.044-0.437-0.073c-0.162-0.016-0.19,0.116-0.19,0.247l-0.059,0.847
		c0,0.146,0.132,0.146,0.263,0.146c0.146,0.015,0.277-0.028,0.409-0.014c0.276,0.014,0.32,0.087,0.305,0.334
		c-0.014,0.307-0.072,0.613-0.087,0.935c-0.028,0.424-0.204,0.335-0.54,0.321c-0.073,0-0.276,0.029-0.291,0.116l-0.059,0.919
		c0,0.087,0.146,0.132,0.204,0.146c0.496,0.028,0.409-0.045,0.438-0.467c0.014-0.176,0.087-0.351,0.276-0.336
		c0.379,0.029,0.773,0.058,1.152,0.072C57.685,67.571,57.67,67.631,57.642,68.024L57.642,68.024z"/>
	<path fill="#FFFFFF" d="M61.448,65.02c-0.058-0.016-0.16-0.016-0.189,0.029c-0.044,0.058-0.131,0.743-0.146,0.86
		c-0.029,0.16-0.029,0.248,0.175,0.276c0.379,0.045,0.875-0.028,0.933-0.496C62.266,65.311,61.784,65.062,61.448,65.02
		 M63.769,71.116l-1.416-0.189c-0.102-0.015-0.189-0.043-0.291-0.073c-0.438-0.131-0.54-2.45-0.847-2.902
		c-0.043-0.059-0.131-0.073-0.204-0.088c-0.233-0.029-0.248,0.073-0.277,0.277c-0.028,0.233-0.102,0.511,0.204,0.555
		c0.38,0.044,0.103,0.831,0.073,1.094c-0.028,0.205-0.014,0.409-0.044,0.613c-0.029,0.262-0.146,0.334-0.423,0.306
		c-0.233-0.029-0.467-0.116-0.7-0.161c-0.539-0.072-1.08-0.115-1.604-0.174c-0.423-0.059-0.218-0.526-0.189-0.817
		c0.044-0.307,0.014-0.627,0.059-0.933c0.044-0.38,0.044-0.526,0.481-0.468c0.102,0.015,0.189-0.671,0.204-0.759
		c0.087-0.729,0.146-1.458,0.248-2.188c0.043-0.35-0.073-0.277-0.351-0.292c-0.248-0.028-0.379-0.175-0.336-0.438
		c0.045-0.38,0.161-0.759,0.204-1.123c0.03-0.249,0.015-0.496,0.06-0.745l0.014-0.101c0.029-0.176,1.312,0.028,1.532,0.059
		c1.152,0.145,3.107,0.466,3.676,1.59c0.276,0.539,0.452,0.992,0.379,1.619c-0.103,0.831-0.364,1.21-1.05,1.677
		c-0.015,0.015-0.015,0.015-0.015,0.029c-0.015,0.087,0.262,0.569,0.321,0.7c0.058,0.175,0.175,0.628,0.262,0.744
		c0.044,0.073,0.277,0.059,0.364,0.073c0.525,0.072,0.249,0.787,0.19,1.123c-0.028,0.218-0.015,0.422-0.044,0.642
		C64.191,71.116,64.075,71.16,63.769,71.116"/>
	<path fill="#FFFFFF" d="M68.479,66.23c-0.058-0.015-0.16-0.03-0.189,0.015c-0.044,0.043-0.205,0.729-0.233,0.846
		c-0.029,0.16-0.044,0.248,0.146,0.291c0.364,0.088,0.875,0.045,0.978-0.408C69.267,66.579,68.801,66.303,68.479,66.23
		 M70.259,72.502l-1.386-0.306c-0.103-0.015-0.189-0.044-0.292-0.088c-0.422-0.176-0.335-2.479-0.598-2.961
		c-0.029-0.059-0.117-0.088-0.189-0.102c-0.233-0.044-0.262,0.043-0.307,0.247c-0.058,0.233-0.16,0.496,0.146,0.569
		c0.379,0.073,0.029,0.846-0.029,1.094c-0.044,0.189-0.044,0.394-0.088,0.598c-0.059,0.264-0.174,0.337-0.452,0.264
		c-0.233-0.044-0.452-0.161-0.687-0.219c-0.523-0.117-1.064-0.204-1.575-0.321c-0.422-0.087-0.175-0.541-0.116-0.817
		c0.074-0.307,0.074-0.613,0.146-0.934c0.087-0.365,0.087-0.524,0.525-0.423c0.103,0.029,0.247-0.656,0.262-0.744
		c0.161-0.715,0.263-1.443,0.438-2.159c0.073-0.349-0.044-0.276-0.32-0.321c-0.249-0.058-0.365-0.218-0.307-0.466
		c0.072-0.364,0.22-0.744,0.307-1.109c0.058-0.247,0.058-0.496,0.117-0.743l0.014-0.102c0.044-0.176,1.299,0.145,1.517,0.189
		c1.139,0.248,3.063,0.729,3.53,1.91c0.219,0.555,0.365,1.036,0.233,1.648c-0.189,0.817-0.481,1.167-1.196,1.591
		c-0.014,0-0.014,0.015-0.014,0.028c-0.015,0.088,0.218,0.599,0.263,0.729c0.043,0.175,0.116,0.643,0.204,0.773
		c0.043,0.073,0.277,0.087,0.364,0.116c0.511,0.117,0.175,0.803,0.103,1.139c-0.044,0.218-0.059,0.423-0.103,0.627
		C70.683,72.531,70.565,72.576,70.259,72.502"/>
	<path fill="#FFFFFF" d="M77.698,66.901c-0.117,0.394-0.364,1.429-0.568,1.735c-0.161,0.204-0.452-0.073-0.686,0.015
		c-0.234,0.073-1.766,1.357-1.911,1.59c-0.16,0.248-0.248,0.54-0.336,0.832c-0.19,0.627,0.643,0.087,0.379,0.919
		c-0.087,0.292-0.379,1.488-0.685,1.531c-0.219,0.029-1.97-0.511-2.305-0.612c-0.656-0.19-0.555-0.409-0.379-1.021
		c0.102-0.321,0.218-0.672,0.349-0.992c0.073-0.162,0.351-0.117,0.496-0.073c0.03,0.014,0.073,0.014,0.103,0
		c0.087-0.117,0.087-0.263,0.117-0.394c0.087-0.307,0.219-0.599,0.307-0.905c0.087-0.306-0.292-1.94-0.468-2.261
		c-0.043-0.088-0.16-0.073-0.248-0.088c-0.35-0.103-0.087-0.816-0.029-1.021c0.073-0.263,0.103-0.525,0.176-0.773
		c0.116-0.38,0.218-0.569,0.656-0.438c0.451,0.132,0.919,0.307,1.371,0.452c0.204,0.059,0.424,0.059,0.642,0.132
		c0.365,0.102,0.117,0.686,0.044,0.947c-0.088,0.292-0.22,0.556-0.307,0.832c-0.131,0.466-0.437,0.117-0.51,0.351
		c-0.029,0.115,0.189,1.021,0.276,1.05c0.103,0.029,0.409-0.365,0.468-0.438c0.116-0.102,0.306-0.175,0.349-0.335
		c0.045-0.175-0.379-0.059-0.276-0.394c0.087-0.277,0.233-0.525,0.321-0.802c0.087-0.234,0.117-0.467,0.175-0.7
		c0.132-0.468,0.686-0.132,0.991-0.03c0.453,0.132,0.92,0.22,1.371,0.351C77.845,66.42,77.757,66.696,77.698,66.901L77.698,66.901z"
		/>
	<path fill="#FFFFFF" d="M78.398,68.33c-0.146-0.043-0.292-0.146-0.248-0.306c0.059-0.175,0.452,0.029,0.642-0.525
		c0.03-0.087,0.03-0.117-0.072-0.146c-0.481-0.161-0.671-0.657-0.511-1.123c0.175-0.525,0.772-0.759,1.269-0.569
		c0.628,0.218,0.788,0.831,0.583,1.414C79.916,67.602,79.04,68.55,78.398,68.33"/>
	<path fill="#FFFFFF" d="M82.527,74.282c-0.438,1.138-1.591,1.925-2.83,1.444c-0.613-0.234-1.095-0.978-1.212-1.022
		c-0.015,0-0.057,0-0.072,0c-0.117,0.045-0.117,0.19-0.219,0.234c-0.146,0.058-0.379-0.103-0.525-0.175
		c-0.189-0.073-0.394-0.102-0.569-0.161c-0.539-0.203-0.291-0.612-0.131-1.021c0.103-0.264,0.248-0.496,0.336-0.744
		c0.132-0.32,0.219-0.671,0.336-0.992c0.219-0.568,0.32-0.423,0.802-0.233c0.248,0.103,0.481,0.233,0.744,0.336
		c0.583,0.233-0.205,1.138,0.554,1.43c0.264,0.103,0.627,0.029,0.729-0.249c0.379-0.977-1.984-2.041-1.211-4.069
		c0.423-1.095,1.576-1.619,2.67-1.196c0.394,0.146,0.788,0.613,0.992,0.687c0.073,0.028,0.116-0.131,0.218-0.146
		c0.088-0.015,0.205,0.029,0.278,0.058c0.175,0.073,0.948,0.365,0.963,0.496c0,0.117-0.029,0.249-0.073,0.352
		c-0.103,0.262-0.263,0.496-0.365,0.758c-0.117,0.291-0.175,0.598-0.307,0.89c-0.175,0.452-0.496,0.132-0.845,0.015
		c-0.162-0.059-0.352-0.087-0.526-0.146c-0.043-0.015-0.087-0.059-0.102-0.089c-0.117-0.422,0.044-0.845-0.481-1.034
		c-0.175-0.073-0.424,0.043-0.496,0.218C80.878,70.752,83.445,71.904,82.527,74.282L82.527,74.282z"/>
	<path fill="#FFFFFF" d="M45.447,66.128c0.35-0.379,0.51-0.977,0.467-1.473h-0.015c-0.073-0.759-0.569-1.313-1.371-1.241
		c-0.54,0.045-0.963,0.525-0.905,1.052c0.029,0.159,0.073,0.306,0.175,0.423c0.131,0.16,0.321,0.189,0.511,0.276
		c0.014,0.015,0.029,0.015,0.029,0.028c0.029,0.249-0.875,0.454-1.05,0.468c-0.671,0.073-1.4,0.088-1.881,0.627
		c-0.263,0.277-0.409,0.496-0.379,0.904c0.043,0.409,0.306,0.803,0.773,0.759c0,0,0.073,0,0.073-0.028
		c-0.014-0.089-0.073-0.161-0.073-0.263c-0.029-0.307,0.335-0.525,0.598-0.555c0.262-0.03,0.51,0.117,0.525,0.394
		c0.058,0.54-0.569,0.934-1.036,0.978c-0.744,0.058-1.4-0.438-1.473-1.182c-0.043-0.496,0.219-1.123,0.773-1.182
		c0.087-0.015,0.189,0.015,0.248-0.059c0.058-0.059,0.276-0.934,0.276-1.035c-0.043-0.409-0.817,0.015-0.89-0.686
		c-0.014-0.248,0.102-0.496,0.365-0.526c0.612-0.058,0.524,0.686,1.006,0.644c0.306-0.03,0.612-0.03,0.904-0.059
		c0.132,0,0.219-0.044,0.205-0.205c-0.058-0.524-0.044-1.08-0.087-1.604c0-0.015,0-0.03,0-0.03
		c-0.029-0.263-0.117-0.336-0.248-0.336c-0.131,0-0.292,0.06-0.467,0.073c-0.131,0.016-0.277,0-0.423,0.016
		c-0.073,0-0.161,0.014-0.19,0.073c-0.015,0.028-0.029,0.058-0.029,0.087s0.014,0.058,0.014,0.087c0,0.058,0,0.103-0.058,0.103
		c0,0-0.044-0.029-0.117-0.072c-0.175-0.103-0.54-0.277-0.86-0.249c-0.175,0.015-0.351,0.045-0.511,0.087
		c-0.364,0.089-0.685,0.249-0.919,0.468c-0.306,0.291-0.481,0.7-0.438,1.255c0.015,0.175,0.059,0.349,0.117,0.511
		c0.059,0.131,0.102,0.276,0.204,0.394c0.029,0.043,0.103,0.072,0.103,0.116c0,0.028-0.686,0.642-0.773,0.759
		c-0.408,0.613-0.554,1.182-0.496,1.926c0.088,0.977,0.467,1.633,1.27,2.188c0.817,0.555,1.692,0.555,2.64,0.468
		c1.357-0.132,2.699-1.065,2.961-2.48c0.029-0.219,0.087-0.423,0.058-0.643c-0.029-0.307-0.277-0.655-0.277-0.671
		C44.761,66.624,45.33,66.245,45.447,66.128"/>
	<path fill="#FCB216" d="M49.808,60.177c-0.233-0.03-0.467-0.072-0.715-0.088c-0.496-0.015-0.977-0.015-1.459-0.029
		c-0.671-0.029-1.312,0.015-1.998,0.059s-1.765,0.335-1.765,0.335s-0.948-0.159-1.298-0.146c-0.263,0.015-0.759,0.131-0.992,0.233
		c-0.233,0.102-0.481-0.043-0.715,0.132c-0.861-0.234-1.765,0.35-2.625,0.189c-0.992,0.291-2.232,0.204-3.282,0.438
		c-0.233,0.102-0.438-0.074-0.671,0.059c-0.205,0.102-0.365,0.043-0.583,0.058c-0.117,0.015-0.233,0.074-0.35,0.103
		c-0.555,0.203-1.124,0.32-1.692,0.496c-0.116,0.028-0.262,0.116-0.379,0.102c-0.16-0.015-0.233-0.131-0.394-0.116
		c-0.277,0.028-0.452,0.248-0.715,0.307c-0.233,0.043-0.467-0.059-0.7-0.059c-0.234,0-0.379,0.015-0.569,0.116
		c-0.16,0.088-0.306,0.044-0.481,0.088c-0.51,0.087-1.035,0.233-1.546,0.364c-1.021,0.263-2.042,0.569-3.02,0.963
		c-0.35,0.19-0.86,0.088-1.05,0.555c-0.598,0.059-1.065,0.364-1.634,0.423c-0.919,0.467-2.115,0.35-2.991,0.978
		c-1.356,0.35-2.64,0.934-3.821,1.647c-0.263,0.176-0.686,0.073-0.861,0.438c0.146,0.423,0.292,0.875,0.569,1.283
		c0.277,1.239,0.919,2.305,1.532,3.355c0.671,1.4,1.05,2.946,1.823,4.274c0.146,0.524,0.583,0.991,0.846,1.443
		c0.379,0.408,0.686-0.247,1.094-0.321c0.219-0.043,0.408-0.189,0.612-0.263c1.284-0.394,2.567-0.934,3.851-1.371
		c0.642-0.291,1.43-0.363,1.999-0.729c1.458-0.394,2.815-0.758,4.289-1.151c2.465-1.064,5.236-1.212,7.95-1.765
		c0.335-0.074,0.714,0.072,0.904-0.292c1.065-0.365,1.474-0.146,3.414-0.249c0.496-0.218,1.094-0.058,1.619-0.116
		c1.969-0.307,4.084-0.088,6.01-0.248c1.502-0.16,2.728,0.117,4.215,0.131c0.526,0.089,1.24-0.102,1.795,0.146
		c0.233-0.103,0.424,0.087,0.671,0.073c0.189-0.263,0.495,0.116,0.759,0c0.86,0.248,1.604,0.146,2.406,0.365
		c0.847,0.072,1.751-0.278,2.597,0.145c0.276-0.072,0.496,0.277,0.817,0.132c0.89,0.379,1.809,0.175,2.8,0.496
		c0.307,0.028,0.599,0.189,0.891,0.159c0.743,0.395,1.648,0.438,2.45,0.672c0.773,0.277,1.459,0.394,2.231,0.7
		c0.832,0.044,1.562,0.583,2.335,0.715c0.554,0.146,0.903,0.204,1.429,0.364c0.977,0.585,2.028,0.599,3.021,1.123
		c0.495,0.045,1.034,0.424,1.53,0.657c0.745,0.131,1.27,0.656,1.941,0.86l0.116-0.102c0.015-0.016,0.015-0.146,0.028-0.175
		c0.029-0.06,0.06-0.103,0.087-0.162c0.117-0.189,0.117-0.422,0.234-0.627c0.132-0.218,0.307-0.407,0.438-0.611
		c0.146-0.234,0.233-0.496,0.335-0.745c0.088-0.232,0.234-0.451,0.321-0.686c0.044-0.072,0.073-0.145,0.117-0.233
		c0.029-0.059,0.015-0.087,0.029-0.146c0.073-0.277,0.248-0.511,0.38-0.758c0.145-0.278,0.291-0.541,0.422-0.817
		c0.146-0.481,0.54-0.86,0.54-1.342c0.204-0.672,0.554-1.357,1.007-1.911c-0.103-0.613,0.686-1.43,0.845-2.32
		c-0.145-0.189-0.48-0.422-0.758-0.524c-0.759-0.131-1.298-0.686-2.086-0.846c-0.336-0.22-0.715-0.351-1.079-0.584
		c-0.904-0.276-1.794-0.525-2.684-0.832c-0.22-0.072-0.438-0.13-0.657-0.218c-0.16-0.073-0.32-0.176-0.481-0.248
		c-0.292-0.131-0.598-0.175-0.89-0.307c-0.059-0.029-0.146-0.087-0.219-0.087c-0.087,0-0.555,0.087-0.627,0.043
		c-1.824-0.816-3.399-0.977-5.267-1.662c-0.642-0.131-1.239-0.395-1.938-0.409c-0.628-0.204-1.271-0.32-1.868-0.554
		c-0.686-0.205-1.502-0.016-2.174-0.292c-1.05,0.015-2.684-0.03-2.523-0.364c-0.48-0.234-1.269,0.043-1.75-0.176
		c-0.423-0.015-0.861-0.277-1.24-0.102c-1.007-0.38-2.144-0.189-3.15-0.423c-0.452-0.087-0.89-0.015-1.269-0.161
		c-0.205-0.073-0.686,0.059-0.92,0.044c-0.307-0.015-0.613-0.044-0.919-0.087c-0.423-0.059-0.846-0.132-1.254-0.161
		c-0.175-0.015-0.351-0.015-0.526,0.029c-0.175,0.044-0.32,0.175-0.51,0.189c-0.292,0.015-0.539-0.058-0.846-0.029
		c-0.351,0.029-0.686,0.103-1.036,0.146C50.027,60.191,49.91,60.191,49.808,60.177 M53.353,59.374c1.007-0.029,1.897,0.276,2.845,0
		c0.336-0.044,0.525,0.204,0.846,0.263c1.474-0.088,2.801,0.408,4.201,0.555c1.124,0.233,2.145-0.146,3.225,0.276
		c0.379,0.044,0.816,0.161,1.224,0.233c0.38-0.189,0.644,0.204,1.052,0.161c0.072-0.016,0.16,0.029,0.247,0.029
		c0.875,0.058,1.737,0.087,2.611,0.232c0.729,0.132,1.356,0.598,2.115,0.687c0.059,0,0.263-0.073,0.292-0.073
		c0.043,0,1.91,0.612,1.983,0.656c0.233,0.146,0.482,0.248,0.729,0.335c0.525,0.189,1.094,0.292,1.635,0.438
		c0.276,0.072,0.538,0.189,0.801,0.262c0.103,0.03,0.205-0.015,0.321,0c0.161,0.016,0.292,0.103,0.453,0.117
		c0.072,0,0.145-0.029,0.218-0.029c0.131,0.015,1.372,0.277,1.562,0.496c0.116,0.146,0.524,0.277,0.729,0.351
		c0.248,0.088,0.788,0.437,0.788,0.437s0.103-0.058,0.219-0.043s0.233,0.073,0.364,0.103c0.496,0.16,0.934,0.379,1.415,0.539
		c0.146,0.029,0.219,0.204,0.38,0.146c0.744,0.466,1.575,0.772,2.421,1.034c0.044,0.22,0.292,0.089,0.424,0.205
		c0.292,0.146,0.554,0.394,0.89,0.321c0.103,0.189,0.451,0.262,0.32,0.539c-0.263,0.525-0.394,1.153-0.729,1.692l0.028,0.103
		c-0.583,0.86-0.919,1.91-1.414,2.902c-0.161,0.336-0.322,0.686-0.481,1.021c-0.103,0.233-0.321,0.54-0.336,0.803
		c-0.016,0.218,0.015,0.291-0.117,0.51c-0.16,0.263-0.364,0.511-0.496,0.787c-0.072,0.132-0.232,0.248-0.292,0.38
		c-0.043,0.103-0.014,0.247-0.043,0.35c-0.073,0.249-0.219,0.496-0.321,0.73c-0.116,0.276-0.219,0.539-0.379,0.802
		c-0.132,0.219-0.263,0.452-0.364,0.7c-0.146,0.335-0.131,0.584-0.496,0.743c-0.38-0.218-0.831-0.32-1.211-0.554
		c-0.364-0.219-0.729-0.54-1.153-0.643c-0.48-0.116-0.787-0.466-1.341-0.51c-0.89-0.524-1.765-0.438-2.654-0.934
		c-0.935-0.452-1.839-0.554-2.831-0.977c-0.481-0.089-0.978-0.234-1.429-0.365c-0.643-0.131-1.24-0.438-1.911-0.627l-1.356-0.277
		c-0.146,0.102-0.38,0-0.496-0.044l-1.604-0.408c-0.189-0.117-0.379,0-0.569-0.117c-0.846-0.306-1.809-0.073-2.554-0.496
		c-0.89-0.088-1.575-0.437-2.479-0.335c-1.094-0.102-2.13-0.336-3.194-0.336c-0.423,0.263-0.817-0.131-1.313-0.044
		c-0.48-0.189-1.152-0.058-1.648-0.146c-0.364,0.044-0.7,0.03-0.963-0.087c-0.86,0-1.575-0.088-2.465-0.147
		c-0.715,0.103-1.663,0.06-2.407,0.162c-0.569-0.06-1.094,0.087-1.678-0.03c-0.554,0.059-1.079,0.016-1.663,0.161
		c-0.627-0.233-1.255,0.176-1.838,0.116l-0.029,0.073c-0.905,0.248-1.809,0.059-2.699,0.233c-0.744,0.176-1.502,0.204-2.261,0.263
		c-0.788,0.218-1.765,0.16-2.669,0.423c-0.292-0.16-0.423,0.189-0.744,0.132c-0.146,0.175-0.335,0-0.496,0.146
		c-0.685,0.059-1.327,0.351-2.042,0.394c-0.263,0.219-0.642-0.043-0.934,0.248c-1.065,0.409-2.188,0.452-3.209,1.007
		c-0.452,0.103-0.978,0.247-1.458,0.32c-0.219,0.248-0.642,0.131-0.905,0.32c-0.525,0.103-1.108,0.395-1.663,0.569
		c-1.502,0.468-2.713,1.021-4.187,1.562c-0.642,0.262-1.283,0.875-2.071,0.729c-0.453-0.307-0.351-0.992-0.803-1.327
		c0-0.22-0.189-0.234-0.262-0.424c0.073-0.554-0.555-0.758-0.438-1.313c-0.598-0.641-0.54-1.647-1.182-2.202
		c-0.146-0.555-0.54-1.123-0.583-1.706c-0.481-0.598-0.54-1.328-1.108-1.824c0.16-0.89-0.613-1.59-0.875-2.406
		c0.204-1.051,1.327-0.773,1.969-1.327c1.167-0.204,1.984-1.24,3.253-1.182c0.714-0.511,1.633-0.438,2.407-0.861
		c0.189-0.189,0.452-0.247,0.715-0.291c0.671-0.059,1.108-0.744,1.881-0.54c1.576-0.423,2.976-1.283,4.639-1.371
		c1.809-0.467,3.734-0.744,5.514-1.196c1.036,0.058,1.882-0.467,2.888-0.452c1.065-0.146,2.028-0.32,3.122-0.511
		c0.422-0.291,0.831,0.044,1.283-0.102c2.305-0.277,4.697-0.204,7.002-0.496c1.531,0.059,2.961-0.176,4.434,0.015
		C52.346,59.389,52.857,59.315,53.353,59.374"/>
	<path fill="#FFFFFF" d="M81.302,76.864l0.072-0.176l0.117,0.06c0.058,0.028,0.117,0.072,0.088,0.145
		c-0.044,0.088-0.103,0.059-0.175,0.03L81.302,76.864z M81.257,76.938l0.103,0.043l0.045,0.321l0.087,0.043l-0.044-0.32
		c0.088,0.029,0.175,0.015,0.219-0.087c0.044-0.117,0-0.189-0.131-0.249l-0.22-0.103l-0.263,0.569l0.088,0.044L81.257,76.938
		 M81.155,77.434c0.263,0.116,0.598,0.014,0.729-0.263c0.132-0.278-0.015-0.599-0.276-0.716c-0.264-0.116-0.599-0.014-0.715,0.263
		C80.762,76.995,80.894,77.316,81.155,77.434 M80.98,76.762c0.103-0.233,0.364-0.335,0.583-0.233c0.22,0.103,0.321,0.364,0.22,0.584
		c-0.103,0.232-0.365,0.335-0.583,0.232C80.98,77.244,80.878,76.995,80.98,76.762"/>
</g>
</svg>
