<?xml version="1.0" encoding="utf-8"?>
<!-- Generator: Adobe Illustrator 16.0.0, SVG Export Plug-In . SVG Version: 6.00 Build 0)  -->
<!DOCTYPE svg PUBLIC "-//W3C//DTD SVG 1.1//EN" "http://www.w3.org/Graphics/SVG/1.1/DTD/svg11.dtd">
<svg version="1.1" id="Layer_1" xmlns="http://www.w3.org/2000/svg" xmlns:xlink="http://www.w3.org/1999/xlink" x="0px" y="0px"
	 width="100px" height="100px" viewBox="0 0 100 100" enable-background="new 0 0 100 100" xml:space="preserve">
<g>
	<path fill-rule="evenodd" clip-rule="evenodd" stroke="#231F20" stroke-width="0.097" stroke-miterlimit="2.6131" d="M32.881,18.41
		h26.333v1.354h-9.106v29.586c9.593-8.692,21.08-19.815,25.99-26.1c1.156-1.513,1.061-2.808,0.109-3.486h-7.888V18.41h23.667v1.354
		h-6.56c-2.162,0.856-4.322,2.271-6.484,4.245L58.575,43.375c-0.28,0.266-0.628,0.241,0.068,1.122l27.319,34.529l2.729,1.212H94.5
		v1.354H66.422v-1.354h7.762l0.396-0.454L51.246,50.377l-1.139,1.138v28.722h9.295v1.354h-26.55v-1.354h7.959V19.763h-7.93V18.41z"
		/>
	<path fill-rule="evenodd" clip-rule="evenodd" stroke="#231F20" stroke-width="0.097" stroke-miterlimit="2.6131" d="
		M36.894,34.088h0.669v10.147h-0.669v-1.068c-0.017,0.021-0.034,0.043-0.052,0.064c-0.469-2.815-1.478-5.32-3.41-7.031
		c-2.214-1.817-4.88-2.88-7.745-2.88c-12.686-0.139-11.942,33.491,0,33.648c2.148,0,4.185-0.598,6.003-1.663
		c3.285-2.875,4.684-5.618,5.204-8.535v-1.607h0.669v0.669v4.187v5.962h-0.669c-0.121-1.713-0.911-2.532-2.705-1.79
		c-2.388,2.104-5.328,3.35-8.502,3.35c-7.954,0-14.441-7.813-14.441-17.395S17.733,32.75,25.687,32.75
		c3.103,0,5.983,1.19,8.342,3.211C35.579,36.749,36.534,36.013,36.894,34.088z"/>
	<path fill="#BCBDC0" d="M93.24,52.11V47.74c0-1.09-0.846-1.973-1.936-1.973s-1.959,0.766-1.959,1.973v4.371h-0.835v-6.922h0.835
		l-0.012,0.672c0.439-0.603,1.205-0.893,1.971-0.893c1.531,0,2.771,1.24,2.771,2.772v4.371H93.24z M84.648,45.188h0.837v6.922
		h-0.837V45.188z M85.078,42.034c-0.277,0-0.51-0.22-0.51-0.51c0-0.278,0.232-0.51,0.51-0.51c0.29,0,0.511,0.232,0.511,0.51
		C85.589,41.814,85.368,42.034,85.078,42.034 M77.96,45.767c-1.31,0-2.411,0.882-2.747,2.087v-0.011h5.471l0.023,0.011
		C80.371,46.649,79.259,45.767,77.96,45.767 M75.119,48.689h-0.012c0.023,1.543,1.299,2.784,2.853,2.784
		c1.113,0,2.087-0.638,2.552-1.577l0.729,0.336c-0.591,1.217-1.844,2.051-3.281,2.051c-2.029,0-3.665-1.634-3.665-3.652
		c0-2.028,1.636-3.663,3.665-3.663c2.018,0,3.652,1.635,3.652,3.663v0.058H75.119z M70.545,41.026h0.835v11.095h-0.835V41.026z
		 M62.762,45.837l4.382,6.284h-1.008l-3.954-5.658l-0.766,0.847v-0.011v4.822h-0.835V41.026h0.835v5.044l4.638-5.033h1.136
		L62.762,45.837z M52.911,52.11V47.74c0-1.09-0.846-1.973-1.936-1.973c-1.078,0-1.959,0.766-1.959,1.973v4.371h-0.835v-6.922h0.835
		v0.672c0.429-0.603,1.194-0.893,1.959-0.893c1.531,0,2.772,1.24,2.772,2.772v4.371H52.911z M42.263,45.188h0.835v6.922h-0.835
		V45.188z M42.704,42.034c-0.29,0-0.51-0.22-0.51-0.51c0-0.278,0.22-0.51,0.51-0.51c0.278,0,0.511,0.232,0.511,0.51
		C43.214,41.814,42.981,42.034,42.704,42.034 M35.407,52.562l-3.408-7.374h0.938l2.47,5.402l2.458-5.402h0.928L35.407,52.562z
		 M28.071,41.026h0.835v11.095h-0.835V41.026z M19.994,45.779c-1.577,0-2.852,1.275-2.852,2.852c0,1.578,1.275,2.853,2.852,2.853
		c1.565,0,2.852-1.275,2.852-2.853C22.846,47.054,21.559,45.779,19.994,45.779 M22.893,52.11v-1.229v-0.023
		c-0.673,0.869-1.717,1.438-2.899,1.438c-2.028,0-3.664-1.635-3.664-3.665c0-2.017,1.635-3.652,3.664-3.652
		c1.183,0,2.238,0.557,2.911,1.439h-0.011V45.2h0.834v6.911H22.893z M10.159,52.296c-3.108,0-5.623-2.563-5.623-5.659
		c0-3.107,2.515-5.669,5.623-5.669c1.356,0,2.585,0.475,3.56,1.264l-0.603,0.638c-0.812-0.65-1.832-1.031-2.957-1.031
		c-2.62,0-4.742,2.168-4.742,4.799c0,2.621,2.123,4.789,4.742,4.789c1.125,0,2.145-0.384,2.957-1.031l0.603,0.638
		C12.745,51.82,11.516,52.296,10.159,52.296"/>
	<line x1="59.321" y1="53.719" x2="59.321" y2="58.089"/>
</g>
</svg>
