<?xml version="1.0" encoding="utf-8"?>
<!-- Generator: Adobe Illustrator 16.0.0, SVG Export Plug-In . SVG Version: 6.00 Build 0)  -->
<!DOCTYPE svg PUBLIC "-//W3C//DTD SVG 1.1//EN" "http://www.w3.org/Graphics/SVG/1.1/DTD/svg11.dtd">
<svg version="1.1" id="Layer_1" xmlns="http://www.w3.org/2000/svg" xmlns:xlink="http://www.w3.org/1999/xlink" x="0px" y="0px"
	 width="100px" height="100px" viewBox="0 0 100 100" enable-background="new 0 0 100 100" xml:space="preserve">
<g>
	<path fill-rule="evenodd" clip-rule="evenodd" fill="#231F20" d="M43.364,40.729h-1.839l-6.364,14.603h2.997l1.421-3.236h3.786
		h3.785l1.42,3.236h2.985l-6.352-14.603H43.364L43.364,40.729L43.364,40.729z M43.364,49.206h-2.543l2.543-5.779l0.011-0.024
		l2.532,5.803H43.364L43.364,49.206L43.364,49.206z"/>
	<polygon fill-rule="evenodd" clip-rule="evenodd" fill="#231F20" points="75.458,49.48 82.097,49.48 82.097,46.603 75.458,46.603 
		75.458,43.451 82.896,43.451 82.896,40.729 72.306,40.729 72.306,55.331 83.673,55.331 83.673,52.608 75.458,52.608 75.458,49.48 
		75.458,49.48 	"/>
	<polygon fill-rule="evenodd" clip-rule="evenodd" fill="#231F20" points="90.502,52.608 90.502,40.729 87.35,40.729 87.35,55.331 
		98,55.331 98,52.633 90.502,52.608 90.502,52.608 	"/>
	<polygon fill-rule="evenodd" clip-rule="evenodd" fill="#231F20" points="29.478,45.994 22.755,45.994 22.755,40.729 
		19.604,40.729 19.604,55.331 22.755,55.331 22.755,49.122 29.478,49.122 29.478,55.331 32.63,55.331 32.63,40.752 29.478,40.752 
		29.478,45.994 29.478,45.994 	"/>
	<polygon fill-rule="evenodd" clip-rule="evenodd" fill="#231F20" points="64.783,49.815 58.312,40.752 57.179,40.729 
		54.646,40.729 54.646,55.331 57.179,55.331 57.179,44.669 64.783,55.331 67.494,55.331 67.494,40.752 64.783,40.752 64.783,49.815 
		64.783,49.815 	"/>
	<polygon fill-rule="evenodd" clip-rule="evenodd" fill="#231F20" points="13.491,50.603 13.108,51.057 12.702,51.463 
		12.201,51.797 11.676,52.084 11.114,52.286 10.506,52.406 9.885,52.453 9.455,52.441 9.013,52.37 8.595,52.274 8.189,52.119 
		7.783,51.929 7.425,51.701 7.067,51.438 6.744,51.152 6.446,50.818 6.183,50.472 5.957,50.101 5.766,49.708 5.634,49.301 
		5.527,48.871 5.467,48.441 5.443,48 5.467,47.559 5.527,47.128 5.634,46.71 5.766,46.317 5.957,45.922 6.183,45.541 6.446,45.182 
		6.744,44.86 7.067,44.562 7.425,44.311 7.783,44.083 8.189,43.905 8.595,43.75 9.013,43.654 9.455,43.582 9.885,43.558 
		10.338,43.582 10.768,43.654 11.186,43.75 11.604,43.905 11.974,44.083 12.356,44.311 12.714,44.562 13.037,44.86 13.395,45.278 
		13.693,45.708 16.511,44.274 16.249,43.845 15.938,43.427 15.628,43.033 15.27,42.639 14.696,42.125 14.111,41.696 13.467,41.314 
		12.786,40.991 12.117,40.752 11.377,40.562 10.637,40.442 9.885,40.406 9.109,40.442 8.356,40.574 7.64,40.752 6.936,41.015 
		6.279,41.337 5.634,41.708 5.049,42.149 4.523,42.639 4.034,43.188 3.592,43.773 3.198,44.395 2.9,45.051 2.637,45.755 
		2.446,46.484 2.327,47.236 2.291,48 2.327,48.764 2.446,49.492 2.613,50.208 2.864,50.913 3.186,51.57 3.556,52.215 4.01,52.812 
		4.523,53.361 5.073,53.874 5.669,54.328 6.314,54.71 6.971,55.021 7.676,55.271 8.392,55.462 9.132,55.558 9.885,55.594 
		10.637,55.558 11.377,55.462 12.117,55.271 12.786,55.021 13.467,54.71 14.111,54.328 14.696,53.874 15.27,53.361 15.664,52.955 
		16.021,52.501 16.344,52.023 16.619,51.534 13.813,50.101 13.491,50.603 13.491,50.603 	"/>
</g>
</svg>
