<?xml version="1.0" encoding="utf-8"?>
<!-- Generator: Adobe Illustrator 16.0.0, SVG Export Plug-In . SVG Version: 6.00 Build 0)  -->
<!DOCTYPE svg PUBLIC "-//W3C//DTD SVG 1.1//EN" "http://www.w3.org/Graphics/SVG/1.1/DTD/svg11.dtd">
<svg version="1.1" id="Layer_1" xmlns="http://www.w3.org/2000/svg" xmlns:xlink="http://www.w3.org/1999/xlink" x="0px" y="0px"
	 width="100px" height="100px" viewBox="0 0 100 100" enable-background="new 0 0 100 100" xml:space="preserve">
<g>
	<g>
		<g>
			<g>
				<g>
					<g>
						<path fill="#EC1A3B" d="M8.28,47.855c2.602-4.809,7.096-10.053,12.404-11.804c1.09-0.271,2.539-0.577,3.506,0.167
							c0.859,0.636,0.975,1.725,0.78,2.705c-0.255,1.159-1.05,2.626-2.379,2.812c-0.239,0-0.443-0.085-0.598-0.253
							c-0.346-0.336-0.32-0.826-0.247-1.268c0.219-0.919,1.072-1.897,2.054-2.025c0.168-0.107,0.097-0.311,0.049-0.454
							c-0.13-0.204-0.286-0.36-0.525-0.409c-1.064-0.124-1.869,0.543-2.685,1.102c-3.097,2.488-5.346,5.684-7.236,8.87
							c-1.542,2.864-2.857,5.825-3.239,9.17c-0.188,2.426,0.582,4.808,2.744,5.976c2.341,1.238,5.373,0.4,7.721-0.237l2.156-0.662
							l4.146-1.229c3.93-1.146,8.85-1.403,12.687,0.115c2.319,0.965,4.708,2.288,6.22,4.564c0,0.06,0,0.132-0.072,0.12
							c-3.289-0.896-7.57-1.784-10.831-0.229l-0.156-0.036c-0.988-1.582-2.66-2.46-4.371-2.801
							c-5.527-0.533-10.073,2.081-15.27,2.732c-2.634,0.242-5.458,0.161-7.294-1.854c-2.898-2.892-2.557-7.995-1.181-11.481
							C7.111,50.219,7.666,49.025,8.28,47.855z"/>
						<path fill="#EC1A3B" d="M15.91,49.58c1.373-2.518,3.479-5.595,6.39-6.518c0.779-0.176,1.616-0.102,2.213,0.415
							c1.252,1.248,0.766,3.386,0.342,4.854c0,0.084,0.071,0.18,0.155,0.192c1.113-0.032,2.013-0.555,2.817-1.317
							c1.73-1.93,3.582-4.458,6.394-4.162c0.526,0.085,1.04,0.386,1.313,0.877c0.713,1.413,0.014,2.977-0.959,4.061
							c-0.373,0.357-0.84,0.631-1.378,0.461c-0.216-0.073-0.395-0.288-0.477-0.504c-0.2-0.993,0.378-1.912,1.181-2.435
							c0.229-0.226,0.922-0.069,0.732-0.583c-0.143-0.204-0.358-0.229-0.586-0.229c-1.366,0.569-2.256,1.965-3.051,3.133
							c-0.999,1.563-1.807,3.222-2.339,4.977c-0.146,0.634-0.329,1.458,0.041,2.045c0.274,0.371,0.728,0.529,1.196,0.411
							c1.354-0.533,2.543-1.617,3.576-2.737c2.368-2.837,3.625-6.348,6.792-8.656c0.983-0.678,2.374-1.199,3.557-0.574
							c0.19,0.072,0.346,0.324,0.585,0.229c0.191-0.19,0.325-0.597,0.708-0.5c0.874,0.015,1.879-0.029,2.776,0.058l0.06,0.084
							l-0.253,0.608l-4.918,9.978c-0.048,0.107-0.061,0.251-0.037,0.37c0.083,0.145,0.263,0.133,0.394,0.086
							c0.708-0.404,1.261-1.156,1.754-1.787c0.432-0.597,0.817-1.217,1.131-1.874c0.132-0.191,0.289-0.429,0.552-0.393
							c0.275,0.037,0.623-0.082,0.826,0.11c-0.314,0.836-0.808,1.599-1.241,2.387c-1.336,2.051-3.08,4.437-5.535,5.049
							c-0.407,0.047-0.91,0.081-1.22-0.219c-0.478-0.36-0.499-0.935-0.629-1.449c-0.048-0.06-0.132-0.072-0.203-0.049
							c-1.045,0.941-2.125,1.882-3.597,1.698c-0.455-0.098-0.884-0.446-1.086-0.877c-0.381-0.73-0.198-1.674-0.219-2.487
							c-0.036-0.096-0.155-0.061-0.203-0.024c-1.598,1.572-3.326,2.989-5.446,3.389c-0.982,0.115-1.831-0.175-2.486-0.87
							c-1.584-2.074-0.33-4.795,0.502-6.812c0.036-0.095,0.024-0.227-0.095-0.251c-0.575,0.046-1.126,0.139-1.677,0.221
							l-0.192,0.215c-1.289,2.387-2.686,4.916-5.002,6.689c-0.959,0.689-2.386,1.163-3.508,0.526
							c-1.17-0.806-1.273-2.24-1.125-3.567C14.715,52.325,15.259,50.928,15.91,49.58z M19.573,49.461
							c-0.675,1.36-1.362,2.732-1.392,4.347c0.071,0.299,0.249,0.646,0.584,0.731c0.359,0.097,0.659-0.094,0.935-0.271
							c1.32-1.108,2.235-2.623,2.982-4.079c0.061-0.143,0.169-0.322,0.085-0.478c-0.789-0.313-1.553-0.854-2.161-1.538l-0.132-0.024
							c-0.12,0.023-0.168,0.143-0.252,0.226L19.573,49.461z M21.629,46.694c0.045,0.717,0.713,1.341,1.347,1.583
							c0.155,0.048,0.406,0.169,0.539-0.022c0.24-0.453,0.386-0.955,0.507-1.457c0.122-0.657,0.221-1.541-0.412-1.974
							c-0.215-0.121-0.538-0.133-0.766-0.027C22.125,45.154,21.608,45.881,21.629,46.694z M37.839,52.262
							c-0.182,0.598-0.459,1.242-0.27,1.899c0.059,0.132,0.202,0.229,0.333,0.265c0.539,0.014,0.899-0.476,1.248-0.856
							c1.576-2.183,2.78-4.533,3.866-6.921c0.181-0.501,0.47-0.966,0.46-1.528c-0.012-0.12-0.131-0.204-0.227-0.264
							c-0.239-0.108-0.467,0.059-0.659,0.153c-2.124,1.63-3.269,3.97-4.33,6.19L37.839,52.262z"/>
						<path fill="#EC1A3B" d="M48.07,46.128c0.47-0.931,0.868-1.897,1.458-2.78c0.24-0.263,0.611-0.25,0.934-0.284l2.357,0.032
							l0.097,0.096c-0.398,0.943-0.833,1.874-1.327,2.78c-0.12,0.239-0.372,0.465-0.648,0.5c-0.957,0.02-1.975,0.077-2.884-0.01
							C47.961,46.367,48.045,46.236,48.07,46.128z"/>
						<path fill="#EC1A3B" d="M50.435,50.906c1.639-3.389,3.614-6.658,6.412-9.542c2.715-2.705,5.655-4.894,9.212-5.563
							c0.97-0.14,2.059-0.052,2.799,0.608c0.144,0.12,0.31,0.24,0.514,0.169c2.553-1.02,6.097-1.378,8.653-0.102
							c1.482,0.723,2.892,1.647,4.312,2.537c0.179,0.096,0.095,0.287-0.001,0.395c-0.817,0.905-1.504,1.835-2.236,2.777
							c-0.084,0.083-0.216,0.047-0.299-0.001l-3.762-2.583c-1.755-1.189-3.774-2.021-6.062-1.647
							c-0.251,0.13-0.134,0.442-0.17,0.681c0.052,2.343-0.781,4.385-1.912,6.246c-0.903,1.3-1.948,2.659-3.481,3.096
							c-0.672,0.141-1.317-0.064-1.722-0.604c-1.119-1.702-0.131-3.778,0.688-5.294c0.94-1.646,2.394-3.196,3.966-4.386
							c0.036-0.06,0.108-0.119,0.061-0.191c-0.155-0.156-0.419-0.061-0.61-0.026c-2.552,0.852-4.595,3.104-6.481,5.237
							c-3.365,4.137-5.918,8.623-7.371,13.555c-0.45,1.852-1.058,4.695,0.828,5.992c1.661,0.891,3.257-0.251,4.505-1.322
							c1.898-1.932,3.175-4.162,3.697-6.683c0.087-0.753,0.294-1.78-0.398-2.297c-0.622-0.277-1.138,0.235-1.559,0.664
							c-0.974,1.168-1.385,2.565-1.558,4.071c-0.432,0.357-0.947,0.582-1.404,0.928c-0.863,0.595-1.716,1.393-2.4,2.191
							c-0.084,0.023-0.097-0.072-0.12-0.12c-0.098-2.774,0.893-5.149,2.42-7.284c1.213-1.406,2.773-2.608,4.662-2.16
							c0.826,0.218,1.373,1.092,1.526,1.87c0.302,2.608-0.795,4.888-1.976,7.012c-1.901,2.981-4.903,5.996-8.709,5.636
							c-1.459-0.088-2.82-1.097-3.438-2.438c-1.438-2.862-0.444-6.542,0.523-9.312L50.435,50.906z M63.378,45.966
							c0.035,0.323,0.165,0.67,0.501,0.791c0.645,0.182,1.161-0.295,1.642-0.664c1.729-1.823,2.778-3.936,3.05-6.361
							c0.001-0.358,0.123-0.812-0.08-1.124c-0.144-0.024-0.299,0.035-0.419,0.118c-1.164,0.773-2.257,1.905-3.051,3.05
							C64.19,43.052,63.432,44.364,63.378,45.966z"/>
						<path fill="#EC1A3B" d="M65.804,54.079c1.383-1.823,3.221-3.814,5.544-3.961c0.586,0.014,1.1,0.255,1.457,0.747
							c0.988,1.462,0.155,3.336-0.209,4.816c-0.035,0.132,0.06,0.228,0.155,0.264c0.479,0.074,1.029,0.004,1.449-0.21l0.18-0.227
							c1.669-4.752,4.149-9.167,7.096-13.376c1.84-2.433,4.194-4.947,6.928-6.121c0.647-0.225,1.581-0.497,2.202-0.016
							c0.692,0.564,0.498,1.543,0.315,2.296c-0.074,0.669-0.816,0.738-1.308,0.893c-0.023-0.013-0.048,0-0.072-0.025
							c0.014-0.43,0.243-0.812,0.328-1.23c0.024-0.228,0.062-0.418-0.034-0.634c-0.119-0.215-0.382-0.145-0.562-0.085
							c-0.924,0.451-1.668,1.273-2.378,2.072c-2.644,3.063-4.559,6.464-6.317,9.901c-0.579,1.193-1.182,2.375-1.652,3.616
							c-0.013,0.072,0.012,0.12,0.071,0.168c0.407-0.011,0.648-0.428,0.96-0.643c2.329-2.108,4.217-4.528,5.96-6.984
							c0.372-0.179,0.803-0.177,1.234-0.211l0.083,0.024c-0.025,0.335-0.312,0.597-0.47,0.896c-1.948,2.803-4.16,5.484-6.85,7.926
							l-1.944,1.596c-0.408,0.357-0.422,0.907-0.627,1.36c-0.375,1.23-0.751,2.484-0.804,3.835c0.012,0.227,0.095,0.442,0.285,0.562
							c0.515,0.229,0.923-0.259,1.283-0.593c2.632-3.039,3.793-6.766,7.011-9.492c1.056-0.833,2.446-1.545,3.809-0.919
							c0.239,0.084,0.418,0.396,0.706,0.253c0.204-0.143,0.217-0.465,0.504-0.453c0.945-0.008,1.951-0.041,2.86,0.034
							c0.083,0.072,0.023,0.192-0.001,0.275l-0.65,1.312l-4.025,8.116c-0.182,0.37-0.423,0.764-0.4,1.182
							c0.06,0.18,0.252,0.192,0.407,0.157c0.756-0.416,1.308-1.107,1.802-1.812c0.493-0.691,0.891-1.419,1.359-2.123
							c0.252-0.118,0.599-0.069,0.874-0.032c0.166,0.155-0.049,0.357-0.086,0.537c-1.182,2.446-2.83,5.119-5.408,6.473
							c-0.6,0.297-1.427,0.569-2.083,0.208c-0.525-0.36-0.476-1.018-0.713-1.521c-0.048-0.072-0.168-0.061-0.228-0.024
							c-1.068,0.952-2.221,2.024-3.716,1.613c-0.932-0.434-1.036-1.511-1.104-2.431c-0.048-0.037-0.024-0.108-0.083-0.144
							l-0.119,0.047c-1.047,1.252-2.368,2.813-4.128,2.664c-0.67-0.051-1.254-0.698-1.455-1.297
							c-0.616-1.95,0.038-4.088,0.475-5.964c0.001-0.107-0.118-0.216-0.214-0.228l-1.472,0.019l-0.241,0.274
							c-1.084,2.124-2.276,4.176-4.15,5.951c-0.983,0.869-2.195,1.595-3.546,1.195c-1.124-0.482-1.419-1.703-1.414-2.851
							C62.914,58.864,64.216,56.417,65.804,54.079z M66.188,60.572c0.023,0.407,0.226,0.826,0.644,0.959
							c0.275,0.097,0.574-0.021,0.814-0.141c1.38-1.023,2.199-2.599,2.946-4.03c0.072-0.144,0.133-0.37-0.059-0.479
							c-0.717-0.361-1.409-0.926-1.98-1.562c-0.071-0.071-0.204-0.084-0.287-0.037c-0.518,0.692-0.855,1.456-1.217,2.22
							C66.638,58.471,66.192,59.425,66.188,60.572z M69.658,53.866c0.045,0.729,0.63,1.412,1.299,1.653
							c0.132,0.049,0.371,0.109,0.467-0.058c0.41-0.931,0.797-1.993,0.585-3.07c-0.083-0.251-0.297-0.503-0.56-0.588
							c-0.264-0.072-0.539,0.011-0.767,0.117C70.011,52.36,69.685,53.089,69.658,53.866z M82.85,60.248
							c-0.025,0.346-0.11,0.776,0.152,1.04c0.143,0.145,0.37,0.157,0.55,0.098c0.708-0.368,1.165-1.12,1.599-1.739
							c1.443-2.243,2.505-4.643,3.494-7.077c0.037-0.216,0.098-0.515-0.104-0.658c-0.586-0.277-1.043,0.366-1.475,0.677
							c-1.91,1.894-2.923,4.186-3.877,6.489L82.85,60.248z"/>
						<path fill="#EC1A3B" d="M85.641,42.42l1.274-1.646l0.191-0.167c3.688-0.071,6.567-2.26,9.161-4.846
							c-0.013,0.347-0.17,0.669-0.291,0.979c-1.701,3.999-5.83,7.512-10.295,7.568l-1.054-0.016
							c-0.19-0.048-0.059-0.239-0.011-0.334L85.641,42.42z"/>
					</g>
				</g>
			</g>
		</g>
	</g>
	<path fill="#EC1A3B" d="M90.29,63.528c0-0.501,0.378-0.879,0.862-0.879c0.478,0,0.855,0.378,0.855,0.879
		c0,0.509-0.378,0.883-0.855,0.883C90.668,64.411,90.29,64.037,90.29,63.528z M91.152,64.587c0.575,0,1.068-0.447,1.068-1.059
		c0-0.606-0.493-1.054-1.068-1.054c-0.582,0-1.075,0.447-1.075,1.054C90.077,64.14,90.57,64.587,91.152,64.587z M90.928,63.611
		h0.213l0.321,0.528h0.207l-0.347-0.536c0.18-0.022,0.316-0.118,0.316-0.336c0-0.24-0.143-0.346-0.431-0.346h-0.465v1.218h0.185
		V63.611z M90.928,63.455v-0.377h0.252c0.128,0,0.266,0.027,0.266,0.179c0,0.187-0.14,0.198-0.296,0.198H90.928z"/>
</g>
</svg>
