<?xml version="1.0" encoding="utf-8"?>
<!-- Generator: Adobe Illustrator 16.0.0, SVG Export Plug-In . SVG Version: 6.00 Build 0)  -->
<!DOCTYPE svg PUBLIC "-//W3C//DTD SVG 1.1//EN" "http://www.w3.org/Graphics/SVG/1.1/DTD/svg11.dtd">
<svg version="1.1" id="Layer_1" xmlns="http://www.w3.org/2000/svg" xmlns:xlink="http://www.w3.org/1999/xlink" x="0px" y="0px"
	 width="100px" height="100px" viewBox="0 0 100 100" enable-background="new 0 0 100 100" xml:space="preserve">
<path fill-rule="evenodd" clip-rule="evenodd" fill="#231F20" d="M50.271,14c16.733,0,30.308,13.739,30.308,30.681
	c0,16.942-13.574,30.68-30.308,30.68c-16.735,0-30.306-13.738-30.306-30.68C19.964,27.739,33.535,14,50.271,14L50.271,14z
	 M50.271,18.704c-14.169,0-25.661,11.633-25.661,25.978c0,14.345,11.491,25.977,25.661,25.977c14.171,0,25.66-11.632,25.66-25.977
	C75.931,30.336,64.441,18.704,50.271,18.704z"/>
<polygon fill-rule="evenodd" clip-rule="evenodd" fill="#231F20" points="50.278,23.125 50.278,23.125 54.997,37.822 70.261,37.822 
	57.912,46.906 62.628,61.604 50.278,52.521 37.929,61.604 42.646,46.906 30.296,37.822 45.562,37.822 "/>
<path fill-rule="evenodd" clip-rule="evenodd" fill="#231F20" d="M72.95,78.803L72.95,78.803v1.395h-3.513v0.443v0.523v0.607h0.402
	h1.559h0.452c0.819,0,1.484,0.66,1.484,1.477v0.525v0.41v0.359c0,0.816-0.665,1.477-1.484,1.477H67.77v-1.395h4.031v-0.441v-0.41
	v-0.607h-0.402H69.84h-0.451c-0.82,0-1.484-0.66-1.484-1.477v-0.525v-0.523v-0.361c0-0.816,0.664-1.477,1.484-1.477H72.95
	L72.95,78.803z M81,86.02L81,86.02h-3.562c-0.82,0-1.484-0.66-1.484-1.477v-0.951V81.23v-0.951c0-0.816,0.664-1.477,1.484-1.477H81
	v1.395h-3.512v1.033v0.574H81v1.395h-3.512v0.393v1.033H81V86.02L81,86.02z M56.948,86.02L56.948,86.02h-3.562
	c-0.819,0-1.484-0.66-1.484-1.477v-0.951V81.23v-0.951c0-0.816,0.665-1.477,1.484-1.477h3.562v1.395h-3.512v1.033v0.574h3.512v1.395
	h-3.512v0.393v1.033h3.512V86.02L56.948,86.02z M36.46,78.803L36.46,78.803h0.775h2.606c0.82,0,1.484,0.66,1.484,1.477v5.74h-1.534
	v-5.822h-2.557v5.822h-1.534v-7.217H36.46L36.46,78.803z M61.237,81.805L61.237,81.805h2.721v-0.279v-1.049v-0.279h-2.721V81.805
	L61.237,81.805z M65.492,80.477L65.492,80.477v1.049v0.197c0,0.754-0.57,1.377-1.305,1.465l1.438,2.832h-1.727l-1.255-2.82h-1.406
	v2.82h-1.534v-7.217h0.742h0.792h2.771c0.819,0,1.484,0.66,1.484,1.477V80.477L65.492,80.477z M44.84,78.803L44.84,78.803
	l1.715,6.004l1.814-6.004h1.749l-2.342,7.217h-2.408l-2.244-7.217H44.84L44.84,78.803z M19.584,80.279L19.584,80.279
	c0-0.816,0.665-1.477,1.485-1.477h3.81v1.395h-3.761v4.428h3.761v1.395h-3.81c-0.82,0-1.485-0.66-1.485-1.477V80.279L19.584,80.279z
	 M27.222,80.279L27.222,80.279c0-0.816,0.665-1.477,1.485-1.477h3.167c0.82,0,1.485,0.66,1.485,1.477v4.264
	c0,0.816-0.665,1.477-1.485,1.477h-3.167c-0.82,0-1.485-0.66-1.485-1.477V80.279L27.222,80.279z M28.756,80.197v4.428h3.068v-4.428
	H28.756L28.756,80.197z"/>
</svg>
