<?xml version="1.0" encoding="utf-8"?>
<!-- Generator: Adobe Illustrator 16.0.0, SVG Export Plug-In . SVG Version: 6.00 Build 0)  -->
<!DOCTYPE svg PUBLIC "-//W3C//DTD SVG 1.1//EN" "http://www.w3.org/Graphics/SVG/1.1/DTD/svg11.dtd">
<svg version="1.1" id="Layer_1" xmlns="http://www.w3.org/2000/svg" xmlns:xlink="http://www.w3.org/1999/xlink" x="0px" y="0px"
	 width="100px" height="100px" viewBox="0 0 100 100" enable-background="new 0 0 100 100" xml:space="preserve">
<path fill="#231F20" d="M49.212,36.507c0.628,0.028,1.227,0.267,1.7,0.679c0.646,0.611,0.816,1.631,0.511,2.447
	c-1.19,2.447-4.016,4.082-5.948,4.623c-1.157,0.271-2.618,0.271-3.671-0.136c-0.511,0.306-0.94,1.293-1.564,0.883
	c-0.901-0.704-0.121-1.807-0.642-2.589c-0.107-0.161-0.377-0.172-0.513-0.436c-0.714-1.563,0.17-3.06,1.155-4.25
	C41.882,35.896,46.596,33.854,49.212,36.507z M43.74,37.729c-0.918,0.17-1.954,0.57-2.515,1.224
	c-0.561,0.654-0.917,1.292-0.577,1.972c1.189-0.884,1.768-2.108,3.093-2.856C43.74,37.933,43.944,37.831,43.74,37.729L43.74,37.729z
	 M49.282,38.069c-2.347-0.204-4.115,1.564-5.78,3.263c-0.102,0.272-0.714,0.577-0.238,0.884c2.244,0.204,4.385-0.441,6.018-1.938
	c0.476-0.441,0.815-1.02,0.577-1.631C49.758,38.41,49.518,38.172,49.282,38.069z M69.607,48.199c1.088,2.652,2.004,6.833,0,9.381
	c-0.544,0.612-1.495,1.175-2.108,0.713c-2.243-1.8-3.194-4.383-4.587-6.694c-0.204-0.104-0.204,0.17-0.307,0.271
	c-0.509,2.345,0.442,5.404-1.155,7.239c-0.611,0.102-1.184-0.213-1.394-0.816c-0.782-2.411,0.033-4.928,0.237-7.341
	c0.476-1.224,0.68-2.651,1.733-3.569c1.699,0.68,2.516,2.583,3.5,3.978c0.715,1.053,1.293,2.242,2.108,3.194
	c0.713-0.306,0.361-1.238,0.339-1.801c-0.271-2.209-0.884-4.25-1.462-6.357c-0.033-0.544-0.339-1.462,0.237-1.802
	C68.281,45.276,68.927,46.874,69.607,48.199L69.607,48.199z M59.343,47.382c0,0.511-0.408,1.148-0.749,1.225
	c-3.263,0.509-6.899,0.204-9.959,1.223c-0.102,0.374,0.34,0.442,0.577,0.544c2.617,0.407,5.371,0.51,7.92,1.157
	c1.349,0.342,1.836,1.937,1.939,3.263c0.062,1.045-0.34,2.311-1.36,3.024c-2.516,1.598-6.356,1.529-8.906,0.068
	c-0.974-0.546-1.903-1.426-1.971-2.514c0.005-0.864,0.374-1.543,0.986-1.87c2.448-0.985,5.472-0.44,7.581,0.815
	c0.135,0.682-0.602,0.644-0.953,0.885c-2.346,1.359-4.113-1.529-6.289-0.477c-0.305,0.204-0.526,0.772-0.168,0.952
	c2.684,1.189,5.676,0.34,8.328-0.407c0.306-0.103,0.679-0.408,0.713-0.715c-0.102-1.088-1.325-1.325-2.106-1.631
	c-2.312-0.577-4.862-0.577-7.343-0.815c-0.477-0.102-1.083-0.434-1.224-0.815c-0.272-0.816-0.272-1.937,0.339-2.618
	c3.162-2.788,7.953-2.549,11.964-1.802C58.933,46.975,59.24,47.077,59.343,47.382L59.343,47.382z M44.488,48.675
	c0.307,3.262,0.476,6.289,0.408,9.72c-0.068,0.44-0.577,0.544-0.918,0.714c-0.543,0.102-1.246-0.015-1.461-0.306
	c-0.781-1.259-0.509-2.957-0.577-4.486c0.102-2.412,0.068-5.031,0.748-7.275c0.129-0.326,0.509-0.61,0.815-0.407
	C44.319,47.042,44.455,47.859,44.488,48.675z M82.253,48.199c0.163,0.274,0.334,0.7,0,0.884c-1.53,0.68-3.603,0.374-5.371,0.577
	c-0.477,0.408-0.85,1.088-0.68,1.7c0.171,0.104,0.321,0.258,0.51,0.238c1.087,0.068,2.719-0.51,3.434,0.509
	c0.175,0.305-0.023,1.438-0.51,1.463c-1.326,0.171-3.506-0.167-4.148,0.171c-0.814,0.543-0.747,1.597-1.054,2.447
	c0.578,0.373,1.185-0.009,1.869-0.102c1.26-0.204,2.653-0.579,3.91-0.308c0.238,0.443,0.578,0.918,0.34,1.462
	c-2.143,1.699-4.907,3.44-7.852,2.21c-1.104-0.496-1.598-2.176-1.223-3.602c0.236-1.021,1.29-2.006,0.645-3.094
	c-0.102-0.477,0.171-0.884,0.579-0.985c1.12,0,0.883-1.394,1.461-2.041c-0.646-0.714-2.277-0.68-2.106-2.107
	c0.782-0.408,1.733-0.271,2.616-0.408c2.006-0.408,4.249-0.646,6.29-0.408C81.368,46.887,81.913,47.689,82.253,48.199L82.253,48.199
	z M33.713,40.448c3.137,2.564,7.207,6.934,6.697,11.965c-0.612,3.979-4.827,6.969-8.396,7.92c-3.467,1.02-7.818,0.918-11.354,0.103
	c-0.238,0.646-0.475,1.427-1.224,1.7c-0.475,0.169-1.087,0.068-1.461-0.239c-1.054-0.985-0.204-2.89-1.734-3.501
	c-2.992-1.257-6.22-3.737-7.75-6.797c-0.205-0.612,0.034-1.223,0.407-1.699c2.346-1.87,5.303-2.618,8.26-3.196
	c0.17,0.067,0.102-0.169,0.238-0.237c0.17-2.04,0.238-4.114,0.883-5.949c0.147-0.257,0.51-0.339,0.749-0.17
	c1.869,1.428,0.985,4.112,1.801,6.051c3.569,0.17,7.139,0.339,9.959,2.345c0.952,0.782,1.184,2.275,0.883,3.128
	c-0.3,0.852-1.292,1.462-2.209,1.528c-0.612,0-1.768,0.06-1.699-0.406c0.068-0.468,2.08-1.232,1.461-1.87
	c-0.888-0.917-5.331-1.462-8.084-1.802c-0.339-0.068-0.651,0.033-0.651,0.408c-0.068,2.583-0.272,5.439,0.169,7.919
	c0.034,0.17,0.238,0.374,0.409,0.408c4.86,0.782,9.993,0.339,13.8-2.446c1.768-1.428,2.346-3.435,2.04-5.645
	c-1.53-6.152-7.954-9.857-13.222-12.236c-5.132-2.243-10.81-3.399-16.894-3.093c-0.969,0.072-2.504,0.405-2.515,0.749
	c-0.012,0.342,1.739,0.234,1.529,0.883c-0.21,0.648-1.988,0.263-2.515,0.102s-0.476-0.918-0.34-1.394
	c1.326-2.345,5.025-2.535,6.697-2.617C18.893,32.121,27.833,35.641,33.713,40.448L33.713,40.448z M17.058,49.558
	c-2.346,0.035-4.827,0.271-7.002,1.088c-0.442,0.17-0.986,0.646-0.646,1.224c0.883,1.189,2.147,2.167,3.331,2.854
	c1.184,0.688,2.753,1.564,4.181,1.769c0.34-2.21,0.34-4.385,0.306-6.664C17.091,49.762,17.227,49.626,17.058,49.558z M87.316,46.464
	c-0.103,2.958-2.856,4.794-2.856,7.75c0.103,0.103,0.171,0.238,0.306,0.171c2.211-2.413,4.387-5.846,7.615-6.867
	c0.851-0.067,1.62,0.672,1.938,1.224c1.122,2.244,0.853,5.406-0.712,7.446c-1.615,2-4.42,4.01-7.613,3.669
	c-1.326,3.265-2.246,6.697-2.755,10.267c-0.273,0.713-0.917,0.067-1.325-0.068c-2.754-2.176-0.492-7.936-0.307-8.669
	c0.187-0.733,0.924-2.462,1.463-3.909c-1.292-2.31-0.477-5.099,0.577-7.241c0.814-1.427,1.938-2.854,3.265-3.942
	C87.078,46.295,87.214,46.329,87.316,46.464L87.316,46.464z M92.79,50.136c-0.408-0.067-0.578,0.476-0.917,0.579
	c-1.564,1.767-3.129,3.534-3.91,5.642c1.055,0.136,1.938-0.544,2.856-0.917c1.562-0.986,2.548-2.617,2.447-4.488
	C93.197,50.646,92.926,50.408,92.79,50.136z"/>
</svg>
