<?xml version="1.0" encoding="utf-8"?>
<!-- Generator: Adobe Illustrator 17.0.1, SVG Export Plug-In . SVG Version: 6.00 Build 0)  -->
<!DOCTYPE svg PUBLIC "-//W3C//DTD SVG 1.1//EN" "http://www.w3.org/Graphics/SVG/1.1/DTD/svg11.dtd">
<svg version="1.1" id="Layer_1" xmlns="http://www.w3.org/2000/svg" xmlns:xlink="http://www.w3.org/1999/xlink" x="0px" y="0px"
	 width="174px" height="32px" viewBox="0 0 174 32" enable-background="new 0 0 174 32" xml:space="preserve">
<path fill="#FEFEFE" d="M0,0h161c7.18,0,13,5.82,13,13v19H13C5.82,32,0,26.18,0,19V0z"/>
<g>
	<path fill="#42BAEB" d="M24.671,8c0.125,0,0.229,0.052,0.312,0.156l3.125,4.625c0.104,0.146,0.094,0.292-0.031,0.438l-8.625,10.656
		C19.389,23.958,19.296,24,19.171,24s-0.219-0.042-0.281-0.125l-8.625-10.656c-0.125-0.146-0.135-0.292-0.031-0.438l3.125-4.625
		C13.421,8.052,13.525,8,13.671,8H24.671z M24.077,9.5h-1.781l1.625,3h2.125L24.077,9.5z M17.764,9.5l-1.625,3h6.063l-1.625-3
		H17.764z M14.264,9.5l-1.969,3h2.125l1.625-3H14.264z M12.921,14l3.75,5l-2.125-5H12.921z M16.139,14l3.031,7.594L22.202,14H16.139
		z M21.671,19l3.75-5h-1.625L21.671,19z M41.999,10.8h5.088c1.216,0,2.288,0.235,3.216,0.704c0.939,0.459,1.664,1.109,2.176,1.952
		c0.523,0.843,0.784,1.824,0.784,2.944c0,1.12-0.261,2.101-0.784,2.944c-0.512,0.843-1.237,1.499-2.176,1.968
		c-0.928,0.459-2,0.688-3.216,0.688h-5.088V10.8z M46.959,19.872c1.12,0,2.011-0.309,2.672-0.928
		c0.672-0.629,1.008-1.477,1.008-2.544c0-1.067-0.336-1.909-1.008-2.528c-0.661-0.629-1.552-0.944-2.672-0.944h-2.368v6.944H46.959z
		 M64.641,22.192c-1.163,0-2.213-0.251-3.152-0.752c-0.928-0.501-1.659-1.189-2.192-2.064c-0.523-0.885-0.784-1.877-0.784-2.976
		s0.261-2.085,0.784-2.96c0.533-0.885,1.264-1.579,2.192-2.08c0.939-0.501,1.989-0.752,3.152-0.752c1.163,0,2.208,0.251,3.136,0.752
		c0.928,0.501,1.659,1.195,2.192,2.08c0.533,0.875,0.8,1.861,0.8,2.96s-0.267,2.091-0.8,2.976c-0.533,0.875-1.264,1.563-2.192,2.064
		C66.849,21.941,65.804,22.192,64.641,22.192z M64.641,19.984c0.661,0,1.259-0.149,1.792-0.448c0.533-0.309,0.949-0.736,1.248-1.28
		c0.309-0.544,0.464-1.163,0.464-1.856c0-0.693-0.155-1.312-0.464-1.856c-0.299-0.544-0.715-0.965-1.248-1.264
		c-0.533-0.309-1.131-0.464-1.792-0.464c-0.661,0-1.259,0.155-1.792,0.464c-0.533,0.299-0.955,0.72-1.264,1.264
		c-0.299,0.544-0.448,1.163-0.448,1.856c0,0.693,0.149,1.312,0.448,1.856c0.309,0.544,0.731,0.971,1.264,1.28
		C63.383,19.835,63.98,19.984,64.641,19.984z M86.909,22l-0.016-6.72l-3.296,5.536h-1.168l-3.28-5.392V22h-2.432V10.8h2.144
		l4.192,6.96l4.128-6.96h2.128L89.341,22H86.909z M95.999,10.8h2.592V22h-2.592V10.8z M115.521,10.8V22h-2.128l-5.584-6.8V22h-2.56
		V10.8h2.144l5.568,6.8v-6.8H115.521z M129.547,19.6h-5.2l-0.992,2.4h-2.657l4.993-11.2h2.56l5.008,11.2h-2.72L129.547,19.6z
		 M128.731,17.632l-1.776-4.288l-1.776,4.288H128.731z M148.693,10.8V22h-2.128l-5.584-6.8V22h-2.56V10.8h2.144l5.567,6.8v-6.8
		H148.693z M157.662,12.912h-3.584V10.8h9.76v2.112h-3.584V22h-2.592V12.912z"/>
</g>
</svg>
