<?xml version="1.0" encoding="utf-8"?>
<!-- Generator: Adobe Illustrator 16.0.0, SVG Export Plug-In . SVG Version: 6.00 Build 0)  -->
<!DOCTYPE svg PUBLIC "-//W3C//DTD SVG 1.1//EN" "http://www.w3.org/Graphics/SVG/1.1/DTD/svg11.dtd">
<svg version="1.1" id="Layer_1" xmlns="http://www.w3.org/2000/svg" xmlns:xlink="http://www.w3.org/1999/xlink" x="0px" y="0px"
	 width="100px" height="100px" viewBox="0 0 100 100" enable-background="new 0 0 100 100" xml:space="preserve">
<circle fill="#002C5C" cx="50" cy="50" r="50"/>
<g>
	<path fill="#FFFFFF" d="M71.863,25.845h2.062c2.007-0.057,2.866,1.777,2.866,3.209v21.491c0.057,1.547-0.859,2.979-2.637,2.979
		h-2.293V25.845H71.863z M73.982,25.042H65.73v0.802h2.179v48.311H65.73v0.859h9.283v-0.859h-3.15V54.499h2.75
		c3.896,0,6.133-2.063,6.133-4.872V30.315C80.746,27.507,78.854,25.042,73.982,25.042L73.982,25.042z"/>
	<path fill="#FFFFFF" d="M30.315,25.674c0,0.802-0.458,0.745-0.802,0.458c-1.375-0.917-2.98-1.604-4.47-1.604
		c-2.407,0-5.788,1.204-5.846,6.247v37.02c0.058,6.475,3.152,7.68,6.189,7.68c2.407,0.058,3.554-1.205,4.47-1.662
		c0.516-0.172,1.089,0.287,1.089,1.261h0.974V51.52h2.006v-0.804h-8.367v0.804h2.407v20.229c0,1.661-1.089,2.923-2.521,2.923
		c-1.375,0-2.407-1.317-2.407-2.923V29.284c0-1.146,0.229-3.84,2.006-3.84c3.438,0,5.272,10.086,5.272,15.3h0.974V24.985h-0.974
		V25.674L30.315,25.674z"/>
	<path fill="#FFFFFF" d="M45.502,53.581l2.407-21.604l2.464,21.604H45.502L45.502,53.581z M50.488,54.441l2.235,19.713h-2.178v0.859
		h8.252v-0.859h-2.178l-5.502-49.169h-3.495l-5.158,46.419c-0.286,1.66-0.401,2.693-2.808,2.75v0.859h6.189v-0.859
		c-1.777,0-2.579-1.146-2.407-2.293l1.948-17.42H50.488L50.488,54.441z"/>
</g>
</svg>
