<?xml version="1.0" encoding="utf-8"?>
<!-- Generator: Adobe Illustrator 16.0.0, SVG Export Plug-In . SVG Version: 6.00 Build 0)  -->
<!DOCTYPE svg PUBLIC "-//W3C//DTD SVG 1.1//EN" "http://www.w3.org/Graphics/SVG/1.1/DTD/svg11.dtd">
<svg version="1.1" id="Layer_1" xmlns="http://www.w3.org/2000/svg" xmlns:xlink="http://www.w3.org/1999/xlink" x="0px" y="0px"
	 width="100px" height="100px" viewBox="0 0 100 100" enable-background="new 0 0 100 100" xml:space="preserve">
<g>
	<polygon fill-rule="evenodd" clip-rule="evenodd" fill="#002C5C" points="100.058,100 100.058,0 0,0 0,100 100.058,100 	"/>
	<path fill-rule="evenodd" clip-rule="evenodd" fill="#FFFFFF" d="M71.863,25.845h2.062c2.007-0.057,2.866,1.777,2.866,3.209v21.491
		c0.057,1.547-0.859,2.979-2.636,2.979h-2.293V25.845L71.863,25.845z M73.983,25.042H65.73v0.802h2.179v48.311H65.73v0.859h9.284
		v-0.859h-3.151V54.499h2.75c3.896,0,6.133-2.063,6.133-4.872V30.315C80.746,27.507,78.854,25.042,73.983,25.042L73.983,25.042z"/>
	<path fill-rule="evenodd" clip-rule="evenodd" fill="#FFFFFF" d="M30.315,25.674c0,0.802-0.458,0.745-0.802,0.458
		c-1.375-0.917-2.98-1.604-4.47-1.604c-2.407,0-5.788,1.204-5.846,6.247v37.02c0.058,6.475,3.152,7.679,6.189,7.679
		c2.407,0.058,3.554-1.204,4.47-1.661c0.516-0.172,1.089,0.286,1.089,1.26h0.974V51.519h2.006v-0.803h-8.367v0.803h2.407v20.229
		c0,1.661-1.089,2.923-2.521,2.923c-1.375,0-2.407-1.317-2.407-2.923V29.284c0-1.146,0.229-3.84,2.006-3.84
		c3.438,0,5.272,10.086,5.272,15.3h0.974V24.985h-0.974V25.674L30.315,25.674z"/>
	<path fill-rule="evenodd" clip-rule="evenodd" fill="#FFFFFF" d="M45.502,53.581l2.407-21.604l2.464,21.604H45.502L45.502,53.581z
		 M50.488,54.441l2.235,19.714h-2.178v0.859h8.252v-0.859h-2.178l-5.502-49.17h-3.495l-5.158,46.419
		c-0.286,1.661-0.401,2.693-2.808,2.751v0.859h6.189v-0.859c-1.777,0-2.579-1.146-2.407-2.293l1.948-17.421H50.488L50.488,54.441z"
		/>
</g>
</svg>
