<svg width="91" height="92" viewBox="0 0 91 92" fill="none" xmlns="http://www.w3.org/2000/svg">
<path d="M30.25 6.32812C34.0521 2.52604 38.6354 0.625 44 0.625C49.3646 0.625 53.9219 2.52604 57.6719 6.32812C61.474 10.0781 63.375 14.6354 63.375 20C63.375 25.3646 61.474 29.9479 57.6719 33.75C53.9219 37.5 49.3646 39.375 44 39.375C38.6354 39.375 34.0521 37.5 30.25 33.75C26.5 29.9479 24.625 25.3646 24.625 20C24.625 14.6354 26.5 10.0781 30.25 6.32812ZM32.9062 31.0938C35.9792 34.1146 39.6771 35.625 44 35.625C48.3229 35.625 51.9948 34.1146 55.0156 31.0938C58.0885 28.0208 59.625 24.3229 59.625 20C59.625 15.6771 58.0885 12.0052 55.0156 8.98438C51.9948 5.91146 48.3229 4.375 44 4.375C39.6771 4.375 35.9792 5.91146 32.9062 8.98438C29.8854 12.0052 28.375 15.6771 28.375 20C28.375 24.3229 29.8854 28.0208 32.9062 31.0938ZM39.4688 18.0469C39 18.5156 38.4271 18.75 37.75 18.75C37.0729 18.75 36.474 18.5156 35.9531 18.0469C35.4844 17.526 35.25 16.9271 35.25 16.25C35.25 15.5729 35.4844 15 35.9531 14.5312C36.474 14.0104 37.0729 13.75 37.75 13.75C38.4271 13.75 39 14.0104 39.4688 14.5312C39.9896 15 40.25 15.5729 40.25 16.25C40.25 16.9271 39.9896 17.526 39.4688 18.0469ZM48.4531 14.5312C48.974 14.0104 49.5729 13.75 50.25 13.75C50.9271 13.75 51.5 14.0104 51.9688 14.5312C52.4896 15 52.75 15.5729 52.75 16.25C52.75 16.9271 52.4896 17.526 51.9688 18.0469C51.5 18.5156 50.9271 18.75 50.25 18.75C49.5729 18.75 48.974 18.5156 48.4531 18.0469C47.9844 17.526 47.75 16.9271 47.75 16.25C47.75 15.5729 47.9844 15 48.4531 14.5312ZM35.875 27.5781C38.0104 25.026 40.7188 23.75 44 23.75C47.2812 23.75 49.9896 25.026 52.125 27.5781C52.4375 27.9427 52.5677 28.3854 52.5156 28.9062C52.4635 29.4271 52.2552 29.8438 51.8906 30.1562C51.474 30.5208 51.0052 30.6771 50.4844 30.625C49.9635 30.5729 49.5469 30.3385 49.2344 29.9219C47.8802 28.3073 46.1354 27.5 44 27.5C41.8646 27.5 40.1198 28.3073 38.7656 29.9219C38.4531 30.3385 38.0365 30.5729 37.5156 30.625C36.9948 30.6771 36.526 30.5469 36.1094 30.2344C35.7448 29.8698 35.5365 29.4271 35.4844 28.9062C35.4323 28.3854 35.5625 27.9427 35.875 27.5781ZM24.0694 63V91H21.1494V78.08H3.62938V91H0.669375V63H3.62938V75.48H21.1494V63H24.0694ZM39.9684 69.8C42.7151 69.8 44.8218 70.4933 46.2884 71.88C47.7551 73.24 48.4884 75.2667 48.4884 77.96V91H45.7684V87.72C45.1284 88.8133 44.1818 89.6667 42.9284 90.28C41.7018 90.8933 40.2351 91.2 38.5284 91.2C36.1818 91.2 34.3151 90.64 32.9284 89.52C31.5418 88.4 30.8484 86.92 30.8484 85.08C30.8484 83.2933 31.4884 81.8533 32.7684 80.76C34.0751 79.6667 36.1418 79.12 38.9684 79.12H45.6484V77.84C45.6484 76.0267 45.1418 74.6533 44.1284 73.72C43.1151 72.76 41.6351 72.28 39.6884 72.28C38.3551 72.28 37.0751 72.5067 35.8484 72.96C34.6218 73.3867 33.5684 73.9867 32.6884 74.76L31.4084 72.64C32.4751 71.7333 33.7551 71.04 35.2484 70.56C36.7418 70.0533 38.3151 69.8 39.9684 69.8ZM38.9684 88.96C40.5684 88.96 41.9418 88.6 43.0884 87.88C44.2351 87.1333 45.0884 86.0667 45.6484 84.68V81.24H39.0484C35.4484 81.24 33.6484 82.4933 33.6484 85C33.6484 86.2267 34.1151 87.2 35.0484 87.92C35.9818 88.6133 37.2884 88.96 38.9684 88.96ZM67.2822 89.72C66.7489 90.2 66.0822 90.5733 65.2822 90.84C64.5089 91.08 63.6955 91.2 62.8422 91.2C60.8689 91.2 59.3489 90.6667 58.2822 89.6C57.2155 88.5333 56.6822 87.0267 56.6822 85.08V72.36H52.9222V69.96H56.6822V65.36H59.5222V69.96H65.9222V72.36H59.5222V84.92C59.5222 86.1733 59.8289 87.1333 60.4422 87.8C61.0822 88.44 61.9889 88.76 63.1622 88.76C63.7489 88.76 64.3089 88.6667 64.8422 88.48C65.4022 88.2933 65.8822 88.0267 66.2822 87.68L67.2822 89.72ZM90.03 81.36H72.43C72.59 83.5467 73.43 85.32 74.95 86.68C76.47 88.0133 78.39 88.68 80.71 88.68C82.0167 88.68 83.2167 88.4533 84.31 88C85.4033 87.52 86.35 86.8267 87.15 85.92L88.75 87.76C87.8167 88.88 86.6433 89.7333 85.23 90.32C83.8433 90.9067 82.31 91.2 80.63 91.2C78.47 91.2 76.55 90.7467 74.87 89.84C73.2167 88.9067 71.9233 87.6267 70.99 86C70.0567 84.3733 69.59 82.5333 69.59 80.48C69.59 78.4267 70.03 76.5867 70.91 74.96C71.8167 73.3333 73.0433 72.0667 74.59 71.16C76.1633 70.2533 77.9233 69.8 79.87 69.8C81.8167 69.8 83.5633 70.2533 85.11 71.16C86.6567 72.0667 87.87 73.3333 88.75 74.96C89.63 76.56 90.07 78.4 90.07 80.48L90.03 81.36ZM79.87 72.24C77.8433 72.24 76.1367 72.8933 74.75 74.2C73.39 75.48 72.6167 77.16 72.43 79.24H87.35C87.1633 77.16 86.3767 75.48 84.99 74.2C83.63 72.8933 81.9233 72.24 79.87 72.24Z" fill="#EB5757"/>
</svg>
