<svg width="93" height="94" viewBox="0 0 93 94" fill="none" xmlns="http://www.w3.org/2000/svg">
<path d="M46.4799 94C20.8436 94 0.00439453 73.0771 0.00439453 47.3379C0.00439453 21.5986 20.8436 0.675781 46.4799 0.675781C72.0991 0.675781 92.9554 21.5986 92.9554 47.3379C92.9554 73.0771 72.0991 94 46.4799 94ZM46.4799 4.69808C23.0616 4.69808 3.99343 23.8256 3.99343 47.3552C3.99343 70.8847 23.0444 90.0122 46.4799 90.0122C69.8982 90.0122 88.9492 70.8847 88.9492 47.3552C88.9492 23.8256 69.8982 4.69808 46.4799 4.69808Z" fill="#42BAEB"/>
<path d="M42.1325 54.4139C42.1325 52.4757 42.5611 50.8729 43.4184 49.6056C44.313 48.3383 45.5989 46.9406 47.2762 45.4124C48.5062 44.2942 49.4008 43.3623 49.9599 42.6169C50.5562 41.8341 50.8544 40.9582 50.8544 39.9891C50.8544 38.61 50.2953 37.529 49.1771 36.7463C48.0962 35.9263 46.6425 35.5163 44.8162 35.5163C43.0643 35.5163 41.4988 35.889 40.1197 36.6345C38.7779 37.3427 37.641 38.3491 36.7092 39.6536L29.9441 35.684C31.5096 33.2985 33.6155 31.4535 36.2619 30.1489C38.9456 28.8444 42.1138 28.1921 45.7666 28.1921C50.0531 28.1921 53.4822 29.1053 56.0541 30.9317C58.6632 32.7581 59.9678 35.2926 59.9678 38.5354C59.9678 40.0636 59.7068 41.4055 59.185 42.5609C58.7005 43.7164 58.0855 44.7042 57.34 45.5242C56.6318 46.3069 55.7 47.2201 54.5445 48.2638C53.1654 49.4938 52.159 50.5374 51.5254 51.3947C50.8917 52.2147 50.5749 53.2211 50.5749 54.4139H42.1325ZM46.3816 68.4473C44.8534 68.4473 43.5675 67.9627 42.5238 66.9936C41.5175 65.9872 41.0143 64.7759 41.0143 63.3595C41.0143 61.9431 41.5175 60.769 42.5238 59.8371C43.5302 58.868 44.8162 58.3835 46.3816 58.3835C47.9471 58.3835 49.233 58.868 50.2394 59.8371C51.2458 60.769 51.749 61.9431 51.749 63.3595C51.749 64.7759 51.2272 65.9872 50.1835 66.9936C49.1771 67.9627 47.9098 68.4473 46.3816 68.4473Z" fill="#42BAEB"/>
</svg>
