<?xml version="1.0" encoding="utf-8"?>
<!-- Generator: Adobe Illustrator 16.0.0, SVG Export Plug-In . SVG Version: 6.00 Build 0)  -->
<!DOCTYPE svg PUBLIC "-//W3C//DTD SVG 1.1//EN" "http://www.w3.org/Graphics/SVG/1.1/DTD/svg11.dtd">
<svg version="1.1" id="Layer_1" xmlns="http://www.w3.org/2000/svg" xmlns:xlink="http://www.w3.org/1999/xlink" x="0px" y="0px"
	 width="100px" height="100px" viewBox="0 0 100 100" enable-background="new 0 0 100 100" xml:space="preserve">
<g>
	<path fill-rule="evenodd" clip-rule="evenodd" d="M50.079,81.286v-4.104l0.071,0.013l0.301-0.048l0.311-0.061l0.301-0.083
		l0.396-0.181l0.287-0.18l0.264-0.204l0.384-0.396l0.24-0.349l0.205-0.36l0.227-0.467l0.145-0.433l0.119-0.42l0.098-0.444
		l0.084-0.442l0.059-0.433l0.035-0.443l0.023-0.445v-0.275l-0.01-0.443l-0.023-0.445l-0.049-0.432l-0.084-0.455l-0.072-0.433
		l-0.084-0.276l-0.121-0.323l-0.143-0.324l-0.168-0.301L52.659,67.8l-0.204-0.264l-0.229-0.241l-0.239-0.191l-0.359-0.241
		l-0.289-0.143l-0.3-0.108l-0.313-0.096l-0.407-0.06l-0.24-0.013v-3.708h0.276l0.468,0.048l0.445,0.072l0.432,0.084l0.408,0.133
		l0.432,0.167l0.42,0.181l0.396,0.192l0.371,0.203l0.359,0.217l0.336,0.24l0.336,0.252l0.312,0.287l0.324,0.301l0.287,0.323
		l0.287,0.359l0.277,0.409l0.24,0.396l0.191,0.347l0.156,0.36l0.156,0.371l0.145,0.433l0.119,0.433l0.119,0.443l0.084,0.433
		l0.096,0.456l0.049,0.455l0.049,0.432l0.023,0.48v0.444v0.275l-0.012,0.467l-0.037,0.445l-0.047,0.455l-0.084,0.433l-0.072,0.468
		l-0.096,0.432l-0.121,0.443l-0.143,0.433l-0.145,0.42l-0.168,0.443l-0.18,0.409l-0.205,0.407l-0.203,0.409l-0.119,0.192l0.07-0.097
		l-0.131,0.179l-0.131,0.192l-0.266,0.35l-0.299,0.322l-0.301,0.324l-0.324,0.312l-0.324,0.287l-0.348,0.265l-0.467,0.323
		l-0.373,0.218l-0.384,0.19l-0.396,0.168l-0.406,0.157l-0.444,0.107l-0.408,0.084l-0.409,0.06l-0.42,0.024H50.079L50.079,81.286
		L50.079,81.286z M60.002,76.043l-0.732,0.646l-0.012,0.024l-0.084,0.108l-0.084,0.097l-0.047,0.132l-0.037,0.144l-0.012,0.12v0.145
		l0.023,0.144l0.037,0.12l0.07,0.131l0.072,0.109l0.205,0.275l0.275,0.324l0.312,0.312l0.311,0.287l0.338,0.288l0.348,0.265
		l0.479,0.325l0.373,0.216l0.371,0.203l0.385,0.18l0.396,0.144l0.396,0.134l0.406,0.107l0.602,0.107l0.406,0.072l0.42,0.024h0.408
		l0.42-0.024l0.408-0.072l0.408-0.061l0.408-0.12l0.395-0.119l0.494-0.192l0.348-0.168l0.359-0.18l0.348-0.216l0.324-0.229
		l0.299-0.275l0.301-0.265l0.252-0.299l0.252-0.312l0.264-0.372l0.205-0.312l0.18-0.324l0.156-0.348l0.131-0.336l0.084-0.372
		l0.061-0.373l0.035-0.37l0.012-0.218l-0.023-0.371l-0.047-0.372l-0.084-0.335l-0.107-0.373l-0.135-0.348l-0.166-0.349l-0.193-0.324
		l-0.227-0.288l-0.275-0.312L70.213,72.3L69.9,72.035l-0.324-0.253l-0.348-0.238l-0.359-0.217l-0.371-0.192l-0.385-0.18
		l-3.648-1.428l-0.154-0.097l-0.182-0.168l-0.168-0.168l-0.18-0.24l-0.119-0.179l-0.098-0.217l-0.07-0.216l-0.037-0.217L63.445,67.8
		l0.023-0.216l0.084-0.337l0.096-0.216l0.133-0.203l0.156-0.205l0.156-0.167l0.203-0.156l0.336-0.18l0.266-0.073l0.287-0.034
		l0.287-0.024l0.289,0.024l0.275,0.034l0.275,0.084l0.277,0.108l0.238,0.144l0.242,0.157l1.125,1.068l0.084,0.059l0.109,0.085
		l0.121,0.071l0.154,0.049l0.156,0.024h0.133l0.143-0.014l0.133-0.035l0.131-0.061l0.121-0.083l0.121-0.085l0.084-0.107l1.176-1.163
		l0.094-0.097l0.061-0.121l0.074-0.143l0.023-0.168v-0.097V65.58l-0.037-0.169l-0.061-0.145l-0.061-0.144l-0.094-0.118l-0.061-0.061
		h0.012l-0.096-0.084l-0.312-0.288l-0.334-0.276l-0.35-0.252l-0.361-0.24l-0.371-0.216l-0.383-0.191l-0.396-0.181l-0.564-0.204
		l-0.395-0.144l-0.396-0.12l-0.408-0.085l-0.42-0.06l-0.42-0.037l-0.408-0.022l-0.42,0.022l-0.42,0.037l-0.408,0.06l-0.588,0.144
		l-0.359,0.085l-0.361,0.12l-0.348,0.156l-0.324,0.156l-0.311,0.204l-0.301,0.216l-0.348,0.324l-0.252,0.3l-0.229,0.299
		l-0.229,0.338l-0.178,0.322l-0.158,0.42l-0.131,0.384l-0.084,0.396l-0.072,0.396l-0.035,0.408l-0.014,0.406l0.025,0.397
		l0.035,0.419l0.061,0.372l0.084,0.373l0.121,0.359l0.131,0.348l0.275,0.443l0.229,0.349l0.264,0.312l0.287,0.3l0.289,0.276
		l0.324,0.263l0.336,0.24l0.348,0.216l0.359,0.192l0.385,0.168l0.205,0.072l2.926,1.021l0.156,0.07l0.191,0.097l0.193,0.12
		l0.227,0.204l0.158,0.192l0.131,0.203l0.084,0.181l0.084,0.191l0.047,0.205l0.037,0.202v0.134l-0.012,0.203l-0.035,0.204
		l-0.086,0.181l-0.143,0.251l-0.18,0.216l-0.205,0.216L66.6,77.194l-0.311,0.12l-0.299,0.12l-0.324,0.071l-0.312,0.048l-0.35,0.012
		l-0.322-0.012l-0.324-0.048l-0.492-0.131l-0.301-0.12l-0.311-0.169l-0.275-0.191l-0.277-0.205l-0.24-0.251l-0.217-0.264
		l-0.191-0.275l-0.084-0.145l-0.023-0.012l-0.049-0.061l-0.059-0.084l-0.084-0.097l-0.096-0.071l-0.182-0.097l-0.143-0.023h-0.168
		l-0.168,0.013l-0.156,0.035l-0.156,0.072l-0.133,0.071L60.002,76.043L60.002,76.043L60.002,76.043L60.002,76.043z M78.42,81.142
		l1.32-0.012h0.047l0.145-0.024l0.131-0.036l0.145-0.059l0.109-0.085l0.131-0.084l0.084-0.119l0.084-0.12l0.061-0.133l0.049-0.156
		l0.035-0.144v-0.071l-0.072-0.06V67.956v-0.025l0.023-0.144l0.049-0.145l0.084-0.167l0.072-0.12l0.107-0.097l0.107-0.083
		l0.119-0.085l0.145-0.048l0.133-0.036l0.145-0.023l0.156,0.013l2.076-0.013l0.107,0.013l0.119-0.013l0.133-0.036l0.119-0.036
		l0.156-0.097l0.121-0.119l0.107-0.107l0.072-0.145L84.9,66.3l0.047-0.144l0.037-0.181l0.01-2.004l-0.047-0.144L84.9,63.696
		l-0.049-0.108l-0.072-0.12l-0.107-0.119l-0.109-0.085l-0.119-0.072l-0.145-0.071l-0.119-0.024l-0.145-0.023l-0.131-0.012H73.26
		l-0.047,0.012l-0.133,0.023l-0.133,0.036l-0.143,0.06l-0.119,0.084l-0.098,0.097l-0.107,0.096l-0.061,0.107l-0.047,0.121
		l-0.049,0.132l-0.023,0.119l-0.049,2.041v0.095l0.012,0.145l0.037,0.121l0.072,0.155l0.072,0.107l0.096,0.108l0.096,0.095
		l0.107,0.073l0.121,0.048l0.131,0.048l0.145,0.023h0.109l2.23,0.013l0.145,0.012l0.143,0.036l0.133,0.061l0.133,0.083l0.094,0.084
		l0.098,0.121l0.084,0.096l0.07,0.131l0.025,0.145l0.023,0.072l-0.059,0.097v12.106v0.036l0.01,0.156l0.025,0.132l0.061,0.168
		l0.047,0.118l0.084,0.108l0.096,0.109l0.121,0.084l0.107,0.07l0.133,0.061l0.131,0.024l0.133,0.012h0.047H78.42L78.42,81.142
		L78.42,81.142L78.42,81.142z M87.646,63.048H87.6l-0.145,0.024l-0.145,0.036l-0.168,0.096l-0.107,0.071l-0.109,0.108l-0.084,0.084
		L86.77,63.6l-0.059,0.119l-0.037,0.133l-0.01,0.156l-0.061,0.071v16.007v0.024l0.012,0.145l0.023,0.132l0.096,0.216l0.096,0.12
		l0.096,0.119l0.121,0.097l0.131,0.084l0.145,0.047l0.158,0.049l0.059,0.012h0.084l9.275,0.012h0.023l0.145-0.012l0.131-0.024
		l0.109-0.036l0.143-0.083l0.107-0.085l0.109-0.12l0.072-0.12l0.084-0.132l0.035-0.155l0.023-0.131l0.012-0.109l0.025-1.992v-0.023
		v-0.061l-0.025-0.144l-0.035-0.143l-0.061-0.11l-0.07-0.107l-0.096-0.106l-0.121-0.108l-0.119-0.073l-0.133-0.059l-0.145-0.061
		l-0.143-0.024l-0.072-0.036h-5.039l-0.109-0.013l-0.119-0.022l-0.121-0.048l-0.131-0.084l-0.121-0.097l-0.107-0.108l-0.07-0.12
		l-0.061-0.155l-0.061-0.133l-0.023-0.155v-0.12l0.01-1.128l0.014-0.145l0.061-0.118l0.061-0.133l0.119-0.168l0.096-0.096
		l0.119-0.072l0.121-0.072l0.143-0.036l0.145-0.024l0.133-0.012h0.047l3.217-0.023h0.096l0.143-0.036l0.145-0.037l0.133-0.07
		l0.131-0.108l0.096-0.096l0.109-0.133l0.072-0.132l0.061-0.145l0.035-0.167l0.023-0.145l-0.035-2.101l-0.023-0.13l-0.049-0.121
		l-0.061-0.133l-0.096-0.155l-0.107-0.096l-0.121-0.097l-0.119-0.071l-0.145-0.036l-0.119-0.047l-0.156-0.013h-0.086l-3.215-0.036
		h-0.084l-0.154-0.023l-0.145-0.048l-0.145-0.072l-0.119-0.073l-0.084-0.071l-0.086-0.107l-0.059-0.108l-0.049-0.12l-0.047-0.12
		v-0.12v-0.12l0.023-0.959l0.023-0.133l0.049-0.156l0.084-0.18l0.084-0.096l0.096-0.108l0.121-0.085l0.107-0.07l0.131-0.048
		l0.133-0.037l0.145-0.012h4.955l0.131-0.012l0.133-0.013l0.145-0.06l0.131-0.048l0.107-0.071l0.121-0.108l0.098-0.108l0.082-0.132
		l0.061-0.131l0.035-0.133l0.037-0.144v-0.169l-0.023-1.919l-0.014-0.133l-0.035-0.133L97.881,63.6l-0.131-0.144l-0.107-0.107
		l-0.133-0.097l-0.154-0.072l-0.145-0.06l-0.17-0.036l-0.119-0.036H87.646L87.646,63.048z M50.079,62.735v3.708h-0.084l-0.312,0.036
		l-0.3,0.036l-0.324,0.096l-0.288,0.108l-0.288,0.143l-0.252,0.181l-0.289,0.229l-0.227,0.24l-0.192,0.227l-0.204,0.36l-0.18,0.372
		l-0.228,0.638l-0.121,0.419l-0.083,0.431l-0.072,0.444l-0.048,0.445l-0.024,0.431l-0.013,0.445l0.024,0.443l0.024,0.444
		l0.048,0.433l0.083,0.431l0.096,0.433l0.12,0.432l0.133,0.407l0.156,0.42l0.096,0.205l0.145,0.299l0.192,0.276l0.275,0.335
		l0.204,0.193l0.216,0.18l0.24,0.156l0.12,0.061l0.301,0.132l0,0l0.06,0.036l0.156,0.034l0.312,0.061l0.3,0.036l0.228,0.012v4.104
		l-0.204,0.012l-0.408-0.012l-0.42-0.06l-0.205-0.024l-0.108-0.024l-0.396-0.085l-0.408-0.118l-0.407-0.133l-0.396-0.169
		l-0.384-0.178l-0.372-0.205l-0.36-0.228l-0.348-0.239l-0.336-0.289l-0.312-0.276l-0.288-0.3l-0.468-0.515l-0.252-0.35l-0.227-0.371
		l-0.216-0.372l-0.204-0.384l-0.108-0.229l-0.18-0.419l-0.156-0.419l-0.144-0.421l-0.144-0.433l-0.096-0.43l-0.108-0.445
		l-0.072-0.444l-0.072-0.455l-0.036-0.433l-0.024-0.457v-0.455v-0.455l0.036-0.445l0.06-0.443l0.06-0.456l0.072-0.444l0.121-0.432
		l0.107-0.432l0.144-0.432l0.157-0.443l0.156-0.408l0.168-0.325l0.204-0.396l0.229-0.383l0.239-0.372l0.252-0.36L44.5,65.34
		l0.336-0.36l0.312-0.312l0.324-0.264l0.347-0.264l0.373-0.24l0.372-0.228l0.408-0.216l0.408-0.181l0.396-0.155l0.42-0.133
		l0.42-0.107l0.432-0.073l0.444-0.059l0.444-0.024L50.079,62.735L50.079,62.735L50.079,62.735z M20.238,77.098v-3.095h0.744h0.024
		h0.132l0.121-0.049l0.108-0.047l0.144-0.072l0.097-0.084l0.083-0.085l0.06-0.107l0.061-0.095l0.024-0.134l0.048-0.12v-0.07
		l-0.012-0.12l-0.036-0.12v-0.024L20.55,67.14l-0.024-0.012v-0.024l-0.012-0.013l-0.012-0.023l-0.012-0.024l-0.024-0.012
		l-0.012-0.024l-0.024-0.011l-0.061-0.049l-0.036-0.023l-0.061-0.013h-0.035v-3.863l2.436,0.013l0.264,0.06l0.204,0.084l0.204,0.084
		l0.132,0.132l0.072,0.084l0.06,0.108l0.048,0.106l0.024,0.013l4.464,16.092l-0.012,0.022l0.024,0.072l0.012,0.084l0.011,0.132
		l-0.011,0.144l-0.024,0.144l-0.048,0.145l-0.072,0.132l-0.084,0.121l-0.108,0.097l-0.108,0.096l-0.132,0.071l-0.12,0.036
		l-0.131,0.023h-0.096l-2.771,0.012l-0.192-0.023l-0.156-0.037l-0.131-0.059l-0.121-0.096l-0.12-0.097l-0.072-0.119l-0.06-0.098
		l-0.061-0.119l-0.012-0.085l-0.612-2.591l-0.048-0.12l-0.072-0.107l-0.072-0.119l-0.084-0.108l-0.108-0.061L22.41,77.23
		l-0.132-0.061l-0.144-0.036l-0.156-0.012h-0.036L20.238,77.098L20.238,77.098L20.238,77.098z M41.008,75.971l-0.732-0.829
		L40.24,75.13l-0.108-0.071L40,75.022l-0.132-0.048l-0.144-0.012l-0.12,0.012l-0.108,0.023l-0.12,0.037l-0.108,0.048l-0.096,0.071
		L39.1,75.251l-0.084,0.083l-0.096,0.145l-0.156,0.265l-0.192,0.263l-0.204,0.241l-0.3,0.251l-0.264,0.181l-0.276,0.155
		l-0.288,0.121l-0.277,0.096l-0.324,0.06l-0.324,0.036h-0.324l-0.335-0.024l-0.325-0.059l-0.312-0.097l-0.408-0.156l-0.289-0.18
		l-0.3-0.205l-0.252-0.251l-0.324-0.323l-0.216-0.359l-0.204-0.374l-0.18-0.372l-0.156-0.384l-0.084-0.251l-0.083-0.421
		l-0.096-0.419l-0.048-0.433l-0.024-0.433l-0.012-0.443l0.012-0.432l0.036-0.432l0.061-0.42l0.083-0.433l0.108-0.419l0.12-0.421
		l0.157-0.409l0.12-0.299l0.156-0.312l0.192-0.3l0.204-0.276l0.264-0.3l0.264-0.229l0.276-0.216l0.288-0.168l0.3-0.145l0.348-0.132
		l0.289-0.083l0.288-0.061l0.276-0.013l0.432,0.037l0.323,0.084l0.312,0.107l0.312,0.144l0.276,0.168l0.288,0.191l0.24,0.218
		l0.228,0.251l0.216,0.253l0.047,0.059l0.084,0.062l0.084,0.059l0.096,0.037l0.144,0.023H39.4l0.156-0.012l0.132-0.036l0.12-0.061
		l0.131-0.059l0.096-0.109l0.108-0.083l1.487-1.921l0.037-0.095l0.072-0.156l0.036-0.181l0.023-0.133v-0.071L41.788,65.1
		l-0.024-0.12l-0.048-0.131l-0.072-0.121l-0.071-0.096l-0.108-0.107l-0.084-0.061l-0.336-0.265l-0.336-0.263l-0.36-0.229
		l-0.372-0.204l-0.384-0.191L39.16,63.12l-0.408-0.121l-0.408-0.119l-0.408-0.097l-0.432-0.072l-0.42-0.048l-0.444-0.012
		l-0.432,0.012l-0.42,0.024l-0.42,0.036l-0.433,0.083l-0.407,0.097l-0.588,0.181l-0.408,0.155l-0.383,0.181l-0.396,0.204
		l-0.372,0.216l-0.36,0.229l-0.348,0.263l-0.336,0.277l-0.384,0.384l-0.312,0.299l-0.276,0.337l-0.251,0.348l-0.265,0.349
		l-0.215,0.371l-0.192,0.348l-0.168,0.408l-0.156,0.432l-0.144,0.433l-0.132,0.432l-0.144,0.636l-0.096,0.445l-0.06,0.443
		l-0.06,0.456l-0.048,0.455l-0.024,0.457v0.443v0.457l0.036,0.455l0.048,0.455l0.06,0.444l0.072,0.444l0.108,0.455l0.108,0.444
		l0.132,0.432l0.144,0.421l0.156,0.432l0.168,0.407l0.192,0.421l0.204,0.396l0.24,0.408l0.228,0.384l0.18,0.265l0.252,0.311
		l0.396,0.421l0.312,0.276l0.348,0.252l0.348,0.228l0.373,0.216l0.275,0.155l0.384,0.181l0.396,0.145l0.408,0.132l0.408,0.108
		l0.564,0.119l0.408,0.073l0.408,0.022h0.408l0.408-0.013L37,81.371l0.396-0.073l0.396-0.096l0.433-0.133l0.384-0.154l0.372-0.192
		l0.372-0.193l0.336-0.227l0.324-0.24l0.312-0.265l0.3-0.301l0.276-0.299l0.252-0.324l0.228-0.348l0.204-0.348l0.18-0.336
		l0.035-0.108l0.037-0.132l0.024-0.132l-0.012-0.205l-0.036-0.18l-0.06-0.156l-0.084-0.168l-0.096-0.168L41.008,75.971
		L41.008,75.971L41.008,75.971z M2.924,81.142l7.667,0.012h0.048l0.144-0.023l0.144-0.048l0.168-0.071l0.12-0.109l0.108-0.12
		l0.096-0.12l0.084-0.132l0.048-0.155l0.035-0.144l0.012-0.156V78.07l-0.023-0.132l-0.036-0.119l-0.048-0.133l-0.096-0.169
		l-0.083-0.107l-0.12-0.096l-0.12-0.084l-0.132-0.072l-0.132-0.036l-0.144-0.024l-0.096-0.012H7.459l-0.12-0.013l-0.132-0.022
		L7.1,77.003l-0.156-0.097l-0.107-0.084l-0.108-0.12L6.655,76.57l-0.072-0.12l-0.036-0.145L6.523,76.15v-0.071V76.03V63.984v-0.048
		l-0.012-0.121l-0.024-0.132l-0.048-0.108l-0.083-0.144l-0.084-0.107l-0.107-0.097l-0.108-0.06l-0.12-0.072l-0.144-0.048
		L5.66,63.036l-0.132-0.013l-2.544,0.013H2.888l-0.132,0.024l-0.12,0.035L2.468,63.18L2.36,63.264l-0.096,0.108l-0.096,0.107
		l-0.061,0.133L2.06,63.744l-0.024,0.132l-0.012,0.071v0.121L2,80.025v0.085v0.107l0.024,0.12l0.024,0.132l0.048,0.133l0.072,0.106
		l0.096,0.109l0.083,0.097l0.121,0.071l0.108,0.071l0.132,0.048l0.06,0.024L2.924,81.142L2.924,81.142L2.924,81.142L2.924,81.142z
		 M20.238,63.048v3.863h-0.024h-0.06l-0.048,0.024l-0.047,0.023l-0.061,0.037l-0.036,0.047l-0.036,0.037l-0.012,0.023l-0.012,0.024
		l-0.024,0.06l-1.272,5.783v0.084l-0.012,0.133l0.012,0.095l0.024,0.12l0.048,0.109l0.071,0.13l0.108,0.097l0.096,0.097l0.132,0.084
		l0.061,0.023l0.18,0.061h0.912v3.095h-0.024h-1.608l-0.048,0.013l-0.156,0.012l-0.131,0.024l-0.156,0.048l-0.132,0.061l-0.12,0.084
		l-0.121,0.108l-0.096,0.106l-0.061,0.107l-0.036,0.11l-0.024,0.106l-0.6,2.592l-0.047,0.133l-0.084,0.12l-0.083,0.107l-0.109,0.096
		l-0.095,0.085l-0.204,0.095l-0.145,0.024l-0.156,0.023l-2.22-0.012h-0.108l-0.132-0.012l-0.132-0.048l-0.108-0.048l-0.108-0.071
		l-0.084-0.085l-0.096-0.097l-0.06-0.108l-0.048-0.118l-0.048-0.193l-0.024-0.144v-0.144l0.024-0.168v-0.025l4.451-16.113
		l0.048-0.108l0.072-0.144l0.12-0.132l0.12-0.132l0.132-0.084l0.156-0.084l0.12-0.023l0.12-0.013h0.096H20.238L20.238,63.048z"/>
	<polygon fill-rule="evenodd" clip-rule="evenodd" fill="#00705B" points="21.066,50.112 21.03,50.161 21.089,50.197 21.102,50.257 
		21.126,50.389 21.126,50.497 21.102,50.641 21.089,50.796 21.018,50.94 20.97,51.001 20.97,51.049 20.382,51.661 20.262,51.865 
		20.106,52.188 19.975,52.657 19.962,53.041 19.938,53.377 19.975,53.713 20.07,54.036 20.19,54.324 20.358,54.624 20.538,54.841 
		21.186,55.417 21.186,49.873 21.066,50.112 20.322,48.373 20.322,48.373 20.382,48.205 20.478,47.965 20.61,47.76 20.791,47.533 
		20.994,47.377 21.066,47.305 21.102,47.269 21.162,47.245 21.186,47.233 21.186,45.77 21.15,45.77 21.066,45.77 20.97,45.793 
		20.934,45.77 20.898,45.77 20.874,45.746 20.826,45.721 20.791,45.697 20.766,45.661 20.73,45.637 20.706,45.601 20.634,45.505 
		20.598,45.277 20.598,44.917 20.67,44.617 20.742,44.39 20.922,44.065 21.186,43.766 21.186,40.058 21.15,40.069 20.97,40.045 
		20.922,40.022 20.922,40.022 20.862,39.986 20.791,39.95 20.73,39.83 20.07,38.63 20.034,38.474 20.034,38.378 20.034,38.27 
		20.094,38.186 20.154,38.079 20.214,37.97 20.262,37.958 20.298,37.898 20.454,37.826 20.478,37.802 20.574,37.802 20.598,37.802 
		20.73,37.802 20.922,37.838 20.994,37.861 21.126,37.97 21.186,38.042 21.186,36.914 21.15,36.902 21.066,36.89 20.994,36.902 
		20.97,36.902 20.742,36.89 20.598,36.842 20.406,36.674 20.346,36.59 20.298,36.506 20.298,36.47 20.298,36.386 20.286,36.254 
		20.286,36.254 20.574,34.982 20.61,34.851 20.706,34.791 20.742,34.754 20.742,34.73 20.862,34.683 20.934,34.646 20.994,34.646 
		20.994,34.646 21.102,34.646 21.186,34.683 21.186,34.083 21.162,34.046 21.126,33.986 21.126,33.854 21.126,33.734 21.126,33.651 
		21.162,33.531 21.186,33.483 21.186,31.167 21.126,31.214 21.102,31.251 21.018,31.323 20.874,31.443 20.73,31.623 20.634,31.791 
		20.55,31.982 20.514,32.174 20.346,32.847 20.227,33.051 20.094,33.291 19.902,33.495 19.77,33.651 19.65,33.818 19.542,34.01 
		19.458,34.203 19.411,34.418 19.386,34.55 19.386,35.234 19.362,35.234 19.362,35.283 19.362,35.39 19.35,35.45 19.326,35.486 
		19.326,35.546 19.29,35.594 19.23,35.679 19.194,35.726 19.17,35.774 19.134,35.786 18.691,36.254 18.595,36.362 18.522,36.506 
		18.427,36.65 18.39,36.831 18.366,37.022 18.366,37.19 18.415,37.358 18.486,37.526 18.522,37.61 18.583,37.886 18.558,37.886 
		18.583,38.018 18.583,38.186 18.558,38.45 18.499,38.738 18.499,38.798 18.39,39.158 18.366,39.182 18.331,39.278 18.306,39.386 
		18.306,39.506 18.331,39.626 18.354,39.662 18.366,39.734 18.39,39.758 18.691,40.466 18.667,40.466 18.691,40.622 18.714,40.91 
		18.714,41.066 18.691,41.209 18.714,41.233 18.114,43.166 17.97,43.609 17.791,44.293 17.73,45.217 17.718,45.889 17.791,46.573 
		17.922,47.221 18.138,47.857 18.427,48.469 18.774,49.069 19.17,49.585 19.614,50.029 19.71,50.065 19.782,50.065 19.831,50.065 
		19.902,50.029 19.914,49.968 19.938,49.944 21.066,50.112 	"/>
	<polygon fill-rule="evenodd" clip-rule="evenodd" fill="#00705B" points="21.186,43.766 21.258,43.682 21.594,43.394 21.99,43.142 
		22.41,42.938 22.866,42.782 22.95,42.757 22.95,41.594 22.398,40.885 22.206,40.946 22.206,40.946 22.122,40.766 22.11,40.682 
		22.085,40.658 22.038,40.502 22.014,40.37 22.014,40.298 22.038,40.262 22.038,40.154 22.062,40.082 22.11,40.045 22.146,39.962 
		22.218,39.877 22.398,39.794 22.95,39.77 22.95,38.978 22.794,38.99 22.662,38.966 22.506,38.882 22.506,38.882 22.398,38.798 
		22.278,38.63 22.158,37.31 22.314,36.746 22.35,36.71 22.374,36.65 22.41,36.638 22.47,36.614 22.542,36.59 22.626,36.614 
		22.662,36.65 22.722,36.71 22.95,37.106 22.95,32.883 22.794,32.738 22.758,32.63 22.722,32.57 22.722,32.535 22.722,32.403 
		22.722,32.235 22.782,31.275 22.926,30.818 22.95,30.771 22.95,28.659 22.926,28.671 22.734,28.827 22.542,28.995 22.374,29.187 
		22.254,29.391 22.158,29.631 22.11,29.859 21.87,30.566 21.858,30.579 21.798,30.639 21.738,30.735 21.677,30.794 21.606,30.831 
		21.57,30.867 21.186,31.167 21.186,33.483 21.702,32.403 21.738,32.403 21.798,32.366 21.894,32.366 21.917,32.366 21.99,32.403 
		22.014,32.427 22.062,32.535 22.35,33.783 22.35,33.95 22.278,34.166 22.218,34.238 22.146,34.299 22.062,34.371 21.917,34.455 
		21.87,34.455 21.606,34.455 21.402,34.371 21.294,34.262 21.294,34.262 21.222,34.178 21.186,34.083 21.186,34.683 21.186,34.683 
		21.342,34.814 21.378,34.851 21.402,34.851 21.486,34.875 21.534,34.922 21.57,34.946 21.63,35.042 21.762,35.222 21.786,35.234 
		21.798,35.33 21.894,35.594 21.917,35.834 21.894,35.895 21.894,36.086 21.858,36.35 21.738,36.554 21.63,36.782 21.486,36.866 
		21.378,36.938 21.282,36.938 21.186,36.914 21.186,38.042 21.917,39.074 21.93,39.11 21.93,39.158 21.917,39.266 21.93,39.278 
		21.917,39.374 21.894,39.434 21.858,39.506 21.294,40.01 21.222,40.045 21.222,40.045 21.186,40.058 21.186,43.766 	"/>
	<polygon fill-rule="evenodd" clip-rule="evenodd" fill="#00705B" points="21.186,55.417 21.702,55.872 22.47,57.36 22.95,55.788 
		22.95,44.845 21.354,45.697 21.342,45.697 21.294,45.721 21.258,45.746 21.21,45.746 21.186,45.77 21.186,45.77 21.186,47.233 
		21.258,47.209 21.318,47.185 21.378,47.149 21.414,47.149 21.51,47.149 21.546,47.149 21.594,47.149 21.606,47.161 21.666,47.161 
		21.726,47.209 21.798,47.269 21.858,47.281 21.87,47.329 21.93,47.413 21.99,47.569 22.038,47.713 22.038,47.857 22.014,48.025 
		21.99,48.181 21.93,48.325 21.93,48.373 21.186,49.873 21.186,55.417 21.186,55.417 	"/>
	<polygon fill-rule="evenodd" clip-rule="evenodd" fill="#00705B" points="23.67,32.511 23.67,33.446 23.67,33.459 23.238,34.107 
		23.178,34.238 23.142,34.358 23.082,34.55 23.058,34.791 23.058,35.006 23.058,35.174 23.105,35.33 23.105,35.354 23.166,35.486 
		23.178,35.594 23.202,35.618 23.226,35.679 23.394,35.871 23.526,35.966 23.622,35.978 23.67,35.978 23.67,39.806 23.598,39.77 
		23.502,39.758 22.95,39.77 22.95,38.978 23.082,38.966 23.238,38.894 23.37,38.822 23.478,38.69 23.478,38.69 23.562,38.582 
		23.586,38.474 23.598,38.222 23.598,38.21 22.95,37.106 22.95,32.883 23.166,32.93 23.273,32.883 23.334,32.883 23.43,32.823 
		23.622,32.618 23.67,32.535 23.67,32.511 	"/>
	<polygon fill-rule="evenodd" clip-rule="evenodd" fill="#00705B" points="23.67,28.455 23.465,28.455 23.406,28.479 23.166,28.575 
		22.95,28.659 22.95,30.771 23.01,30.663 23.118,30.566 23.31,30.435 23.562,30.375 23.67,30.398 23.67,28.455 23.67,28.455 	"/>
	<polygon fill-rule="evenodd" clip-rule="evenodd" fill="#00705B" points="22.95,42.757 23.31,42.685 23.562,42.649 23.658,42.673 
		23.67,42.673 23.67,40.982 23.058,41.713 22.95,41.594 22.95,42.757 22.95,42.757 	"/>
	<polygon fill-rule="evenodd" clip-rule="evenodd" fill="#00705B" points="22.95,55.788 23.01,55.68 23.118,55.513 23.178,55.453 
		23.238,55.368 23.334,55.32 23.465,55.284 23.562,55.26 23.658,55.26 23.67,55.26 23.67,44.473 23.658,44.473 22.95,44.845 
		22.95,55.788 22.95,55.788 	"/>
	<polygon fill-rule="evenodd" clip-rule="evenodd" fill="#00705B" points="23.67,42.673 24.078,42.649 24.33,42.649 24.594,42.685 
		24.966,42.757 25.146,42.841 25.146,42.602 24.978,42.554 24.941,42.554 24.833,42.458 24.75,42.398 24.689,42.302 24.642,42.265 
		24.617,42.182 24.582,42.122 24.522,41.954 24.522,41.882 24.522,41.75 24.617,41.402 24.39,41.438 24.366,41.377 24.366,41.198 
		24.414,40.958 24.486,40.826 24.558,40.717 24.594,40.682 24.714,40.633 24.906,40.598 25.025,40.598 25.146,40.633 25.146,40.274 
		25.134,40.238 25.074,40.154 25.074,40.106 25.025,39.95 25.025,39.77 24.978,39.542 25.002,39.41 25.002,39.35 25.025,39.302 
		25.074,39.242 25.074,39.158 25.146,39.098 25.146,38.606 25.074,38.63 25.074,38.63 25.038,38.702 24.966,38.762 24.917,38.798 
		24.833,38.858 24.726,38.858 24.594,38.858 24.461,38.834 24.354,38.798 24.354,38.798 24.293,38.738 24.222,38.69 24.138,38.606 
		24.113,38.546 24.042,38.354 24.006,38.222 24.029,38.222 23.97,38.15 23.97,38.114 23.97,38.055 23.946,38.018 23.946,37.934 
		23.946,37.742 23.97,37.693 23.97,37.55 24.029,37.25 24.113,36.938 24.234,36.746 24.33,36.614 24.39,36.506 24.486,36.47 
		24.522,36.422 24.582,36.411 24.642,36.386 24.75,36.411 24.786,36.47 24.882,36.506 25.146,37.238 25.146,33.183 25.134,33.183 
		25.038,33.17 24.941,33.099 24.773,32.979 24.689,32.883 24.642,32.679 24.642,32.427 25.002,31.131 25.109,30.891 25.146,30.831 
		25.146,30.195 25.109,30.195 24.617,29.931 25.002,28.515 25.146,28.455 25.146,26.859 25.109,26.871 25.074,26.919 25.002,26.943 
		24.882,27.027 24.786,27.135 24.714,27.231 24.642,27.363 24.27,28.227 24.222,28.287 24.162,28.335 24.102,28.383 24.029,28.419 
		23.982,28.443 23.97,28.443 23.922,28.455 23.885,28.455 23.861,28.455 23.67,28.455 23.67,30.398 23.754,30.411 23.837,30.447 
		23.885,30.519 23.946,30.603 23.97,30.627 24.006,30.735 24.029,30.986 24.006,31.155 23.97,31.214 23.946,31.371 23.814,31.623 
		23.718,31.754 23.73,31.815 23.754,31.886 23.79,31.982 23.754,32.187 23.754,32.343 23.67,32.511 23.67,33.446 23.694,33.422 
		23.73,33.398 23.79,33.375 23.861,33.375 23.861,33.375 23.946,33.375 24.102,33.459 24.198,33.627 24.293,33.879 24.27,35.091 
		24.198,35.366 24.198,35.366 24.162,35.546 24.078,35.679 24.006,35.81 23.97,35.834 23.91,35.895 23.79,35.978 23.754,35.978 
		23.67,35.978 23.67,39.806 23.694,39.818 23.718,39.877 23.79,39.914 23.837,40.022 23.861,40.154 23.885,40.406 23.885,40.633 
		23.814,40.766 23.754,40.874 23.67,40.982 23.67,42.673 	"/>
	<polygon fill-rule="evenodd" clip-rule="evenodd" fill="#00705B" points="23.67,55.26 23.694,55.26 23.73,55.284 23.778,55.284 
		23.814,55.296 23.91,55.356 23.922,55.368 23.97,55.393 23.982,55.429 24.029,55.453 24.042,55.488 24.102,55.488 25.146,56.88 
		25.146,50.569 25.098,50.509 25.038,50.437 25.025,50.413 25.002,50.377 25.002,50.305 24.978,50.257 24.978,50.22 24.978,50.125 
		24.978,50.089 25.002,50.053 25.002,50.005 25.025,49.968 25.038,49.897 25.146,49.705 25.146,44.569 24.966,44.473 24.689,44.366 
		24.486,44.317 24.27,44.317 24.029,44.366 23.814,44.425 23.718,44.473 23.67,44.473 23.67,55.26 23.67,55.26 	"/>
	<polygon fill-rule="evenodd" clip-rule="evenodd" fill="#00705B" points="26.574,28.539 26.574,36.866 26.574,36.866 26.55,36.842 
		26.478,36.842 26.382,36.866 26.286,36.89 26.286,36.89 26.225,36.962 26.19,36.974 26.093,37.13 26.069,37.19 26.033,37.31 
		26.033,37.31 25.998,37.406 25.962,37.418 25.914,37.55 25.901,37.574 25.901,37.634 25.901,37.669 25.877,37.766 25.901,37.838 
		25.914,37.934 25.974,37.97 26.093,38.079 26.093,38.162 26.105,38.222 26.225,38.402 26.321,38.45 26.358,38.498 26.478,38.51 
		26.574,38.546 26.574,39.734 26.574,39.734 26.489,39.41 26.417,39.266 26.297,39.026 26.19,38.882 26.105,38.834 26.033,38.774 
		26.021,38.774 25.901,38.762 25.841,38.762 25.746,38.822 25.709,38.834 25.673,38.93 25.578,38.894 25.481,38.93 25.421,38.93 
		25.35,38.966 25.17,39.074 25.158,39.085 25.146,39.098 25.146,38.606 25.158,38.606 25.193,38.57 25.326,38.498 25.386,38.402 
		25.421,38.306 25.421,38.222 25.446,38.21 25.421,37.97 25.146,37.238 25.146,33.183 25.229,33.17 25.481,33.099 25.637,32.991 
		25.733,32.93 26.358,31.515 25.962,30.759 25.841,30.639 25.782,30.579 25.673,30.543 25.481,30.579 25.266,30.735 25.158,30.818 
		25.146,30.831 25.146,30.195 25.29,30.219 25.421,30.195 25.578,30.123 25.578,30.123 25.709,30.027 26.021,29.715 26.286,29.355 
		26.489,28.887 26.574,28.539 	"/>
	<polygon fill-rule="evenodd" clip-rule="evenodd" fill="#00705B" points="26.574,26.259 25.974,26.559 25.614,26.679 25.29,26.811 
		25.266,26.835 25.193,26.847 25.146,26.859 25.146,28.455 25.17,28.443 25.481,28.251 25.782,27.963 25.914,27.771 26.478,27.999 
		26.514,28.035 26.574,28.167 26.574,28.287 26.574,28.287 26.574,26.259 26.574,26.259 	"/>
	<polygon fill-rule="evenodd" clip-rule="evenodd" fill="#00705B" points="25.146,42.841 25.361,42.938 25.77,43.178 26.129,43.489 
		26.441,43.861 26.574,44.077 26.574,42.074 26.538,42.002 26.538,41.882 26.538,41.821 26.55,41.75 26.55,41.75 26.574,41.689 
		26.574,40.766 26.574,40.766 26.514,40.91 26.478,40.982 26.382,41.018 26.261,41.042 26.19,41.042 26.129,41.006 26.021,40.91 
		25.974,40.874 25.962,40.814 25.901,40.79 25.829,40.658 25.782,40.598 25.77,40.49 25.554,40.502 25.494,40.502 25.29,40.43 
		25.229,40.406 25.17,40.298 25.146,40.274 25.146,40.633 25.17,40.633 25.326,40.754 25.518,40.958 25.554,41.042 25.614,41.078 
		25.685,41.102 25.733,41.174 25.877,41.402 25.914,41.461 25.938,41.618 25.938,41.845 25.914,42.074 25.914,42.098 25.877,42.182 
		25.805,42.241 25.782,42.302 25.709,42.421 25.578,42.518 25.494,42.566 25.361,42.614 25.193,42.614 25.146,42.602 25.146,42.841 
		25.146,42.841 	"/>
	<polygon fill-rule="evenodd" clip-rule="evenodd" fill="#00705B" points="25.146,49.705 25.938,48.301 25.938,48.277 
		25.998,48.025 26.033,47.785 26.033,47.533 25.998,47.269 25.998,47.221 25.746,45.361 25.709,45.313 25.685,45.229 25.602,45.037 
		25.494,44.869 25.35,44.701 25.17,44.582 25.146,44.569 25.146,49.705 25.146,49.705 	"/>
	<polygon fill-rule="evenodd" clip-rule="evenodd" fill="#00705B" points="25.146,56.88 25.29,57.061 25.746,55.236 25.805,55.092 
		25.914,54.877 26.069,54.72 26.129,54.66 26.213,54.624 26.261,54.601 26.297,54.589 26.358,54.589 26.538,54.564 26.574,54.564 
		26.574,50.952 25.782,50.856 25.673,50.833 25.518,50.796 25.35,50.701 25.29,50.677 25.229,50.665 25.217,50.629 25.158,50.581 
		25.146,50.569 25.146,56.88 25.146,56.88 	"/>
	<polygon fill-rule="evenodd" clip-rule="evenodd" fill="#00705B" points="27.077,38.462 27.077,39.218 27.065,39.242 
		27.018,39.266 26.994,39.337 26.958,39.434 26.897,39.578 26.874,39.638 26.897,39.77 26.897,39.914 26.981,40.106 27.065,40.238 
		27.077,40.25 27.077,41.293 26.789,41.425 26.633,41.558 26.598,41.629 26.574,41.689 26.574,40.766 26.609,40.693 26.609,40.538 
		26.633,40.214 26.609,39.95 26.574,39.734 26.574,38.546 26.669,38.57 26.874,38.546 27.029,38.474 27.077,38.462 	"/>
	<polygon fill-rule="evenodd" clip-rule="evenodd" fill="#00705B" points="27.077,25.995 26.682,26.211 26.574,26.259 
		26.574,28.287 26.598,28.443 26.574,28.539 26.574,36.866 26.669,36.866 26.742,36.902 26.789,36.962 26.897,37.059 26.994,37.166 
		27.077,37.274 27.077,34.334 27.065,34.334 26.922,34.287 26.897,34.238 26.849,34.178 26.825,34.142 26.849,32.954 26.682,32.042 
		26.706,31.923 26.706,31.802 26.706,31.802 26.742,31.695 26.766,31.623 26.897,31.467 26.994,31.407 27.077,31.382 27.077,30.398 
		26.609,29.667 26.598,29.127 27.077,27.939 27.077,25.995 27.077,25.995 	"/>
	<polygon fill-rule="evenodd" clip-rule="evenodd" fill="#00705B" points="27.077,48.109 26.742,49.609 26.825,49.609 
		27.077,49.609 27.077,48.109 27.077,48.109 	"/>
	<polygon fill-rule="evenodd" clip-rule="evenodd" fill="#00705B" points="26.574,44.077 26.825,44.485 27.029,44.989 
		27.077,45.158 27.077,42.986 26.994,42.938 26.958,42.817 26.574,42.074 26.574,44.077 26.574,44.077 	"/>
	<polygon fill-rule="evenodd" clip-rule="evenodd" fill="#00705B" points="26.574,54.564 26.633,54.564 26.669,54.564 
		26.706,54.564 26.742,54.589 26.789,54.589 26.801,54.601 26.874,54.649 26.934,54.685 26.981,54.757 27.077,54.853 27.077,51.024 
		26.574,50.952 26.574,54.564 26.574,54.564 	"/>
	<polygon fill-rule="evenodd" clip-rule="evenodd" fill="#00705B" points="27.605,40.502 27.605,41.054 27.569,41.066 
		27.533,41.066 27.077,41.293 27.077,40.25 27.186,40.346 27.221,40.406 27.342,40.442 27.414,40.49 27.533,40.538 27.605,40.502 	
		"/>
	<polygon fill-rule="evenodd" clip-rule="evenodd" fill="#00705B" points="27.605,34.299 27.605,38.522 27.485,38.57 27.401,38.582 
		27.354,38.63 27.282,38.738 27.221,38.774 27.209,38.834 27.209,38.858 27.162,38.954 27.149,39.11 27.102,39.158 27.077,39.218 
		27.077,38.462 27.149,38.438 27.209,38.378 27.282,38.222 27.246,38.055 27.246,38.03 27.209,37.958 27.209,37.886 27.209,37.742 
		27.186,37.646 27.186,37.586 27.149,37.502 27.125,37.442 27.125,37.382 27.089,37.286 27.077,37.274 27.077,34.334 27.102,34.358 
		27.221,34.358 27.414,34.358 27.569,34.334 27.605,34.299 27.605,34.299 	"/>
	<polygon fill-rule="evenodd" clip-rule="evenodd" fill="#00705B" points="27.605,30.398 27.605,31.431 27.509,31.371 
		27.221,31.323 27.077,31.382 27.077,30.398 27.102,30.435 27.221,30.519 27.293,30.519 27.354,30.519 27.509,30.495 27.605,30.398 
		27.605,30.398 	"/>
	<polygon fill-rule="evenodd" clip-rule="evenodd" fill="#00705B" points="27.605,25.659 27.221,25.924 27.077,25.995 
		27.077,27.939 27.089,27.916 27.209,27.748 27.221,27.651 27.282,27.639 27.342,27.58 27.414,27.555 27.485,27.519 27.545,27.519 
		27.605,27.531 27.605,25.659 27.605,25.659 	"/>
	<polygon fill-rule="evenodd" clip-rule="evenodd" fill="#00705B" points="27.077,45.158 27.162,45.577 27.246,46.273 
		27.246,46.957 27.162,47.629 27.149,47.76 27.077,48.109 27.077,49.609 27.162,49.609 27.533,49.669 27.605,49.693 27.605,43.093 
		27.533,43.093 27.293,43.069 27.089,42.998 27.077,42.986 27.077,45.158 27.077,45.158 	"/>
	<polygon fill-rule="evenodd" clip-rule="evenodd" fill="#00705B" points="27.077,54.853 27.605,55.417 27.605,51.133 
		27.414,51.062 27.077,51.024 27.077,54.853 27.077,54.853 	"/>
	<polygon fill-rule="evenodd" clip-rule="evenodd" fill="#00705B" points="28.553,40.262 28.553,41.882 27.93,41.174 27.869,41.078 
		27.762,41.066 27.666,41.042 27.666,41.042 27.605,41.054 27.605,40.502 27.629,40.49 27.737,40.538 27.821,40.574 27.917,40.574 
		28.109,40.562 28.35,40.43 28.541,40.274 28.553,40.262 	"/>
	<polygon fill-rule="evenodd" clip-rule="evenodd" fill="#00705B" points="28.553,35.75 28.481,35.415 28.469,35.198 28.469,34.982 
		28.553,34.838 28.553,27.855 28.529,27.807 28.481,27.748 28.481,27.651 28.469,27.591 28.469,27.447 28.481,27.328 28.397,26.967 
		28.409,26.787 28.529,26.487 28.553,26.427 28.553,25 27.605,25.659 27.605,27.531 27.677,27.555 27.762,27.615 27.917,27.999 
		27.845,29.883 27.821,29.967 27.737,30.183 27.605,30.387 27.605,30.398 27.605,31.431 27.785,31.562 27.869,31.683 27.989,31.683 
		28.085,31.754 28.337,31.982 28.481,32.487 28.35,32.847 28.205,33.015 28.122,33.099 27.93,33.146 27.725,34.142 27.701,34.178 
		27.605,34.287 27.605,34.299 27.605,38.522 27.677,38.498 27.797,38.498 27.917,38.57 28.181,38.738 28.553,39.242 28.553,38.45 
		28.277,38.055 28.205,37.97 28.17,37.838 28.17,37.693 28.17,37.574 28.205,37.418 28.205,37.406 28.277,37.286 28.313,37.214 
		28.433,37.083 28.553,37.01 28.553,35.75 28.553,35.75 	"/>
	<polygon fill-rule="evenodd" clip-rule="evenodd" fill="#00705B" points="27.605,49.693 27.845,49.753 28.146,49.873 
		28.481,50.125 28.553,50.208 28.553,44.233 28.541,44.221 28.529,44.174 28.433,44.005 28.433,43.97 28.433,43.837 28.433,43.741 
		28.469,43.682 28.505,43.549 28.553,43.429 28.553,42.47 28.541,42.494 28.481,42.566 28.433,42.625 28.277,42.817 28.217,42.877 
		28.085,42.95 27.762,43.069 27.605,43.093 27.605,49.693 27.605,49.693 	"/>
	<polygon fill-rule="evenodd" clip-rule="evenodd" fill="#00705B" points="27.605,55.417 28.289,56.16 27.989,54.324 27.989,54.288 
		27.989,54.24 27.978,54.181 27.989,54.169 27.989,54.108 28.013,54.096 28.037,54.048 28.122,53.988 28.205,53.88 28.289,53.845 
		28.433,53.713 28.553,53.581 28.553,51.9 28.374,51.637 28.17,51.445 27.93,51.276 27.677,51.157 27.605,51.133 27.605,55.417 
		27.605,55.417 	"/>
	<polygon fill-rule="evenodd" clip-rule="evenodd" fill="#00705B" points="29.669,38.63 29.669,40.214 29.561,40.31 29.478,40.442 
		29.405,40.622 29.393,40.85 29.405,41.066 29.525,41.27 29.646,41.461 29.669,41.474 29.669,42.421 29.622,42.421 29.537,42.458 
		29.333,42.554 29.117,42.685 28.949,42.841 28.757,43.069 28.589,43.357 28.553,43.429 28.553,42.47 28.589,42.398 28.625,42.265 
		28.673,42.169 28.649,42.062 28.601,41.941 28.553,41.882 28.553,40.262 28.733,40.022 28.793,39.794 28.793,39.662 28.781,39.566 
		28.553,39.242 28.553,38.45 28.601,38.51 28.781,38.51 28.841,38.546 28.925,38.57 29.033,38.582 29.081,38.63 29.117,38.69 
		29.177,38.69 29.273,38.738 29.333,38.774 29.357,38.774 29.405,38.798 29.429,38.798 29.478,38.774 29.501,38.774 29.525,38.762 
		29.585,38.738 29.622,38.69 29.669,38.63 	"/>
	<polygon fill-rule="evenodd" clip-rule="evenodd" fill="#00705B" points="28.553,34.838 28.757,34.491 29.525,33.818 
		29.669,33.699 29.669,24.483 29.478,24.532 29.225,24.591 28.985,24.687 28.553,25 28.553,26.427 28.722,26.031 28.841,25.792 
		28.985,25.623 29.142,25.54 29.369,25.54 29.453,25.563 29.501,25.6 29.561,25.659 29.597,25.852 29.478,26.919 29.201,27.58 
		28.853,27.892 28.817,27.916 28.733,27.916 28.601,27.892 28.565,27.867 28.553,27.855 28.553,34.838 28.553,34.838 	"/>
	<polygon fill-rule="evenodd" clip-rule="evenodd" fill="#00705B" points="29.669,36.422 29.561,36.422 29.478,36.411 
		29.369,36.411 29.297,36.362 29.105,36.291 28.949,36.218 28.793,36.098 28.673,35.966 28.565,35.81 28.553,35.75 28.553,37.01 
		28.565,36.998 28.781,36.902 28.949,36.902 29.081,36.938 29.201,36.974 29.333,37.034 29.429,37.13 29.537,37.227 29.622,37.406 
		29.669,37.538 29.669,36.422 29.669,36.422 	"/>
	<polygon fill-rule="evenodd" clip-rule="evenodd" fill="#00705B" points="28.553,50.208 28.553,44.233 28.601,44.281 
		28.913,44.366 29.646,44.366 29.669,44.354 29.669,52.633 29.597,52.633 29.597,52.524 29.597,52.524 29.597,52.308 29.537,51.89 
		29.429,51.493 29.273,51.108 29.045,50.749 28.781,50.437 28.553,50.208 28.553,50.208 	"/>
	<polygon fill-rule="evenodd" clip-rule="evenodd" fill="#00705B" points="28.553,53.581 28.601,53.521 28.722,53.364 
		28.781,53.112 28.817,52.886 28.817,52.633 28.781,52.405 28.697,52.152 28.565,51.912 28.553,51.9 28.553,53.581 28.553,53.581 	
		"/>
	<polygon fill-rule="evenodd" clip-rule="evenodd" fill="#00705B" points="29.669,33.699 30.329,33.183 31.121,32.63 31.121,26.691 
		31.073,26.715 30.941,26.775 30.773,26.775 30.641,26.679 30.545,26.584 30.545,26.584 30.521,26.427 30.497,26.332 30.521,26.067 
		30.581,25.839 30.689,25.623 30.905,25.311 31.098,25.12 31.121,25.06 31.121,24.171 30.785,24.352 30.749,24.352 30.689,24.4 
		30.581,24.436 30.449,24.459 30.305,24.472 30.173,24.472 29.729,24.472 29.669,24.483 29.669,33.699 	"/>
	<polygon fill-rule="evenodd" clip-rule="evenodd" fill="#00705B" points="31.121,35.93 30.557,36.098 30.233,36.23 29.789,36.422 
		29.753,36.422 29.669,36.422 29.669,37.538 29.849,38.09 29.837,38.15 29.837,38.222 29.837,38.282 29.837,38.342 29.789,38.402 
		29.777,38.474 29.669,38.63 29.669,40.214 29.717,40.178 29.849,40.045 30.005,40.01 30.233,39.962 30.449,39.986 30.581,40.022 
		30.713,40.082 30.773,40.082 30.965,40.142 31.109,40.214 31.121,40.226 31.121,39.901 31.098,39.877 30.389,39.566 30.269,39.47 
		30.233,39.434 30.233,39.386 30.221,39.35 30.233,39.266 30.233,39.218 30.269,39.158 30.233,39.11 30.233,39.014 30.233,38.738 
		30.233,38.642 30.293,38.582 30.329,38.498 30.425,38.378 30.521,38.282 30.641,38.21 30.809,38.162 30.881,38.114 30.941,38.114 
		31.037,38.15 31.121,38.162 31.121,37.322 31.025,37.19 31.025,37.083 31.025,37.034 31.025,36.974 31.037,36.938 31.098,36.866 
		31.121,36.831 31.121,35.93 31.121,35.93 	"/>
	<polygon fill-rule="evenodd" clip-rule="evenodd" fill="#00705B" points="29.669,52.633 29.945,52.657 30.941,52.633 
		31.121,52.646 31.121,51.757 30.977,51.805 31.109,50.677 31.121,50.617 31.121,41.689 31.025,41.762 30.833,41.821 30.617,41.786 
		30.521,41.762 30.449,41.689 30.233,41.689 29.981,41.653 29.777,41.57 29.669,41.474 29.669,42.421 29.753,42.421 29.849,42.421 
		30.713,42.746 30.833,42.817 30.881,42.901 30.905,43.01 30.905,43.226 30.809,43.489 30.653,43.741 30.449,43.97 30.233,44.125 
		30.029,44.257 29.777,44.354 29.669,44.354 29.669,52.633 29.669,52.633 	"/>
	<polygon fill-rule="evenodd" clip-rule="evenodd" fill="#00705B" points="32.297,38.079 32.297,41.306 32.285,41.342 
		32.249,41.486 32.249,41.689 32.297,41.798 32.297,42.602 32.213,42.625 31.973,42.805 31.937,42.877 31.901,43.034 31.793,43.069 
		31.613,43.226 31.445,43.453 31.289,43.921 31.252,44.221 31.349,44.473 31.409,44.582 31.541,44.641 31.769,44.701 31.901,44.701 
		32.021,44.666 32.128,44.677 32.297,44.677 32.297,49.369 31.997,49.548 31.732,49.753 31.409,50.125 31.133,50.605 31.121,50.617 
		31.121,41.689 31.168,41.653 31.229,41.594 31.289,41.486 31.301,41.27 31.301,41.198 31.289,41.078 31.301,41.006 31.349,40.91 
		31.349,40.814 31.349,40.598 31.289,40.43 31.217,40.298 31.121,40.226 31.121,39.901 31.168,39.914 31.324,39.962 31.349,39.986 
		31.445,40.01 31.541,40.01 31.601,39.962 31.732,39.962 31.769,39.89 31.901,39.818 31.96,39.734 31.997,39.662 31.997,39.602 
		32.021,39.434 32.021,39.302 32.021,39.266 32.021,39.206 31.96,39.05 31.577,38.414 31.409,38.246 31.217,38.186 31.121,38.162 
		31.121,37.322 31.769,38.186 32.297,38.079 	"/>
	<polygon fill-rule="evenodd" clip-rule="evenodd" fill="#00705B" points="31.121,32.63 31.168,32.594 32.033,32.055 32.297,31.911 
		32.297,30.794 32.128,30.939 32.057,30.986 31.96,30.962 31.96,30.962 31.841,30.855 31.829,30.794 31.805,30.759 31.745,30.471 
		31.745,30.327 31.745,30.087 31.301,29.415 31.229,29.223 31.193,29.139 31.193,29.007 31.193,28.779 31.193,28.611 31.252,28.287 
		31.349,28.107 31.493,27.892 31.601,27.783 31.709,27.748 31.877,27.675 31.937,27.651 32.057,27.675 32.297,27.795 32.297,23.584 
		31.121,24.171 31.121,25.06 31.157,25.012 31.193,24.988 31.301,24.879 31.409,24.843 31.601,24.843 31.685,24.843 31.745,24.879 
		31.805,24.976 31.841,25.036 31.877,25.167 31.877,25.54 31.745,25.971 31.577,26.271 31.301,26.584 31.229,26.643 31.121,26.691 
		31.121,32.63 31.121,32.63 	"/>
	<polygon fill-rule="evenodd" clip-rule="evenodd" fill="#00705B" points="32.297,35.702 31.769,35.75 31.217,35.895 31.121,35.93 
		31.121,36.831 31.168,36.77 31.193,36.746 31.252,36.71 31.301,36.71 31.349,36.698 31.421,36.698 31.481,36.698 31.553,36.698 
		31.577,36.71 31.637,36.746 31.709,36.782 31.769,36.698 31.841,36.614 31.96,36.554 31.997,36.53 32.021,36.53 32.189,36.53 
		32.285,36.53 32.297,36.542 32.297,35.702 32.297,35.702 	"/>
	<polygon fill-rule="evenodd" clip-rule="evenodd" fill="#00705B" points="31.121,52.646 31.937,52.669 32.297,52.717 
		32.297,51.337 31.121,51.757 31.121,52.646 31.121,52.646 	"/>
	<polygon fill-rule="evenodd" clip-rule="evenodd" fill="#00705B" points="34.252,41.87 34.252,43.526 34.205,43.549 34.121,43.585 
		34.085,43.669 33.989,43.813 33.952,43.994 33.977,44.257 33.989,44.354 34.085,44.449 34.252,44.557 34.252,47.797 34.049,47.893 
		33.569,48.241 33.401,48.457 33.185,48.721 33.101,48.913 33.053,49.105 33.029,49.213 33.029,49.261 32.981,49.261 32.801,49.237 
		32.597,49.261 32.345,49.333 32.297,49.369 32.297,44.677 32.357,44.677 32.609,44.605 32.849,44.473 33.017,44.257 33.292,43.513 
		33.34,43.298 33.316,43.226 33.292,43.058 33.149,42.817 32.957,42.649 32.741,42.566 32.489,42.554 32.297,42.602 32.297,41.798 
		32.321,41.845 32.417,42.002 32.549,42.122 32.729,42.182 32.897,42.241 33.508,42.229 33.785,42.182 34.108,42.037 34.252,41.87 	
		"/>
	<polygon fill-rule="evenodd" clip-rule="evenodd" fill="#00705B" points="32.297,31.911 32.933,31.562 33.845,31.083 
		34.252,30.915 34.252,29.475 34.168,29.451 34.049,29.379 33.989,29.283 33.977,29.187 33.952,29.091 33.928,28.827 33.977,28.635 
		34.049,28.359 34.121,28.203 34.013,28.011 33.893,27.831 33.761,27.675 33.677,27.639 33.797,26.115 33.952,26.139 34.037,26.139 
		34.085,26.115 34.241,26.008 34.252,25.983 34.252,23.584 34.217,23.608 34.168,23.632 34.121,23.655 34.049,23.655 34.013,23.667 
		33.952,23.667 33.845,23.667 33.785,23.655 33.725,23.655 33.677,23.632 33.604,23.608 33.569,23.572 33.508,23.535 33.292,23.404 
		33.245,23.404 33.149,23.379 33.017,23.355 32.897,23.355 32.765,23.379 32.633,23.416 32.573,23.439 32.297,23.584 32.297,27.795 
		32.321,27.807 32.513,28.011 32.597,28.227 32.681,28.647 32.513,30.327 32.357,30.759 32.297,30.794 32.297,31.911 32.297,31.911 
			"/>
	<polygon fill-rule="evenodd" clip-rule="evenodd" fill="#00705B" points="34.252,35.15 34.18,35.198 33.989,35.39 33.917,35.474 
		33.821,35.558 32.297,35.702 32.297,36.542 32.357,36.578 32.417,36.614 32.549,36.698 32.657,36.89 32.681,37.059 32.681,37.154 
		32.741,37.19 32.789,37.274 32.825,37.346 32.849,37.478 32.825,37.669 32.789,37.802 32.729,37.861 32.633,37.958 32.549,38.03 
		32.381,38.055 32.297,38.079 32.297,41.306 32.381,41.15 32.405,41.078 32.477,41.042 32.609,40.946 32.681,40.874 32.765,40.85 
		32.897,40.826 32.957,40.754 33.017,40.693 33.281,40.538 33.413,40.466 33.544,40.466 33.785,40.502 33.989,40.574 34.18,40.693 
		34.252,40.814 34.252,39.554 34.108,39.494 33.928,39.434 33.737,39.386 33.569,39.386 33.508,39.386 33.353,39.386 33.185,39.337 
		33.161,39.278 33.101,39.242 33.101,39.158 33.101,38.99 33.125,38.93 33.089,38.894 33.017,38.882 32.981,38.798 32.957,38.738 
		32.933,38.69 32.957,38.606 32.957,38.57 32.981,38.474 33.017,38.378 33.185,38.222 34.252,37.682 34.252,36.831 34.085,36.674 
		33.845,36.218 33.845,36.158 33.845,36.098 33.893,36.062 33.928,35.978 33.989,35.895 34.037,35.871 34.217,35.75 34.252,35.738 
		34.252,35.15 34.252,35.15 	"/>
	<polygon fill-rule="evenodd" clip-rule="evenodd" fill="#00705B" points="32.297,52.717 32.933,52.788 33.928,52.957 
		34.252,53.029 34.252,49.873 34.241,49.873 34.205,49.968 34.145,50.065 34.037,50.377 33.928,50.988 33.845,51.062 33.628,51.253 
		33.413,51.312 33.101,51.312 32.765,51.276 32.573,51.241 32.297,51.337 32.297,52.717 32.297,52.717 	"/>
	<polygon fill-rule="evenodd" clip-rule="evenodd" fill="#00705B" points="36.112,44.174 36.112,46.441 36.029,46.477 
		35.777,46.717 35.56,47.029 35.453,47.245 35.369,47.497 35.332,47.689 35.296,47.821 35.176,47.785 34.924,47.689 34.625,47.689 
		34.457,47.725 34.336,47.785 34.289,47.785 34.252,47.797 34.252,44.557 34.289,44.582 34.541,44.617 34.732,44.582 34.756,44.605 
		34.84,44.617 34.973,44.641 35.141,44.641 35.296,44.617 35.356,44.617 35.393,44.582 35.597,44.485 35.836,44.39 36.064,44.221 
		36.112,44.174 	"/>
	<polygon fill-rule="evenodd" clip-rule="evenodd" fill="#00705B" points="34.252,30.915 34.781,30.687 35.752,30.315 
		36.112,30.195 36.112,22.455 36.101,22.444 36.029,22.444 35.98,22.42 35.849,22.408 35.789,22.408 35.729,22.408 35.692,22.42 
		35.621,22.42 35.524,22.467 35.453,22.479 35.404,22.54 35.356,22.552 34.481,23.439 34.457,23.439 34.409,23.476 34.336,23.547 
		34.252,23.584 34.252,25.983 34.373,25.792 34.433,25.684 35.141,26.751 35.225,27.208 35.225,27.387 34.792,29.067 34.625,29.283 
		34.588,29.355 34.504,29.391 34.396,29.475 34.373,29.475 34.289,29.475 34.252,29.475 34.252,30.915 34.252,30.915 	"/>
	<polygon fill-rule="evenodd" clip-rule="evenodd" fill="#00705B" points="36.112,34.982 36.101,34.982 35.836,34.898 
		35.428,34.838 35.165,34.838 34.912,34.875 34.649,34.946 34.409,35.066 34.252,35.15 34.252,35.738 34.373,35.702 34.625,35.654 
		34.888,35.654 35.008,35.679 35.201,35.702 35.729,36.218 35.752,36.35 35.777,36.386 35.777,36.422 35.752,36.59 35.645,36.807 
		35.465,37.034 35.237,37.19 35.045,37.25 34.912,37.25 34.84,37.25 34.756,37.214 34.697,37.19 34.252,36.831 34.252,37.682 
		34.336,37.646 35.356,37.861 35.56,38.582 35.584,38.738 35.56,38.858 35.56,38.99 35.5,39.182 35.369,39.386 35.201,39.566 
		34.973,39.662 34.756,39.686 34.649,39.686 34.601,39.662 34.481,39.662 34.289,39.566 34.252,39.554 34.252,40.814 34.336,40.946 
		34.409,41.138 34.433,41.438 34.336,41.786 34.252,41.87 34.252,43.526 34.373,43.477 34.457,43.453 34.481,43.322 34.541,43.261 
		34.601,43.166 34.661,43.069 34.816,43.01 34.984,42.901 35.225,42.866 35.356,42.841 35.428,42.866 35.657,42.901 35.908,43.01 
		36.112,43.166 36.112,43.166 36.112,42.661 35.98,42.625 35.692,42.554 35.524,42.494 35.404,42.458 35.237,42.398 35.117,42.302 
		35.008,42.169 34.984,41.978 34.984,41.821 35.033,41.713 35.104,41.629 35.225,41.486 35.296,41.438 35.356,41.438 35.428,41.377 
		35.5,41.306 35.537,41.233 35.621,41.174 35.849,41.078 36.112,41.066 36.112,40.574 36.029,40.502 35.884,40.214 35.849,40.022 
		35.849,39.337 35.92,39.242 35.968,39.206 36.041,39.11 36.112,39.014 36.112,39.014 36.112,34.982 36.112,34.982 	"/>
	<polygon fill-rule="evenodd" clip-rule="evenodd" fill="#00705B" points="34.252,53.029 34.912,53.173 35.296,53.233 
		35.584,53.293 35.908,53.293 36.112,53.269 36.112,49.669 36.112,49.669 35.944,49.753 35.884,49.801 35.812,49.801 35.645,49.777 
		34.504,49.705 34.433,49.741 34.348,49.812 34.252,49.873 34.252,53.029 34.252,53.029 	"/>
	<polygon fill-rule="evenodd" clip-rule="evenodd" fill="#00705B" points="37.36,40.778 37.36,43.753 37.348,43.778 37.192,43.994 
		37.108,44.221 37.108,44.354 37.132,44.473 37.216,44.582 37.36,44.653 37.36,45.542 37.228,45.721 37.06,46.033 37.036,46.154 
		36.976,46.381 36.905,46.345 36.785,46.285 36.724,46.285 36.688,46.273 36.581,46.273 36.581,46.273 36.521,46.285 36.353,46.309 
		36.22,46.381 36.112,46.441 36.112,44.174 36.232,44.005 36.304,43.778 36.304,43.549 36.232,43.357 36.112,43.166 36.112,42.661 
		36.196,42.685 36.353,42.757 36.484,42.841 36.94,42.494 37.06,42.421 37.132,42.29 37.228,42.062 37.216,41.786 37.108,41.594 
		37.024,41.486 36.94,41.438 36.833,41.377 36.809,41.306 36.724,41.246 36.604,41.15 36.521,41.138 36.425,41.078 36.304,41.078 
		36.136,41.066 36.112,41.066 36.112,40.574 36.292,40.754 36.556,40.91 36.809,40.946 37.06,40.946 37.252,40.85 37.36,40.778 	"/>
	<polygon fill-rule="evenodd" clip-rule="evenodd" fill="#00705B" points="36.112,30.195 36.724,29.991 37.36,29.823 37.36,28.467 
		37.252,28.515 37.192,28.515 37.036,28.443 36.94,28.359 36.785,28.071 36.688,27.783 36.449,26.391 36.617,25.527 36.785,25.311 
		37.024,25.108 37.216,25.012 37.36,25.012 37.36,23.511 37.36,23.511 37.3,23.511 37.252,23.476 37.192,23.476 37.096,23.439 
		37.024,23.416 36.976,23.379 36.917,23.355 36.868,23.32 36.833,23.271 36.785,23.236 36.772,23.176 36.388,22.612 36.353,22.612 
		36.304,22.576 36.257,22.54 36.196,22.516 36.16,22.479 36.112,22.455 36.112,30.195 36.112,30.195 	"/>
	<polygon fill-rule="evenodd" clip-rule="evenodd" fill="#00705B" points="37.36,34.346 37.252,34.395 37.024,34.491 36.833,34.623 
		36.64,34.791 36.497,34.982 36.413,35.162 36.353,35.102 36.112,34.982 36.112,39.014 36.136,38.954 36.173,38.93 36.917,38.954 
		37.156,38.99 37.36,39.085 37.36,38.51 37.216,38.498 37.06,38.45 36.449,38.079 36.364,37.97 36.328,37.838 36.353,37.693 
		36.353,37.634 36.413,37.526 36.845,36.962 37.096,36.807 37.288,36.746 37.36,36.746 37.36,34.346 37.36,34.346 	"/>
	<polygon fill-rule="evenodd" clip-rule="evenodd" fill="#00705B" points="36.112,53.269 36.232,53.245 36.544,53.173 
		36.809,53.017 37.096,52.861 37.324,52.657 37.36,52.609 37.36,48 37.252,47.989 37.06,47.893 36.94,47.857 36.22,48.241 
		36.328,48.601 36.353,48.877 36.353,49.201 36.257,49.453 36.112,49.669 36.112,53.269 36.112,53.269 	"/>
	<polygon fill-rule="evenodd" clip-rule="evenodd" fill="#00705B" points="38.452,44.821 38.452,46.945 38.404,46.766 
		38.284,46.573 38.212,46.477 38.225,46.417 38.344,46.154 38.404,45.889 38.417,45.601 38.38,45.385 38.356,45.313 38.296,45.277 
		38.248,45.193 38.212,45.169 38.152,45.158 38.128,45.158 38.128,45.158 38.021,45.121 37.84,45.169 37.792,45.169 37.708,45.229 
		37.409,45.469 37.36,45.542 37.36,44.653 37.42,44.677 37.516,44.75 37.768,44.773 38.452,44.821 	"/>
	<polygon fill-rule="evenodd" clip-rule="evenodd" fill="#00705B" points="37.36,29.823 37.708,29.739 38.452,29.57 38.452,22.948 
		37.84,23.355 37.829,23.379 37.768,23.404 37.732,23.416 37.66,23.463 37.601,23.463 37.552,23.476 37.42,23.511 37.36,23.511 
		37.36,25.012 37.492,25.012 37.612,25.071 37.684,25.108 37.768,25.204 37.936,25.467 38.021,26.979 37.912,27.591 37.805,27.892 
		37.552,28.335 37.42,28.443 37.36,28.467 37.36,29.823 37.36,29.823 	"/>
	<polygon fill-rule="evenodd" clip-rule="evenodd" fill="#00705B" points="38.452,34.346 38.212,34.299 37.973,34.262 
		37.732,34.262 37.492,34.299 37.36,34.346 37.36,36.746 37.54,36.77 37.732,36.807 37.829,36.842 37.9,36.902 37.96,36.962 
		37.997,37.034 38.092,37.25 38.092,37.31 38.188,37.382 38.296,37.442 38.344,37.502 38.404,37.669 38.38,37.861 38.284,38.09 
		38.056,38.354 37.768,38.498 37.54,38.51 37.36,38.51 37.36,39.085 37.384,39.085 37.601,39.278 37.768,39.506 37.84,39.818 
		37.84,40.045 37.768,40.346 37.612,40.574 37.444,40.717 37.36,40.778 37.36,43.753 37.552,43.609 37.84,43.453 38.452,43.333 
		38.452,42.59 38.225,42.518 37.9,42.374 37.708,42.169 37.66,41.954 37.732,41.762 37.768,41.677 37.84,41.618 37.912,41.558 
		38.452,41.33 38.452,39.758 38.44,39.758 38.452,39.734 38.452,36.435 38.225,36.362 38.021,36.254 37.805,36.086 37.684,35.871 
		37.66,35.702 37.684,35.558 37.792,35.426 37.936,35.366 38.452,35.222 38.452,34.346 38.452,34.346 	"/>
	<polygon fill-rule="evenodd" clip-rule="evenodd" fill="#00705B" points="37.36,52.609 37.516,52.429 37.684,52.152 37.829,51.865 
		37.973,51.493 38.284,50.809 38.452,50.509 38.452,47.245 38.44,47.269 38.356,47.473 38.165,47.713 37.912,47.881 37.708,47.989 
		37.444,48.013 37.36,48 37.36,52.609 37.36,52.609 	"/>
	<polygon fill-rule="evenodd" clip-rule="evenodd" fill="#00705B" points="40.216,40.394 40.216,41.461 40.168,41.366 
		40.108,41.246 40.048,41.174 39.952,41.102 39.892,41.066 39.819,41.006 39.736,40.982 39.604,40.958 39.532,40.946 39.4,40.958 
		38.452,41.33 38.452,39.758 38.512,39.818 38.729,39.962 38.932,40.154 39.088,40.37 39.22,40.574 39.952,40.538 40.108,40.466 
		40.216,40.394 	"/>
	<polygon fill-rule="evenodd" clip-rule="evenodd" fill="#00705B" points="38.452,29.57 38.705,29.523 38.92,29.451 40.216,29.127 
		40.216,27.543 40.108,27.459 40.012,27.363 39.952,27.171 39.736,25.239 39.819,24.591 39.892,24.339 40.072,24.04 40.216,23.919 
		40.216,22.612 39.928,22.467 39.892,22.479 39.796,22.467 39.652,22.42 39.472,22.42 39.34,22.444 39.148,22.479 38.452,22.948 
		38.452,29.57 38.452,29.57 	"/>
	<polygon fill-rule="evenodd" clip-rule="evenodd" fill="#00705B" points="40.216,33.854 40.144,33.854 39.928,33.926 39.736,34.01 
		39.544,34.142 39.4,34.262 39.244,34.43 39.148,34.526 39.04,34.491 38.668,34.395 38.452,34.346 38.452,35.222 38.789,35.138 
		38.86,35.162 38.932,35.162 39.1,35.234 39.184,35.33 39.22,35.415 39.22,35.474 39.22,35.558 39.22,35.618 39.208,35.679 
		39.292,35.774 39.352,35.871 39.412,36.026 39.436,36.158 39.412,36.23 39.268,36.411 39.16,36.47 38.992,36.483 38.848,36.483 
		38.548,36.47 38.452,36.435 38.452,39.734 38.464,39.662 38.488,39.566 38.512,39.506 38.512,39.47 38.548,39.386 38.596,39.35 
		38.729,39.218 38.8,39.158 38.92,39.146 38.98,39.026 39.016,38.99 39.184,38.822 39.472,38.69 39.819,38.69 40.108,38.774 
		40.216,38.858 40.216,38.618 40.072,38.642 39.76,38.63 39.544,38.57 39.316,38.414 39.22,38.354 39.184,38.246 39.148,38.186 
		39.124,37.97 39.16,37.838 39.7,36.902 39.856,36.71 39.952,36.65 40.216,36.554 40.216,33.854 40.216,33.854 	"/>
	<polygon fill-rule="evenodd" clip-rule="evenodd" fill="#00705B" points="40.216,50.257 40.216,54.649 39.4,54.601 39.34,54.589 
		39.268,54.589 39.22,54.564 39.124,54.517 39.028,54.457 39.016,54.409 38.98,54.396 38.92,54.301 38.86,54.205 38.8,54.036 
		38.74,53.845 38.705,53.629 38.764,53.148 38.92,52.501 39.124,51.912 39.4,51.349 39.76,50.796 40.168,50.305 40.216,50.257 
		40.216,50.257 	"/>
	<polygon fill-rule="evenodd" clip-rule="evenodd" fill="#00705B" points="38.452,50.509 38.656,50.161 39.1,49.548 39.592,48.985 
		40.144,48.469 40.216,48.421 40.216,44.773 40.12,44.545 40.12,44.233 40.204,44.005 40.216,43.994 40.216,41.93 40.18,42.062 
		40.072,42.29 39.916,42.481 39.628,42.59 39.508,42.614 38.512,42.614 38.452,42.59 38.452,43.333 38.992,43.226 39.34,43.261 
		39.592,43.394 39.7,43.477 39.76,43.609 39.796,43.813 39.76,44.042 39.568,44.366 39.208,44.641 38.86,44.797 38.596,44.833 
		38.452,44.821 38.452,46.945 38.464,47.017 38.488,47.113 38.452,47.245 38.452,50.509 38.452,50.509 	"/>
	<polygon fill-rule="evenodd" clip-rule="evenodd" fill="#00705B" points="40.216,29.127 41.476,28.815 41.476,22.335 41.235,22.6 
		41.224,22.6 41.176,22.636 41.068,22.708 40.972,22.744 40.924,22.768 40.852,22.768 40.756,22.792 40.696,22.792 40.624,22.792 
		40.588,22.768 40.504,22.744 40.216,22.612 40.216,23.919 40.336,23.8 40.54,23.763 40.792,23.847 40.972,23.992 41.068,24.232 
		41.116,24.472 41.116,24.988 40.696,27.231 40.54,27.423 40.456,27.519 40.408,27.555 40.24,27.58 40.228,27.555 40.216,27.543 
		40.216,29.127 	"/>
	<polygon fill-rule="evenodd" clip-rule="evenodd" fill="#00705B" points="41.476,33.903 40.624,33.818 40.564,33.842 
		40.348,33.842 40.216,33.854 40.216,36.554 40.228,36.554 40.504,36.59 40.66,36.698 40.84,36.866 40.876,36.938 40.912,37.059 
		41.032,37.154 41.116,37.214 41.176,37.346 41.235,37.406 41.26,37.526 41.308,37.693 41.235,38.03 41.032,38.306 40.78,38.45 
		40.54,38.498 40.336,38.606 40.216,38.618 40.216,38.858 40.348,38.966 40.528,39.242 40.6,39.47 40.624,39.758 40.54,40.022 
		40.348,40.298 40.216,40.394 40.216,41.461 40.228,41.498 40.228,41.594 40.228,41.845 40.216,41.93 40.216,43.994 40.264,43.874 
		40.348,43.813 40.624,43.585 41.476,43.237 41.476,36.134 41.416,36.158 41.176,36.158 41.032,36.158 40.456,36.026 40.54,35.474 
		40.456,35.45 40.372,35.366 40.312,35.259 40.312,35.222 40.264,35.138 40.276,35.042 40.312,34.946 40.312,34.898 40.348,34.814 
		40.432,34.73 40.468,34.646 40.588,34.611 40.696,34.586 41.476,34.694 41.476,33.903 41.476,33.903 	"/>
	<polygon fill-rule="evenodd" clip-rule="evenodd" fill="#00705B" points="41.476,49.237 41.116,49.465 40.6,49.837 40.216,50.257 
		40.216,54.649 40.792,54.685 40.815,54.708 40.852,54.72 40.912,54.757 40.948,54.757 40.984,54.781 41.068,54.841 41.164,54.912 
		41.224,55.032 41.26,55.104 41.295,55.177 41.295,55.236 41.308,55.284 41.308,55.356 41.308,55.429 41.308,55.513 41.116,56.389 
		41.068,56.556 41.044,56.7 41.044,56.868 41.104,57.036 41.14,57.168 41.164,57.228 41.2,57.265 41.295,57.384 41.392,57.456 
		41.476,57.528 41.476,49.237 41.476,49.237 	"/>
	<polygon fill-rule="evenodd" clip-rule="evenodd" fill="#00705B" points="40.216,48.421 40.84,47.953 41.452,47.569 41.476,47.557 
		41.476,44.954 40.924,45.097 40.924,45.097 40.588,45.085 40.468,45.037 40.24,44.857 40.216,44.773 40.216,48.421 40.216,48.421 	
		"/>
	<polygon fill-rule="evenodd" clip-rule="evenodd" fill="#00705B" points="41.476,28.815 42.855,28.467 42.855,26.344 
		42.843,26.344 42.843,26.259 42.832,26.115 42.855,25.995 42.855,21.928 42.832,21.903 42.748,21.832 42.64,21.796 42.556,21.748 
		42.448,21.711 42.364,21.711 42.256,21.711 42.195,21.735 42.16,21.735 42.111,21.748 42.027,21.796 41.944,21.856 41.872,21.903 
		41.476,22.335 41.476,28.815 	"/>
	<polygon fill-rule="evenodd" clip-rule="evenodd" fill="#00705B" points="42.855,48.661 42.843,48.661 42.256,48.853 
		41.656,49.128 41.476,49.237 41.476,57.528 41.62,57.648 41.644,57.708 41.812,57.925 41.944,58.188 42.004,58.439 42.04,58.536 
		42.232,59.64 42.855,58.464 42.855,48.661 42.855,48.661 	"/>
	<polygon fill-rule="evenodd" clip-rule="evenodd" fill="#00705B" points="41.476,47.557 42.111,47.245 42.784,46.993 
		42.855,46.969 42.855,42.433 42.472,42.361 42.304,42.241 42.195,42.146 42.16,42.037 42.16,41.954 42.172,41.713 42.28,41.534 
		42.472,41.402 42.855,41.293 42.855,40.346 42.328,40.442 42.064,40.43 41.968,40.406 41.908,40.346 41.776,40.274 41.644,40.142 
		41.56,39.914 41.56,39.77 41.62,39.434 41.692,39.278 41.776,39.218 41.944,39.085 42.172,38.966 42.52,38.834 42.855,38.798 
		42.855,38.33 42.676,38.282 42.364,38.15 42.1,37.898 41.92,37.634 41.848,37.406 41.848,37.286 41.908,37.154 42.364,36.47 
		42.412,36.411 42.604,36.278 42.784,36.254 42.855,36.254 42.855,33.627 42.616,33.722 42.364,33.854 42.195,33.974 41.476,33.903 
		41.476,34.694 41.656,34.706 41.848,34.791 42.004,34.946 42.111,35.138 42.135,35.259 42.111,35.354 42.1,35.45 42.027,35.702 
		41.836,35.906 41.644,36.062 41.476,36.134 41.476,43.237 42.064,43.01 42.328,43.034 42.448,43.034 42.58,43.093 42.771,43.298 
		42.843,43.562 42.784,43.994 42.64,44.257 42.448,44.485 42.172,44.725 41.908,44.833 41.476,44.954 41.476,47.557 41.476,47.557 	
		"/>
	<polygon fill-rule="evenodd" clip-rule="evenodd" fill="#00705B" points="43.708,40.31 43.708,41.042 42.855,41.293 42.855,40.346 
		43.096,40.298 43.3,40.346 43.479,40.37 43.708,40.31 	"/>
	<polygon fill-rule="evenodd" clip-rule="evenodd" fill="#00705B" points="43.708,38.042 43.708,39.074 43.66,38.99 43.552,38.894 
		43.251,38.822 42.867,38.798 42.855,38.798 42.855,38.33 42.904,38.342 43.096,38.282 43.168,38.222 43.251,38.222 43.479,38.21 
		43.612,38.114 43.708,38.042 43.708,38.042 	"/>
	<polygon fill-rule="evenodd" clip-rule="evenodd" fill="#00705B" points="43.708,22.252 43.612,22.324 43.599,22.324 
		43.552,22.348 43.516,22.348 43.468,22.359 43.419,22.359 43.36,22.359 43.324,22.359 43.275,22.348 43.228,22.348 43.216,22.324 
		43.168,22.324 43.156,22.311 43.096,22.252 43.023,22.192 42.976,22.156 42.867,21.94 42.855,21.928 42.855,25.995 42.867,25.947 
		43.216,25.108 43.096,24.916 42.976,24.724 42.964,24.472 42.964,24.051 43.035,23.787 43.516,23.32 43.708,23.236 43.708,23.236 
		43.708,22.252 43.708,22.252 	"/>
	<polygon fill-rule="evenodd" clip-rule="evenodd" fill="#00705B" points="42.855,28.467 43.708,28.263 43.708,26.439 
		43.516,26.584 43.251,26.619 43.096,26.559 42.976,26.523 42.939,26.451 42.867,26.344 42.855,26.344 42.855,28.467 42.855,28.467 
			"/>
	<polygon fill-rule="evenodd" clip-rule="evenodd" fill="#00705B" points="43.708,33.519 43.479,33.495 43.191,33.531 
		42.904,33.615 42.855,33.627 42.855,36.254 42.904,36.254 43.096,36.35 43.708,37.094 43.708,35.546 43.552,34.982 43.552,34.838 
		43.636,34.623 43.671,34.55 43.708,34.526 43.708,33.519 43.708,33.519 	"/>
	<polygon fill-rule="evenodd" clip-rule="evenodd" fill="#00705B" points="43.708,48.493 43.479,48.517 42.855,48.661 
		42.855,58.464 43.419,57.42 43.443,57.42 43.443,57.396 43.468,57.384 43.479,57.36 43.516,57.36 43.54,57.324 43.552,57.312 
		43.575,57.312 43.599,57.312 43.636,57.265 43.66,57.265 43.708,57.265 43.708,57.265 43.708,51.564 43.575,51.505 43.408,51.409 
		43.324,51.312 43.228,51.217 43.132,51.062 43.096,50.94 43.06,50.809 43.06,50.677 43.096,50.544 43.132,50.389 43.216,50.257 
		43.324,50.125 43.468,50.029 43.66,49.944 43.708,49.92 43.708,48.493 43.708,48.493 	"/>
	<polygon fill-rule="evenodd" clip-rule="evenodd" fill="#00705B" points="42.855,46.969 43.516,46.825 43.708,46.801 43.708,42.47 
		43.636,42.494 43.36,42.518 43.156,42.481 42.855,42.433 42.855,46.969 42.855,46.969 	"/>
	<polygon fill-rule="evenodd" clip-rule="evenodd" fill="#00705B" points="44.476,36.602 44.476,41.006 44.403,40.958 44.152,40.91 
		43.708,41.042 43.708,40.31 43.744,40.298 43.96,40.178 44.019,40.069 44.056,40.01 44.056,39.89 44.056,39.758 43.708,39.074 
		43.708,38.042 43.732,38.03 43.792,37.898 43.864,37.706 43.864,37.634 43.864,37.418 43.851,37.286 43.768,37.166 43.708,37.094 
		43.708,35.546 43.899,36.194 43.899,36.194 43.995,36.35 44.08,36.446 44.319,36.59 44.476,36.602 	"/>
	<polygon fill-rule="evenodd" clip-rule="evenodd" fill="#00705B" points="44.476,21.748 43.708,22.252 43.708,23.236 
		43.899,23.236 44.056,23.271 44.188,23.379 44.319,23.535 44.463,23.787 44.476,23.847 44.476,21.748 44.476,21.748 	"/>
	<polygon fill-rule="evenodd" clip-rule="evenodd" fill="#00705B" points="43.708,28.263 44.476,28.059 44.476,25.095 
		43.768,26.391 43.708,26.439 43.708,28.263 43.708,28.263 	"/>
	<polygon fill-rule="evenodd" clip-rule="evenodd" fill="#00705B" points="44.476,33.639 43.864,33.495 43.792,33.531 
		43.708,33.519 43.708,34.526 43.768,34.491 43.864,34.43 43.936,34.418 44.056,34.43 44.152,34.43 44.224,34.479 44.476,34.718 
		44.476,33.639 44.476,33.639 	"/>
	<polygon fill-rule="evenodd" clip-rule="evenodd" fill="#00705B" points="43.708,57.265 43.744,57.265 43.768,57.288 
		43.792,57.288 43.804,57.288 43.851,57.312 43.864,57.324 43.899,57.324 43.912,57.36 43.936,57.384 44.476,58.116 44.476,51.673 
		43.936,51.637 43.899,51.612 43.732,51.577 43.708,51.564 43.708,57.265 43.708,57.265 	"/>
	<polygon fill-rule="evenodd" clip-rule="evenodd" fill="#00705B" points="44.476,48.397 44.356,48.409 43.708,48.493 43.708,49.92 
		43.851,49.873 44.032,49.837 44.224,49.837 44.343,49.861 44.439,49.861 44.476,49.885 44.476,48.397 44.476,48.397 	"/>
	<polygon fill-rule="evenodd" clip-rule="evenodd" fill="#00705B" points="43.708,46.801 44.224,46.717 44.476,46.717 
		44.476,41.966 44.319,42.098 44.164,42.169 44.056,42.29 43.864,42.421 43.708,42.47 43.708,46.801 43.708,46.801 	"/>
	<polygon fill-rule="evenodd" clip-rule="evenodd" fill="#00705B" points="44.476,28.059 46.359,27.591 46.359,26.295 
		46.312,26.307 46.227,26.307 46.179,26.271 46.144,26.211 46.107,26.175 46.072,26.115 46.035,25.971 46.107,25.54 46.011,23.127 
		46.167,22.671 46.275,22.576 46.359,22.527 46.359,21.304 46.312,21.184 46.264,21.184 46.24,21.136 46.227,21.124 46.179,21.1 
		46.167,21.052 46.12,21.028 46.107,21.003 46.047,21.003 46.011,20.992 45.975,20.992 45.928,20.968 45.879,20.968 45.819,20.968 
		45.783,20.968 45.735,20.992 45.699,20.992 45.651,21.003 45.627,21.003 44.476,21.748 44.476,23.847 44.571,24.243 44.571,24.543 
		44.511,25.047 44.476,25.095 44.476,28.059 	"/>
	<polygon fill-rule="evenodd" clip-rule="evenodd" fill="#00705B" points="44.476,58.116 45.16,59.027 45.375,57.36 45.436,57.228 
		45.592,56.977 45.651,56.903 45.664,56.868 45.723,56.844 45.855,56.772 45.879,56.736 45.928,56.713 45.975,56.713 46.011,56.7 
		46.072,56.676 46.144,56.7 46.264,56.736 46.312,56.772 46.359,56.784 46.359,51.829 46.167,51.805 45.987,51.769 44.476,51.673 
		44.476,58.116 44.476,58.116 	"/>
	<polygon fill-rule="evenodd" clip-rule="evenodd" fill="#00705B" points="46.359,48.493 45.795,48.409 45.075,48.373 
		44.476,48.397 44.476,49.885 44.536,49.897 44.631,49.897 45.399,50.257 45.544,50.316 45.783,50.377 45.987,50.377 46.227,50.353 
		46.359,50.329 46.359,48.493 46.359,48.493 	"/>
	<polygon fill-rule="evenodd" clip-rule="evenodd" fill="#00705B" points="44.476,46.717 44.955,46.693 45.664,46.729 
		46.359,46.861 46.359,42.986 46.347,42.998 46.072,43.069 45.783,43.166 45.472,43.166 45.315,43.093 45.208,43.058 45.147,42.974 
		45.124,42.901 45.075,42.014 46.359,41.342 46.359,40.586 46.275,40.622 45.436,40.814 45.243,40.766 45.16,40.693 45.075,40.622 
		44.932,40.406 44.919,40.106 44.991,39.35 45.051,39.242 45.1,39.182 45.28,39.026 45.472,39.014 46.359,39.23 46.359,38.606 
		46.275,38.606 46.107,38.57 44.74,37.994 44.548,37.418 44.548,37.286 44.596,37.166 44.655,37.083 44.788,37.022 45.124,36.866 
		46.359,37.118 46.359,36.194 46.336,36.158 45.759,35.174 45.783,35.03 45.879,34.814 46.107,34.683 46.347,34.611 46.359,34.611 
		46.359,33.615 46.227,33.59 45.916,33.59 45.567,33.627 45.243,33.722 45.075,33.783 44.476,33.639 44.476,34.718 45.243,35.415 
		45.315,35.474 45.351,35.583 45.375,35.702 45.411,35.834 45.375,35.966 45.351,36.038 45.243,36.254 45.184,36.326 45.124,36.35 
		44.991,36.411 44.932,36.386 44.884,36.446 44.848,36.483 44.704,36.578 44.548,36.614 44.476,36.602 44.476,41.006 44.596,41.078 
		44.631,41.174 44.667,41.246 44.728,41.558 44.548,41.906 44.476,41.966 44.476,46.717 44.476,46.717 	"/>
	<polygon fill-rule="evenodd" clip-rule="evenodd" fill="#00705B" points="46.359,27.591 47.559,27.291 47.872,27.231 
		48.843,26.979 48.915,26.955 48.915,24.735 48.771,23.379 48.807,23.08 48.915,22.863 48.915,22.863 48.915,20.956 48.783,20.8 
		48.771,20.8 48.747,20.776 48.723,20.751 48.711,20.74 48.675,20.74 48.663,20.716 48.639,20.68 48.615,20.68 48.603,20.68 
		48.579,20.668 48.555,20.668 48.483,20.668 48.471,20.668 48.447,20.668 48.423,20.68 48.411,20.68 48.363,20.716 48.351,20.716 
		48.328,20.74 48.292,20.74 48.292,20.751 48.255,20.776 47.355,21.616 47.331,21.616 47.283,21.64 47.199,21.676 47.163,21.711 
		47.115,21.735 47.067,21.735 46.971,21.748 46.923,21.748 46.875,21.748 46.839,21.735 46.779,21.735 46.731,21.711 46.647,21.664 
		46.587,21.616 46.54,21.58 46.503,21.556 46.467,21.52 46.455,21.496 46.359,21.304 46.359,22.527 46.66,22.383 47.139,22.42 
		47.427,22.612 47.523,22.708 47.595,22.924 47.655,23.271 47.367,25.144 47.139,25.6 46.815,26.008 46.54,26.211 46.467,26.271 
		46.359,26.295 46.359,27.591 	"/>
	<polygon fill-rule="evenodd" clip-rule="evenodd" fill="#00705B" points="46.359,56.784 46.371,56.784 46.431,56.868 
		46.563,56.977 46.647,57.096 46.731,57.252 46.779,57.312 46.791,57.396 46.839,57.444 47.391,58.584 47.788,57.517 47.907,57.324 
		48.063,57.096 48.292,56.832 48.423,56.736 48.555,56.651 48.675,56.592 48.843,56.521 48.891,56.508 48.915,56.508 48.915,53.197 
		48.891,53.173 48.543,52.788 48.111,52.488 47.655,52.212 47.175,52.021 46.684,51.865 46.359,51.829 46.359,56.784 46.359,56.784 
			"/>
	<polygon fill-rule="evenodd" clip-rule="evenodd" fill="#00705B" points="46.359,46.861 46.396,46.861 47.104,47.053 
		47.427,47.185 47.595,47.221 47.619,47.269 47.727,47.329 47.872,47.461 47.967,47.533 48.027,47.629 48.087,47.665 48.111,47.713 
		48.135,47.725 48.135,47.785 48.159,47.821 48.159,47.857 48.159,47.893 48.159,47.965 48.159,48.013 48.135,48.049 48.111,48.073 
		48.111,48.109 48.087,48.157 48.027,48.265 47.835,48.433 47.619,48.517 47.331,48.589 47.043,48.589 46.779,48.529 46.527,48.517 
		46.359,48.493 46.359,50.329 46.947,50.22 47.115,50.22 47.355,50.245 47.583,50.281 47.788,50.353 47.979,50.473 48.171,50.581 
		48.915,51.312 48.915,43.093 48.639,43.069 48.603,43.118 48.555,43.178 48.483,43.226 48.447,43.261 48.387,43.298 48.351,43.322 
		48.328,43.322 48.28,43.357 48.255,43.357 48.219,43.357 48.135,43.357 48.111,43.357 48.063,43.322 48.04,43.322 48.003,43.298 
		47.979,43.286 47.919,43.237 47.847,43.202 47.835,43.178 47.835,43.142 47.812,43.093 47.788,43.069 47.775,43.034 47.775,43.01 
		47.751,42.974 47.751,42.938 47.751,42.866 47.751,42.817 47.775,42.782 47.775,42.709 47.775,42.685 47.788,42.649 47.812,42.625 
		47.847,42.59 47.907,42.554 47.919,42.518 47.907,42.481 47.907,42.421 47.907,42.302 47.907,42.241 47.919,42.206 47.919,42.146 
		47.943,42.098 47.967,42.037 48.003,42.002 48.027,41.954 48.087,41.87 48.171,41.81 48.292,41.713 48.411,41.677 48.471,41.677 
		48.519,41.653 48.579,41.653 48.639,41.653 48.663,41.629 48.675,41.558 48.723,41.461 48.807,41.366 48.831,41.306 48.867,41.293 
		48.915,41.27 48.915,40.729 48.915,40.717 48.915,40.693 48.867,40.766 48.831,40.814 48.771,40.85 48.723,40.874 48.711,40.874 
		48.663,40.885 48.615,40.885 48.603,40.885 48.483,40.885 48.447,40.885 48.411,40.874 48.363,40.874 48.328,40.85 48.28,40.85 
		48.231,40.826 48.219,40.814 48.159,40.766 48.135,40.717 48.111,40.693 48.04,40.622 48.027,40.598 48.027,40.574 47.979,40.574 
		47.943,40.562 47.919,40.538 47.847,40.466 47.812,40.43 47.788,40.382 47.788,40.346 47.775,40.31 47.775,40.274 47.751,40.238 
		47.751,40.214 47.751,40.142 47.751,40.082 47.775,40.069 47.775,40.022 47.788,39.986 47.812,39.962 47.872,39.854 47.943,39.77 
		48.003,39.698 48.111,39.638 48.28,39.506 48.471,39.41 48.675,39.35 48.891,39.302 48.915,39.302 48.915,38.642 47.523,37.97 
		47.919,37.25 47.919,37.227 47.943,37.19 47.979,37.13 48.04,37.083 48.111,37.034 48.171,36.998 48.219,36.974 48.231,36.974 
		48.28,36.962 48.387,36.974 48.471,36.962 48.543,36.962 48.675,36.962 48.867,36.974 48.915,36.986 48.915,36.218 48.783,36.062 
		48.771,36.026 48.747,36.002 48.747,35.978 48.723,35.942 48.723,35.906 48.723,35.871 48.723,35.834 48.723,35.786 48.747,35.774 
		48.747,35.75 48.771,35.726 48.771,35.679 48.783,35.654 48.807,35.642 48.843,35.594 48.867,35.583 48.867,35.558 48.867,35.546 
		48.843,35.522 48.843,35.486 48.831,35.474 48.831,35.45 48.831,35.415 48.831,35.366 48.831,35.354 48.843,35.33 48.843,35.294 
		48.843,35.283 48.867,35.259 48.891,35.234 48.891,35.222 48.915,35.222 48.915,35.222 48.915,33.818 48.867,33.818 48.471,33.854 
		48.087,33.95 47.907,34.01 47.644,34.07 46.647,33.651 46.54,33.651 46.359,33.615 46.359,34.611 46.623,34.586 46.971,34.623 
		47.235,34.754 47.751,35.415 47.835,35.642 47.812,35.847 47.727,36.062 47.655,36.194 47.559,36.278 47.355,36.422 47.115,36.506 
		46.875,36.483 46.719,36.47 46.599,36.411 46.503,36.35 46.431,36.278 46.359,36.194 46.359,37.118 46.503,37.154 46.875,37.706 
		46.912,37.838 46.923,37.958 46.912,38.162 46.875,38.282 46.815,38.378 46.731,38.45 46.527,38.57 46.431,38.606 46.359,38.606 
		46.359,39.23 46.396,39.242 46.467,39.278 46.527,39.35 46.623,39.41 46.66,39.506 46.779,39.758 46.779,40.045 46.647,40.37 
		46.431,40.562 46.359,40.586 46.359,41.342 46.371,41.342 47.223,41.461 47.427,41.498 47.559,41.558 47.619,41.629 47.644,41.689 
		47.644,41.845 47.523,42.074 47.283,42.374 47.007,42.614 46.684,42.817 46.359,42.986 46.359,46.861 46.359,46.861 	"/>
	<polygon fill-rule="evenodd" clip-rule="evenodd" fill="#00705B" points="48.915,26.955 49.827,26.679 50.775,26.344 
		51.723,25.947 51.747,25.936 51.747,19.695 51.711,19.695 51.651,19.72 51.615,19.744 51.579,19.756 51.531,19.756 49.671,21.196 
		49.659,21.196 49.635,21.22 49.599,21.244 49.575,21.256 49.539,21.256 49.479,21.28 49.467,21.28 49.383,21.28 49.359,21.28 
		49.323,21.28 49.275,21.256 49.251,21.256 49.215,21.244 49.155,21.196 49.107,21.16 49.059,21.136 49.035,21.124 49.035,21.1 
		48.915,20.956 48.915,22.863 49.155,22.636 49.167,22.612 49.191,22.516 49.227,22.444 49.383,22.276 49.575,22.192 49.791,22.24 
		49.851,22.252 49.935,22.372 50.019,22.479 50.235,24.436 50.174,24.687 50.043,24.976 49.803,25.263 49.575,25.407 49.347,25.467 
		49.227,25.467 49.131,25.407 49.035,25.372 48.975,25.263 48.915,24.735 48.915,26.955 	"/>
	<polygon fill-rule="evenodd" clip-rule="evenodd" fill="#00705B" points="48.915,51.312 49.275,51.661 49.611,51.865 
		50.079,52.057 50.403,52.117 51.255,52.081 51.747,52.033 51.747,42.901 51.579,43.01 51.399,43.166 51.363,43.178 51.339,43.178 
		51.303,43.202 51.255,43.202 51.207,43.226 51.195,43.226 51.111,43.226 51.063,43.226 51.039,43.202 51.003,43.202 50.966,43.178 
		50.943,43.178 50.907,43.166 50.871,43.142 50.811,43.058 50.787,43.034 50.787,42.998 50.775,42.974 50.75,42.95 50.75,42.901 
		50.726,42.877 50.726,42.866 50.715,42.805 50.715,42.685 50.715,42.649 50.726,42.625 50.679,42.518 50.655,42.374 50.655,42.229 
		50.679,42.074 50.726,41.941 50.787,41.81 50.871,41.677 50.979,41.57 51.063,41.461 51.135,41.438 51.268,41.377 51.399,41.342 
		51.46,41.306 51.556,41.342 51.615,41.342 51.651,41.366 51.723,41.377 51.747,41.366 51.747,40.526 51.268,40.633 50.523,40.142 
		50.846,39.446 50.943,39.278 51.039,39.182 51.171,39.074 51.303,38.99 51.447,38.93 51.591,38.882 51.747,38.858 51.747,38.558 
		50.979,38.342 50.907,38.282 50.811,38.246 50.775,38.222 50.75,38.186 50.715,38.162 50.679,38.114 50.62,38.03 50.595,37.994 
		50.595,37.958 50.583,37.898 50.559,37.861 50.559,37.826 50.559,37.706 50.559,37.669 50.583,37.634 50.583,37.586 50.595,37.55 
		50.62,37.502 50.655,37.418 50.679,37.382 50.75,37.346 50.834,37.274 50.918,37.227 50.966,37.214 51.003,37.214 51.039,37.19 
		51.075,37.19 51.195,37.19 51.268,37.19 51.388,37.227 51.423,37.25 51.46,37.227 51.52,37.214 51.531,37.166 51.579,37.13 
		51.615,37.083 51.675,37.034 51.711,37.022 51.747,37.022 51.747,36.422 51.711,36.411 51.615,36.362 51.579,36.326 51.52,36.254 
		51.483,36.23 51.483,36.194 51.46,36.17 51.447,36.134 51.447,36.086 51.423,36.062 51.423,36.026 51.423,35.942 51.423,35.906 
		51.447,35.871 51.447,35.834 51.46,35.81 51.46,35.774 51.483,35.726 51.52,35.702 51.579,35.642 51.615,35.594 51.675,35.558 
		51.723,35.546 51.747,35.546 51.747,34.406 49.407,33.818 49.275,33.842 48.915,33.818 48.915,35.222 48.939,35.198 48.975,35.162 
		48.999,35.138 49.035,35.138 49.059,35.102 49.107,35.091 49.131,35.091 49.155,35.091 49.215,35.091 49.227,35.091 49.251,35.102 
		49.275,35.091 49.851,35.283 50.007,35.39 50.174,35.474 50.331,35.594 50.463,35.726 50.583,35.895 50.655,36.062 50.715,36.23 
		50.726,36.422 50.715,36.53 50.655,36.638 50.62,36.698 50.559,36.77 50.499,36.807 50.368,36.866 50.331,36.89 50.271,36.89 
		50.235,36.902 50.174,36.902 50.139,36.902 49.935,36.902 49.767,36.866 49.611,36.831 49.419,36.746 49.287,36.638 49.167,36.506 
		49.155,36.47 48.915,36.218 48.915,36.986 49.059,37.022 49.227,37.094 49.407,37.227 49.551,37.418 49.671,37.574 49.791,37.706 
		49.803,37.838 49.827,37.994 49.827,38.09 49.791,38.21 49.743,38.282 49.707,38.354 49.275,38.822 48.915,38.642 48.915,39.302 
		49.191,39.278 49.347,39.278 49.407,39.337 49.515,39.374 49.611,39.446 49.659,39.47 49.671,39.506 49.707,39.542 49.73,39.578 
		49.73,39.626 49.743,39.662 49.791,39.662 49.707,40.442 49.671,40.466 49.659,40.502 49.659,40.538 49.635,40.574 49.611,40.622 
		49.575,40.682 49.539,40.717 49.467,40.766 49.407,40.814 49.359,40.826 49.347,40.826 49.287,40.874 49.251,40.874 49.191,40.874 
		49.155,40.874 49.107,40.85 49.083,40.85 49.035,40.826 49.059,40.826 49.083,40.826 49.107,40.85 49.107,40.85 49.083,40.85 
		49.035,40.826 48.999,40.79 48.939,40.754 48.915,40.729 48.915,41.27 48.975,41.233 49.023,41.198 49.083,41.174 49.131,41.15 
		49.191,41.15 49.227,41.138 49.287,41.138 49.359,41.138 49.467,41.15 49.599,41.174 49.707,41.233 49.791,41.293 49.863,41.366 
		49.911,41.402 49.911,41.461 49.959,41.498 49.971,41.558 49.971,41.594 49.995,41.653 50.007,41.689 50.007,41.75 50.007,41.821 
		50.007,41.882 50.019,41.882 50.019,41.906 50.043,41.978 50.067,42.122 50.067,42.229 50.043,42.374 50.007,42.518 49.971,42.673 
		49.887,42.805 49.791,42.901 49.611,43.01 49.551,43.069 49.479,43.093 49.443,43.142 48.915,43.093 48.915,51.312 48.915,51.312 	
		"/>
	<polygon fill-rule="evenodd" clip-rule="evenodd" fill="#00705B" points="48.915,56.508 48.963,56.508 49.035,56.508 
		49.107,56.508 49.155,56.521 49.191,56.521 49.227,56.556 49.323,56.592 49.359,56.617 49.827,57.12 49.803,57.084 49.863,56.832 
		49.959,56.316 49.971,55.932 49.935,55.405 49.863,54.985 49.73,54.468 49.479,54.013 49.227,53.569 48.915,53.197 48.915,56.508 
		48.915,56.508 	"/>
	<polygon fill-rule="evenodd" clip-rule="evenodd" fill="#00705B" points="52.504,40.31 52.504,41.09 52.479,41.078 52.443,41.066 
		52.383,41.066 52.336,41.042 52.287,41.042 52.251,41.042 52.215,41.042 52.168,41.066 52.132,41.066 52.083,41.078 52.035,41.078 
		51.999,41.102 51.915,41.174 51.843,41.233 51.783,41.293 51.747,41.366 51.747,40.526 52.323,40.406 52.336,40.382 52.395,40.37 
		52.479,40.31 52.504,40.31 	"/>
	<polygon fill-rule="evenodd" clip-rule="evenodd" fill="#00705B" points="52.504,38.186 52.504,39.11 52.443,39.074 52.383,39.05 
		52.336,39.05 52.287,39.026 52.251,39.026 52.155,39.026 52.107,39.026 52.083,39.014 51.999,38.93 51.915,38.882 51.771,38.858 
		51.747,38.858 51.747,38.558 51.903,38.606 51.915,38.63 51.964,38.63 52.035,38.63 52.083,38.63 52.107,38.606 52.155,38.606 
		52.215,38.57 52.287,38.51 52.323,38.498 52.395,38.414 52.419,38.354 52.479,38.21 52.504,38.186 52.504,38.186 	"/>
	<polygon fill-rule="evenodd" clip-rule="evenodd" fill="#00705B" points="52.504,36.71 52.504,37.502 52.443,37.406 52.359,37.274 
		52.323,37.227 52.227,37.19 52.215,37.154 52.168,37.13 52.107,37.083 52.035,37.034 51.976,37.022 51.964,36.998 51.915,36.998 
		51.843,36.998 51.807,36.998 51.783,37.022 51.747,37.022 51.747,36.422 52.504,36.71 52.504,36.71 	"/>
	<polygon fill-rule="evenodd" clip-rule="evenodd" fill="#00705B" points="51.747,25.936 52.504,25.563 52.504,24.051 
		52.263,24.243 52.251,24.243 52.107,24.232 52.035,24.184 52.035,24.184 51.999,24.124 51.964,23.979 51.831,23.056 51.867,22.408 
		51.915,22.192 52.059,21.903 52.263,21.711 52.443,21.616 52.504,21.616 52.504,20.188 52.359,19.912 52.323,19.912 52.287,19.864 
		52.227,19.804 52.168,19.756 52.083,19.72 52.035,19.695 51.999,19.695 51.964,19.672 51.915,19.672 51.831,19.672 51.783,19.672 
		51.747,19.695 51.747,25.936 51.747,25.936 	"/>
	<polygon fill-rule="evenodd" clip-rule="evenodd" fill="#00705B" points="52.504,34.586 51.747,34.406 51.747,35.546 
		51.771,35.546 51.783,35.522 51.831,35.522 51.843,35.522 51.867,35.486 51.867,35.45 51.903,35.426 51.915,35.415 51.915,35.39 
		51.939,35.366 51.964,35.354 51.999,35.294 52.023,35.283 52.059,35.283 52.083,35.259 52.107,35.259 52.132,35.234 52.168,35.234 
		52.191,35.234 52.251,35.234 52.275,35.234 52.323,35.259 52.336,35.259 52.359,35.283 52.383,35.259 52.504,35.343 52.504,34.586 
		52.504,34.586 	"/>
	<polygon fill-rule="evenodd" clip-rule="evenodd" fill="#00705B" points="51.747,52.033 52.155,51.985 52.504,51.961 
		52.504,42.277 52.455,42.374 52.455,42.481 52.455,42.554 52.455,42.566 52.132,42.685 51.831,42.841 51.747,42.901 51.747,52.033 
		51.747,52.033 	"/>
	<polygon fill-rule="evenodd" clip-rule="evenodd" fill="#00705B" points="52.504,25.563 52.587,25.527 53.439,25.144 
		54.268,24.724 55.047,24.208 55.383,23.956 55.383,22.671 55.346,22.671 55.262,22.671 55.154,22.636 55.07,22.6 55.01,22.576 
		54.963,22.54 54.951,22.479 54.891,22.467 54.879,22.42 54.83,22.348 54.795,22.24 54.77,22.192 54.77,22.156 54.77,22.048 
		54.795,21.94 54.83,21.868 54.879,21.796 54.891,21.748 54.891,21.735 54.891,21.735 54.879,21.664 54.879,21.616 54.855,21.58 
		54.855,21.544 54.855,21.496 54.855,21.448 54.879,21.412 54.879,21.376 54.891,21.328 54.891,21.28 54.926,21.244 54.951,21.196 
		54.986,21.184 55.01,21.136 55.047,21.124 55.143,21.064 55.178,21.052 55.203,21.052 55.238,21.028 55.273,21.028 55.346,21.028 
		55.383,21.028 55.383,19.876 55.371,19.876 55.346,19.912 55.334,19.912 55.262,19.912 55.238,19.912 55.215,19.912 55.203,19.876 
		55.154,19.876 55.143,19.864 55.119,19.864 55.082,19.84 54.795,19.588 54.77,19.612 54.758,19.588 54.723,19.564 54.688,19.552 
		54.662,19.552 54.627,19.552 54.602,19.527 54.566,19.527 54.529,19.527 54.471,19.527 54.459,19.552 54.41,19.552 54.398,19.552 
		54.375,19.564 54.338,19.564 53.32,20.44 53.283,20.44 53.246,20.452 53.211,20.476 53.162,20.5 53.127,20.5 53.078,20.524 
		53.031,20.524 52.959,20.524 52.911,20.524 52.863,20.5 52.827,20.5 52.779,20.476 52.707,20.44 52.635,20.392 52.575,20.332 
		52.552,20.296 52.504,20.188 52.504,21.616 52.611,21.616 52.672,21.616 52.863,21.772 52.971,21.964 53.104,22.24 53.162,22.552 
		53.15,22.996 52.995,23.535 52.779,23.824 52.504,24.051 52.504,25.563 	"/>
	<polygon fill-rule="evenodd" clip-rule="evenodd" fill="#00705B" points="52.504,51.961 52.935,51.925 53.715,51.985 
		54.734,52.104 55.383,52.26 55.383,35.415 55.334,35.39 54.277,35.03 52.504,34.586 52.504,35.343 53.605,36.098 53.57,36.134 
		53.463,36.17 53.379,36.218 53.283,36.278 53.211,36.362 53.15,36.446 53.104,36.554 53.078,36.59 53.078,36.638 53.055,36.746 
		53.055,36.842 53.078,36.902 53.078,36.938 52.504,36.71 52.504,37.502 52.515,37.526 52.552,37.646 52.575,37.802 52.575,37.934 
		52.552,38.079 52.504,38.186 52.504,39.11 52.515,39.11 52.587,39.158 52.635,39.182 52.646,39.218 52.672,39.266 52.72,39.278 
		52.743,39.337 52.767,39.374 52.767,39.41 52.779,39.506 52.827,39.626 52.827,39.734 52.827,39.818 52.803,39.914 52.767,40.022 
		52.743,40.082 52.707,40.142 52.646,40.178 52.587,40.262 52.552,40.298 52.504,40.31 52.504,41.09 52.575,41.138 52.635,41.174 
		52.707,41.233 52.743,41.306 52.779,41.377 52.803,41.425 52.803,41.461 52.827,41.57 52.827,41.629 52.827,41.677 52.803,41.713 
		52.803,41.762 52.779,41.821 52.803,41.821 52.767,41.882 52.72,41.906 52.672,41.954 52.635,42.002 52.611,42.062 52.575,42.098 
		52.552,42.146 52.515,42.241 52.504,42.277 52.504,51.961 52.504,51.961 	"/>
	<polygon fill-rule="evenodd" clip-rule="evenodd" fill="#00705B" points="55.383,23.956 55.791,23.655 56.475,23.067 
		56.475,18.893 56.365,18.952 55.539,19.804 55.527,19.804 55.49,19.816 55.467,19.84 55.455,19.84 55.43,19.864 55.406,19.876 
		55.395,19.876 55.383,19.876 55.383,21.028 55.395,21.028 55.43,21.052 55.455,21.052 55.49,21.064 55.539,21.064 55.562,21.1 
		55.646,21.136 55.717,21.196 55.754,21.256 55.791,21.328 55.814,21.376 55.814,21.412 55.852,21.448 55.852,21.496 55.852,21.58 
		55.852,21.616 55.838,21.664 55.852,21.664 55.852,21.711 55.875,21.748 55.922,21.808 55.959,21.868 55.982,21.928 55.982,21.964 
		56.006,21.988 56.006,22.024 56.006,22.06 56.006,22.132 56.006,22.18 55.982,22.192 55.959,22.24 55.959,22.276 55.945,22.324 
		55.922,22.372 55.852,22.42 55.791,22.516 55.754,22.54 55.73,22.576 55.682,22.6 55.586,22.636 55.539,22.66 55.49,22.66 
		55.455,22.671 55.406,22.671 55.383,22.671 55.383,23.956 	"/>
	<polygon fill-rule="evenodd" clip-rule="evenodd" fill="#00705B" points="55.383,52.26 56.33,52.465 56.475,52.477 56.475,41.114 
		56.449,41.138 56.402,41.138 56.342,41.138 56.295,41.102 56.271,41.102 56.234,41.078 56.211,41.066 56.174,41.066 56.15,41.042 
		56.139,41.006 56.043,40.982 56.006,40.946 55.959,40.874 55.945,40.826 55.945,40.814 55.922,40.79 55.875,40.766 55.852,40.717 
		55.814,40.658 55.777,40.574 55.754,40.538 55.754,40.502 55.73,40.466 55.73,40.43 55.73,40.346 55.73,40.298 55.754,40.262 
		55.754,40.214 55.777,40.178 55.791,40.142 55.838,40.069 55.852,40.022 55.91,40.01 55.922,39.986 56.006,39.914 56.113,39.854 
		56.15,39.83 56.197,39.83 56.295,39.818 56.402,39.818 56.449,39.818 56.475,39.83 56.475,38.714 56.463,38.702 56.426,38.642 
		56.402,38.63 56.402,38.606 56.402,38.57 56.389,38.546 56.389,38.498 56.389,38.45 56.389,38.414 56.402,38.402 56.365,38.306 
		56.365,38.27 56.389,38.222 56.402,38.186 56.463,38.09 56.475,38.079 56.475,35.834 56.33,35.774 55.383,35.415 55.383,52.26 
		55.383,52.26 	"/>
	<polygon fill-rule="evenodd" clip-rule="evenodd" fill="#00705B" points="56.475,23.067 56.486,23.056 57.17,22.408 57.783,21.711 
		58.346,20.968 58.381,20.896 58.381,18.628 58.381,18.628 58.273,18.724 58.154,18.784 57.998,18.82 57.867,18.844 57.723,18.844 
		57.59,18.82 57.518,18.808 57.482,18.784 57.135,18.724 57.088,18.748 57.004,18.748 56.811,18.76 56.643,18.82 56.486,18.893 
		56.475,18.893 56.475,23.067 	"/>
	<polygon fill-rule="evenodd" clip-rule="evenodd" fill="#00705B" points="56.475,52.477 57.59,52.572 58.381,52.549 58.381,45.781 
		58.334,45.746 58.094,45.553 57.961,45.409 57.83,45.217 57.77,45.097 57.77,45.061 57.457,44.257 57.291,43.861 57.266,43.778 
		57.266,43.562 57.326,43.357 57.363,43.142 57.457,42.95 57.578,42.782 57.723,42.625 57.975,42.458 58.082,42.433 58.154,42.433 
		58.189,42.433 58.227,42.458 58.273,42.458 58.287,42.458 58.322,42.481 58.334,42.494 58.357,42.494 58.381,42.566 58.381,42.578 
		58.381,36.663 58.273,36.614 57.291,36.17 56.475,35.834 56.475,38.079 56.523,38.03 56.582,37.994 56.654,37.958 56.715,37.898 
		57.266,37.574 57.326,37.586 57.338,37.586 57.398,37.586 57.422,37.586 57.447,37.61 57.482,37.61 57.518,37.61 57.529,37.634 
		57.553,37.646 57.578,37.669 57.59,37.669 57.613,37.693 57.639,37.706 57.709,37.802 57.783,37.898 57.83,38.018 57.867,38.114 
		57.889,38.246 57.889,38.354 57.889,38.498 57.842,38.642 57.783,38.798 57.746,38.858 57.709,38.882 57.674,38.894 57.65,38.894 
		57.613,38.93 57.59,38.93 57.578,38.954 56.678,38.834 56.725,38.858 56.678,38.858 56.654,38.834 56.643,38.834 56.594,38.822 
		56.582,38.822 56.559,38.798 56.523,38.762 56.475,38.714 56.475,39.83 56.533,39.854 56.559,39.877 56.643,39.914 56.654,39.95 
		56.715,39.95 56.75,39.962 56.785,39.962 56.834,39.962 56.846,39.962 56.895,39.986 56.943,39.986 56.967,40.01 57.004,40.01 
		57.027,40.022 57.062,40.045 57.109,40.082 57.146,40.154 57.195,40.214 57.205,40.238 57.205,40.274 57.23,40.31 57.23,40.346 
		57.23,40.37 57.23,40.442 57.23,40.466 57.205,40.502 57.205,40.562 57.195,40.574 57.195,40.622 57.17,40.633 57.146,40.658 
		57.135,40.693 57.088,40.717 57.027,40.766 56.967,40.814 56.918,40.826 56.895,40.826 56.846,40.85 56.834,40.85 56.834,40.85 
		56.773,40.91 56.75,40.958 56.678,41.006 56.619,41.066 56.582,41.078 56.533,41.078 56.486,41.102 56.475,41.114 56.475,52.477 
		56.475,52.477 	"/>
	<polygon fill-rule="evenodd" clip-rule="evenodd" fill="#00705B" points="58.381,20.896 58.838,20.188 59.281,19.384 
		59.689,18.532 59.859,18.148 59.834,18.136 59.834,18.088 59.834,18.04 59.822,18.004 59.822,17.956 59.799,17.944 59.762,17.873 
		59.715,17.812 59.666,17.752 59.605,17.704 59.57,17.692 59.533,17.656 59.475,17.656 59.438,17.632 59.402,17.632 59.318,17.632 
		59.27,17.632 59.223,17.656 59.186,17.692 59.148,17.692 59.125,17.704 59.029,17.752 58.971,17.788 58.574,18.46 58.525,18.497 
		58.479,18.556 58.381,18.628 58.381,20.896 	"/>
	<polygon fill-rule="evenodd" clip-rule="evenodd" fill="#00705B" points="58.381,52.549 58.635,52.549 59.643,52.488 
		60.686,52.369 61.705,52.212 62.869,51.961 67.395,50.917 67.404,50.917 67.43,50.892 67.465,50.856 67.488,50.833 67.514,50.772 
		67.537,50.749 67.537,50.749 67.537,50.725 67.537,50.725 67.561,50.701 67.561,50.677 67.561,50.665 67.537,50.641 67.537,50.629 
		67.514,50.605 67.514,50.581 67.488,50.544 67.262,50.413 65.666,50.125 65.412,50.089 65.076,49.993 64.74,49.837 64.441,49.633 
		64.166,49.405 64.094,49.333 64.059,49.237 64.033,49.069 64.033,49.045 64.033,48.985 64.059,48.949 64.154,48.829 64.609,48.517 
		64.766,48.457 64.969,48.409 65.018,48.409 67.598,49.321 67.598,46.177 67.395,46.082 66.469,45.661 66.373,45.661 66.074,45.577 
		65.762,45.529 65.438,45.529 65.27,45.553 65.053,45.601 64.957,45.481 64.705,45.085 64.574,44.893 64.381,44.617 64.453,44.582 
		64.801,44.449 65.148,44.354 65.496,44.293 65.857,44.293 66.205,44.366 66.541,44.473 66.686,44.509 67.598,44.93 67.598,41.857 
		67.514,41.87 66.758,42.014 66.014,42.241 65.281,42.554 64.586,42.901 62.965,43.813 62.678,43.946 62.33,44.042 61.969,44.102 
		61.465,44.125 61.117,44.089 60.793,44.005 60.469,43.861 60.086,43.609 59.822,43.298 59.57,42.974 59.379,42.614 59.246,42.206 
		59.162,41.81 59.162,41.15 59.27,40.658 59.438,40.154 59.666,39.698 59.965,39.266 60.301,38.882 60.686,38.51 60.889,38.378 
		61.047,38.246 61.117,38.306 61.369,38.498 61.598,38.738 61.814,38.99 61.969,39.266 62.041,39.41 62.078,39.506 62.006,39.542 
		61.561,39.698 61.262,39.854 61.01,40.022 60.758,40.262 60.566,40.502 60.398,40.79 60.266,41.066 60.207,41.306 60.158,41.618 
		60.158,41.786 60.182,41.954 60.266,42.182 60.301,42.241 60.338,42.302 60.398,42.374 60.469,42.481 60.66,42.625 60.83,42.685 
		61.154,42.757 61.525,42.746 61.873,42.649 62.234,42.518 62.559,42.361 62.701,42.265 64.934,40.717 65.27,40.502 65.738,40.298 
		66.205,40.142 66.686,40.045 67.201,39.986 67.561,39.962 67.598,39.962 67.598,37.395 66.793,37.31 66.648,37.25 66.494,37.19 
		66.373,37.13 66.277,37.022 66.205,36.902 66.182,36.782 66.205,36.65 66.264,36.47 66.434,36.291 66.686,36.134 67.598,35.847 
		67.598,34.623 67.598,34.623 67.238,34.623 66.877,34.659 66.529,34.778 66.182,34.898 65.93,35.03 64.861,35.906 64.586,36.062 
		64.311,36.17 63.998,36.23 63.697,36.254 62.641,36.134 62.365,36.134 62.006,36.17 61.658,36.254 60.277,36.842 60.123,36.902 
		59.881,36.974 59.629,37.022 59.379,37.022 59.148,36.974 58.934,36.902 58.381,36.663 58.381,42.578 58.395,42.59 58.441,42.625 
		58.453,42.673 58.479,42.673 58.479,42.805 58.525,43.034 58.635,43.477 58.803,43.897 59.029,44.317 59.318,44.677 59.463,45.085 
		59.498,45.277 59.498,45.409 59.463,45.553 59.463,45.577 59.438,45.613 59.379,45.697 59.354,45.746 59.318,45.77 59.223,45.829 
		59.148,45.865 59.09,45.889 59.055,45.889 58.959,45.914 58.861,45.914 58.766,45.889 58.609,45.865 58.453,45.829 58.381,45.781 
		58.381,52.549 58.381,52.549 	"/>
	<polygon fill-rule="evenodd" clip-rule="evenodd" fill="#00705B" points="67.598,39.962 67.908,39.986 68.256,40.069 
		68.592,40.178 68.904,40.346 69.193,40.562 69.445,40.814 69.674,41.078 69.84,41.402 69.973,41.629 70.838,41.342 70.838,41.306 
		70.824,41.198 70.824,41.078 70.838,41.018 70.838,40.958 70.861,40.91 70.885,40.85 70.922,40.814 70.955,40.754 70.992,40.693 
		71.076,40.574 71.16,40.502 71.244,40.442 71.352,40.406 71.461,40.382 71.568,40.382 71.664,40.406 71.771,40.43 71.855,40.466 
		71.965,40.538 72.023,40.598 72.084,40.682 72.156,40.766 72.205,40.814 72.205,40.79 72.24,40.682 72.275,40.574 72.324,40.49 
		72.408,40.406 72.434,40.382 72.469,40.346 72.541,40.31 72.588,40.274 72.625,40.262 72.66,40.238 72.721,40.238 72.779,40.214 
		72.84,40.214 72.947,40.214 73.045,40.238 73.152,40.274 73.201,40.274 73.789,40.682 73.775,40.633 73.775,40.598 73.789,40.466 
		73.812,40.346 73.836,40.274 73.848,40.214 73.896,40.178 73.908,40.106 73.969,40.069 74.041,39.962 74.148,39.877 74.256,39.818 
		74.365,39.77 74.424,39.77 74.461,39.758 74.52,39.758 74.652,39.758 74.773,39.77 74.891,39.818 75,39.877 75.084,39.95 
		75.168,40.022 75.229,40.142 75.287,40.238 75.311,40.298 75.311,40.37 75.324,40.406 75.359,40.466 75.695,39.854 75.695,39.854 
		75.707,39.83 75.732,39.818 75.732,39.794 75.768,39.794 75.779,39.77 75.805,39.77 75.828,39.758 75.865,39.758 75.961,39.758 
		76.02,39.758 76.08,39.77 76.188,39.877 76.355,40.069 76.5,40.298 76.633,40.538 76.668,40.658 76.705,40.754 77.016,39.734 
		77.016,39.698 77.027,39.662 77.053,39.626 77.053,39.602 77.076,39.566 77.111,39.542 77.137,39.494 77.16,39.47 77.184,39.446 
		77.209,39.446 77.221,39.434 77.244,39.41 77.27,39.41 77.279,39.41 77.305,39.386 77.328,39.386 77.4,39.386 77.412,39.386 
		77.436,39.386 77.461,39.41 77.473,39.41 77.496,39.41 77.52,39.434 77.531,39.434 77.592,39.434 78.527,40.442 78.721,38.966 
		78.721,38.966 78.721,38.954 78.721,38.93 78.721,38.93 78.721,38.894 78.721,38.882 78.721,38.882 78.756,38.858 78.756,38.858 
		78.756,38.834 78.756,38.822 78.779,38.822 78.793,38.798 78.793,38.774 78.816,38.774 78.84,38.774 78.852,38.762 78.875,38.762 
		78.912,38.762 78.961,38.762 78.984,38.762 79.008,38.774 79.02,38.774 79.045,38.774 79.045,38.798 79.068,38.798 79.08,38.822 
		79.129,38.822 80.039,39.734 80.195,38.45 80.195,38.45 80.207,38.438 80.232,38.39 80.232,38.39 80.256,38.378 80.291,38.342 
		80.316,38.306 80.328,38.306 80.365,38.282 80.389,38.282 80.4,38.27 80.447,38.27 80.484,38.27 80.52,38.27 80.58,38.27 
		80.592,38.282 80.615,38.282 80.639,38.306 80.652,38.306 80.676,38.342 80.711,38.342 81.779,38.666 81.541,37.886 81.541,37.861 
		81.516,37.826 81.516,37.766 81.516,37.669 81.516,37.61 81.541,37.574 81.588,37.454 81.637,37.382 81.695,37.286 81.768,37.227 
		81.84,37.19 81.924,37.154 81.973,37.13 82.031,37.13 82.08,37.094 82.115,37.094 82.164,37.094 82.225,37.094 82.271,37.13 
		82.309,37.13 82.344,37.154 82.463,37.19 82.512,37.25 82.607,37.31 82.645,37.382 82.705,37.442 83.184,37.994 83.436,37.166 
		83.436,37.166 83.459,37.154 83.459,37.154 83.459,37.13 83.459,37.094 83.471,37.094 83.471,37.083 83.494,37.083 83.494,37.083 
		83.52,37.059 83.52,37.059 83.568,37.034 83.568,37.034 83.604,37.034 83.627,37.034 83.65,37.034 83.662,37.034 83.662,37.059 
		83.688,37.059 83.699,37.059 83.699,37.083 83.723,37.083 83.723,37.094 83.746,37.094 83.746,37.13 83.771,37.13 83.771,37.154 
		83.771,37.166 84.023,37.406 84.023,37.406 84.047,37.418 84.07,37.442 84.084,37.442 84.107,37.454 84.131,37.478 84.143,37.478 
		84.18,37.478 84.203,37.502 84.215,37.526 84.264,37.502 84.275,37.502 84.324,37.478 84.371,37.478 84.395,37.454 84.455,37.418 
		84.516,37.358 84.562,37.31 84.588,37.274 84.588,37.227 84.6,37.214 84.6,37.166 84.623,37.13 84.623,37.094 84.646,37.034 
		84.684,36.422 85.703,36.17 85.703,36.158 85.715,36.134 85.787,36.062 85.811,36.038 85.836,36.002 85.871,35.978 85.871,35.871 
		85.871,35.702 85.787,35.45 85.547,35.138 85.26,34.851 84.936,34.623 84.455,34.395 83.986,34.238 83.494,34.178 83.016,34.166 
		82.775,34.178 82.402,34.203 74.424,35.942 74.365,35.942 74.172,35.942 73.969,35.895 73.812,35.871 72.049,36.506 71.893,36.53 
		71.725,36.53 71.568,36.483 71.436,36.422 71.4,36.422 71.352,36.411 71.305,36.411 71.27,36.386 71.221,36.362 71.209,36.326 
		71.16,36.291 71.148,36.254 71.09,36.23 71.076,36.194 71.053,36.134 71.029,36.086 71.029,36.038 71.016,36.002 71.016,35.966 
		71.016,35.847 71.016,35.81 71.029,35.774 71.029,35.726 71.053,35.679 71.09,35.594 71.148,35.546 71.209,35.474 71.281,35.415 
		71.375,35.366 71.412,35.354 71.461,35.354 71.496,35.33 71.545,35.33 71.629,35.33 71.664,35.33 71.701,35.354 71.771,35.33 
		72.373,35.259 72.541,35.198 72.648,35.091 72.66,35.03 72.686,34.982 72.66,34.898 72.648,34.838 72.588,34.778 72.408,34.683 
		72.205,34.646 71.916,34.599 71.629,34.599 69.648,34.982 69.289,34.982 68.965,34.946 67.873,34.646 67.775,34.659 67.598,34.623 
		67.598,35.847 67.908,35.75 68.172,35.726 68.461,35.774 68.592,35.834 68.676,35.966 69.023,36.89 68.941,37.059 68.75,37.25 
		68.51,37.346 68.365,37.406 68.148,37.406 67.896,37.418 67.598,37.395 67.598,39.962 	"/>
	<polygon fill-rule="evenodd" clip-rule="evenodd" fill="#00705B" points="67.598,44.93 67.598,41.857 68.27,41.786 68.484,41.75 
		68.389,41.941 68.209,42.302 68.064,42.746 68.004,43.178 67.98,43.621 68.018,44.042 68.139,44.485 68.27,44.893 68.484,45.277 
		68.533,45.361 67.598,44.93 67.598,44.93 	"/>
	<polygon fill-rule="evenodd" clip-rule="evenodd" fill="#00705B" points="67.598,49.321 68.209,49.525 68.895,49.741 
		69.938,49.993 70.969,50.22 72.023,50.437 73.08,50.581 74.148,50.701 74.965,50.772 78.588,51.108 79.213,51.192 80.076,51.241 
		80.963,51.217 81.828,51.108 82.607,51.024 83.207,50.892 83.746,50.701 84.299,50.437 84.814,50.112 85.02,49.944 86.002,49.069 
		86.002,49.045 86.039,49.009 86.076,48.913 86.123,48.817 86.135,48.769 86.195,48.709 86.195,48.649 86.195,48.529 86.195,48.493 
		86.172,48.457 86.135,48.397 86.135,48.349 86.123,48.301 86.062,48.265 85.932,48.109 85.787,47.989 85.643,47.857 84.371,47.161 
		83.83,47.833 83.795,47.833 83.639,47.833 83.494,47.797 83.34,47.76 83.207,47.665 83.076,47.593 82.967,47.473 82.883,47.353 
		82.836,47.269 82.883,46.441 82.631,46.717 82.57,46.766 82.475,46.801 82.439,46.825 82.402,46.849 82.344,46.849 82.248,46.861 
		82.188,46.861 82.164,46.861 82.115,46.861 82.09,46.849 82.031,46.849 81.996,46.825 81.9,46.729 81.863,46.669 81.84,46.633 
		81.805,46.597 81.805,46.549 81.779,46.477 81.768,46.441 81.768,46.405 81.768,46.356 81.768,46.309 81.611,46.381 81.504,46.441 
		81.359,46.477 81.264,46.477 81.168,46.477 81.096,46.465 81.061,46.441 81.023,46.441 80.963,46.405 80.867,46.356 80.783,46.273 
		80.699,46.189 80.639,46.033 80.592,45.914 80.58,45.77 80.58,45.673 80.135,45.997 80.123,46.021 80.039,46.033 79.932,46.033 
		79.895,46.058 79.848,46.058 79.775,46.058 79.656,46.021 79.561,45.973 79.451,45.914 79.367,45.829 79.32,45.793 79.295,45.697 
		79.105,45.289 78.467,45.553 78.432,45.553 78.396,45.553 78.336,45.553 78.324,45.553 78.275,45.529 78.264,45.505 78.24,45.481 
		78.205,45.481 78.18,45.445 78.131,45.409 78.107,45.385 78.084,45.35 78.084,45.313 78.07,45.277 78.07,45.253 78.047,45.217 
		78.047,45.193 78.047,45.121 78.047,45.037 77.953,44.161 76.992,44.941 76.969,44.941 76.836,44.941 76.801,44.941 76.775,44.941 
		76.764,44.917 76.729,44.917 76.705,44.917 76.705,44.893 76.691,44.893 76.691,44.893 76.668,44.869 76.668,44.869 76.645,44.857 
		76.645,44.857 76.633,44.833 76.633,44.833 76.633,44.809 76.607,44.809 76.607,44.797 76.607,44.773 76.607,44.773 76.607,44.75 
		76.607,44.75 76.607,44.725 76.633,43.417 75.637,44.366 75.576,44.413 75.516,44.425 75.48,44.449 75.42,44.449 75.385,44.449 
		75.287,44.473 75.252,44.473 75.217,44.473 75.193,44.473 75.168,44.449 75.156,44.449 75.096,44.413 75.035,44.354 75,44.293 
		74.965,44.233 74.928,44.221 74.904,44.174 74.904,44.125 74.891,44.102 74.891,44.065 74.891,44.042 74.832,44.065 74.508,44.125 
		74.172,44.161 73.775,44.089 73.428,43.994 73.105,43.837 72.816,43.645 72.564,43.417 72.324,43.166 72.145,42.866 72.014,42.554 
		71.76,42.062 71.496,41.81 71.305,41.75 71.221,41.75 71.16,41.786 71.148,41.821 71.076,42.002 71.076,42.062 71.053,42.098 
		71.053,42.182 71.113,42.494 71.221,42.901 71.4,43.286 71.605,43.645 71.879,43.97 72.18,44.233 72.516,44.485 72.877,44.677 
		73.068,44.773 73.26,44.833 81.516,47.461 81.576,47.473 81.828,47.593 82.055,47.725 82.271,47.893 82.463,48.085 82.607,48.325 
		82.668,48.397 82.645,48.433 82.668,48.469 82.668,48.517 82.691,48.625 82.691,48.661 82.691,48.721 82.691,48.757 82.668,48.769 
		82.668,48.817 82.631,48.853 82.535,48.949 82.309,49.045 81.973,49.128 81.672,49.128 81.385,49.069 81.084,48.985 80.83,48.829 
		80.58,48.661 80.365,48.457 80.256,48.325 80.195,48.277 80.135,48.301 80.029,48.373 79.895,48.409 79.703,48.457 79.584,48.457 
		79.451,48.433 79.32,48.409 79.199,48.349 79.08,48.277 78.984,48.205 78.936,48.133 78.887,48.085 78.875,48.025 78.84,47.989 
		78.816,47.917 78.779,47.797 78.756,47.725 78.756,47.689 78.709,47.713 78.527,47.785 78.336,47.833 78.18,47.881 78.012,47.881 
		77.832,47.857 77.688,47.821 77.531,47.76 77.4,47.653 77.27,47.533 77.16,47.413 77.111,47.353 77.076,47.245 77.027,47.281 
		76.92,47.401 76.801,47.497 76.729,47.569 76.633,47.605 76.465,47.665 76.309,47.713 76.164,47.713 75.996,47.689 75.84,47.653 
		75.695,47.593 75.553,47.497 75.445,47.401 75.324,47.269 75.252,47.149 75.193,46.993 75.168,46.885 75.096,46.897 74.869,47.017 
		74.641,47.089 74.389,47.149 74.148,47.149 73.945,47.113 73.705,47.053 73.488,46.969 73.297,46.849 73.141,46.693 72.961,46.525 
		72.854,46.309 72.756,46.093 72.709,45.997 72.625,46.058 72.264,46.309 71.879,46.525 71.209,46.693 70.514,46.766 69.828,46.729 
		69.156,46.657 68.461,46.501 67.812,46.273 67.598,46.177 67.598,49.321 67.598,49.321 	"/>
</g>
</svg>
