<?xml version="1.0" encoding="utf-8"?>
<!-- Generator: Adobe Illustrator 16.0.0, SVG Export Plug-In . SVG Version: 6.00 Build 0)  -->
<!DOCTYPE svg PUBLIC "-//W3C//DTD SVG 1.1//EN" "http://www.w3.org/Graphics/SVG/1.1/DTD/svg11.dtd">
<svg version="1.1" id="Layer_1" xmlns="http://www.w3.org/2000/svg" xmlns:xlink="http://www.w3.org/1999/xlink" x="0px" y="0px"
	 width="100px" height="100px" viewBox="0 0 100 100" enable-background="new 0 0 100 100" xml:space="preserve">
<circle fill="#EC1C24" cx="50" cy="50" r="50"/>
<polygon fill="#FFFFFF" points="92.874,27.876 92.874,70.59 6.879,70.59 6.875,27.876 "/>
<path fill="#FFF100" d="M6.879,27.876V70.59h85.995V27.876H6.879L6.879,27.876z M87.866,41.893
	c-0.133,2.667-0.938,6.004-1.735,8.271c-3.07,9.072-6.538,14.677-14.812,14.677c-2.4,0-6.669-0.667-8.271-4.938l-0.401-0.935
	l-0.667,0.802c-2.533,3.203-6.271,5.07-10.405,5.202c-3.069,0-5.603-1.066-7.205-3.069l-0.534-0.532l-0.4,0.532
	c-1.735,1.869-4.804,2.937-8.272,2.937c-2.802,0-5.203-0.935-6.804-2.669l-0.4-0.4l-0.534,0.4c-1.734,1.734-4.402,2.669-7.872,2.669
	c-4.27-0.134-6.804-2.534-6.938-6.405c-0.133-5.869,5.604-18.278,8.005-22.147c1.468-2.535,3.603-3.735,6.404-3.735
	c2.001,0,3.335,0.399,4.136,1.201c0.667,0.801,0.8,1.468,0.8,2.935l0.134,2.001l1.066-1.734c2.535-4.004,6.671-4.537,10.807-4.537
	c2.801,0,5.337,1.068,6.403,2.668l0.401,0.534l0.534-0.4c2.001-1.868,5.07-2.802,8.405-2.802c3.604,0,6.271,0.934,7.872,2.668
	c0.267,0.4,0.533,0.667,0.934,1.334l0.4,0.934l0.534-0.8c2.268-2.668,5.47-4.136,9.337-4.136c3.072,0,5.471,0.934,7.072,2.535
	C87.733,36.956,87.999,39.758,87.866,41.893L87.866,41.893z"/>
<path fill="#EC1C24" d="M5.375,70.75l89.21,1.117l-0.751-45.034L7,25.875L5.375,70.75z M90.401,45.229
	c-0.4,3.069-2.534,8.938-3.736,11.341c-3.067,6.271-7.072,11.072-14.942,11.072c-4.136,0-7.603-1.333-9.606-3.868
	c-2.936,2.535-6.67,3.868-10.541,3.868c-3.069,0-5.737-0.801-7.738-2.534c-2.268,1.601-5.337,2.534-8.672,2.534
	c-2.803,0-5.337-0.801-7.338-2.268c-2.135,1.467-5.07,2.268-8.406,2.136c-5.604-0.134-9.472-3.604-9.605-8.808
	c-0.134-6.938,5.604-19.479,8.405-23.748c2.002-3.336,5.071-5.204,8.94-5.204c4.136,0,5.604,1.202,6.403,2.669
	c3.204-2.669,7.339-2.802,10.407-2.802c3.336,0,5.337,0.8,7.204,2.268c2.402-1.467,5.204-2.268,8.539-2.268
	c4.27,0,7.473,1.067,9.74,3.201c2.535-2.135,5.738-3.068,9.474-3.068c4.802,0,7.869,1.735,9.739,4.27
	C91.335,37.622,90.802,41.358,90.401,45.229L90.401,45.229z"/>
<path fill="#231F20" d="M78.792,31.886c-4.534,0-7.604,1.734-9.738,4.27c-0.4-0.667-0.667-1.067-1.067-1.468
	c-1.733-2.001-4.535-2.935-8.271-2.935s-6.673,1.2-8.805,2.935c-1.203-1.735-3.737-2.935-6.939-2.935
	c-4.135,0-8.671,0.533-11.34,4.936c-0.133-1.601-0.268-2.402-1.067-3.335c-1.067-1.068-2.802-1.468-4.537-1.468
	c-2.935,0-5.336,1.334-6.938,4.136c-2.402,3.736-8.139,16.409-8.005,22.413c0,4.004,2.668,6.806,7.338,6.939
	c3.736,0.134,6.671-0.933,8.539-2.801c1.601,1.868,4.136,2.935,7.205,2.935c3.335,0,6.671-1.066,8.672-3.202
	c1.735,2.001,4.402,3.202,7.738,3.202c4.535,0,8.405-2.137,10.94-5.338c1.335,3.736,4.937,5.338,8.804,5.338
	c8.542,0,12.278-5.872,15.345-15.077c0.802-2.135,1.733-5.604,1.867-8.539C88.799,37.089,86.665,31.886,78.792,31.886L78.792,31.886
	z M22.223,55.102c4.403-0.666,5.47,0.801,5.337,2.4c-0.399,4.402-4.403,5.337-8.004,5.203c-2.535,0-4.804-1.202-4.804-4.136
	c-0.132-5.202,5.07-17.211,7.606-21.08c1.199-1.868,2.534-2.802,4.803-2.802c2.134,0,2.667,1.067,2.535,2.268
	C29.695,40.424,24.091,50.965,22.223,55.102L22.223,55.102z M36.5,51.097c-0.268,0.802-0.801,2.402-1.201,4.138
	c1.468-0.269,2.534-0.533,4.402-0.533c2,0,3.468,0.934,3.468,2.668c0,4.269-4.803,5.471-8.004,5.471
	c-3.603,0-6.671-2.001-6.671-5.872c0-4.669,2.402-11.607,4.803-16.144c2.801-5.736,5.736-6.538,10.806-6.538
	c2.136,0,4.803,1.068,4.803,3.069c0,2.936-2.536,4.003-4.937,4.136c-1.067,0.133-2.667,0.133-3.602,0.133
	c0,0-0.801,1.201-1.602,3.336c4.402-0.534,6.405,0.399,5.604,3.069C43.303,51.498,40.235,51.765,36.5,51.097L36.5,51.097z
	 M58.646,40.157c-1.201,0-2,0.801-2.536,1.601c-1.332,1.868-4.135,9.206-4.535,12.142c-0.401,2.136,0.534,2.535,1.467,2.535
	c1.603,0,3.336-1.734,4.005-4.403c0,0-3.071-0.133-2.269-2.669c0.8-2.667,2.401-3.202,4.937-3.335
	c4.938-0.133,4.404,3.469,4.003,5.469c-1.336,6.271-5.736,11.342-12.142,11.342c-4.402,0-7.071-2.402-7.071-6.805
	c0-3.202,1.601-8.139,2.802-11.073c2.669-6.138,5.469-10.54,12.541-10.54c4.272,0,7.604,1.6,7.072,5.604
	c-0.401,2.935-1.867,4.536-4.402,4.802c-0.801,0-3.869,0-2.803-2.935C59.981,40.958,60.247,40.157,58.646,40.157L58.646,40.157z
	 M85.464,45.361c-0.801,3.736-2.535,8.138-4.269,11.34c-3.069,5.47-6.671,6.138-9.74,6.138c-3.202,0-6.805-1.202-6.805-6.138
	c0-3.469,1.468-8.405,2.802-11.607c2.27-5.871,4.536-10.673,11.74-10.54C87.598,34.554,86.133,42.159,85.464,45.361L85.464,45.361z
	 M79.461,41.625c-0.134,2.268-3.468,11.34-4.538,13.21c-0.532,0.933-1.2,1.6-2.134,1.6c-0.936,0-1.335-0.667-1.335-1.334
	c-0.135-2.003,3.602-12.142,4.938-13.876c0.532-0.8,1.197-0.933,1.866-0.933C79.327,40.292,79.461,41.091,79.461,41.625
	L79.461,41.625z"/>
</svg>
