<?xml version="1.0" encoding="utf-8"?>
<!-- Generator: Adobe Illustrator 16.0.0, SVG Export Plug-In . SVG Version: 6.00 Build 0)  -->
<!DOCTYPE svg PUBLIC "-//W3C//DTD SVG 1.1//EN" "http://www.w3.org/Graphics/SVG/1.1/DTD/svg11.dtd">
<svg version="1.1" id="Layer_1" xmlns="http://www.w3.org/2000/svg" xmlns:xlink="http://www.w3.org/1999/xlink" x="0px" y="0px"
	 width="100px" height="100px" viewBox="0 0 100 100" enable-background="new 0 0 100 100" xml:space="preserve">
<circle fill="#EC202A" cx="50" cy="50" r="50"/>
<g>
	<path fill="#EC1D24" d="M9.875,68.058c0-11.06,0-22.119-0.004-33.179c0-0.155,0.035-0.19,0.19-0.19
		c27.542,0.004,55.084,0.004,82.626,0c0.156,0,0.191,0.035,0.19,0.19c-0.004,11.06-0.003,22.12-0.003,33.179
		C65.208,68.058,37.542,68.058,9.875,68.058z M17.504,52.143c0.012-0.003,0.025-0.006,0.038-0.009c0.12,0.706,0.24,1.412,0.36,2.119
		c0.354,2.076,0.709,4.152,1.062,6.229c0.268,1.572,0.539,3.144,0.798,4.718c0.029,0.179,0.099,0.213,0.265,0.211
		c0.753-0.01,1.508-0.009,2.261-0.001c0.162,0.002,0.221-0.037,0.249-0.206c0.306-1.861,0.622-3.72,0.935-5.579
		c0.338-2.016,0.675-4.032,1.014-6.049c0.084-0.501,0.171-1.003,0.257-1.504c0.01,0.001,0.02,0.003,0.029,0.004
		c0,0.104,0,0.207,0,0.311c0,4.261,0.002,8.521-0.005,12.781c0,0.206,0.055,0.244,0.25,0.243c3.091-0.006,6.183-0.004,9.275-0.004
		c0.027,0,0.056-0.005,0.083,0c0.14,0.026,0.174-0.049,0.191-0.171c0.178-1.328,0.364-2.656,0.539-3.984
		c0.019-0.14,0.074-0.164,0.198-0.163c1.197,0.004,2.393,0.004,3.59-0.001c0.131-0.001,0.18,0.038,0.197,0.167
		c0.176,1.314,0.362,2.628,0.532,3.944c0.022,0.168,0.072,0.211,0.237,0.211c3.05-0.003,6.101-0.002,9.15,0.007
		c0.211,0.001,0.257-0.053,0.256-0.259c-0.007-2.877-0.003-5.755-0.01-8.632c0-0.192,0.061-0.246,0.239-0.259
		c0.233-0.017,0.47-0.044,0.697-0.101c0.207-0.052,0.266,0.02,0.315,0.212c0.766,2.945,1.542,5.889,2.307,8.834
		c0.042,0.162,0.104,0.203,0.263,0.202c1.508-0.005,3.016-0.003,4.523-0.003c0.241,0,0.241-0.001,0.174-0.231
		c-1.022-3.482-2.044-6.966-3.07-10.447c-0.042-0.142-0.021-0.224,0.098-0.327c1.535-1.325,2.438-3.009,2.8-4.993
		c0.083-0.456,0.1-0.917,0.093-1.38c0.021,0.018,0.028,0.036,0.032,0.054c0.404,2.425,0.808,4.851,1.213,7.275
		c0.551,3.298,1.104,6.595,1.65,9.893c0.023,0.14,0.076,0.178,0.213,0.177c1.854-0.011,3.707-0.02,5.561-0.021
		c0.142,0,0.171-0.059,0.188-0.174c0.071-0.471,0.147-0.941,0.222-1.412c0.283-1.788,0.565-3.575,0.849-5.362
		c0.298-1.877,0.597-3.752,0.894-5.629c0.298-1.876,0.595-3.752,0.892-5.628c0.298-1.883,0.597-3.766,0.896-5.649
		c0.072-0.455,0.146-0.909,0.219-1.363c0.01,0.001,0.02,0.002,0.03,0.003c0,0.09,0,0.179,0,0.269c0,8.237,0,16.475-0.004,24.712
		c0,0.168,0.021,0.234,0.218,0.233c3.05-0.008,6.1-0.007,9.15-0.001c0.166,0,0.205-0.047,0.204-0.208
		c-0.005-1.542-0.006-3.084,0.001-4.627c0.001-0.181-0.061-0.211-0.225-0.21c-1.369,0.007-2.738,0.001-4.108,0.008
		c-0.171,0.001-0.218-0.043-0.218-0.216c0.007-2.006,0.006-4.012,0.001-6.018c-0.001-0.16,0.037-0.208,0.203-0.207
		c1.376,0.007,2.753,0.001,4.129,0.008c0.173,0.001,0.219-0.047,0.218-0.219c-0.007-1.563-0.007-3.126,0-4.689
		c0.001-0.182-0.044-0.229-0.228-0.229c-1.377,0.008-2.753,0.002-4.13,0.008c-0.157,0.001-0.193-0.042-0.192-0.196
		c0.005-1.978,0.006-3.956,0-5.934c-0.001-0.162,0.04-0.208,0.204-0.207c1.377,0.007,2.753,0,4.13,0.008
		c0.176,0,0.216-0.053,0.215-0.221c-0.006-1.549-0.008-3.099,0.002-4.648c0.002-0.215-0.059-0.258-0.264-0.258
		c-4.572,0.006-9.144,0.005-13.716,0.005c-0.034,0-0.069,0.003-0.104,0c-0.111-0.014-0.159,0.031-0.175,0.145
		c-0.206,1.534-0.416,3.067-0.625,4.6c-0.2,1.465-0.401,2.93-0.603,4.395c-0.214,1.568-0.429,3.135-0.644,4.703
		c-0.142,1.036-0.284,2.072-0.429,3.128c-0.053-0.093-0.057-0.176-0.067-0.258c-0.089-0.664-0.177-1.328-0.267-1.992
		c-0.215-1.582-0.432-3.163-0.646-4.745c-0.215-1.582-0.427-3.163-0.642-4.745c-0.214-1.582-0.433-3.163-0.644-4.745
		c-0.064-0.485-0.056-0.486-0.535-0.486c-1.486,0-2.974,0-4.461,0c-0.095,0-0.214-0.043-0.188,0.144
		c0.135,1.014,0.262,2.029,0.39,3.043c0.053,0.415,0.103,0.829,0.154,1.247c-0.03-0.001-0.041,0-0.043-0.002
		c-0.032-0.054-0.062-0.108-0.094-0.162c-1.643-2.799-4.053-4.28-7.333-4.271c-1.556,0.004-3.112,0-4.668,0.001
		c-0.337,0-0.294-0.045-0.294,0.299c-0.009,8.03-0.017,16.06-0.025,24.089c0,0.09,0,0.18,0,0.27
		c-0.035-0.02-0.041-0.038-0.044-0.058c-0.23-1.53-0.46-3.061-0.69-4.591c-0.255-1.701-0.509-3.402-0.765-5.104
		s-0.511-3.402-0.767-5.103c-0.255-1.701-0.512-3.402-0.767-5.103c-0.226-1.51-0.452-3.02-0.676-4.53
		c-0.017-0.116-0.05-0.175-0.191-0.175c-2.13,0.003-4.261,0.001-6.391-0.006c-0.133,0-0.174,0.043-0.192,0.169
		c-0.083,0.595-0.177,1.189-0.266,1.783c-0.269,1.797-0.536,3.594-0.806,5.391c-0.297,1.981-0.598,3.962-0.895,5.943
		c-0.284,1.893-0.564,3.786-0.848,5.679c-0.272,1.816-0.545,3.634-0.818,5.451c-0.056,0.372-0.115,0.744-0.172,1.116
		c-0.012-0.001-0.024-0.003-0.036-0.004c0-0.082,0-0.165,0-0.247c0-6.661,0.001-13.321,0.001-19.982c0-1.694,0-3.389,0-5.083
		c0-0.11,0.025-0.21-0.157-0.209c-2.04,0.006-4.081,0.005-6.121,0c-0.129,0-0.167,0.049-0.183,0.161
		c-0.028,0.206-0.062,0.41-0.095,0.614c-0.296,1.855-0.593,3.711-0.89,5.566c-0.298,1.862-0.597,3.724-0.895,5.586
		c-0.129,0.808-0.259,1.616-0.392,2.446c-0.066-0.065-0.058-0.131-0.067-0.189c-0.187-1.194-0.374-2.388-0.56-3.583
		c-0.283-1.815-0.566-3.631-0.849-5.446c-0.256-1.645-0.516-3.29-0.765-4.936c-0.026-0.171-0.081-0.221-0.257-0.22
		c-1.992,0.007-3.984,0.008-5.976,0c-0.191-0.001-0.239,0.05-0.239,0.239c0.005,9.199,0.005,18.398,0,27.597
		c0,0.168,0.035,0.219,0.212,0.218c1.542-0.008,3.084-0.008,4.627,0.001c0.195,0.001,0.234-0.057,0.234-0.241
		c-0.005-4.254-0.004-8.507-0.004-12.761C17.504,52.321,17.504,52.231,17.504,52.143z M80.994,51.382c0,4.599,0,9.197-0.003,13.795
		c0,0.148,0,0.232,0.198,0.231c2.98-0.007,5.961-0.007,8.941-0.001c0.159,0,0.193-0.044,0.192-0.196
		c-0.006-1.549-0.006-3.098,0-4.647c0.001-0.165-0.048-0.205-0.208-0.205c-1.272,0.007-2.545,0.005-3.817,0.003
		c-0.322,0-0.279,0.037-0.279-0.271c-0.001-7.496-0.002-14.992,0.004-22.488c0-0.197-0.043-0.253-0.247-0.252
		c-1.508,0.01-3.016,0.009-4.522,0c-0.203-0.001-0.265,0.039-0.265,0.256C80.996,42.198,80.994,46.79,80.994,51.382z"/>
	<path fill-rule="evenodd" clip-rule="evenodd" fill="#FEFEFE" d="M17.504,52.143c0,0.089,0,0.179,0,0.268
		c0,4.254-0.001,8.507,0.004,12.761c0,0.185-0.039,0.242-0.234,0.241c-1.542-0.009-3.085-0.009-4.627-0.001
		c-0.177,0.001-0.212-0.05-0.212-0.218c0.004-9.199,0.004-18.398,0-27.597c0-0.189,0.047-0.24,0.239-0.239
		c1.992,0.007,3.984,0.007,5.976,0c0.176,0,0.231,0.049,0.257,0.22c0.249,1.646,0.508,3.291,0.765,4.936
		c0.283,1.815,0.566,3.631,0.849,5.446c0.187,1.195,0.374,2.389,0.56,3.583c0.009,0.059,0,0.124,0.067,0.189
		c0.133-0.83,0.262-1.638,0.392-2.446c0.298-1.862,0.597-3.724,0.895-5.586c0.297-1.855,0.593-3.71,0.89-5.566
		c0.033-0.205,0.067-0.409,0.095-0.614c0.015-0.112,0.054-0.162,0.183-0.161c2.041,0.005,4.081,0.006,6.121,0
		c0.182,0,0.158,0.099,0.157,0.209c0,1.695,0,3.389,0,5.083c0,6.661,0,13.321-0.001,19.982c0,0.082,0,0.165,0,0.247
		c0.012,0.001,0.024,0.003,0.036,0.004c0.057-0.372,0.116-0.744,0.172-1.116c0.273-1.817,0.546-3.635,0.818-5.451
		c0.283-1.893,0.564-3.786,0.848-5.679c0.297-1.981,0.597-3.961,0.895-5.943c0.27-1.796,0.537-3.594,0.806-5.391
		c0.089-0.594,0.183-1.188,0.266-1.783c0.018-0.126,0.06-0.169,0.192-0.169c2.13,0.007,4.261,0.009,6.391,0.006
		c0.141,0,0.174,0.059,0.191,0.175c0.224,1.51,0.45,3.02,0.676,4.53c0.255,1.701,0.512,3.402,0.767,5.103
		c0.256,1.701,0.512,3.402,0.767,5.103s0.51,3.402,0.765,5.104c0.23,1.53,0.46,3.061,0.69,4.591c0.003,0.02,0.009,0.038,0.044,0.058
		c0-0.09,0-0.18,0-0.27c0.008-8.029,0.016-16.06,0.025-24.089c0-0.345-0.042-0.299,0.294-0.299c1.556-0.001,3.112,0.003,4.668-0.001
		c3.28-0.009,5.69,1.472,7.333,4.271c0.031,0.054,0.062,0.108,0.094,0.162c0.002,0.003,0.013,0.001,0.043,0.002
		c-0.052-0.418-0.102-0.833-0.154-1.247c-0.128-1.014-0.255-2.029-0.39-3.043c-0.025-0.187,0.094-0.144,0.188-0.144
		c1.487-0.001,2.975,0,4.461,0c0.479,0,0.471,0.001,0.535,0.486c0.211,1.582,0.43,3.163,0.644,4.745
		c0.215,1.582,0.427,3.163,0.642,4.745c0.214,1.582,0.431,3.163,0.646,4.745c0.09,0.664,0.178,1.328,0.267,1.992
		c0.011,0.082,0.015,0.165,0.067,0.258c0.145-1.056,0.287-2.092,0.429-3.128c0.215-1.568,0.43-3.135,0.644-4.703
		c0.201-1.465,0.402-2.929,0.603-4.395c0.209-1.533,0.419-3.066,0.625-4.6c0.016-0.114,0.063-0.159,0.175-0.145
		c0.034,0.004,0.069,0,0.104,0c4.572,0,9.144,0.001,13.716-0.005c0.205,0,0.266,0.043,0.264,0.258
		c-0.01,1.549-0.008,3.099-0.002,4.648c0.001,0.168-0.039,0.222-0.215,0.221c-1.377-0.008-2.753-0.001-4.13-0.008
		c-0.164,0-0.205,0.045-0.204,0.207c0.006,1.978,0.005,3.956,0,5.934c-0.001,0.153,0.035,0.197,0.192,0.196
		c1.377-0.006,2.753,0,4.13-0.008c0.184-0.001,0.229,0.047,0.228,0.229c-0.007,1.563-0.007,3.126,0,4.689
		c0.001,0.172-0.045,0.22-0.218,0.219c-1.376-0.007-2.753-0.001-4.129-0.008c-0.166-0.001-0.204,0.047-0.203,0.207
		c0.005,2.006,0.006,4.012-0.001,6.018c0,0.173,0.047,0.217,0.218,0.216c1.37-0.007,2.739-0.001,4.108-0.008
		c0.164-0.001,0.226,0.029,0.225,0.21c-0.007,1.543-0.006,3.085-0.001,4.627c0.001,0.161-0.038,0.208-0.204,0.208
		c-3.051-0.006-6.101-0.007-9.15,0.001c-0.197,0.001-0.218-0.065-0.218-0.233c0.004-8.237,0.004-16.475,0.004-24.712
		c0-0.09,0-0.179,0-0.269c-0.011-0.001-0.021-0.002-0.03-0.003c-0.073,0.454-0.146,0.908-0.219,1.363
		c-0.299,1.883-0.598,3.766-0.896,5.649c-0.297,1.876-0.594,3.752-0.892,5.628c-0.297,1.877-0.596,3.752-0.894,5.629
		c-0.283,1.787-0.565,3.574-0.849,5.362c-0.074,0.471-0.15,0.941-0.222,1.412c-0.018,0.115-0.047,0.174-0.188,0.174
		c-1.854,0.001-3.707,0.01-5.561,0.021c-0.137,0.001-0.189-0.037-0.213-0.177c-0.547-3.298-1.1-6.595-1.65-9.893
		c-0.405-2.425-0.809-4.851-1.213-7.275c-0.004-0.019-0.011-0.036-0.032-0.054c0.007,0.463-0.01,0.925-0.093,1.38
		c-0.361,1.984-1.265,3.668-2.8,4.993c-0.119,0.104-0.14,0.186-0.098,0.327c1.026,3.481,2.048,6.965,3.07,10.447
		c0.067,0.23,0.067,0.231-0.174,0.231c-1.508,0-3.016-0.002-4.523,0.003c-0.158,0.001-0.221-0.04-0.263-0.202
		c-0.765-2.945-1.541-5.889-2.307-8.834c-0.05-0.192-0.108-0.264-0.315-0.212c-0.227,0.057-0.463,0.084-0.697,0.101
		c-0.178,0.013-0.24,0.066-0.239,0.259c0.007,2.877,0.003,5.755,0.01,8.632c0,0.206-0.045,0.26-0.256,0.259
		c-3.05-0.009-6.1-0.01-9.15-0.007c-0.165,0-0.215-0.043-0.237-0.211c-0.17-1.316-0.356-2.63-0.532-3.944
		c-0.017-0.129-0.066-0.168-0.197-0.167c-1.197,0.005-2.393,0.005-3.59,0.001c-0.124-0.001-0.18,0.023-0.198,0.163
		c-0.175,1.328-0.36,2.656-0.539,3.984c-0.017,0.122-0.051,0.197-0.191,0.171c-0.027-0.005-0.055,0-0.083,0
		c-3.092,0-6.184-0.002-9.275,0.004c-0.195,0.001-0.25-0.037-0.25-0.243c0.007-4.26,0.005-8.521,0.005-12.781
		c0-0.104,0-0.207,0-0.311c-0.01-0.001-0.02-0.003-0.029-0.004c-0.085,0.501-0.173,1.003-0.257,1.504
		c-0.338,2.017-0.675,4.033-1.014,6.049c-0.312,1.859-0.629,3.718-0.935,5.579c-0.028,0.169-0.087,0.208-0.249,0.206
		c-0.753-0.008-1.508-0.009-2.261,0.001c-0.166,0.002-0.235-0.032-0.265-0.211c-0.26-1.574-0.53-3.146-0.798-4.718
		c-0.354-2.077-0.708-4.153-1.062-6.229c-0.12-0.707-0.24-1.413-0.36-2.119C17.529,52.137,17.516,52.14,17.504,52.143z
		 M49.258,46.871c0,1.376,0,2.751,0,4.127c0,0.442,0,0.443,0.443,0.355c1.083-0.217,1.847-0.873,2.322-1.832
		c0.819-1.657,0.826-3.379,0.189-5.087c-0.45-1.206-1.374-1.886-2.66-2.052c-0.294-0.038-0.294-0.039-0.294,0.257
		C49.258,44.05,49.258,45.461,49.258,46.871z M37.131,44.784c-0.007,0-0.014,0-0.021,0c-0.006,0.033-0.013,0.066-0.017,0.1
		c-0.194,1.674-0.388,3.349-0.583,5.023c-0.256,2.196-0.513,4.392-0.772,6.587c-0.014,0.117,0.008,0.155,0.133,0.155
		c0.843-0.006,1.687-0.006,2.53,0c0.136,0.001,0.163-0.039,0.145-0.164c-0.045-0.314-0.081-0.631-0.119-0.946
		c-0.159-1.316-0.316-2.634-0.475-3.951c-0.174-1.44-0.348-2.88-0.521-4.32C37.331,46.439,37.231,45.611,37.131,44.784z"/>
	<path fill-rule="evenodd" clip-rule="evenodd" fill="#FEFEFE" d="M80.994,51.382c0-4.592,0.002-9.184-0.006-13.775
		c0-0.217,0.062-0.257,0.265-0.256c1.507,0.009,3.015,0.009,4.522,0c0.204-0.001,0.247,0.056,0.247,0.252
		c-0.006,7.496-0.005,14.992-0.004,22.488c0,0.308-0.043,0.271,0.279,0.271c1.272,0.002,2.545,0.004,3.817-0.003
		c0.16,0,0.209,0.04,0.208,0.205c-0.006,1.55-0.006,3.099,0,4.647c0.001,0.152-0.033,0.196-0.192,0.196
		c-2.98-0.006-5.961-0.006-8.941,0.001c-0.198,0.001-0.198-0.083-0.198-0.231C80.994,60.579,80.994,55.98,80.994,51.382z"/>
	<path fill-rule="evenodd" clip-rule="evenodd" fill="#EC1D24" d="M49.258,46.871c0-1.41,0-2.821,0-4.231
		c0-0.296,0-0.295,0.294-0.257c1.286,0.166,2.21,0.846,2.66,2.052c0.637,1.708,0.63,3.43-0.189,5.087
		c-0.475,0.959-1.238,1.615-2.322,1.832c-0.443,0.088-0.443,0.087-0.443-0.355C49.258,49.623,49.258,48.247,49.258,46.871z"/>
	<path fill-rule="evenodd" clip-rule="evenodd" fill="#EC1E25" d="M37.131,44.784c0.1,0.828,0.2,1.655,0.3,2.483
		c0.174,1.44,0.348,2.88,0.521,4.32c0.158,1.317,0.316,2.635,0.475,3.951c0.038,0.315,0.074,0.632,0.119,0.946
		c0.018,0.125-0.009,0.165-0.145,0.164c-0.843-0.006-1.687-0.006-2.53,0c-0.125,0-0.147-0.038-0.133-0.155
		c0.26-2.195,0.516-4.391,0.772-6.587c0.195-1.674,0.389-3.349,0.583-5.023c0.004-0.033,0.011-0.066,0.017-0.1
		C37.117,44.784,37.125,44.784,37.131,44.784z"/>
</g>
</svg>
