<?xml version="1.0" encoding="utf-8"?>
<!-- Generator: Adobe Illustrator 16.0.0, SVG Export Plug-In . SVG Version: 6.00 Build 0)  -->
<!DOCTYPE svg PUBLIC "-//W3C//DTD SVG 1.1//EN" "http://www.w3.org/Graphics/SVG/1.1/DTD/svg11.dtd">
<svg version="1.1" id="Layer_1" xmlns="http://www.w3.org/2000/svg" xmlns:xlink="http://www.w3.org/1999/xlink" x="0px" y="0px"
	 width="100px" height="100px" viewBox="0 0 100 100" enable-background="new 0 0 100 100" xml:space="preserve">
<g transform="matrix(2.4919039,0,0,2.4919039,0,0)">
	<path fill="#0222A9" d="M22.714,18.619l0.724-0.823v-5.562l-3.456,1.333l0,0l-2.864,5.101l2.864-1.103L22.714,18.619z"/>
	<path fill="#011DA9" d="M28.852,26.37V16.99l3.505-1.349v14.762l-3.505,1.481l0,0l-5.151-6.731v8.903l-3.719,1.563V20.413
		l3.719-1.415L28.852,26.37z"/>
	<path fill="#0222A9" d="M14.403,30.418l-3.291-6.386v7.85l0,0L14.403,30.418z"/>
	<path fill="#069330" d="M14.617,15.64L14.617,15.64l1.646,3.357l0.856-0.329l2.864-5.101l-3.456-1.349L14.617,15.64z"/>
	<path fill="#069330" d="M22.714,18.619L22.714,18.619l2.633-2.979l3.505,1.349v9.381l-5.151-7.373L22.714,18.619z"/>
	<path fill="#069330" d="M19.982,35.618V20.413l-3.719-1.415v7.719l-5.167-9.726l0,0L7.59,15.64v14.762l3.505,1.481v-7.85
		l5.167,10.022L19.982,35.618z"/>
	<path fill="#FE2015" d="M11.112,16.99l3.505-1.349l1.646,3.357l0,0v7.719L11.112,16.99z"/>
	<path fill="#FE2015" d="M23.701,28.822l1.053,1.481l4.098,1.58l0,0l-5.151-6.731V28.822z"/>
	<path fill="#FFC001" d="M16.279,18.997l3.719-1.415l3.719,1.415l0,0l-3.719,1.415L16.279,18.997z"/>
	<path fill="#FFC001" d="M28.852,14.291l3.505,1.349l-3.505,1.349l-3.505-1.349l0,0L28.852,14.291z"/>
	<path fill="#FFC001" d="M11.112,14.291l3.505,1.349l-3.505,1.349L7.606,15.64l0,0L11.112,14.291z"/>
	<path fill="#FFC001" d="M19.982,10.884l-3.456,1.333l3.456,1.349l3.456-1.333l0,0L19.982,10.884z"/>
	<path fill="#0124A6" d="M24.952,6.112h1.596c1.366,0,1.794,0.773,1.794,1.827c0,1.086-0.675,1.761-1.711,1.761h-1.678V6.112
		L24.952,6.112z M26.268,8.893H26.4c0.214,0,0.362-0.066,0.444-0.214c0.082-0.148,0.099-0.428,0.099-0.773
		c0-0.346-0.016-0.625-0.099-0.773c-0.082-0.148-0.23-0.214-0.444-0.214h-0.132v1.958l0,0V8.893z"/>
	<path fill="#0124A6" d="M30.448,6.013c1.169,0,1.761,0.774,1.761,1.893s-0.576,1.892-1.761,1.892c-1.168,0-1.761-0.773-1.761-1.892
		S29.264,6.013,30.448,6.013L30.448,6.013z M30.448,8.876c0.214,0,0.362-0.099,0.362-0.987c0-0.856-0.148-0.987-0.362-0.987
		c-0.214,0-0.362,0.115-0.362,0.987C30.086,8.761,30.234,8.876,30.448,8.876L30.448,8.876z"/>
	<path fill="#0124A6" d="M32.834,8.942c-0.23,0-0.428,0.198-0.428,0.428c0,0.23,0.198,0.428,0.428,0.428
		c0.23,0,0.428-0.198,0.428-0.428C33.262,9.14,33.065,8.942,32.834,8.942L32.834,8.942z M32.834,9.716
		c-0.198,0-0.346-0.165-0.346-0.345c0-0.198,0.165-0.346,0.346-0.346c0.198,0,0.346,0.165,0.346,0.346
		C33.18,9.568,33.016,9.716,32.834,9.716L32.834,9.716z"/>
	<path fill="#0124A6" d="M32.769,9.6H32.67V9.14h0.198c0.082,0,0.165,0.033,0.165,0.115c0,0.066-0.033,0.099-0.099,0.115l0,0
		c0.082,0.016,0.082,0.049,0.082,0.115c0,0.033,0.016,0.082,0.033,0.115h-0.115c-0.016-0.049-0.016-0.082-0.016-0.131
		c0-0.033-0.016-0.066-0.049-0.066h-0.098v0.181l0,0V9.6z M32.769,9.337h0.082c0.049,0,0.066-0.017,0.066-0.066
		c0-0.049-0.033-0.066-0.066-0.066h-0.082V9.337L32.769,9.337z"/>
	<path fill="#0124A6" d="M6.701,6.112v2.057H6.685L5.961,6.112H4.348v3.587h1.086V7.626H5.45l0.724,2.074l0,0h1.613V6.112H6.701z"/>
	<path fill="#0124A6" d="M12.79,6.112v2.057h-0.016L12.05,6.112h-1.613v3.587h1.086V7.626h0.016l0.724,2.074l0,0h1.613V6.112H12.79z
		"/>
	<path fill="#0124A6" d="M23.273,6.112v2.057h-0.017l-0.724-2.057H20.92v3.587h1.086V7.626h0.017l0.724,2.074l0,0h1.613V6.112
		H23.273z"/>
	<path fill="#0124A6" d="M9.795,6.112v3.587H8.446V6.112l0,0H9.795z"/>
	<path fill="#0124A6" d="M15.127,9.699V7.083l0,0h-0.856V6.112h3.061v0.971h-0.856v2.617H15.127z"/>
	<path fill="#0124A6" d="M19.06,7.066v0.379h1.234v0.922H19.06v0.395h1.382v0.938h-2.699V6.112l0,0h2.666v0.954H19.06z"/>
	<path fill="#FF2D1E" d="M34.628,5.634c-0.066,0-0.148,0-0.247,0c-0.576,0.033-0.79,0.263-0.872,0.543h0.016
		c0.148-0.132,0.313-0.181,0.543-0.181c0.444,0,0.856,0.329,0.856,0.938c0,0.592-0.444,1.053-1.053,1.053
		c-0.807,0-1.152-0.609-1.152-1.267c0-0.527,0.181-0.987,0.494-1.267c0.296-0.28,0.674-0.411,1.135-0.428c0.115,0,0.198,0,0.264,0
		v0.609l0,0H34.628z M33.871,7.412c0.181,0,0.296-0.181,0.296-0.428c0-0.198-0.099-0.428-0.346-0.428
		c-0.148,0-0.263,0.099-0.312,0.214c-0.016,0.033-0.016,0.082-0.016,0.165C33.509,7.165,33.625,7.412,33.871,7.412L33.871,7.412
		L33.871,7.412z"/>
	<path fill="#FF2D1E" d="M36.34,7.938V7.296h-1.202v-0.51l0.955-1.712h0.954v1.646h0.296v0.592h-0.296v0.642h-0.724l0,0L36.34,7.938
		z M36.34,6.704V6.21c0-0.181,0.016-0.378,0.016-0.576H36.34c-0.082,0.198-0.165,0.378-0.264,0.576l-0.23,0.477v0.016H36.34
		L36.34,6.704L36.34,6.704z"/>
</g>
</svg>
