<?xml version="1.0" encoding="utf-8"?>
<!-- Generator: Adobe Illustrator 17.0.1, SVG Export Plug-In . SVG Version: 6.00 Build 0)  -->
<!DOCTYPE svg PUBLIC "-//W3C//DTD SVG 1.1//EN" "http://www.w3.org/Graphics/SVG/1.1/DTD/svg11.dtd">
<svg version="1.1" id="Layer_1" xmlns="http://www.w3.org/2000/svg" xmlns:xlink="http://www.w3.org/1999/xlink" x="0px" y="0px"
	 width="642px" height="464px" viewBox="-123.5 -106 642 464" enable-background="new -123.5 -106 642 464" xml:space="preserve">
<path fill="#42BAEB" d="M155.756,2.4L144.428,36h-3.744l-9.84-28.656L120.956,36h-3.696L105.932,2.4h3.648l9.696,28.896L129.308,2.4
	h3.312l9.888,29.04l9.84-29.04H155.756z M175.116,10.56c3.168,0,5.68,0.928,7.536,2.784c1.888,1.824,2.832,4.496,2.832,8.016V36
	h-3.408V21.696c0-2.624-0.656-4.624-1.968-6s-3.184-2.064-5.616-2.064c-2.72,0-4.88,0.816-6.48,2.448
	c-1.568,1.6-2.352,3.824-2.352,6.672V36h-3.408V0.384h3.408v14.784c0.928-1.472,2.208-2.608,3.84-3.408S173.004,10.56,175.116,10.56
	z M203.568,10.56c3.296,0,5.824,0.832,7.584,2.496c1.76,1.632,2.64,4.064,2.64,7.296V36h-3.264v-3.936
	c-0.768,1.312-1.904,2.336-3.408,3.072c-1.472,0.736-3.232,1.104-5.28,1.104c-2.816,0-5.056-0.672-6.72-2.016
	c-1.664-1.344-2.496-3.12-2.496-5.328c0-2.144,0.768-3.872,2.304-5.184c1.568-1.312,4.048-1.968,7.44-1.968h8.016v-1.536
	c0-2.176-0.608-3.824-1.824-4.944c-1.216-1.152-2.992-1.728-5.328-1.728c-1.6,0-3.136,0.272-4.608,0.816
	c-1.472,0.512-2.736,1.232-3.792,2.16l-1.536-2.544c1.28-1.088,2.816-1.92,4.608-2.496C199.696,10.864,201.584,10.56,203.568,10.56z
	 M202.368,33.552c1.92,0,3.568-0.432,4.944-1.296c1.376-0.896,2.4-2.176,3.072-3.84v-4.128h-7.92c-4.32,0-6.48,1.504-6.48,4.512
	c0,1.472,0.56,2.64,1.68,3.504C198.784,33.136,200.352,33.552,202.368,33.552z M236.345,34.464c-0.64,0.576-1.44,1.024-2.4,1.344
	c-0.928,0.288-1.904,0.432-2.928,0.432c-2.368,0-4.192-0.64-5.472-1.92s-1.92-3.088-1.92-5.424V13.632h-4.512v-2.88h4.512v-5.52
	h3.408v5.52h7.68v2.88h-7.68v15.072c0,1.504,0.368,2.656,1.104,3.456c0.768,0.768,1.856,1.152,3.264,1.152
	c0.704,0,1.376-0.112,2.016-0.336c0.672-0.224,1.248-0.544,1.728-0.96L236.345,34.464z M248.233,25.92
	c0-1.312,0.208-2.464,0.624-3.456c0.448-0.992,0.992-1.84,1.632-2.544s1.472-1.504,2.496-2.4c1.376-1.216,2.384-2.272,3.024-3.168
	c0.672-0.928,1.008-2.048,1.008-3.36c0-1.76-0.688-3.168-2.064-4.224c-1.376-1.088-3.264-1.632-5.664-1.632
	c-3.968,0-7.024,1.296-9.168,3.888l-2.544-1.92c2.72-3.328,6.704-4.992,11.952-4.992c3.36,0,6.032,0.752,8.016,2.256
	c2.016,1.504,3.024,3.536,3.024,6.096c0,1.312-0.224,2.48-0.672,3.504c-0.416,0.992-0.944,1.84-1.584,2.544
	c-0.608,0.704-1.424,1.52-2.448,2.448c-1.376,1.248-2.4,2.368-3.072,3.36c-0.672,0.96-1.008,2.16-1.008,3.6H248.233z M250.009,36.24
	c-0.704,0-1.296-0.24-1.776-0.72c-0.48-0.512-0.72-1.104-0.72-1.776c0-0.704,0.24-1.28,0.72-1.728c0.48-0.48,1.072-0.72,1.776-0.72
	c0.736,0,1.344,0.24,1.824,0.72c0.48,0.448,0.72,1.024,0.72,1.728c0,0.672-0.256,1.264-0.768,1.776
	C251.305,36,250.713,36.24,250.009,36.24z M268.037,2.4h4.032l-0.72,23.52h-2.64L268.037,2.4z M270.053,36.24
	c-0.704,0-1.312-0.24-1.824-0.72c-0.48-0.512-0.72-1.104-0.72-1.776c0-0.704,0.24-1.28,0.72-1.728c0.48-0.48,1.088-0.72,1.824-0.72
	c0.704,0,1.296,0.24,1.776,0.72c0.48,0.448,0.72,1.024,0.72,1.728c0,0.672-0.24,1.264-0.72,1.776
	C271.349,36,270.757,36.24,270.053,36.24z M28.372,61.4V95h-2.928l-21.6-27.264V95H0.292V61.4H3.22l21.648,27.264V61.4H28.372z
	 M48.939,95.24c-2.432,0-4.624-0.544-6.576-1.632c-1.952-1.12-3.488-2.656-4.608-4.608s-1.68-4.16-1.68-6.624s0.56-4.672,1.68-6.624
	c1.12-1.952,2.656-3.472,4.608-4.56c1.952-1.088,4.144-1.632,6.576-1.632c2.432,0,4.624,0.544,6.576,1.632
	c1.952,1.088,3.472,2.608,4.56,4.56c1.12,1.952,1.68,4.16,1.68,6.624s-0.56,4.672-1.68,6.624c-1.088,1.952-2.608,3.488-4.56,4.608
	C53.563,94.696,51.371,95.24,48.939,95.24z M48.939,92.216c1.792,0,3.392-0.4,4.8-1.2c1.44-0.832,2.56-2,3.36-3.504
	c0.8-1.504,1.2-3.216,1.2-5.136s-0.4-3.632-1.2-5.136c-0.8-1.504-1.92-2.656-3.36-3.456c-1.408-0.832-3.008-1.248-4.8-1.248
	s-3.408,0.416-4.848,1.248c-1.408,0.8-2.528,1.952-3.36,3.456c-0.8,1.504-1.2,3.216-1.2,5.136s0.4,3.632,1.2,5.136
	c0.832,1.504,1.952,2.672,3.36,3.504C45.531,91.816,47.147,92.216,48.939,92.216z M94.283,69.56c2.368,0,4.512,0.544,6.432,1.632
	c1.92,1.056,3.424,2.56,4.512,4.512c1.088,1.952,1.632,4.176,1.632,6.672c0,2.528-0.544,4.768-1.632,6.72
	c-1.088,1.952-2.592,3.472-4.512,4.56c-1.888,1.056-4.032,1.584-6.432,1.584c-2.048,0-3.904-0.416-5.568-1.248
	c-1.632-0.864-2.976-2.112-4.032-3.744v14.064h-3.408v-34.56h3.264v4.992c1.024-1.664,2.368-2.944,4.032-3.84
	C90.267,70.008,92.171,69.56,94.283,69.56z M94.043,92.216c1.76,0,3.36-0.4,4.8-1.2c1.44-0.832,2.56-2,3.36-3.504
	c0.832-1.504,1.248-3.216,1.248-5.136s-0.416-3.616-1.248-5.088c-0.8-1.504-1.92-2.672-3.36-3.504c-1.44-0.832-3.04-1.248-4.8-1.248
	c-1.792,0-3.408,0.416-4.848,1.248c-1.408,0.832-2.528,2-3.36,3.504c-0.8,1.472-1.2,3.168-1.2,5.088s0.4,3.632,1.2,5.136
	c0.832,1.504,1.952,2.672,3.36,3.504C90.635,91.816,92.251,92.216,94.043,92.216z M117.071,74.696c0.8-1.696,1.984-2.976,3.552-3.84
	c1.6-0.864,3.568-1.296,5.904-1.296v3.312l-0.816-0.048c-2.656,0-4.736,0.816-6.24,2.448c-1.504,1.632-2.256,3.92-2.256,6.864V95
	h-3.408V69.752h3.264V74.696z M142.783,95.24c-2.432,0-4.624-0.544-6.576-1.632c-1.952-1.12-3.488-2.656-4.608-4.608
	s-1.68-4.16-1.68-6.624s0.56-4.672,1.68-6.624c1.12-1.952,2.656-3.472,4.608-4.56c1.952-1.088,4.144-1.632,6.576-1.632
	c2.432,0,4.624,0.544,6.576,1.632c1.952,1.088,3.472,2.608,4.56,4.56c1.12,1.952,1.68,4.16,1.68,6.624s-0.56,4.672-1.68,6.624
	c-1.088,1.952-2.608,3.488-4.56,4.608C147.407,94.696,145.215,95.24,142.783,95.24z M142.783,92.216c1.792,0,3.392-0.4,4.8-1.2
	c1.44-0.832,2.56-2,3.36-3.504c0.8-1.504,1.2-3.216,1.2-5.136s-0.4-3.632-1.2-5.136c-0.8-1.504-1.92-2.656-3.36-3.456
	c-1.408-0.832-3.008-1.248-4.8-1.248c-1.792,0-3.408,0.416-4.848,1.248c-1.408,0.8-2.528,1.952-3.36,3.456
	c-0.8,1.504-1.2,3.216-1.2,5.136s0.4,3.632,1.2,5.136c0.832,1.504,1.952,2.672,3.36,3.504
	C139.375,91.816,140.991,92.216,142.783,92.216z M175.565,69.56c2.368,0,4.512,0.544,6.432,1.632c1.92,1.056,3.424,2.56,4.512,4.512
	c1.088,1.952,1.632,4.176,1.632,6.672c0,2.528-0.544,4.768-1.632,6.72c-1.088,1.952-2.592,3.472-4.512,4.56
	c-1.888,1.056-4.032,1.584-6.432,1.584c-2.048,0-3.904-0.416-5.568-1.248c-1.632-0.864-2.976-2.112-4.032-3.744v14.064h-3.408
	v-34.56h3.264v4.992c1.024-1.664,2.368-2.944,4.032-3.84C171.549,70.008,173.453,69.56,175.565,69.56z M175.325,92.216
	c1.76,0,3.36-0.4,4.8-1.2c1.44-0.832,2.56-2,3.36-3.504c0.832-1.504,1.248-3.216,1.248-5.136s-0.416-3.616-1.248-5.088
	c-0.8-1.504-1.92-2.672-3.36-3.504c-1.44-0.832-3.04-1.248-4.8-1.248c-1.792,0-3.408,0.416-4.848,1.248
	c-1.408,0.832-2.528,2-3.36,3.504c-0.8,1.472-1.2,3.168-1.2,5.088s0.4,3.632,1.2,5.136c0.832,1.504,1.952,2.672,3.36,3.504
	C171.917,91.816,173.533,92.216,175.325,92.216z M203.779,69.56c3.296,0,5.824,0.832,7.584,2.496c1.76,1.632,2.64,4.064,2.64,7.296
	V95h-3.264v-3.936c-0.768,1.312-1.904,2.336-3.408,3.072c-1.472,0.736-3.232,1.104-5.28,1.104c-2.816,0-5.056-0.672-6.72-2.016
	c-1.664-1.344-2.496-3.12-2.496-5.328c0-2.144,0.768-3.872,2.304-5.184c1.568-1.312,4.048-1.968,7.44-1.968h8.016v-1.536
	c0-2.176-0.608-3.824-1.824-4.944c-1.216-1.152-2.992-1.728-5.328-1.728c-1.6,0-3.136,0.272-4.608,0.816
	c-1.472,0.512-2.736,1.232-3.792,2.16l-1.536-2.544c1.28-1.088,2.816-1.92,4.608-2.496C199.907,69.864,201.795,69.56,203.779,69.56z
	 M202.579,92.552c1.92,0,3.568-0.432,4.944-1.296c1.376-0.896,2.4-2.176,3.072-3.84v-4.128h-7.92c-4.32,0-6.48,1.504-6.48,4.512
	c0,1.472,0.56,2.64,1.68,3.504C198.995,92.136,200.563,92.552,202.579,92.552z M246.73,69.752v22.176
	c0,4.288-1.056,7.456-3.168,9.504c-2.08,2.08-5.232,3.12-9.456,3.12c-2.336,0-4.56-0.352-6.672-1.056
	c-2.08-0.672-3.776-1.616-5.088-2.832l1.728-2.592c1.216,1.088,2.688,1.936,4.416,2.544c1.76,0.608,3.6,0.912,5.52,0.912
	c3.2,0,5.552-0.752,7.056-2.256c1.504-1.472,2.256-3.776,2.256-6.912v-3.216c-1.056,1.6-2.448,2.816-4.176,3.648
	c-1.696,0.832-3.584,1.248-5.664,1.248c-2.368,0-4.528-0.512-6.48-1.536c-1.92-1.056-3.44-2.512-4.56-4.368
	c-1.088-1.888-1.632-4.016-1.632-6.384c0-2.368,0.544-4.48,1.632-6.336c1.12-1.856,2.64-3.296,4.56-4.32s4.08-1.536,6.48-1.536
	c2.144,0,4.08,0.432,5.808,1.296c1.728,0.864,3.12,2.112,4.176,3.744v-4.848H246.73z M233.818,91.016
	c1.824,0,3.472-0.384,4.944-1.152c1.472-0.8,2.608-1.904,3.408-3.312c0.832-1.408,1.248-3.008,1.248-4.8s-0.416-3.376-1.248-4.752
	c-0.8-1.408-1.936-2.496-3.408-3.264c-1.44-0.8-3.088-1.2-4.944-1.2c-1.824,0-3.472,0.384-4.944,1.152
	c-1.44,0.768-2.576,1.856-3.408,3.264c-0.8,1.408-1.2,3.008-1.2,4.8s0.4,3.392,1.2,4.8c0.832,1.408,1.968,2.512,3.408,3.312
	C230.346,90.632,231.994,91.016,233.818,91.016z M265.092,69.56c3.296,0,5.824,0.832,7.584,2.496c1.76,1.632,2.64,4.064,2.64,7.296
	V95h-3.264v-3.936c-0.768,1.312-1.904,2.336-3.408,3.072c-1.472,0.736-3.232,1.104-5.28,1.104c-2.816,0-5.056-0.672-6.72-2.016
	c-1.664-1.344-2.496-3.12-2.496-5.328c0-2.144,0.768-3.872,2.304-5.184c1.568-1.312,4.048-1.968,7.44-1.968h8.016v-1.536
	c0-2.176-0.608-3.824-1.824-4.944c-1.216-1.152-2.992-1.728-5.328-1.728c-1.6,0-3.136,0.272-4.608,0.816
	c-1.472,0.512-2.736,1.232-3.792,2.16l-1.536-2.544c1.28-1.088,2.816-1.92,4.608-2.496C261.22,69.864,263.108,69.56,265.092,69.56z
	 M263.892,92.552c1.92,0,3.568-0.432,4.944-1.296c1.376-0.896,2.4-2.176,3.072-3.84v-4.128h-7.92c-4.32,0-6.48,1.504-6.48,4.512
	c0,1.472,0.56,2.64,1.68,3.504C260.308,92.136,261.876,92.552,263.892,92.552z M297.436,69.56c3.168,0,5.68,0.928,7.536,2.784
	c1.888,1.824,2.832,4.496,2.832,8.016V95h-3.408V80.696c0-2.624-0.656-4.624-1.968-6c-1.312-1.376-3.184-2.064-5.616-2.064
	c-2.72,0-4.88,0.816-6.48,2.448c-1.568,1.6-2.352,3.824-2.352,6.672V95h-3.408V69.752h3.264v4.656
	c0.928-1.536,2.208-2.72,3.84-3.552C293.34,69.992,295.26,69.56,297.436,69.56z M340.19,59.384V95h-3.264v-4.992
	c-1.024,1.696-2.384,2.992-4.08,3.888c-1.664,0.896-3.552,1.344-5.664,1.344c-2.368,0-4.512-0.544-6.432-1.632
	c-1.92-1.088-3.424-2.608-4.512-4.56c-1.088-1.952-1.632-4.176-1.632-6.672s0.544-4.72,1.632-6.672
	c1.088-1.952,2.592-3.456,4.512-4.512c1.92-1.088,4.064-1.632,6.432-1.632c2.048,0,3.888,0.432,5.52,1.296
	c1.664,0.832,3.024,2.064,4.08,3.696V59.384H340.19z M327.47,92.216c1.76,0,3.344-0.4,4.752-1.2c1.44-0.832,2.56-2,3.36-3.504
	c0.832-1.504,1.248-3.216,1.248-5.136s-0.416-3.632-1.248-5.136c-0.8-1.504-1.92-2.656-3.36-3.456
	c-1.408-0.832-2.992-1.248-4.752-1.248c-1.792,0-3.408,0.416-4.848,1.248c-1.408,0.8-2.528,1.952-3.36,3.456
	c-0.8,1.504-1.2,3.216-1.2,5.136s0.4,3.632,1.2,5.136c0.832,1.504,1.952,2.672,3.36,3.504
	C324.062,91.816,325.678,92.216,327.47,92.216z M358.514,69.56c3.296,0,5.824,0.832,7.584,2.496c1.76,1.632,2.64,4.064,2.64,7.296
	V95h-3.264v-3.936c-0.768,1.312-1.904,2.336-3.408,3.072c-1.472,0.736-3.232,1.104-5.28,1.104c-2.816,0-5.056-0.672-6.72-2.016
	s-2.496-3.12-2.496-5.328c0-2.144,0.768-3.872,2.304-5.184c1.568-1.312,4.048-1.968,7.44-1.968h8.016v-1.536
	c0-2.176-0.608-3.824-1.824-4.944c-1.216-1.152-2.992-1.728-5.328-1.728c-1.6,0-3.136,0.272-4.608,0.816
	c-1.472,0.512-2.736,1.232-3.792,2.16l-1.536-2.544c1.28-1.088,2.816-1.92,4.608-2.496C354.642,69.864,356.53,69.56,358.514,69.56z
	 M357.314,92.552c1.92,0,3.568-0.432,4.944-1.296c1.376-0.896,2.4-2.176,3.072-3.84v-4.128h-7.92c-4.32,0-6.48,1.504-6.48,4.512
	c0,1.472,0.56,2.64,1.68,3.504C353.73,92.136,355.298,92.552,357.314,92.552z M382.225,84.92c0-1.312,0.208-2.464,0.624-3.456
	c0.448-0.992,0.992-1.84,1.632-2.544c0.64-0.704,1.472-1.504,2.496-2.4c1.376-1.216,2.384-2.272,3.024-3.168
	c0.672-0.928,1.008-2.048,1.008-3.36c0-1.76-0.688-3.168-2.064-4.224c-1.376-1.088-3.264-1.632-5.664-1.632
	c-3.968,0-7.024,1.296-9.168,3.888l-2.544-1.92c2.72-3.328,6.704-4.992,11.952-4.992c3.36,0,6.032,0.752,8.016,2.256
	c2.016,1.504,3.024,3.536,3.024,6.096c0,1.312-0.224,2.48-0.672,3.504c-0.416,0.992-0.944,1.84-1.584,2.544
	c-0.608,0.704-1.424,1.52-2.448,2.448c-1.376,1.248-2.4,2.368-3.072,3.36c-0.672,0.96-1.008,2.16-1.008,3.6H382.225z M384.001,95.24
	c-0.704,0-1.296-0.24-1.776-0.72c-0.48-0.512-0.72-1.104-0.72-1.776c0-0.704,0.24-1.28,0.72-1.728c0.48-0.48,1.072-0.72,1.776-0.72
	c0.736,0,1.344,0.24,1.824,0.72c0.48,0.448,0.72,1.024,0.72,1.728c0,0.672-0.256,1.264-0.768,1.776
	C385.297,95,384.705,95.24,384.001,95.24z"/>
<path fill="#828282" d="M9.699,200.224c-1.475,0-2.903-0.224-4.284-0.672c-1.363-0.467-2.436-1.064-3.22-1.792l1.036-2.184
	c0.747,0.672,1.699,1.223,2.856,1.652c1.176,0.411,2.38,0.616,3.612,0.616c1.624,0,2.837-0.271,3.64-0.812
	c0.803-0.56,1.204-1.297,1.204-2.212c0-0.672-0.224-1.213-0.672-1.624c-0.429-0.429-0.971-0.756-1.624-0.98
	c-0.635-0.224-1.54-0.476-2.716-0.756c-1.475-0.355-2.669-0.709-3.584-1.064c-0.896-0.355-1.671-0.896-2.324-1.624
	c-0.635-0.747-0.952-1.745-0.952-2.996c0-1.045,0.271-1.988,0.812-2.828c0.56-0.84,1.4-1.512,2.52-2.016
	c1.12-0.504,2.511-0.756,4.172-0.756c1.157,0,2.296,0.149,3.416,0.448c1.12,0.299,2.081,0.728,2.884,1.288l-0.924,2.24
	c-0.821-0.523-1.699-0.915-2.632-1.176c-0.933-0.28-1.848-0.42-2.744-0.42c-1.587,0-2.781,0.289-3.584,0.868
	c-0.784,0.579-1.176,1.325-1.176,2.24c0,0.672,0.224,1.223,0.672,1.652c0.448,0.411,0.999,0.737,1.652,0.98
	c0.672,0.224,1.577,0.467,2.716,0.728c1.475,0.355,2.66,0.709,3.556,1.064c0.896,0.355,1.661,0.896,2.296,1.624
	c0.653,0.728,0.98,1.708,0.98,2.94c0,1.027-0.28,1.969-0.84,2.828c-0.56,0.84-1.409,1.512-2.548,2.016
	C12.76,199.981,11.36,200.224,9.699,200.224z M34.397,192.664c0,0.205-0.019,0.476-0.056,0.812h-12.04
	c0.168,1.307,0.737,2.361,1.708,3.164c0.989,0.784,2.212,1.176,3.668,1.176c1.773,0,3.201-0.597,4.284-1.792l1.484,1.736
	c-0.672,0.784-1.512,1.381-2.52,1.792c-0.989,0.411-2.1,0.616-3.332,0.616c-1.568,0-2.959-0.317-4.172-0.952
	c-1.213-0.653-2.156-1.559-2.828-2.716c-0.653-1.157-0.98-2.464-0.98-3.92c0-1.437,0.317-2.735,0.952-3.892
	c0.653-1.157,1.54-2.053,2.66-2.688c1.139-0.653,2.417-0.98,3.836-0.98c1.419,0,2.679,0.327,3.78,0.98
	c1.12,0.635,1.988,1.531,2.604,2.688C34.08,189.845,34.397,191.171,34.397,192.664z M27.061,187.288
	c-1.288,0-2.371,0.392-3.248,1.176c-0.859,0.784-1.363,1.811-1.512,3.08h9.52c-0.149-1.251-0.663-2.268-1.54-3.052
	C29.423,187.689,28.349,187.288,27.061,187.288z M38.13,179.224h2.688V200H38.13V179.224z M59.362,192.664
	c0,0.205-0.019,0.476-0.056,0.812h-12.04c0.168,1.307,0.737,2.361,1.708,3.164c0.989,0.784,2.212,1.176,3.668,1.176
	c1.773,0,3.201-0.597,4.284-1.792l1.484,1.736c-0.672,0.784-1.512,1.381-2.52,1.792c-0.989,0.411-2.1,0.616-3.332,0.616
	c-1.568,0-2.959-0.317-4.172-0.952c-1.213-0.653-2.156-1.559-2.828-2.716c-0.653-1.157-0.98-2.464-0.98-3.92
	c0-1.437,0.317-2.735,0.952-3.892c0.653-1.157,1.54-2.053,2.66-2.688c1.139-0.653,2.417-0.98,3.836-0.98
	c1.419,0,2.679,0.327,3.78,0.98c1.12,0.635,1.988,1.531,2.604,2.688C59.045,189.845,59.362,191.171,59.362,192.664z M52.026,187.288
	c-1.288,0-2.371,0.392-3.248,1.176c-0.859,0.784-1.363,1.811-1.512,3.08h9.52c-0.149-1.251-0.663-2.268-1.54-3.052
	C54.388,187.689,53.314,187.288,52.026,187.288z M69.563,200.168c-1.512,0-2.865-0.327-4.06-0.98
	c-1.176-0.653-2.1-1.549-2.772-2.688c-0.672-1.157-1.008-2.464-1.008-3.92c0-1.456,0.336-2.753,1.008-3.892
	c0.672-1.157,1.596-2.053,2.772-2.688c1.195-0.653,2.548-0.98,4.06-0.98c1.344,0,2.539,0.271,3.584,0.812
	c1.064,0.541,1.885,1.325,2.464,2.352l-2.044,1.316c-0.467-0.709-1.045-1.241-1.736-1.596c-0.691-0.355-1.456-0.532-2.296-0.532
	c-0.971,0-1.848,0.215-2.632,0.644c-0.765,0.429-1.372,1.045-1.82,1.848c-0.429,0.784-0.644,1.689-0.644,2.716
	c0,1.045,0.215,1.969,0.644,2.772c0.448,0.784,1.055,1.391,1.82,1.82c0.784,0.429,1.661,0.644,2.632,0.644
	c0.84,0,1.605-0.177,2.296-0.532c0.691-0.355,1.269-0.887,1.736-1.596l2.044,1.288c-0.579,1.027-1.4,1.82-2.464,2.38
	C72.102,199.897,70.907,200.168,69.563,200.168z M87.626,199.132c-0.392,0.336-0.877,0.597-1.456,0.784
	c-0.579,0.168-1.176,0.252-1.792,0.252c-1.493,0-2.651-0.401-3.472-1.204c-0.821-0.803-1.232-1.951-1.232-3.444v-8.148h-2.52v-2.212
	h2.52v-3.248h2.688v3.248h4.256v2.212h-4.256v8.036c0,0.803,0.196,1.419,0.588,1.848c0.411,0.429,0.989,0.644,1.736,0.644
	c0.821,0,1.521-0.233,2.1-0.7L87.626,199.132z M103.8,185.02c2.053,0,3.621,0.504,4.704,1.512c1.101,1.008,1.652,2.511,1.652,4.508
	V200h-2.548v-1.96c-0.448,0.691-1.092,1.223-1.932,1.596c-0.822,0.355-1.802,0.532-2.94,0.532c-1.662,0-2.996-0.401-4.004-1.204
	c-0.989-0.803-1.484-1.857-1.484-3.164c0-1.307,0.476-2.352,1.428-3.136c0.952-0.803,2.464-1.204,4.536-1.204h4.256v-0.532
	c0-1.157-0.336-2.044-1.008-2.66c-0.672-0.616-1.662-0.924-2.968-0.924c-0.878,0-1.736,0.149-2.576,0.448
	c-0.84,0.28-1.55,0.663-2.128,1.148l-1.12-2.016c0.765-0.616,1.68-1.083,2.744-1.4C101.476,185.188,102.605,185.02,103.8,185.02z
	 M103.184,198.096c1.026,0,1.913-0.224,2.66-0.672c0.746-0.467,1.288-1.12,1.624-1.96v-2.072h-4.144
	c-2.278,0-3.416,0.765-3.416,2.296c0,0.747,0.289,1.335,0.868,1.764C101.354,197.881,102.157,198.096,103.184,198.096z
	 M130.518,185.02c1.437,0,2.725,0.317,3.864,0.952c1.138,0.635,2.025,1.521,2.66,2.66c0.653,1.139,0.98,2.455,0.98,3.948
	s-0.327,2.819-0.98,3.976c-0.635,1.139-1.522,2.025-2.66,2.66c-1.139,0.635-2.427,0.952-3.864,0.952
	c-1.102,0-2.11-0.215-3.024-0.644c-0.915-0.429-1.671-1.055-2.268-1.876V200h-2.576v-20.776h2.688v8.176
	c0.597-0.784,1.344-1.372,2.24-1.764C128.474,185.225,129.454,185.02,130.518,185.02z M130.294,197.816
	c0.952,0,1.801-0.215,2.548-0.644c0.765-0.448,1.362-1.064,1.792-1.848c0.448-0.803,0.672-1.717,0.672-2.744
	c0-1.027-0.224-1.932-0.672-2.716c-0.43-0.803-1.027-1.419-1.792-1.848c-0.747-0.429-1.596-0.644-2.548-0.644
	c-0.934,0-1.783,0.215-2.548,0.644c-0.766,0.429-1.363,1.045-1.792,1.848c-0.43,0.784-0.644,1.689-0.644,2.716
	c0,1.027,0.214,1.941,0.644,2.744c0.429,0.784,1.026,1.4,1.792,1.848C128.511,197.601,129.36,197.816,130.294,197.816z
	 M147.003,185.02c2.053,0,3.621,0.504,4.704,1.512c1.101,1.008,1.652,2.511,1.652,4.508V200h-2.548v-1.96
	c-0.448,0.691-1.092,1.223-1.932,1.596c-0.822,0.355-1.802,0.532-2.94,0.532c-1.662,0-2.996-0.401-4.004-1.204
	c-0.99-0.803-1.484-1.857-1.484-3.164c0-1.307,0.476-2.352,1.428-3.136c0.952-0.803,2.464-1.204,4.536-1.204h4.256v-0.532
	c0-1.157-0.336-2.044-1.008-2.66c-0.672-0.616-1.662-0.924-2.968-0.924c-0.878,0-1.736,0.149-2.576,0.448
	c-0.84,0.28-1.55,0.663-2.128,1.148l-1.12-2.016c0.765-0.616,1.68-1.083,2.744-1.4C144.679,185.188,145.808,185.02,147.003,185.02z
	 M146.387,198.096c1.026,0,1.913-0.224,2.66-0.672c0.746-0.467,1.288-1.12,1.624-1.96v-2.072h-4.144
	c-2.278,0-3.416,0.765-3.416,2.296c0,0.747,0.289,1.335,0.868,1.764C144.557,197.881,145.36,198.096,146.387,198.096z
	 M164.883,200.168c-1.512,0-2.865-0.327-4.06-0.98c-1.176-0.653-2.1-1.549-2.772-2.688c-0.672-1.157-1.008-2.464-1.008-3.92
	c0-1.456,0.336-2.753,1.008-3.892c0.672-1.157,1.596-2.053,2.772-2.688c1.195-0.653,2.548-0.98,4.06-0.98
	c1.344,0,2.539,0.271,3.584,0.812c1.064,0.541,1.886,1.325,2.464,2.352l-2.044,1.316c-0.466-0.709-1.045-1.241-1.736-1.596
	c-0.69-0.355-1.456-0.532-2.296-0.532c-0.97,0-1.848,0.215-2.632,0.644c-0.765,0.429-1.372,1.045-1.82,1.848
	c-0.429,0.784-0.644,1.689-0.644,2.716c0,1.045,0.215,1.969,0.644,2.772c0.448,0.784,1.055,1.391,1.82,1.82
	c0.784,0.429,1.662,0.644,2.632,0.644c0.84,0,1.606-0.177,2.296-0.532c0.691-0.355,1.27-0.887,1.736-1.596l2.044,1.288
	c-0.578,1.027-1.4,1.82-2.464,2.38C167.422,199.897,166.227,200.168,164.883,200.168z M179.988,193.084l-3.08,2.856V200h-2.688
	v-20.776h2.688v13.328L185,185.16h3.248l-6.244,6.132l6.86,8.708h-3.304L179.988,193.084z M205.041,185.16v12.824
	c0,2.595-0.644,4.508-1.932,5.74c-1.288,1.251-3.211,1.876-5.768,1.876c-1.4,0-2.735-0.196-4.004-0.588
	c-1.269-0.373-2.296-0.915-3.08-1.624l1.288-2.072c0.691,0.597,1.54,1.064,2.548,1.4c1.027,0.355,2.081,0.532,3.164,0.532
	c1.736,0,3.015-0.411,3.836-1.232c0.84-0.821,1.26-2.072,1.26-3.752v-1.176c-0.635,0.765-1.419,1.344-2.352,1.736
	c-0.915,0.373-1.913,0.56-2.996,0.56c-1.419,0-2.707-0.299-3.864-0.896c-1.139-0.616-2.035-1.465-2.688-2.548
	c-0.653-1.101-0.98-2.352-0.98-3.752c0-1.4,0.327-2.641,0.98-3.724c0.653-1.101,1.549-1.951,2.688-2.548
	c1.157-0.597,2.445-0.896,3.864-0.896c1.12,0,2.156,0.205,3.108,0.616c0.971,0.411,1.764,1.017,2.38,1.82v-2.296H205.041z
	 M197.313,197.032c0.971,0,1.839-0.205,2.604-0.616c0.784-0.411,1.391-0.98,1.82-1.708c0.448-0.747,0.672-1.587,0.672-2.52
	c0-1.437-0.476-2.595-1.428-3.472c-0.952-0.896-2.175-1.344-3.668-1.344c-1.512,0-2.744,0.448-3.696,1.344
	c-0.952,0.877-1.428,2.035-1.428,3.472c0,0.933,0.215,1.773,0.644,2.52c0.448,0.728,1.055,1.297,1.82,1.708
	C195.437,196.827,196.324,197.032,197.313,197.032z M212.753,187.652c0.467-0.859,1.157-1.512,2.072-1.96
	c0.915-0.448,2.025-0.672,3.332-0.672v2.604c-0.149-0.019-0.355-0.028-0.616-0.028c-1.456,0-2.604,0.439-3.444,1.316
	c-0.821,0.859-1.232,2.091-1.232,3.696V200h-2.688v-14.84h2.576V187.652z M227.689,200.168c-1.475,0-2.8-0.327-3.976-0.98
	c-1.176-0.653-2.1-1.549-2.772-2.688c-0.653-1.157-0.98-2.464-0.98-3.92c0-1.456,0.327-2.753,0.98-3.892
	c0.672-1.157,1.596-2.053,2.772-2.688c1.176-0.653,2.501-0.98,3.976-0.98c1.475,0,2.791,0.327,3.948,0.98
	c1.176,0.635,2.091,1.531,2.744,2.688c0.672,1.139,1.008,2.436,1.008,3.892c0,1.456-0.336,2.763-1.008,3.92
	c-0.653,1.139-1.568,2.035-2.744,2.688C230.48,199.841,229.164,200.168,227.689,200.168z M227.689,197.816
	c0.952,0,1.801-0.215,2.548-0.644c0.765-0.448,1.363-1.064,1.792-1.848c0.429-0.803,0.644-1.717,0.644-2.744
	c0-1.027-0.215-1.932-0.644-2.716c-0.429-0.803-1.027-1.419-1.792-1.848c-0.747-0.429-1.596-0.644-2.548-0.644
	c-0.952,0-1.811,0.215-2.576,0.644c-0.747,0.429-1.344,1.045-1.792,1.848c-0.429,0.784-0.644,1.689-0.644,2.716
	c0,1.027,0.215,1.941,0.644,2.744c0.448,0.784,1.045,1.4,1.792,1.848C225.878,197.601,226.737,197.816,227.689,197.816z
	 M252.939,185.16V200h-2.548v-2.24c-0.542,0.765-1.26,1.363-2.156,1.792c-0.878,0.411-1.839,0.616-2.884,0.616
	c-1.979,0-3.538-0.541-4.676-1.624c-1.139-1.101-1.708-2.716-1.708-4.844v-8.54h2.688v8.232c0,1.437,0.345,2.529,1.036,3.276
	c0.69,0.728,1.68,1.092,2.968,1.092c1.418,0,2.538-0.429,3.36-1.288c0.821-0.859,1.232-2.072,1.232-3.64v-7.672H252.939z
	 M265.98,185.02c1.885,0,3.378,0.551,4.48,1.652c1.12,1.083,1.68,2.679,1.68,4.788V200h-2.688v-8.232
	c0-1.437-0.346-2.52-1.036-3.248c-0.691-0.728-1.68-1.092-2.968-1.092c-1.456,0-2.604,0.429-3.444,1.288
	c-0.84,0.84-1.26,2.053-1.26,3.64V200h-2.688v-14.84h2.576v2.24c0.541-0.765,1.269-1.353,2.184-1.764
	C263.749,185.225,264.804,185.02,265.98,185.02z M291.196,179.224V200h-2.576v-2.352c-0.597,0.821-1.353,1.447-2.268,1.876
	c-0.914,0.429-1.922,0.644-3.024,0.644c-1.437,0-2.725-0.317-3.864-0.952c-1.138-0.635-2.034-1.521-2.688-2.66
	c-0.634-1.157-0.952-2.483-0.952-3.976s0.318-2.809,0.952-3.948c0.654-1.139,1.55-2.025,2.688-2.66
	c1.139-0.635,2.427-0.952,3.864-0.952c1.064,0,2.044,0.205,2.94,0.616c0.896,0.392,1.643,0.98,2.24,1.764v-8.176H291.196z
	 M283.552,197.816c0.934,0,1.783-0.215,2.548-0.644c0.766-0.448,1.363-1.064,1.792-1.848c0.43-0.803,0.644-1.717,0.644-2.744
	c0-1.027-0.214-1.932-0.644-2.716c-0.429-0.803-1.026-1.419-1.792-1.848c-0.765-0.429-1.614-0.644-2.548-0.644
	c-0.952,0-1.81,0.215-2.576,0.644c-0.746,0.429-1.344,1.045-1.792,1.848c-0.429,0.784-0.644,1.689-0.644,2.716
	c0,1.027,0.215,1.941,0.644,2.744c0.448,0.784,1.046,1.4,1.792,1.848C281.742,197.601,282.6,197.816,283.552,197.816z
	 M303.802,185.16h2.688V200h-2.688V185.16z M305.146,182.304c-0.523,0-0.961-0.168-1.316-0.504
	c-0.336-0.336-0.504-0.747-0.504-1.232s0.168-0.896,0.504-1.232c0.355-0.355,0.793-0.532,1.316-0.532s0.952,0.168,1.288,0.504
	c0.355,0.317,0.532,0.719,0.532,1.204c0,0.504-0.177,0.933-0.532,1.288C306.098,182.136,305.669,182.304,305.146,182.304z
	 M330.186,185.02c1.867,0,3.342,0.541,4.424,1.624c1.102,1.083,1.652,2.688,1.652,4.816V200h-2.688v-8.232
	c0-1.437-0.336-2.52-1.008-3.248c-0.653-0.728-1.596-1.092-2.828-1.092c-1.362,0-2.445,0.429-3.248,1.288
	c-0.802,0.84-1.204,2.053-1.204,3.64V200h-2.688v-8.232c0-1.437-0.336-2.52-1.008-3.248c-0.653-0.728-1.596-1.092-2.828-1.092
	c-1.362,0-2.445,0.429-3.248,1.288c-0.802,0.84-1.204,2.053-1.204,3.64V200h-2.688v-14.84h2.576v2.212
	c0.542-0.765,1.251-1.344,2.128-1.736c0.878-0.411,1.876-0.616,2.996-0.616c1.158,0,2.184,0.233,3.08,0.7s1.587,1.148,2.072,2.044
	c0.56-0.859,1.335-1.531,2.324-2.016C327.806,185.263,328.936,185.02,330.186,185.02z M346.612,185.02
	c2.053,0,3.621,0.504,4.704,1.512c1.101,1.008,1.652,2.511,1.652,4.508V200h-2.548v-1.96c-0.448,0.691-1.092,1.223-1.932,1.596
	c-0.821,0.355-1.801,0.532-2.94,0.532c-1.661,0-2.996-0.401-4.004-1.204c-0.989-0.803-1.484-1.857-1.484-3.164
	c0-1.307,0.476-2.352,1.428-3.136c0.952-0.803,2.464-1.204,4.536-1.204h4.256v-0.532c0-1.157-0.336-2.044-1.008-2.66
	c-0.672-0.616-1.661-0.924-2.968-0.924c-0.877,0-1.736,0.149-2.576,0.448c-0.84,0.28-1.549,0.663-2.128,1.148l-1.12-2.016
	c0.765-0.616,1.68-1.083,2.744-1.4C344.288,185.188,345.417,185.02,346.612,185.02z M345.996,198.096
	c1.027,0,1.913-0.224,2.66-0.672c0.747-0.467,1.288-1.12,1.624-1.96v-2.072h-4.144c-2.277,0-3.416,0.765-3.416,2.296
	c0,0.747,0.289,1.335,0.868,1.764C344.167,197.881,344.969,198.096,345.996,198.096z M372.221,185.16v12.824
	c0,2.595-0.644,4.508-1.932,5.74c-1.288,1.251-3.211,1.876-5.768,1.876c-1.4,0-2.735-0.196-4.004-0.588
	c-1.27-0.373-2.296-0.915-3.08-1.624l1.288-2.072c0.69,0.597,1.54,1.064,2.548,1.4c1.026,0.355,2.081,0.532,3.164,0.532
	c1.736,0,3.014-0.411,3.836-1.232c0.84-0.821,1.26-2.072,1.26-3.752v-1.176c-0.635,0.765-1.419,1.344-2.352,1.736
	c-0.915,0.373-1.914,0.56-2.996,0.56c-1.419,0-2.707-0.299-3.864-0.896c-1.139-0.616-2.035-1.465-2.688-2.548
	c-0.654-1.101-0.98-2.352-0.98-3.752c0-1.4,0.326-2.641,0.98-3.724c0.653-1.101,1.549-1.951,2.688-2.548
	c1.157-0.597,2.445-0.896,3.864-0.896c1.12,0,2.156,0.205,3.108,0.616c0.97,0.411,1.764,1.017,2.38,1.82v-2.296H372.221z
	 M364.493,197.032c0.97,0,1.838-0.205,2.604-0.616c0.784-0.411,1.39-0.98,1.82-1.708c0.448-0.747,0.672-1.587,0.672-2.52
	c0-1.437-0.476-2.595-1.428-3.472c-0.952-0.896-2.175-1.344-3.668-1.344c-1.512,0-2.744,0.448-3.696,1.344
	c-0.952,0.877-1.428,2.035-1.428,3.472c0,0.933,0.214,1.773,0.644,2.52c0.448,0.728,1.054,1.297,1.82,1.708
	C362.617,196.827,363.503,197.032,364.493,197.032z M390.769,192.664c0,0.205-0.019,0.476-0.056,0.812h-12.04
	c0.168,1.307,0.737,2.361,1.708,3.164c0.989,0.784,2.212,1.176,3.668,1.176c1.773,0,3.201-0.597,4.284-1.792l1.484,1.736
	c-0.672,0.784-1.512,1.381-2.52,1.792c-0.99,0.411-2.1,0.616-3.332,0.616c-1.568,0-2.959-0.317-4.172-0.952
	c-1.214-0.653-2.156-1.559-2.828-2.716c-0.654-1.157-0.98-2.464-0.98-3.92c0-1.437,0.317-2.735,0.952-3.892
	c0.653-1.157,1.54-2.053,2.66-2.688c1.138-0.653,2.417-0.98,3.836-0.98c1.418,0,2.678,0.327,3.78,0.98
	c1.12,0.635,1.988,1.531,2.604,2.688C390.451,189.845,390.769,191.171,390.769,192.664z M383.433,187.288
	c-1.288,0-2.371,0.392-3.248,1.176c-0.859,0.784-1.363,1.811-1.512,3.08h9.52c-0.15-1.251-0.663-2.268-1.54-3.052
	C385.794,187.689,384.721,187.288,383.433,187.288z M110.609,245.132c-0.392,0.336-0.878,0.597-1.456,0.784
	c-0.579,0.168-1.176,0.252-1.792,0.252c-1.494,0-2.651-0.401-3.472-1.204c-0.822-0.803-1.232-1.951-1.232-3.444v-8.148h-2.52v-2.212
	h2.52v-3.248h2.688v3.248h4.256v2.212h-4.256v8.036c0,0.803,0.196,1.419,0.588,1.848c0.41,0.429,0.989,0.644,1.736,0.644
	c0.821,0,1.521-0.233,2.1-0.7L110.609,245.132z M119.722,246.168c-1.474,0-2.8-0.327-3.976-0.98c-1.176-0.653-2.1-1.549-2.772-2.688
	c-0.653-1.157-0.98-2.464-0.98-3.92c0-1.456,0.327-2.753,0.98-3.892c0.672-1.157,1.596-2.053,2.772-2.688
	c1.176-0.653,2.502-0.98,3.976-0.98c1.475,0,2.791,0.327,3.948,0.98c1.176,0.635,2.091,1.531,2.744,2.688
	c0.672,1.139,1.008,2.436,1.008,3.892c0,1.456-0.336,2.763-1.008,3.92c-0.653,1.139-1.568,2.035-2.744,2.688
	C122.513,245.841,121.197,246.168,119.722,246.168z M119.722,243.816c0.952,0,1.802-0.215,2.548-0.644
	c0.766-0.448,1.363-1.064,1.792-1.848c0.43-0.803,0.644-1.717,0.644-2.744c0-1.027-0.214-1.932-0.644-2.716
	c-0.429-0.803-1.026-1.419-1.792-1.848c-0.746-0.429-1.596-0.644-2.548-0.644s-1.81,0.215-2.576,0.644
	c-0.746,0.429-1.344,1.045-1.792,1.848c-0.429,0.784-0.644,1.689-0.644,2.716c0,1.027,0.215,1.941,0.644,2.744
	c0.448,0.784,1.046,1.4,1.792,1.848C117.912,243.601,118.77,243.816,119.722,243.816z M152.855,231.16v12.824
	c0,2.595-0.644,4.508-1.932,5.74c-1.288,1.251-3.21,1.876-5.768,1.876c-1.4,0-2.734-0.196-4.004-0.588
	c-1.269-0.373-2.296-0.915-3.08-1.624l1.288-2.072c0.691,0.597,1.54,1.064,2.548,1.4c1.027,0.355,2.082,0.532,3.164,0.532
	c1.736,0,3.015-0.411,3.836-1.232c0.84-0.821,1.26-2.072,1.26-3.752v-1.176c-0.634,0.765-1.418,1.344-2.352,1.736
	c-0.914,0.373-1.913,0.56-2.996,0.56c-1.418,0-2.706-0.299-3.864-0.896c-1.138-0.616-2.034-1.465-2.688-2.548
	c-0.653-1.101-0.98-2.352-0.98-3.752c0-1.4,0.327-2.641,0.98-3.724c0.654-1.101,1.55-1.951,2.688-2.548
	c1.158-0.597,2.446-0.896,3.864-0.896c1.12,0,2.156,0.205,3.108,0.616c0.971,0.411,1.764,1.017,2.38,1.82v-2.296H152.855z
	 M145.127,243.032c0.971,0,1.839-0.205,2.604-0.616c0.784-0.411,1.391-0.98,1.82-1.708c0.448-0.747,0.672-1.587,0.672-2.52
	c0-1.437-0.476-2.595-1.428-3.472c-0.952-0.896-2.174-1.344-3.668-1.344c-1.512,0-2.744,0.448-3.696,1.344
	c-0.952,0.877-1.428,2.035-1.428,3.472c0,0.933,0.215,1.773,0.644,2.52c0.448,0.728,1.055,1.297,1.82,1.708
	C143.251,242.827,144.138,243.032,145.127,243.032z M171.403,238.664c0,0.205-0.018,0.476-0.056,0.812h-12.04
	c0.168,1.307,0.738,2.361,1.708,3.164c0.99,0.784,2.212,1.176,3.668,1.176c1.774,0,3.202-0.597,4.284-1.792l1.484,1.736
	c-0.672,0.784-1.512,1.381-2.52,1.792c-0.989,0.411-2.1,0.616-3.332,0.616c-1.568,0-2.958-0.317-4.172-0.952
	c-1.213-0.653-2.156-1.559-2.828-2.716c-0.653-1.157-0.98-2.464-0.98-3.92c0-1.437,0.318-2.735,0.952-3.892
	c0.654-1.157,1.54-2.053,2.66-2.688c1.139-0.653,2.418-0.98,3.836-0.98c1.419,0,2.679,0.327,3.78,0.98
	c1.12,0.635,1.988,1.531,2.604,2.688C171.086,235.845,171.403,237.171,171.403,238.664z M164.067,233.288
	c-1.288,0-2.37,0.392-3.248,1.176c-0.858,0.784-1.362,1.811-1.512,3.08h9.52c-0.149-1.251-0.662-2.268-1.54-3.052
	C166.429,233.689,165.355,233.288,164.067,233.288z M183.48,245.132c-0.392,0.336-0.877,0.597-1.456,0.784
	c-0.579,0.168-1.176,0.252-1.792,0.252c-1.493,0-2.651-0.401-3.472-1.204c-0.821-0.803-1.232-1.951-1.232-3.444v-8.148h-2.52v-2.212
	h2.52v-3.248h2.688v3.248h4.256v2.212h-4.256v8.036c0,0.803,0.196,1.419,0.588,1.848c0.411,0.429,0.989,0.644,1.736,0.644
	c0.821,0,1.521-0.233,2.1-0.7L183.48,245.132z M198.505,246.168c-1.213,0-2.38-0.159-3.5-0.476c-1.12-0.336-1.997-0.756-2.632-1.26
	l1.12-2.128c0.654,0.467,1.447,0.84,2.38,1.12c0.934,0.28,1.876,0.42,2.828,0.42c2.352,0,3.528-0.672,3.528-2.016
	c0-0.448-0.158-0.803-0.476-1.064c-0.317-0.261-0.718-0.448-1.204-0.56c-0.466-0.131-1.138-0.271-2.016-0.42
	c-1.194-0.187-2.174-0.401-2.94-0.644c-0.746-0.243-1.39-0.653-1.932-1.232c-0.541-0.579-0.812-1.391-0.812-2.436
	c0-1.344,0.56-2.417,1.68-3.22c1.12-0.821,2.623-1.232,4.508-1.232c0.99,0,1.979,0.121,2.968,0.364
	c0.99,0.243,1.802,0.569,2.436,0.98l-1.148,2.128c-1.213-0.784-2.641-1.176-4.284-1.176c-1.138,0-2.006,0.187-2.604,0.56
	c-0.597,0.373-0.896,0.868-0.896,1.484c0,0.485,0.168,0.868,0.504,1.148s0.747,0.485,1.232,0.616c0.504,0.131,1.204,0.28,2.1,0.448
	c1.195,0.205,2.156,0.429,2.884,0.672c0.747,0.224,1.382,0.616,1.904,1.176c0.523,0.56,0.784,1.344,0.784,2.352
	c0,1.344-0.578,2.417-1.736,3.22C202.043,245.776,200.484,246.168,198.505,246.168z M216.621,245.132
	c-0.392,0.336-0.878,0.597-1.456,0.784c-0.579,0.168-1.176,0.252-1.792,0.252c-1.494,0-2.651-0.401-3.472-1.204
	c-0.822-0.803-1.232-1.951-1.232-3.444v-8.148h-2.52v-2.212h2.52v-3.248h2.688v3.248h4.256v2.212h-4.256v8.036
	c0,0.803,0.196,1.419,0.588,1.848c0.41,0.429,0.989,0.644,1.736,0.644c0.821,0,1.521-0.233,2.1-0.7L216.621,245.132z
	 M225.274,231.02c2.054,0,3.622,0.504,4.704,1.512c1.102,1.008,1.652,2.511,1.652,4.508V246h-2.548v-1.96
	c-0.448,0.691-1.092,1.223-1.932,1.596c-0.821,0.355-1.801,0.532-2.94,0.532c-1.661,0-2.996-0.401-4.004-1.204
	c-0.989-0.803-1.484-1.857-1.484-3.164c0-1.307,0.476-2.352,1.428-3.136c0.952-0.803,2.464-1.204,4.536-1.204h4.256v-0.532
	c0-1.157-0.336-2.044-1.008-2.66c-0.672-0.616-1.661-0.924-2.968-0.924c-0.877,0-1.736,0.149-2.576,0.448
	c-0.84,0.28-1.549,0.663-2.128,1.148l-1.12-2.016c0.766-0.616,1.68-1.083,2.744-1.4C222.95,231.188,224.08,231.02,225.274,231.02z
	 M224.658,244.096c1.027,0,1.914-0.224,2.66-0.672c0.747-0.467,1.288-1.12,1.624-1.96v-2.072h-4.144
	c-2.277,0-3.416,0.765-3.416,2.296c0,0.747,0.29,1.335,0.868,1.764C222.829,243.881,223.632,244.096,224.658,244.096z
	 M239.181,233.652c0.466-0.859,1.157-1.512,2.072-1.96c0.914-0.448,2.025-0.672,3.332-0.672v2.604
	c-0.15-0.019-0.355-0.028-0.616-0.028c-1.456,0-2.604,0.439-3.444,1.316c-0.822,0.859-1.232,2.091-1.232,3.696V246h-2.688v-14.84
	h2.576V233.652z M256.843,245.132c-0.392,0.336-0.877,0.597-1.456,0.784c-0.578,0.168-1.176,0.252-1.792,0.252
	c-1.493,0-2.65-0.401-3.472-1.204c-0.821-0.803-1.232-1.951-1.232-3.444v-8.148h-2.52v-2.212h2.52v-3.248h2.688v3.248h4.256v2.212
	h-4.256v8.036c0,0.803,0.196,1.419,0.588,1.848c0.411,0.429,0.99,0.644,1.736,0.644c0.822,0,1.522-0.233,2.1-0.7L256.843,245.132z
	 M273.013,238.664c0,0.205-0.019,0.476-0.056,0.812h-12.04c0.168,1.307,0.737,2.361,1.708,3.164
	c0.989,0.784,2.212,1.176,3.668,1.176c1.773,0,3.201-0.597,4.284-1.792l1.484,1.736c-0.672,0.784-1.512,1.381-2.52,1.792
	c-0.99,0.411-2.1,0.616-3.332,0.616c-1.568,0-2.959-0.317-4.172-0.952c-1.214-0.653-2.156-1.559-2.828-2.716
	c-0.654-1.157-0.98-2.464-0.98-3.92c0-1.437,0.317-2.735,0.952-3.892c0.653-1.157,1.54-2.053,2.66-2.688
	c1.138-0.653,2.417-0.98,3.836-0.98c1.418,0,2.678,0.327,3.78,0.98c1.12,0.635,1.988,1.531,2.604,2.688
	C272.695,235.845,273.013,237.171,273.013,238.664z M265.677,233.288c-1.288,0-2.371,0.392-3.248,1.176
	c-0.859,0.784-1.363,1.811-1.512,3.08h9.52c-0.15-1.251-0.663-2.268-1.54-3.052C268.038,233.689,266.965,233.288,265.677,233.288z
	 M290.745,225.224V246h-2.576v-2.352c-0.597,0.821-1.353,1.447-2.268,1.876c-0.914,0.429-1.922,0.644-3.024,0.644
	c-1.437,0-2.725-0.317-3.864-0.952c-1.138-0.635-2.034-1.521-2.688-2.66c-0.634-1.157-0.952-2.483-0.952-3.976
	s0.318-2.809,0.952-3.948c0.654-1.139,1.55-2.025,2.688-2.66c1.139-0.635,2.427-0.952,3.864-0.952c1.064,0,2.044,0.205,2.94,0.616
	c0.896,0.392,1.643,0.98,2.24,1.764v-8.176H290.745z M283.101,243.816c0.934,0,1.783-0.215,2.548-0.644
	c0.766-0.448,1.363-1.064,1.792-1.848c0.43-0.803,0.644-1.717,0.644-2.744c0-1.027-0.214-1.932-0.644-2.716
	c-0.429-0.803-1.026-1.419-1.792-1.848c-0.765-0.429-1.614-0.644-2.548-0.644c-0.952,0-1.81,0.215-2.576,0.644
	c-0.746,0.429-1.344,1.045-1.792,1.848c-0.429,0.784-0.644,1.689-0.644,2.716c0,1.027,0.215,1.941,0.644,2.744
	c0.448,0.784,1.046,1.4,1.792,1.848C281.291,243.601,282.149,243.816,283.101,243.816z"/>
<rect x="-123" y="-105.5" fill="none" stroke="#BDBDBD" width="641" height="463"/>
</svg>
