<?xml version="1.0" encoding="utf-8"?>
<!-- Generator: Adobe Illustrator 16.0.0, SVG Export Plug-In . SVG Version: 6.00 Build 0)  -->
<!DOCTYPE svg PUBLIC "-//W3C//DTD SVG 1.1//EN" "http://www.w3.org/Graphics/SVG/1.1/DTD/svg11.dtd">
<svg version="1.1" id="Layer_1" xmlns="http://www.w3.org/2000/svg" xmlns:xlink="http://www.w3.org/1999/xlink" x="0px" y="0px"
	 width="100px" height="100px" viewBox="0 0 100 100" enable-background="new 0 0 100 100" xml:space="preserve">
<g>
	<path fill-rule="evenodd" clip-rule="evenodd" fill="#E20613" d="M70.135,72.106c-4.39-2.607-7.228-7.723-7.228-13.136
		c0-5.446,2.771-10.298,7.161-12.938l0,0H11.982L6.504,72.106H70.135L70.135,72.106z"/>
	<path fill-rule="evenodd" clip-rule="evenodd" fill="#E20613" d="M91.322,57.782c-0.627-6.469-6.237-11.519-12.706-11.519
		c-6.139,0-11.221,4.126-12.508,9.868c0,0,1.353,1.354,5.742,1.354c3.828,0.132,7.194-2.476,12.146-2.476
		C87.824,55.01,89.837,56.825,91.322,57.782L91.322,57.782L91.322,57.782z"/>
	<path fill-rule="evenodd" clip-rule="evenodd" fill="#00529C" d="M90.959,61.446c-1.353-0.76-2.903-1.42-5.544-1.42
		c-4.555,0-7.459,2.41-12.409,2.41c-4.488,0-7.029-2.41-7.029-2.41c0.561,6.403,6.039,11.387,12.64,11.387
		C84.722,71.413,89.837,67.287,90.959,61.446L90.959,61.446L90.959,61.446z"/>
	<path fill-rule="evenodd" clip-rule="evenodd" fill="#00529C" d="M83.599,43.896l3.737-17.244h4.916l-3.789,17.244H83.599
		L83.599,43.896z M25.889,26.651c2.253,0,3.84,0.202,4.711,0.86c1.28,1.011,1.741,2.629,1.229,4.804
		c-0.41,2.023-1.537,3.945-3.072,4.905c-1.639,1.012-3.124,0.961-5.224,0.961h-4.916l-1.229,5.714h-4.916l3.738-17.244H25.889
		L25.889,26.651z M20.256,30.697l-0.717,3.337h3.841c2.15,0,3.021,0.354,3.431-1.669c0.41-1.719-0.41-1.668-2.868-1.668H20.256
		L20.256,30.697z M37.819,33.175h9.678l-0.921,4.147h-9.627c-0.563,2.427-0.665,2.275,2.202,2.275h7.527l-0.922,4.298H38.28
		c-1.741,0-4.404,0.051-5.684-1.011c-1.537-1.214-1.076-3.591-0.256-7.282c1.383-6.474,2.407-8.951,9.012-8.951h8.193l-0.87,4.046
		h-7.63C38.229,30.697,38.434,30.444,37.819,33.175L37.819,33.175z M60.504,26.651c2.305,0,3.841,0.202,4.711,0.86
		c1.28,1.011,1.741,2.629,1.28,4.804c-0.461,2.023-1.587,3.945-3.072,4.905c-1.639,1.012-3.175,0.961-5.223,0.961h-4.916
		l-1.28,5.714h-4.916l3.79-17.244H60.504L60.504,26.651z M54.871,30.697l-0.717,3.337h3.892c2.1,0,2.971,0.354,3.431-1.669
		c0.358-1.719-0.46-1.668-2.919-1.668H54.871L54.871,30.697z M75.661,30.899c-1.844,0-2.663-0.152-2.919,1.112
		c-0.307,1.214,0.461,1.163,1.945,1.163h4.968c4.455,0,4.353,2.984,3.789,5.563c-0.768,3.641-3.533,5.158-7.477,5.158H65.522
		l0.922-4.197h9.063c1.843,0,2.663,0.252,2.97-1.113c0.307-1.366-0.512-1.214-2.202-1.214h-5.172c-3.533,0-3.994-2.427-3.328-5.411
		c0.717-3.388,3.227-5.31,7.22-5.31h10.651l-0.922,4.248H75.661L75.661,30.899z"/>
	<path fill-rule="evenodd" clip-rule="evenodd" fill="#00529C" d="M55.22,41.901c0.19,0,0.377,0.049,0.559,0.146
		c0.183,0.099,0.325,0.239,0.426,0.422c0.102,0.182,0.152,0.373,0.152,0.571c0,0.195-0.049,0.384-0.149,0.565
		c-0.1,0.181-0.241,0.322-0.421,0.422c-0.181,0.101-0.369,0.15-0.566,0.15s-0.386-0.05-0.566-0.15
		c-0.181-0.1-0.322-0.241-0.422-0.422c-0.101-0.181-0.151-0.37-0.151-0.565c0-0.199,0.052-0.389,0.153-0.571
		c0.103-0.183,0.244-0.323,0.427-0.422C54.842,41.95,55.029,41.901,55.22,41.901L55.22,41.901z M55.22,42.089
		c-0.16,0-0.316,0.041-0.467,0.123c-0.152,0.083-0.27,0.2-0.355,0.351c-0.086,0.153-0.128,0.311-0.128,0.477
		c0,0.164,0.042,0.32,0.126,0.47c0.084,0.15,0.201,0.268,0.352,0.352c0.151,0.084,0.308,0.126,0.473,0.126
		c0.164,0,0.321-0.042,0.472-0.126c0.151-0.084,0.268-0.202,0.352-0.352c0.083-0.15,0.125-0.307,0.125-0.47
		c0-0.166-0.042-0.324-0.127-0.477c-0.085-0.151-0.203-0.269-0.355-0.351C55.534,42.13,55.378,42.089,55.22,42.089L55.22,42.089z
		 M54.72,43.669v-1.225h0.421c0.145,0,0.248,0.011,0.312,0.034s0.115,0.062,0.153,0.119c0.039,0.056,0.058,0.116,0.058,0.18
		c0,0.09-0.031,0.167-0.096,0.233c-0.063,0.067-0.148,0.104-0.254,0.112c0.043,0.019,0.078,0.04,0.104,0.065
		c0.05,0.048,0.109,0.129,0.182,0.244l0.149,0.239h-0.242l-0.107-0.193c-0.086-0.152-0.155-0.247-0.207-0.285
		c-0.036-0.028-0.089-0.042-0.159-0.042h-0.115v0.52H54.72L54.72,43.669z M54.918,42.98h0.24c0.114,0,0.192-0.018,0.233-0.052
		c0.042-0.034,0.063-0.079,0.063-0.136c0-0.036-0.011-0.069-0.031-0.098c-0.02-0.028-0.047-0.05-0.083-0.064
		c-0.035-0.014-0.102-0.021-0.198-0.021h-0.225V42.98L54.918,42.98z"/>
</g>
</svg>
