<?xml version="1.0" encoding="utf-8"?>
<!-- Generator: Adobe Illustrator 16.0.0, SVG Export Plug-In . SVG Version: 6.00 Build 0)  -->
<!DOCTYPE svg PUBLIC "-//W3C//DTD SVG 1.1//EN" "http://www.w3.org/Graphics/SVG/1.1/DTD/svg11.dtd">
<svg version="1.1" id="Layer_1" xmlns="http://www.w3.org/2000/svg" xmlns:xlink="http://www.w3.org/1999/xlink" x="0px" y="0px"
	 width="100px" height="100px" viewBox="0 0 100 100" enable-background="new 0 0 100 100" xml:space="preserve">
<circle fill="#EC202A" cx="50" cy="50" r="50"/>
<g>
	<path fill="#FFFFFF" d="M54.357,53.188c1.178,0,1.971,0.711,1.971,1.522c0,1.124-1.178,2.774-3.434,2.774
		c-1.686,0-1.936-1.061-1.936-1.529C50.96,55.115,52.195,53.188,54.357,53.188L54.357,53.188z"/>
	<path fill="#FFFFFF" d="M58.868,58.288c0-0.524,0.129-2.056,0.129-2.896L58.805,41.23c0-3.677,1.129-6.11,2.248-7.696
		c1.107-1.565,3.666-4.481,7.223-4.481c2.736,0,4.16,2.176,4.16,4.581c0,2.646-0.92,4.759-4.064,7.625
		c-3.146,2.867-3.907,2.952-3.907,3.77c0,0.775,1.013,1.273,1.554,1.65c0.543,0.37,2.67,1.807,3.719,2.709
		c1.048,0.897,1.367,1.523,1.367,2.391c0,1.5-0.664,2.332-1.303,3.271c-1.019,1.501-4.802,5.265-6.736,8.877
		c-0.447,0.712-0.809,0.705-1.111,0.313c-0.549-0.713-0.986-1.254-1.145-1.75c-0.156-0.498-0.445-1.311,0.063-2.084
		c0.509-0.776,4.099-5.137,5.366-6.723c1.111-1.396,1.08-3.365,0.256-4.146c-0.825-0.775-2.71-2.426-3.271-3.08
		c-0.476-0.562-0.824-1.735,0-2.675c2.604-2.958,5.4-6.294,5.4-9.595c0-1.87-1.242-3.144-2.225-3.144
		c-2.381,0-4.447,4.36-4.543,8.315L62.3,54.803c0,1.152,0.027,1.706-0.854,2.717c-0.844,0.961-1.687,1.268-2.162,1.268
		C59.029,58.786,58.868,58.602,58.868,58.288L58.868,58.288z"/>
	<path fill="#FFFFFF" d="M92.289,42.696c0,0.526,0.439,0.96,0.979,0.96c0.537,0,0.978-0.434,0.978-0.96
		c0-0.527-0.438-0.96-0.978-0.96S92.289,42.169,92.289,42.696L92.289,42.696z M92.57,42.696c0-0.441,0.305-0.747,0.697-0.747
		c0.387,0,0.694,0.306,0.694,0.747c0,0.441-0.308,0.747-0.694,0.747C92.875,43.443,92.57,43.137,92.57,42.696L92.57,42.696z
		 M92.875,43.223h0.232v-0.448h0.11l0.261,0.448h0.238l-0.287-0.462c0.168-0.007,0.287-0.085,0.287-0.277
		c0-0.243-0.158-0.32-0.434-0.32h-0.409L92.875,43.223L92.875,43.223z M93.107,42.597v-0.256h0.166c0.092,0,0.209,0.006,0.209,0.121
		c0,0.121-0.074,0.135-0.186,0.135H93.107L93.107,42.597z"/>
	<path fill="#FFFFFF" d="M29.529,64.661c0-2.433,2.288-6.024,4.431-6.024c0.382,0,0.621,0.094,1.049,0.094
		c0.524,0,0.811-1.074,1.621-1.074c0.715,0,1.397,0.234,1.397,1.955c0,0.848,0.685,2.197,1.224,2.197
		c1.192,0,1.958-3.293,2.526-4.857c0.146-0.396,0.572-0.789,0.906-0.789c0.637,0,0.938,0.477,1.001,1.011
		c0.062,0.525,0.156,2.923,0.793,2.923c0.767,0,1.465-2.177,2.066-3.394c0.602-1.216,1.269-2.24,1.746-2.24s0.423,0.435,0.415,0.812
		c-0.096,3.422-0.257,18.808-0.224,19.084c0.033,0.277-0.127,0.498-0.381,0.498c-0.253,0-1.654,0.035-1.905,0.035
		c-0.253,0-0.415-0.283-0.415-0.533l0.162-12.574c0-0.721-0.435-0.584-0.731-0.157c-0.891,1.302-1.459,2.147-2.382,2.147
		c-1.561,0-0.888-1.963-1.559-1.963c-0.67,0-1.685,3.236-3.559,3.236c-1.811,0-1.367-1.992-2.001-1.992
		c-0.731,0-2.16,3.521-4.542,3.521C30.464,66.574,29.529,66.312,29.529,64.661L29.529,64.661z"/>
	<path fill="#EC202A" d="M32.246,63.893c0-0.931,1.775-3.763,2.604-3.763c0.285,0,0.477,0.278,0.477,0.591
		c0,0.84-1.871,3.734-2.603,3.734C32.466,64.455,32.246,64.326,32.246,63.893L32.246,63.893z"/>
	<path fill="#FFFFFF" d="M72.088,53.4c0-2.459,2.48-6.756,5.182-6.756c0.381,0,0.824-0.093,1.076-0.37
		c0.252-0.284,0.479-0.626,0.985-0.626c0.854,0,1.043,0.783,1.144,1.43c0.158,1.031,0.289,2.745,1.051,2.745
		c0.57,0,0.771-0.534,1.082-1.273c0.283-0.683,1.393-3.059,1.808-3.805c0.413-0.747,0.887-0.932,1.237-0.932
		c0.352,0,0.857,0.341,0.857,0.81c0,0.47,0.066,1.558,0.066,1.558c0,0.555,0.458,0.662,0.826-0.221c0.443-1.06,1.334-3.3,2.51-3.3
		c0.822,0,1.077,0.775,1.363,1.835c0.287,1.061,0.766,3.237,1.973,3.237c0.381,0,1.049-0.583,1.333-0.306
		c0.265,0.256-0.411,1.181-0.952,1.8c-0.541,0.626-1.145,1.216-2.001,1.216c-0.858,0-1.485-0.32-1.907-1.337
		c-0.348-0.839-0.541-2.305-1.049-2.305c-0.445,0-0.734,0.719-1.273,1.871c-0.539,1.152-1.613,3.3-2.729,3.3
		c-0.734,0-0.891-0.562-0.891-1.494c0-0.377-0.266-0.754-0.699,0.028c-0.73,1.31-1.396,2.832-2.795,2.832
		c-1.206,0-1.641-0.961-1.844-1.679c-0.096-0.342-0.348-0.626-0.635-0.186c-0.285,0.435-1.715,2.269-2.384,2.83
		c-0.667,0.562-1.207,0.996-2.067,0.996C72.497,55.301,72.088,54.682,72.088,53.4L72.088,53.4z"/>
	<path fill="#EC202A" d="M74.947,51.688c0-0.84,1.748-3.265,2.574-3.265c0.281,0,0.379,0.185,0.379,0.405
		c0,0.626-1.619,3.484-2.479,3.484C75.139,52.312,74.947,52,74.947,51.688L74.947,51.688z"/>
	<path fill="#FFFFFF" d="M21.146,67.577c0-0.47-0.434-0.634-0.434-0.634l-4.194-1.912c-0.715-0.326-0.62-0.654,0-1.024l4.099-2.524
		c0.478-0.277,0.525-0.654,0.525-1.166l-0.047-13.167c0-0.427,0.047-0.704,0.428-0.939l1.622-1.024
		c0.667-0.327,1.286-0.327,1.286,0.462v12.006c0,0.562,0.277,0.981,1.001,0.42c3.908-3.036,7.721-6.21,7.721-11.068
		c0-2.802-1.812-4.53-4.337-4.53c-6.148,0-16.38,6.856-20.16,9.388c-0.855,0.569-2.907,2.282-3.289,2.661
		c-0.38,0.369-0.762,0.513-0.762-0.234s0.048-1.777,0.048-2.618c0-0.839,0.309-2.561,1.524-3.314c8.483-5.278,16.443-8.5,21.971-8.5
		c5.527,0,7.435,3.642,7.435,6.26c0,4.9-3.67,9.296-10.819,14.617c-0.333,0.285-0.333,0.797-0.333,0.933v2.476
		c0,0.562,0.287,0.89,0.811,1.123l11.104,5.137c1.097,0.52,1.001,1.217,0.811,1.587c-0.19,0.377-0.366,0.896-0.619,1.123
		c-0.573,0.513-1.049,0.653-2.002,0.284l-9.199-4.303c-0.524-0.328-0.906-0.094-0.953,0.326l0.095,2.29
		c0,0.562-0.191,1.167-0.81,1.543c-0.62,0.371-1.335,0.841-1.716,1.024c-0.381,0.193-0.762,0.285-0.762-0.369
		c0-0.655-0.058-5.982-0.048-5.982C21.141,67.926,21.146,68.047,21.146,67.577L21.146,67.577z"/>
</g>
</svg>
