<?xml version="1.0" encoding="utf-8"?>
<!-- Generator: Adobe Illustrator 16.0.0, SVG Export Plug-In . SVG Version: 6.00 Build 0)  -->
<!DOCTYPE svg PUBLIC "-//W3C//DTD SVG 1.1//EN" "http://www.w3.org/Graphics/SVG/1.1/DTD/svg11.dtd">
<svg version="1.1" id="Layer_1" xmlns="http://www.w3.org/2000/svg" xmlns:xlink="http://www.w3.org/1999/xlink" x="0px" y="0px"
	 width="100px" height="100px" viewBox="0 0 100 100" enable-background="new 0 0 100 100" xml:space="preserve">
<circle fill="#040586" cx="50" cy="50" r="50"/>
<g>
	<circle fill="#FFC500" cx="49.838" cy="39.378" r="11.305"/>
	<path fill="#FFFFFF" d="M49.293,44.705c-0.084-0.062-0.187-0.113-0.295-0.169c-0.125-0.063-0.269-0.137-0.344-0.207
		c-0.141-0.131-0.266-0.359-0.398-0.601c-0.11-0.202-0.225-0.411-0.368-0.601c-0.093-0.125-0.217-0.229-0.327-0.321
		c-0.069-0.058-0.172-0.145-0.194-0.183c-0.156-0.292-0.249-0.686-0.339-1.067c-0.035-0.146-0.07-0.296-0.109-0.438
		c-0.187-0.687-0.297-1.192-0.358-1.644c-0.179-1.333-0.71-2.062-1.443-2.944c-0.669-0.808-1.339-1.479-2.109-2.109
		c-0.175-0.144-0.345-0.299-0.526-0.465c-0.538-0.493-1.147-1.051-1.981-1.329c-0.279-0.093-0.557-0.139-0.827-0.139
		c-0.742,0-1.314,0.344-1.817,0.647c-0.175,0.105-0.341,0.205-0.502,0.283c-0.283,0.139-0.621,0.253-0.978,0.375
		c-0.602,0.203-1.222,0.413-1.667,0.775c-0.118,0.095-0.227,0.204-0.333,0.31c-0.191,0.188-0.388,0.384-0.557,0.429
		c-0.046,0.012-0.127,0.013-0.205,0.013h-0.094c-0.102,0-0.214,0.001-0.341,0.014c-0.816,0.077-1.353,0.541-1.827,0.95
		c-0.276,0.239-0.537,0.464-0.821,0.586c-0.301,0.128-0.589,0.159-0.922,0.196c-0.235,0.025-0.479,0.052-0.747,0.115
		c-0.831,0.195-1.471,0.673-2.09,1.136c-0.627,0.467-1.219,0.91-1.966,1.029c-0.076,0.013-0.152,0.018-0.226,0.018
		c-0.415,0-0.778-0.206-0.968-0.552c-0.196-0.356-0.176-0.787,0.056-1.149c0.164-0.26,0.497-0.514,0.849-0.782
		c0.659-0.504,1.405-1.074,1.415-1.986c0.005-0.588-0.205-1.027-0.625-1.304c-0.342-0.225-0.773-0.313-1.19-0.396
		c-0.29-0.059-0.588-0.12-0.839-0.224c-0.188-0.078-0.345-0.197-0.497-0.312c-0.186-0.141-0.363-0.275-0.586-0.33l-0.277-0.069
		l-0.135,0.252c-0.287,0.533-0.287,1.157-0.001,1.711c0.317,0.614,0.948,1.064,1.604,1.145c0.159,0.02,0.309,0.02,0.439,0.02
		c0.027,0,0.058,0,0.088,0c-0.133,0.125-0.349,0.279-0.459,0.358c-0.122,0.087-0.228,0.162-0.306,0.232
		c-0.561,0.5-0.881,0.863-1.04,1.175c-0.414,0.815-0.379,1.727,0.095,2.499c0.519,0.845,1.454,1.35,2.499,1.35
		c0.311,0,0.625-0.044,0.937-0.134c0.001,0.077-0.002,0.157-0.006,0.245c-0.006,0.152-0.014,0.326,0.006,0.512
		c0.036,0.33,0.167,0.613,0.283,0.863c0.078,0.169,0.167,0.361,0.158,0.452c-0.049,0.15-0.692,0.453-1.331,0.453
		c-0.04,0-0.079-0.001-0.115-0.003l-0.119-0.01l-0.102,0.064c-0.398,0.247-0.5,0.626-0.581,0.93
		c-0.037,0.14-0.072,0.272-0.131,0.374c-0.089,0.152-0.258,0.247-0.454,0.356c-0.005,0.003-0.011,0.006-0.017,0.009
		c-0.008-0.122-0.056-0.239-0.145-0.342c-0.082-0.097-0.181-0.162-0.275-0.222c-0.097-0.061-0.198-0.092-0.3-0.092
		c-0.215,0-0.362,0.128-0.504,0.253l-0.011,0.007c-0.055,0.049-0.144,0.104-0.23,0.158c-0.134,0.084-0.272,0.172-0.373,0.281
		c-0.102,0.111-0.156,0.277-0.159,0.454c-0.033-0.006-0.068-0.009-0.103-0.009c-0.007,0-0.013,0-0.02,0
		c-0.156,0.006-0.447,0.078-0.651,0.498c-0.127,0.26-0.132,0.516-0.134,0.722c-0.001,0.042-0.001,0.083-0.003,0.121
		c-0.008,0.007-0.018,0.016-0.025,0.022c-0.068,0.058-0.248,0.21-0.208,0.463c0.041,0.249,0.28,0.377,0.532,0.479
		c0.079,0.032,0.351,0.137,0.528,0.14h0.014c0.111,0,0.209-0.03,0.29-0.088l0.162,0.022c0.122,0.016,0.244,0.045,0.374,0.078
		c0.203,0.05,0.413,0.101,0.641,0.101c0.173,0,0.334-0.029,0.491-0.09c0.384-0.149,0.561-0.476,0.703-0.738
		c0.076-0.14,0.16-0.296,0.227-0.309c0.037,0,0.115,0.021,0.183,0.041c0.124,0.035,0.28,0.079,0.455,0.079
		c0.034,0,0.068-0.002,0.1-0.004c0.502-0.051,0.892-0.384,1.205-0.652c0.166-0.142,0.323-0.276,0.454-0.334
		c0.125-0.056,0.259-0.083,0.421-0.083c0.191,0,0.397,0.037,0.613,0.077c0.248,0.045,0.504,0.091,0.778,0.091
		c0.101,0,0.2-0.007,0.293-0.02c0.379-0.052,0.611-0.219,0.817-0.367c0.079-0.057,0.152-0.109,0.233-0.155
		c0.083-0.048,0.191-0.083,0.294-0.118c0.137-0.045,0.266-0.087,0.371-0.167c0.239-0.178,0.374-0.475,0.491-0.736
		c0.043-0.097,0.084-0.188,0.127-0.264c0.013-0.023,0.029-0.052,0.046-0.081c0.099-0.167,0.234-0.398,0.25-0.643
		c0.096,0.019,0.198,0.028,0.308,0.028c0.255,0,0.523-0.049,0.782-0.097c0.211-0.039,0.41-0.075,0.593-0.085
		c0.042-0.003,0.085-0.004,0.129-0.004c0.347,0,0.716,0.072,1.073,0.141c0.363,0.071,0.708,0.138,1.042,0.138
		c0.301,0,0.554-0.056,0.773-0.17l0.117-0.06c0.208,0.198,0.467,0.363,0.726,0.522c-0.003,0-0.005,0-0.009,0
		c-0.065,0-0.133-0.001-0.198-0.001c-0.315,0-0.636,0.02-0.796,0.269c-0.007,0.014-0.017,0.027-0.025,0.042
		c-0.089-0.06-0.191-0.106-0.309-0.131c-0.143-0.031-0.309-0.047-0.494-0.047c-0.1,0-0.985,0.01-1.229,0.333
		c-0.227,0.303-0.032,0.629,0.139,0.917c0.023,0.038,0.046,0.078,0.07,0.12c0.045,0.078,0.084,0.16,0.121,0.24
		c0.117,0.249,0.26,0.557,0.616,0.58c0.023,0.001,0.048,0.002,0.072,0.002c0.086,0,0.173-0.008,0.25-0.016
		c0.015-0.001,0.031-0.001,0.047-0.004c0.07,0.092,0.134,0.189,0.197,0.285c0.253,0.381,0.567,0.856,1.309,0.856
		c0.024,0,0.05,0,0.077-0.001c0.353-0.015,0.936-0.251,1.553-0.5c0.322-0.13,0.626-0.253,0.871-0.333
		c0.078-0.025,0.231-0.044,0.366-0.062c0.228-0.03,0.441-0.056,0.603-0.134c0.338-0.161,0.749-0.773,0.956-1.222
		c0.011,0.107,0.036,0.214,0.062,0.32c0.016,0.071,0.036,0.152,0.039,0.191c0.024,0.354,0.404,0.6,0.925,0.6
		c0.216,0,0.44-0.042,0.667-0.126c0.115-0.042,0.216-0.081,0.307-0.116c0.389-0.146,0.566-0.212,0.753-0.224
		c0.061-0.004,0.126-0.006,0.201-0.006c0.135,0,0.277,0.007,0.415,0.014c0.139,0.005,0.271,0.012,0.399,0.012
		c0.058,0,0.108,0,0.156-0.002c0.379-0.019,0.682-0.289,0.902-0.483c0.044-0.039,0.104-0.093,0.148-0.127
		c0.038,0.032,0.092,0.091,0.135,0.136c0.195,0.21,0.492,0.528,1.07,0.723c0.393,0.133,0.723,0.199,0.98,0.199
		c0.478,0,0.646-0.226,0.701-0.362c0.032-0.077,0.076-0.243-0.052-0.422c0.042,0.003,0.084,0.004,0.124,0.004
		c0.482,0,0.625-0.234,0.667-0.374C49.536,45.147,49.571,44.907,49.293,44.705z M41.585,43.099
		c-0.044,0.042-0.095,0.086-0.147,0.132c-0.204,0.177-0.481,0.418-0.583,0.775c-0.085-0.169-0.188-0.326-0.284-0.474
		c-0.125-0.191-0.245-0.374-0.302-0.551c0.015,0.001,0.03,0.001,0.046,0.001c0.262,0,0.607-0.071,0.999-0.206
		c0.115-0.04,0.272-0.074,0.43-0.099C41.677,42.809,41.618,42.953,41.585,43.099z"/>
	<g>
		<g>
			<path fill="#FB0045" d="M27.714,64.976h4.143c0,0-0.172-1.955-2.043-1.955C27.944,63.021,27.714,64.976,27.714,64.976
				L27.714,64.976L27.714,64.976z M29.762,60.661c5.581,0,5.351,5.437,5.351,5.437v0.862h-7.566c0,1.237,1.036,2.303,2.446,2.303
				s2.128-1.353,2.128-1.353l2.675,1.322c-1.237,1.872-2.906,2.618-4.775,2.618c-5.811,0-5.926-4.832-5.926-5.437
				S24.18,60.661,29.762,60.661L29.762,60.661L29.762,60.661z"/>
			<path fill="#FB0045" d="M42.079,68.801L42.079,68.801c-0.173,0-2.332,0.03-2.332-2.616c0-2.647,2.36-2.733,2.36-2.733
				s2.646,0.086,2.646,2.677C44.753,68.716,42.25,68.801,42.079,68.801L42.079,68.801L42.079,68.801z M45.051,53.922v7.976
				c0,0-1.612-1.236-3.453-1.236c-1.841,0-4.948,1.295-4.948,5.379c0,4.085,2.647,5.638,4.92,5.638c2.272,0,3.538-1.494,3.538-1.494
				v1.326h3.279V53.922H45.051L45.051,53.922z"/>
			<path fill="#FB0045" d="M66.634,61.207h3.338v5.896c0,0,0.114,1.987,1.985,1.987c1.869,0,1.842-1.987,1.842-1.987v-5.867h3.364
				v6.069c0,0,0.433,4.746-5.121,4.746c-5.55,0-5.407-4.169-5.407-4.916C66.634,66.386,66.634,61.207,66.634,61.207L66.634,61.207
				L66.634,61.207z"/>
			<polygon fill="#FB0045" points="79.056,53.922 82.351,53.922 82.351,71.51 79.056,71.51 			"/>
			<polygon fill="#FB0045" points="84.749,53.922 88,53.922 88,71.51 84.749,71.51 			"/>
			<path fill="#FB0045" d="M59.651,68.572L59.651,68.572H56.53V57.567h1.668c0,0,2.269-0.171,2.269,1.807
				c0,1.979-1.804,1.804-1.804,1.804h-1.039v2.964c0,0,1.495,0,2.027,0c0.531,0,2.223,0.257,2.223,2.206
				S59.651,68.572,59.651,68.572L59.651,68.572L59.651,68.572z M62.457,62.33c0,0,1.524-1.186,1.524-3.433
				c0-2.248-1.634-4.275-5.109-4.275c-3.478,0-5.824,0-5.824,0l0.001,16.888h7.171c0,0,5.14-0.058,5.14-4.703
				C65.36,64.112,64.313,63.079,62.457,62.33L62.457,62.33L62.457,62.33z"/>
			<path fill="#FB0045" d="M12.179,54.262V71.51h3.481V57.554h1.639c0,0,2.561-0.115,2.561,2.217c0,2.328-2.272,2.271-2.272,2.271
				h-0.834v3.969l3.481,5.499h4.084l-4.861-7.052c0,0,3.998-0.344,3.998-4.688c0-4.345-3.02-5.509-7.047-5.509
				S12.179,54.262,12.179,54.262L12.179,54.262L12.179,54.262z"/>
		</g>
	</g>
	<path fill="#FB0045" d="M21.663,45.403c0.123-0.135,0.405-0.264,0.573-0.411c0.169-0.147,0.245-0.217,0.378-0.136
		c0.131,0.083,0.299,0.194,0.232,0.361c-0.067,0.168-0.485,0.754-0.733,0.791c-0.247,0.038-0.45-0.098-0.493-0.249
		C21.577,45.611,21.611,45.46,21.663,45.403z M20.791,46.257c-0.118,0.239-0.089,0.484-0.102,0.723
		c-0.012,0.24-0.255,0.273-0.236,0.386c0.018,0.113,0.562,0.307,0.705,0.31c0.143,0.003,0.125-0.104,0.175-0.374
		c0.048-0.269,0.26-0.704,0.255-0.822c-0.01-0.177-0.271-0.521-0.464-0.514C21.042,45.97,20.906,46.019,20.791,46.257z
		 M39.998,42.463c-0.007-0.189,0.251-0.398,0.404-1c0.119-0.468,0.08-1.146,0-1.133c-0.08,0.012-0.178,0.312-0.233,0.644
		c-0.055,0.331-0.324,1.066-0.557,1.232c-0.326,0.233-0.779,0.135-1.103,0.441c0.023,0.396,0.279,0.715,0.478,1.066
		c0.365,0.647,0.742,0.858,0.294,2.061c0.34-0.199,0.656-0.628,0.662-0.993c0.008-0.588-0.817-1.364-0.883-1.949
		c0.236-0.18,0.568-0.067,0.809,0.038c0.073,0.694,0.873,1.203,0.81,1.986c-0.018,0.224-0.547,1.163-0.883,1.323
		c-0.198,0.095-0.681,0.098-0.925,0.178c-0.708,0.233-1.871,0.796-2.325,0.815c-0.81,0.035-0.926-0.612-1.379-1.122
		c-0.051-0.06-0.337,0.012-0.532,0c-0.197-0.012-0.263-0.332-0.441-0.637c-0.178-0.307-0.325-0.509-0.233-0.632
		c0.092-0.124,0.87-0.251,1.349-0.147c0.618,0.135,0.657,1.283,1.324,1.435c0.548,0.125,1.438-0.305,1.507-0.736
		c0.052-0.327-0.21-0.744-0.405-0.957c-0.431-0.471-1.376-0.784-1.691-1.323c-0.153-0.264-0.04-0.443-0.294-0.699
		c-0.338,0.167,0.053,0.582-0.037,0.956c-0.728,0.38-1.83-0.204-2.869-0.146c-0.74,0.042-1.626,0.446-2.023-0.11
		c-0.18-0.254-0.207-0.837-0.184-1.251c0.019-0.322,0.186-0.671,0-0.883c-0.396,0.509-0.237,1.337-0.441,1.986
		c-0.342,1.092-1.408,1.742-2.722,1.839c-1.302,0.096-2.616,0.213-3.089,1.435c0.214-0.059,0.357-0.241,0.514-0.368
		c0.524-0.421,1.173-0.719,2.097-0.771c1.406-0.081,2.354-0.139,3.052-0.994c0.172-0.21,0.235-0.457,0.478-0.699
		c0.546,0.133,0.174,0.633,0.037,0.883c-0.16,0.292-0.281,0.709-0.515,0.883c-0.118,0.087-0.398,0.13-0.625,0.258
		c-0.315,0.177-0.501,0.42-0.919,0.478c-0.767,0.105-1.491-0.356-2.207-0.038c-0.462,0.207-0.914,0.894-1.544,0.957
		c-0.292,0.029-0.553-0.153-0.772-0.111c-0.47,0.089-0.474,0.865-0.993,1.066c-0.448,0.175-0.855-0.048-1.324-0.11
		c0.051-0.452,0.251-0.884,0.442-1.196c0.538,0.008,0.559-0.395,0.889-0.705c0.316-0.298,0.79-0.385,1.024-0.784
		c0.227-0.39,0.152-0.907,0.588-1.177c0.675,0.052,1.786-0.288,1.84-0.771c0.041-0.375-0.382-0.846-0.442-1.397
		c-0.046-0.425,0.077-0.792-0.086-1.203c-2.415,0.993-4.45-1.151-3.481-3.064c0.17-0.336,0.599-0.747,0.957-1.066
		c0.247-0.221,1.033-0.658,0.993-0.993c-0.042-0.34-0.487-0.2-0.957-0.258c-0.996-0.122-1.883-1.278-1.324-2.316
		c0.3,0.074,0.571,0.435,1.03,0.625c1.014,0.421,2.441,0.155,2.428,1.582c-0.012,1.176-1.678,1.739-2.207,2.574
		c-0.687,1.084,0.144,2.462,1.507,2.244c1.609-0.257,2.507-1.799,4.083-2.169c0.625-0.146,1.149-0.083,1.729-0.331
		c0.855-0.367,1.385-1.401,2.538-1.508c0.303-0.028,0.523,0.009,0.699-0.038c0.384-0.101,0.701-0.541,1.029-0.81
		c0.639-0.52,1.782-0.716,2.575-1.104c0.813-0.397,1.593-1.197,2.869-0.772c1.019,0.339,1.673,1.141,2.39,1.729
		c0.794,0.651,1.442,1.315,2.059,2.059c0.72,0.869,1.195,1.52,1.361,2.757c0.072,0.534,0.207,1.103,0.369,1.693
		c0.136,0.501,0.234,1.125,0.478,1.582c0.098,0.182,0.403,0.354,0.552,0.551c0.302,0.404,0.493,0.955,0.809,1.251
		c0.264,0.247,0.802,0.373,0.754,0.539c-0.049,0.166-0.563,0.123-0.841,0.019c-0.68-0.258-1.023-0.988-1.287-1.379
		c-0.263-0.393-0.705-0.607-0.735-0.545c-0.031,0.061,0.331,0.467,0.49,0.779c0.156,0.308,0.23,0.712,0.441,0.994
		c0.177,0.237,0.391,0.351,0.625,0.479c0.252,0.135,0.632,0.293,0.582,0.41c-0.048,0.117-0.331,0.257-1.225-0.043
		c-0.896-0.301-0.969-0.926-1.361-0.895c-0.228,0.018-0.601,0.608-1.03,0.629c-0.335,0.017-0.779-0.041-1.177-0.016
		c-0.295,0.019-0.534,0.129-1.165,0.361c-0.631,0.233-1.085,0.024-1.097-0.153c-0.013-0.178-0.129-0.473-0.099-0.636
		c0.069-0.372,0.355-0.565,0.318-0.687c-0.053-0.193-0.288,0.114-0.404-0.037c-0.09-0.57,0.452-0.821,0.735-1.141
		c0.044-0.422,0.487-0.948,0.445-0.999c-0.041-0.051-0.792,0.019-1.181,0.153C40.445,42.686,40.004,42.654,39.998,42.463z
		 M40.127,35.991c-0.592-0.04-0.079,0.582,0,0.736c0.216,0.422,0.209,1.016,0.404,1.287C40.886,37.446,40.616,36.024,40.127,35.991z
		 M45.183,40.501c-0.151-0.139-0.39-0.681-0.652-0.634c-0.261,0.046-0.335,0.556-0.483,0.785c-0.146,0.23-0.248,0.603-0.064,0.576
		c0.184-0.028,0.332-0.451,0.592-0.454c0.185-0.002,0.597,0.426,0.699,0.772c0.061,0.205-0.049,0.474,0.147,0.588
		c0.308-0.077,0.3-0.58,0.221-0.956C45.599,40.967,45.334,40.639,45.183,40.501z M36.029,44.564
		c-0.118,0.182,0.272,0.179,0.386,0.553c0.113,0.375,0.211,0.521,0.347,0.577c0.135,0.054,0.885-0.172,0.822-0.399
		c-0.064-0.227-0.172-0.267-0.191-0.487c-0.019-0.221-0.11-0.391-0.276-0.355C36.866,44.504,36.142,44.392,36.029,44.564z
		 M44.453,44.532c0.195-0.116,0.28-0.658-0.003-0.681c-0.345-0.025-0.866,0.517-0.744,0.703
		C43.801,44.701,44.28,44.633,44.453,44.532z"/>
	<path fill="#FFFFFF" d="M79.122,46.887c-0.01-0.038-0.013-0.125-0.014-0.184c-0.003-0.095-0.006-0.202-0.025-0.312
		c-0.068-0.375-0.462-0.743-0.794-0.743c-0.006,0-0.011,0-0.016,0.001c0-0.074-0.015-0.145-0.044-0.21
		c-0.06-0.134-0.228-0.321-0.499-0.559c-0.438-0.383-0.587-0.401-0.661-0.411c-0.021-0.002-0.043-0.004-0.065-0.004
		c-0.244,0-0.471,0.15-0.591,0.28c-0.088,0.092-0.143,0.194-0.166,0.299c-0.075-0.053-0.146-0.108-0.216-0.181
		c-0.042-0.073-0.101-0.32-0.141-0.485c-0.099-0.415-0.183-0.772-0.411-0.953c-0.198-0.157-0.454-0.172-0.698-0.186
		c-0.329-0.02-0.534-0.042-0.653-0.213c-0.039-0.057-0.038-0.092,0.063-0.306c0.019-0.04,0.037-0.081,0.056-0.123
		c0.094-0.224,0.238-0.716,0.137-1.509c-0.011-0.089-0.031-0.169-0.056-0.241c0.217,0.059,0.453,0.088,0.697,0.088
		c0.423,0,0.865-0.091,1.245-0.255l0.009-0.003l0.007-0.003c0.883-0.43,1.432-1.297,1.397-2.209v-0.011l-0.001-0.01
		c-0.096-0.992-0.684-1.948-1.75-2.844c-0.017-0.013-0.031-0.027-0.048-0.041c-0.021-0.017-0.041-0.036-0.063-0.055
		c0.302-0.039,0.74-0.15,1.1-0.398c0.677-0.467,0.986-1.289,0.831-2.198l-0.006-0.026l-0.009-0.026l-0.004-0.013
		c-0.104-0.354-0.341-0.407-0.472-0.407c-0.044,0-0.086,0.006-0.131,0.018c-0.151,0.041-0.266,0.146-0.367,0.237
		c-0.043,0.037-0.093,0.083-0.12,0.099l-0.004,0.002c-0.155,0.092-0.366,0.136-0.591,0.181c-0.231,0.049-0.474,0.098-0.704,0.21
		c-0.709,0.307-1.383,0.682-1.525,1.342c-0.081,0.374-0.021,0.771,0.164,1.117l0.006,0.01l0.008,0.012
		c0.267,0.419,0.633,0.766,0.986,1.1c0.511,0.48,0.992,0.935,1.1,1.539c0.019,0.102,0.063,0.404-0.405,0.752
		c-0.168,0.099-0.368,0.148-0.592,0.148c-0.291,0-0.608-0.083-0.893-0.237l-0.012-0.004c-0.413-0.208-0.804-0.469-1.218-0.746
		c-0.622-0.416-1.266-0.846-2.003-1.085c-0.331-0.147-0.679-0.217-1.016-0.285c-0.441-0.089-0.858-0.174-1.176-0.423l-0.013-0.009
		l-0.013-0.009c-0.126-0.082-0.246-0.169-0.376-0.263c-0.368-0.266-0.749-0.542-1.214-0.664c-0.184-0.061-0.362-0.092-0.536-0.122
		c-0.193-0.032-0.377-0.063-0.524-0.133c-0.312-0.276-0.728-0.616-1.208-0.856c-0.605-0.303-1.266-0.462-1.947-0.611
		c-0.101-0.026-0.185-0.123-0.313-0.277c-0.103-0.127-0.221-0.27-0.383-0.383c-0.643-0.506-1.24-0.742-1.88-0.742
		c-0.071,0-0.141,0.003-0.212,0.01c-0.422,0.029-0.716,0.283-0.973,0.508l-0.003,0.003c-0.604,0.528-1.26,1.002-1.893,1.461
		c-0.966,0.699-1.964,1.421-2.828,2.365c-0.99,1.025-1.309,2.28-1.615,3.495l-0.018,0.068c-0.151,0.599-0.614,2.423-0.906,2.952
		c-0.228,0.416-0.572,1-0.903,1.255c-0.096,0.074-0.183,0.135-0.259,0.189c-0.247,0.172-0.457,0.321-0.49,0.605
		c-0.014,0.125,0.025,0.247,0.111,0.343c0.117,0.13,0.301,0.194,0.565,0.194c0.104,0,0.214-0.011,0.324-0.03
		c-0.035,0.083-0.053,0.17-0.045,0.268c0.008,0.103,0.076,0.441,0.644,0.441c0.355,0,0.932-0.142,1.377-0.544
		c0.093-0.084,0.179-0.163,0.256-0.236c0.165-0.149,0.346-0.316,0.451-0.389c0.056,0.04,0.115,0.096,0.179,0.153
		c0.16,0.149,0.364,0.336,0.653,0.395l0.061,0.013l0.063-0.008c0.298-0.042,0.567-0.076,0.835-0.076
		c0.059,0,0.115,0.002,0.172,0.005c0.283,0.088,0.561,0.192,0.852,0.302c0.218,0.083,0.443,0.167,0.671,0.245l0.063,0.021
		l0.066-0.002c0.499-0.017,0.798-0.485,0.91-0.662l0.017-0.026l0.012-0.028c0.089-0.206,0.076-0.401,0.05-0.562
		c0.035-0.003,0.069-0.01,0.104-0.02l0.056-0.017l0.048-0.032c0.014-0.008,0.023-0.016,0.035-0.025
		c0.032,0.111,0.068,0.232,0.109,0.355l0.03,0.099c0.017,0.045,0.031,0.105,0.048,0.168c0.103,0.375,0.218,0.798,0.559,0.9
		c0.072,0.022,0.152,0.033,0.242,0.033c0.088,0,0.171-0.009,0.245-0.019c0.04-0.005,0.081-0.009,0.108-0.011
		c0.057,0.026,0.078,0.052,0.124,0.108c0.059,0.073,0.14,0.172,0.29,0.253c0.164,0.09,0.472,0.172,0.89,0.28
		c0.138,0.036,0.268,0.069,0.341,0.092c0.053,0.016,0.115,0.037,0.186,0.061c0.398,0.133,0.749,0.244,1.015,0.244
		c0.508,0,1.113-0.302,1.31-1.146c0.289-0.027,0.534-0.18,0.682-0.424c0.032-0.055,0.071-0.111,0.116-0.175
		c0.074-0.107,0.158-0.229,0.253-0.394c0.11-0.199,0.145-0.375,0.098-0.537c-0.059-0.209-0.228-0.302-0.283-0.333
		c-0.064-0.037-0.155-0.087-0.778-0.087c-0.122,0-0.426,0.003-0.624,0.031c-0.095,0.012-0.178,0.037-0.25,0.068
		c-0.077-0.19-0.261-0.314-0.478-0.314c-0.043,0-0.085,0.004-0.126,0.014c-0.041,0.007-0.085,0.012-0.14,0.014
		c0.192-0.09,0.401-0.218,0.582-0.386l0.208,0.036c0.157,0.027,0.322,0.041,0.499,0.041c0.422,0,0.851-0.078,1.266-0.153
		c0.41-0.075,0.798-0.144,1.176-0.144c0.075,0,0.151,0.003,0.223,0.009c0.116,0.01,0.231,0.023,0.342,0.035
		c0.24,0.025,0.488,0.053,0.749,0.053c0.082,0,0.16-0.002,0.238-0.007c0.26-0.012,0.499-0.072,0.704-0.173
		c0.009,0.111,0.029,0.237,0.059,0.378l0.014,0.061c0.1,0.486,0.225,1.091,0.674,1.457c0.462,0.376,1.114,0.826,1.595,0.826
		c0.018,0,0.035,0,0.053-0.002c0.112-0.007,0.232-0.023,0.362-0.04c0.207-0.026,0.442-0.057,0.685-0.057
		c0.143,0,0.271,0.01,0.395,0.032c0.529,0.091,0.855,0.342,1.172,0.586c0.327,0.251,0.663,0.511,1.15,0.511
		c0.388,0,0.558-0.096,0.689-0.197c0.041,0.047,0.096,0.118,0.135,0.169c0.209,0.278,0.525,0.698,1.071,0.744
		c0.163,0.014,0.312,0.021,0.443,0.021c0.234,0,0.48-0.019,0.649-0.122c0.05,0.065,0.116,0.117,0.212,0.147
		c0.05,0.016,0.102,0.023,0.161,0.023c0.186,0,0.428-0.083,0.556-0.133c0.334-0.131,0.472-0.247,0.513-0.427
		C79.371,47.353,79.297,47.111,79.122,46.887z M59.401,43.17c-0.074,0.13-0.151,0.264-0.217,0.366
		c-0.026,0.044-0.175,0.282-0.294,0.548c-0.079-0.157-0.174-0.297-0.261-0.43c-0.109-0.164-0.213-0.318-0.258-0.467l-0.004-0.01
		l-0.003-0.009c-0.039-0.108-0.091-0.209-0.15-0.303c0.08,0.026,0.165,0.046,0.254,0.059l0.007,0.002h0.011
		c0.294,0.029,0.626,0.062,0.957,0.062c0.021,0,0.043,0,0.063,0C59.474,43.045,59.439,43.105,59.401,43.17z"/>
	<path fill="#FB0045" d="M76.979,46.35c-0.276-0.19-0.456-0.59-0.675-0.796c-0.16-0.152-0.355-0.233-0.552-0.449
		c-0.196-0.214-0.265-1.202-0.503-1.391c-0.274-0.219-1.054,0.061-1.424-0.479c-0.199-0.288-0.02-0.543,0.082-0.782
		c0.1-0.239,0.192-0.671,0.109-1.318c-0.028-0.219-0.16-0.402-0.121-0.623c0.103-0.19,0.343-0.05,0.492-0.03
		c0.563,0.161,1.224,0.08,1.736-0.14c0.701-0.341,1.222-1.052,1.19-1.865c-0.1-1.053-0.809-1.917-1.621-2.598
		c-0.151-0.131-0.336-0.273-0.393-0.462c-0.064-0.224,0.083-0.275,0.244-0.265c0.16,0.008,0.734-0.051,1.168-0.35
		c0.606-0.419,0.796-1.13,0.676-1.834c-0.021-0.059-0.043-0.194-0.163-0.162c-0.118,0.033-0.259,0.219-0.4,0.3
		c-0.39,0.23-0.917,0.208-1.326,0.409c-0.512,0.221-1.205,0.553-1.322,1.085c-0.066,0.312-0.001,0.624,0.13,0.865
		c0.622,0.981,1.929,1.589,2.138,2.773c0.08,0.48-0.192,0.85-0.564,1.122c-0.562,0.341-1.299,0.229-1.863-0.071
		c-1.082-0.542-2.026-1.444-3.188-1.816c-0.732-0.331-1.636-0.25-2.289-0.763c-0.491-0.32-0.942-0.742-1.494-0.882
		c-0.38-0.131-0.812-0.11-1.163-0.3c-0.362-0.321-0.741-0.622-1.165-0.833c-0.581-0.291-1.224-0.442-1.864-0.582
		c-0.381-0.09-0.522-0.513-0.832-0.723c-0.532-0.422-1.125-0.722-1.846-0.662c-0.302,0.02-0.533,0.22-0.763,0.421
		c-1.536,1.343-3.292,2.268-4.695,3.802c-0.942,0.973-1.238,2.194-1.544,3.4c-0.204,0.805-0.637,2.488-0.939,3.039
		c-0.303,0.552-0.644,1.093-1.003,1.369c-0.358,0.276-0.588,0.377-0.605,0.543c-0.019,0.166,0.496,0.174,0.919,0.008
		c0.423-0.165,0.524-0.533,0.79-0.845c0.268-0.312,0.717-0.965,0.847-0.901c0.13,0.064-0.081,0.36-0.295,0.616
		c-0.368,0.442-0.234,0.543-0.458,0.846c-0.351,0.469-0.865,0.732-0.848,0.983c0.013,0.176,0.848,0.157,1.406-0.35
		c0.562-0.505,0.841-0.809,1.018-0.735c0.305,0.126,0.502,0.501,0.843,0.573c0.361-0.051,0.742-0.1,1.125-0.071
		c0.531,0.161,1.044,0.382,1.575,0.562c0.27-0.01,0.471-0.271,0.61-0.491c0.111-0.261-0.05-0.522-0.029-0.772
		c0.13-0.08,0.281,0.02,0.422-0.02c0.059-0.04,0.109-0.11,0.109-0.18c-0.101-0.462-0.511-0.803-0.642-1.234
		c-0.201-0.552-0.854-0.883-0.973-1.476c0.029-0.04,0.08-0.1,0.13-0.06c0.431,0.311,0.812,0.721,1.346,0.802
		c0.4,0.04,0.812,0.081,1.212,0.051c0.061-0.02,0.11-0.091,0.091-0.161c-0.17-0.361-0.338-0.721-0.432-1.113
		c-0.178-0.743-0.221-1.816,0.017-1.834c0.239-0.019,0.104,0.766,0.3,1.403c0.197,0.638,0.286,0.867,0.496,1.112
		c0.235,0.273,0.73,0.506,0.853,0.715c0.123,0.208,0.055,0.52-0.147,0.785c-0.202,0.263-0.453,0.638-0.623,0.895
		c-0.051,0.074-0.142,0.227-0.142,0.325s0.024,0.692-0.043,0.681c-0.068-0.014-0.332-0.737-0.221-1.055
		c0.109-0.319,0.927-1.282,0.84-1.385c-0.085-0.103-0.484-0.233-0.589-0.226c-0.104,0.005-0.415,0.631-0.637,0.98
		c-0.221,0.35-0.411,0.781-0.399,0.93c0.013,0.149,0.104,0.419,0.185,0.67s0.179,0.772,0.361,0.828c0.184,0.055,0.471-0.048,0.595,0
		c0.294,0.117,0.283,0.283,0.484,0.392c0.202,0.11,0.907,0.264,1.165,0.344c0.257,0.08,0.803,0.288,1.091,0.288
		c0.287,0,0.8-0.153,0.957-0.895c0.049-0.23,0.116-0.239,0.29-0.248c0.177-0.01,0.332-0.088,0.428-0.248
		c0.097-0.161,0.219-0.308,0.362-0.561c0.143-0.254,0.042-0.322-0.04-0.368c-0.083-0.046-0.869-0.055-1.177-0.014
		c-0.472,0.063-0.498,0.616-0.699,0.937c-0.11,0.2-0.262,0.231-0.493,0.211c-0.481-0.131-1.043-0.14-1.263-0.662
		c-0.03-0.131-0.054-0.277,0.036-0.378c0.391-0.44,0.666-0.846,0.906-0.907c0.238-0.061,0.895-0.331,1.085-0.839
		c0.19-0.509,0.239-0.503,0.35-0.497c0.108,0.006,0.086,0.509-0.11,0.84c0.986,0.171,2.089-0.341,3.133-0.251
		c0.45,0.039,0.837,0.11,1.277,0.079c0.442-0.02,0.881-0.216,1.063-0.662c0.247-0.597-0.114-1.885,0.016-1.967
		c0.13-0.083,0.406,1.056,0.497,1.848c0.058,0.513,0.312,1.096,0.645,1.49c0.389,0.462,1.087,0.929,1.982,0.818
		c0.896-0.11,1.575-0.037,2.28,0.496c0.705,0.534,0.631,0.687,0.575,0.711c-0.055,0.024-0.762-0.661-1.434-0.875
		c-0.883-0.283-1.772,0.165-2.648-0.159c-0.878-0.325-0.95-0.641-1.275-1.098c-0.291-0.409-0.326-0.692-0.473-0.705
		c-0.146-0.012-0.183,0.129-0.085,0.601c0.099,0.472,0.194,1.011,0.558,1.305c0.36,0.294,1.017,0.767,1.392,0.741
		c0.374-0.024,0.935-0.162,1.525-0.061c1.184,0.202,1.503,1.091,2.263,1.091c0.558,0,0.41-0.228,0.729-0.221
		s0.539,0.883,1.195,0.938c0.655,0.055,0.878-0.019,0.901-0.08c0.024-0.061-0.092-0.833-0.313-1.122
		C77.413,46.472,77.254,46.54,76.979,46.35z M56.079,44.592c-0.082,0.116-0.415,0.069-0.561,0c-0.237-0.111-0.244-0.551-0.171-0.648
		s0.395-0.015,0.558,0.142C56.066,44.243,56.161,44.477,56.079,44.592z M56.309,41.139c-0.022,0.211-0.17,0.268-0.312,0.139
		c-0.143-0.129-0.122-0.335-0.364-0.339c-0.244-0.004-0.229,0.155-0.468,0.316c-0.241,0.16-0.469,0.342-0.538,0.531
		c-0.067,0.188-0.052,0.577-0.262,0.604c-0.206,0.027-0.272-0.713,0.1-1.145c0.374-0.432,0.653-0.579,0.827-0.911
		c0.177-0.33,0.314-0.339,0.452-0.239C55.882,40.197,56.332,40.928,56.309,41.139z M60.41,35.458l-0.043,0.086l-0.048,0.075
		l-0.316,0.294l-0.339,0.316c-0.255,0.247-0.432,0.455-0.559,0.656c-0.108,0.146-0.191,0.319-0.269,0.486
		c-0.024,0.049-0.085,0.05-0.118,0.04c0,0-0.01-0.002-0.019-0.005c-0.004-0.01-0.006-0.019-0.006-0.019
		c-0.021-0.063-0.031-0.131-0.031-0.205c0-0.056,0.005-0.116,0.017-0.18l0.062-0.25l0.032-0.113
		c0.192-0.512,0.622-1.046,1.181-1.463c0.07-0.045,0.202-0.078,0.305-0.046c0.062,0.019,0.104,0.06,0.131,0.119
		c0.023,0.041,0.036,0.082,0.036,0.123C60.428,35.4,60.422,35.43,60.41,35.458l0.023,0.009C60.423,35.463,60.41,35.458,60.41,35.458
		z M78.968,47.47c-0.019,0.083-0.614,0.313-0.759,0.266c-0.112-0.037-0.077-0.464-0.205-0.79c-0.13-0.326-0.217-0.529-0.068-0.694
		c0.146-0.166,0.205-0.225,0.343-0.234c0.138-0.009,0.401,0.216,0.443,0.44c0.039,0.226-0.016,0.501,0.101,0.644
		C78.937,47.245,78.988,47.387,78.968,47.47z M63.164,44.709c-0.043,0.298-0.138,0.596-0.245,0.873
		c-0.098,0.192-0.363,0.127-0.543,0.106c-0.191-0.074-0.491-0.095-0.522-0.362c-0.031-0.256,0.085-0.49,0.213-0.681
		c0.289-0.043,0.617,0.021,0.905-0.032C63.057,44.592,63.142,44.624,63.164,44.709z M77.354,46.073
		c-0.326-0.045-0.743-0.763-0.754-0.906c-0.011-0.16,0.272-0.35,0.422-0.331c0.153,0.018,0.796,0.588,0.87,0.753
		C77.967,45.755,77.682,46.118,77.354,46.073z"/>
</g>
</svg>
