<?xml version="1.0" encoding="utf-8"?>
<!-- Generator: Adobe Illustrator 16.0.0, SVG Export Plug-In . SVG Version: 6.00 Build 0)  -->
<!DOCTYPE svg PUBLIC "-//W3C//DTD SVG 1.1//EN" "http://www.w3.org/Graphics/SVG/1.1/DTD/svg11.dtd">
<svg version="1.1" id="Layer_1" xmlns="http://www.w3.org/2000/svg" xmlns:xlink="http://www.w3.org/1999/xlink" x="0px" y="0px"
	 width="100px" height="100px" viewBox="0 0 100 100" enable-background="new 0 0 100 100" xml:space="preserve">
<g>
	<path fill-rule="evenodd" clip-rule="evenodd" fill="#1D1D1B" d="M96.737,54.726c-0.817,0-1.477,0.66-1.477,1.471
		c0,0.817,0.659,1.478,1.477,1.478c0.813,0,1.47-0.66,1.47-1.478C98.207,55.386,97.551,54.726,96.737,54.726L96.737,54.726
		L96.737,54.726L96.737,54.726z M96.737,57.496c-0.717,0-1.296-0.578-1.296-1.3c0-0.714,0.579-1.293,1.296-1.293
		c0.714,0,1.293,0.579,1.293,1.293C98.03,56.918,97.451,57.496,96.737,57.496L96.737,57.496L96.737,57.496L96.737,57.496z"/>
	<path fill-rule="evenodd" clip-rule="evenodd" fill="#1D1D1B" d="M97.493,55.811c0-0.139-0.062-0.286-0.185-0.355
		c-0.123-0.073-0.262-0.081-0.399-0.081l0,0h-0.72v1.647h0.202v-0.76h0.369l0.472,0.76h0.238l-0.496-0.76l0,0
		C97.267,56.254,97.493,56.134,97.493,55.811L97.493,55.811L97.493,55.811L97.493,55.811z M96.699,56.104h-0.308v-0.582h0.469l0,0
		c0.206,0,0.43,0.03,0.43,0.285C97.29,56.142,96.932,56.104,96.699,56.104L96.699,56.104L96.699,56.104L96.699,56.104z"/>
	<path fill-rule="evenodd" clip-rule="evenodd" fill="#1D1D1B" d="M88.099,47.846l3.014-3.218l0,0
		c0.175-0.236,0.262-0.401,0.262-0.543c0-0.236-0.204-0.331-0.843-0.331l0,0h-0.76v-2.031h8.229v2.031H96.92l0,0
		c-1.25,0-1.482,0.189-3.223,2.386l0,0l-4.771,5.149v3.142l0,0c0,0.804,0.408,1.086,1.569,1.086l0,0h1.801v1.961H80.769v-1.961h1.8
		l0,0c1.162,0,1.569-0.282,1.569-1.086l0,0v-3.142l-5.615-6.212l0,0c-0.93-1.086-0.801-1.323-3.384-1.323l0,0v-2.031h10.425v2.031
		h-0.742l0,0c-0.754,0-1.073,0.142-1.073,0.425c0,0.236,0.23,0.426,0.377,0.614l0,0l2.841,3.096l0,0
		C87.302,48.24,87.714,48.286,88.099,47.846L88.099,47.846L88.099,47.846L88.099,47.846z"/>
	<path fill-rule="evenodd" clip-rule="evenodd" fill="#1D1D1B" d="M18.15,41.722h2.515v5.668h-2.322l0,0
		c-0.206-1.133-0.915-1.574-1.562-2.168c-1.167-1.072-3.693-1.965-5.818-1.965c-2.742,0-5.057,0.851-5.057,2.103
		c0,3.472,15.686,0.709,15.686,7.276c0,3.424-3.36,5.337-9.394,5.337c-2.088,0-5.25-0.647-7.115-1.639
		c-0.584-0.338-0.833,0.319-0.942,1.144l0,0H1.562v-5.858h2.332l0,0c0.515,1.488,1.223,1.795,1.875,2.386
		c1.131,1.039,3.823,1.796,6.292,1.771c3.722-0.037,5.002-0.851,5.002-2.032c0-1.18-1.266-1.463-5.346-2.102l0,0l-3.463-0.566l0,0
		C4.346,50.484,1.5,49.61,1.5,46.493c0-3.237,3.6-5.268,9.292-5.268c2.398,0,4.405,0.32,6.331,1.409
		C17.657,42.981,18.157,43.023,18.15,41.722L18.15,41.722L18.15,41.722L18.15,41.722z"/>
	<path fill-rule="evenodd" clip-rule="evenodd" fill="#1D1D1B" d="M67.229,51.212l0.05-6.3l0,0c0-0.826-0.431-1.11-1.659-1.11l0,0
		h-1.444v-1.96h9.188v1.96h-1.198l0,0c-1.229,0-1.66,0.284-1.66,1.11l0,0v12.684l-3.597-0.028L55.266,46.542v8.007l0,0
		c0,0.803,0.431,1.109,1.658,1.109l0,0h1.598v1.938h-9.538v-1.938h1.58l0,0c1.229,0,1.66-0.307,1.66-1.109l0,0v-9.637l0,0
		c0-0.826-0.431-1.11-1.66-1.11l0,0h-1.58v-1.96h8.248L67.229,51.212L67.229,51.212L67.229,51.212z"/>
	<path fill-rule="evenodd" clip-rule="evenodd" fill="#1D1D1B" d="M36.459,41.106c-7.32,0-11.902,3.236-11.902,8.433
		c0,5.102,4.519,8.313,11.68,8.313c7.606,0,12.03-3.164,12.03-8.573C48.267,44.414,43.493,41.106,36.459,41.106L36.459,41.106
		L36.459,41.106L36.459,41.106z M36.293,55.798c-4.052,0-6.382-2.339-6.382-6.377c0-3.945,2.431-6.283,6.584-6.283
		c3.984,0,6.314,2.386,6.314,6.448C42.81,53.554,40.447,55.798,36.293,55.798L36.293,55.798L36.293,55.798L36.293,55.798z"/>
</g>
</svg>
