<?xml version="1.0" encoding="utf-8"?>
<!-- Generator: Adobe Illustrator 16.0.0, SVG Export Plug-In . SVG Version: 6.00 Build 0)  -->
<!DOCTYPE svg PUBLIC "-//W3C//DTD SVG 1.1//EN" "http://www.w3.org/Graphics/SVG/1.1/DTD/svg11.dtd">
<svg version="1.1" id="Layer_1" xmlns="http://www.w3.org/2000/svg" xmlns:xlink="http://www.w3.org/1999/xlink" x="0px" y="0px"
	 width="100px" height="100px" viewBox="0 0 100 100" enable-background="new 0 0 100 100" xml:space="preserve">
<g>
	<polygon fill-rule="evenodd" clip-rule="evenodd" fill="#0C1B49" points="92.508,77.997 92.508,64.329 8.242,64.329 8.242,77.997 
		92.508,77.997 	"/>
	<polygon fill-rule="evenodd" clip-rule="evenodd" fill="#FFFFFF" points="19.095,74.081 18.648,74.081 18.648,71.359 
		14.813,71.359 14.813,74.081 14.367,74.081 14.367,68.335 14.813,68.335 14.813,70.989 18.648,70.989 18.648,68.335 19.095,68.335 
		19.095,74.081 	"/>
	<polygon fill-rule="evenodd" clip-rule="evenodd" fill="#FFFFFF" points="26.636,74.081 26.189,74.081 26.189,68.335 
		26.636,68.335 26.636,74.081 	"/>
	<polygon fill-rule="evenodd" clip-rule="evenodd" fill="#FFFFFF" points="34.169,73.71 37.009,73.71 37.009,74.081 33.723,74.081 
		33.723,68.335 34.169,68.335 34.169,73.71 	"/>
	<polygon fill-rule="evenodd" clip-rule="evenodd" fill="#FFFFFF" points="46.397,68.705 43.885,68.705 43.885,70.888 
		46.153,70.888 46.153,71.258 43.885,71.258 43.885,74.081 43.439,74.081 43.439,68.335 46.397,68.335 46.397,68.705 	"/>
	<polygon fill-rule="evenodd" clip-rule="evenodd" fill="#FFFFFF" points="53.349,74.081 52.902,74.081 52.902,68.335 
		53.349,68.335 53.349,74.081 	"/>
	<path fill-rule="evenodd" clip-rule="evenodd" fill="#FFFFFF" d="M65.246,69.253c-0.699-0.396-1.349-0.581-2.039-0.581
		c-1.458,0-2.536,1.078-2.536,2.536c0,1.289,0.851,2.536,2.662,2.536c0.666,0,1.121-0.127,1.576-0.354v-1.55h-1.213v-0.371h1.66v2.2
		c-0.684,0.328-1.374,0.488-2.04,0.488c-1.786,0-3.126-1.265-3.126-2.966c0-1.686,1.306-2.933,3.084-2.933
		c0.648,0,1.163,0.126,1.972,0.488V69.253L65.246,69.253z"/>
	<polygon fill-rule="evenodd" clip-rule="evenodd" fill="#FFFFFF" points="75.409,68.705 72.721,68.705 72.721,71.006 
		75.342,71.006 75.342,71.376 72.721,71.376 72.721,73.71 75.476,73.71 75.476,74.081 72.274,74.081 72.274,68.335 75.409,68.335 
		75.409,68.705 	"/>
	<path fill-rule="evenodd" clip-rule="evenodd" fill="#FFFFFF" d="M82.613,68.705h0.936c1.053,0,1.517,0.472,1.517,1.121
		c0,0.69-0.488,1.128-1.5,1.128h-0.952V68.705L82.613,68.705z M82.167,68.335v5.746h0.446v-2.755h0.775
		c0.69,0,0.91,0.092,1.601,1.18l1.003,1.575h0.522l-1.297-1.989c-0.271-0.403-0.498-0.732-0.768-0.875
		c0.733-0.271,1.096-0.733,1.096-1.399c0-0.767-0.497-1.482-1.904-1.482H82.167L82.167,68.335z"/>
	<polygon fill-rule="evenodd" clip-rule="evenodd" fill="#FFFFFF" points="8.298,36.428 8.298,64.329 50.181,64.329 50.181,36.428 
		8.298,36.428 	"/>
	<polygon fill-rule="evenodd" clip-rule="evenodd" fill="#D2072A" points="50.181,64.329 92.508,64.329 92.508,66.981 
		92.514,66.981 92.514,36.428 50.181,36.428 50.181,64.329 	"/>
	<polygon fill-rule="evenodd" clip-rule="evenodd" fill="#0C1B49" points="92.514,36.428 92.514,22.76 8.249,22.76 8.249,36.428 
		92.514,36.428 	"/>
	<polygon fill-rule="evenodd" clip-rule="evenodd" fill="#FFFFFF" points="19.062,27.391 16.905,27.391 16.905,32.767 
		16.458,32.767 16.458,27.391 14.301,27.391 14.301,27.02 19.062,27.02 19.062,27.391 	"/>
	<path fill-rule="evenodd" clip-rule="evenodd" fill="#FFFFFF" d="M35.284,29.894c0,1.432-1.112,2.536-2.553,2.536
		s-2.57-1.104-2.57-2.536c0-1.433,1.129-2.537,2.57-2.537S35.284,28.461,35.284,29.894L35.284,29.894z M35.764,29.894
		c0-1.652-1.34-2.95-3.05-2.95c-1.703,0-3.034,1.298-3.034,2.95c0,1.651,1.331,2.949,3.034,2.949
		C34.424,32.843,35.764,31.545,35.764,29.894L35.764,29.894z"/>
	<polygon fill-rule="evenodd" clip-rule="evenodd" fill="#FFFFFF" points="52.449,27.02 52.896,27.02 52.896,32.767 52.449,32.767 
		52.449,27.668 52.433,27.668 50.258,30.357 48.083,27.668 48.067,27.668 48.067,32.767 47.621,32.767 47.621,27.02 48.067,27.02 
		50.258,29.691 52.449,27.02 	"/>
	<polygon fill-rule="evenodd" clip-rule="evenodd" fill="#FFFFFF" points="69.815,27.02 70.262,27.02 70.262,32.767 69.815,32.767 
		69.815,27.668 69.799,27.668 67.625,30.357 65.45,27.668 65.434,27.668 65.434,32.767 64.987,32.767 64.987,27.02 65.434,27.02 
		67.625,29.691 69.815,27.02 	"/>
	<polygon fill-rule="evenodd" clip-rule="evenodd" fill="#FFFFFF" points="84.385,29.683 84.385,32.767 83.938,32.767 
		83.938,29.683 81.705,27.02 82.244,27.02 84.166,29.295 86.078,27.02 86.618,27.02 84.385,29.683 	"/>
</g>
</svg>
