<?xml version="1.0" encoding="utf-8"?>
<!-- Generator: Adobe Illustrator 16.0.0, SVG Export Plug-In . SVG Version: 6.00 Build 0)  -->
<!DOCTYPE svg PUBLIC "-//W3C//DTD SVG 1.1//EN" "http://www.w3.org/Graphics/SVG/1.1/DTD/svg11.dtd">
<svg version="1.1" id="Layer_1" xmlns="http://www.w3.org/2000/svg" xmlns:xlink="http://www.w3.org/1999/xlink" x="0px" y="0px"
	 width="100px" height="100px" viewBox="0 0 100 100" enable-background="new 0 0 100 100" xml:space="preserve">
<g>
	<path fill="#E21118" d="M93.717,34.192c-0.652,1.509,0.617,3.899-1.213,4.369l-56.792-0.186l-6.028,0.124l-0.852,1.282
		l-7.107,26.549l-0.986,0.44l-9.592-0.166l-0.903-1.84C7.573,53.938,4.57,43.293,2,32.482c2.458-0.319,5.321-0.5,7.816,0.016
		c2.602,7.909,3.785,16.325,6.052,24.509l0.296,0.237l0.702-0.779l6.118-23.616l0.684-0.564l64.502,0.104
		C90.02,32.956,93.877,31.092,93.717,34.192"/>
	<path fill="#E21118" d="M93.746,45.053c0.166,1.647-1.609,3.158-2.908,4.121c-2.422-0.95-5.412-2.904-8.391-1.489
		c-0.926,0.612-1.584,1.717-0.904,2.628c4.125,2.719,11.479,1.237,13.031,6.747c0.764,2.375,0.152,5.407-1.982,7.088
		c-3.436,2.825-8.418,3.422-13.219,2.204c-2.109-0.826-4.465-1.384-6.289-2.872c0.701-1.686,1.936-3.13,3.26-4.389
		c2.68,0.584,5.012,2.499,8.324,2.156c1.092-0.016,2.469-0.68,3.008-1.711c0.391-4.108-5.561-2.521-8.297-3.69
		c-2.787-0.588-4.988-2.681-5.535-5.028c-0.537-2.453,0.234-4.808,2.357-6.386C81.182,41.433,89.012,41.905,93.746,45.053"/>
	<path fill="#E21118" d="M71.852,43.107c0.193,7.602,0.16,15.503-0.059,23.065c-2.49,0.635-5.291,0.087-7.93,0.081
		c-2.127-3.495-3.432-6.833-5.875-10.356c-0.311-0.128-0.447,0.277-0.664,0.358l-0.201,9.765c-1.664,0.897-4.014,0.084-5.941,0.442
		l-0.423-1.287c0.078-7.161-0.208-14.985,0.38-22.001c2.154-0.446,4.584-0.457,7.002-0.364l0.701,0.474l5.416,9.589l0.752-0.143
		c-0.186-2.827,0.439-6.404,0.281-9.542C67.154,42.406,69.865,42.834,71.852,43.107"/>
	<path fill="#E21118" d="M38.796,55.563c-0.164-1.886-0.955-3.708-1.757-5.341c-1.083,1.47-1.046,3.552-1.515,5.28
		C36.414,56.306,37.816,55.909,38.796,55.563 M44.541,48.866l4.342,17.306c-1.854,0.673-4.244,0.167-6.355,0.197
		c-1.043-1.436-0.386-4.186-2.787-4.489c-2.231,0.133-5.121-0.727-6.634,1.016l-1.04,3.547c-2.026,0.256-4.46,0.269-6.317-0.207
		c2.033-7.833,4.379-15.537,6.823-23.239c3.016-0.585,6.902-0.365,10.026-0.004L44.541,48.866z"/>
	<path fill="#E21118" d="M94.795,40.391c-0.047-0.019-0.119-0.03-0.207-0.03h-0.084v0.384h0.137
		c0.082,0.004,0.146-0.014,0.193-0.042c0.047-0.038,0.07-0.092,0.07-0.162C94.906,40.467,94.867,40.418,94.795,40.391 M94.16,41.445
		V40.14c0.082-0.005,0.205,0,0.371,0c0.164,0.002,0.256,0,0.271,0c0.109,0.007,0.197,0.03,0.264,0.068
		c0.119,0.063,0.178,0.169,0.178,0.31c0,0.112-0.031,0.188-0.094,0.235c-0.059,0.051-0.137,0.079-0.227,0.086
		c0.084,0.018,0.145,0.044,0.188,0.078c0.08,0.064,0.125,0.166,0.123,0.299l0.002,0.114c-0.002,0.013,0.002,0.026-0.002,0.04
		c0,0.012,0.004,0.026,0.004,0.037l0.01,0.043l-0.328-0.007c-0.01-0.037-0.02-0.1-0.021-0.182c-0.004-0.075-0.01-0.125-0.021-0.156
		c-0.02-0.049-0.053-0.082-0.1-0.1c-0.027-0.007-0.066-0.018-0.121-0.02h-0.078l-0.074-0.004v0.464L94.16,41.445z M93.99,40.112
		c-0.193,0.188-0.287,0.416-0.287,0.682c0,0.268,0.098,0.499,0.291,0.694c0.193,0.188,0.424,0.284,0.695,0.279
		c0.271,0.005,0.508-0.097,0.703-0.285c0.188-0.191,0.287-0.424,0.287-0.688c0-0.266-0.1-0.494-0.291-0.682
		c-0.197-0.199-0.428-0.294-0.699-0.294S94.184,39.913,93.99,40.112 M95.529,41.64c-0.234,0.22-0.516,0.334-0.84,0.331
		c-0.342-0.003-0.625-0.114-0.855-0.343c-0.227-0.227-0.34-0.507-0.346-0.839c0-0.346,0.127-0.631,0.377-0.857
		c0.236-0.217,0.508-0.323,0.826-0.326c0.33,0,0.617,0.115,0.844,0.343c0.236,0.237,0.354,0.514,0.354,0.84
		C95.891,41.126,95.771,41.41,95.529,41.64"/>
</g>
</svg>
