<?xml version="1.0" encoding="utf-8"?>
<!-- Generator: Adobe Illustrator 16.0.0, SVG Export Plug-In . SVG Version: 6.00 Build 0)  -->
<!DOCTYPE svg PUBLIC "-//W3C//DTD SVG 1.1//EN" "http://www.w3.org/Graphics/SVG/1.1/DTD/svg11.dtd">
<svg version="1.1" id="Layer_1" xmlns="http://www.w3.org/2000/svg" xmlns:xlink="http://www.w3.org/1999/xlink" x="0px" y="0px"
	 width="100px" height="100px" viewBox="0 0 100 100" enable-background="new 0 0 100 100" xml:space="preserve">
<g>
	<path fill-rule="evenodd" clip-rule="evenodd" fill="#1D1D1B" d="M95.828,75.594c-0.75-0.304-0.585-1.183-0.878-1.801l-0.037-4.851
		l-0.018-2.363l-0.006-0.737c0.037-0.521,0.046-1.067,0.043-1.624l-2.558,0.021c-0.007,0.128-0.014,0.257-0.021,0.383l-0.343,0.312
		c-0.437-0.235-0.873-0.508-1.354-0.683l0,0l0,0l-1.729,0.014c0.001-0.001,0.001-0.001,0.002-0.001H88.93
		c-0.647,0.253-1.198,0.652-1.682,1.172c-0.29,0.388-0.553,0.79-0.782,1.208l0.495-0.003l1.156-0.011
		c0.036-0.127,0.074-0.253,0.114-0.375c0.225-0.622,0.735-1.4,1.597-1.458c0.688-0.058,1.207,0.197,1.671,0.606l0.622,1.198
		l0.019,0.037l0.041,2.325l0.062,3.56c-0.168,0.569-0.737,1.246-1.426,1.302c-0.804,0.058-1.38-0.246-1.844-0.759
		c-0.98-1.087-1.293-2.591-1.237-4.068l-2.152,0.017l0,0c-0.146,0.71-0.195,1.452-0.128,2.219c0.188,2.013,0.663,4.126,2.854,5.09
		c0.92,0.252,1.896-0.015,2.58-0.483c0.572-0.314,0.567-0.986,1.14-1.248c0.52,0.357-0.337,1.086,0.241,1.393l4.362-0.188
		C96.458,75.537,96.114,75.644,95.828,75.594L95.828,75.594z"/>
	<path fill-rule="evenodd" clip-rule="evenodd" fill="#1D1D1B" d="M72.802,69.111l-1.791,0.014c0.546,0.841,0.9,1.829,1.239,2.673
		c0.123,1.239,0.309,2.838-0.891,3.623c-0.516,0.312-1.264,0.215-1.725-0.04c-2.136-1.274-3.012-3.333-3.772-5.29
		c-0.049-0.307-0.081-0.617-0.093-0.926c0,0,0,0,0,0.001l-2.16,0.016V69.18l0,0c-0.564,2.608,0.127,5.272,2.585,7.003
		c1.155,0.817,3.053,1.111,4.485,0.533c1.715-0.84,3.082-2.45,3.126-4.207c0.113-1.144,0.123-2.312-0.107-3.404L72.802,69.111
		L72.802,69.111z"/>
	<path fill-rule="evenodd" clip-rule="evenodd" fill="#1D1D1B" d="M54.779,70.485l-0.285,0.158c-0.317-0.42-0.479-0.903-0.638-1.387
		l0,0l0,0l-2.979,0.022c0.967,2.644,1.911,5.295,2.747,7.98c0.116,0.153,0.004,0.465,0.349,0.41c0.509-1.036,0.787-2.175,1.583-3.11
		c0.169-0.568,1.315-0.785,0.908-1.401c-0.747-0.201-1.269-0.765-1.619-1.382c0.31-0.851,0.59-1.699,0.954-2.534l-0.521,0.003
		L54.779,70.485L54.779,70.485z"/>
	<path fill-rule="evenodd" clip-rule="evenodd" fill="#1D1D1B" d="M49.729,70.99c-0.115,0.001-0.171,0.155-0.228,0.26
		c0.584,1.183,0.941,2.883,0.261,4.077c-0.227,0.415-0.682,0.935-1.258,0.732c-0.864-0.304-0.755-1.13-1.048-1.748
		c-0.079-1.679-0.081-3.341-0.084-5.006L44.26,69.33l0.037,4.8l0.241,1.443c0.524,0.875,1.563,1.641,2.712,1.684
		c1.208,0.093,2.179-0.534,2.862-1.365c0.91-1.142,0.896-3.054,0.254-4.287C50.191,71.347,50.131,70.987,49.729,70.99L49.729,70.99z
		"/>
	<path fill-rule="evenodd" clip-rule="evenodd" fill="#1D1D1B" d="M61.107,71.78l1.083-2.588l-0.543,0.004
		c0.001-0.002,0.001-0.002,0.001-0.003l-0.001,0.001c-0.243,0.56-0.542,1.103-0.777,1.607c-0.058,0.154-0.229,0.104-0.345,0.002
		l-0.584-1.594l-2.898,0.023c1.013,2.684,2.09,5.34,2.67,8.083c0.117,0.205,0.347,0.101,0.46-0.057
		c0.223-0.878,0.675-1.708,1.128-2.589c0.283-0.571,1.142-0.887,1.311-1.456C62.149,72.805,61.228,72.502,61.107,71.78L61.107,71.78
		z"/>
	<path fill-rule="evenodd" clip-rule="evenodd" fill="#1D1D1B" d="M82.205,69.04c0.581,0.904,0.94,1.97,1.187,2.879
		c0.239,1.237,0.078,2.53-1.008,3.262c-0.458,0.159-0.917,0.213-1.378,0.062c-2.133-0.914-3.182-2.919-3.884-4.722
		c-0.227-0.456-0.365-0.944-0.42-1.439c0,0,0,0,0,0.001l-2.087,0.015c-0.057,0.241-0.104,0.484-0.141,0.722
		c-0.384,2.274,0.491,4.229,2.111,5.767c1.271,0.92,2.884,1.476,4.603,1.05c1.261-0.423,2.517-1.465,3.024-2.605
		c0.74-1.479,0.929-3.32,0.559-5.011L82.205,69.04L82.205,69.04z"/>
	<path fill-rule="evenodd" clip-rule="evenodd" fill="#1D1D1B" d="M30.021,69.437L30.021,69.437
		c-0.126,0.396-0.326,0.772-0.57,1.088l-2.802,1.623c-0.576-0.202-0.696-0.874-0.873-1.388c-0.114-0.414-0.175-0.851-0.18-1.287
		l-1.767,0.016c-0.005,0.016-0.01,0.031-0.016,0.047c-1.071,2.538-0.016,5.318,2.065,7.11c1.27,0.867,3.34,1.163,4.713,0.429
		c1.431-0.63,2.109-1.927,2.215-3.219c-0.061-0.36,0.108-0.93-0.41-1.029c-0.398,0.571-1.084,1.04-1.77,1.408
		c-0.688,0.211-1.605,0.321-2.298-0.033c-0.52-0.41-1.442-0.816-1.39-1.487l3.716-2.303c0.463-0.422,1.043-0.689,1.593-0.989
		l-1.2,0.009l-1.028,0.008V69.437L30.021,69.437z"/>
	<path fill-rule="evenodd" clip-rule="evenodd" fill="#1D1D1B" d="M41.682,70.226c-0.751-0.297-1.501-0.571-2.248-0.858h-0.001
		c0,0,0,0,0,0l-1.462,0.011l-3.901,0.031c0.008,0.016,0.016,0.031,0.024,0.047c0.408,0.771,1.219,1.541,2.139,1.739
		c1.729,0.812,3.916,1.313,4.791,3.113c0.177,0.567,0.009,1.188-0.333,1.604c-0.569,0.623-1.43,0.681-2.176,0.843
		c-0.748-0.098-1.724-0.144-1.959-0.864c0.399-0.415,0.913-0.833,1.023-1.401c-0.062-0.722-0.068-1.444-0.818-1.902
		c-0.519-0.308-1.268-0.509-1.84-0.194c-0.629,0.314-1.027,0.886-1.137,1.454c-0.222,1.087,0.648,2.113,1.744,2.724
		c1.5,0.866,3.741,1.005,5.285,0.114c1.374-0.682,2.397-1.98,2.502-3.323C43.305,72.122,42.951,70.887,41.682,70.226L41.682,70.226z
		"/>
	<path fill-rule="evenodd" clip-rule="evenodd" fill="#1D1D1B" d="M36.728,68.197c-0.411-0.272-0.642-0.711-0.69-1.168l-2.055,0.017
		c-0.276,0.774-0.279,1.645,0.088,2.362l3.901-0.03l1.462-0.011C38.521,69.015,37.616,68.646,36.728,68.197L36.728,68.197z"/>
	<path fill-rule="evenodd" clip-rule="evenodd" fill="#1D1D1B" d="M47.373,69.306c-0.002-0.787-0.004-1.574-0.014-2.363
		l-3.117,0.025l0.018,2.362L47.373,69.306L47.373,69.306L47.373,69.306z"/>
	<path fill-rule="evenodd" clip-rule="evenodd" fill="#1D1D1B" d="M62.517,68.413c0.256-0.513,0.542-1.077,0.899-1.593l-0.683,0.005
		L62.05,66.83c0.17,0.786-0.065,1.591-0.401,2.363l0.542-0.001L62.517,68.413L62.517,68.413z"/>
	<path fill-rule="evenodd" clip-rule="evenodd" fill="#1D1D1B" d="M56.077,66.878c0.025,0.08,0.042,0.16,0.056,0.241l-0.854,2.126
		l0.521-0.004v0.001l0,0c0.169-0.385,0.354-0.766,0.57-1.145c0.113-0.052,0.229,0.051,0.287,0.102
		c0.127,0.347,0.256,0.689,0.386,1.033l2.898-0.022l-0.864-2.356L56.077,66.878L56.077,66.878z"/>
	<path fill-rule="evenodd" clip-rule="evenodd" fill="#1D1D1B" d="M53.856,69.257c-0.132-0.405-0.263-0.812-0.474-1.188
		c-0.157-0.388-0.364-0.774-0.479-1.169l-2.924,0.023c0.043,0.083,0.083,0.163,0.121,0.241c0.259,0.704,0.519,1.408,0.776,2.114h0
		l0-0.002L53.856,69.257L53.856,69.257z"/>
	<path fill-rule="evenodd" clip-rule="evenodd" fill="#1D1D1B" d="M72.802,69.111l0.896-0.007c-0.181-0.849-0.503-1.647-1.033-2.355
		h-0.001c0,0.001,0.001,0.001,0.001,0.001l-1.739,0.014l-3.771,0.029c-0.021,0.046-0.038,0.093-0.055,0.139
		c0.233,0.515,0.806,0.2,1.266,0.352c1.251,0.204,2.058,0.938,2.645,1.842l0,0c0,0,0,0,0-0.002L72.802,69.111L72.802,69.111z"/>
	<path fill-rule="evenodd" clip-rule="evenodd" fill="#1D1D1B" d="M83.8,66.664L83.8,66.664l-5.611,0.043l0,0l0,0
		c-0.001,0.012-0.003,0.024-0.004,0.037c0.175,0.358,0.633,0.252,0.979,0.302c1.414,0.127,2.374,0.954,3.042,1.993l2.566-0.02
		C84.587,68.176,84.264,67.37,83.8,66.664L83.8,66.664L83.8,66.664z"/>
	<path fill-rule="evenodd" clip-rule="evenodd" fill="#1D1D1B" d="M88.117,66.631l-1.156,0.009l-0.496,0.004
		c0.001,0,0.001,0,0.001-0.001h-0.001c-0.408,0.745-0.713,1.537-0.882,2.371l2.152-0.017C87.767,68.174,87.911,67.359,88.117,66.631
		L88.117,66.631z"/>
	<path fill-rule="evenodd" clip-rule="evenodd" fill="#1D1D1B" d="M33.342,68.636c-0.132-0.534-0.358-1.068-0.679-1.58l-2.984,0.023
		c0.056,0.077,0.105,0.158,0.149,0.241c0.41,0.627,0.419,1.404,0.193,2.116l1.028-0.006l1.2-0.011
		C32.648,69.201,33.031,68.964,33.342,68.636L33.342,68.636z"/>
	<path fill-rule="evenodd" clip-rule="evenodd" fill="#1D1D1B" d="M40.122,68.894c0.632,0.15,1.321,0.041,1.777-0.375
		c0.478-0.396,0.688-0.971,0.632-1.539l-3.816,0.031c-0.027,0.229-0.017,0.468,0.02,0.707C38.968,68.18,39.432,68.796,40.122,68.894
		L40.122,68.894z"/>
	<path fill-rule="evenodd" clip-rule="evenodd" fill="#1D1D1B" d="M77.064,66.717l-0.222,0.001l-1.331,0.011
		C75.09,67.48,74.8,68.3,74.615,69.098l2.087-0.016C76.612,68.279,76.74,67.458,77.064,66.717L77.064,66.717z"/>
	<path fill-rule="evenodd" clip-rule="evenodd" fill="#1D1D1B" d="M25.934,67.106l-0.746,0.006l0-0.001h0
		c-0.628,0.73-1.092,1.574-1.358,2.375l1.767-0.014c-0.01-0.833,0.18-1.669,0.585-2.368L25.934,67.106L25.934,67.106z"/>
	<path fill-rule="evenodd" clip-rule="evenodd" fill="#1D1D1B" d="M66.221,66.799l-1.706,0.013c-0.411,0.67-0.693,1.401-0.846,2.109
		c-0.021,0.086-0.041,0.172-0.06,0.259l2.16-0.015C65.739,68.342,65.859,67.53,66.221,66.799L66.221,66.799z"/>
	<path fill-rule="evenodd" clip-rule="evenodd" fill="#1D1D1B" d="M66.978,65.745c0.454-0.52,1.257-0.732,1.54-1.302
		c-0.004-0.009-0.009-0.016-0.013-0.023l0,0l0,0h-0.076l-0.997,0.01c-0.022,0.009-0.043,0.015-0.063,0.022
		c-1.257,0.417-2.211,1.313-2.854,2.359l1.706-0.014C66.404,66.423,66.652,66.069,66.978,65.745L66.978,65.745z"/>
	<path fill-rule="evenodd" clip-rule="evenodd" fill="#1D1D1B" d="M83.232,65.931c-0.811-0.819-1.905-1.226-3.11-1.061
		c-0.903,0.262-1.802,1.023-1.934,1.837l5.611-0.043C83.629,66.404,83.439,66.159,83.232,65.931L83.232,65.931z"/>
	<path fill-rule="evenodd" clip-rule="evenodd" fill="#1D1D1B" d="M36.822,65.563c0.687-0.316,1.547-0.529,2.353-0.329
		c0.23,0.051,0.519,0.307,0.406,0.513c-0.554,0.291-0.805,0.752-0.866,1.262l3.816-0.03c-0.017-0.178-0.061-0.356-0.13-0.528
		c-0.755-1.027-1.965-1.637-3.288-1.782c-0.041-0.01-0.081-0.017-0.122-0.022l-0.609,0.004l-1.133,0.01
		c0.004-0.002,0.009-0.002,0.013-0.003l-0.013,0.001c-1.001,0.189-1.912,0.684-2.663,1.335c-0.261,0.307-0.466,0.669-0.604,1.053
		l2.055-0.017c-0.005-0.056-0.009-0.112-0.009-0.169C36.024,66.343,36.308,65.876,36.822,65.563L36.822,65.563z"/>
	<path fill-rule="evenodd" clip-rule="evenodd" fill="#1D1D1B" d="M71.11,65.352c-0.809-0.354-1.728-0.296-2.528-0.031
		c-0.691,0.244-1.181,0.886-1.427,1.471l3.771-0.027l1.738-0.015C72.27,66.225,71.76,65.753,71.11,65.352L71.11,65.352z"/>
	<path fill-rule="evenodd" clip-rule="evenodd" fill="#1D1D1B" d="M44.242,66.967l3.117-0.025c-0.006-0.416-0.014-0.834-0.025-1.253
		c0.112-0.361,0.514-0.365,0.916-0.368c0.821,0.133,1.372,0.924,1.73,1.603l2.924-0.022c-0.098-0.341-0.128-0.688,0.002-1.048
		c0.055-0.362,0.741-0.677,0.337-0.984c-1.838-0.036-3.79,0.134-5.687-0.059l-0.23-0.153l0-0.074l-1.115,0.008l-2.229,0.018
		c-0.343,0.171-0.703,0.305-1.076,0.392c-0.338,0.829,0.92,0.148,1.327,0.662L44.242,66.967L44.242,66.967z"/>
	<path fill-rule="evenodd" clip-rule="evenodd" fill="#1D1D1B" d="M62.733,66.825l0.683-0.005c0.512-0.739,1.176-1.383,2.12-1.632
		c0.172-0.104,0.17-0.363-0.003-0.414l-4.594-0.016c-0.174,0.001-0.403,0.105-0.401,0.312c0.462,0.203,0.81,0.562,1.155,0.921
		c0.182,0.274,0.296,0.556,0.356,0.838l0,0l0,0L62.733,66.825L62.733,66.825z"/>
	<path fill-rule="evenodd" clip-rule="evenodd" fill="#1D1D1B" d="M77.064,66.717c0.2-0.46,0.477-0.888,0.823-1.263
		c0.408-0.455,1.036-0.716,1.447-1.117l-0.613,0.005l-0.919,0.007l0.001-0.001h-0.001c-1.007,0.565-1.754,1.421-2.291,2.38
		l1.331-0.01L77.064,66.717L77.064,66.717L77.064,66.717z"/>
	<path fill-rule="evenodd" clip-rule="evenodd" fill="#1D1D1B" d="M58.994,65.806c-0.003-0.412,0.799-0.626,0.394-0.984
		l-4.767,0.036c-0.172,0.002-0.4,0.159-0.284,0.313c0.779,0.272,1.515,0.968,1.74,1.705l3-0.022l-0.193-0.529L58.994,65.806
		L58.994,65.806z"/>
	<path fill-rule="evenodd" clip-rule="evenodd" fill="#1D1D1B" d="M26.182,67.104c0.044-0.076,0.091-0.148,0.14-0.223
		c0.399-0.364,0.915-0.574,1.431-0.682c0.805-0.097,1.526,0.323,1.927,0.878l2.984-0.022c-0.112-0.179-0.236-0.356-0.371-0.528
		c-0.983-0.922-2.251-1.43-3.687-1.366c-1.383,0.158-2.554,0.944-3.417,1.95l0.746-0.005L26.182,67.104L26.182,67.104z"/>
	<path fill-rule="evenodd" clip-rule="evenodd" fill="#1D1D1B" d="M89.535,64.075c-0.209,0.049-0.412,0.111-0.604,0.188l1.727-0.013
		C90.312,64.126,89.943,64.051,89.535,64.075L89.535,64.075z"/>
	<path fill-rule="evenodd" clip-rule="evenodd" fill="#1D1D1B" d="M38.991,64.645c-0.595-0.104-1.176-0.094-1.729,0.012l1.12-0.007
		L38.991,64.645L38.991,64.645z"/>
	<path fill-rule="evenodd" clip-rule="evenodd" fill="#1D1D1B" d="M67.432,64.428l0.997-0.008h0.076
		C68.278,64.018,67.772,64.306,67.432,64.428L67.432,64.428z"/>
	<path fill-rule="evenodd" clip-rule="evenodd" fill="#1D1D1B" d="M92.375,64.237l2.558-0.021c-0.004-0.773-0.025-1.57-0.017-2.36
		l-2.554,0.02C92.438,62.649,92.412,63.453,92.375,64.237L92.375,64.237z"/>
	<path fill-rule="evenodd" clip-rule="evenodd" fill="#1D1D1B" d="M79.335,64.336c0.104-0.103,0.194-0.214,0.264-0.34
		c-0.059-0.154-0.23-0.204-0.346-0.204c-0.533,0.123-1.015,0.312-1.449,0.556l0.918-0.006L79.335,64.336L79.335,64.336z"/>
	<path fill-rule="evenodd" clip-rule="evenodd" fill="#1D1D1B" d="M47.308,62.22l-0.776,0.006l0-0.001h0
		c-0.571,0.943-1.473,1.846-2.549,2.383l2.229-0.018l1.115-0.008L47.308,62.22L47.308,62.22z"/>
	<path fill-rule="evenodd" clip-rule="evenodd" fill="#1D1D1B" d="M47.3,61.3c-0.356-1.547-0.686,0.418-0.683,0.779
		c-0.028,0.048-0.056,0.096-0.085,0.146l0.776-0.005L47.3,61.3L47.3,61.3z"/>
	<path fill-rule="evenodd" clip-rule="evenodd" fill="#1D1D1B" d="M92.362,61.875L92.362,61.875L92.362,61.875l2.554-0.02l0,0
		c0.008-0.808,0.047-1.606,0.17-2.362l-3.417,0.025C92.086,60.232,92.281,61.036,92.362,61.875L92.362,61.875z"/>
	<path fill-rule="evenodd" clip-rule="evenodd" fill="#1D1D1B" d="M82.927,57.154c1.352,0.455,2.755,0.031,3.807-0.544
		c1.226-0.784,1.684-1.977,1.558-3.266c-0.001-0.155-0.18-0.412-0.354-0.256c-0.523,0.571-1.105,1.145-1.866,1.356
		c-1.403,0.477-2.522-0.446-3.409-1.316c-0.294-0.205-0.179-0.463,0.112-0.673l4.505-2.351l-1.84,0.015
		c-0.728,1.049-2.24,1.325-3.312,2.033c-0.587,0.004-0.592-0.563-0.829-0.923c-0.107-0.327-0.189-0.695-0.231-1.077l0,0
		l-0.676,0.005l-1.184,0.01c-0.204,0.664-0.289,1.358-0.244,2.059C79.271,54.24,80.52,56.553,82.927,57.154L82.927,57.154z"/>
	<path fill-rule="evenodd" clip-rule="evenodd" fill="#1D1D1B" d="M91.393,59.103c0.102,0.134,0.192,0.272,0.275,0.416h0.001
		c0,0,0-0.002-0.001-0.002l3.418-0.024c0,0,0,0,0,0.001l0,0c0.041-0.249,0.092-0.49,0.153-0.729l-0.175-0.205
		c-1.493-0.041-2.929,0.022-4.479,0.086C90.474,59.109,91.161,58.795,91.393,59.103L91.393,59.103z"/>
	<path fill-rule="evenodd" clip-rule="evenodd" fill="#1D1D1B" d="M33.456,50.517c1.224,2.4,2.02,4.98,2.71,7.51
		c0.06,0.103,0.294,0.101,0.352,0.05c0.283-1.344,0.741-2.742,2.023-3.682c0.931-0.781-1.003-0.817-0.893-1.697l0.962-2.221
		l-0.686,0.006c0-0.001,0.001-0.002,0.001-0.002h-0.001c-0.261,0.517-0.524,1.032-0.634,1.549c-0.116,0.104-0.351,0.055-0.411-0.1
		c-0.262-0.456-0.484-0.937-0.666-1.435l0,0l0,0L33.456,50.517L33.456,50.517z"/>
	<path fill-rule="evenodd" clip-rule="evenodd" fill="#1D1D1B" d="M76.657,57.255c0.527-0.057,1.351,0.298,1.64-0.219
		c-0.178-0.258-0.587-0.049-0.821-0.201c-0.59-0.201-0.652-0.77-0.656-1.234c0.829-1.688,1.497-3.468,1.744-5.429l-3.239,0.025
		c0.009,0.662-0.076,1.337-0.172,1.956c-0.103,1.706-1.089,3.056-0.959,4.862l0.236,0.205L76.657,57.255L76.657,57.255z"/>
	<path fill-rule="evenodd" clip-rule="evenodd" fill="#1D1D1B" d="M45.592,56.82c-0.378-2.105-0.601-4.274-0.554-6.392l-2.597,0.02
		c0.031,2.09-0.374,4.239-0.66,6.196c-0.055,0.517-0.76,0.316-1.05,0.627l0.177,0.206c1.875-0.066,3.75-0.081,5.568,0.061
		C47.351,56.807,45.771,57.285,45.592,56.82L45.592,56.82z"/>
	<path fill-rule="evenodd" clip-rule="evenodd" fill="#1D1D1B" d="M21.358,71.207l-0.492-1.698l-0.682-2.358l-0.682-2.355
		l-0.682-2.357l-3.238,0.026c0.128,0.386,0.229,0.787,0.319,1.193l-0.277,1.167l-0.561,2.365l0.605-0.004l0.419-1.723
		c0.057-0.104,0.229-0.053,0.288-0.002l0.478,1.715l0.657,2.358l0.401,1.44c0.537,2.526,1.474,4.998,1.495,7.683l0.346,0.205
		c0.507-1.348,0.957-2.643,1.982-3.785c0.397-0.521,1.201-0.578,1.369-1.198c-0.52-0.409-1.442-0.816-1.161-1.593
		c0.244-0.916,0.423-1.852,0.591-2.79l-0.589,0.005l-0.242,1.29C21.585,70.895,21.646,71.256,21.358,71.207L21.358,71.207z"/>
	<path fill-rule="evenodd" clip-rule="evenodd" fill="#1D1D1B" d="M14.501,69.558l-0.38,1.602c-0.057,0.104-0.229,0.105-0.287,0.053
		l-0.448-1.646l-0.641-2.358l-0.641-2.356l-3.387,0.025l0.635,2.356l0.635,2.358l1.818,6.748l0.306,2.426
		c0.001,0.155,0.174,0.258,0.346,0.152c0.333-1.45,0.839-2.899,2.037-4.044c0.227-0.416,0.859-0.317,0.913-0.782
		c-0.406-0.461-1.098-0.869-1.045-1.541l0.73-2.998l0.577-2.367l-0.605,0.005L14.501,69.558L14.501,69.558z"/>
	<path fill-rule="evenodd" clip-rule="evenodd" fill="#1D1D1B" d="M22.386,67.134l-0.444,2.367l0.589-0.005
		c0.141-0.791,0.273-1.583,0.429-2.366c0.16-0.802,0.342-1.593,0.583-2.365l-0.711,0.004L22.386,67.134L22.386,67.134z"/>
	<path fill-rule="evenodd" clip-rule="evenodd" fill="#1D1D1B" d="M8.133,64.882L8.133,64.882l-0.463,0.003
		c0-0.001,0.001-0.001,0.001-0.002H7.669c-0.041,0.158-0.049,0.328-0.141,0.439c-0.283,0.571-0.912,0.937-1.543,0.992
		c-0.979-0.072-1.894-0.641-2.42-1.398h0l0,0.001L3.136,64.92l-0.171,0.001c0.617,0.914,1.623,1.771,2.852,1.81
		c0.746-0.059,1.434-0.27,1.946-0.841C7.927,65.587,8.18,65.206,8.133,64.882L8.133,64.882L8.133,64.882z"/>
	<path fill-rule="evenodd" clip-rule="evenodd" fill="#1D1D1B" d="M7.925,64.544c-0.159,0.074-0.219,0.201-0.254,0.339l0.462-0.001
		C8.114,64.759,8.052,64.642,7.925,64.544L7.925,64.544z"/>
	<path fill-rule="evenodd" clip-rule="evenodd" fill="#1D1D1B" d="M3.212,64.219c-0.127-0.531-0.17-1.111-0.069-1.661l-0.65,0.005
		c-0.109,0.688-0.034,1.396,0.262,2.021c0.064,0.112,0.134,0.226,0.209,0.337l0.171-0.001l0.428-0.004
		C3.412,64.697,3.292,64.462,3.212,64.219L3.212,64.219z"/>
	<path fill-rule="evenodd" clip-rule="evenodd" fill="#1D1D1B" d="M11.701,62.655c0.014-0.057,0.042-0.111,0.078-0.163l-1.403,0.011
		l-2.281,0.019c0.017,0.072,0.032,0.144,0.046,0.214l0.577,2.142l3.387-0.025l-0.457-1.679L11.701,62.655L11.701,62.655z"/>
	<path fill-rule="evenodd" clip-rule="evenodd" fill="#1D1D1B" d="M23.079,63.447l-0.248,1.321l0.712-0.005l0,0.001h0
		c0.255-0.817,0.575-1.614,0.999-2.371l-0.783,0.005l-0.723,0.007C23.092,62.746,23.105,63.098,23.079,63.447L23.079,63.447z"/>
	<path fill-rule="evenodd" clip-rule="evenodd" fill="#1D1D1B" d="M11.778,62.492L11.778,62.492c0.257-0.36,0.965-0.573,0.661-0.978
		c-0.748-0.046-1.381-0.248-2.015-0.553c-0.271-0.282-0.565-0.562-0.879-0.815l-2.781,0.021l-3.06,0.023
		c0,0,0.001-0.002,0.002-0.002H3.705c-0.147,0.157-0.283,0.329-0.404,0.517c-0.42,0.538-0.701,1.188-0.807,1.856l0.65-0.006
		c0.135-0.73,0.523-1.411,1.306-1.859c0.515-0.365,1.26-0.422,1.894-0.22c1.063,0.229,1.543,1.17,1.751,2.042l2.281-0.017
		L11.778,62.492L11.778,62.492L11.778,62.492z"/>
	<path fill-rule="evenodd" clip-rule="evenodd" fill="#1D1D1B" d="M18.522,60.899c0.11-0.562,0.783-0.624,1.24-0.83l-5.726,0.043
		v0.048c0.806,0.605,1.25,1.415,1.546,2.302l3.238-0.024l-0.176-0.609L18.522,60.899L18.522,60.899z"/>
	<path fill-rule="evenodd" clip-rule="evenodd" fill="#1D1D1B" d="M23.036,62.405L23.036,62.405c0-0.001,0-0.001,0-0.002
		l0.723-0.005l0.783-0.007c0.237-0.424,0.508-0.836,0.817-1.234c0.341-0.467,0.853-1.143,1.6-1.096
		c0.032-0.015,0.059-0.031,0.08-0.049l-5.596,0.043C22.365,60.529,22.875,61.421,23.036,62.405L23.036,62.405z"/>
	<path fill-rule="evenodd" clip-rule="evenodd" fill="#1D1D1B" d="M26.956,59.699c-1.665,0.116-3.445,0.182-5.054,0.09
		c-0.23,0.001-0.518-0.047-0.573,0.212c0.039,0.018,0.077,0.035,0.114,0.055l5.596-0.045C27.169,59.9,27.104,59.743,26.956,59.699
		L26.956,59.699z"/>
	<path fill-rule="evenodd" clip-rule="evenodd" fill="#1D1D1B" d="M9.545,60.145c-0.824-0.669-1.789-1.177-2.869-1.168
		c-1.151,0.009-2.219,0.414-2.97,1.213l3.058-0.021L9.545,60.145L9.545,60.145z"/>
	<path fill-rule="evenodd" clip-rule="evenodd" fill="#1D1D1B" d="M19.762,60.069h0.004c0.004-0.001,0.008-0.004,0.013-0.006
		c0.057-0.103-0.001-0.206-0.116-0.205l-5.627,0.146l0.001,0.107l5.73-0.044C19.765,60.068,19.764,60.069,19.762,60.069
		L19.762,60.069z"/>
	<path fill-rule="evenodd" clip-rule="evenodd" fill="#1D1D1B" d="M54.461,50.356l-1.959,0.016l0,0l0,0
		c-0.647,0.958-2.178,1.407-3.134,1.978c-0.351,0.056-0.53-0.305-0.649-0.51c-0.155-0.422-0.303-0.919-0.386-1.437l-2.084,0.018
		c-0.152,0.572-0.228,1.163-0.223,1.75c0.252,2.219,1.793,4.53,4.319,5.286c1.352,0.298,2.813,0.03,3.862-0.753
		c1.282-0.939,1.682-2.388,1.378-3.728c-0.06-0.155-0.295-0.359-0.47-0.204c-0.289,0.621-0.811,1.194-1.513,1.509
		c-0.816,0.471-1.814,0.17-2.579-0.136c-0.53-0.306-1.354-0.712-1.241-1.28C51.279,51.968,52.887,51.197,54.461,50.356
		L54.461,50.356z"/>
	<path fill-rule="evenodd" clip-rule="evenodd" fill="#1D1D1B" d="M56.84,56.321l-0.288,0.52c-0.174,0.207-0.526,0.054-0.702,0.212
		c-0.115,0.155,0.002,0.258,0.12,0.36c1.876-0.015,3.927,0.021,5.802-0.097c0.17-0.672-0.88-0.097-1.117-0.611
		c-0.425-2.032-0.744-4.282-0.498-6.392l-0.998,0.006l-1.854,0.016C57.377,52.331,57.121,54.337,56.84,56.321L56.84,56.321z"/>
	<path fill-rule="evenodd" clip-rule="evenodd" fill="#1D1D1B" d="M68.624,50.249c0.071,1.755-0.104,3.549-0.302,5.159
		c-0.173,0.518,0.067,1.291-0.576,1.502c-0.586-0.047-1.405,0.218-1.818-0.347c-0.299-0.618-0.127-1.238,0.22-1.81
		c0.557-1.315,1.175-2.931,1.237-4.495l-2.739,0.02l-0.631,0.005c0.119,1.77-0.493,3.642-0.968,5.216
		c0.063,0.619-0.4,1.243,0.131,1.807l9.495,0.031l0.351-0.106c0.23-0.468-0.646-0.149-0.824-0.51
		c-0.601-1.958-0.854-4.28-0.811-6.397c0.002-0.032,0.006-0.064,0.009-0.097l-0.37,0.002L68.624,50.249L68.624,50.249z"/>
	<path fill-rule="evenodd" clip-rule="evenodd" fill="#1D1D1B" d="M85.287,47.757c0.396,0.688,0.57,1.449,0.224,2.25
		c-0.023,0.039-0.047,0.075-0.071,0.112l1.84-0.015l1.216-0.635l0.29-0.365c-0.004-0.523-0.195-0.962-0.47-1.371h-0.002
		c0.001,0.001,0.002,0.001,0.002,0.003L85.287,47.757L85.287,47.757z"/>
	<path fill-rule="evenodd" clip-rule="evenodd" fill="#1D1D1B" d="M57.305,50.334c0-0.001,0-0.002,0-0.002l1.854-0.014l0.998-0.007
		c0.073-0.622,0.194-1.229,0.375-1.816c0.117-0.188,0.28-0.384,0.476-0.553l-2.22,0.016l-1.743,0.014
		C57.194,48.757,57.274,49.543,57.305,50.334L57.305,50.334z"/>
	<path fill-rule="evenodd" clip-rule="evenodd" fill="#1D1D1B" d="M81.502,47.786l-0.821,0.006l-0.137,0.001l0,0l0,0
		c-0.624,0.723-1.077,1.525-1.336,2.373l1.184-0.009l0.676-0.005C80.979,49.336,81.078,48.458,81.502,47.786L81.502,47.786z"/>
	<path fill-rule="evenodd" clip-rule="evenodd" fill="#1D1D1B" d="M39.376,48.708c0.088-0.207,0.211-0.409,0.358-0.603l-0.193,0.001
		l-0.967,0.011c0.129,0.812-0.257,1.589-0.647,2.363l0.685-0.004L39.376,48.708L39.376,48.708z"/>
	<path fill-rule="evenodd" clip-rule="evenodd" fill="#1D1D1B" d="M74.646,47.838c0.5,0.665,0.666,1.501,0.678,2.358l3.239-0.026
		c0.011-0.088,0.021-0.176,0.03-0.265c0.021-0.695-0.147-1.433-0.505-2.094h-0.001c0,0.001,0,0.001,0.001,0.001L74.646,47.838
		L74.646,47.838z"/>
	<path fill-rule="evenodd" clip-rule="evenodd" fill="#1D1D1B" d="M54.461,50.356L54.461,50.356
		c0.447-0.239,0.893-0.485,1.332-0.739c0.307-0.549,0.11-1.121-0.206-1.632l-3.138,0.025c0.281,0.437,0.433,0.916,0.354,1.422
		c-0.011,0.362-0.12,0.67-0.301,0.94L54.461,50.356L54.461,50.356L54.461,50.356z"/>
	<path fill-rule="evenodd" clip-rule="evenodd" fill="#1D1D1B" d="M45.038,50.427c0.017-0.797,0.073-1.588,0.172-2.363l-3.026,0.023
		c0.17,0.77,0.245,1.56,0.257,2.36L45.038,50.427L45.038,50.427z"/>
	<path fill-rule="evenodd" clip-rule="evenodd" fill="#1D1D1B" d="M67.385,50.258L67.385,50.258c0.034-0.82-0.088-1.624-0.451-2.361
		l-3.669,0.029c0.026,0.026,0.051,0.055,0.077,0.083c0.421,0.713,0.62,1.483,0.673,2.273l0.631-0.005L67.385,50.258L67.385,50.258
		L67.385,50.258z"/>
	<path fill-rule="evenodd" clip-rule="evenodd" fill="#1D1D1B" d="M68.624,50.248l2.403-0.019l0.37-0.002l0,0
		c0.082-0.834,0.151-1.742,0.778-2.367l-3.826,0.026C68.507,48.651,68.591,49.446,68.624,50.248L68.624,50.248z"/>
	<path fill-rule="evenodd" clip-rule="evenodd" fill="#1D1D1B" d="M33.455,50.516l2.76-0.021c-0.273-0.755-0.455-1.55-0.542-2.359
		l0,0l-3.607,0.028C32.585,48.923,33.045,49.709,33.455,50.516L33.455,50.516C33.456,50.516,33.456,50.516,33.455,50.516
		L33.455,50.516z"/>
	<path fill-rule="evenodd" clip-rule="evenodd" fill="#1D1D1B" d="M47.46,48.046L47.46,48.046c-0.579,0.701-0.984,1.517-1.212,2.373
		l2.084-0.019c-0.13-0.811-0.102-1.673,0.303-2.363l-0.839,0.006L47.46,48.046L47.46,48.046L47.46,48.046z"/>
	<path fill-rule="evenodd" clip-rule="evenodd" fill="#1D1D1B" d="M48.747,47.862c0.407-0.52,0.99-0.731,1.634-0.891
		c0.587-0.004,1.174,0.146,1.645,0.504c0.16,0.169,0.305,0.347,0.424,0.533l3.138-0.025c-0.104-0.167-0.22-0.329-0.337-0.481
		c-1.184-1.437-3.238-1.833-5.109-1.303c-1.121,0.388-2.016,1.041-2.681,1.847l0.335-0.003l0.839-0.007
		C48.67,47.977,48.707,47.918,48.747,47.862L48.747,47.862z"/>
	<path fill-rule="evenodd" clip-rule="evenodd" fill="#1D1D1B" d="M81.502,47.785c0.039-0.06,0.078-0.118,0.122-0.174
		c0.755-0.935,2.57-1.053,3.457-0.181c0.073,0.106,0.142,0.215,0.206,0.327l0,0v-0.001l3.026-0.022
		c-0.158-0.236-0.347-0.461-0.54-0.687c-1.476-1.383-4.349-1.619-5.982-0.418c-0.469,0.357-0.887,0.748-1.247,1.165l0.137-0.001
		L81.502,47.785L81.502,47.785z"/>
	<path fill-rule="evenodd" clip-rule="evenodd" fill="#1D1D1B" d="M39.734,48.106L39.734,48.106c0.33-0.431,0.786-0.808,1.271-1.062
		c0.292-0.053,0.642-0.314,0.879-0.007c0.122,0.345,0.221,0.695,0.3,1.05l3.026-0.023c0.063-0.495,0.145-0.984,0.246-1.467
		l-0.237-0.308l-7.561-0.097l-0.232,0.259l0.709,0.666c0.253,0.339,0.389,0.671,0.44,0.998l0.967-0.008L39.734,48.106L39.734,48.106
		L39.734,48.106z"/>
	<path fill-rule="evenodd" clip-rule="evenodd" fill="#1D1D1B" d="M68.079,46.836c0.107,0.342,0.198,0.693,0.271,1.05l0,0
		c0,0,0,0,0-0.001l3.828-0.028c0,0.001-0.001,0.003-0.002,0.003h0.002c0.171-0.171,0.386-0.32,0.653-0.441
		c0.584-0.314,1.348-0.113,1.762,0.348c0.019,0.023,0.036,0.047,0.054,0.071l3.441-0.026c-0.438-0.807-1.159-1.5-2.161-1.862
		c-1.528-0.453-2.87,0.332-3.978,1.063c-0.411-0.151-0.005-0.62-0.357-0.823l-4.221-0.071l-0.35,0.261
		C67.258,46.792,67.842,46.425,68.079,46.836L68.079,46.836z"/>
	<path fill-rule="evenodd" clip-rule="evenodd" fill="#1D1D1B" d="M60.989,46.942c-0.878,0.11,0.054-0.62-0.476-0.823l-4.396-0.018
		l-0.292,0.209c0.122,0.516,0.764,0.098,0.941,0.509c0.11,0.383,0.202,0.767,0.275,1.153h0.001c-0.001,0-0.001-0.001-0.001-0.001
		l1.744-0.013l2.22-0.018c0.292-0.256,0.655-0.456,1.041-0.491c0.436-0.003,0.873,0.128,1.217,0.475l3.669-0.03
		c-0.091-0.182-0.195-0.359-0.314-0.531c-0.532-0.616-1.299-1.126-2.062-1.378C63.205,45.686,61.98,46.263,60.989,46.942
		L60.989,46.942z"/>
	<path fill-rule="evenodd" clip-rule="evenodd" fill="#1D1D1B" d="M35.673,48.136c-0.037-0.349-0.057-0.7-0.06-1.051
		c-0.121-0.464,0.934-0.42,0.403-0.83l-9.025,0.018l-0.232,0.208c0.06,0.154,0.235,0.205,0.353,0.204
		c0.353,0.1,0.589,0.357,0.65,0.666c0.066,0.279,0.122,0.561,0.168,0.844l3.086-0.024c0.042-0.302,0.09-0.602,0.144-0.898
		l0.175-0.104c0.256,0.325,0.499,0.657,0.73,0.995h0c0,0,0,0,0-0.001L35.673,48.136L35.673,48.136z"/>
	<path fill-rule="evenodd" clip-rule="evenodd" fill="#1D1D1B" d="M45.191,42.726c-0.532-0.615-1.529-0.711-2.348-0.447
		c-0.584,0.263-0.932,0.782-1.044,1.35c0.004,0.517,0.067,1.136,0.656,1.493c0.53,0.357,1.175,0.404,1.819,0.348
		c0.527-0.107,1.051-0.524,1.282-0.939C45.669,43.91,45.723,43.186,45.191,42.726L45.191,42.726z"/>
	<path fill-rule="evenodd" clip-rule="evenodd" fill="#1D1D1B" d="M31.411,56.929c-0.48-2.039-0.68-4.239-0.599-6.391l-2.699,0.021
		l0,0c0.007,2.097-0.337,4.238-0.629,6.247c-0.054,0.567-0.878,0.161-1.051,0.575l0.119,0.154c2.051-0.016,4.103,0.021,6.095,0.005
		C32.757,56.764,31.767,57.494,31.411,56.929L31.411,56.929z"/>
	<path fill-rule="evenodd" clip-rule="evenodd" fill="#1D1D1B" d="M30.812,50.538c0.03-0.799,0.099-1.591,0.206-2.365l-3.086,0.024
		c0.125,0.773,0.179,1.564,0.182,2.361L30.812,50.538L30.812,50.538L30.812,50.538z"/>
	<path fill-rule="evenodd" clip-rule="evenodd" fill="#1D1D1B" d="M27.918,44.82c0.414,0.41,1.001,0.56,1.587,0.607
		c0.82-0.006,1.52-0.58,1.808-1.202c0.23-0.519,0.108-1.137-0.247-1.599c-0.472-0.461-1.118-0.611-1.762-0.555
		c-0.762,0.058-1.52,0.58-1.749,1.201C27.5,43.791,27.447,44.462,27.918,44.82L27.918,44.82z"/>
	<path fill-rule="evenodd" clip-rule="evenodd" fill="#1D1D1B" d="M24.47,53.729c-0.353-0.151-0.823-0.355-0.768-0.769
		c0.185-0.799,0.391-1.59,0.613-2.374l-0.663,0.007c-0.153,0.413-0.315,0.825-0.486,1.234c-0.164-0.404-0.316-0.815-0.462-1.228h0
		c0,0,0,0,0,0.001l-1.21,0.009l-2.219,0.018c0.636,2.18,1.253,4.363,1.881,6.535c0.237,0.361,0.065,0.878,0.42,1.185l0.233-0.156
		c0.344-1.085,1.098-1.969,1.971-2.854c0.406-0.57,1.226-0.577,1.456-1.199C25.057,53.829,24.706,53.882,24.47,53.729L24.47,53.729z
		"/>
	<path fill-rule="evenodd" clip-rule="evenodd" fill="#1D1D1B" d="M24.459,48.221L24.459,48.221
		c-0.25,0.794-0.514,1.583-0.807,2.371l0.663-0.008c0.224-0.794,0.463-1.583,0.713-2.366l-0.313,0.001L24.459,48.221L24.459,48.221
		L24.459,48.221z"/>
	<path fill-rule="evenodd" clip-rule="evenodd" fill="#1D1D1B" d="M21.951,48.242l-3.091,0.023l-0.281,0.002
		c0.235,0.786,0.466,1.572,0.695,2.358l2.219-0.017l1.21-0.01C22.429,49.817,22.184,49.031,21.951,48.242L21.951,48.242z"/>
	<path fill-rule="evenodd" clip-rule="evenodd" fill="#1D1D1B" d="M18.86,48.265l3.091-0.024c-0.229-0.784-0.447-1.569-0.669-2.356
		h-0.001c0,0,0.001,0.001,0.001,0.002l-2.341,0.016l-1.081,0.008c0.245,0.784,0.484,1.569,0.719,2.355l0,0L18.86,48.265
		L18.86,48.265z"/>
	<path fill-rule="evenodd" clip-rule="evenodd" fill="#1D1D1B" d="M12.957,45.949l-0.459,0.005c0.935,0.752,2.039,1.391,3.307,1.076
		c0.513-0.256,1.137-0.611,1.271-1.112l-0.562,0.003c-0.004,0.006-0.01,0.013-0.015,0.019c-0.23,0.466-0.757,0.677-1.225,0.732
		c-0.793,0.006-1.567-0.273-2.179-0.725h0h0L12.957,45.949L12.957,45.949z"/>
	<path fill-rule="evenodd" clip-rule="evenodd" fill="#1D1D1B" d="M24.459,48.221l0.255-0.002l0.313-0.002
		c0.252-0.792,0.515-1.581,0.781-2.367l-0.641,0.005C24.938,46.645,24.707,47.434,24.459,48.221L24.459,48.221z"/>
	<path fill-rule="evenodd" clip-rule="evenodd" fill="#1D1D1B" d="M20.763,44.1l0.112-0.776c0.172-0.414,0.874-0.574,0.812-1.038
		l-1.762-0.503l-1.472-0.97c-1.179-0.817-3.056-1.061-4.399-0.431c-1.402,0.63-2.624,1.879-2.612,3.325
		c-0.052,0.878,0.423,1.598,1.013,2.213c0.014,0.011,0.028,0.023,0.042,0.033l0.459-0.003l0.138-0.001
		c-0.43-0.315-0.779-0.715-1-1.161c-0.301-1.134-0.076-2.375,1.09-3.107c0.524-0.469,1.286-0.475,1.989-0.428
		c0.588,0.149,1.234,0.403,1.472,0.918c0.422,1.242,0.825,2.49,1.215,3.742l1.081-0.008l2.34-0.019
		C21.114,45.289,20.943,44.693,20.763,44.1L20.763,44.1z"/>
	<path fill-rule="evenodd" clip-rule="evenodd" fill="#1D1D1B" d="M17.076,45.918L17.076,45.918
		c0.003-0.011,0.006-0.022,0.009-0.034c0.058-0.155,0.171-0.569-0.181-0.619c-0.34,0.103-0.237,0.445-0.39,0.656L17.076,45.918
		C17.076,45.917,17.076,45.917,17.076,45.918L17.076,45.918z"/>
	<path fill-rule="evenodd" clip-rule="evenodd" fill="#1D1D1B" d="M29.295,40.885l-4.982-0.065
		c-0.292,0.054-0.762-0.046-0.819,0.213c0.119,0.206,0.47,0.151,0.705,0.149c1.177,0.663,1.538,1.847,1.43,3.087
		c-0.155,0.529-0.307,1.057-0.46,1.585l0.641-0.006c0.173-0.512,0.349-1.022,0.523-1.533c0.579-0.934,1.217-1.868,2.266-2.651
		C28.771,41.301,29.592,41.348,29.295,40.885L29.295,40.885z"/>
	<path fill-rule="evenodd" clip-rule="evenodd" fill="#1D1D1B" d="M49.829,34.086c0.236-0.002,0.462-0.089,0.642-0.233l-0.645,0.004
		l-0.642,0.005C49.368,34.005,49.594,34.088,49.829,34.086L49.829,34.086z"/>
	<path fill-rule="evenodd" clip-rule="evenodd" fill="#1D1D1B" d="M65.05,33.74L65.05,33.74c-0.395,0.957-2.407,1.809-5.446,2.401
		c-1.417,0.274-3.058,0.493-4.86,0.639c0,0-2.391,0.236-4.818,0.254c-2.593,0.02-4.75-0.181-4.75-0.181
		c-1.78-0.119-3.412-0.312-4.829-0.563l-0.88,0.006l-1.533,0.013c2.04,0.578,4.793,0.97,8.024,1.137
		c1.166,0.842,2.488,1.291,3.951,1.279c1.452-0.011,2.858-0.507,3.94-1.313c3.236-0.216,6.014-0.667,8.068-1.287
		c2.115-0.639,3.463-1.459,3.75-2.39L65.05,33.74L65.05,33.74L65.05,33.74L65.05,33.74z M49.89,38.329
		c-1.119,0.009-2.151-0.313-3.06-0.827c1.07,0.074,1.971,0.139,3.064,0.13c1.215-0.009,1.858-0.037,3.042-0.136
		C52.034,38.026,51.012,38.32,49.89,38.329L49.89,38.329z"/>
	<path fill-rule="evenodd" clip-rule="evenodd" fill="#1D1D1B" d="M39.466,36.296l0.88-0.007c-3.072-0.544-5.142-1.368-5.557-2.319
		h0c0,0,0,0.001,0,0.001l-0.333,0.002l-0.301,0.003c0.318,0.945,1.663,1.737,3.77,2.333h0.007c-0.002,0-0.004-0.001-0.007-0.002
		L39.466,36.296L39.466,36.296z"/>
	<path fill-rule="evenodd" clip-rule="evenodd" fill="#1D1D1B" d="M54.842,33.818c0.325-0.095,0.67-0.197,1.034-0.307
		c-0.025,0.105-0.052,0.205-0.077,0.3l0.539-0.006c0.256-0.993,0.215-1.889,0.163-2.362l-0.239,0.001l-0.257,0.003
		c0.068,0.671-0.025,1.425-0.025,1.425c-1.359,0.449-2.355,0.756-3.207,0.962c-0.727,0.173-1.345,0.272-1.993,0.321
		c0.165-0.093,0.292-0.193,0.389-0.309c0.169-0.204,0.24-0.459,0.237-0.828c-0.002-0.271-0.036-0.423-0.129-0.585
		c0.014,0.082,0.021,0.166,0.022,0.251c0.004,0.459-0.183,0.875-0.486,1.165c-0.268,0.257-0.626,0.415-1.021,0.418
		c-0.395,0.003-0.755-0.15-1.027-0.402c-0.264-0.245-0.444-0.585-0.492-0.968c-0.003,0.063-0.006,0.127-0.004,0.191
		c0.009,0.228,0.028,0.486,0.262,0.778c0.074,0.092,0.168,0.187,0.29,0.286c-0.564-0.055-1.102-0.14-1.714-0.276h-0.006
		c0.002,0,0.004,0.001,0.006,0.001l-1.985,0.016C49.407,35.022,50.776,35,54.842,33.818L54.842,33.818z"/>
	<path fill-rule="evenodd" clip-rule="evenodd" fill="#1D1D1B" d="M47.3,32.933c-0.002-0.241-0.194-0.435-0.429-0.434
		c-0.235,0.002-0.424,0.199-0.422,0.44c0.002,0.24,0.193,0.434,0.429,0.432C47.113,33.37,47.302,33.173,47.3,32.933L47.3,32.933z"/>
	<path fill-rule="evenodd" clip-rule="evenodd" fill="#1D1D1B" d="M37.684,33.453c0.001,0.17,0.045,0.336,0.129,0.496
		c0.52,0.979,2.588,1.73,5.925,2.102l1.674,0.2l0.031,0.004c1.408,0.135,2.83,0.16,4.441,0.147c1.66-0.013,3.046-0.066,4.392-0.218
		c0.014,0,0.026-0.001,0.038-0.002l1.565-0.169c3.457-0.48,5.473-1.225,5.942-2.246l-0.738,0.006
		c-0.637,0.67-2.573,1.298-5.462,1.669c0.355-0.539,0.578-1.101,0.717-1.635l-0.539,0.006c-0.182,0.671-0.394,1.134-0.781,1.715
		c-1.557,0.18-3.327,0.283-5.193,0.297c-1.802,0.014-3.538-0.063-5.059-0.21c-0.331-0.493-0.625-0.976-0.827-1.71l-0.302,0.002
		l-0.269,0.002c0.138,0.572,0.375,1.146,0.768,1.628c-2.677-0.246-4.904-0.87-5.63-1.592c-0.162-0.161-0.25-0.327-0.251-0.494
		c-0.005-0.634,1.058-1.389,2.886-1.885l-1.396,0.008c0,0,0.001,0,0.002,0h-0.002C38.384,32.122,37.679,32.79,37.684,33.453
		L37.684,33.453z"/>
	<path fill-rule="evenodd" clip-rule="evenodd" fill="#1D1D1B" d="M54.812,32.847c0.233-0.002,0.422-0.193,0.42-0.427
		c-0.002-0.234-0.192-0.423-0.426-0.421c-0.234,0.002-0.423,0.193-0.421,0.428C54.387,32.66,54.577,32.849,54.812,32.847
		L54.812,32.847z"/>
	<path fill-rule="evenodd" clip-rule="evenodd" fill="#1D1D1B" d="M51.118,32.207c0.067,0.084,0.118,0.156,0.159,0.227
		c-0.013-0.078-0.031-0.154-0.054-0.228C51.188,32.205,51.151,32.208,51.118,32.207L51.118,32.207z"/>
	<path fill-rule="evenodd" clip-rule="evenodd" fill="#1D1D1B" d="M49.293,31.5l-0.499,0.001l-0.001,0l0.003,0.287
		C48.935,31.659,49.1,31.561,49.293,31.5L49.293,31.5z"/>
	<path fill-rule="evenodd" clip-rule="evenodd" fill="#1D1D1B" d="M62.698,31.396c1.49,0.604,2.417,1.318,2.422,1.992
		c0.001,0.118-0.022,0.236-0.07,0.353l0.617-0.005v0l0,0c0.041-0.13,0.06-0.262,0.058-0.396c-0.011-0.678-0.631-1.355-1.725-1.954
		h-0.001c0,0,0.001,0,0.001,0.001L62.698,31.396L62.698,31.396z"/>
	<path fill-rule="evenodd" clip-rule="evenodd" fill="#1D1D1B" d="M48.326,32.252c-0.041,0.145-0.064,0.297-0.063,0.456
		c0,0.064,0.006,0.127,0.013,0.189c0.016-0.247,0.077-0.484,0.198-0.644C48.425,32.255,48.374,32.252,48.326,32.252L48.326,32.252z"
		/>
	<path fill-rule="evenodd" clip-rule="evenodd" fill="#1D1D1B" d="M34.456,33.974l0.333-0.003c-0.049-0.115-0.076-0.232-0.077-0.35
		c-0.005-0.67,0.837-1.397,2.267-2.026c1.579-0.694,3.874-1.269,6.534-1.518l-0.14,0.58c-1.495,0.225-2.708,0.542-3.625,0.914
		l1.401-0.01c-0.002,0.001-0.005,0.002-0.008,0.002h0.008c0.625-0.168,1.339-0.306,2.131-0.398c0,0-0.026,0.141-0.048,0.379
		c-0.049,0.5-0.089,1.427,0.136,2.362h0.001c0,0-0.001,0-0.001-0.001l0.27-0.001l0.302-0.003c-0.031-0.11-0.06-0.227-0.086-0.351
		c0.451,0.125,0.872,0.238,1.269,0.343h0.002c0,0-0.001,0-0.002,0l1.981-0.017c-0.857-0.192-1.862-0.482-3.29-0.935
		c-0.081-0.568-0.066-1.062-0.034-1.399c0.027-0.298,0.069-0.474,0.069-0.474s0.47,0.214,1.152,0.464l0.006,0
		c-0.001,0-0.004,0-0.006-0.001l1.785-0.012c-1.314-0.312-2.827-0.931-2.827-0.931c0.577-2.094,2.179-3.735,4.232-4.333l0.041,5.252
		l0.562-0.004c0,0,0,0.001,0,0.001h0c0,0,0,0,0,0v0l-0.059-5.352c0.631-0.252,1.329-0.24,1.984-0.024c0,0,0.045,4.185,0.054,5.361
		c0,0,0,0,0,0l0.586-0.004l-0.046-5.271c2.137,0.512,3.827,2.207,4.478,4.284c-1.171,0.455-2.137,0.788-2.952,0.976l0.489-0.003
		l1.368-0.011c-0.003,0.001-0.005,0.002-0.007,0.002h0.007c0.721-0.255,1.225-0.476,1.225-0.476c0.04,0.141,0.066,0.299,0.084,0.463
		h0.001c0,0-0.001-0.001-0.001-0.002l0.258-0.001l0.239-0.002c-0.026-0.224-0.054-0.353-0.054-0.353
		c0.733,0.068,1.406,0.187,2.002,0.34c1.757,0.458,2.844,1.218,2.862,1.844c0.005,0.166-0.072,0.333-0.229,0.498l0.738-0.005
		c0.074-0.159,0.108-0.325,0.106-0.498c-0.008-0.651-0.645-1.317-1.947-1.85c-0.889-0.363-2.089-0.666-3.61-0.86
		c-0.035-0.152-0.149-0.554-0.149-0.554c2.525,0.199,4.842,0.729,6.478,1.392l1.301-0.01c-1.669-0.912-4.443-1.638-7.837-1.888
		c-0.608-1.299-2.046-2.78-3.669-3.492c-0.858-0.917-1.927-2.42-1.226-2.739c0.753-0.342,2.319,1.185,2.319,1.185
		c-0.169-1.285-0.037-4.83-0.037-4.83c-0.499,0.535-1.569,1.586-2.229,1.238c-0.9-0.477,1.188-2.81,0.932-2.785
		c-1.019,0.097-3.689,0.105-4.969,0.021c-0.257-0.018,1.869,2.285,0.974,2.77c-0.663,0.358-1.73-0.677-2.237-1.204
		c0,0,0.125,3.502,0.019,4.83c0,0,1.551-1.551,2.309-1.22c0.707,0.308-0.383,1.803-1.228,2.732
		c-1.627,0.799-2.946,2.161-3.449,3.589c-3.509,0.344-6.273,1.097-7.916,2.009c-1.101,0.612-1.696,1.297-1.673,1.98
		c0.005,0.134,0.029,0.265,0.072,0.394L34.456,33.974L34.456,33.974z M46.587,23.537c0.034-1.191-0.029-2.605-0.029-2.605
		c0.584,0.808,1.422,0.715,1.856,0.596c-0.04,0.136-0.067,0.277-0.066,0.426c0.003,0.364,0.143,0.692,0.364,0.946
		c0.002,0.004,0.004,0.01,0.006,0.013C47.767,22.393,46.587,23.537,46.587,23.537L46.587,23.537z"/>
	<path fill-rule="evenodd" clip-rule="evenodd" fill="#1D1D1B" d="M49.183,33.862h0.002C49.185,33.862,49.184,33.862,49.183,33.862
		l0.644-0.005l0.645-0.005c0.239-0.19,0.399-0.483,0.396-0.811c-0.004-0.575-0.546-1.095-1.096-1.09
		c-0.549,0.004-1.004,0.532-1,1.106C48.775,33.385,48.939,33.675,49.183,33.862L49.183,33.862z"/>
	<path fill-rule="evenodd" clip-rule="evenodd" fill="#1D1D1B" d="M52.514,33.353c0.234-0.002,0.422-0.193,0.42-0.427
		c-0.002-0.234-0.191-0.422-0.426-0.42s-0.422,0.193-0.42,0.427C52.09,33.167,52.279,33.354,52.514,33.353L52.514,33.353z"/>
	<path fill-rule="evenodd" clip-rule="evenodd" fill="#1D1D1B" d="M50.219,31.491c0.209,0.059,0.402,0.162,0.555,0.298
		c0,0,0-0.104-0.001-0.281c-0.007-0.007-0.014-0.014-0.021-0.021L50.219,31.491L50.219,31.491z"/>
	<path fill-rule="evenodd" clip-rule="evenodd" fill="#1D1D1B" d="M44.935,32.012c-0.235,0.001-0.424,0.198-0.422,0.439
		s0.194,0.435,0.429,0.433c0.235-0.002,0.424-0.199,0.422-0.439S45.169,32.01,44.935,32.012L44.935,32.012z"/>
	<path fill-rule="evenodd" clip-rule="evenodd" fill="#1D1D1B" d="M48.792,31.503l-0.562,0.003l0.001,0.169
		c-0.354,0.053-0.88-0.024-1.442-0.158h-0.004c0.001,0,0.003,0.001,0.004,0.001l-1.784,0.012c0.929,0.336,2.248,0.727,3.32,0.722
		C48.41,31.958,48.572,31.699,48.792,31.503L48.792,31.503z"/>
	<path fill-rule="evenodd" clip-rule="evenodd" fill="#1D1D1B" d="M51.224,32.205c1.067,0.016,2.469-0.394,3.465-0.746l-1.361,0.009
		l-0.489,0.004c-0.557,0.129-1.044,0.191-1.479,0.18l-0.001-0.169l-0.586,0.004l0,0c0,0.008,0,0.014,0,0.021
		C50.979,31.692,51.136,31.932,51.224,32.205L51.224,32.205z"/>
	<path fill-rule="evenodd" clip-rule="evenodd" fill="#1D1D1B" d="M49.734,26.57c-0.247,0.002-0.445,0.201-0.443,0.445
		c0.002,0.244,0.203,0.44,0.45,0.438c0.247-0.002,0.445-0.201,0.443-0.445C50.183,26.765,49.981,26.568,49.734,26.57L49.734,26.57z"
		/>
	<path fill-rule="evenodd" clip-rule="evenodd" fill="#1D1D1B" d="M49.757,29.576c-0.247,0.002-0.445,0.201-0.443,0.444
		c0.002,0.244,0.203,0.44,0.45,0.438c0.247-0.002,0.445-0.201,0.443-0.445C50.206,29.77,50.004,29.574,49.757,29.576L49.757,29.576z
		"/>
	<path fill-rule="evenodd" clip-rule="evenodd" fill="#1D1D1B" d="M49.745,27.982c-0.247,0.002-0.445,0.201-0.443,0.444
		c0.002,0.244,0.203,0.44,0.45,0.438c0.247-0.002,0.445-0.201,0.443-0.445C50.193,28.176,49.992,27.98,49.745,27.982L49.745,27.982z
		"/>
	<path fill-rule="evenodd" clip-rule="evenodd" fill="#1D1D1B" d="M49.771,31.429c0.152-0.001,0.304,0.02,0.447,0.061l0.533-0.003
		c-0.266-0.228-0.609-0.365-0.982-0.362s-0.713,0.145-0.976,0.377l0.499-0.004C49.437,31.455,49.597,31.431,49.771,31.429
		L49.771,31.429z"/>
	<polygon fill-rule="evenodd" clip-rule="evenodd" fill="#1D1D1B" points="48.794,31.502 48.793,31.502 48.794,31.502 	"/>
</g>
</svg>
