<svg id="svg" xmlns="http://www.w3.org/2000/svg" xmlns:xlink="http://www.w3.org/1999/xlink" width="400" height="221.53846153846155" viewBox="0, 0, 400,221.53846153846155"><g id="svgg"><path id="path0" d="M80.055 32.805 C 79.328 33.097,79.417 34.017,80.464 37.008 C 80.955 38.410,81.495 40.105,81.665 40.776 C 81.834 41.446,82.218 42.693,82.518 43.546 C 82.819 44.399,83.231 45.745,83.436 46.537 C 83.640 47.330,83.907 48.099,84.030 48.248 C 84.152 48.396,84.484 49.393,84.767 50.464 C 85.049 51.534,85.433 52.767,85.619 53.202 C 85.805 53.638,86.158 54.735,86.404 55.640 C 86.649 56.545,87.016 57.734,87.219 58.283 C 87.422 58.831,87.764 59.928,87.979 60.720 C 88.194 61.512,88.640 62.958,88.971 63.934 C 90.270 67.761,90.483 68.427,90.966 70.139 C 91.241 71.114,91.678 72.510,91.937 73.241 C 92.195 73.972,92.575 75.169,92.781 75.900 C 92.987 76.632,93.273 77.429,93.416 77.673 C 93.559 77.917,93.801 78.707,93.954 79.430 C 94.107 80.152,94.413 81.166,94.635 81.682 C 94.856 82.199,95.254 83.453,95.518 84.469 C 95.782 85.485,96.130 86.615,96.291 86.981 C 96.451 87.346,96.837 88.493,97.148 89.529 C 97.780 91.637,98.419 93.642,99.090 95.623 C 99.337 96.355,99.775 97.801,100.063 98.837 C 100.351 99.873,100.794 101.253,101.048 101.903 C 101.301 102.554,101.617 103.588,101.748 104.202 C 101.880 104.815,102.214 105.829,102.490 106.454 C 102.767 107.079,103.116 108.189,103.267 108.920 C 103.582 110.451,103.895 111.113,104.704 111.967 L 105.281 112.576 114.746 112.576 C 126.146 112.575,125.502 112.715,126.247 110.093 C 126.514 109.154,126.835 108.194,126.960 107.960 C 127.086 107.726,127.439 106.700,127.746 105.679 C 128.457 103.311,129.317 100.733,130.109 98.591 C 130.451 97.664,130.838 96.433,130.967 95.857 C 131.096 95.281,131.402 94.418,131.646 93.938 C 131.890 93.459,132.185 92.569,132.300 91.960 C 132.416 91.351,132.767 90.291,133.082 89.604 C 133.396 88.918,133.740 87.897,133.846 87.336 C 133.953 86.775,134.256 85.817,134.520 85.208 C 134.784 84.598,135.175 83.452,135.389 82.659 C 135.603 81.867,135.951 80.820,136.162 80.332 C 136.373 79.845,136.738 78.698,136.973 77.784 C 137.208 76.870,137.592 75.723,137.825 75.235 C 138.059 74.748,138.422 73.701,138.633 72.909 C 138.843 72.116,139.137 71.267,139.285 71.021 C 139.433 70.776,139.763 69.751,140.017 68.744 C 140.272 67.738,140.632 66.642,140.819 66.310 C 141.005 65.978,141.356 64.921,141.600 63.960 C 141.844 63.000,142.138 62.099,142.255 61.959 C 142.372 61.818,142.713 60.859,143.014 59.827 C 143.315 58.795,143.770 57.468,144.025 56.878 C 144.280 56.288,144.551 55.391,144.628 54.883 C 144.704 54.376,145.009 53.421,145.306 52.760 C 145.603 52.099,146.000 50.953,146.188 50.212 C 146.377 49.471,146.725 48.465,146.962 47.978 C 147.198 47.490,147.485 46.614,147.598 46.030 C 147.711 45.446,148.105 44.282,148.472 43.444 C 148.840 42.606,149.141 41.725,149.141 41.487 C 149.141 41.031,149.606 39.572,150.110 38.449 C 150.446 37.699,151.467 34.552,151.670 33.640 C 151.791 33.097,151.726 33.019,150.971 32.810 C 150.065 32.558,135.068 32.477,133.867 32.717 C 133.130 32.864,132.299 34.069,132.299 34.992 C 132.299 35.233,132.036 36.160,131.714 37.051 C 131.393 37.941,131.001 39.283,130.845 40.032 C 130.688 40.780,130.320 42.027,130.028 42.802 C 129.735 43.577,129.289 45.008,129.036 45.983 C 128.783 46.958,128.469 48.055,128.338 48.421 C 127.991 49.387,127.032 52.717,126.322 55.420 C 125.983 56.710,125.585 57.992,125.437 58.268 C 125.289 58.544,124.936 59.682,124.651 60.798 C 124.367 61.913,123.939 63.376,123.702 64.049 C 123.464 64.722,123.196 65.719,123.106 66.265 C 123.015 66.811,122.713 67.807,122.432 68.478 C 122.152 69.150,121.800 70.346,121.649 71.137 C 121.498 71.929,121.148 73.175,120.869 73.906 C 120.591 74.637,120.243 75.934,120.095 76.787 C 119.947 77.640,119.602 78.936,119.328 79.668 C 119.054 80.399,118.719 81.716,118.583 82.594 C 118.448 83.472,118.086 84.984,117.780 85.955 C 117.473 86.925,117.136 88.400,117.031 89.233 C 116.882 90.419,116.427 92.454,116.236 92.792 C 116.220 92.819,115.847 92.742,115.406 92.620 C 114.563 92.387,114.127 91.327,114.127 89.509 C 114.127 88.685,113.527 85.611,113.229 84.908 C 113.108 84.622,112.758 83.176,112.451 81.695 C 112.145 80.214,111.756 78.704,111.588 78.338 C 111.420 77.972,111.113 76.825,110.908 75.789 C 110.702 74.753,110.358 73.457,110.143 72.909 C 109.929 72.360,109.581 71.114,109.371 70.139 C 109.161 69.163,108.855 68.017,108.692 67.590 C 108.239 66.409,107.951 65.384,107.703 64.066 C 107.579 63.407,107.337 62.587,107.165 62.242 C 106.994 61.898,106.682 60.891,106.473 60.005 C 106.264 59.118,105.853 57.670,105.560 56.785 C 105.266 55.901,104.920 54.604,104.791 53.904 C 104.662 53.204,104.319 52.047,104.028 51.332 C 103.738 50.617,103.392 49.432,103.259 48.700 C 103.126 47.968,102.784 46.708,102.498 45.900 C 102.212 45.093,101.758 43.538,101.489 42.446 C 101.220 41.353,100.872 40.156,100.716 39.786 C 100.560 39.416,100.261 38.330,100.053 37.373 C 99.610 35.337,98.569 32.913,98.053 32.715 C 97.485 32.497,80.612 32.581,80.055 32.805 M239.801 38.578 C 239.266 38.683,238.268 38.961,237.585 39.196 C 236.902 39.430,235.375 39.786,234.192 39.986 C 233.009 40.186,231.511 40.532,230.862 40.755 C 230.214 40.978,228.984 41.286,228.129 41.439 C 225.337 41.938,225.311 42.001,225.363 48.149 C 225.418 54.759,225.377 54.828,221.528 54.592 L 219.255 54.453 218.436 55.172 L 217.618 55.891 217.618 60.826 C 217.618 68.055,217.473 67.812,221.773 67.812 C 225.665 67.812,225.241 66.094,225.378 82.405 C 225.497 96.585,225.594 98.157,226.582 101.828 C 228.005 107.114,231.585 110.866,237.008 112.754 L 239.224 113.526 244.151 113.624 C 249.265 113.725,251.554 113.493,253.903 112.638 C 255.418 112.087,255.376 112.291,255.318 105.747 C 255.251 98.233,255.532 98.781,251.852 98.978 C 246.632 99.257,244.200 97.789,243.287 93.807 C 242.755 91.483,242.867 68.884,243.414 68.278 C 243.821 67.828,244.028 67.812,249.286 67.808 C 255.199 67.805,255.197 67.805,255.517 66.689 C 255.887 65.397,255.795 56.163,255.404 55.406 C 254.937 54.503,254.630 54.456,249.660 54.523 C 243.521 54.606,243.887 54.650,243.329 53.748 C 242.869 53.003,242.856 52.783,242.896 45.993 C 242.946 37.589,243.089 37.932,239.801 38.578 M176.399 53.746 C 174.972 53.921,173.349 54.297,172.201 54.717 C 171.172 55.093,170.187 55.402,170.011 55.402 C 168.610 55.402,162.276 59.434,160.111 61.704 C 159.088 62.776,157.119 65.122,157.119 65.268 C 157.119 65.354,156.786 65.887,156.379 66.452 C 155.972 67.017,155.465 67.928,155.253 68.476 C 155.040 69.025,154.740 69.623,154.586 69.806 C 154.277 70.172,152.838 74.589,152.455 76.343 C 151.770 79.488,151.829 88.595,152.556 91.745 C 153.259 94.793,155.161 99.534,156.110 100.602 C 156.276 100.789,156.634 101.371,156.905 101.896 C 157.422 102.896,160.940 106.601,162.675 107.973 C 165.206 109.974,169.271 111.887,173.200 112.928 L 176.288 113.745 181.385 113.749 C 186.775 113.753,186.972 113.727,191.690 112.381 C 194.081 111.698,198.458 109.574,199.959 108.367 C 202.728 106.141,206.537 102.262,206.537 101.670 C 206.537 101.564,206.738 101.262,206.983 100.999 C 207.834 100.085,209.339 96.698,210.406 93.296 C 213.593 83.130,211.125 69.294,204.990 62.932 C 204.683 62.614,204.070 61.949,203.627 61.454 C 203.184 60.959,202.510 60.370,202.131 60.146 C 201.751 59.922,201.440 59.665,201.440 59.576 C 201.440 58.911,195.642 55.848,192.251 54.720 C 188.502 53.474,181.919 53.070,176.399 53.746 M285.718 53.760 C 284.360 53.945,282.789 54.333,281.779 54.734 C 280.855 55.101,279.927 55.404,279.717 55.407 C 279.507 55.410,278.791 55.759,278.127 56.183 C 277.462 56.606,276.792 56.953,276.638 56.953 C 276.485 56.953,276.031 57.230,275.631 57.568 C 275.231 57.906,274.639 58.317,274.315 58.480 C 272.379 59.459,266.853 65.872,266.266 67.821 C 266.176 68.121,265.814 68.823,265.461 69.382 C 265.108 69.941,264.820 70.519,264.820 70.665 C 264.820 70.811,264.489 71.800,264.086 72.862 C 263.648 74.013,263.195 75.821,262.963 77.341 C 262.750 78.742,262.482 80.496,262.368 81.237 C 261.863 84.516,262.808 93.304,263.895 95.439 C 264.133 95.906,264.457 96.737,264.615 97.285 C 264.773 97.834,265.183 98.699,265.526 99.209 C 265.869 99.718,266.150 100.284,266.150 100.466 C 266.150 100.648,266.414 101.111,266.737 101.495 C 267.060 101.878,267.596 102.597,267.928 103.092 C 270.878 107.484,276.848 111.179,283.657 112.827 C 287.430 113.740,297.121 114.030,301.269 113.354 C 307.296 112.372,310.632 111.527,312.722 110.451 C 313.509 110.046,313.699 108.879,313.242 107.258 C 313.054 106.587,312.699 104.842,312.455 103.380 C 311.752 99.181,311.771 99.238,310.950 98.761 L 310.211 98.330 307.516 99.042 C 301.619 100.600,291.387 100.800,288.240 99.420 C 287.852 99.250,286.986 98.887,286.316 98.613 C 282.753 97.155,279.668 93.496,279.668 90.728 C 279.668 89.212,278.610 89.296,297.663 89.305 C 317.514 89.314,316.232 89.443,316.643 87.398 C 317.182 84.715,316.786 75.430,316.053 73.556 C 315.930 73.241,315.660 72.294,315.452 71.450 C 315.072 69.901,313.496 65.987,313.006 65.374 C 312.860 65.191,312.564 64.693,312.349 64.266 C 311.370 62.329,306.051 56.953,305.113 56.953 C 304.996 56.953,304.483 56.668,303.973 56.320 C 303.464 55.972,302.648 55.561,302.161 55.405 C 301.673 55.250,300.688 54.880,299.972 54.583 C 297.331 53.487,290.588 53.098,285.718 53.760 M291.856 65.474 C 295.506 66.179,297.282 67.467,298.902 70.582 C 300.185 73.048,300.526 75.794,299.657 76.663 C 299.029 77.292,280.840 77.297,280.041 76.669 C 277.924 75.003,282.390 67.307,286.212 66.034 C 286.959 65.785,289.242 65.266,289.972 65.179 C 290.094 65.164,290.942 65.297,291.856 65.474 M185.172 66.549 C 185.433 66.695,186.142 67.082,186.746 67.408 C 194.672 71.688,195.851 90.883,188.632 98.102 C 185.056 101.679,179.545 102.001,175.807 98.853 C 174.506 97.758,173.740 96.958,173.740 96.694 C 173.740 96.616,173.497 96.234,173.201 95.845 C 171.699 93.877,170.739 90.251,170.294 84.875 C 170.109 82.638,170.757 76.700,171.347 75.235 C 171.592 74.626,171.991 73.629,172.234 73.019 C 173.561 69.688,176.809 66.750,179.723 66.244 C 181.039 66.015,184.571 66.213,185.172 66.549 M55.328 118.299 L 54.728 118.925 54.730 157.784 L 54.732 196.643 55.344 197.165 L 55.956 197.688 79.367 197.686 C 104.002 197.685,103.755 197.695,104.073 196.698 C 104.267 196.090,104.258 184.385,104.063 183.772 C 103.650 182.470,103.814 182.483,88.542 182.604 C 73.583 182.723,73.249 182.702,72.831 181.614 C 72.752 181.407,72.687 167.204,72.687 150.051 L 72.687 118.864 72.065 118.269 L 71.444 117.673 63.686 117.673 L 55.928 117.673 55.328 118.299 M134.737 138.634 C 132.198 139.078,131.301 139.295,129.129 139.992 C 127.764 140.430,126.598 140.856,126.537 140.939 C 126.476 141.022,125.831 141.361,125.104 141.691 C 124.376 142.021,123.728 142.372,123.663 142.470 C 123.599 142.568,123.114 142.919,122.587 143.249 C 121.047 144.214,117.008 147.968,117.008 148.435 C 117.008 148.542,116.802 148.816,116.550 149.044 C 116.002 149.540,114.324 152.087,113.932 153.019 C 113.778 153.385,113.485 153.934,113.280 154.238 C 112.688 155.122,111.470 158.605,110.995 160.776 C 110.755 161.873,110.399 163.468,110.203 164.321 C 109.787 166.136,109.721 173.448,110.112 174.458 C 110.242 174.792,110.498 175.988,110.682 177.117 C 110.865 178.246,111.112 179.468,111.231 179.834 C 111.794 181.577,112.983 184.360,113.525 185.203 C 113.856 185.719,114.128 186.218,114.128 186.311 C 114.128 186.405,114.387 186.781,114.703 187.147 C 115.019 187.512,115.417 188.080,115.587 188.408 C 115.758 188.735,116.081 189.134,116.304 189.294 C 116.527 189.454,116.802 189.742,116.915 189.934 C 117.084 190.223,118.193 191.246,120.091 192.864 C 120.683 193.368,123.325 195.017,124.100 195.365 C 124.526 195.557,125.474 196.001,126.205 196.352 C 126.936 196.703,128.192 197.142,128.996 197.328 C 129.799 197.514,130.796 197.807,131.212 197.978 C 134.090 199.165,148.901 199.115,152.687 197.905 C 153.357 197.690,154.803 197.336,155.900 197.116 C 158.021 196.692,161.046 195.434,161.255 194.888 C 161.325 194.707,161.077 193.241,160.705 191.629 C 160.332 190.017,159.921 187.912,159.791 186.952 C 159.349 183.696,158.697 183.155,156.158 183.934 C 155.285 184.202,154.439 184.460,154.278 184.509 C 149.934 185.812,136.407 185.530,134.572 184.097 C 134.421 183.979,133.723 183.602,133.021 183.260 C 130.404 181.985,128.529 179.999,127.648 177.572 C 127.125 176.128,127.159 175.366,127.772 174.752 C 128.083 174.442,129.978 174.404,145.225 174.404 C 162.502 174.404,163.527 174.360,164.118 173.582 C 164.558 173.001,164.549 162.636,164.107 160.776 C 162.907 155.729,162.608 154.679,162.110 153.765 C 161.803 153.200,161.551 152.610,161.551 152.455 C 161.551 152.169,159.530 148.760,158.566 147.421 C 157.862 146.443,155.195 143.816,154.238 143.158 C 153.812 142.865,153.409 142.549,153.344 142.457 C 152.885 141.805,147.866 139.676,145.263 139.028 C 143.973 138.707,136.021 138.410,134.737 138.634 M192.465 138.650 C 189.391 139.015,188.027 139.237,186.593 139.604 C 178.285 141.731,175.860 142.879,176.039 144.598 C 176.142 145.578,177.039 148.917,177.618 150.471 C 177.822 151.019,178.061 151.867,178.149 152.355 C 178.562 154.654,179.358 154.868,182.271 153.462 C 183.125 153.050,184.272 152.613,184.822 152.490 C 185.371 152.367,186.171 152.119,186.600 151.941 C 189.088 150.901,196.860 150.491,199.446 151.263 C 202.559 152.193,204.678 154.298,205.070 156.850 C 205.355 158.707,204.743 159.040,200.776 159.182 C 195.789 159.361,187.134 161.131,184.881 162.433 C 184.665 162.558,183.839 162.961,183.047 163.330 C 179.346 165.051,173.740 170.217,173.740 171.907 C 173.740 172.023,173.451 172.707,173.099 173.427 C 171.200 177.305,171.231 185.263,173.158 188.711 C 173.478 189.283,173.740 189.869,173.740 190.014 C 173.740 190.158,173.919 190.470,174.137 190.706 C 174.356 190.942,174.939 191.684,175.433 192.355 C 177.036 194.528,180.921 197.452,182.206 197.452 C 182.326 197.452,182.689 197.637,183.013 197.863 C 185.094 199.320,195.851 199.262,197.963 197.783 C 198.224 197.601,198.552 197.452,198.692 197.452 C 199.607 197.452,202.738 195.579,204.203 194.155 C 206.264 192.151,207.645 192.744,207.645 195.633 C 207.645 197.527,208.336 197.698,216.062 197.717 L 222.604 197.732 223.319 197.074 C 223.993 196.453,224.019 196.372,223.779 195.659 C 223.599 195.129,223.479 189.611,223.374 177.175 C 223.218 158.660,223.181 157.947,222.192 154.689 C 222.024 154.136,221.713 153.086,221.501 152.355 C 221.289 151.623,220.988 150.875,220.832 150.693 C 220.675 150.510,220.325 149.837,220.053 149.197 C 219.780 148.557,219.486 148.033,219.399 148.033 C 219.312 148.033,219.138 147.809,219.013 147.535 C 217.800 144.876,212.640 141.243,207.945 139.742 C 204.634 138.684,196.817 138.132,192.465 138.650 M316.676 138.847 C 315.640 139.026,314.294 139.357,313.684 139.583 C 313.075 139.809,312.078 140.160,311.468 140.362 C 310.223 140.776,307.766 141.962,306.925 142.554 C 302.785 145.472,300.087 148.229,298.391 151.274 C 298.060 151.868,297.720 152.404,297.636 152.465 C 297.553 152.526,297.311 152.975,297.101 153.463 C 296.890 153.950,296.474 154.808,296.176 155.369 C 295.878 155.929,295.493 156.927,295.319 157.585 C 295.145 158.243,294.754 159.529,294.450 160.443 C 293.044 164.676,293.149 175.488,294.635 179.437 C 294.935 180.233,295.180 181.049,295.180 181.251 C 295.180 181.724,297.571 186.593,297.803 186.593 C 297.900 186.593,298.133 186.917,298.322 187.313 C 299.115 188.975,303.257 193.039,305.156 194.017 C 305.580 194.236,306.237 194.649,306.614 194.936 C 306.991 195.223,307.432 195.457,307.593 195.457 C 307.754 195.457,308.393 195.741,309.013 196.087 C 309.632 196.434,310.960 196.937,311.964 197.205 C 312.968 197.474,314.115 197.826,314.512 197.989 C 317.411 199.174,332.467 199.109,336.177 197.896 C 336.848 197.676,337.845 197.427,338.393 197.340 C 340.997 196.931,344.241 195.626,344.530 194.871 C 344.604 194.680,344.560 194.010,344.433 193.384 C 344.305 192.757,343.983 191.097,343.715 189.695 C 343.448 188.294,343.062 186.399,342.856 185.485 L 342.483 183.823 341.585 183.633 C 340.867 183.482,340.486 183.535,339.685 183.900 C 336.373 185.409,324.459 185.890,319.887 184.699 C 316.779 183.890,312.024 180.663,312.022 179.362 C 312.022 179.225,311.876 178.991,311.698 178.844 C 310.903 178.184,310.425 176.194,310.852 175.321 L 311.247 174.515 329.024 174.404 L 346.802 174.294 347.307 173.789 C 347.980 173.116,348.065 163.045,347.420 160.332 C 346.664 157.153,345.918 154.579,345.498 153.702 C 345.260 153.205,344.959 152.516,344.830 152.171 C 344.579 151.499,342.839 148.556,342.072 147.506 C 341.480 146.695,337.930 143.158,337.708 143.158 C 337.616 143.158,337.259 142.923,336.915 142.635 C 335.363 141.340,332.006 139.858,328.753 139.033 C 326.802 138.538,319.151 138.420,316.676 138.847 M230.963 140.179 C 230.263 140.669,230.663 142.886,231.880 145.263 C 232.068 145.629,232.367 146.490,232.546 147.177 C 232.725 147.864,233.018 148.712,233.198 149.061 C 233.377 149.410,233.730 150.343,233.981 151.136 C 234.232 151.928,234.689 153.175,234.997 153.906 C 235.305 154.637,235.560 155.407,235.563 155.618 C 235.566 155.828,235.872 156.665,236.244 157.477 C 236.617 158.290,236.977 159.265,237.045 159.644 C 237.113 160.022,237.444 160.981,237.781 161.773 C 238.117 162.565,238.545 163.712,238.731 164.321 C 238.918 164.931,239.274 165.928,239.522 166.537 C 239.771 167.147,240.135 168.194,240.331 168.864 C 240.527 169.535,240.869 170.482,241.091 170.970 C 241.536 171.947,242.219 173.853,243.036 176.399 C 243.330 177.313,243.760 178.460,243.991 178.947 C 244.223 179.435,244.660 180.582,244.962 181.496 C 245.999 184.640,246.902 187.141,247.083 187.365 C 247.182 187.489,247.440 188.188,247.656 188.920 C 247.871 189.651,248.381 191.109,248.789 192.160 C 249.196 193.212,249.529 194.238,249.529 194.441 C 249.529 194.968,250.271 196.348,250.945 197.074 L 251.521 197.693 259.963 197.628 C 269.615 197.553,268.819 197.736,269.576 195.413 C 269.787 194.767,270.052 194.125,270.165 193.988 C 270.278 193.850,270.522 193.152,270.707 192.436 C 270.892 191.721,271.225 190.786,271.446 190.357 C 271.668 189.929,272.022 188.982,272.234 188.252 C 272.445 187.522,272.852 186.427,273.137 185.817 C 273.423 185.208,273.778 184.211,273.926 183.601 C 274.074 182.992,274.361 182.244,274.564 181.939 C 274.767 181.634,275.115 180.737,275.338 179.945 C 275.561 179.152,275.974 177.994,276.257 177.371 C 276.539 176.748,276.864 175.824,276.978 175.317 C 277.092 174.810,277.337 174.163,277.523 173.879 C 277.710 173.594,278.086 172.624,278.359 171.722 C 278.632 170.821,279.087 169.584,279.370 168.975 C 279.653 168.366,279.886 167.668,279.887 167.424 C 279.888 167.180,280.199 166.332,280.576 165.540 C 280.954 164.748,281.402 163.575,281.571 162.933 C 281.741 162.291,282.116 161.293,282.404 160.716 C 282.692 160.140,282.988 159.351,283.061 158.964 C 283.135 158.577,283.396 157.829,283.642 157.302 C 283.887 156.775,284.299 155.645,284.556 154.792 C 284.814 153.939,285.173 153.009,285.355 152.725 C 285.536 152.441,285.831 151.643,286.010 150.952 C 286.188 150.261,286.524 149.296,286.754 148.809 C 286.985 148.321,287.396 147.224,287.668 146.371 C 287.940 145.518,288.396 144.355,288.681 143.788 C 289.422 142.312,289.591 140.835,289.082 140.273 C 288.700 139.851,288.379 139.834,280.769 139.834 C 270.638 139.834,271.166 139.701,270.615 142.391 C 270.491 142.996,270.145 144.202,269.845 145.072 C 269.545 145.943,269.227 147.089,269.138 147.621 C 269.049 148.152,268.800 149.037,268.584 149.588 C 268.368 150.138,267.983 151.572,267.728 152.774 C 267.473 153.976,267.176 155.072,267.067 155.208 C 266.958 155.345,266.699 156.205,266.492 157.119 C 266.284 158.033,265.830 159.729,265.481 160.886 C 265.133 162.044,264.727 163.540,264.579 164.211 C 264.431 164.881,264.120 165.978,263.888 166.648 C 263.656 167.319,263.312 168.758,263.122 169.847 C 262.933 170.936,262.539 172.624,262.248 173.598 C 261.956 174.572,261.717 175.630,261.717 175.948 C 261.717 176.570,261.113 179.072,260.915 179.270 C 260.487 179.698,259.100 175.687,258.504 172.299 C 258.289 171.080,257.991 169.834,257.842 169.529 C 257.692 169.224,257.348 168.028,257.076 166.870 C 256.805 165.712,256.403 164.316,256.182 163.767 C 255.961 163.219,255.660 162.172,255.512 161.440 C 255.364 160.709,255.049 159.629,254.810 159.041 C 254.572 158.452,254.186 157.094,253.952 156.022 C 253.718 154.950,253.327 153.607,253.082 153.036 C 252.838 152.466,252.542 151.431,252.426 150.737 C 252.309 150.042,251.911 148.626,251.541 147.590 C 251.170 146.554,250.866 145.498,250.863 145.242 C 250.861 144.987,250.648 144.190,250.389 143.470 C 248.927 139.390,250.193 139.834,240.015 139.834 C 232.627 139.834,231.389 139.881,230.963 140.179 M140.667 150.805 C 143.294 151.424,145.416 153.356,146.750 156.343 C 147.970 159.072,148.177 161.500,147.223 161.866 C 146.761 162.043,128.466 162.038,127.964 161.861 C 127.305 161.627,126.775 160.863,126.992 160.458 C 127.095 160.267,127.399 159.413,127.670 158.560 C 127.940 157.706,128.444 156.549,128.790 155.987 C 129.135 155.425,129.418 154.913,129.418 154.850 C 129.418 154.631,131.584 152.465,131.803 152.465 C 131.924 152.465,132.153 152.309,132.311 152.118 C 133.455 150.741,137.619 150.086,140.667 150.805 M324.200 150.814 C 327.382 151.564,330.153 154.788,330.975 158.695 C 331.717 162.225,332.420 161.994,320.927 161.994 C 309.599 161.994,309.763 162.040,310.777 159.197 C 313.248 152.271,317.942 149.340,324.200 150.814 M205.439 170.978 C 205.877 171.375,205.896 171.582,205.830 175.393 L 205.762 179.391 205.027 180.844 C 201.290 188.237,190.769 188.232,189.229 180.836 C 188.830 178.919,190.269 174.183,191.251 174.183 C 191.324 174.183,191.680 173.894,192.041 173.541 C 192.927 172.675,195.685 171.431,197.452 171.102 C 201.405 170.366,204.706 170.315,205.439 170.978 " stroke="none" fill="#fbf7f6" fill-rule="evenodd"></path><path id="path1" d="M0.000 110.803 L 0.000 221.607 200.000 221.607 L 400.000 221.607 400.000 110.803 L 400.000 0.000 200.000 0.000 L 0.000 0.000 0.000 110.803 M98.053 32.715 C 98.569 32.913,99.610 35.337,100.053 37.373 C 100.261 38.330,100.560 39.416,100.716 39.786 C 100.872 40.156,101.220 41.353,101.489 42.446 C 101.758 43.538,102.212 45.093,102.498 45.900 C 102.784 46.708,103.126 47.968,103.259 48.700 C 103.392 49.432,103.738 50.617,104.028 51.332 C 104.319 52.047,104.662 53.204,104.791 53.904 C 104.920 54.604,105.266 55.901,105.560 56.785 C 105.853 57.670,106.264 59.118,106.473 60.005 C 106.682 60.891,106.994 61.898,107.165 62.242 C 107.337 62.587,107.579 63.407,107.703 64.066 C 107.951 65.384,108.239 66.409,108.692 67.590 C 108.855 68.017,109.161 69.163,109.371 70.139 C 109.581 71.114,109.929 72.360,110.143 72.909 C 110.358 73.457,110.702 74.753,110.908 75.789 C 111.113 76.825,111.420 77.972,111.588 78.338 C 111.756 78.704,112.145 80.214,112.451 81.695 C 112.758 83.176,113.108 84.622,113.229 84.908 C 113.527 85.611,114.127 88.685,114.127 89.509 C 114.127 91.327,114.563 92.387,115.406 92.620 C 115.847 92.742,116.220 92.819,116.236 92.792 C 116.427 92.454,116.882 90.419,117.031 89.233 C 117.136 88.400,117.473 86.925,117.780 85.955 C 118.086 84.984,118.448 83.472,118.583 82.594 C 118.719 81.716,119.054 80.399,119.328 79.668 C 119.602 78.936,119.947 77.640,120.095 76.787 C 120.243 75.934,120.591 74.637,120.869 73.906 C 121.148 73.175,121.498 71.929,121.649 71.137 C 121.800 70.346,122.152 69.150,122.432 68.478 C 122.713 67.807,123.015 66.811,123.106 66.265 C 123.196 65.719,123.464 64.722,123.702 64.049 C 123.939 63.376,124.367 61.913,124.651 60.798 C 124.936 59.682,125.289 58.544,125.437 58.268 C 125.585 57.992,125.983 56.710,126.322 55.420 C 127.032 52.717,127.991 49.387,128.338 48.421 C 128.469 48.055,128.783 46.958,129.036 45.983 C 129.289 45.008,129.735 43.577,130.028 42.802 C 130.320 42.027,130.688 40.780,130.845 40.032 C 131.001 39.283,131.393 37.941,131.714 37.051 C 132.036 36.160,132.299 35.233,132.299 34.992 C 132.299 34.069,133.130 32.864,133.867 32.717 C 135.068 32.477,150.065 32.558,150.971 32.810 C 151.726 33.019,151.791 33.097,151.670 33.640 C 151.467 34.552,150.446 37.699,150.110 38.449 C 149.606 39.572,149.141 41.031,149.141 41.487 C 149.141 41.725,148.840 42.606,148.472 43.444 C 148.105 44.282,147.711 45.446,147.598 46.030 C 147.485 46.614,147.198 47.490,146.962 47.978 C 146.725 48.465,146.377 49.471,146.188 50.212 C 146.000 50.953,145.603 52.099,145.306 52.760 C 145.009 53.421,144.704 54.376,144.628 54.883 C 144.551 55.391,144.280 56.288,144.025 56.878 C 143.770 57.468,143.315 58.795,143.014 59.827 C 142.713 60.859,142.372 61.818,142.255 61.959 C 142.138 62.099,141.844 63.000,141.600 63.960 C 141.356 64.921,141.005 65.978,140.819 66.310 C 140.632 66.642,140.272 67.738,140.017 68.744 C 139.763 69.751,139.433 70.776,139.285 71.021 C 139.137 71.267,138.843 72.116,138.633 72.909 C 138.422 73.701,138.059 74.748,137.825 75.235 C 137.592 75.723,137.208 76.870,136.973 77.784 C 136.738 78.698,136.373 79.845,136.162 80.332 C 135.951 80.820,135.603 81.867,135.389 82.659 C 135.175 83.452,134.784 84.598,134.520 85.208 C 134.256 85.817,133.953 86.775,133.846 87.336 C 133.740 87.897,133.396 88.918,133.082 89.604 C 132.767 90.291,132.416 91.351,132.300 91.960 C 132.185 92.569,131.890 93.459,131.646 93.938 C 131.402 94.418,131.096 95.281,130.967 95.857 C 130.838 96.433,130.451 97.664,130.109 98.591 C 129.317 100.733,128.457 103.311,127.746 105.679 C 127.439 106.700,127.086 107.726,126.960 107.960 C 126.835 108.194,126.514 109.154,126.247 110.093 C 125.502 112.715,126.146 112.575,114.746 112.576 L 105.281 112.576 104.704 111.967 C 103.895 111.113,103.582 110.451,103.267 108.920 C 103.116 108.189,102.767 107.079,102.490 106.454 C 102.214 105.829,101.880 104.815,101.748 104.202 C 101.617 103.588,101.301 102.554,101.048 101.903 C 100.794 101.253,100.351 99.873,100.063 98.837 C 99.775 97.801,99.337 96.355,99.090 95.623 C 98.419 93.642,97.780 91.637,97.148 89.529 C 96.837 88.493,96.451 87.346,96.291 86.981 C 96.130 86.615,95.782 85.485,95.518 84.469 C 95.254 83.453,94.856 82.199,94.635 81.682 C 94.413 81.166,94.107 80.152,93.954 79.430 C 93.801 78.707,93.559 77.917,93.416 77.673 C 93.273 77.429,92.987 76.632,92.781 75.900 C 92.575 75.169,92.195 73.972,91.937 73.241 C 91.678 72.510,91.241 71.114,90.966 70.139 C 90.483 68.427,90.270 67.761,88.971 63.934 C 88.640 62.958,88.194 61.512,87.979 60.720 C 87.764 59.928,87.422 58.831,87.219 58.283 C 87.016 57.734,86.649 56.545,86.404 55.640 C 86.158 54.735,85.805 53.638,85.619 53.202 C 85.433 52.767,85.049 51.534,84.767 50.464 C 84.484 49.393,84.152 48.396,84.030 48.248 C 83.907 48.099,83.640 47.330,83.436 46.537 C 83.231 45.745,82.819 44.399,82.518 43.546 C 82.218 42.693,81.834 41.446,81.665 40.776 C 81.495 40.105,80.955 38.410,80.464 37.008 C 79.417 34.017,79.328 33.097,80.055 32.805 C 80.612 32.581,97.485 32.497,98.053 32.715 M242.661 38.672 C 242.871 38.926,242.928 40.677,242.896 45.993 C 242.856 52.783,242.869 53.003,243.329 53.748 C 243.887 54.650,243.521 54.606,249.660 54.523 C 254.630 54.456,254.937 54.503,255.404 55.406 C 255.795 56.163,255.887 65.397,255.517 66.689 C 255.197 67.805,255.199 67.805,249.286 67.808 C 244.028 67.812,243.821 67.828,243.414 68.278 C 242.867 68.884,242.755 91.483,243.287 93.807 C 244.200 97.789,246.632 99.257,251.852 98.978 C 255.532 98.781,255.251 98.233,255.318 105.747 C 255.376 112.291,255.418 112.087,253.903 112.638 C 251.554 113.493,249.265 113.725,244.151 113.624 L 239.224 113.526 237.008 112.754 C 231.585 110.866,228.005 107.114,226.582 101.828 C 225.594 98.157,225.497 96.585,225.378 82.405 C 225.241 66.094,225.665 67.812,221.773 67.812 C 217.473 67.812,217.618 68.055,217.618 60.826 L 217.618 55.891 218.436 55.172 L 219.255 54.453 221.528 54.592 C 225.377 54.828,225.418 54.759,225.363 48.149 C 225.311 42.001,225.337 41.938,228.129 41.439 C 228.984 41.286,230.214 40.978,230.862 40.755 C 231.511 40.532,233.009 40.186,234.192 39.986 C 235.375 39.786,236.902 39.430,237.585 39.196 C 240.060 38.346,242.206 38.124,242.661 38.672 M187.708 53.710 C 191.990 54.216,201.440 58.254,201.440 59.576 C 201.440 59.665,201.751 59.922,202.131 60.146 C 202.510 60.370,203.184 60.959,203.627 61.454 C 204.070 61.949,204.683 62.614,204.990 62.932 C 211.125 69.294,213.593 83.130,210.406 93.296 C 209.339 96.698,207.834 100.085,206.983 100.999 C 206.738 101.262,206.537 101.564,206.537 101.670 C 206.537 102.262,202.728 106.141,199.959 108.367 C 198.458 109.574,194.081 111.698,191.690 112.381 C 186.972 113.727,186.775 113.753,181.385 113.749 L 176.288 113.745 173.200 112.928 C 169.271 111.887,165.206 109.974,162.675 107.973 C 160.940 106.601,157.422 102.896,156.905 101.896 C 156.634 101.371,156.276 100.789,156.110 100.602 C 155.161 99.534,153.259 94.793,152.556 91.745 C 151.829 88.595,151.770 79.488,152.455 76.343 C 152.838 74.589,154.277 70.172,154.586 69.806 C 154.740 69.623,155.040 69.025,155.253 68.476 C 155.465 67.928,155.972 67.017,156.379 66.452 C 156.786 65.887,157.119 65.354,157.119 65.268 C 157.119 65.122,159.088 62.776,160.111 61.704 C 162.276 59.434,168.610 55.402,170.011 55.402 C 170.187 55.402,171.172 55.093,172.201 54.717 C 175.457 53.525,182.358 53.076,187.708 53.710 M296.315 53.729 C 297.639 53.905,299.239 54.279,299.972 54.583 C 300.688 54.880,301.673 55.250,302.161 55.405 C 302.648 55.561,303.464 55.972,303.973 56.320 C 304.483 56.668,304.996 56.953,305.113 56.953 C 306.051 56.953,311.370 62.329,312.349 64.266 C 312.564 64.693,312.860 65.191,313.006 65.374 C 313.496 65.987,315.072 69.901,315.452 71.450 C 315.660 72.294,315.930 73.241,316.053 73.556 C 316.786 75.430,317.182 84.715,316.643 87.398 C 316.232 89.443,317.514 89.314,297.663 89.305 C 278.610 89.296,279.668 89.212,279.668 90.728 C 279.668 93.496,282.753 97.155,286.316 98.613 C 286.986 98.887,287.852 99.250,288.240 99.420 C 291.387 100.800,301.619 100.600,307.516 99.042 L 310.211 98.330 310.950 98.761 C 311.771 99.238,311.752 99.181,312.455 103.380 C 312.699 104.842,313.054 106.587,313.242 107.258 C 313.699 108.879,313.509 110.046,312.722 110.451 C 310.632 111.527,307.296 112.372,301.269 113.354 C 297.121 114.030,287.430 113.740,283.657 112.827 C 276.848 111.179,270.878 107.484,267.928 103.092 C 267.596 102.597,267.060 101.878,266.737 101.495 C 266.414 101.111,266.150 100.648,266.150 100.466 C 266.150 100.284,265.869 99.718,265.526 99.209 C 265.183 98.699,264.773 97.834,264.615 97.285 C 264.457 96.737,264.133 95.906,263.895 95.439 C 262.808 93.304,261.863 84.516,262.368 81.237 C 262.482 80.496,262.750 78.742,262.963 77.341 C 263.195 75.821,263.648 74.013,264.086 72.862 C 264.489 71.800,264.820 70.811,264.820 70.665 C 264.820 70.519,265.108 69.941,265.461 69.382 C 265.814 68.823,266.176 68.121,266.266 67.821 C 266.853 65.872,272.379 59.459,274.315 58.480 C 274.639 58.317,275.231 57.906,275.631 57.568 C 276.031 57.230,276.485 56.953,276.638 56.953 C 276.792 56.953,277.462 56.606,278.127 56.183 C 278.791 55.759,279.507 55.410,279.717 55.407 C 279.927 55.404,280.855 55.101,281.779 54.734 C 284.855 53.513,291.327 53.065,296.315 53.729 M288.421 65.473 C 287.690 65.620,286.696 65.873,286.212 66.034 C 282.390 67.307,277.924 75.003,280.041 76.669 C 280.840 77.297,299.029 77.292,299.657 76.663 C 301.681 74.637,298.004 67.373,294.294 66.068 C 293.468 65.777,290.344 65.135,289.972 65.179 C 289.850 65.193,289.152 65.326,288.421 65.473 M179.723 66.244 C 176.809 66.750,173.561 69.688,172.234 73.019 C 171.991 73.629,171.592 74.626,171.347 75.235 C 169.322 80.266,170.392 92.162,173.201 95.845 C 173.497 96.234,173.740 96.616,173.740 96.694 C 173.740 96.958,174.506 97.758,175.807 98.853 C 179.545 102.001,185.056 101.679,188.632 98.102 C 195.851 90.883,194.672 71.688,186.746 67.408 C 186.142 67.082,185.433 66.695,185.172 66.549 C 184.571 66.213,181.039 66.015,179.723 66.244 M72.065 118.269 L 72.687 118.864 72.687 150.051 C 72.687 167.204,72.752 181.407,72.831 181.614 C 73.249 182.702,73.583 182.723,88.542 182.604 C 103.814 182.483,103.650 182.470,104.063 183.772 C 104.258 184.385,104.267 196.090,104.073 196.698 C 103.755 197.695,104.002 197.685,79.367 197.686 L 55.956 197.688 55.344 197.165 L 54.732 196.643 54.730 157.784 L 54.728 118.925 55.328 118.299 L 55.928 117.673 63.686 117.673 L 71.444 117.673 72.065 118.269 M145.263 139.028 C 147.866 139.676,152.885 141.805,153.344 142.457 C 153.409 142.549,153.812 142.865,154.238 143.158 C 155.195 143.816,157.862 146.443,158.566 147.421 C 159.530 148.760,161.551 152.169,161.551 152.455 C 161.551 152.610,161.803 153.200,162.110 153.765 C 162.608 154.679,162.907 155.729,164.107 160.776 C 164.549 162.636,164.558 173.001,164.118 173.582 C 163.527 174.360,162.502 174.404,145.225 174.404 C 129.978 174.404,128.083 174.442,127.772 174.752 C 126.036 176.488,129.007 181.304,133.021 183.260 C 133.723 183.602,134.421 183.979,134.572 184.097 C 136.407 185.530,149.934 185.812,154.278 184.509 C 154.439 184.460,155.285 184.202,156.158 183.934 C 158.697 183.155,159.349 183.696,159.791 186.952 C 159.921 187.912,160.332 190.017,160.705 191.629 C 161.077 193.241,161.325 194.707,161.255 194.888 C 161.046 195.434,158.021 196.692,155.900 197.116 C 154.803 197.336,153.357 197.690,152.687 197.905 C 148.901 199.115,134.090 199.165,131.212 197.978 C 130.796 197.807,129.799 197.514,128.996 197.328 C 128.192 197.142,126.936 196.703,126.205 196.352 C 125.474 196.001,124.526 195.557,124.100 195.365 C 123.325 195.017,120.683 193.368,120.091 192.864 C 118.193 191.246,117.084 190.223,116.915 189.934 C 116.802 189.742,116.527 189.454,116.304 189.294 C 116.081 189.134,115.758 188.735,115.587 188.408 C 115.417 188.080,115.019 187.512,114.703 187.147 C 114.387 186.781,114.128 186.405,114.128 186.311 C 114.128 186.218,113.856 185.719,113.525 185.203 C 112.983 184.360,111.794 181.577,111.231 179.834 C 111.112 179.468,110.865 178.246,110.682 177.117 C 110.498 175.988,110.242 174.792,110.112 174.458 C 109.721 173.448,109.787 166.136,110.203 164.321 C 110.399 163.468,110.755 161.873,110.995 160.776 C 111.470 158.605,112.688 155.122,113.280 154.238 C 113.485 153.934,113.778 153.385,113.932 153.019 C 114.324 152.087,116.002 149.540,116.550 149.044 C 116.802 148.816,117.008 148.542,117.008 148.435 C 117.008 147.968,121.047 144.214,122.587 143.249 C 123.114 142.919,123.599 142.568,123.663 142.470 C 123.728 142.372,124.376 142.021,125.104 141.691 C 125.831 141.361,126.476 141.022,126.537 140.939 C 126.598 140.856,127.764 140.430,129.129 139.992 C 131.301 139.295,132.198 139.078,134.737 138.634 C 136.021 138.410,143.973 138.707,145.263 139.028 M203.956 138.836 C 210.262 139.786,217.346 143.879,219.013 147.535 C 219.138 147.809,219.312 148.033,219.399 148.033 C 219.486 148.033,219.780 148.557,220.053 149.197 C 220.325 149.837,220.675 150.510,220.832 150.693 C 220.988 150.875,221.289 151.623,221.501 152.355 C 221.713 153.086,222.024 154.136,222.192 154.689 C 223.181 157.947,223.218 158.660,223.374 177.175 C 223.479 189.611,223.599 195.129,223.779 195.659 C 224.019 196.372,223.993 196.453,223.319 197.074 L 222.604 197.732 216.062 197.717 C 208.336 197.698,207.645 197.527,207.645 195.633 C 207.645 192.744,206.264 192.151,204.203 194.155 C 202.738 195.579,199.607 197.452,198.692 197.452 C 198.552 197.452,198.224 197.601,197.963 197.783 C 195.851 199.262,185.094 199.320,183.013 197.863 C 182.689 197.637,182.326 197.452,182.206 197.452 C 180.921 197.452,177.036 194.528,175.433 192.355 C 174.939 191.684,174.356 190.942,174.137 190.706 C 173.919 190.470,173.740 190.158,173.740 190.014 C 173.740 189.869,173.478 189.283,173.158 188.711 C 171.231 185.263,171.200 177.305,173.099 173.427 C 173.451 172.707,173.740 172.023,173.740 171.907 C 173.740 170.217,179.346 165.051,183.047 163.330 C 183.839 162.961,184.665 162.558,184.881 162.433 C 187.134 161.131,195.789 159.361,200.776 159.182 C 204.743 159.040,205.355 158.707,205.070 156.850 C 204.678 154.298,202.559 152.193,199.446 151.263 C 196.860 150.491,189.088 150.901,186.600 151.941 C 186.171 152.119,185.371 152.367,184.822 152.490 C 184.272 152.613,183.125 153.050,182.271 153.462 C 179.358 154.868,178.562 154.654,178.149 152.355 C 178.061 151.867,177.822 151.019,177.618 150.471 C 177.039 148.917,176.142 145.578,176.039 144.598 C 175.860 142.879,178.285 141.731,186.593 139.604 C 188.027 139.237,189.391 139.015,192.465 138.650 C 194.446 138.414,201.966 138.536,203.956 138.836 M328.753 139.033 C 332.006 139.858,335.363 141.340,336.915 142.635 C 337.259 142.923,337.616 143.158,337.708 143.158 C 337.930 143.158,341.480 146.695,342.072 147.506 C 342.839 148.556,344.579 151.499,344.830 152.171 C 344.959 152.516,345.260 153.205,345.498 153.702 C 345.918 154.579,346.664 157.153,347.420 160.332 C 348.065 163.045,347.980 173.116,347.307 173.789 L 346.802 174.294 329.024 174.404 L 311.247 174.515 310.852 175.321 C 310.425 176.194,310.903 178.184,311.698 178.844 C 311.876 178.991,312.022 179.225,312.022 179.362 C 312.024 180.663,316.779 183.890,319.887 184.699 C 324.459 185.890,336.373 185.409,339.685 183.900 C 340.486 183.535,340.867 183.482,341.585 183.633 L 342.483 183.823 342.856 185.485 C 343.062 186.399,343.448 188.294,343.715 189.695 C 343.983 191.097,344.305 192.757,344.433 193.384 C 344.560 194.010,344.604 194.680,344.530 194.871 C 344.241 195.626,340.997 196.931,338.393 197.340 C 337.845 197.427,336.848 197.676,336.177 197.896 C 332.467 199.109,317.411 199.174,314.512 197.989 C 314.115 197.826,312.968 197.474,311.964 197.205 C 310.960 196.937,309.632 196.434,309.013 196.087 C 308.393 195.741,307.754 195.457,307.593 195.457 C 307.432 195.457,306.991 195.223,306.614 194.936 C 306.237 194.649,305.580 194.236,305.156 194.017 C 303.257 193.039,299.115 188.975,298.322 187.313 C 298.133 186.917,297.900 186.593,297.803 186.593 C 297.571 186.593,295.180 181.724,295.180 181.251 C 295.180 181.049,294.935 180.233,294.635 179.437 C 293.149 175.488,293.044 164.676,294.450 160.443 C 294.754 159.529,295.145 158.243,295.319 157.585 C 295.493 156.927,295.878 155.929,296.176 155.369 C 296.474 154.808,296.890 153.950,297.101 153.463 C 297.311 152.975,297.553 152.526,297.636 152.465 C 297.720 152.404,298.060 151.868,298.391 151.274 C 300.087 148.229,302.785 145.472,306.925 142.554 C 307.766 141.962,310.223 140.776,311.468 140.362 C 312.078 140.160,313.075 139.809,313.684 139.583 C 316.600 138.501,325.391 138.181,328.753 139.033 M248.984 140.286 C 249.209 140.535,249.512 141.059,249.657 141.450 C 250.552 143.867,250.859 144.832,250.863 145.242 C 250.866 145.498,251.170 146.554,251.541 147.590 C 251.911 148.626,252.309 150.042,252.426 150.737 C 252.542 151.431,252.838 152.466,253.082 153.036 C 253.327 153.607,253.718 154.950,253.952 156.022 C 254.186 157.094,254.572 158.452,254.810 159.041 C 255.049 159.629,255.364 160.709,255.512 161.440 C 255.660 162.172,255.961 163.219,256.182 163.767 C 256.403 164.316,256.805 165.712,257.076 166.870 C 257.348 168.028,257.692 169.224,257.842 169.529 C 257.991 169.834,258.289 171.080,258.504 172.299 C 259.100 175.687,260.487 179.698,260.915 179.270 C 261.113 179.072,261.717 176.570,261.717 175.948 C 261.717 175.630,261.956 174.572,262.248 173.598 C 262.539 172.624,262.933 170.936,263.122 169.847 C 263.312 168.758,263.656 167.319,263.888 166.648 C 264.120 165.978,264.431 164.881,264.579 164.211 C 264.727 163.540,265.133 162.044,265.481 160.886 C 265.830 159.729,266.284 158.033,266.492 157.119 C 266.699 156.205,266.958 155.345,267.067 155.208 C 267.176 155.072,267.473 153.976,267.728 152.774 C 267.983 151.572,268.368 150.138,268.584 149.588 C 268.800 149.037,269.049 148.152,269.138 147.621 C 269.227 147.089,269.545 145.943,269.845 145.072 C 270.145 144.202,270.491 142.996,270.615 142.391 C 271.166 139.701,270.638 139.834,280.769 139.834 C 288.379 139.834,288.700 139.851,289.082 140.273 C 289.591 140.835,289.422 142.312,288.681 143.788 C 288.396 144.355,287.940 145.518,287.668 146.371 C 287.396 147.224,286.985 148.321,286.754 148.809 C 286.524 149.296,286.188 150.261,286.010 150.952 C 285.831 151.643,285.536 152.441,285.355 152.725 C 285.173 153.009,284.814 153.939,284.556 154.792 C 284.299 155.645,283.887 156.775,283.642 157.302 C 283.396 157.829,283.135 158.577,283.061 158.964 C 282.988 159.351,282.692 160.140,282.404 160.716 C 282.116 161.293,281.741 162.291,281.571 162.933 C 281.402 163.575,280.954 164.748,280.576 165.540 C 280.199 166.332,279.888 167.180,279.887 167.424 C 279.886 167.668,279.653 168.366,279.370 168.975 C 279.087 169.584,278.632 170.821,278.359 171.722 C 278.086 172.624,277.710 173.594,277.523 173.879 C 277.337 174.163,277.092 174.810,276.978 175.317 C 276.864 175.824,276.539 176.748,276.257 177.371 C 275.974 177.994,275.561 179.152,275.338 179.945 C 275.115 180.737,274.767 181.634,274.564 181.939 C 274.361 182.244,274.074 182.992,273.926 183.601 C 273.778 184.211,273.423 185.208,273.137 185.817 C 272.852 186.427,272.445 187.522,272.234 188.252 C 272.022 188.982,271.668 189.929,271.446 190.357 C 271.225 190.786,270.892 191.721,270.707 192.436 C 270.522 193.152,270.278 193.850,270.165 193.988 C 270.052 194.125,269.787 194.767,269.576 195.413 C 268.819 197.736,269.615 197.553,259.963 197.628 L 251.521 197.693 250.945 197.074 C 250.271 196.348,249.529 194.968,249.529 194.441 C 249.529 194.238,249.196 193.212,248.789 192.160 C 248.381 191.109,247.871 189.651,247.656 188.920 C 247.440 188.188,247.182 187.489,247.083 187.365 C 246.902 187.141,245.999 184.640,244.962 181.496 C 244.660 180.582,244.223 179.435,243.991 178.947 C 243.760 178.460,243.330 177.313,243.036 176.399 C 242.219 173.853,241.536 171.947,241.091 170.970 C 240.869 170.482,240.527 169.535,240.331 168.864 C 240.135 168.194,239.771 167.147,239.522 166.537 C 239.274 165.928,238.918 164.931,238.731 164.321 C 238.545 163.712,238.117 162.565,237.781 161.773 C 237.444 160.981,237.113 160.022,237.045 159.644 C 236.977 159.265,236.617 158.290,236.244 157.477 C 235.872 156.665,235.566 155.828,235.563 155.618 C 235.560 155.407,235.305 154.637,234.997 153.906 C 234.689 153.175,234.232 151.928,233.981 151.136 C 233.730 150.343,233.377 149.410,233.198 149.061 C 233.018 148.712,232.725 147.864,232.546 147.177 C 232.367 146.490,232.068 145.629,231.880 145.263 C 230.663 142.886,230.263 140.669,230.963 140.179 C 231.833 139.570,248.425 139.669,248.984 140.286 M135.069 150.793 C 133.792 151.107,132.725 151.620,132.311 152.118 C 132.153 152.309,131.924 152.465,131.803 152.465 C 131.584 152.465,129.418 154.631,129.418 154.850 C 129.418 154.913,129.135 155.425,128.790 155.987 C 128.444 156.549,127.940 157.706,127.670 158.560 C 127.399 159.413,127.095 160.267,126.992 160.458 C 126.775 160.863,127.305 161.627,127.964 161.861 C 128.466 162.038,146.761 162.043,147.223 161.866 C 148.604 161.336,147.279 156.090,145.144 153.633 C 142.798 150.935,138.927 149.843,135.069 150.793 M318.449 150.778 C 315.115 151.629,312.423 154.583,310.777 159.197 C 309.763 162.040,309.599 161.994,320.927 161.994 C 332.420 161.994,331.717 162.225,330.975 158.695 C 329.697 152.619,324.386 149.262,318.449 150.778 M200.776 170.644 C 196.626 171.063,193.522 172.092,192.041 173.541 C 191.680 173.894,191.324 174.183,191.251 174.183 C 190.269 174.183,188.830 178.919,189.229 180.836 C 190.769 188.232,201.290 188.237,205.027 180.844 L 205.762 179.391 205.830 175.393 C 205.920 170.168,205.878 170.128,200.776 170.644 " stroke="none" fill="#ff0000" fill-rule="evenodd"></path></g></svg>