<?xml version="1.0" encoding="utf-8"?>
<!-- Generator: Adobe Illustrator 16.0.0, SVG Export Plug-In . SVG Version: 6.00 Build 0)  -->
<!DOCTYPE svg PUBLIC "-//W3C//DTD SVG 1.1//EN" "http://www.w3.org/Graphics/SVG/1.1/DTD/svg11.dtd">
<svg version="1.1" id="Layer_1" xmlns="http://www.w3.org/2000/svg" xmlns:xlink="http://www.w3.org/1999/xlink" x="0px" y="0px"
	 width="100px" height="100px" viewBox="0 0 100 100" enable-background="new 0 0 100 100" xml:space="preserve">
<circle cx="50" cy="50" r="50"/>
<defs>
	<filter id="Adobe_OpacityMaskFilter" filterUnits="userSpaceOnUse" x="26.379" y="20.024" width="47.416" height="42.623">
		<feColorMatrix  type="matrix" values="1 0 0 0 0  0 1 0 0 0  0 0 1 0 0  0 0 0 1 0"/>
	</filter>
</defs>
<mask maskUnits="userSpaceOnUse" x="26.379" y="20.024" width="47.416" height="42.623" id="SVGID_1_">
	<g filter="url(#Adobe_OpacityMaskFilter)">
		<polygon fill="#FFFFFF" points="29.035,25.563 77.828,66.084 103.085,38.572 43.879,4.458 		"/>
	</g>
</mask>
<radialGradient id="SVGID_2_" cx="1088.7129" cy="-300.3867" r="25.3105" gradientTransform="matrix(0.8419 0.0026 0.0029 -0.9644 -865.6294 -251.188)" gradientUnits="userSpaceOnUse">
	<stop  offset="0" style="stop-color:#FFFFFF"/>
	<stop  offset="0.1458" style="stop-color:#CCCCCC"/>
	<stop  offset="0.3693" style="stop-color:#858585"/>
	<stop  offset="0.5704" style="stop-color:#4C4C4C"/>
	<stop  offset="0.7415" style="stop-color:#222222"/>
	<stop  offset="0.876" style="stop-color:#090909"/>
	<stop  offset="0.9572" style="stop-color:#000000"/>
</radialGradient>
<path mask="url(#SVGID_1_)" fill="url(#SVGID_2_)" d="M73.795,41.408c-0.035,11.769-10.68,21.279-23.773,21.238
	c-13.094-0.039-23.678-9.614-23.643-21.383c0.036-11.771,10.679-21.279,23.773-21.239C63.245,20.064,73.831,29.637,73.795,41.408z"
	/>
<polygon fill="#75BB1D" points="81.312,66.686 78.287,66.676 73.46,70.562 68.663,66.646 65.641,66.637 71.943,71.831 
	65.607,76.984 68.632,76.994 73.452,73.109 78.256,77.023 81.281,77.033 74.977,71.84 "/>
<polygon fill="#75BB1D" points="33.733,66.539 30.709,66.529 25.883,70.416 21.086,66.501 18.061,66.491 24.366,71.686 18.03,76.84 
	21.055,76.85 25.875,72.964 30.678,76.879 33.702,76.889 27.397,71.693 "/>
<path fill="#75BB1D" d="M52.479,76.902v0.043h0.031l10.117,0.031h0.064c1.138-1.379,1.832-3.226,1.838-5.259
	c0.007-1.944-0.836-3.839-1.846-5.091L52.58,66.598c-1.016,1.245-1.864,3.135-1.87,5.078C50.705,73.684,51.376,75.521,52.479,76.902
	z M61.74,68.169c0.602,1.085,1.01,2.295,1.006,3.634c-0.004,1.225-0.359,2.375-0.923,3.389l-8.427-0.024
	c-0.557-1.019-0.906-2.171-0.903-3.396c0.005-1.338,0.42-2.547,1.028-3.627L61.74,68.169z"/>
<path fill="#75BB1D" d="M36.887,66.549h-0.064c-0.95,1.156-1.591,2.635-1.776,4.28l-1.944-0.019l-0.012,1.775l1.944,0.02
	c0.181,1.655,0.923,3.215,1.796,4.291l9.989,0.03c0.872-1.069,1.629-2.626,1.821-4.28l-0.764-0.537l0.009-0.731l0.754-0.507
	c-0.181-1.648-0.814-3.13-1.75-4.292h-0.071L36.887,66.549z M37.692,75.202c-0.422-0.794-0.742-1.657-0.861-2.583l10.015,0.029
	c-0.131,0.927-0.449,1.787-0.876,2.578L37.692,75.202z M36.836,70.829c0.125-0.89,0.436-1.729,0.863-2.495l8.239,0.023
	c0.422,0.77,0.729,1.611,0.849,2.502L36.836,70.829z"/>
<g>
	<g>
		<defs>
			<path id="SVGID_3_" d="M70.26,23.843C59.057,31.473,50,33.755,50,33.755l-0.016,5.169c0,0,12.073-6.756,17.247-11.756
				C69.05,25.404,70.773,23.491,70.26,23.843z"/>
		</defs>
		<clipPath id="SVGID_4_">
			<use xlink:href="#SVGID_3_"  overflow="visible"/>
		</clipPath>
		
			<radialGradient id="SVGID_5_" cx="249.4033" cy="-131.6353" r="11.4629" gradientTransform="matrix(1.41 0.0043 0.0045 -1.4875 -280.9756 -173.0778)" gradientUnits="userSpaceOnUse">
			<stop  offset="0" style="stop-color:#276438"/>
			<stop  offset="0.99" style="stop-color:#1D1616"/>
		</radialGradient>
		<polygon clip-path="url(#SVGID_4_)" fill="url(#SVGID_5_)" points="90.225,35.213 49.888,35.089 49.958,12.394 90.293,12.518 		
			"/>
	</g>
</g>
<g>
	<g>
		<defs>
			<path id="SVGID_6_" d="M29.799,23.719C40.957,31.417,50,33.755,50,33.755l-0.016,5.169c0,0-12.031-6.83-17.174-11.861
				C31,25.288,29.294,23.364,29.799,23.719z"/>
		</defs>
		<clipPath id="SVGID_7_">
			<use xlink:href="#SVGID_6_"  overflow="visible"/>
		</clipPath>
		
			<radialGradient id="SVGID_8_" cx="274.6758" cy="-231.9609" r="16.8725" gradientTransform="matrix(1.0538 0.0032 0.0034 -1.1006 -259.1909 -232.4391)" gradientUnits="userSpaceOnUse">
			<stop  offset="0" style="stop-color:#527A53"/>
			<stop  offset="0.99" style="stop-color:#140B0D"/>
		</radialGradient>
		<polygon clip-path="url(#SVGID_7_)" fill="url(#SVGID_8_)" points="49.984,38.924 8.874,38.799 8.966,8.55 50.077,8.676 		"/>
	</g>
</g>
<path fill="none" d="M44.071,38.542l-0.031,10.16c0,0,5.543-4.493,5.93-5.094c-0.025-0.039-0.025-0.063,0-0.063l0.026-8.5
	c0,0-5.475-1.12-17.896-8.547C32.1,26.497,41.307,36.191,44.071,38.542z"/>
<g>
	<g>
		<defs>
			<path id="SVGID_9_" d="M44.071,38.542l-0.031,10.16c0,0,5.543-4.493,5.93-5.094c-0.025-0.039-0.025-0.063,0-0.063l0.026-8.5
				c0,0-5.475-1.12-17.896-8.547C32.1,26.497,41.307,36.191,44.071,38.542z"/>
		</defs>
		<clipPath id="SVGID_10_">
			<use xlink:href="#SVGID_9_"  overflow="visible"/>
		</clipPath>
		
			<radialGradient id="SVGID_11_" cx="181.0166" cy="-102.1274" r="8.4292" gradientTransform="matrix(2.3431 0.0072 0.0048 -1.5709 -373.7262 -127.5041)" gradientUnits="userSpaceOnUse">
			<stop  offset="0" style="stop-color:#48B92D"/>
			<stop  offset="0.4064" style="stop-color:#84C720"/>
			<stop  offset="0.99" style="stop-color:#CCE002"/>
		</radialGradient>
		<polygon clip-path="url(#SVGID_10_)" fill="url(#SVGID_11_)" points="67.68,48.717 32.079,48.608 32.167,19.746 67.768,19.855 		
			"/>
	</g>
</g>
<g>
	<g>
		<defs>
			<path id="SVGID_12_" d="M44.071,38.542c0,0-13.608,19.784-20.762,24.875l4.627-2.758l16.116-16.024L44.071,38.542z"/>
		</defs>
		<clipPath id="SVGID_13_">
			<use xlink:href="#SVGID_12_"  overflow="visible"/>
		</clipPath>
		
			<radialGradient id="SVGID_14_" cx="269.6309" cy="-342.1763" r="23.5666" gradientTransform="matrix(1.0432 0.0032 0.0028 -0.9269 -257.0745 -254.7925)" gradientUnits="userSpaceOnUse">
			<stop  offset="0" style="stop-color:#618A5D"/>
			<stop  offset="0.99" style="stop-color:#555C55"/>
		</radialGradient>
		<polygon clip-path="url(#SVGID_13_)" fill="url(#SVGID_14_)" points="43.91,88.09 2.43,87.963 2.582,38.377 44.062,38.504 		"/>
	</g>
</g>
<g>
	<g>
		<defs>
			<path id="SVGID_15_" d="M44.065,40.567l-0.025,8.134c0,0-19.763,14.719-15.55,11.216C32.702,56.422,44.065,40.567,44.065,40.567z
				"/>
		</defs>
		<clipPath id="SVGID_16_">
			<use xlink:href="#SVGID_15_"  overflow="visible"/>
		</clipPath>
		
			<radialGradient id="SVGID_17_" cx="149.6973" cy="-36.7207" r="7.4736" gradientTransform="matrix(2.2511 0.0069 0.0079 -2.5885 -292.605 -55.5506)" gradientUnits="userSpaceOnUse">
			<stop  offset="0.0963" style="stop-color:#295B04"/>
			<stop  offset="0.6043" style="stop-color:#86C61A"/>
			<stop  offset="0.99" style="stop-color:#B0D71A"/>
		</radialGradient>
		<polygon clip-path="url(#SVGID_16_)" fill="url(#SVGID_17_)" points="60.268,60.58 27.784,60.48 27.906,20.496 60.391,20.595 		
			"/>
	</g>
</g>
<g>
	<g>
		<defs>
			<path id="SVGID_18_" d="M55.898,38.578c0,0,13.486,19.867,20.609,25.001l-4.609-2.785L55.88,44.671L55.898,38.578z"/>
		</defs>
		<clipPath id="SVGID_19_">
			<use xlink:href="#SVGID_18_"  overflow="visible"/>
		</clipPath>
		
			<radialGradient id="SVGID_20_" cx="339.793" cy="-306.7061" r="22.1738" gradientTransform="matrix(0.969 0.003 0.0031 -1 -253.1413 -245.1451)" gradientUnits="userSpaceOnUse">
			<stop  offset="0" style="stop-color:#3B7345"/>
			<stop  offset="0.98" style="stop-color:#000001"/>
		</radialGradient>
		<polygon clip-path="url(#SVGID_19_)" fill="url(#SVGID_20_)" points="94.45,86.812 55.738,86.693 55.887,38.35 94.6,38.468 		"/>
	</g>
</g>
<g>
	<g>
		<defs>
			<path id="SVGID_21_" d="M55.87,40.604l-0.024,8.134c0,0,19.672,14.839,15.48,11.311C67.135,56.527,55.87,40.604,55.87,40.604z"/>
		</defs>
		<clipPath id="SVGID_22_">
			<use xlink:href="#SVGID_21_"  overflow="visible"/>
		</clipPath>
		
			<radialGradient id="SVGID_23_" cx="-97.583" cy="-36.7227" r="7.4738" gradientTransform="matrix(-2.2511 -0.0069 0.0079 -2.5885 -163.5317 -55.157)" gradientUnits="userSpaceOnUse">
			<stop  offset="0.0963" style="stop-color:#295B04"/>
			<stop  offset="0.6043" style="stop-color:#86C61A"/>
			<stop  offset="0.99" style="stop-color:#B0D71A"/>
		</radialGradient>
		<polygon clip-path="url(#SVGID_22_)" fill="url(#SVGID_23_)" points="39.544,60.518 72.027,60.616 72.15,20.631 39.666,20.532 		
			"/>
	</g>
</g>
<path fill="none" d="M55.898,38.578l-0.031,10.16c0,0-5.515-4.527-5.897-5.13c0.025-0.039,0.025-0.063,0-0.063l0.026-8.5
	c0,0,5.48-1.086,17.945-8.438C67.941,26.606,58.677,36.244,55.898,38.578z"/>
<path fill="none" d="M55.898,38.578l-0.031,10.16c0,0-5.515-4.527-5.897-5.13c0.025-0.039,0.025-0.063,0-0.063l0.026-8.5
	c0,0,5.48-1.086,17.945-8.438C67.941,26.606,58.677,36.244,55.898,38.578z"/>
<g>
	<g>
		<defs>
			<path id="SVGID_24_" d="M55.898,38.578l-0.031,10.16c0,0-5.515-4.527-5.897-5.13c0.025-0.039,0.025-0.063,0-0.063l0.026-8.5
				c0,0,5.48-1.086,17.945-8.438C67.941,26.606,58.677,36.244,55.898,38.578z"/>
		</defs>
		<clipPath id="SVGID_25_">
			<use xlink:href="#SVGID_24_"  overflow="visible"/>
		</clipPath>
		
			<radialGradient id="SVGID_26_" cx="132.5547" cy="-309.8799" r="17.8459" gradientTransform="matrix(1.7118 -0.4462 -0.267 -1.0242 -259.5947 -223.5245)" gradientUnits="userSpaceOnUse">
			<stop  offset="0.0374" style="stop-color:#22680F"/>
			<stop  offset="0.1551" style="stop-color:#4B9B22"/>
			<stop  offset="0.2995" style="stop-color:#7EB51B"/>
			<stop  offset="0.5455" style="stop-color:#BBDC05"/>
		</radialGradient>
		<polygon clip-path="url(#SVGID_25_)" fill="url(#SVGID_26_)" points="87.374,42.816 21.43,60.004 12.724,26.6 78.669,9.413 		"/>
	</g>
</g>
<path fill="none" d="M55.898,38.578l-0.031,10.16c0,0-5.515-4.527-5.897-5.13c0.025-0.039,0.025-0.063,0-0.063l0.026-8.5
	c0,0,5.48-1.086,17.945-8.438C67.941,26.606,58.677,36.244,55.898,38.578z"/>
</svg>
