<svg width="100" height="100" viewBox="0 0 3 4" fill="none" xmlns="http://www.w3.org/2000/svg">
<path d="M1.41493 0.674966C1.27293 0.674966 1.15794 0.559972 1.15794 0.417979C1.15794 0.275986 1.27293 0.160992 1.41493 0.160992C1.55692 0.160992 1.67191 0.275986 1.67191 0.417979C1.67191 0.559972 1.55692 0.674966 1.41493 0.674966ZM1.41493 0C1.18394 0 0.996948 0.186991 0.996948 0.417979C0.996948 0.648968 1.18394 0.835958 1.41493 0.835958C1.64592 0.835958 1.83291 0.648968 1.83291 0.417979C1.83291 0.186991 1.64592 0 1.41493 0Z" fill="#FEFEFE"/>
<path d="M2.41188 1.21194C2.26988 1.21194 2.15489 1.09695 2.15489 0.954953C2.15489 0.81296 2.26988 0.697966 2.41188 0.697966C2.55387 0.697966 2.66886 0.81296 2.66886 0.954953C2.66886 1.09695 2.55387 1.21194 2.41188 1.21194ZM2.41188 0.536974C2.18089 0.536974 1.9939 0.723965 1.9939 0.954953C1.9939 1.18594 2.18089 1.37293 2.41188 1.37293C2.64286 1.37293 2.82985 1.18594 2.82985 0.954953C2.82985 0.723965 2.64286 0.536974 2.41188 0.536974Z" fill="#FEFEFE"/>
<path d="M0.417979 1.21194C0.275986 1.21194 0.160992 1.09695 0.160992 0.954953C0.160992 0.81296 0.275986 0.697966 0.417979 0.697966C0.559972 0.697966 0.674966 0.81296 0.674966 0.954953C0.674966 1.09695 0.559972 1.21194 0.417979 1.21194ZM0.417979 0.536974C0.186991 0.536974 0 0.723965 0 0.954953C0 1.18594 0.186991 1.37293 0.417979 1.37293C0.648968 1.37293 0.835958 1.18594 0.835958 0.954953C0.835958 0.723965 0.648968 0.536974 0.417979 0.536974Z" fill="#FEFEFE"/>
<path d="M1.41493 2.39488C1.55692 2.39488 1.67191 2.50987 1.67191 2.65187C1.67191 2.79386 1.55692 2.90885 1.41493 2.90885C1.27293 2.90885 1.15794 2.79386 1.15794 2.65187C1.15794 2.50987 1.27293 2.39488 1.41493 2.39488ZM1.41493 3.06985C1.64592 3.06985 1.83291 2.88286 1.83291 2.65187C1.83291 2.42088 1.64592 2.23389 1.41493 2.23389C1.18394 2.23389 0.996948 2.42088 0.996948 2.65187C0.996948 2.88286 1.18394 3.06985 1.41493 3.06985Z" fill="#FEFEFE"/>
<path d="M0.417979 1.85791C0.559972 1.85791 0.674966 1.9729 0.674966 2.11489C0.674966 2.25689 0.559972 2.37188 0.417979 2.37188C0.275986 2.37188 0.160992 2.25689 0.160992 2.11489C0.160992 1.9729 0.275986 1.85791 0.417979 1.85791ZM0.417979 2.53287C0.648968 2.53287 0.835958 2.34588 0.835958 2.11489C0.835958 1.88391 0.648968 1.69691 0.417979 1.69691C0.186991 1.69691 0 1.88391 0 2.11489C0 2.34588 0.186991 2.53287 0.417979 2.53287Z" fill="#FEFEFE"/>
<path d="M2.41188 1.85791C2.55387 1.85791 2.66886 1.9729 2.66886 2.11489C2.66886 2.25689 2.55387 2.37188 2.41188 2.37188C2.26988 2.37188 2.15489 2.25689 2.15489 2.11489C2.15489 1.9729 2.26988 1.85791 2.41188 1.85791ZM2.41188 2.53287C2.64286 2.53287 2.82985 2.34588 2.82985 2.11489C2.82985 1.88391 2.64286 1.69691 2.41188 1.69691C2.18089 1.69691 1.9939 1.88391 1.9939 2.11489C1.9939 2.34588 2.18089 2.53287 2.41188 2.53287Z" fill="#FEFEFE"/>
<path d="M1.32893 1.20994C1.32893 1.28294 1.26993 1.34193 1.19693 1.34193C1.12394 1.34193 1.06494 1.28294 1.06494 1.20994C1.06494 1.13694 1.12394 1.07795 1.19693 1.07795C1.26993 1.07795 1.32893 1.13694 1.32893 1.20994Z" fill="#FEFEFE"/>
<path d="M1.74891 1.20994C1.74891 1.28294 1.68991 1.34193 1.61692 1.34193C1.54392 1.34193 1.48492 1.28294 1.48492 1.20994C1.48492 1.13694 1.54392 1.07795 1.61692 1.07795C1.68991 1.07795 1.74891 1.13694 1.74891 1.20994Z" fill="#FEFEFE"/>
<path d="M1.32893 1.85991C1.32893 1.9329 1.26993 1.9919 1.19693 1.9919C1.12394 1.9919 1.06494 1.9329 1.06494 1.85991C1.06494 1.78691 1.12394 1.72791 1.19693 1.72791C1.26993 1.72791 1.32893 1.78691 1.32893 1.85991Z" fill="#FEFEFE"/>
<path d="M1.74891 1.85991C1.74891 1.9329 1.68991 1.9919 1.61692 1.9919C1.54392 1.9919 1.48492 1.9329 1.48492 1.85991C1.48492 1.78691 1.54392 1.72791 1.61692 1.72791C1.68991 1.72791 1.74891 1.78691 1.74891 1.85991Z" fill="#FEFEFE"/>
<path d="M1.9479 1.53492C1.9479 1.60792 1.8889 1.66692 1.81591 1.66692C1.74291 1.66692 1.68391 1.60792 1.68391 1.53492C1.68391 1.46193 1.74291 1.40293 1.81591 1.40293C1.8889 1.40293 1.9479 1.46193 1.9479 1.53492Z" fill="#FEFEFE"/>
<path d="M1.14594 1.53492C1.14594 1.60792 1.08695 1.66692 1.01395 1.66692C0.940955 1.66692 0.881958 1.60792 0.881958 1.53492C0.881958 1.46193 0.940955 1.40293 1.01395 1.40293C1.08695 1.40293 1.14594 1.46193 1.14594 1.53492Z" fill="#FEFEFE"/>
</svg>
