<svg width="160" height="160" viewBox="0 0 160 160" fill="none" xmlns="http://www.w3.org/2000/svg">
<path d="M80.0777 27C71.8915 27 65.3105 33.47 65.3105 41.5181C65.3105 49.5661 71.8915 56.0361 80.0777 56.0361C88.2639 56.0361 94.8449 49.5661 94.8449 41.5181C94.8449 33.47 88.2639 27 80.0777 27ZM80.0777 50.3551C75.1017 50.3551 70.9285 46.41 70.9285 41.3603C70.9285 36.4683 74.9412 32.3654 80.0777 32.3654C85.0537 32.3654 89.2269 36.3105 89.2269 41.3603C89.2269 46.2522 85.2142 50.3551 80.0777 50.3551Z" fill="#FEFEFE"/>
<path d="M115.232 45.7773C107.046 45.7773 100.465 52.2474 100.465 60.2954C100.465 68.3434 107.046 74.8135 115.232 74.8135C123.418 74.8135 129.999 68.3434 129.999 60.2954C129.999 52.2474 123.418 45.7773 115.232 45.7773ZM115.232 69.1325C110.256 69.1325 106.083 65.1874 106.083 60.1375C106.083 55.2457 110.096 51.1428 115.232 51.1428C120.208 51.1428 124.381 55.0879 124.381 60.1375C124.381 65.0296 120.368 69.1325 115.232 69.1325Z" fill="#FEFEFE"/>
<path d="M44.7671 45.7773C36.581 45.7773 30 52.2474 30 60.2954C30 68.3434 36.581 74.8135 44.7671 74.8135C52.9533 74.8135 59.5343 68.3434 59.5343 60.2954C59.5343 52.2474 52.9533 45.7773 44.7671 45.7773ZM44.7671 69.1325C39.7912 69.1325 35.6179 65.1874 35.6179 60.1375C35.6179 55.2457 39.6307 51.1428 44.7671 51.1428C49.743 51.1428 53.9163 55.0879 53.9163 60.1375C53.9163 65.0296 49.9035 69.1325 44.7671 69.1325Z" fill="#FEFEFE"/>
<path d="M80.0777 133.676C88.2639 133.676 94.8449 127.206 94.8449 119.158C94.8449 111.11 88.2639 104.64 80.0777 104.64C71.8915 104.64 65.3105 111.11 65.3105 119.158C65.3105 127.206 71.8915 133.676 80.0777 133.676ZM80.0777 110.321C85.0537 110.321 89.2269 114.266 89.2269 119.315C89.2269 124.207 85.2142 128.31 80.0777 128.31C75.1017 128.31 70.9285 124.365 70.9285 119.315C70.9285 114.424 74.9412 110.321 80.0777 110.321Z" fill="#FEFEFE"/>
<path d="M44.7671 114.898C52.9533 114.898 59.5343 108.428 59.5343 100.38C59.5343 92.3322 52.9533 85.8623 44.7671 85.8623C36.581 85.8623 30 92.3322 30 100.38C30 108.428 36.581 114.898 44.7671 114.898ZM44.7671 91.5431C49.743 91.5431 53.9163 95.4884 53.9163 100.538C53.9163 105.43 49.9035 109.533 44.7671 109.533C39.7912 109.533 35.6179 105.588 35.6179 100.538C35.6179 95.6462 39.6307 91.5431 44.7671 91.5431Z" fill="#FEFEFE"/>
<path d="M115.232 114.898C123.418 114.898 129.999 108.428 129.999 100.38C129.999 92.3322 123.418 85.8623 115.232 85.8623C107.046 85.8623 100.465 92.3322 100.465 100.38C100.465 108.428 107.046 114.898 115.232 114.898ZM115.232 91.5431C120.208 91.5431 124.381 95.4884 124.381 100.538C124.381 105.43 120.368 109.533 115.232 109.533C110.256 109.533 106.083 105.588 106.083 100.538C106.083 95.6462 110.096 91.5431 115.232 91.5431Z" fill="#FEFEFE"/>
<path d="M77.0304 68.9758C77.0304 71.5007 74.9437 73.5522 72.3754 73.5522C69.8072 73.5522 67.7207 71.5007 67.7207 68.9758C67.7207 66.451 69.8072 64.3994 72.3754 64.3994C74.9437 64.3994 77.0304 66.451 77.0304 68.9758Z" fill="#FEFEFE"/>
<path d="M91.796 68.9758C91.796 71.5007 89.7093 73.5522 87.1411 73.5522C84.5728 73.5522 82.4863 71.5007 82.4863 68.9758C82.4863 66.451 84.5728 64.3994 87.1411 64.3994C89.7093 64.3994 91.796 66.451 91.796 68.9758Z" fill="#FEFEFE"/>
<path d="M77.0304 91.7004C77.0304 94.2253 74.9437 96.2769 72.3754 96.2769C69.8072 96.2769 67.7207 94.2253 67.7207 91.7004C67.7207 89.1756 69.8072 87.124 72.3754 87.124C74.9437 87.124 77.0304 89.1756 77.0304 91.7004Z" fill="#FEFEFE"/>
<path d="M91.796 91.7004C91.796 94.2253 89.7093 96.2769 87.1411 96.2769C84.5728 96.2769 82.4863 94.2253 82.4863 91.7004C82.4863 89.1756 84.5728 87.124 87.1411 87.124C89.7093 87.124 91.796 89.1756 91.796 91.7004Z" fill="#FEFEFE"/>
<path d="M98.8605 80.3379C98.8605 82.863 96.774 84.9143 94.2057 84.9143C91.6375 84.9143 89.5508 82.863 89.5508 80.3379C89.5508 77.8131 91.6375 75.7617 94.2057 75.7617C96.774 75.7617 98.8605 77.8131 98.8605 80.3379Z" fill="#FEFEFE"/>
<path d="M70.4484 80.3379C70.4484 82.863 68.3616 84.9143 65.7934 84.9143C63.2252 84.9143 61.1387 82.863 61.1387 80.3379C61.1387 77.8131 63.2252 75.7617 65.7934 75.7617C68.3616 75.7617 70.4484 77.8131 70.4484 80.3379Z" fill="#FEFEFE"/>
</svg>
