<?xml version="1.0" encoding="utf-8"?>
<!-- Generator: Adobe Illustrator 16.0.0, SVG Export Plug-In . SVG Version: 6.00 Build 0)  -->
<!DOCTYPE svg PUBLIC "-//W3C//DTD SVG 1.1//EN" "http://www.w3.org/Graphics/SVG/1.1/DTD/svg11.dtd">
<svg version="1.1" id="Layer_1" xmlns="http://www.w3.org/2000/svg" xmlns:xlink="http://www.w3.org/1999/xlink" x="0px" y="0px"
	 width="100px" height="100px" viewBox="0 0 100 100" enable-background="new 0 0 100 100" xml:space="preserve">
<polygon fill-rule="evenodd" clip-rule="evenodd" fill="#FFFFFF" points="99.709,0 99.709,99.382 0.005,99.382 0,0 99.709,0 "/>
<path fill-rule="evenodd" clip-rule="evenodd" fill="#FFF100" d="M0.005,0v99.382h99.704V0H0.005L0.005,0z M93.903,40.6
	c-0.154,3.093-1.086,6.961-2.012,9.59c-3.56,10.519-7.581,17.017-17.173,17.017c-2.782,0-7.731-0.774-9.589-5.724l-0.465-1.084
	l-0.773,0.929c-2.938,3.714-7.271,5.879-12.065,6.032c-3.558,0-6.496-1.237-8.353-3.559l-0.619-0.618l-0.464,0.618
	c-2.011,2.167-5.57,3.405-9.591,3.405c-3.249,0-6.033-1.084-7.889-3.095l-0.464-0.464l-0.619,0.464
	c-2.011,2.011-5.104,3.095-9.127,3.095c-4.95-0.155-7.889-2.939-8.044-7.427c-0.154-6.805,6.498-21.192,9.282-25.678
	c1.702-2.939,4.177-4.331,7.425-4.331c2.32,0,3.867,0.463,4.795,1.392c0.773,0.929,0.928,1.702,0.928,3.403l0.155,2.321l1.237-2.011
	c2.939-4.642,7.735-5.26,12.53-5.26c3.248,0,6.188,1.238,7.424,3.094l0.465,0.619l0.618-0.464c2.321-2.166,5.879-3.249,9.746-3.249
	c4.179,0,7.271,1.083,9.128,3.094c0.308,0.464,0.618,0.774,1.082,1.547l0.464,1.083l0.619-0.928
	c2.63-3.093,6.342-4.795,10.826-4.795c3.561,0,6.343,1.083,8.199,2.939C93.749,34.876,94.056,38.125,93.903,40.6L93.903,40.6z"/>
<path fill-rule="evenodd" clip-rule="evenodd" fill="#EC1C24" d="M0,0v100h100L99.709,0H0.005H0z M96.842,44.468
	c-0.464,3.558-2.938,10.363-4.332,13.148c-3.556,7.271-8.199,12.838-17.324,12.838c-4.795,0-8.815-1.546-11.138-4.485
	c-3.403,2.939-7.734,4.485-12.222,4.485c-3.558,0-6.651-0.928-8.971-2.938c-2.63,1.856-6.188,2.938-10.055,2.938
	c-3.249,0-6.188-0.928-8.508-2.629c-2.476,1.701-5.879,2.629-9.746,2.476C8.049,70.146,3.564,66.123,3.409,60.09
	c-0.155-8.044,6.497-22.584,9.745-27.534c2.321-3.868,5.879-6.033,10.365-6.033c4.795,0,6.497,1.393,7.424,3.094
	c3.714-3.094,8.509-3.248,12.066-3.248c3.868,0,6.188,0.928,8.353,2.629c2.785-1.701,6.033-2.629,9.9-2.629
	c4.95,0,8.664,1.237,11.293,3.711c2.938-2.475,6.652-3.557,10.983-3.557c5.567,0,9.124,2.011,11.292,4.95
	C97.925,35.649,97.307,39.981,96.842,44.468L96.842,44.468z"/>
<path fill-rule="evenodd" clip-rule="evenodd" fill="#231F20" d="M83.382,28.998c-5.257,0-8.816,2.011-11.291,4.95
	c-0.464-0.773-0.772-1.237-1.237-1.702c-2.01-2.32-5.259-3.402-9.591-3.402c-4.331,0-7.735,1.391-10.209,3.402
	c-1.393-2.011-4.332-3.402-8.044-3.402c-4.795,0-10.054,0.618-13.148,5.723c-0.154-1.856-0.31-2.785-1.237-3.867
	c-1.237-1.238-3.249-1.702-5.26-1.702c-3.403,0-6.187,1.547-8.044,4.795c-2.785,4.332-9.436,19.026-9.281,25.987
	c0,4.642,3.094,7.89,8.508,8.045c4.331,0.155,7.734-1.082,9.9-3.248c1.856,2.166,4.795,3.403,8.354,3.403
	c3.867,0,7.734-1.237,10.055-3.713c2.011,2.32,5.104,3.713,8.971,3.713c5.259,0,9.746-2.477,12.686-6.189
	c1.547,4.332,5.723,6.189,10.207,6.189c9.903,0,14.235-6.808,17.791-17.48c0.93-2.475,2.01-6.497,2.164-9.9
	C94.984,35.031,92.51,28.998,83.382,28.998L83.382,28.998z M17.795,55.915c5.105-0.773,6.342,0.928,6.188,2.783
	c-0.463,5.104-5.105,6.188-9.281,6.032c-2.939,0-5.569-1.393-5.569-4.795c-0.154-6.031,5.878-19.955,8.818-24.44
	c1.391-2.166,2.938-3.249,5.569-3.249c2.474,0,3.093,1.238,2.939,2.63C26.458,38.898,19.961,51.118,17.795,55.915L17.795,55.915z
	 M34.347,51.272c-0.31,0.929-0.928,2.784-1.392,4.797c1.702-0.311,2.938-0.619,5.104-0.619c2.32,0,4.021,1.083,4.021,3.094
	c0,4.949-5.569,6.343-9.28,6.343c-4.177,0-7.735-2.321-7.735-6.808c0-5.414,2.785-13.458,5.569-18.718
	c3.248-6.651,6.651-7.58,12.529-7.58c2.476,0,5.569,1.238,5.569,3.558c0,3.404-2.94,4.641-5.724,4.796
	c-1.237,0.154-3.093,0.154-4.176,0.154c0,0-0.929,1.392-1.857,3.868c5.104-0.619,7.426,0.463,6.498,3.558
	C42.235,51.736,38.678,52.046,34.347,51.272L34.347,51.272z M60.026,38.588c-1.393,0-2.32,0.929-2.941,1.856
	c-1.545,2.166-4.795,10.673-5.259,14.077c-0.464,2.476,0.619,2.939,1.701,2.939c1.858,0,3.868-2.011,4.643-5.105
	c0,0-3.56-0.154-2.63-3.094c0.928-3.093,2.784-3.712,5.723-3.867c5.725-0.154,5.107,4.022,4.641,6.341
	c-1.548,7.271-6.65,13.15-14.077,13.15c-5.104,0-8.198-2.785-8.198-7.89c0-3.713,1.856-9.436,3.249-12.839
	c3.094-7.116,6.341-12.22,14.54-12.22c4.953,0,8.817,1.855,8.199,6.497c-0.465,3.403-2.165,5.259-5.104,5.568
	c-0.928,0-4.485,0-3.249-3.403C61.572,39.517,61.881,38.588,60.026,38.588L60.026,38.588z M91.117,44.621
	c-0.928,4.332-2.939,9.436-4.948,13.149c-3.559,6.342-7.736,7.116-11.294,7.116c-3.712,0-7.888-1.394-7.888-7.116
	c0-4.022,1.7-9.745,3.247-13.458c2.631-6.806,5.259-12.375,13.611-12.22C93.592,32.092,91.892,40.909,91.117,44.621L91.117,44.621z
	 M84.157,40.29c-0.154,2.629-4.021,13.148-5.26,15.315c-0.618,1.082-1.392,1.855-2.475,1.855c-1.084,0-1.548-0.773-1.548-1.546
	c-0.156-2.322,4.176-14.078,5.726-16.089c0.617-0.927,1.389-1.082,2.164-1.082C84.003,38.744,84.157,39.671,84.157,40.29
	L84.157,40.29z"/>
</svg>
