<svg width="88" height="89" viewBox="0 0 88 89" fill="none" xmlns="http://www.w3.org/2000/svg">
<path d="M0.575625 -1.90735e-06H3.53563V25.44H19.2156V28H0.575625V-1.90735e-06ZM31.8178 28.2C29.7911 28.2 27.9645 27.7467 26.3378 26.84C24.7111 25.9067 23.4311 24.6267 22.4978 23C21.5645 21.3733 21.0978 19.5333 21.0978 17.48C21.0978 15.4267 21.5645 13.5867 22.4978 11.96C23.4311 10.3333 24.7111 9.06667 26.3378 8.16C27.9645 7.25333 29.7911 6.8 31.8178 6.8C33.8445 6.8 35.6711 7.25333 37.2978 8.16C38.9245 9.06667 40.1911 10.3333 41.0978 11.96C42.0311 13.5867 42.4978 15.4267 42.4978 17.48C42.4978 19.5333 42.0311 21.3733 41.0978 23C40.1911 24.6267 38.9245 25.9067 37.2978 26.84C35.6711 27.7467 33.8445 28.2 31.8178 28.2ZM31.8178 25.68C33.3111 25.68 34.6445 25.3467 35.8178 24.68C37.0178 23.9867 37.9511 23.0133 38.6178 21.76C39.2845 20.5067 39.6178 19.08 39.6178 17.48C39.6178 15.88 39.2845 14.4533 38.6178 13.2C37.9511 11.9467 37.0178 10.9867 35.8178 10.32C34.6445 9.62667 33.3111 9.28 31.8178 9.28C30.3245 9.28 28.9778 9.62667 27.7778 10.32C26.6045 10.9867 25.6711 11.9467 24.9778 13.2C24.3111 14.4533 23.9778 15.88 23.9778 17.48C23.9778 19.08 24.3111 20.5067 24.9778 21.76C25.6711 23.0133 26.6045 23.9867 27.7778 24.68C28.9778 25.3467 30.3245 25.68 31.8178 25.68ZM65.39 6.96L56.03 28H53.11L43.79 6.96H46.75L54.63 24.88L62.59 6.96H65.39ZM87.1238 18.36H69.5238C69.6838 20.5467 70.5238 22.32 72.0438 23.68C73.5638 25.0133 75.4838 25.68 77.8038 25.68C79.1104 25.68 80.3104 25.4533 81.4038 25C82.4971 24.52 83.4438 23.8267 84.2438 22.92L85.8438 24.76C84.9104 25.88 83.7371 26.7333 82.3238 27.32C80.9371 27.9067 79.4038 28.2 77.7238 28.2C75.5638 28.2 73.6438 27.7467 71.9638 26.84C70.3104 25.9067 69.0171 24.6267 68.0838 23C67.1504 21.3733 66.6838 19.5333 66.6838 17.48C66.6838 15.4267 67.1238 13.5867 68.0038 11.96C68.9104 10.3333 70.1371 9.06667 71.6838 8.16C73.2571 7.25333 75.0171 6.8 76.9638 6.8C78.9104 6.8 80.6571 7.25333 82.2038 8.16C83.7504 9.06667 84.9638 10.3333 85.8438 11.96C86.7238 13.56 87.1638 15.4 87.1638 17.48L87.1238 18.36ZM76.9638 9.24C74.9371 9.24 73.2304 9.89333 71.8438 11.2C70.4838 12.48 69.7104 14.16 69.5238 16.24H84.4438C84.2571 14.16 83.4704 12.48 82.0838 11.2C80.7238 9.89333 79.0171 9.24 76.9638 9.24ZM28.75 55.3281C32.5521 51.526 37.1354 49.625 42.5 49.625C47.8646 49.625 52.4219 51.526 56.1719 55.3281C59.974 59.0781 61.875 63.6354 61.875 69C61.875 74.3646 59.974 78.9479 56.1719 82.75C52.4219 86.5 47.8646 88.375 42.5 88.375C37.1354 88.375 32.5521 86.5 28.75 82.75C25 78.9479 23.125 74.3646 23.125 69C23.125 63.6354 25 59.0781 28.75 55.3281ZM31.4062 80.0938C34.4792 83.1146 38.1771 84.625 42.5 84.625C46.8229 84.625 50.4948 83.1146 53.5156 80.0938C56.5885 77.0208 58.125 73.3229 58.125 69C58.125 64.6771 56.5885 61.0052 53.5156 57.9844C50.4948 54.9115 46.8229 53.375 42.5 53.375C38.1771 53.375 34.4792 54.9115 31.4062 57.9844C28.3854 61.0052 26.875 64.6771 26.875 69C26.875 73.3229 28.3854 77.0208 31.4062 80.0938ZM49.0625 73.4531C49.375 73.0365 49.7917 72.8021 50.3125 72.75C50.8333 72.6979 51.276 72.8542 51.6406 73.2188C52.0573 73.5312 52.2917 73.9479 52.3438 74.4688C52.3958 74.9896 52.2656 75.4323 51.9531 75.7969C49.5052 78.7656 46.3542 80.25 42.5 80.25C38.6458 80.25 35.4948 78.7656 33.0469 75.7969C32.7344 75.4323 32.6042 74.9896 32.6562 74.4688C32.7083 73.9479 32.9167 73.5312 33.2812 73.2188C33.6979 72.8542 34.1667 72.6979 34.6875 72.75C35.2083 72.8021 35.625 73.0365 35.9375 73.4531C37.6562 75.4844 39.8438 76.5 42.5 76.5C45.1562 76.5 47.3438 75.4844 49.0625 73.4531ZM33.75 65.4844L33.0469 66.8125C32.8906 67.125 32.6562 67.2292 32.3438 67.125C31.9792 67.0208 31.8229 66.7865 31.875 66.4219C31.9271 65.7969 32.0573 65.1979 32.2656 64.625C32.474 64.0521 32.7083 63.5312 32.9688 63.0625C33.2812 62.5938 33.6198 62.2031 33.9844 61.8906C34.349 61.5781 34.7135 61.3438 35.0781 61.1875C35.4948 60.9792 35.8854 60.875 36.25 60.875C37.2396 60.875 38.1771 61.4219 39.0625 62.5156C40 63.5573 40.5208 64.8594 40.625 66.4219C40.6771 66.7865 40.5208 67.0208 40.1562 67.125C39.8438 67.2292 39.6094 67.125 39.4531 66.8125L38.75 65.4844C38.0729 64.3385 37.2396 63.7656 36.25 63.7656C35.2604 63.7656 34.4271 64.3385 33.75 65.4844ZM45.8594 62.5156C46.7969 61.4219 47.7604 60.875 48.75 60.875C49.7396 60.875 50.6771 61.4219 51.5625 62.5156C52.5 63.5573 53.0208 64.8594 53.125 66.4219C53.1771 66.7865 53.0208 67.0208 52.6562 67.125C52.3438 67.2292 52.1094 67.125 51.9531 66.8125L51.25 65.4844C50.5729 64.3385 49.7396 63.7656 48.75 63.7656C47.7604 63.7656 46.9271 64.3385 46.25 65.4844L45.5469 66.8125C45.3906 67.125 45.1562 67.2292 44.8438 67.125C44.4792 67.0208 44.3229 66.7865 44.375 66.4219C44.4792 64.8594 44.974 63.5573 45.8594 62.5156Z" fill="#27AE60"/>
</svg>
