<?xml version="1.0" encoding="utf-8"?>
<!-- Generator: Adobe Illustrator 16.0.0, SVG Export Plug-In . SVG Version: 6.00 Build 0)  -->
<!DOCTYPE svg PUBLIC "-//W3C//DTD SVG 1.1//EN" "http://www.w3.org/Graphics/SVG/1.1/DTD/svg11.dtd">
<svg version="1.1" id="Layer_1" xmlns="http://www.w3.org/2000/svg" xmlns:xlink="http://www.w3.org/1999/xlink" x="0px" y="0px"
	 width="100px" height="100px" viewBox="0 0 100 100" enable-background="new 0 0 100 100" xml:space="preserve">
<path fill="#231F20" d="M19.279,53.371c0,0-2.111,3.991-2.111,7.447c0,0-0.192,8.138,8.215,8.138h1.151
	c0,0,1.689,0.538,30.785-8.138h-7.369l-0.384-9.137l-3.455,9.137h-5.297l8.368-22.188h5.067l-2.304,6.373l5.45-6.373h15.97
	l-1.383,3.686h-5.451l-1.688,4.683h5.066l-1.611,4.146h-4.99l-1.996,5.45h5.989l-0.461,1.612c0,0,21.726-5.604,24.028-6.219
	c0,0-61.919,29.345-72.054,29.345c0,0-9.785,0.06-9.785-7.925C9.03,73.408,7.917,65.962,19.279,53.371z M55.093,59.282l7.421-20.063
	l-7.882,8.394L55.093,59.282z M42.963,38.63l-8.24,22.188h5.118l8.292-22.188H42.963z M20.034,60.818h5.118l3.685-9.674l-0.41,9.674
	h5.425l8.292-22.188h-5.067l-3.788,9.802l0.614-9.802h-5.477L20.034,60.818z M23.882,65.932c0,0.196-0.049,0.379-0.147,0.549
	c-0.098,0.17-0.231,0.304-0.401,0.4c-0.169,0.098-0.352,0.146-0.548,0.146c-0.195,0-0.377-0.049-0.546-0.146
	c-0.169-0.097-0.304-0.23-0.401-0.4s-0.147-0.353-0.147-0.549c0-0.195,0.049-0.378,0.147-0.547c0.098-0.17,0.232-0.304,0.401-0.401
	s0.352-0.146,0.546-0.146c0.196,0,0.378,0.049,0.548,0.146s0.303,0.231,0.401,0.401C23.833,65.554,23.882,65.736,23.882,65.932z
	 M23.669,65.932c0-0.244-0.087-0.452-0.259-0.625s-0.38-0.259-0.625-0.259c-0.243,0-0.451,0.086-0.624,0.259
	c-0.172,0.173-0.258,0.381-0.258,0.625s0.086,0.453,0.258,0.626c0.173,0.173,0.381,0.259,0.624,0.259
	c0.244,0,0.452-0.086,0.625-0.259S23.669,66.176,23.669,65.932z M22.289,65.347h0.523c0.148,0,0.255,0.029,0.322,0.089
	c0.066,0.061,0.1,0.141,0.1,0.241c0,0.079-0.025,0.146-0.076,0.205c-0.051,0.057-0.131,0.099-0.24,0.125
	c0.045,0.017,0.079,0.034,0.1,0.055c0.029,0.026,0.061,0.066,0.093,0.118c0.002,0.004,0.065,0.117,0.19,0.339h-0.345
	c-0.112-0.222-0.188-0.356-0.226-0.399s-0.077-0.065-0.115-0.065c-0.008,0-0.021,0.001-0.036,0.005v0.46h-0.29V65.347z
	 M22.579,65.845h0.126c0.085,0,0.145-0.013,0.179-0.042c0.034-0.026,0.052-0.062,0.052-0.106c0-0.043-0.017-0.078-0.05-0.104
	c-0.034-0.029-0.09-0.042-0.17-0.042h-0.138V65.845z M76.64,39.718c0,0.196-0.048,0.378-0.146,0.548
	c-0.099,0.169-0.232,0.302-0.4,0.4c-0.17,0.098-0.354,0.146-0.549,0.146c-0.194,0-0.377-0.049-0.547-0.146
	c-0.169-0.098-0.303-0.231-0.4-0.4c-0.099-0.17-0.147-0.353-0.147-0.548s0.049-0.378,0.147-0.548c0.098-0.169,0.231-0.303,0.4-0.401
	c0.17-0.098,0.353-0.146,0.547-0.146c0.195,0,0.379,0.049,0.549,0.146c0.168,0.098,0.302,0.231,0.4,0.401
	C76.592,39.34,76.64,39.522,76.64,39.718z M76.428,39.718c0-0.244-0.087-0.453-0.259-0.625c-0.173-0.173-0.381-0.259-0.624-0.259
	c-0.244,0-0.452,0.086-0.624,0.259c-0.174,0.172-0.26,0.381-0.26,0.625c0,0.244,0.086,0.453,0.26,0.625
	c0.172,0.172,0.38,0.259,0.624,0.259c0.243,0,0.451-0.086,0.624-0.259C76.341,40.171,76.428,39.962,76.428,39.718z M75.048,39.132
	h0.522c0.149,0,0.256,0.03,0.323,0.089c0.066,0.061,0.1,0.141,0.1,0.241c0,0.079-0.025,0.147-0.077,0.205
	c-0.05,0.058-0.13,0.1-0.238,0.125c0.045,0.018,0.077,0.036,0.099,0.055c0.029,0.027,0.062,0.067,0.094,0.119
	c0.002,0.003,0.065,0.117,0.19,0.338h-0.346c-0.112-0.223-0.188-0.355-0.226-0.399c-0.039-0.043-0.077-0.065-0.115-0.065
	c-0.009,0-0.021,0.001-0.036,0.004v0.46h-0.29V39.132z M75.338,39.63h0.127c0.085,0,0.145-0.013,0.179-0.041
	c0.035-0.027,0.052-0.063,0.052-0.106s-0.017-0.079-0.05-0.106c-0.033-0.028-0.089-0.042-0.169-0.042h-0.139V39.63z"/>
</svg>
