<?xml version="1.0" encoding="utf-8"?>
<!-- Generator: Adobe Illustrator 16.0.0, SVG Export Plug-In . SVG Version: 6.00 Build 0)  -->
<!DOCTYPE svg PUBLIC "-//W3C//DTD SVG 1.1//EN" "http://www.w3.org/Graphics/SVG/1.1/DTD/svg11.dtd">
<svg version="1.1" id="Layer_1" xmlns="http://www.w3.org/2000/svg" xmlns:xlink="http://www.w3.org/1999/xlink" x="0px" y="0px"
	 width="100px" height="100px" viewBox="0 0 100 100" enable-background="new 0 0 100 100" xml:space="preserve">
<path fill-rule="evenodd" clip-rule="evenodd" fill="#231F20" d="M14.035,81.014c1.401,0.758,1.604,2.426,1.485,3.976
	c-0.101,1.163-0.388,2.393-1.502,2.999c-0.979,0.404-2.289,0.268-3.335,0.284V87.13c0.928-0.035,2.034,0.201,2.507-0.726
	c0.322-1.045,0.322-2.393,0.068-3.454c-0.102-0.488-0.59-0.875-1.063-0.976c-0.844-0.22-1.85-0.084-2.693-0.101v11.085H7.567V80.693
	l0.354-0.012C9.965,80.766,12.194,80.407,14.035,81.014L14.035,81.014z"/>
<path fill-rule="evenodd" clip-rule="evenodd" fill="#231F20" d="M45.342,80.744v1.13c-1.368,0.168-3.225-0.641-4.087,0.774
	c-0.338,0.809-0.237,1.6,0,2.442c0.641,0.909,1.908,0.505,2.854,0.741c0.743,0.168,1.485,0.725,1.722,1.466
	c0.489,1.549,0.371,3.336-0.355,4.734c-0.912,1.078-2.516,0.894-3.883,0.91l-2.01-0.085v-1.129c1.115,0,2.179,0.168,3.277,0
	c0.438-0.134,0.945-0.354,1.063-0.858c0.321-0.843,0.305-1.972-0.051-2.781c-0.642-0.791-1.841-0.454-2.735-0.657
	c-0.727-0.117-1.453-0.622-1.773-1.314c-0.473-1.263-0.423-2.98,0.135-4.194c0.979-1.719,3.141-1.195,4.897-1.246L45.342,80.744
	L45.342,80.744z"/>
<path fill-rule="evenodd" clip-rule="evenodd" fill="#231F20" d="M50.086,81.874l0.017,1.583l2.12,0.025v1.187
	c-0.658,0.017-1.393,0.017-2.052,0l-0.085,0.103v5.913c0.034,0.387-0.017,0.808,0.372,1.044c0.423,0.101,0.845,0.034,1.317,0.051
	v1.095c-0.793,0.035-1.655,0.101-2.482,0.017c-0.473-0.118-0.946-0.421-1.081-0.926l-0.067-1.23v-8.879L50.086,81.874L50.086,81.874
	z"/>
<path fill-rule="evenodd" clip-rule="evenodd" fill="#231F20" d="M64.852,81.874l0.017,1.583l2.119,0.025v1.187
	c-0.658,0.017-1.394,0.017-2.051,0l-0.085,0.103v5.913c0.033,0.387-0.017,0.808,0.372,1.044c0.422,0.101,0.844,0.034,1.316,0.051
	v1.095c-0.793,0.035-1.655,0.101-2.482,0.017c-0.473-0.118-0.945-0.421-1.08-0.926l-0.067-1.23v-8.879L64.852,81.874L64.852,81.874z
	"/>
<path fill-rule="evenodd" clip-rule="evenodd" fill="#231F20" d="M27.863,84.872c0.187,0.354,0.211,0.758,0.296,1.145v6.823
	c-2.201,0.05-4.264,0.354-6.29-0.253c-1.149-0.588-1.267-1.902-1.166-3.083c0.084-0.892,0.709-1.819,1.588-2.105
	c0.81-0.285,1.798-0.201,2.743-0.219v1.045c-0.489,0.134-1.123-0.017-1.595,0.234c-0.76,0.456-0.811,1.365-0.692,2.191
	c0.085,0.354,0.303,0.725,0.658,0.893c0.844,0.337,1.85,0.202,2.795,0.118v-5.188c-0.085-0.54-0.178-1.097-0.667-1.415
	c-1.08-0.557-2.372-0.068-3.555-0.186v-1.265c1.317-0.05,2.626-0.15,3.893-0.05C26.682,83.659,27.51,84.063,27.863,84.872
	L27.863,84.872z"/>
<path fill-rule="evenodd" clip-rule="evenodd" fill="#231F20" d="M60.33,84.872c0.186,0.354,0.211,0.758,0.295,1.145v6.823
	c-2.2,0.05-4.264,0.354-6.29-0.253c-1.147-0.588-1.266-1.902-1.165-3.083c0.084-0.892,0.709-1.819,1.587-2.105
	c0.811-0.285,1.798-0.201,2.745-0.219v1.045c-0.49,0.134-1.124-0.017-1.596,0.234c-0.76,0.456-0.811,1.365-0.693,2.191
	c0.085,0.354,0.305,0.725,0.658,0.893c0.844,0.337,1.85,0.202,2.795,0.118v-5.188c-0.084-0.54-0.177-1.097-0.666-1.415
	c-1.081-0.557-2.373-0.068-3.556-0.186v-1.265c1.318-0.05,2.626-0.15,3.893-0.05C59.147,83.659,59.975,84.063,60.33,84.872
	L60.33,84.872z"/>
<path fill-rule="evenodd" clip-rule="evenodd" fill="#231F20" d="M31.427,83.541c0.793,2.223,1.503,4.531,2.331,6.772
	c0.929-2.206,1.705-4.515,2.55-6.772c0.558-0.084,1.165-0.034,1.739-0.051c0.101,0.169-0.084,0.286-0.101,0.454
	c-1.84,4.584-3.766,9.132-5.725,13.681h-1.502l-0.034-0.033c0.625-1.618,1.3-3.218,1.959-4.836l-3.428-9.215
	C29.28,83.54,31.427,83.541,31.427,83.541L31.427,83.541z"/>
<path fill-rule="evenodd" clip-rule="evenodd" fill="#231F20" d="M89.989,84.788c0.389,0.623,0.278,1.483,0.346,2.223v5.979
	l-1.933-0.007l-0.018-6.68c-0.102-0.472-0.236-0.978-0.709-1.281c-0.844-0.454-2.921-0.033-2.921-0.033l-0.005,6.605l0.015,1.384
	h-1.946l-0.007-0.104l0.019-9.327c0,0,3.359-0.023,4.997-0.006C88.671,83.643,89.567,83.944,89.989,84.788L89.989,84.788z"/>
<path fill-rule="evenodd" clip-rule="evenodd" fill="#231F20" d="M76.717,93.043c-0.028,0-0.057,0-0.085,0
	c-1.334-0.117-2.854-0.152-3.529-1.551c-0.4-0.942-0.6-2.096-0.592-3.25L72.5,88.234c-0.008-1.154,0.192-2.307,0.592-3.251
	c0.675-1.397,2.196-1.432,3.529-1.549c0.028,0,0.058,0,0.085,0h0.026c0.028,0,0.057,0,0.084,0c1.335,0.117,2.854,0.151,3.53,1.549
	c0.401,0.944,0.6,2.097,0.592,3.251l-0.011,0.008c0.008,1.154-0.191,2.308-0.592,3.25c-0.676,1.398-2.195,1.434-3.529,1.551
	c-0.028,0-0.057,0-0.086,0H76.717L76.717,93.043z M76.765,91.762c0.404-0.009,0.802-0.114,1.104-0.319
	c0.693-0.624,0.71-1.568,0.778-2.443c-0.013-0.239-0.015-0.494-0.015-0.757l0.011-0.008c0-0.263,0.001-0.517,0.015-0.756
	c-0.068-0.877-0.084-1.82-0.777-2.444c-0.304-0.205-0.702-0.311-1.105-0.317h-0.112c-0.402,0.007-0.801,0.112-1.105,0.317
	c-0.692,0.624-0.709,1.567-0.776,2.444c0.012,0.239,0.013,0.493,0.014,0.756l0.012,0.008c-0.001,0.263-0.002,0.518-0.016,0.757
	c0.067,0.875,0.085,1.819,0.777,2.443c0.304,0.205,0.702,0.311,1.104,0.319H76.765L76.765,91.762z"/>
<polygon fill-rule="evenodd" clip-rule="evenodd" fill="#231F20" points="17.057,80.66 18.923,80.66 18.923,92.965 17.057,92.965 
	17.057,80.66 "/>
<polygon fill-rule="evenodd" clip-rule="evenodd" fill="#231F20" points="68.645,83.558 70.637,83.558 70.637,92.945 68.645,92.945 
	68.645,83.558 "/>
<polygon fill-rule="evenodd" clip-rule="evenodd" fill="#231F20" points="68.569,80.662 70.536,80.662 70.536,82.361 68.569,82.361 
	68.569,80.662 "/>
<polygon fill-rule="evenodd" clip-rule="evenodd" fill="#0074BB" points="51.718,45.211 37.79,41.056 30.205,43.74 44.051,47.97 
	51.718,45.211 "/>
<polygon fill-rule="evenodd" clip-rule="evenodd" fill="#FCB813" points="37.01,69.755 52.76,74.95 66.71,69.924 51.044,65.137 
	37.01,69.755 "/>
<path fill-rule="evenodd" clip-rule="evenodd" fill="#00AD9C" d="M74.496,57.419l-23.452,7.718l15.666,4.787l22.571-8.133
	l-14.543-4.442C74.655,57.372,74.573,57.396,74.496,57.419L74.496,57.419z"/>
<path fill-rule="evenodd" clip-rule="evenodd" fill="#00AD9C" d="M52.688,50.61c-0.562,0.188-0.988,0.343-1.229,0.446
	c-1.823,0.778-16.01,5.454-16.01,5.454s-2.61,1.073-5.54,2.169l13.8,4.217c5.899-2.033,16.688-5.753,23.111-7.967L52.688,50.61
	L52.688,50.61z"/>
<path fill-rule="evenodd" clip-rule="evenodd" fill="#0074BB" d="M94.15,51.056c-8.2-4.675-20.826-4.935-24.73-4.675
	c-3.387,0.225-13.044,2.992-16.732,4.229l14.132,4.319c3.115-1.075,5.204-1.795,5.204-1.795s4.633-1.763,9.241-0.52
	c4.697,1.267-3.232,3.768-6.526,4.734l14.543,4.442l0.965-0.347C90.246,61.444,102.351,55.73,94.15,51.056L94.15,51.056z"/>
<path fill-rule="evenodd" clip-rule="evenodd" fill="#FCB813" d="M28.028,59.367c-3.74,1.336-7.273,2.29-10.021,1.299
	c-4.673-1.687,0.333-3.629,3.336-4.604L7.783,51.918C3.655,54.272-7.136,61.726,13.582,65.6c16.66,3.117,22.647-0.129,26.422-1.428
	c0.651-0.224,1.967-0.678,3.705-1.276l-13.8-4.217C29.288,58.91,28.655,59.143,28.028,59.367L28.028,59.367z"/>
<path fill-rule="evenodd" clip-rule="evenodd" fill="#00AD9C" d="M23.213,55.471l20.838-7.5l-13.846-4.23l-21.05,7.446
	c0,0-0.556,0.266-1.372,0.732l13.561,4.144C22.274,55.761,23.013,55.551,23.213,55.471L23.213,55.471z"/>
<path fill-rule="evenodd" clip-rule="evenodd" fill="#EC1C24" d="M37.01,1.059v68.696l15.75,5.195c0,0,0-54.411,0-58.568
	c0-2.467,5.674-3.798,5.8,1.429c0.13,5.454,0,24.934,0,24.934s7.897,4.023,12.943-0.13c5.206-4.286,9.632-19.35-0.391-28.57
	c0,0-4.389-5.201-21.217-9.61C37.01,1.059,37.01,1.059,37.01,1.059L37.01,1.059z"/>
</svg>
