<?xml version="1.0" encoding="utf-8"?>
<!-- Generator: Adobe Illustrator 16.0.0, SVG Export Plug-In . SVG Version: 6.00 Build 0)  -->
<!DOCTYPE svg PUBLIC "-//W3C//DTD SVG 1.1//EN" "http://www.w3.org/Graphics/SVG/1.1/DTD/svg11.dtd">
<svg version="1.1" id="Layer_1" xmlns="http://www.w3.org/2000/svg" xmlns:xlink="http://www.w3.org/1999/xlink" x="0px" y="0px"
	 width="100px" height="100px" viewBox="0 0 100 100" enable-background="new 0 0 100 100" xml:space="preserve">
<g>
	<polygon fill-rule="evenodd" clip-rule="evenodd" fill="#EC202A" points="-0.756,0 100,0 100,100 -0.756,100 -0.756,22.801 	"/>
	<path fill-rule="evenodd" clip-rule="evenodd" fill="#FFFFFF" d="M54.358,53.188c1.177,0,1.97,0.711,1.97,1.522
		c0,1.124-1.178,2.774-3.433,2.774c-1.686,0-1.936-1.06-1.936-1.529C50.96,55.115,52.196,53.188,54.358,53.188L54.358,53.188z"/>
	<path fill-rule="evenodd" clip-rule="evenodd" fill="#FFFFFF" d="M58.868,58.288c0-0.525,0.129-2.056,0.129-2.895l-0.192-14.163
		c0-3.677,1.128-6.11,2.248-7.696c1.107-1.565,3.666-4.481,7.222-4.481c2.736,0,4.161,2.176,4.161,4.581
		c0,2.646-0.92,4.759-4.065,7.625c-3.146,2.867-3.907,2.952-3.907,3.77c0,0.775,1.013,1.273,1.554,1.65
		c0.543,0.37,2.67,1.807,3.719,2.709c1.047,0.897,1.366,1.523,1.366,2.391c0,1.5-0.664,2.332-1.302,3.271
		c-1.019,1.501-4.802,5.264-6.737,8.877c-0.447,0.711-0.808,0.705-1.111,0.313c-0.548-0.712-0.986-1.253-1.144-1.75
		c-0.157-0.498-0.446-1.31,0.063-2.084c0.509-0.776,4.099-5.136,5.367-6.723c1.111-1.395,1.08-3.364,0.255-4.146
		c-0.825-0.775-2.71-2.426-3.271-3.08c-0.476-0.562-0.824-1.735,0-2.675c2.604-2.958,5.4-6.294,5.4-9.595
		c0-1.87-1.242-3.144-2.224-3.144c-2.381,0-4.448,4.36-4.543,8.315L62.3,54.803c0,1.152,0.027,1.706-0.855,2.717
		c-0.843,0.961-1.686,1.267-2.162,1.267C59.029,58.786,58.868,58.602,58.868,58.288L58.868,58.288z"/>
	<path fill-rule="evenodd" clip-rule="evenodd" fill="#FFFFFF" d="M92.289,42.696c0,0.526,0.44,0.96,0.979,0.96
		c0.537,0,0.977-0.434,0.977-0.96c0-0.527-0.439-0.96-0.977-0.96C92.729,41.736,92.289,42.169,92.289,42.696L92.289,42.696z
		 M92.571,42.696c0-0.441,0.304-0.747,0.697-0.747c0.387,0,0.694,0.306,0.694,0.747s-0.308,0.747-0.694,0.747
		C92.875,43.443,92.571,43.137,92.571,42.696L92.571,42.696z M92.875,43.223h0.233v-0.448h0.11l0.261,0.448h0.238l-0.287-0.462
		c0.167-0.007,0.287-0.085,0.287-0.277c0-0.243-0.158-0.32-0.434-0.32h-0.409V43.223L92.875,43.223z M93.108,42.597v-0.256h0.165
		c0.092,0,0.21,0.006,0.21,0.121c0,0.121-0.075,0.135-0.186,0.135H93.108L93.108,42.597z"/>
	<path fill-rule="evenodd" clip-rule="evenodd" fill="#FFFFFF" d="M29.529,64.661c0-2.433,2.288-6.024,4.431-6.024
		c0.382,0,0.621,0.093,1.049,0.093c0.524,0,0.811-1.074,1.621-1.074c0.715,0,1.397,0.234,1.397,1.955
		c0,0.848,0.685,2.198,1.224,2.198c1.192,0,1.958-3.293,2.526-4.858c0.146-0.397,0.572-0.789,0.906-0.789
		c0.637,0,0.938,0.477,1.001,1.011c0.062,0.525,0.156,2.923,0.793,2.923c0.767,0,1.465-2.177,2.066-3.394
		c0.602-1.216,1.269-2.24,1.746-2.24s0.423,0.434,0.415,0.812c-0.096,3.421-0.257,18.807-0.224,19.084s-0.127,0.498-0.381,0.498
		c-0.253,0-1.654,0.035-1.905,0.035c-0.253,0-0.415-0.284-0.415-0.533l0.162-12.575c0-0.72-0.435-0.584-0.731-0.157
		c-0.891,1.302-1.459,2.147-2.382,2.147c-1.561,0-0.888-1.963-1.559-1.963c-0.67,0-1.685,3.237-3.559,3.237
		c-1.811,0-1.367-1.992-2.001-1.992c-0.731,0-2.16,3.521-4.542,3.521C30.464,66.574,29.529,66.312,29.529,64.661L29.529,64.661z"/>
	<path fill-rule="evenodd" clip-rule="evenodd" fill="#EC202A" d="M32.246,63.893c0-0.931,1.775-3.763,2.604-3.763
		c0.285,0,0.477,0.278,0.477,0.591c0,0.839-1.871,3.734-2.603,3.734C32.466,64.455,32.246,64.326,32.246,63.893L32.246,63.893z"/>
	<path fill-rule="evenodd" clip-rule="evenodd" fill="#FFFFFF" d="M72.088,53.4c0-2.459,2.48-6.756,5.181-6.756
		c0.381,0,0.825-0.093,1.076-0.37c0.253-0.284,0.48-0.626,0.986-0.626c0.855,0,1.043,0.783,1.144,1.43
		c0.158,1.031,0.289,2.745,1.05,2.745c0.571,0,0.771-0.534,1.082-1.273c0.284-0.683,1.393-3.059,1.808-3.805
		c0.413-0.747,0.887-0.932,1.237-0.932c0.352,0,0.858,0.341,0.858,0.81c0,0.47,0.066,1.558,0.066,1.558
		c0,0.555,0.458,0.662,0.827-0.221c0.443-1.06,1.334-3.3,2.509-3.3c0.822,0,1.077,0.775,1.364,1.835
		c0.286,1.061,0.765,3.237,1.972,3.237c0.381,0,1.049-0.583,1.333-0.306c0.264,0.256-0.411,1.181-0.952,1.8
		c-0.541,0.626-1.144,1.216-2.001,1.216c-0.858,0-1.486-0.32-1.907-1.337c-0.348-0.839-0.542-2.305-1.049-2.305
		c-0.446,0-0.734,0.719-1.273,1.871c-0.539,1.152-1.614,3.3-2.729,3.3c-0.735,0-0.89-0.562-0.89-1.494
		c0-0.377-0.267-0.754-0.7,0.028c-0.731,1.31-1.397,2.832-2.795,2.832c-1.206,0-1.641-0.961-1.843-1.679
		c-0.097-0.342-0.348-0.626-0.635-0.186c-0.285,0.435-1.715,2.269-2.384,2.831c-0.667,0.562-1.207,0.996-2.067,0.996
		C72.497,55.301,72.088,54.682,72.088,53.4L72.088,53.4z"/>
	<path fill-rule="evenodd" clip-rule="evenodd" fill="#EC202A" d="M74.947,51.687c0-0.839,1.748-3.264,2.574-3.264
		c0.282,0,0.38,0.185,0.38,0.405c0,0.626-1.62,3.485-2.479,3.485C75.138,52.312,74.947,52,74.947,51.687L74.947,51.687z"/>
	<path fill-rule="evenodd" clip-rule="evenodd" fill="#FFFFFF" d="M21.146,67.577c0-0.469-0.434-0.633-0.434-0.633l-4.194-1.913
		c-0.715-0.326-0.62-0.654,0-1.024l4.099-2.525c0.478-0.277,0.525-0.654,0.525-1.166l-0.047-13.167c0-0.427,0.047-0.704,0.428-0.939
		l1.622-1.024c0.667-0.327,1.286-0.327,1.286,0.462v12.007c0,0.562,0.277,0.981,1.001,0.419c3.908-3.036,7.721-6.21,7.721-11.068
		c0-2.802-1.812-4.53-4.337-4.53c-6.148,0-16.38,6.856-20.16,9.388c-0.855,0.569-2.907,2.283-3.289,2.661
		c-0.38,0.369-0.762,0.513-0.762-0.234s0.048-1.778,0.048-2.618c0-0.839,0.309-2.561,1.524-3.314c8.483-5.278,16.443-8.5,21.971-8.5
		c5.527,0,7.435,3.642,7.435,6.26c0,4.901-3.67,9.296-10.819,14.617c-0.333,0.285-0.333,0.797-0.333,0.933v2.475
		c0,0.563,0.287,0.89,0.811,1.124l11.104,5.136c1.097,0.52,1.001,1.217,0.811,1.587c-0.19,0.377-0.366,0.896-0.619,1.123
		c-0.573,0.513-1.049,0.654-2.002,0.284l-9.199-4.303c-0.524-0.327-0.906-0.093-0.953,0.327l0.095,2.29
		c0,0.562-0.191,1.167-0.81,1.543c-0.62,0.371-1.335,0.84-1.716,1.025c-0.381,0.192-0.762,0.285-0.762-0.37
		s-0.058-5.982-0.048-5.982C21.141,67.926,21.146,68.047,21.146,67.577L21.146,67.577z"/>
</g>
</svg>
