<?xml version="1.0" encoding="utf-8"?>
<!-- Generator: Adobe Illustrator 16.0.0, SVG Export Plug-In . SVG Version: 6.00 Build 0)  -->
<!DOCTYPE svg PUBLIC "-//W3C//DTD SVG 1.1//EN" "http://www.w3.org/Graphics/SVG/1.1/DTD/svg11.dtd">
<svg version="1.1" id="Layer_1" xmlns="http://www.w3.org/2000/svg" xmlns:xlink="http://www.w3.org/1999/xlink" x="0px" y="0px"
	 width="100px" height="100px" viewBox="0 0 100 100" enable-background="new 0 0 100 100" xml:space="preserve">
<rect fill="#040586" width="100" height="100"/>
<g>
	<circle fill-rule="evenodd" clip-rule="evenodd" fill="#FFC500" cx="49.824" cy="38.788" r="11.93"/>
	<path fill="#FFFFFF" d="M49.249,44.408c-0.089-0.065-0.197-0.119-0.312-0.178c-0.132-0.067-0.283-0.144-0.363-0.218
		c-0.148-0.138-0.28-0.379-0.42-0.634c-0.116-0.213-0.237-0.434-0.388-0.634c-0.098-0.132-0.229-0.242-0.345-0.339
		c-0.073-0.061-0.182-0.153-0.205-0.193c-0.165-0.308-0.263-0.724-0.358-1.126c-0.037-0.154-0.074-0.313-0.115-0.462
		c-0.197-0.724-0.314-1.258-0.378-1.735c-0.188-1.406-0.749-2.175-1.522-3.107c-0.707-0.853-1.414-1.56-2.226-2.226
		c-0.184-0.151-0.364-0.316-0.555-0.491c-0.568-0.52-1.211-1.109-2.091-1.402c-0.294-0.098-0.587-0.147-0.872-0.147
		c-0.783,0-1.387,0.363-1.918,0.683c-0.185,0.111-0.359,0.216-0.53,0.299c-0.299,0.146-0.655,0.267-1.032,0.395
		c-0.635,0.214-1.29,0.436-1.759,0.818c-0.124,0.1-0.24,0.215-0.352,0.327c-0.202,0.199-0.41,0.405-0.588,0.452
		c-0.049,0.013-0.134,0.014-0.216,0.014h-0.099c-0.107,0-0.226,0.001-0.36,0.014c-0.861,0.081-1.428,0.571-1.928,1.003
		c-0.292,0.252-0.567,0.49-0.867,0.618c-0.317,0.136-0.622,0.168-0.973,0.207c-0.248,0.027-0.505,0.055-0.788,0.122
		c-0.877,0.206-1.553,0.71-2.206,1.199c-0.662,0.493-1.286,0.96-2.075,1.086c-0.08,0.013-0.161,0.019-0.238,0.019
		c-0.438,0-0.821-0.218-1.022-0.583c-0.207-0.376-0.185-0.83,0.059-1.213c0.173-0.274,0.524-0.542,0.896-0.825
		c0.695-0.532,1.483-1.133,1.493-2.096c0.006-0.621-0.216-1.084-0.659-1.376c-0.361-0.237-0.816-0.33-1.256-0.418
		c-0.306-0.062-0.621-0.126-0.886-0.236c-0.198-0.082-0.364-0.208-0.524-0.33c-0.196-0.149-0.383-0.29-0.618-0.348l-0.292-0.073
		l-0.143,0.266c-0.303,0.562-0.303,1.221-0.001,1.806c0.335,0.648,1,1.123,1.692,1.208c0.168,0.021,0.326,0.021,0.464,0.021
		c0.029,0,0.061,0,0.093,0c-0.141,0.133-0.368,0.295-0.485,0.378c-0.128,0.092-0.24,0.171-0.323,0.245
		c-0.592,0.528-0.93,0.911-1.097,1.24c-0.437,0.861-0.4,1.823,0.1,2.637c0.548,0.892,1.534,1.425,2.637,1.425
		c0.328,0,0.659-0.047,0.988-0.141c0.001,0.081-0.002,0.166-0.006,0.258c-0.007,0.161-0.015,0.344,0.006,0.54
		c0.038,0.348,0.176,0.647,0.299,0.911c0.082,0.179,0.176,0.381,0.167,0.477c-0.052,0.159-0.731,0.478-1.405,0.478
		c-0.042,0-0.083-0.001-0.121-0.004l-0.125-0.01l-0.108,0.067c-0.42,0.261-0.527,0.661-0.613,0.982
		c-0.039,0.148-0.076,0.287-0.139,0.394c-0.094,0.161-0.272,0.261-0.479,0.376c-0.005,0.004-0.011,0.007-0.018,0.01
		c-0.008-0.128-0.059-0.252-0.152-0.361c-0.087-0.102-0.191-0.171-0.291-0.234c-0.102-0.064-0.209-0.097-0.317-0.097
		c-0.227,0-0.382,0.135-0.532,0.267l-0.011,0.008c-0.058,0.051-0.152,0.11-0.243,0.167c-0.141,0.089-0.287,0.181-0.393,0.296
		c-0.107,0.117-0.165,0.293-0.168,0.479c-0.035-0.007-0.072-0.01-0.108-0.01c-0.007,0-0.014,0-0.021,0
		c-0.164,0.006-0.472,0.082-0.687,0.525c-0.134,0.275-0.139,0.545-0.142,0.762c-0.001,0.044-0.001,0.087-0.003,0.127
		c-0.009,0.008-0.019,0.017-0.027,0.024c-0.072,0.061-0.262,0.222-0.219,0.489c0.043,0.263,0.295,0.398,0.561,0.505
		c0.083,0.034,0.37,0.144,0.558,0.148h0.014c0.117,0,0.221-0.032,0.306-0.093l0.171,0.023c0.129,0.017,0.258,0.047,0.394,0.082
		c0.214,0.052,0.436,0.106,0.677,0.106c0.183,0,0.353-0.031,0.518-0.095c0.405-0.157,0.591-0.502,0.741-0.779
		c0.08-0.147,0.169-0.313,0.24-0.326c0.039,0,0.121,0.022,0.193,0.043c0.131,0.037,0.295,0.083,0.48,0.083
		c0.036,0,0.072-0.002,0.106-0.005c0.53-0.053,0.941-0.405,1.271-0.688c0.175-0.15,0.341-0.292,0.479-0.353
		c0.133-0.059,0.274-0.087,0.445-0.087c0.202,0,0.419,0.039,0.647,0.081c0.262,0.047,0.532,0.096,0.821,0.096
		c0.106,0,0.211-0.007,0.31-0.021c0.4-0.055,0.645-0.231,0.862-0.387c0.083-0.06,0.161-0.116,0.246-0.164
		c0.088-0.05,0.202-0.087,0.311-0.124c0.144-0.047,0.28-0.092,0.391-0.176c0.252-0.188,0.394-0.501,0.518-0.777
		c0.046-0.102,0.089-0.198,0.134-0.278c0.014-0.025,0.031-0.055,0.049-0.086c0.104-0.177,0.247-0.42,0.263-0.678
		c0.102,0.02,0.209,0.03,0.325,0.03c0.269,0,0.552-0.052,0.825-0.102c0.223-0.041,0.433-0.079,0.626-0.09
		c0.044-0.003,0.09-0.004,0.137-0.004c0.366,0,0.755,0.076,1.132,0.149c0.383,0.075,0.747,0.146,1.1,0.146
		c0.317,0,0.584-0.059,0.816-0.18l0.123-0.063c0.22,0.209,0.493,0.383,0.766,0.551c-0.003,0-0.006,0-0.01,0
		c-0.069-0.001-0.14-0.002-0.209-0.002c-0.332,0-0.671,0.021-0.84,0.284c-0.008,0.014-0.018,0.028-0.026,0.044
		c-0.095-0.063-0.202-0.112-0.326-0.139c-0.151-0.033-0.326-0.05-0.521-0.05c-0.106,0-1.04,0.01-1.296,0.351
		c-0.24,0.319-0.034,0.664,0.146,0.968c0.024,0.04,0.049,0.082,0.074,0.126c0.048,0.082,0.089,0.169,0.128,0.254
		c0.123,0.262,0.274,0.588,0.65,0.612c0.024,0.001,0.05,0.002,0.076,0.002c0.091,0,0.182-0.008,0.263-0.017
		c0.016-0.001,0.033-0.002,0.05-0.004c0.074,0.097,0.142,0.2,0.208,0.3c0.267,0.403,0.598,0.904,1.381,0.904
		c0.026,0,0.053,0,0.081-0.001c0.372-0.016,0.987-0.265,1.638-0.528c0.34-0.137,0.661-0.267,0.919-0.352
		c0.082-0.027,0.244-0.047,0.386-0.065c0.24-0.031,0.465-0.059,0.636-0.141c0.357-0.17,0.79-0.816,1.009-1.29
		c0.011,0.113,0.038,0.226,0.065,0.338c0.017,0.075,0.038,0.16,0.041,0.201c0.025,0.373,0.426,0.633,0.976,0.633
		c0.228,0,0.464-0.045,0.704-0.133c0.121-0.044,0.228-0.085,0.324-0.122c0.411-0.154,0.598-0.224,0.795-0.237
		c0.064-0.004,0.134-0.006,0.212-0.006c0.143,0,0.293,0.007,0.438,0.014c0.147,0.006,0.286,0.013,0.421,0.013
		c0.061,0,0.114-0.001,0.165-0.003c0.4-0.02,0.719-0.304,0.952-0.51c0.047-0.041,0.11-0.098,0.157-0.134
		c0.04,0.034,0.097,0.096,0.142,0.143c0.206,0.222,0.519,0.558,1.129,0.763c0.415,0.14,0.763,0.21,1.034,0.21
		c0.504,0,0.681-0.239,0.74-0.382c0.034-0.081,0.08-0.257-0.055-0.446c0.045,0.003,0.089,0.004,0.131,0.004
		c0.509,0,0.659-0.247,0.703-0.394C49.505,44.875,49.542,44.622,49.249,44.408z M41.115,42.714c-0.046,0.044-0.1,0.09-0.155,0.139
		c-0.215,0.187-0.508,0.441-0.616,0.818c-0.09-0.179-0.198-0.344-0.3-0.5c-0.132-0.202-0.258-0.395-0.319-0.582
		c0.016,0.001,0.032,0.001,0.049,0.001c0.277,0,0.641-0.075,1.054-0.217c0.121-0.042,0.287-0.078,0.454-0.104
		C41.212,42.408,41.15,42.56,41.115,42.714z"/>
	<g>
		<g>
			<path fill-rule="evenodd" clip-rule="evenodd" fill="#FB0045" d="M26.477,65.8h4.372c0,0-0.182-2.063-2.156-2.063
				C26.72,63.736,26.477,65.8,26.477,65.8L26.477,65.8L26.477,65.8z M28.638,61.247c5.889,0,5.646,5.737,5.646,5.737v0.911H26.3
				c0,1.305,1.093,2.429,2.581,2.429c1.487,0,2.246-1.428,2.246-1.428l2.823,1.396c-1.306,1.975-3.066,2.763-5.039,2.763
				c-6.132,0-6.254-5.099-6.254-5.736C22.657,66.68,22.748,61.247,28.638,61.247L28.638,61.247L28.638,61.247z"/>
			<path fill-rule="evenodd" clip-rule="evenodd" fill="#FB0045" d="M41.636,69.837L41.636,69.837c-0.183,0-2.46,0.031-2.46-2.761
				c0-2.794,2.49-2.885,2.49-2.885s2.792,0.091,2.792,2.824C44.458,69.747,41.817,69.837,41.636,69.837L41.636,69.837L41.636,69.837
				z M44.773,54.135v8.417c0,0-1.701-1.305-3.644-1.305c-1.943,0-5.222,1.366-5.222,5.676c0,4.311,2.794,5.95,5.192,5.95
				s3.734-1.577,3.734-1.577v1.4h3.46V54.135H44.773L44.773,54.135z"/>
			<path fill-rule="evenodd" clip-rule="evenodd" fill="#FB0045" d="M67.549,61.823h3.521v6.223c0,0,0.122,2.096,2.096,2.096
				c1.973,0,1.943-2.096,1.943-2.096v-6.192h3.551v6.405c0,0,0.456,5.009-5.404,5.009c-5.858,0-5.706-4.4-5.706-5.189
				C67.549,67.288,67.549,61.823,67.549,61.823L67.549,61.823L67.549,61.823z"/>
			<polygon fill-rule="evenodd" clip-rule="evenodd" fill="#FB0045" points="80.657,54.135 84.134,54.135 84.134,72.696 
				80.657,72.696 80.657,54.135 			"/>
			<polygon fill-rule="evenodd" clip-rule="evenodd" fill="#FB0045" points="86.665,54.135 90.096,54.135 90.096,72.696 
				86.665,72.696 86.665,54.135 			"/>
			<path fill-rule="evenodd" clip-rule="evenodd" fill="#FB0045" d="M60.18,69.596L60.18,69.596h-3.294V57.983h1.761
				c0,0,2.393-0.181,2.393,1.906s-1.903,1.903-1.903,1.903H58.04v3.128c0,0,1.578,0,2.14,0c0.56,0,2.346,0.272,2.346,2.328
				S60.18,69.596,60.18,69.596L60.18,69.596L60.18,69.596z M63.14,63.008c0,0,1.609-1.251,1.609-3.622
				c0-2.372-1.724-4.512-5.392-4.512c-3.669,0-6.146,0-6.146,0l0.001,17.822h7.567c0,0,5.424-0.061,5.424-4.963
				C66.204,64.889,65.1,63.799,63.14,63.008L63.14,63.008L63.14,63.008z"/>
			<path fill-rule="evenodd" clip-rule="evenodd" fill="#FB0045" d="M10.083,54.494v18.202h3.674V57.968h1.73
				c0,0,2.702-0.122,2.702,2.338c0,2.458-2.398,2.398-2.398,2.398h-0.88v4.189l3.674,5.803h4.31l-5.13-7.442
				c0,0,4.219-0.364,4.219-4.948s-3.187-5.812-7.437-5.812C10.297,54.494,10.083,54.494,10.083,54.494L10.083,54.494L10.083,54.494z
				"/>
		</g>
	</g>
	<path fill-rule="evenodd" clip-rule="evenodd" fill="#FB0045" d="M20.092,45.145c0.129-0.142,0.427-0.278,0.605-0.433
		c0.178-0.156,0.258-0.229,0.398-0.143c0.139,0.087,0.316,0.204,0.246,0.381c-0.071,0.178-0.512,0.796-0.774,0.834
		c-0.261,0.04-0.475-0.103-0.52-0.262C20.001,45.365,20.037,45.206,20.092,45.145z M19.171,46.047
		c-0.124,0.252-0.094,0.511-0.107,0.763c-0.013,0.253-0.269,0.288-0.249,0.408c0.019,0.119,0.592,0.324,0.744,0.327
		c0.151,0.003,0.132-0.11,0.184-0.395c0.051-0.284,0.275-0.743,0.269-0.867c-0.01-0.187-0.285-0.55-0.489-0.543
		C19.436,45.744,19.293,45.795,19.171,46.047z M39.44,42.043c-0.007-0.2,0.265-0.421,0.426-1.055c0.126-0.494,0.084-1.209,0-1.196
		c-0.084,0.013-0.188,0.33-0.246,0.679c-0.058,0.349-0.342,1.125-0.588,1.301c-0.344,0.246-0.822,0.142-1.164,0.466
		c0.024,0.417,0.295,0.754,0.504,1.125c0.385,0.683,0.783,0.905,0.31,2.174c0.359-0.21,0.693-0.663,0.699-1.048
		c0.008-0.621-0.862-1.439-0.932-2.057c0.249-0.19,0.6-0.07,0.854,0.04c0.077,0.732,0.921,1.269,0.854,2.096
		c-0.019,0.236-0.577,1.227-0.931,1.396c-0.209,0.1-0.718,0.103-0.976,0.188c-0.747,0.246-1.974,0.84-2.453,0.86
		c-0.855,0.037-0.977-0.646-1.455-1.184c-0.054-0.063-0.356,0.013-0.562,0c-0.208-0.013-0.278-0.35-0.466-0.672
		c-0.188-0.324-0.343-0.537-0.246-0.667c0.097-0.13,0.918-0.265,1.423-0.155c0.652,0.143,0.693,1.354,1.397,1.514
		c0.579,0.132,1.518-0.322,1.591-0.776c0.055-0.345-0.222-0.786-0.427-1.01c-0.455-0.497-1.452-0.827-1.785-1.396
		c-0.162-0.278-0.042-0.468-0.311-0.738c-0.357,0.176,0.056,0.614-0.039,1.009c-0.768,0.401-1.931-0.216-3.027-0.155
		c-0.781,0.044-1.716,0.471-2.135-0.116c-0.19-0.268-0.218-0.883-0.194-1.32c0.02-0.34,0.196-0.708,0-0.932
		c-0.418,0.537-0.25,1.411-0.466,2.096c-0.361,1.152-1.486,1.838-2.872,1.94c-1.374,0.102-2.761,0.225-3.26,1.514
		c0.226-0.062,0.377-0.254,0.542-0.388c0.553-0.444,1.238-0.759,2.213-0.814c1.483-0.085,2.484-0.146,3.221-1.048
		c0.181-0.222,0.248-0.482,0.504-0.738c0.576,0.14,0.184,0.668,0.039,0.932c-0.169,0.309-0.297,0.748-0.543,0.932
		c-0.124,0.092-0.42,0.137-0.66,0.272c-0.333,0.187-0.529,0.443-0.97,0.504c-0.809,0.111-1.573-0.376-2.329-0.04
		c-0.488,0.218-0.964,0.943-1.63,1.01c-0.308,0.03-0.583-0.161-0.815-0.117c-0.496,0.094-0.5,0.913-1.048,1.125
		c-0.473,0.185-0.902-0.051-1.397-0.116c0.053-0.477,0.265-0.933,0.466-1.262c0.567,0.008,0.59-0.416,0.938-0.744
		c0.334-0.315,0.834-0.406,1.081-0.827c0.24-0.411,0.161-0.957,0.621-1.242c0.712,0.055,1.884-0.304,1.941-0.814
		c0.043-0.396-0.403-0.893-0.466-1.475c-0.049-0.448,0.081-0.835-0.091-1.269c-2.548,1.048-4.696-1.215-3.674-3.233
		c0.18-0.355,0.632-0.789,1.01-1.125c0.261-0.233,1.091-0.694,1.048-1.048c-0.044-0.359-0.514-0.211-1.01-0.272
		c-1.051-0.129-1.987-1.349-1.397-2.445c0.317,0.079,0.602,0.459,1.087,0.66c1.07,0.444,2.576,0.164,2.562,1.669
		c-0.012,1.241-1.771,1.835-2.329,2.716c-0.724,1.144,0.152,2.598,1.591,2.368c1.698-0.272,2.646-1.899,4.308-2.29
		c0.659-0.154,1.213-0.088,1.825-0.349c0.903-0.387,1.462-1.479,2.678-1.591c0.319-0.03,0.552,0.009,0.737-0.04
		c0.406-0.106,0.74-0.571,1.086-0.854c0.674-0.549,1.881-0.756,2.717-1.165c0.858-0.419,1.681-1.263,3.027-0.815
		c1.075,0.358,1.766,1.204,2.522,1.825c0.838,0.687,1.522,1.388,2.173,2.173c0.76,0.917,1.261,1.604,1.436,2.91
		c0.076,0.563,0.218,1.163,0.389,1.786c0.144,0.529,0.247,1.188,0.504,1.669c0.103,0.192,0.425,0.374,0.582,0.582
		c0.319,0.426,0.52,1.008,0.854,1.32c0.278,0.26,0.847,0.393,0.796,0.568c-0.052,0.175-0.594,0.13-0.887,0.02
		c-0.718-0.272-1.08-1.042-1.358-1.456c-0.278-0.414-0.744-0.64-0.776-0.575c-0.033,0.064,0.349,0.492,0.517,0.822
		c0.165,0.324,0.244,0.751,0.466,1.048c0.187,0.25,0.413,0.371,0.66,0.505c0.266,0.143,0.667,0.31,0.614,0.433
		c-0.051,0.123-0.349,0.271-1.293-0.046c-0.945-0.317-1.022-0.977-1.436-0.944c-0.24,0.019-0.634,0.641-1.087,0.664
		c-0.354,0.018-0.823-0.043-1.242-0.017c-0.311,0.02-0.563,0.136-1.229,0.381c-0.666,0.246-1.145,0.026-1.158-0.161
		c-0.013-0.188-0.136-0.499-0.104-0.672c0.073-0.392,0.375-0.596,0.336-0.724c-0.056-0.204-0.303,0.12-0.426-0.039
		c-0.095-0.602,0.477-0.866,0.776-1.204c0.047-0.445,0.514-1,0.47-1.054c-0.043-0.053-0.835,0.02-1.246,0.162
		C39.912,42.278,39.447,42.244,39.44,42.043z M39.576,35.213c-0.625-0.042-0.083,0.614,0,0.776c0.228,0.446,0.221,1.072,0.427,1.358
		C40.377,36.749,40.092,35.248,39.576,35.213z M44.912,39.972c-0.16-0.146-0.412-0.718-0.688-0.669
		c-0.276,0.049-0.354,0.587-0.51,0.829c-0.155,0.243-0.262,0.636-0.068,0.607c0.194-0.029,0.35-0.476,0.625-0.479
		c0.195-0.002,0.63,0.45,0.738,0.815c0.064,0.216-0.052,0.5,0.155,0.621c0.325-0.081,0.317-0.612,0.233-1.009
		C45.351,40.464,45.072,40.118,44.912,39.972z M35.252,44.26c-0.124,0.192,0.287,0.189,0.407,0.584
		c0.12,0.395,0.223,0.55,0.366,0.608c0.142,0.058,0.934-0.181,0.867-0.421c-0.068-0.239-0.181-0.281-0.201-0.514
		s-0.117-0.412-0.292-0.375C36.135,44.197,35.371,44.078,35.252,44.26z M44.141,44.226c0.206-0.122,0.296-0.695-0.004-0.718
		c-0.364-0.027-0.914,0.545-0.785,0.741C43.453,44.405,43.959,44.333,44.141,44.226z"/>
	<path fill="#FFFFFF" d="M80.726,46.712c-0.009-0.04-0.012-0.132-0.013-0.194c-0.003-0.1-0.007-0.213-0.027-0.329
		c-0.073-0.395-0.488-0.784-0.839-0.784c-0.005,0-0.01,0-0.016,0.001c0-0.078-0.015-0.152-0.046-0.221
		c-0.062-0.141-0.24-0.339-0.526-0.59c-0.462-0.404-0.621-0.423-0.698-0.433c-0.023-0.002-0.046-0.004-0.069-0.004
		c-0.257,0-0.497,0.159-0.624,0.295c-0.092,0.098-0.15,0.205-0.175,0.316c-0.08-0.056-0.154-0.114-0.227-0.191
		c-0.045-0.077-0.106-0.338-0.149-0.512c-0.104-0.438-0.193-0.815-0.434-1.006c-0.209-0.166-0.478-0.182-0.736-0.196
		c-0.348-0.02-0.565-0.044-0.69-0.225c-0.041-0.06-0.04-0.097,0.067-0.323c0.019-0.042,0.039-0.085,0.059-0.13
		c0.099-0.236,0.251-0.756,0.144-1.592c-0.011-0.094-0.034-0.179-0.059-0.254c0.229,0.062,0.478,0.093,0.736,0.093
		c0.445,0,0.912-0.096,1.314-0.269l0.008-0.003l0.008-0.004c0.932-0.453,1.511-1.368,1.475-2.331v-0.011l-0.001-0.011
		c-0.101-1.046-0.721-2.056-1.847-3.001c-0.017-0.014-0.033-0.029-0.05-0.043c-0.022-0.018-0.044-0.038-0.067-0.058
		c0.319-0.041,0.781-0.158,1.161-0.42c0.713-0.493,1.04-1.36,0.876-2.319l-0.005-0.028l-0.01-0.028l-0.004-0.013
		c-0.11-0.373-0.359-0.429-0.498-0.429c-0.046,0-0.091,0.006-0.138,0.019c-0.16,0.043-0.281,0.153-0.388,0.25
		c-0.044,0.039-0.098,0.087-0.126,0.104l-0.004,0.002c-0.165,0.097-0.387,0.143-0.623,0.191c-0.246,0.052-0.5,0.104-0.744,0.222
		c-0.748,0.324-1.46,0.72-1.61,1.416c-0.085,0.395-0.022,0.813,0.174,1.179l0.006,0.011l0.008,0.012
		c0.28,0.443,0.667,0.808,1.041,1.161c0.538,0.507,1.046,0.987,1.16,1.624c0.019,0.108,0.067,0.427-0.428,0.794
		c-0.177,0.104-0.388,0.157-0.624,0.157c-0.308,0-0.642-0.088-0.943-0.25l-0.011-0.004c-0.437-0.219-0.849-0.495-1.286-0.787
		c-0.656-0.439-1.335-0.893-2.113-1.145c-0.35-0.155-0.717-0.229-1.072-0.301c-0.466-0.094-0.907-0.184-1.241-0.446l-0.013-0.01
		l-0.014-0.009c-0.132-0.086-0.26-0.179-0.396-0.277c-0.389-0.281-0.791-0.573-1.282-0.701c-0.192-0.064-0.382-0.097-0.565-0.128
		c-0.204-0.034-0.398-0.067-0.554-0.141c-0.33-0.292-0.767-0.65-1.274-0.903c-0.639-0.32-1.336-0.488-2.055-0.645
		c-0.106-0.027-0.195-0.129-0.33-0.292c-0.109-0.134-0.234-0.285-0.405-0.404c-0.677-0.534-1.308-0.783-1.985-0.783
		c-0.073,0-0.147,0.003-0.222,0.01c-0.446,0.031-0.756,0.299-1.028,0.536l-0.002,0.003c-0.638,0.558-1.329,1.058-1.997,1.542
		c-1.02,0.738-2.072,1.5-2.984,2.496c-1.045,1.082-1.381,2.406-1.705,3.688l-0.019,0.072c-0.16,0.632-0.648,2.557-0.956,3.115
		c-0.241,0.439-0.604,1.056-0.953,1.325c-0.101,0.078-0.193,0.142-0.273,0.199c-0.26,0.182-0.483,0.339-0.517,0.639
		c-0.015,0.132,0.027,0.261,0.117,0.362c0.124,0.138,0.318,0.205,0.596,0.205c0.11,0,0.226-0.011,0.343-0.031
		c-0.037,0.087-0.056,0.179-0.048,0.282c0.008,0.109,0.08,0.466,0.679,0.466c0.376,0,0.983-0.15,1.453-0.574
		c0.099-0.089,0.189-0.172,0.271-0.249c0.173-0.158,0.364-0.334,0.475-0.411c0.059,0.042,0.122,0.101,0.188,0.162
		c0.171,0.157,0.385,0.354,0.69,0.417l0.065,0.013l0.066-0.009c0.315-0.044,0.6-0.08,0.882-0.08c0.062,0,0.121,0.002,0.18,0.005
		c0.299,0.093,0.592,0.203,0.9,0.319c0.23,0.087,0.468,0.176,0.708,0.258l0.066,0.022l0.071-0.003
		c0.526-0.018,0.842-0.512,0.96-0.698l0.017-0.027l0.013-0.03c0.093-0.217,0.08-0.423,0.052-0.593
		c0.037-0.004,0.074-0.011,0.11-0.021l0.058-0.017l0.052-0.034c0.013-0.008,0.024-0.017,0.037-0.026
		c0.032,0.117,0.071,0.245,0.114,0.375l0.033,0.105c0.016,0.047,0.032,0.11,0.05,0.177c0.108,0.395,0.23,0.842,0.59,0.95
		c0.076,0.023,0.159,0.034,0.255,0.034c0.093,0,0.18-0.01,0.258-0.02c0.043-0.005,0.086-0.01,0.116-0.012
		c0.059,0.028,0.081,0.055,0.13,0.114c0.062,0.077,0.148,0.181,0.306,0.267c0.173,0.095,0.498,0.182,0.939,0.295
		c0.145,0.038,0.282,0.073,0.36,0.097c0.055,0.017,0.121,0.039,0.195,0.064c0.421,0.141,0.791,0.257,1.072,0.257
		c0.534,0,1.174-0.319,1.381-1.21c0.305-0.029,0.564-0.19,0.719-0.447c0.034-0.058,0.075-0.117,0.123-0.185
		c0.078-0.113,0.167-0.241,0.266-0.416c0.118-0.21,0.153-0.395,0.104-0.566c-0.062-0.221-0.24-0.319-0.298-0.352
		c-0.069-0.039-0.165-0.091-0.822-0.091c-0.129,0-0.449,0.003-0.659,0.032c-0.1,0.013-0.187,0.039-0.264,0.072
		c-0.081-0.201-0.275-0.332-0.504-0.332c-0.044,0-0.089,0.005-0.132,0.015c-0.043,0.008-0.091,0.012-0.148,0.014
		c0.203-0.095,0.424-0.23,0.614-0.407l0.22,0.038c0.166,0.029,0.34,0.043,0.527,0.043c0.445,0,0.897-0.082,1.335-0.161
		c0.433-0.079,0.842-0.152,1.24-0.152c0.08,0,0.16,0.003,0.236,0.01c0.122,0.01,0.244,0.024,0.36,0.037
		c0.254,0.027,0.516,0.056,0.791,0.056c0.086,0,0.169-0.002,0.251-0.008c0.274-0.012,0.526-0.076,0.743-0.183
		c0.009,0.118,0.031,0.25,0.062,0.399l0.015,0.064c0.105,0.513,0.237,1.152,0.71,1.537c0.488,0.397,1.176,0.871,1.683,0.871
		c0.019,0,0.037,0,0.057-0.002c0.118-0.008,0.245-0.024,0.381-0.042c0.219-0.028,0.468-0.061,0.723-0.061
		c0.15,0,0.285,0.011,0.416,0.034c0.559,0.096,0.903,0.361,1.237,0.618c0.345,0.265,0.7,0.539,1.215,0.539
		c0.408,0,0.588-0.101,0.727-0.208c0.043,0.05,0.1,0.124,0.141,0.179c0.221,0.293,0.555,0.736,1.131,0.785
		c0.173,0.014,0.33,0.022,0.468,0.022c0.248,0,0.507-0.02,0.686-0.129c0.052,0.069,0.122,0.124,0.223,0.156
		c0.053,0.017,0.107,0.025,0.17,0.025c0.196,0,0.452-0.088,0.587-0.141c0.352-0.138,0.498-0.26,0.541-0.451
		C80.99,47.203,80.911,46.948,80.726,46.712z M59.916,42.789c-0.078,0.137-0.159,0.279-0.228,0.386
		c-0.029,0.046-0.185,0.297-0.311,0.578c-0.083-0.166-0.183-0.314-0.275-0.454c-0.115-0.173-0.225-0.336-0.272-0.493l-0.004-0.01
		l-0.004-0.01c-0.041-0.114-0.095-0.22-0.158-0.319c0.085,0.027,0.174,0.048,0.267,0.062l0.009,0.002l0.01,0
		c0.311,0.031,0.662,0.066,1.011,0.066c0.022,0,0.045,0,0.066,0C59.992,42.657,59.956,42.72,59.916,42.789z"/>
	<path fill="#FB0045" d="M78.466,46.145c-0.292-0.201-0.482-0.623-0.712-0.841c-0.169-0.16-0.375-0.246-0.582-0.473
		c-0.207-0.226-0.279-1.268-0.531-1.468c-0.29-0.231-1.112,0.064-1.503-0.505c-0.21-0.304-0.02-0.573,0.086-0.825
		c0.106-0.252,0.204-0.708,0.117-1.391c-0.03-0.231-0.17-0.424-0.128-0.657c0.107-0.201,0.361-0.053,0.52-0.032
		c0.593,0.17,1.291,0.085,1.831-0.147c0.74-0.36,1.289-1.11,1.257-1.968c-0.105-1.111-0.854-2.023-1.712-2.742
		c-0.159-0.138-0.354-0.288-0.413-0.487c-0.068-0.236,0.087-0.29,0.257-0.28c0.169,0.009,0.775-0.054,1.232-0.369
		c0.64-0.442,0.84-1.193,0.713-1.935c-0.022-0.062-0.044-0.205-0.171-0.171c-0.126,0.034-0.273,0.231-0.422,0.316
		c-0.412,0.243-0.968,0.22-1.401,0.432c-0.54,0.233-1.271,0.583-1.394,1.145c-0.07,0.329-0.001,0.658,0.137,0.913
		c0.656,1.036,2.034,1.677,2.256,2.927c0.084,0.507-0.204,0.897-0.596,1.183c-0.593,0.36-1.372,0.242-1.966-0.075
		c-1.143-0.572-2.139-1.524-3.365-1.916c-0.772-0.35-1.726-0.265-2.415-0.805c-0.518-0.338-0.994-0.783-1.576-0.931
		c-0.402-0.138-0.857-0.116-1.228-0.317c-0.382-0.339-0.783-0.656-1.229-0.879c-0.614-0.307-1.291-0.466-1.968-0.613
		c-0.402-0.096-0.551-0.541-0.879-0.763c-0.561-0.445-1.186-0.762-1.947-0.698c-0.318,0.021-0.562,0.232-0.805,0.444
		c-1.62,1.418-3.473,2.393-4.954,4.012c-0.995,1.027-1.307,2.315-1.63,3.588c-0.215,0.849-0.671,2.625-0.991,3.207
		s-0.679,1.154-1.058,1.445s-0.621,0.398-0.64,0.573c-0.02,0.175,0.524,0.184,0.97,0.009c0.446-0.174,0.553-0.562,0.834-0.892
		c0.282-0.33,0.757-1.019,0.893-0.951c0.137,0.068-0.085,0.38-0.311,0.65c-0.388,0.466-0.247,0.573-0.484,0.893
		c-0.369,0.495-0.912,0.773-0.893,1.038c0.013,0.185,0.893,0.165,1.484-0.369c0.592-0.533,0.887-0.854,1.074-0.776
		c0.321,0.133,0.529,0.529,0.889,0.604c0.381-0.053,0.783-0.105,1.187-0.075c0.561,0.17,1.101,0.403,1.662,0.593
		c0.285-0.01,0.497-0.286,0.645-0.518c0.116-0.275-0.053-0.551-0.032-0.815c0.138-0.084,0.297,0.021,0.445-0.021
		c0.062-0.042,0.116-0.116,0.116-0.19c-0.105-0.487-0.539-0.847-0.677-1.302c-0.212-0.583-0.901-0.932-1.026-1.557
		c0.03-0.042,0.083-0.106,0.137-0.063c0.455,0.328,0.857,0.761,1.419,0.846c0.423,0.042,0.857,0.085,1.279,0.053
		c0.064-0.021,0.117-0.096,0.096-0.169c-0.179-0.381-0.356-0.761-0.455-1.175c-0.188-0.784-0.233-1.916,0.018-1.935
		c0.252-0.02,0.109,0.808,0.316,1.48c0.208,0.673,0.302,0.915,0.523,1.173c0.248,0.289,0.771,0.535,0.9,0.755
		c0.13,0.22,0.058,0.549-0.155,0.828c-0.214,0.278-0.479,0.673-0.659,0.944c-0.053,0.078-0.149,0.24-0.149,0.343
		s0.026,0.731-0.045,0.718c-0.072-0.014-0.35-0.777-0.233-1.113c0.116-0.337,0.978-1.353,0.887-1.462s-0.512-0.246-0.621-0.239
		c-0.11,0.006-0.439,0.666-0.673,1.035c-0.233,0.369-0.434,0.824-0.421,0.981c0.013,0.157,0.11,0.442,0.194,0.707
		c0.085,0.265,0.188,0.815,0.382,0.874c0.193,0.058,0.497-0.051,0.627,0c0.311,0.123,0.298,0.298,0.512,0.414
		c0.213,0.116,0.957,0.278,1.229,0.362c0.271,0.084,0.847,0.304,1.151,0.304c0.303,0,0.844-0.161,1.01-0.944
		c0.052-0.243,0.122-0.252,0.306-0.261c0.186-0.011,0.35-0.093,0.451-0.262c0.103-0.17,0.232-0.325,0.383-0.592
		c0.15-0.268,0.044-0.34-0.042-0.389c-0.088-0.048-0.918-0.058-1.243-0.014c-0.497,0.067-0.525,0.65-0.737,0.989
		c-0.117,0.211-0.276,0.244-0.52,0.223c-0.509-0.138-1.101-0.148-1.333-0.699c-0.032-0.138-0.057-0.293,0.038-0.399
		c0.412-0.465,0.703-0.893,0.956-0.957c0.252-0.064,0.944-0.349,1.145-0.886c0.201-0.537,0.252-0.531,0.369-0.524
		c0.115,0.007,0.09,0.537-0.117,0.887c1.042,0.181,2.205-0.36,3.307-0.265c0.474,0.041,0.883,0.116,1.348,0.083
		c0.467-0.021,0.929-0.228,1.122-0.698c0.26-0.63-0.12-1.989,0.017-2.076c0.136-0.087,0.428,1.115,0.524,1.95
		c0.062,0.542,0.329,1.156,0.68,1.572c0.41,0.488,1.147,0.98,2.092,0.864s1.663-0.039,2.406,0.523
		c0.744,0.563,0.666,0.725,0.608,0.75c-0.058,0.026-0.805-0.698-1.514-0.924c-0.932-0.298-1.87,0.174-2.795-0.168
		c-0.925-0.343-1.002-0.676-1.346-1.158c-0.306-0.431-0.343-0.731-0.497-0.744c-0.155-0.013-0.194,0.136-0.091,0.634
		c0.104,0.498,0.206,1.067,0.588,1.377c0.382,0.31,1.074,0.809,1.469,0.782c0.395-0.025,0.987-0.171,1.61-0.064
		c1.249,0.213,1.586,1.151,2.388,1.151c0.588,0,0.433-0.24,0.77-0.233s0.569,0.932,1.262,0.99c0.691,0.058,0.925-0.02,0.951-0.084
		c0.025-0.064-0.098-0.88-0.331-1.184C78.924,46.273,78.756,46.345,78.466,46.145z M56.41,44.29c-0.087,0.122-0.437,0.073-0.592,0
		c-0.249-0.117-0.257-0.582-0.18-0.684c0.078-0.102,0.417-0.015,0.588,0.15C56.396,43.921,56.497,44.168,56.41,44.29z
		 M56.653,40.646c-0.024,0.223-0.18,0.282-0.33,0.146c-0.15-0.136-0.127-0.354-0.384-0.358c-0.257-0.005-0.242,0.164-0.494,0.334
		c-0.253,0.169-0.494,0.361-0.567,0.56c-0.072,0.199-0.055,0.609-0.277,0.638c-0.217,0.028-0.286-0.752,0.106-1.208
		c0.394-0.456,0.689-0.611,0.873-0.961c0.185-0.349,0.331-0.358,0.476-0.252C56.202,39.652,56.677,40.423,56.653,40.646z
		 M60.981,34.651l-0.045,0.09l-0.051,0.08c0,0-0.334,0.31-0.334,0.31l-0.357,0.334c-0.269,0.26-0.456,0.48-0.591,0.692
		c-0.114,0.155-0.2,0.337-0.282,0.513c-0.026,0.052-0.09,0.053-0.125,0.042c0,0-0.01-0.003-0.02-0.006
		c-0.004-0.01-0.006-0.02-0.006-0.02c-0.022-0.067-0.033-0.138-0.033-0.216c0-0.059,0.006-0.122,0.018-0.19l0.066-0.264l0.034-0.119
		c0.203-0.54,0.656-1.104,1.245-1.544c0.074-0.048,0.214-0.082,0.322-0.049c0.064,0.02,0.11,0.063,0.138,0.126
		c0.025,0.043,0.038,0.086,0.038,0.13C60.999,34.59,60.993,34.621,60.981,34.651l0.025,0.009
		C60.994,34.656,60.981,34.651,60.981,34.651z M80.565,47.327c-0.02,0.087-0.649,0.33-0.801,0.281
		c-0.119-0.039-0.082-0.49-0.217-0.834c-0.137-0.344-0.229-0.558-0.073-0.732c0.155-0.175,0.218-0.238,0.363-0.247
		c0.146-0.01,0.423,0.228,0.467,0.465c0.042,0.238-0.016,0.529,0.106,0.679C80.531,47.089,80.586,47.239,80.565,47.327z
		 M63.887,44.413c-0.045,0.315-0.146,0.629-0.259,0.921c-0.102,0.202-0.383,0.134-0.573,0.112c-0.202-0.079-0.518-0.101-0.551-0.382
		c-0.033-0.27,0.09-0.517,0.225-0.719c0.304-0.045,0.651,0.022,0.955-0.034C63.773,44.29,63.863,44.323,63.887,44.413z
		 M78.862,45.852c-0.344-0.048-0.785-0.805-0.795-0.956c-0.012-0.169,0.286-0.369,0.445-0.349c0.161,0.019,0.84,0.621,0.918,0.795
		C79.508,45.517,79.207,45.9,78.862,45.852z"/>
</g>
</svg>
