<?xml version="1.0" encoding="utf-8"?>
<!-- Generator: Adobe Illustrator 16.0.0, SVG Export Plug-In . SVG Version: 6.00 Build 0)  -->
<!DOCTYPE svg PUBLIC "-//W3C//DTD SVG 1.1//EN" "http://www.w3.org/Graphics/SVG/1.1/DTD/svg11.dtd">
<svg version="1.1" id="Layer_1" xmlns="http://www.w3.org/2000/svg" xmlns:xlink="http://www.w3.org/1999/xlink" x="0px" y="0px"
	 width="100px" height="100px" viewBox="0 0 100 100" enable-background="new 0 0 100 100" xml:space="preserve">
<g>
	<path fill="#007654" d="M2.973,49.473c0-25.993,21.073-47.068,47.07-47.068c25.996,0,47.068,21.075,47.068,47.068
		c0,25.998-21.072,47.07-47.068,47.07C24.045,96.543,2.973,75.471,2.973,49.473"/>
	<path fill="#FFFFFF" d="M4.361,49.473c0-25.227,20.452-45.679,45.682-45.679c25.229,0,45.682,20.453,45.682,45.679
		c0,25.229-20.453,45.683-45.682,45.683C24.812,95.155,4.361,74.702,4.361,49.473"/>
	<path fill="#007654" d="M5.848,49.473c0-24.405,19.786-44.19,44.195-44.19c24.406,0,44.193,19.785,44.193,44.19
		c0,24.408-19.787,44.194-44.193,44.194C25.634,93.667,5.848,73.881,5.848,49.473"/>
	<path fill="#FFFFFF" d="M22.725,49.287c0-15.032,12.185-27.216,27.215-27.216c15.03,0,27.213,12.184,27.213,27.216
		C77.153,64.315,64.97,76.5,49.94,76.5C34.91,76.5,22.725,64.315,22.725,49.287"/>
	<path fill="#FFFFFF" d="M54.243,9.174c0.745,0.668,0.956,1.548,0.918,2.524c-0.211,0.689-0.593,1.357-1.206,1.837
		c0.747,0.554,1.494,1.129,1.607,2.123c0.212,0.976-0.076,1.855-0.632,2.583c-1.165,1.319-3.021,0.976-4.705,1.031l-4.447,0.117
		l-0.03-0.404L45.292,8.886l-0.02-0.22C48.199,8.647,51.641,7.89,54.243,9.174"/>
	<path fill="#FFFFFF" d="M62.527,10.598c-0.786,2.267-1.817,4.505-2.375,6.896c-0.056,0.594,0.297,1.206,0.978,1.377
		c0.47,0.259,1.138,0.307,1.49,0c1.513-2.123,2.229-4.763,3.178-7.145c1.203,0.422,2.143,1.023,3.31,1.464
		c-1.245,2.641-2.009,5.749-3.731,7.919c-1.243,1.09-3.213,0.822-4.705,0.458c-1.702-0.611-3.557-1.702-4.074-3.614
		c-0.4-1.311,1.417-5.806,2.409-8.492L62.527,10.598"/>
	<path fill="#FFFFFF" d="M34.962,23.176l-2.526,1.662c-0.942-0.497-1.493-0.832-2.181-1.146l-2.796,2.353
		c0.288,0.689,0.654,1.53,0.96,2.295l-2.497,2.791l-0.201-0.439l-4.419-10.5l4.036-3.473l0.325,0.202
		c3.167,1.933,6.422,4.213,9.629,6.038L34.962,23.176"/>
	<path fill="#FFFFFF" d="M35.592,22.792c-1.326-3.232-2.949-7.01-4.15-10.042c3.042-1.224,7.442-4.236,10.157-1.433
		c0.688,0.765,0.784,1.835,0.802,2.811c-0.17,0.631-0.326,1.263-0.745,1.78c0.907,1.118,2.592,2.385,3.76,3.495l-0.145,0.049
		l-3.442,0.759c-1.225-0.984-1.918-1.679-2.983-2.41c-0.46,0.056-0.775,0.326-1.207,0.516l1.186,2.717L35.592,22.792"/>
	<path fill="#007654" d="M51.259,10.952c0.268,0.286,0.212,0.88,0.057,1.205c-0.496,0.575-1.414,0.555-2.18,0.458
		c0.056-0.649-0.184-1.281-0.135-1.95C49.651,10.759,50.782,10.434,51.259,10.952"/>
	<path fill="#007654" d="M38.635,13.59c0.189,0.479,0.2,1.257-0.208,1.541l-1.893,0.803c-0.473-0.869-0.673-1.464-0.999-2.17
		C36.416,13.439,37.926,12.119,38.635,13.59"/>
	<path fill="#007654" d="M51.89,15.312c0.152,0.67-0.152,1.359-0.804,1.494c-0.612,0.095-1.069,0.038-1.721,0.057
		c-0.096-0.689-0.152-1.607-0.096-2.182C50.149,14.796,51.471,14.318,51.89,15.312"/>
	<path fill="#FFFFFF" d="M77.713,19.043c0.651,0.803,1.092,1.797,1.379,2.811c-0.805,0.432-1.416,0.919-2.182,1.263
		c-0.19-1.187-0.842-2.391-2.008-2.984c-0.555-0.326-1.378-0.383-2.008-0.172c-0.977,0.362-1.817,1.205-2.181,2.18
		c-0.326,0.938,0.037,1.855,0.574,2.582c0.745,0.842,1.742,1.284,2.867,1.322c-0.507,0.832-0.782,1.357-1.261,2.008
		c-1.876-0.269-3.636-1.301-4.707-3.042c-0.918-1.472-0.975-3.729-0.171-5.279c0.842-1.703,2.507-2.793,4.302-3.042
		C74.481,16.613,76.432,17.475,77.713,19.043"/>
	<path fill="#007654" d="M28.018,22.256c-0.516,0.479-1.09,0.938-1.721,1.377c-0.46-1.09-0.9-2.066-1.377-3.271
		C26.018,20.947,26.983,21.625,28.018,22.256"/>
	<path fill="#FFFFFF" d="M83.452,25.815c-0.879,0.879-2.046,1.626-2.985,2.468c1.494,0.324,3.176,0.267,4.708,0.515
		c0.688,0.997,1.051,1.952,1.722,3.157l-5.625-0.4c-1.242,1.951-2.37,3.939-3.443,5.967c-0.668-0.976-1.184-2.237-1.835-3.327
		c0.727-1.474,1.673-3.033,2.401-4.507c-1.253,0.775-2.353,1.78-3.627,2.583l-1.986-2.668c2.677-2.295,5.565-4.342,8.378-6.425
		l0.226-0.082L83.452,25.815"/>
	<path fill="#FFFFFF" d="M20.309,25.107c-0.507,1.052-1.177,1.77-1.644,2.773l6.542,4.303c-0.345,0.976-1.09,1.933-1.723,2.869
		l-6.713-4.189c-0.602,0.794-1.034,1.607-1.637,2.622c-0.879-0.583-1.502-0.966-2.209-1.471c1.666-2.777,3.244-5.376,5.079-8.257
		L20.309,25.107"/>
	<path fill="#231F20" d="M38.713,50.691c0.007,0.446-0.029,0.896-0.138,1.349c-1.014,2.047-2.658,3.845-2.924,6.199
		c-1.167,0.744-2.125,2.046-3.788,1.606c-0.058,0.439,0.076,1.106,0.229,1.604c-1.319-0.056-2.219,0.918-3.329,1.378
		c-0.592-0.189-0.745-0.957-0.974-1.491c1.299-0.439,2.236-1.74,3.729-1.72c0.172-0.48-0.097-0.92-0.172-1.378
		c-1.856-0.824-4.802,4.073-5.049-0.173c1.855-0.115,3.041-1.836,4.878-2.009l0.056-1.377c-2.085-0.212-3.424,1.932-5.508,1.721
		l-0.46-1.835c2.41,0.151,3.846-2.009,6.141-2.125c0.305-0.401,0.343-0.995,0.402-1.549c-2.506-0.325-4.227,2.449-6.885,1.606
		c0,0-0.091-1.156-0.141-1.808H38.713"/>
	<path fill="#231F20" d="M41.652,50.691c0.084,1.019-0.164,2.036-1.125,3.072c-1.377,1.624-2.773,3.671-1.779,5.854
		c1.053,2.407,4.361,4.282,2.926,7.285c-0.783,1.895-2.659,3.33-2.582,5.567c-0.497-0.211-1.013-0.422-1.434-0.803
		c0-2.851,4.054-4.63,2.122-7.633c-0.171,0.593-0.209,1.396-0.343,2.065c-0.67,1.74-2.104,3.137-2.641,4.938
		c-0.897-0.347-1.835-1.073-2.582-1.838l1.034-0.633c-0.115-0.383-0.422-0.707-0.689-1.032c-0.67-0.095-1.11,0.345-1.664,0.517
		c-0.479-0.421-0.938-0.804-1.319-1.32c0.343-0.977,3.021-0.171,1.663-1.778c-0.918-0.573-1.835,0.249-2.638,0.632l-1.09-1.378
		c0.937-0.573,1.874-1.378,3.04-1.148c0.287,0.518,0.308,1.28,0.861,1.551c1.971-0.038,3.368-1.53,4.878-2.698
		c-1.053-1.567-1.912-3.729-0.977-5.624c0.749-1.898,2.703-3.496,2.792-5.595H41.652"/>
	<path fill="#231F20" d="M44.456,50.691c0.097,0.876-0.046,1.772-0.658,2.726c-1.242,1.686-2.868,3.462-2.123,5.682
		c0.708,2.238,3.501,3.596,3.329,6.198c-0.019,3.079-3.597,4.992-2.583,8.436l-1.778-0.574c-0.707-3.06,2.543-4.628,2.583-7.459
		c0.459-3.254-3.694-4.46-3.445-7.633c-0.017-2.411,2.105-3.941,3.043-5.969c0.161-0.493,0.214-0.96,0.192-1.406H44.456"/>
	<path fill="#231F20" d="M54.289,50.691c-0.104,0.742-0.016,1.514,0.413,2.325c1.244,1.968,3.426,4.055,2.064,6.601
		c-1.433,2.102-3.824,4.15-2.869,6.884c1.053,2.392,3.253,4.667,2.066,7.634l-1.778,0.4c1.415-2.89-0.707-5.756-1.95-8.263
		c-1.512-3.597,3.251-5.32,3.327-8.608c-0.018-2.122-2.275-3.328-2.753-5.278c-0.976-0.824-1.99,0.325-3.158,0.113
		c-0.86,0.173-2.18-1.187-2.696,0.287c-0.613,2.161-3.407,3.749-2.181,6.312c1.167,2.275,3.978,3.939,3.04,6.888
		c-0.841,2.753-3.614,5.375-1.894,8.549c-0.708-0.229-2.028,0.211-2.009-0.918c-1.089-3.845,3.559-6.083,2.123-9.927
		c-0.667-2.354-3.711-3.655-3.041-6.486c0.495-2.33,3.106-3.959,2.74-6.513H54.289"/>
	<path fill="#231F20" d="M57.055,50.691c-0.037,0.654,0.096,1.305,0.517,1.922c1.319,2.144,3.616,4.497,2.296,7.29
		c-1.491,2.236-4.093,4.514-2.641,7.46c1.053,1.759,2.68,3.518,2.24,5.682l-1.723,0.572c1.146-4.035-4.477-6.408-2.124-10.444
		c1.454-2.161,4.056-4.189,2.583-7.06c-0.879-1.777-2.697-2.829-2.641-5.05l0.062-0.372H57.055"/>
	<path fill="#231F20" d="M59.903,50.691c-0.003,0.542,0.111,1.087,0.423,1.636c1.243,2.239,3.481,4.361,2.641,7.172
		c-0.232,0.862-0.918,1.533-1.091,2.411c1.455,1.206,2.831,2.562,4.763,2.64c0.688-0.439,0.306-2.391,1.722-1.492l2.065,1.035
		c-0.152,0.554-0.611,1.053-1.031,1.434c-0.785-0.381-1.549-0.841-2.526-0.805c-0.289,0.307-0.537,0.651-0.516,1.092
		c0.688,0.112,1.317,0.4,1.893,0.803c-0.267,0.574-0.784,0.937-1.263,1.378l-1.606-0.575c-0.267,0.384-0.824,0.785-0.63,1.205
		c0.363,0.155,0.766,0.364,1.032,0.632c-0.709,0.766-1.606,1.261-2.469,1.781c-0.744-2.43-3.195-4.135-2.983-6.944l-0.114-0.115
		c-0.575,0.649-0.382,1.684-0.345,2.523c0.688,1.76,2.334,3.12,2.583,5.051c-0.287,0.496-0.938,0.593-1.436,0.803
		c0.058-3.48-5.222-6.118-1.835-9.64c1.128-1.725,3.021-3.367,2.351-5.741c-0.688-2.29-3.125-3.713-3.104-6.282H59.903"/>
	<path fill="#231F20" d="M75.19,50.691c0.02,0.647,0.079,1.203-0.175,1.866c-2.619,0.746-4.341-2.027-6.884-1.608l0.285,1.437
		c2.353,0.076,3.827,2.332,6.255,2.234c-0.344,0.69,0.155,2.508-1.375,1.781c-1.588-0.382-2.736-1.781-4.478-1.781
		c-0.21,0.386-0.076,0.922-0.113,1.378c1.835,0.288,3.155,1.838,4.991,2.126c-0.173,0.631-0.346,1.337-0.861,1.722
		c-1.493-0.363-2.659-1.704-4.248-1.665l-0.285,1.318c1.512,0.038,2.487,1.379,3.845,1.779c0.037,0.557-0.459,1.053-0.746,1.55
		c-1.203-0.362-2.123-1.396-3.499-1.319c-0.021-0.519,0.285-1.109,0.17-1.663c-1.548,0.459-2.582-0.976-3.728-1.839
		c-0.034-2.819-3.003-4.672-3.16-7.315H75.19"/>
	<path fill="#231F20" d="M24.779,50.691c-0.018-0.254-0.032-0.432-0.032-0.432c2.372,0.92,4.456-0.783,6.484-1.661
		c0.515-0.156,1.319,0.114,1.55-0.46c-0.021-0.44,0.783-0.957,0.114-1.263c-2.966-0.402-4.936,3.175-7.976,1.549l-0.231-0.459
		c0.633-8.646,5.51-17.003,13.601-21.117c7.23-4.133,18.326-3.787,25.135,1.033c3.616,2.219,7.077,5.873,8.954,9.584
		c1.796,3.251,2.619,6.903,2.867,10.788c-3.139,2.372-5.243-2.236-8.437-1.205c0.173,0.499,0.269,1.014,0.634,1.436
		c2.83-0.02,4.781,2.946,7.745,1.776l0.002,0.432H61.185c-0.029-0.527,0.051-1.088,0.289-1.692c0.977-2.256,0.67-5.186-0.401-7.29
		c-0.324-0.554-0.898-0.993-1.436-1.319c0.785,1.666,1.741,3.636,1.263,5.682c-0.056,1.58-0.985,3.097-0.996,4.619h-1.478l0.007-0.2
		c0.554-2.679,2.238-5.529,0.861-8.379c-0.384-1.146-1.243-2.448-2.41-2.926c1.739,1.99,2.429,5.241,1.434,7.92
		c-0.503,1.065-1.194,2.333-1.263,3.585h-1.431c0.593-3.15,2.99-6.13,1.315-9.498c-0.439-0.994-1.319-2.008-2.293-2.583l-0.06,0.059
		c1.951,1.894,2.544,5.013,1.492,7.517c-0.492,1.469-1.57,2.929-1.79,4.504h-8.554c-0.03-0.213-0.082-0.433-0.156-0.659
		c-0.976-2.755-2.967-5.509-1.781-8.723c0.326-0.919,0.977-1.704,1.549-2.524c-1.895,1.013-2.85,3.157-2.812,5.337
		c-0.082,2.37,1.671,4.401,1.92,6.57h-1.44c-0.114-2.242-2.134-3.992-1.799-6.513c0.114-1.856,0.744-3.482,1.949-4.877
		c-1.663,0.668-2.352,2.583-2.811,4.188c-0.798,2.577,1.106,4.894,1.297,7.202h-1.548c0.02-0.477-0.056-0.98-0.265-1.521
		c-1.032-2.659-1.396-6.253,0.574-8.606c-1.072,0.287-1.702,1.624-2.066,2.639c-1.185,2.596,0.314,5,0.366,7.489H24.779"/>
	<path fill="#FFFFFF" d="M51.315,28.511l3.101,0.173l-0.059,0.287l-2.294,2.181c0.399,0.977,0.803,1.952,1.204,2.926
		c1.74-1.012,3.405-2.275,5.51-2.411c-0.192,1.111-1.033,2.278-0.919,3.386c1.3-0.363,2.488-1.166,3.904-1.091
		c-0.882,1.626-2.164,3.253-2.241,5.28c-1.931-0.726-3.921-1.607-6.081-1.95c-4.611-0.786-9.05,0.229-12.856,2.066
		c-0.325-1.932-1.262-3.616-2.409-5.222c0.688-0.229,1.529,0.152,2.238,0.345c0.593,0.17,1.09,0.572,1.722,0.688
		c0.114-1.148-0.555-2.277-1.032-3.329c0.325-0.25,0.841-0.059,1.205,0.058c1.51,0.572,2.868,1.471,4.246,2.295
		c0.707-0.824,0.974-2.01,1.261-3.101l-2.352-2.123v-0.229l3.098-0.173c0.515-0.975,0.86-2.008,1.378-2.983
		C50.57,26.447,50.782,27.575,51.315,28.511"/>
	<path fill="#231F20" d="M52.405,34.767l-0.284,0.287c-1.436-0.152-2.946,0.038-4.306,0.059c-0.153-0.153-0.457-0.383-0.173-0.575
		l2.181-1.665C50.724,33.391,51.68,34.06,52.405,34.767"/>
	<path fill="#FFFFFF" d="M14.13,35.57c-1.187,0.919-2.028,2.259-1.779,3.789c0.135,0.229,0.267,0.573,0.574,0.63
		c0.956,0,1.282-1.031,1.721-1.663c0.517-1.147,1.513-2.392,2.87-2.525c1.167-0.075,2.164,0.23,2.928,1.147
		c1.167,1.397,0.956,3.655,0.402,5.281c-0.518,1.205-1.322,2.427-2.468,3.213l-2.067-1.263c1.128-0.783,2.316-2.066,2.468-3.5
		c0-0.516-0.113-1.205-0.748-1.263c-1.318,0.383-1.453,1.97-2.351,2.87c-0.688,0.708-1.55,1.243-2.641,1.09
		c-1.014-0.059-1.875-0.688-2.467-1.491c-1.129-1.721-0.574-4.248,0.115-5.566c0.421-0.747,0.919-1.493,1.608-2.067
		C12.867,34.576,13.538,35.074,14.13,35.57"/>
	<path fill="#FFFFFF" d="M89.076,37.064c0.995,1.606,1.378,3.729,0.86,5.681l-2.123-0.115c0.288-1.282,0.498-2.889-0.401-3.959
		c-0.267-0.325-0.746-0.518-1.091-0.345c-1.166,1.301,0.099,3.177-0.629,4.648c-0.346,0.671-0.862,1.474-1.608,1.778
		c-1.206,0.46-2.699,0.229-3.617-0.688c-1.796-1.876-2.639-4.784-1.489-7.231h2.237c-0.382,0.958-0.648,2.315-0.285,3.444
		c0.188,0.478,0.419,1.09,0.976,1.263c1.835,0.066,0.592-2.563,1.031-3.789c0.173-0.918,0.67-1.874,1.606-2.296
		C86.264,34.614,88.275,35.57,89.076,37.064"/>
	<path fill="#FFFFFF" d="M32.781,40.678c1.855-0.709,4.38-1.932,6.369-0.631c-0.422,0.592-1.242,0.918-1.837,1.434
		c-0.974,0.956-2.161,2.122-2.867,3.328c-2.391-0.479-4.305,0.92-6.313,1.723c-0.765,0.152-1.779,0.229-2.41-0.287
		c1.894-3.119,4.57-5.988,3.902-10.1c0.211-0.364,0.574-0.057,0.803,0.058C31.902,37.349,32.608,38.937,32.781,40.678"/>
	<path fill="#FFFFFF" d="M70.541,36.604c-0.745,3.902,1.931,6.657,3.729,9.641c-2.064,1.378-4.018-0.748-5.968-1.264
		c-0.859-0.132-1.873-0.248-2.698-0.114c-1.185-1.835-2.771-3.558-4.705-4.59c0.115-0.63,0.994-0.671,1.607-0.747
		c1.702-0.171,3.194,0.536,4.592,1.263c0.268-0.63,0.381-1.339,0.571-2.008c0.462-1.128,1.362-2.278,2.528-2.755
		C70.445,36.068,70.618,36.336,70.541,36.604"/>
	<path fill="#FFFFFF" d="M54.587,40.163c0.06,0.325,0.382,0.611,0.173,0.976c-1.13-0.346-2.41-0.155-3.501,0.285
		c-0.976,0.727-0.822,2.221-0.574,3.271l0.288,0.231c0.478-0.116,0.498-0.727,0.917-0.861c0.71,0.173,1.685,0.422,2.354,0
		c0.592,0.02,0.574,0.841,0.63,1.263c-0.42,2.22-1.356,4.629-3.614,5.681c-0.938,0.461-2.143,0.153-3.042-0.172
		c-2.219-1.319-3.462-3.94-3.213-6.312c0.172-0.363,0.441-0.651,0.862-0.402c0.897,0.611,1.873-0.478,2.696,0.286
		c0.995-0.44,0.402-1.663,0.402-2.581c-0.803-1.034-2.18-0.882-3.385-0.805c-0.537-0.326,0.038-0.842,0.17-1.205
		c1.301-1.836,3.789-1.874,5.967-1.606C52.827,38.497,54.053,38.976,54.587,40.163"/>
	<path fill="#FFFFFF" d="M47.929,42.801v0.23c-0.649-0.059-1.701-0.709-2.294,0.114c-0.382,0.17-0.44-0.27-0.401-0.517
		c-0.077-0.286,0.095-0.518,0.345-0.574C46.476,41.845,47.491,42.112,47.929,42.801"/>
	<path fill="#FFFFFF" d="M54.76,42.513c-0.019,0.231,0.038,0.499-0.229,0.633c-0.729-0.287-1.742-0.689-2.468-0.114
		c-0.423-0.9,0.746-0.709,1.147-0.976C53.803,42.036,54.491,42.018,54.76,42.513"/>
	<path fill="#231F20" d="M51.086,46.187c-0.343,0.726-1.453,0.268-2.066,0.401c-0.209-0.077-0.076-0.305-0.115-0.458
		C49.518,45.708,50.608,45.652,51.086,46.187"/>
	<path fill="#231F20" d="M52.004,47.795c-0.457,0.688-1.146,1.547-2.064,1.492c-1.035,0.076-1.263-0.766-2.011-1.264l-0.056-0.346
		C49.251,47.889,50.762,47.623,52.004,47.795"/>
	<path fill="#FFFFFF" d="M16.253,56.746c1.159-0.006,2.271,0.038,3.468,0.01l-2.663,2.228c0.257,0.937,0.479,2.014,0.803,3.271
		l-2.641-1.836c-1.11,0.507-1.779,1.129-2.925,1.721l0.917-3.156c-0.872-0.713-1.846-1.39-2.669-2.117
		c1.202-0.029,2.253,0.018,3.414-0.005c0.537-1.004,0.775-2.154,1.263-3.157L16.253,56.746"/>
	<path fill="#FFFFFF" d="M29.853,71.838c0.231,0.556,0.564,0.994,0.706,1.825c-0.611,0.385-1.384,0.7-2.083,1.045
		c-0.17-1.263-1.281-2.488-2.524-2.813c-1.032-0.257-2.161,0.231-2.926,1.15c-0.632,0.743-0.824,1.816-0.632,2.754
		c0.498,1.298,1.875,2.279,3.271,2.279l0.402,0.013c-0.381,0.92-0.631,1.38-1.032,2.07c-2.315-0.078-4.648-1.437-5.51-3.676
		c-0.745-1.815-0.419-4.17,0.748-5.682c1.416-1.797,3.673-2.294,5.854-1.834C27.596,69.371,28.974,70.48,29.853,71.838"/>
	<path fill="#FFFFFF" d="M74.441,70.635l0.145,0.142l-3.442,3.205l1.147,1.386c0.975-0.766,2.027-1.579,3.07-2.553
		c0.536,0.45,0.968,0.974,1.473,1.569c-1.032,0.983-2.104,1.653-3.002,2.592c0.383,0.479,0.678,1.022,1.262,1.597l3.711-3.061
		l1.587,1.635c-2.104,1.999-4.398,4.057-6.58,5.652l-6.484-8.379c2.067-1.723,3.806-3.289,5.624-5.107
		C73.506,69.678,73.909,70.154,74.441,70.635"/>
	<path fill="#FFFFFF" d="M37.945,77.692c1.167,1.491,1.186,3.805,0.458,5.508c-0.811,1.73-2.37,2.832-4.074,3.214
		c-2.063,0.325-4.016-0.344-5.508-1.777c-1.319-1.454-2.046-3.54-1.377-5.566c0.593-2.2,2.735-3.807,4.936-4.074
		C34.654,74.861,36.759,75.913,37.945,77.692"/>
	<path fill="#007654" d="M35.536,79.07c0.648,1.511-0.097,3.002-1.149,4.074c-0.668,0.535-1.544,0.871-2.424,0.546
		c-0.554-0.268-1.238-0.757-1.391-1.351c-0.421-1.53,0.277-2.964,1.348-4.017c0.651-0.536,1.589-0.842,2.409-0.46
		C34.827,78.017,35.382,78.572,35.536,79.07"/>
	<path fill="#FFFFFF" d="M58.376,81.497c-1.609,0.232-3.146,0.423-4.679,0.673c0.154,0.754,0.086,1.26,0.2,1.835
		c1.437-0.028,2.689-0.283,4.028-0.455l0.392,2.452c-1.312,0.241-2.738,0.46-4.114,0.595c0.039,1.108,0.186,2.465,0.169,3.69
		c-1.129,0.172-2.348,0.296-3.514,0.221L50.17,80.044l-0.009-0.218c2.59-0.25,5.221-0.585,7.698-0.987
		C57.965,79.624,58.203,80.53,58.376,81.497"/>
	<path fill="#FFFFFF" d="M67.152,76.795l0.097,0.181l-4.203,2.106l0.713,1.652c1.282-0.489,2.388-0.945,3.663-1.589
		c0.387,0.584,0.653,1.207,0.974,1.918c-1.154,0.617-2.351,1.095-3.609,1.647c0.232,0.565,0.351,0.979,0.762,1.887l4.423-1.897
		l1.064,2.018c-2.581,1.326-5.36,2.655-7.902,3.577l-3.873-9.861c2.466-1.073,4.578-2.091,6.831-3.323
		C66.523,75.614,66.774,76.187,67.152,76.795"/>
	<path fill="#FFFFFF" d="M48.593,82.687c-1.601-0.268-3.128-0.553-4.66-0.783c-0.086,0.767-0.302,1.229-0.366,1.809
		c1.376,0.41,2.646,0.549,3.974,0.792l-0.373,2.461c-1.321-0.172-2.747-0.399-4.101-0.689c-0.301,1.067-0.57,2.407-0.96,3.568
		c-1.129-0.181-2.328-0.433-3.416-0.862l2.524-10.175l0.06-0.212c2.544,0.551,5.15,1.03,7.632,1.402
		C48.77,80.777,48.721,81.715,48.593,82.687"/>
	<path fill="#FFFFFF" d="M85.782,56.762c1.156-0.004,2.19,0.027,3.465,0.012L86.586,59c0.26,0.937,0.479,2.015,0.803,3.272
		l-2.638-1.838c-1.113,0.506-1.78,1.13-2.929,1.723L82.74,59c-0.87-0.711-1.847-1.391-2.666-2.116
		c1.197-0.031,2.252,0.018,3.411-0.007c0.469-1.045,0.804-2.049,1.266-3.157L85.782,56.762"/>
	<path fill="none" d="M97.937,49.847c0,26.964-21.546,48.847-48.092,48.847c-26.548,0-48.094-21.883-48.094-48.847
		C1.75,22.884,23.296,1,49.844,1C76.391,1,97.937,22.884,97.937,49.847z"/>
</g>
</svg>
