<?xml version="1.0" encoding="utf-8"?>
<!-- Generator: Adobe Illustrator 16.0.0, SVG Export Plug-In . SVG Version: 6.00 Build 0)  -->
<!DOCTYPE svg PUBLIC "-//W3C//DTD SVG 1.1//EN" "http://www.w3.org/Graphics/SVG/1.1/DTD/svg11.dtd">
<svg version="1.1" id="Layer_1" xmlns="http://www.w3.org/2000/svg" xmlns:xlink="http://www.w3.org/1999/xlink" x="0px" y="0px"
	 width="100px" height="100px" viewBox="0 0 100 100" enable-background="new 0 0 100 100" xml:space="preserve">
<g>
	<line fill-rule="evenodd" clip-rule="evenodd" fill="#EC202A" x1="100" y1="100" x2="-0.756" y2="100"/>
</g>
<g>
	<path fill="#231F20" d="M17.688,57.974H2.021v-0.482l11.729-11.89h-4.82H4.03l-0.241,2.973H3.066l0.321-3.455h14.702v0.401
		L6.119,57.411h10.846l0.322-3.695h0.803L17.688,57.974L17.688,57.974z M90.395,53.956h-6.508l-2.088,3.535h3.775v0.482h-7.392
		v-0.482h2.812l7.471-12.613h0.402l7.15,12.613h2.731v0.482h-9.722v-0.482h3.294L90.395,53.956L90.395,53.956z M84.208,53.395h5.945
		l-2.892-5.062h-0.081L84.208,53.395L84.208,53.395z M36.166,53.956h-6.507l-2.089,3.455h3.776v0.482h-7.391v-0.482h2.812
		l7.471-12.613h0.402l7.15,12.613h2.731v0.482H34.88v-0.482h3.374L36.166,53.956L36.166,53.956z M29.819,53.395h5.945l-2.892-5.062
		h-0.08L29.819,53.395L29.819,53.395z M54.804,57.411v-11.81h-3.213v-0.482h11.247h4.018c2.169,0,2.731,1.768,2.731,2.892
		c0,1.607-0.402,2.892-2.731,3.375c-0.08,0-0.401,0-0.804,0.08l3.454,6.025h2.732v0.482h-6.187l-3.695-6.508H58.5v6.025h3.214v0.482
		H51.591v-0.482h3.213V57.411z M58.42,45.601v5.302h3.615c0.803,0,1.365-0.08,1.848-0.16c0.562-0.081,1.124-0.402,1.446-0.804
		c0.401-0.402,0.562-1.125,0.562-1.928c0-0.723-0.241-1.285-0.562-1.607c-0.402-0.402-0.804-0.562-1.366-0.643
		c-0.482-0.161-1.205-0.161-2.089-0.161H58.42L58.42,45.601L58.42,45.601z"/>
</g>
</svg>
