<svg width="60" height="60" viewBox="0 0 60 60" fill="none" xmlns="http://www.w3.org/2000/svg">
<path d="M30.108 57.2159C45.0573 57.2159 57.216 45.0546 57.216 30.1066C57.216 15.1599 45.0573 2.99995 30.108 2.99995C15.1613 2.99995 3 15.1599 3 30.1066C3 45.0546 15.1613 57.2159 30.108 57.2159Z" stroke="white" stroke-width="1.826" stroke-linecap="round"/>
<path d="M32.7982 43.4685C33.0128 43.0951 33.1808 42.7618 33.3928 42.4618C33.4595 42.3698 33.6555 42.3165 33.7848 42.3285C34.9768 42.4285 35.6048 41.9125 35.6102 40.7711C35.6115 40.5765 35.5168 40.3351 35.3848 40.1898C34.2928 38.9965 33.1808 37.8245 32.0782 36.6445C31.7728 36.3205 31.7342 35.9831 31.9662 35.7498C32.2542 35.4578 32.6222 35.4911 32.9555 35.8351C34.1835 37.1018 35.4102 38.3738 36.6435 39.6351C37.0702 40.0725 37.9915 40.1311 38.5448 39.7765C39.1035 39.4178 39.3702 38.7511 39.1528 38.1578C39.0742 37.9431 38.9262 37.7418 38.7662 37.5738C37.6155 36.3391 36.4502 35.1138 35.2875 33.8858C35.0342 33.6191 34.8702 33.3405 35.0635 32.9725C35.3435 32.4418 35.8542 32.4045 36.3035 32.8911C37.1315 33.7805 37.9462 34.6818 38.7702 35.5751C39.2022 36.0458 39.6502 36.4991 40.0635 36.9831C40.5688 37.5791 41.2022 37.6498 41.8808 37.4405C42.9542 37.1098 43.6728 35.7378 43.3875 34.5831C43.2635 34.7111 43.1542 34.8205 43.0435 34.9325C42.9942 34.9805 42.9502 35.0271 42.9048 35.0765C42.8222 34.9365 42.7648 34.7698 42.6528 34.6618C39.0248 31.1178 35.3915 27.5805 31.7608 24.0418C31.3008 23.5925 31.0488 23.5805 30.5128 23.9058C28.5115 25.1151 26.5182 26.3391 24.4848 27.4965C23.9622 27.7925 23.3168 27.9045 22.7142 28.0018C22.4728 28.0405 22.1168 27.8845 21.9328 27.6965C21.0342 26.7885 21.0902 25.2765 22.0568 24.4431C22.7635 23.8338 23.4955 23.2498 24.2675 22.7245C26.1368 21.4471 28.0128 20.1751 29.9328 18.9751C30.9982 18.3058 32.2088 17.9165 33.4902 18.1191C34.0542 18.2125 34.6475 18.4378 35.1168 18.7591C36.7875 19.9111 38.5955 20.0898 40.5075 19.6471C40.7795 19.5818 40.9208 19.6085 41.0795 19.8498C43.1702 23.0325 45.2688 26.2085 47.3808 29.3778C47.5595 29.6458 47.5248 29.7911 47.3262 30.0138C46.4235 31.0351 45.5488 32.0831 44.6395 33.1018C44.3942 33.3725 44.3542 33.6351 44.3955 33.9845C44.4648 34.5671 44.5088 35.1645 44.4755 35.7511C44.3875 37.3165 43.4808 38.2991 41.9262 38.5325C41.4315 38.6018 40.9235 38.5898 40.3888 38.6165C40.2182 39.4045 40.0555 40.2205 39.3302 40.7258C38.6408 41.2085 37.8515 41.2911 36.9875 41.1698C36.9208 42.1498 36.5608 42.9511 35.6528 43.3778C34.7475 43.8018 33.8142 43.7298 32.7982 43.4685Z" fill="white"/>
<path d="M28.5664 18.6911C28.2851 18.8885 28.0184 19.0951 27.7291 19.2671C27.6384 19.3218 27.4838 19.3151 27.3731 19.2871C27.2184 19.2458 27.0758 19.1618 26.9251 19.0951C26.2424 18.7791 25.6118 18.8058 24.9544 19.2351C23.8624 19.9431 22.7051 20.5525 21.6251 21.2765C20.5998 21.9631 19.6238 21.9605 18.5998 21.3351C18.4011 21.2138 18.1891 21.1205 17.9344 20.9911C17.6451 21.8218 17.3598 22.6098 17.0958 23.4085C16.3531 25.6698 15.6331 27.9405 14.8731 30.1978C14.6504 30.8685 14.7598 31.3578 15.2918 31.8485C16.2291 32.7071 17.1091 33.6298 18.0411 34.5525C17.7838 34.8525 17.5264 35.1511 17.2438 35.4805C17.1291 35.3831 17.0278 35.3071 16.9344 35.2205C15.8544 34.1818 14.7878 33.1338 13.6918 32.1151C13.3624 31.8111 13.2584 31.4898 13.3771 31.0885C13.7331 29.9111 14.0878 28.7365 14.4691 27.5711C15.3278 24.9565 16.2038 22.3471 17.0771 19.7378C17.3144 19.0218 17.8718 18.8765 18.4278 19.3698C18.7358 19.6445 19.0451 19.9245 19.3758 20.1685C19.7851 20.4645 20.2211 20.4965 20.6638 20.2231C21.4731 19.7285 22.2824 19.2365 23.0971 18.7538C23.4784 18.5271 23.8691 18.3098 24.2624 18.1098C25.7038 17.3858 27.2718 17.5951 28.5664 18.6911Z" fill="white"/>
<path d="M26.4675 42.9373C25.5221 42.9466 24.9835 42.6293 24.6635 41.9893C24.3595 41.3906 24.4488 40.824 24.8995 40.3053C25.8155 39.256 26.7128 38.1866 27.6208 37.1306C28.2261 36.428 29.1128 36.372 29.8275 36.9786C30.5381 37.584 30.6195 38.476 30.0208 39.1853C29.1101 40.2586 28.2075 41.3413 27.2648 42.3866C27.0181 42.664 26.6368 42.8226 26.4675 42.9373Z" fill="white"/>
<path d="M21.1927 38.8826C21.3181 38.6106 21.3914 38.2972 21.5741 38.0732C22.3714 37.1012 23.2021 36.1546 24.0181 35.2012C24.3394 34.8266 24.7421 34.7132 25.2167 34.8119C26.5754 35.0959 27.0501 36.4439 26.1541 37.4839C25.4594 38.2932 24.7674 39.1026 24.0767 39.9119C23.5754 40.4986 23.1141 40.6452 22.4821 40.4266C21.8114 40.1906 21.3141 39.5706 21.1927 38.8826Z" fill="white"/>
<path d="M28.3347 42.9998C28.4294 42.7878 28.5361 42.3798 28.7721 42.0638C29.1921 41.4918 29.6761 40.9678 30.1521 40.4412C30.7614 39.7625 31.7081 39.6985 32.3854 40.2638C33.052 40.8278 33.1627 41.7905 32.6014 42.4945C32.136 43.0838 31.64 43.6585 31.1281 44.2105C30.6601 44.7145 30.0587 44.8398 29.4174 44.6078C28.7694 44.3758 28.4401 43.8758 28.3347 42.9998Z" fill="white"/>
<path d="M21.7708 35.6613C21.6255 35.988 21.5308 36.352 21.3255 36.6333C20.9602 37.1333 20.5362 37.5933 20.1202 38.056C19.5468 38.6946 18.6295 38.74 17.9762 38.172C17.3188 37.608 17.2322 36.696 17.7842 36.0346C18.1695 35.568 18.5655 35.1053 18.9655 34.652C19.4108 34.148 20.0082 33.996 20.6122 34.2146C21.2175 34.4306 21.6362 34.984 21.7708 35.6613Z" fill="white"/>
</svg>
