<svg width="148" height="148" viewBox="0 0 148 148" fill="none" xmlns="http://www.w3.org/2000/svg">
<path d="M73.942 0C33.163 0 0 33.183 0 73.962C0 114.742 33.163 147.925 73.942 147.925C114.722 147.925 147.885 114.741 147.885 73.962C147.885 33.183 114.722 0 73.942 0ZM73.942 141.567C36.667 141.567 6.34601 111.239 6.34601 73.963C6.34601 36.688 36.666 6.361 73.942 6.361C111.218 6.361 141.539 36.688 141.539 73.963C141.538 111.239 111.217 141.567 73.942 141.567Z" fill="#A6A5A4"/>
<path d="M104.262 84.2901C104.037 83.9731 103.694 83.7881 103.31 83.7881H44.547C44.164 83.7881 43.8201 83.9731 43.5961 84.2901C40.8581 88.3761 31.9591 101.731 31.3251 104.547C30.9421 105.697 31.2591 106.506 31.5761 106.967C32.3441 108.039 33.9301 108.502 36.8251 108.502H111.059C113.955 108.502 115.541 108.039 116.308 106.967C116.626 106.506 116.944 105.711 116.559 104.547C115.925 101.731 107.026 88.3761 104.262 84.2901ZM111.059 106.215H36.8251C33.9291 106.215 33.4811 105.697 33.4541 105.645C33.4281 105.618 33.4281 105.487 33.5201 105.235C33.5461 105.169 33.546 105.063 33.586 105.01C33.744 103.965 36.9431 98.6501 40.8851 92.5931H106.987C110.901 98.6501 114.113 103.965 114.299 104.996C114.299 105.076 114.339 105.156 114.365 105.234C114.43 105.486 114.43 105.617 114.43 105.644C114.364 105.698 113.915 106.215 111.059 106.215Z" fill="#A6A5A4"/>
<path d="M78.3317 95.4771H70.0007C69.5247 95.4771 69.1147 95.82 69.1147 96.23V101.215C69.1147 101.639 69.5247 101.983 70.0007 101.983H78.3317C78.8337 101.983 79.2177 101.639 79.2177 101.215V96.23C79.2177 95.82 78.8337 95.4771 78.3317 95.4771Z" fill="#A6A5A4"/>
<path d="M99.4227 39.4241H48.3947C46.0407 39.4241 44.1377 41.3151 44.1377 43.6691V76.9641C44.1377 76.9641 44.1377 76.9641 44.1377 76.9771V81.2081H99.4227H103.694V43.6681C103.693 41.3151 101.777 39.4241 99.4227 39.4241ZM100.414 76.9641H47.1787V42.2011H100.414V76.9641Z" fill="#A6A5A4"/>
</svg>
