<svg width="60" height="60" viewBox="0 0 60 60" fill="none" xmlns="http://www.w3.org/2000/svg">
<path d="M30.108 57.2159C45.0547 57.2159 57.216 45.0559 57.216 30.1079C57.216 15.1599 45.0547 2.99995 30.108 2.99995C15.16 2.99995 3 15.1599 3 30.1079C3 45.0559 15.16 57.2159 30.108 57.2159Z" stroke="white" stroke-width="1.826" stroke-linecap="round"/>
<path d="M32.3438 44.5909C31.7438 44.5909 31.2251 44.1749 31.0944 43.5883L26.3278 22.1416L23.4678 33.3189C23.3198 33.8869 22.8118 34.2843 22.2264 34.2843H16.8544C16.1478 34.2843 15.5718 33.7096 15.5718 33.0029C15.5718 32.2936 16.1478 31.7203 16.8544 31.7203H21.2291L25.1744 16.3109C25.3198 15.7363 25.8411 15.3189 26.4358 15.3469C27.0291 15.3576 27.5384 15.7723 27.6678 16.3509L32.2758 37.0963L34.6304 25.3043C34.7384 24.7656 35.1798 24.3549 35.7264 24.2856C36.2744 24.2149 36.8024 24.5043 37.0411 25.0003L39.8691 30.8683H44.7944C45.5038 30.8683 46.0758 31.4416 46.0758 32.1496C46.0758 32.8576 45.5038 33.4323 44.7944 33.4323H39.0624C38.5704 33.4323 38.1224 33.1496 37.9078 32.7043L36.3958 29.5643L33.6038 43.5576C33.4824 44.1536 32.9651 44.5829 32.3584 44.5909H32.3438Z" fill="white"/>
</svg>
