<svg width="150" height="151" viewBox="0 0 150 151" fill="none" xmlns="http://www.w3.org/2000/svg">
<path d="M75.2928 0.141998C33.9578 0.141998 0.34375 33.77 0.34375 75.104C0.34375 116.437 33.9578 150.066 75.2928 150.066C116.626 150.066 150.24 116.437 150.24 75.104C150.24 33.77 116.626 0.141998 75.2928 0.141998ZM75.2928 143.633C37.5098 143.633 6.77676 112.887 6.77676 75.104C6.77676 37.322 37.5088 6.576 75.2928 6.576C113.075 6.576 143.808 37.322 143.808 75.104C143.808 112.887 113.075 143.633 75.2928 143.633Z" fill="#A6A5A4"/>
<path d="M55.1876 116.037C54.9336 117.619 55.9396 119.133 57.4806 119.521C57.7076 119.587 57.9626 119.615 58.2166 119.615C59.5036 119.615 60.6966 118.797 61.1126 117.525L67.3316 98.867H58.1506L55.1876 116.037Z" fill="#A6A5A4"/>
<path d="M92.2318 98.867H83.0918L89.1768 117.512C89.6578 119.039 91.2688 119.91 92.8098 119.535C94.3638 119.146 95.3558 117.631 95.1018 116.051L92.2318 98.867Z" fill="#A6A5A4"/>
<path d="M110.274 34.627H88.7623V33.648C88.7623 31.96 87.4082 30.592 85.6932 30.592C84.0162 30.592 82.6362 31.959 82.6362 33.648V34.627H67.3983V33.648C67.3983 31.96 66.0172 30.592 64.3412 30.592C62.6262 30.592 61.2733 31.959 61.2733 33.648V34.627H40.3372C38.6352 34.627 37.2812 35.994 37.2812 37.683V91.375C37.2812 93.064 38.6352 94.431 40.3372 94.431H110.274C111.949 94.431 113.329 93.064 113.329 91.375V37.683C113.329 35.995 111.949 34.627 110.274 34.627ZM107.178 88.306H43.4073V40.739H107.178V88.306Z" fill="#A6A5A4"/>
<path d="M93.5201 59.047L83.415 72.49C84.313 72.812 85.0921 73.401 85.6281 74.165L95.7211 60.749C94.8081 60.415 94.0701 59.812 93.5201 59.047Z" fill="#A6A5A4"/>
<path d="M67.626 60.763L77.96 74.206C78.509 73.441 79.287 72.838 80.157 72.517L69.81 59.074C69.302 59.838 68.523 60.428 67.626 60.763Z" fill="#A6A5A4"/>
<path d="M61.6619 58.27L55.7109 63.51C56.4749 64.033 57.0919 64.77 57.4399 65.655L63.4989 60.361C62.6929 59.865 62.0509 59.128 61.6619 58.27Z" fill="#A6A5A4"/>
<path d="M65.9789 53.016C64.1409 53.016 62.627 54.504 62.627 56.353C62.627 56.674 62.7339 56.983 62.7869 57.291C63.0819 58.229 63.7249 58.993 64.6239 59.382C65.0529 59.569 65.4949 59.676 65.9779 59.676C66.2459 59.676 66.4989 59.65 66.7279 59.596C67.6929 59.368 68.4569 58.738 68.9119 57.894C69.1669 57.425 69.3019 56.902 69.3019 56.352C69.3019 54.504 67.8139 53.016 65.9789 53.016Z" fill="#A6A5A4"/>
<path d="M84.7284 75.345C84.6344 75.144 84.5014 74.956 84.3404 74.782C84.3404 74.769 84.3404 74.769 84.3404 74.756C84.1804 74.595 84.0174 74.447 83.8574 74.313C83.8304 74.3 83.8304 74.287 83.7914 74.273C83.6304 74.139 83.4704 74.032 83.2824 73.938C83.2554 73.938 83.2154 73.911 83.1874 73.897C82.9874 73.803 82.7724 73.723 82.5434 73.669C82.3154 73.615 82.0614 73.588 81.8344 73.588C81.3114 73.588 80.8284 73.722 80.4124 73.923C80.3864 73.923 80.3864 73.936 80.3464 73.949C80.1584 74.043 79.9564 74.163 79.7964 74.284C79.7964 74.298 79.7694 74.31 79.7694 74.324C79.5814 74.458 79.4214 74.618 79.2884 74.793C79.1264 74.967 78.9934 75.155 78.8994 75.355C78.8994 75.369 78.8994 75.369 78.8724 75.382C78.6434 75.851 78.4834 76.361 78.4834 76.923C78.4834 78.759 79.9574 80.26 81.8354 80.26C83.6704 80.26 85.1444 78.759 85.1444 76.923C85.1444 76.347 84.9844 75.824 84.7294 75.355C84.7284 75.358 84.7284 75.358 84.7284 75.345Z" fill="#A6A5A4"/>
<path d="M97.3943 53.016C95.5573 53.016 94.0713 54.504 94.0713 56.353C94.0713 56.889 94.2043 57.385 94.4333 57.841C94.8753 58.699 95.6513 59.342 96.5893 59.57C96.8443 59.637 97.1253 59.677 97.3943 59.677C99.2313 59.677 100.746 58.189 100.746 56.353C100.745 54.504 99.2303 53.016 97.3943 53.016Z" fill="#A6A5A4"/>
<path d="M54.5851 64.476C54.1291 64.248 53.6471 64.101 53.0981 64.101C51.2621 64.101 49.7461 65.602 49.7461 67.438C49.7461 69.274 51.2621 70.775 53.0981 70.775C54.9341 70.775 56.4211 69.274 56.4211 67.438C56.4211 67.17 56.3811 66.902 56.3151 66.647C56.1001 65.695 55.4431 64.918 54.5851 64.476Z" fill="#A6A5A4"/>
</svg>
