<svg width="149" height="150" viewBox="0 0 149 150" fill="none" xmlns="http://www.w3.org/2000/svg">
<path d="M74.67 0.758057C33.749 0.758057 0.458008 34.049 0.458008 74.97C0.458008 115.89 33.749 149.182 74.67 149.182C115.604 149.182 148.908 115.89 148.908 74.97C148.908 34.049 115.604 0.758057 74.67 0.758057ZM74.67 142.812C37.265 142.812 6.827 112.374 6.827 74.9691C6.827 37.5651 37.265 7.12604 74.67 7.12604C112.088 7.12604 142.54 37.5641 142.54 74.9691C142.54 112.375 112.088 142.812 74.67 142.812Z" fill="#A6A5A4"/>
<path d="M36.337 90.8389C36.337 90.8259 36.337 90.8259 36.337 90.8259V82.6379H33.59V90.8259C33.59 90.8259 33.59 90.8259 33.59 90.8389C32.409 90.9449 31.52 91.9009 31.52 93.0819L30.472 99.2379C30.472 100.499 31.454 101.508 32.728 101.508H37.199C38.447 101.508 39.469 100.499 39.469 99.2379L38.381 93.0819C38.38 91.8999 37.478 90.9449 36.337 90.8389Z" fill="#A6A5A4"/>
<path d="M124.162 72.621L111.782 43.2831C111.252 42.0101 110.005 41.1741 108.625 41.1741H43.674C42.401 41.1741 41.22 41.8911 40.609 43.0311L25.138 72.7541C24.568 73.8161 24.594 75.1021 25.243 76.1371C25.88 77.1581 26.995 77.795 28.177 77.795H51.45L46.951 96.0001C46.858 96.2661 46.832 96.5591 46.832 96.8361C46.832 104.307 57.288 108.765 74.789 108.765C92.304 108.765 102.76 104.307 102.76 96.8361C102.76 96.5591 102.734 96.2661 102.667 96.0001L98.142 77.795H121.137C121.163 77.795 121.163 77.795 121.163 77.795C123.073 77.795 124.613 76.2441 124.613 74.3461C124.613 73.7231 124.453 73.139 124.162 72.621ZM74.789 101.865C60.737 101.865 54.382 98.6151 53.784 97.0621L58.561 77.7941H91.03L95.806 97.0621C95.236 98.6151 88.854 101.865 74.789 101.865ZM33.882 70.8961L39.786 59.5641H73.395C74.152 59.5641 74.789 58.9411 74.789 58.1841C74.789 57.4281 74.152 56.8041 73.395 56.8041H41.22L45.771 48.074H106.329L115.936 70.8961H33.882Z" fill="#A6A5A4"/>
</svg>
