<svg width="60" height="60" viewBox="0 0 60 60" fill="none" xmlns="http://www.w3.org/2000/svg">
<path d="M30.1093 57.2173C45.0573 57.2173 57.2187 45.0586 57.2187 30.108C57.2187 15.1613 45.0573 2.99996 30.1093 2.99996C15.1613 2.99996 3 15.1613 3 30.108C3 45.0586 15.1613 57.2173 30.1093 57.2173Z" stroke="#21c0fc" stroke-width="1.826" stroke-linecap="round"/>
<path d="M19.5246 26.8481H16.5432V26.0467C16.5432 24.2641 17.1552 23.4027 18.4139 23.4027C18.5406 23.4027 18.6472 23.2974 18.6472 23.1667V21.2001C18.6472 21.0707 18.5406 20.9667 18.4139 20.9667C16.8246 20.9667 15.5512 21.4707 14.6312 22.4614C13.7179 23.4481 13.2539 25.1694 13.2539 27.5761V32.5507C13.2539 32.6814 13.3566 32.7841 13.4872 32.7841H19.5246C19.6539 32.7841 19.7579 32.6814 19.7579 32.5507V27.0801C19.7579 26.9507 19.6539 26.8481 19.5246 26.8481Z" fill="#21c0fc"/>
<path d="M27.6208 26.8481H24.6408V26.0467C24.6408 24.2641 25.2501 23.4027 26.5088 23.4027C26.6394 23.4027 26.7434 23.2974 26.7434 23.1667V21.2001C26.7434 21.0707 26.6394 20.9667 26.5088 20.9667C24.9328 20.9667 23.6648 21.4707 22.7394 22.4614C21.8194 23.4481 21.3514 25.1694 21.3514 27.5761V32.5507C21.3514 32.6814 21.4554 32.7841 21.5848 32.7841H27.6208C27.7514 32.7841 27.8514 32.6814 27.8514 32.5507V27.0801C27.8514 26.9507 27.7514 26.8481 27.6208 26.8481Z" fill="#21c0fc"/>
<path d="M47.4139 27.4334H41.3779C41.2499 27.4334 41.1432 27.5387 41.1432 27.6654V33.1374C41.1432 33.2681 41.2499 33.3721 41.3779 33.3721H44.3592V34.1721C44.3592 35.9507 43.7472 36.8174 42.4859 36.8174C42.3592 36.8174 42.2552 36.9214 42.2552 37.0507V39.0174C42.2552 39.1467 42.3592 39.2521 42.4859 39.2521C44.0752 39.2521 45.3485 38.7467 46.2685 37.7547C47.1832 36.7681 47.6472 35.0481 47.6472 32.6414V27.6654C47.6472 27.5387 47.5419 27.4334 47.4139 27.4334Z" stroke="#21c0fc" stroke-width="0.913" stroke-miterlimit="10"/>
<path d="M38.6366 27.4334H32.5993C32.4726 27.4334 32.366 27.5387 32.366 27.6654V33.1374C32.366 33.2681 32.4726 33.3721 32.5993 33.3721H35.582V34.1721C35.582 35.9507 34.9713 36.8174 33.71 36.8174C33.582 36.8174 33.4793 36.9214 33.4793 37.0507V39.0174C33.4793 39.1467 33.582 39.2521 33.71 39.2521C35.286 39.2521 36.554 38.7467 37.478 37.7547C38.4006 36.7681 38.8673 35.0481 38.8673 32.6414V27.6654C38.8673 27.5387 38.762 27.4334 38.6366 27.4334Z" stroke="#21c0fc" stroke-width="0.913" stroke-miterlimit="10"/>
</svg>
