<svg width="150" height="150" viewBox="0 0 150 150" fill="none" xmlns="http://www.w3.org/2000/svg">
<path d="M74.823 0C33.566 0 0 33.553 0 74.797C0 116.039 33.566 149.592 74.823 149.592C116.066 149.592 149.604 116.039 149.604 74.797C149.605 33.553 116.066 0 74.823 0ZM74.823 143.172C37.111 143.172 6.419 112.494 6.419 74.797C6.419 37.098 37.111 6.41998 74.823 6.41998C112.521 6.41998 143.186 37.098 143.186 74.797C143.187 112.494 112.521 143.172 74.823 143.172Z" fill="#A6A5A4"/>
<path d="M88.035 89.8679H51.941C51.298 89.8679 50.751 90.4019 50.751 91.0579C50.751 91.7119 51.299 92.2469 51.941 92.2469H88.035C88.678 92.2469 89.225 91.7119 89.225 91.0579C89.226 90.4019 88.678 89.8679 88.035 89.8679Z" fill="#A6A5A4"/>
<path d="M88.035 77.6719H51.941C51.298 77.6719 50.751 78.2068 50.751 78.8608C50.751 79.5168 51.299 80.0389 51.941 80.0389H88.035C88.678 80.0389 89.225 79.5178 89.225 78.8608C89.226 78.2068 88.678 77.6719 88.035 77.6719Z" fill="#A6A5A4"/>
<path d="M88.035 65.4739H51.941C51.298 65.4739 50.751 66.0089 50.751 66.6639C50.751 67.3199 51.299 67.8538 51.941 67.8538H88.035C88.678 67.8538 89.225 67.3199 89.225 66.6639C89.226 66.0099 88.678 65.4739 88.035 65.4739Z" fill="#A6A5A4"/>
<path d="M102.398 33.7668H47.113C47.087 33.7668 47.06 33.7668 47.019 33.7668C47.019 33.7668 46.993 33.7668 46.953 33.7668C40.882 33.7668 35.961 38.6888 35.961 44.7458V108.937C35.961 109.753 36.295 110.515 36.869 111.078L45.87 119.73C46.993 120.839 48.825 120.839 49.976 119.73L59.136 110.904L68.616 120.064C69.78 121.173 71.612 121.173 72.735 120.064L82.244 110.904L91.725 120.064C92.313 120.613 93.049 120.894 93.785 120.894C94.56 120.894 95.297 120.613 95.871 120.064L104.456 111.773C105.031 111.211 105.354 110.449 105.354 109.632V55.3369C110.155 54.0539 113.683 49.8009 113.683 44.7449C113.685 38.6889 108.645 33.7668 102.398 33.7668ZM99.443 108.377L93.786 113.807L84.304 104.645C83.155 103.536 81.349 103.536 80.199 104.645L70.678 113.807L61.196 104.645C60.047 103.536 58.214 103.536 57.051 104.645L47.93 113.471L41.912 107.682V44.7458C41.912 41.9648 44.158 39.7048 46.953 39.7048C46.993 39.7048 46.993 39.6909 47.019 39.6909C47.06 39.6909 47.086 39.7048 47.113 39.7048C50.082 39.7048 52.449 41.9648 52.449 44.7458C52.449 47.5288 50.043 49.8019 47.113 49.8019C45.482 49.8019 44.132 51.1269 44.132 52.7579C44.132 54.4029 45.483 55.7269 47.113 55.7269H99.443V108.377V108.377ZM102.398 49.8019H57.117C57.919 48.2779 58.4 46.5658 58.4 44.7458C58.4 42.9278 57.919 41.2168 57.117 39.7048H102.398C105.355 39.7048 107.733 41.9648 107.733 44.7458C107.733 47.5288 105.355 49.8019 102.398 49.8019Z" fill="#A6A5A4"/>
</svg>
