<svg width="150" height="151" viewBox="0 0 150 151" fill="none" xmlns="http://www.w3.org/2000/svg">
<path d="M74.9668 0.165985C33.6348 0.165985 0.00976562 33.791 0.00976562 75.123C0.00976562 116.453 33.6348 150.078 74.9668 150.078C116.297 150.078 149.909 116.453 149.909 75.123C149.909 33.791 116.297 0.165985 74.9668 0.165985ZM74.9668 143.646C37.1868 143.646 6.44377 112.902 6.44377 75.123C6.44377 37.343 37.1868 6.60001 74.9668 6.60001C112.746 6.60001 143.477 37.343 143.477 75.123C143.477 112.902 112.746 143.646 74.9668 143.646Z" fill="#A6A5A4"/>
<path d="M73.8946 35.252C51.8336 35.252 33.8906 53.197 33.8906 75.256C33.8906 97.317 51.8336 115.262 73.8946 115.262C95.9676 115.262 113.899 97.317 113.899 75.256C113.898 53.197 95.9676 35.252 73.8946 35.252ZM104.009 58.839C106.689 63.718 108.201 69.319 108.201 75.256C108.201 94.18 92.8436 109.578 73.8936 109.578C63.8406 109.578 54.7956 105.236 48.5106 98.334C48.7786 97.584 50.5066 92.625 51.6456 90.348C52.8666 87.881 53.2816 87.6 56.0556 85.135C58.7876 82.655 50.5466 81.556 48.6176 79.639C46.7146 77.723 45.7496 77.723 43.5526 75.981C41.9176 74.681 40.9516 80.444 40.5906 83.432C39.9466 80.805 39.5986 78.072 39.5986 75.256C39.5986 67.98 41.8766 61.225 45.7496 55.663C44.6776 59.054 43.6866 63.999 47.9356 62.484C52.6116 60.849 53.0276 58.92 53.0276 58.92L55.7616 54.121C55.7616 54.121 56.1766 60.85 56.7266 61.801C57.2756 62.766 59.4746 65.514 60.3046 61.668C61.8186 54.605 62.0746 52.607 64.6596 52.607C67.2596 52.607 72.6466 50.543 73.1826 56.869C73.7316 63.181 72.6466 59.47 69.2296 61.118C65.7856 62.765 64.9406 68.529 68.1036 69.213C71.2526 69.91 78.4096 72.777 78.4096 72.777L81.9876 76.757L83.0736 81.019C83.0736 81.019 83.7586 85.816 83.7586 86.232C83.7586 86.634 83.7586 90.615 83.7586 90.615C83.7586 90.615 83.8796 99.259 87.0406 97.209C90.1906 95.145 98.8606 81.703 97.0526 76.623C95.2836 71.544 95.1626 70.994 98.4476 69.213C101.73 67.43 104.076 65.233 103.915 62.766C103.82 61.037 104.009 59.979 104.009 58.839Z" fill="#A6A5A4"/>
</svg>
