<svg width="150" height="150" viewBox="0 0 150 150" fill="none" xmlns="http://www.w3.org/2000/svg">
<path d="M75.0548 0.0910034C33.8588 0.0910034 0.342773 33.607 0.342773 74.803C0.342773 116 33.8588 149.515 75.0548 149.515C116.251 149.515 149.752 116 149.752 74.803C149.752 33.606 116.251 0.0910034 75.0548 0.0910034ZM75.0548 143.104C37.3978 143.104 6.75479 112.46 6.75479 74.803C6.75479 37.146 37.3978 6.503 75.0548 6.503C112.712 6.503 143.341 37.146 143.341 74.803C143.341 112.46 112.712 143.104 75.0548 143.104Z" fill="#A6A5A4"/>
<path d="M75.0552 23.668C46.8682 23.668 23.9072 46.604 23.9072 74.803C23.9072 103.002 46.8692 125.95 75.0552 125.95C103.24 125.95 126.19 103.002 126.19 74.803C126.189 46.604 103.239 23.668 75.0552 23.668ZM75.0552 118.911C50.7432 118.911 30.9332 99.128 30.9332 74.803C30.9332 50.478 50.7442 30.694 75.0552 30.694C99.3792 30.694 119.162 50.478 119.162 74.803C119.162 99.128 99.3792 118.911 75.0552 118.911Z" fill="#A6A5A4"/>
<path d="M79.3564 34.982C79.0354 34.982 78.7424 35.075 78.5544 35.249C78.3534 35.422 78.2604 35.61 78.2604 35.836V42.85L73.3444 35.662C73.3184 35.489 73.1844 35.329 72.9964 35.182C72.8364 35.049 72.6094 34.982 72.3144 34.982C71.9944 34.982 71.7404 35.075 71.5534 35.249C71.3254 35.422 71.2324 35.61 71.2324 35.836V46.175C71.2324 46.402 71.3264 46.603 71.5534 46.776C71.7404 46.949 71.9934 47.043 72.3144 47.043C72.6354 47.043 72.9024 46.949 73.0894 46.776C73.2904 46.603 73.3824 46.402 73.3824 46.175V39.27L78.2594 46.376L78.3264 46.47C78.3924 46.643 78.5134 46.777 78.7134 46.885C78.8734 46.991 79.1014 47.045 79.3554 47.045C79.6744 47.045 79.9294 46.951 80.1164 46.778C80.3174 46.605 80.3834 46.404 80.3834 46.177V35.837C80.3834 35.61 80.3184 35.423 80.1164 35.25C79.9314 35.076 79.6764 34.982 79.3564 34.982Z" fill="#A6A5A4"/>
<path d="M47.1493 69.379C46.8683 69.299 46.6013 69.326 46.3483 69.446C46.0943 69.566 45.9603 69.74 45.8933 69.94L44.5173 78.235L42.5283 70.234C42.4343 69.94 42.2993 69.727 42.1393 69.566C41.9793 69.419 41.7253 69.339 41.3783 69.339C40.8303 69.339 40.4693 69.632 40.2823 70.234L38.2923 78.235L36.9163 69.94C36.8503 69.74 36.6893 69.566 36.4623 69.446C36.2083 69.326 35.9413 69.299 35.6603 69.379C35.3403 69.46 35.1133 69.619 34.9523 69.847C34.8183 70.074 34.7933 70.287 34.8593 70.488L37.0093 80.64C37.0753 80.84 37.1973 81.028 37.4233 81.174C37.6503 81.321 37.9033 81.402 38.1973 81.402C38.5183 81.402 38.7723 81.321 38.9593 81.174C39.1873 81.028 39.3193 80.84 39.3863 80.64L41.4043 73.066L43.4223 80.64C43.4883 80.84 43.6223 81.028 43.8503 81.174C44.0633 81.321 44.3303 81.402 44.6113 81.402C44.9053 81.402 45.1593 81.321 45.3853 81.174C45.6133 81.028 45.7333 80.84 45.7993 80.64L47.9903 70.488C48.0433 70.288 47.9903 70.074 47.8553 69.847C47.7243 69.62 47.4703 69.46 47.1493 69.379Z" fill="#A6A5A4"/>
<path d="M113.486 71.463C113.806 71.463 114.059 71.369 114.246 71.196C114.407 71.022 114.501 70.795 114.501 70.501C114.501 70.207 114.407 69.967 114.246 69.793C114.059 69.619 113.807 69.525 113.486 69.525H108.341C107.995 69.525 107.728 69.619 107.539 69.793C107.352 69.967 107.221 70.167 107.221 70.381V80.359C107.221 80.587 107.353 80.774 107.539 80.96C107.727 81.134 107.995 81.214 108.341 81.214H113.486C113.806 81.214 114.059 81.134 114.246 80.96C114.407 80.773 114.501 80.546 114.501 80.266C114.501 79.972 114.407 79.718 114.246 79.544C114.059 79.37 113.807 79.277 113.486 79.277H109.371V76.271H112.136C112.484 76.271 112.739 76.178 112.898 76.004C113.099 75.817 113.193 75.603 113.193 75.323C113.193 75.016 113.099 74.775 112.898 74.588C112.739 74.415 112.484 74.321 112.136 74.321H109.371V71.463H113.486V71.463Z" fill="#A6A5A4"/>
<path d="M78.0075 109.654C77.6195 109.374 77.1655 109.159 76.7255 108.972C76.2445 108.785 75.8165 108.611 75.4435 108.425C75.0155 108.237 74.6945 108.037 74.4415 107.796C74.1875 107.569 74.0525 107.262 74.0525 106.875C74.0525 106.421 74.1875 106.073 74.4675 105.833C74.7615 105.593 75.1215 105.473 75.5355 105.473C76.0445 105.473 76.4585 105.552 76.7775 105.713C77.0725 105.873 77.2985 106.02 77.4595 106.14C77.5935 106.247 77.7135 106.341 77.8735 106.434C78.0345 106.514 78.1935 106.555 78.3945 106.555C78.7425 106.555 78.9685 106.474 79.1025 106.287C79.2615 106.113 79.3155 105.887 79.3155 105.605C79.3155 105.445 79.2225 105.258 79.0615 105.017C78.9015 104.777 78.6745 104.549 78.3535 104.323C78.0735 104.109 77.6855 103.923 77.2325 103.775C76.7515 103.615 76.2435 103.548 75.6295 103.548C75.0145 103.548 74.5065 103.628 74.0515 103.788C73.5715 103.948 73.1845 104.188 72.8635 104.496C72.5425 104.804 72.3145 105.15 72.1545 105.564C71.9685 105.992 71.9015 106.446 71.9015 106.954C71.9015 107.595 72.0355 108.116 72.2895 108.516C72.5425 108.93 72.8635 109.277 73.2915 109.544C73.6645 109.824 74.1195 110.052 74.5725 110.226C75.0135 110.413 75.4685 110.6 75.8555 110.8C76.2695 110.988 76.5885 111.214 76.8435 111.468C77.1115 111.708 77.2315 112.03 77.2315 112.43C77.2315 112.884 77.1115 113.232 76.8175 113.431C76.5635 113.646 76.1755 113.766 75.6545 113.766C75.2415 113.766 74.8535 113.686 74.4665 113.526C74.0925 113.379 73.7985 113.205 73.5705 113.005C73.4515 112.885 73.3175 112.777 73.1565 112.671C72.9965 112.565 72.8095 112.511 72.6095 112.498C71.9685 112.498 71.6465 112.777 71.6465 113.352C71.6465 113.605 71.7145 113.845 71.8755 114.046C72.0355 114.26 72.1955 114.446 72.4495 114.608C72.6765 114.768 72.9295 114.915 73.2245 115.036C73.5035 115.156 73.7975 115.263 74.0915 115.343C74.3725 115.437 74.6655 115.503 74.9195 115.543C75.2145 115.584 75.4405 115.596 75.6015 115.596C76.7765 115.596 77.7115 115.303 78.3935 114.715C79.0605 114.127 79.3815 113.312 79.3815 112.297C79.3815 111.643 79.2605 111.109 78.9935 110.694C78.7425 110.282 78.3955 109.935 78.0075 109.654Z" fill="#A6A5A4"/>
<path d="M100.609 47.205L67.1865 65.919C67.1865 65.919 67.1475 65.933 67.1475 65.946C67.1205 65.96 67.1205 65.96 67.1205 65.96C66.7725 66.16 66.4795 66.44 66.2925 66.775L47.6715 100.157C47.2165 100.971 47.3775 102 48.0185 102.668C48.4325 103.068 48.9805 103.296 49.5285 103.296C49.8755 103.296 50.2365 103.202 50.5565 103.015L83.8185 84.287C84.0055 84.18 84.2065 83.993 84.3655 83.806C84.4855 83.686 84.5945 83.552 84.6865 83.405L103.495 50.09C103.948 49.261 103.815 48.234 103.146 47.566C102.465 46.885 101.438 46.751 100.609 47.205ZM55.0185 95.668L68.6575 71.182L79.4235 81.922L55.0185 95.668Z" fill="#A6A5A4"/>
</svg>
