<svg width="60" height="60" viewBox="0 0 60 60" fill="none" xmlns="http://www.w3.org/2000/svg">
<path d="M30.1093 57.2159C45.056 57.2159 57.2173 45.0559 57.2173 30.1079C57.2173 15.1613 45.056 2.99995 30.1093 2.99995C15.16 2.99995 3 15.1613 3 30.1079C3 45.0559 15.16 57.2159 30.1093 57.2159Z" stroke="white" stroke-width="1.826" stroke-linecap="round"/>
<path d="M19.3216 36.5468C15.7683 36.5468 12.8816 33.6574 12.8816 30.1081C12.8816 26.5588 15.7683 23.6708 19.3216 23.6708C22.871 23.6708 25.759 26.5588 25.759 30.1081C25.759 33.6574 22.871 36.5468 19.3216 36.5468ZM19.3216 22.4961C15.123 22.4961 11.707 25.9108 11.707 30.1081C11.707 34.3054 15.123 37.7201 19.3216 37.7201C23.5176 37.7201 26.9336 34.3054 26.9336 30.1081C26.9336 25.9108 23.5176 22.4961 19.3216 22.4961Z" fill="white"/>
<path d="M23.1224 29.2225H20.3064V26.2758C20.3064 26.0212 20.0971 25.8105 19.8411 25.8105H18.9131C18.6571 25.8105 18.4464 26.0212 18.4464 26.2758V29.2225H15.6331C15.3744 29.2225 15.1664 29.4292 15.1664 29.6892V30.5572C15.1664 30.8145 15.3744 31.0212 15.6331 31.0212H18.4464V33.9972C18.4464 34.2545 18.6571 34.4612 18.9131 34.4612H19.8411C20.0971 34.4612 20.3064 34.2545 20.3064 33.9972V31.0212H23.1224C23.3784 31.0212 23.5878 30.8145 23.5878 30.5572V29.6892C23.5878 29.4292 23.3784 29.2225 23.1224 29.2225Z" fill="white"/>
<path d="M45.1615 30.5572C45.1615 30.8145 44.9561 31.0225 44.6975 31.0225H37.2068C36.9521 31.0225 36.7441 30.8145 36.7441 30.5572V29.6892C36.7441 29.4292 36.9521 29.2225 37.2068 29.2225H44.6975C44.9561 29.2225 45.1615 29.4292 45.1615 29.6892V30.5572ZM40.8948 22.4972C36.6988 22.4972 33.2841 25.9118 33.2841 30.1078C33.2841 34.3065 36.6988 37.7198 40.8948 37.7198C45.0921 37.7198 48.5095 34.3065 48.5095 30.1078C48.5095 25.9118 45.0921 22.4972 40.8948 22.4972" fill="white"/>
</svg>
