<svg width="60" height="60" viewBox="0 0 60 60" fill="none" xmlns="http://www.w3.org/2000/svg">
<path d="M30.108 57.2159C45.0573 57.2159 57.2173 45.0546 57.2173 30.1066C57.2173 15.1599 45.0573 2.99995 30.108 2.99995C15.1613 2.99995 3 15.1599 3 30.1066C3 45.0546 15.1613 57.2159 30.108 57.2159Z" stroke="white" stroke-width="1.826" stroke-linecap="round"/>
<path d="M47.8242 24.7068C47.8428 24.8042 47.8588 24.9042 47.8735 25.0055C47.9468 24.9895 48.0188 24.9642 48.0775 24.9228L50.8242 22.9908C50.9442 22.9055 51.0215 22.7815 51.0468 22.6388C51.0708 22.4962 51.0375 22.3495 50.9562 22.2335C50.7908 21.9975 50.4362 21.9348 50.1975 22.1015L47.6295 23.9068C47.6642 24.0108 47.6922 24.1162 47.7202 24.2202C47.7602 24.3802 47.7935 24.5415 47.8242 24.7068Z" fill="white"/>
<path d="M51.4165 27.3266C51.3339 27.208 51.2085 27.128 51.0632 27.104L47.9272 26.5573C47.9219 26.66 47.9139 26.7626 47.9019 26.864C47.8872 27.0213 47.8659 27.1786 47.8379 27.3346C47.8219 27.436 47.8059 27.5346 47.7845 27.6373L50.8805 28.176C50.9085 28.18 50.9419 28.184 50.9739 28.184C51.2379 28.184 51.4632 27.9933 51.5099 27.7346C51.5339 27.5906 51.5005 27.4453 51.4165 27.3266Z" fill="white"/>
<path d="M47.69 29.102C47.6247 29.0114 47.5327 28.946 47.4314 28.91C47.3954 29.006 47.3607 29.102 47.3247 29.194C47.262 29.3514 47.198 29.5074 47.126 29.6594C47.0794 29.7674 47.0287 29.8727 46.9767 29.978L48.73 32.4727C48.8154 32.5927 48.9394 32.6714 49.0834 32.6954C49.1127 32.702 49.146 32.7034 49.178 32.7034C49.29 32.7034 49.3967 32.67 49.4914 32.606C49.6087 32.522 49.6874 32.3967 49.7154 32.254C49.7367 32.1114 49.706 31.966 49.6207 31.8487L47.69 29.102Z" fill="white"/>
<path d="M30.2303 22.9915L32.9757 24.9221C33.009 24.9435 33.0463 24.9621 33.0823 24.9741C33.097 24.8701 33.117 24.7648 33.1357 24.6608C33.169 24.4928 33.2063 24.3248 33.2503 24.1595C33.277 24.0541 33.3077 23.9515 33.3397 23.8488L30.8557 22.1021C30.617 21.9355 30.2623 21.9981 30.097 22.2341C30.0143 22.3515 29.981 22.4968 30.0063 22.6395C30.0317 22.7821 30.109 22.9075 30.2303 22.9915Z" fill="white"/>
<path d="M33.1184 27.3507C33.0931 27.1934 33.0717 27.0374 33.0544 26.8801C33.0411 26.7801 33.0331 26.6761 33.0251 26.5734L29.9891 27.1041C29.8451 27.1281 29.7197 27.2081 29.6357 27.3267C29.5504 27.4454 29.5184 27.5907 29.5437 27.7321C29.5917 27.9934 29.8131 28.1841 30.0811 28.1841C30.1117 28.1841 30.1437 28.1801 30.1744 28.1761L33.1757 27.6534C33.1571 27.5521 33.1357 27.4534 33.1184 27.3507Z" fill="white"/>
<path d="M33.6533 29.2401C33.616 29.1428 33.5773 29.0454 33.5413 28.9468C33.4733 28.9841 33.4093 29.0361 33.364 29.1014L31.432 31.8481C31.348 31.9668 31.316 32.1094 31.3413 32.2548C31.3653 32.3988 31.4467 32.5228 31.56 32.6028C31.6533 32.6694 31.7627 32.7041 31.876 32.7041C31.9067 32.7041 31.94 32.7028 31.9707 32.6961C32.1133 32.6708 32.2373 32.5948 32.32 32.4748L34.0213 30.0561C33.968 29.9508 33.9173 29.8454 33.8667 29.7401C33.792 29.5734 33.7213 29.4094 33.6533 29.2401Z" fill="white"/>
<path d="M40.4751 19.8806C37.0311 19.8806 34.2311 22.6406 34.2311 26.0366C34.2311 27.77 34.9551 29.658 36.1724 31.1033C36.1844 31.122 36.1991 31.1406 36.2151 31.158C36.5844 31.6166 37.6404 33.142 37.6404 34.1326C37.6404 34.5553 37.9844 34.9006 38.4071 34.9006H42.5457H42.5617C42.6657 34.9006 42.7684 34.8806 42.8617 34.838C43.1484 34.7166 43.3324 34.4393 43.3324 34.1326C43.3324 33.2526 44.2057 31.842 44.7591 31.158C44.7911 31.1153 44.8177 31.0726 44.8404 31.0246C46.0204 29.5913 46.7204 27.7406 46.7204 26.0366C46.7204 22.6406 43.9191 19.8806 40.4751 19.8806Z" fill="white"/>
<path d="M42.2043 36.1748H38.7483C38.4083 36.1748 38.131 36.4522 38.131 36.7882V39.1615C38.131 39.4988 38.4083 39.7748 38.7483 39.7748H39.3336L39.6363 40.1255C39.7523 40.2588 39.923 40.3362 40.1003 40.3362H40.8523C41.031 40.3362 41.1976 40.2588 41.3136 40.1255L41.6216 39.7748H42.2043C42.543 39.7748 42.8163 39.4988 42.8163 39.1615V36.7882C42.8163 36.4522 42.543 36.1748 42.2043 36.1748Z" fill="white"/>
<path d="M23.8098 30.1645C23.7671 30.2152 23.7298 30.2738 23.7031 30.3338C23.3591 30.7778 22.4351 32.0698 22.1364 33.3672H19.3271C19.0111 31.9965 17.9938 30.6298 17.7071 30.2658C17.6871 30.2338 17.6658 30.2018 17.6364 30.1725C16.6338 29.0045 16.0084 27.4205 16.0084 26.0365C16.0084 23.4872 18.1231 21.4125 20.7204 21.4125C23.3191 21.4125 25.4351 23.4872 25.4351 26.0365C25.4351 27.4178 24.8111 29.0005 23.8098 30.1645ZM20.7204 19.8805C17.2791 19.8805 14.4751 22.6405 14.4751 26.0365C14.4751 27.7712 15.1978 29.6578 16.4191 31.1032C16.4324 31.1218 16.4444 31.1405 16.4578 31.1578C16.8311 31.6165 17.8884 33.1445 17.8884 34.1338C17.8884 34.5552 18.2311 34.9005 18.6524 34.9005H22.7884H22.8098C22.9098 34.9005 23.0111 34.8805 23.1098 34.8378C23.3924 34.7178 23.5751 34.4405 23.5751 34.1338C23.5751 33.2525 24.4511 31.8418 25.0044 31.1578C25.0364 31.1165 25.0631 31.0725 25.0884 31.0258C26.2671 29.5912 26.9671 27.7405 26.9671 26.0365C26.9671 22.6405 24.1644 19.8805 20.7204 19.8805" fill="white"/>
<path d="M22.4504 36.1748H18.9931C18.6531 36.1748 18.3798 36.4522 18.3798 36.7882V39.1615C18.3798 39.4988 18.6531 39.7748 18.9931 39.7748H19.5784L19.8824 40.1255C19.9971 40.2588 20.1678 40.3362 20.3464 40.3362H21.0971C21.2758 40.3362 21.4451 40.2588 21.5611 40.1255L21.8651 39.7748H22.4504C22.7891 39.7748 23.0638 39.4988 23.0638 39.1615V36.7882C23.0638 36.4522 22.7891 36.1748 22.4504 36.1748Z" fill="white"/>
</svg>
