<svg width="150" height="151" viewBox="0 0 150 151" fill="none" xmlns="http://www.w3.org/2000/svg">
<path d="M75.04 0.715088C33.848 0.715088 0.333984 34.2291 0.333984 75.4221C0.333984 116.615 33.848 150.127 75.04 150.127C116.233 150.127 149.732 116.615 149.732 75.4221C149.732 34.2291 116.233 0.715088 75.04 0.715088ZM75.04 143.715C37.387 143.715 6.74597 113.074 6.74597 75.4221C6.74597 37.7681 37.387 7.12708 75.04 7.12708C112.693 7.12708 143.321 37.7681 143.321 75.4221C143.321 113.074 112.693 143.715 75.04 143.715Z" fill="#A6A5A4"/>
<path d="M89.1989 72.215C89.0389 72.215 88.838 72.215 88.65 72.215V44.7C88.65 36.673 74.6789 32.478 60.8809 32.478C47.0689 32.478 33.085 36.672 33.085 44.7V88.097C33.085 96.124 47.0689 100.318 60.8809 100.318C61.0679 100.318 61.228 100.318 61.429 100.318V106.129C61.429 114.156 75.3859 118.35 89.1989 118.35C103.023 118.35 116.995 114.157 116.995 106.129V83.129H116.861C115.419 75.956 102.262 72.215 89.1989 72.215ZM39.7249 52.902C41.9679 54.009 44.666 54.904 47.619 55.546C50.251 56.135 53.108 56.534 56.007 56.748C57.611 56.855 59.2389 56.922 60.8829 56.922C62.4859 56.922 64.1279 56.856 65.7319 56.748C68.6439 56.534 71.4749 56.135 74.1069 55.546C77.0579 54.904 79.7559 54.01 82.0009 52.902C83.2299 53.81 83.8979 54.731 83.8979 55.546C83.8979 56.374 83.2299 57.296 82.0009 58.204C81.3329 58.712 80.4659 59.206 79.4099 59.687C78.4479 60.14 77.312 60.582 76.03 60.982C72.143 62.17 67.0139 63.011 60.8839 63.011C54.7519 63.011 49.5839 62.17 45.6959 60.982C44.4409 60.582 43.3189 60.14 42.3309 59.687C41.3029 59.206 40.4339 58.711 39.7269 58.204C38.5099 57.296 37.8309 56.374 37.8309 55.546C37.8279 54.731 38.5079 53.811 39.7249 52.902ZM39.7249 63.761C41.9679 64.869 44.666 65.75 47.619 66.406C50.251 66.981 53.082 67.382 56.007 67.594C57.611 67.715 59.2389 67.768 60.8829 67.768C62.5129 67.768 64.1279 67.715 65.7579 67.594C68.6439 67.381 71.4749 66.981 74.1069 66.406C77.0579 65.751 79.7559 64.87 82.0009 63.761C83.2299 64.657 83.8979 65.577 83.8979 66.406C83.8979 67.221 83.2299 68.142 82.0009 69.051C81.3329 69.56 80.4659 70.054 79.4099 70.534C78.4479 70.987 77.312 71.429 76.03 71.829C72.183 73.031 67.0139 73.873 60.8839 73.873C54.7519 73.873 49.5839 73.031 45.6959 71.829C44.4139 71.429 43.3189 70.987 42.3309 70.534C41.3029 70.054 40.4339 69.559 39.7269 69.051C38.5099 68.143 37.8309 67.222 37.8309 66.406C37.8279 65.577 38.5079 64.656 39.7249 63.761ZM61.4299 95.551C61.2289 95.551 61.069 95.565 60.882 95.565C46.817 95.565 37.8279 91.143 37.8279 88.098C37.8279 87.284 38.5079 86.362 39.7239 85.453C45.0789 88.098 53.0139 89.473 60.8809 89.473C61.0679 89.473 61.228 89.46 61.429 89.46V95.551H61.4299ZM62.5779 80.671C61.8439 81.807 61.4299 83.062 61.4299 84.438V84.706C61.2289 84.706 61.069 84.719 60.882 84.719C54.75 84.719 49.5819 83.878 45.6939 82.675C44.4389 82.275 43.3169 81.847 42.3289 81.394C41.3009 80.913 40.4319 80.406 39.7249 79.898C38.5079 78.99 37.8289 78.068 37.8289 77.253C37.8289 76.437 38.5089 75.516 39.7249 74.607C41.9679 75.715 44.666 76.597 47.619 77.253C50.251 77.84 53.082 78.228 56.007 78.441C57.611 78.561 59.2389 78.614 60.8829 78.614C62.0709 78.614 63.2869 78.588 64.5029 78.52C63.7399 79.188 63.0989 79.896 62.5779 80.671ZM89.1989 113.596C75.1329 113.596 66.171 109.176 66.171 106.129C66.171 105.315 66.8529 104.393 68.0679 103.484C73.4369 106.142 81.3569 107.504 89.1989 107.504C97.0529 107.504 104.986 106.143 110.343 103.484C111.572 104.392 112.239 105.314 112.239 106.129C112.239 109.176 103.251 113.596 89.1989 113.596ZM110.343 97.928C109.649 98.436 108.807 98.944 107.751 99.41C106.789 99.878 105.668 100.318 104.372 100.707C100.498 101.908 95.3299 102.75 89.1989 102.75C83.0949 102.75 77.9259 101.908 74.0389 100.707C72.8899 100.346 71.861 99.959 70.926 99.544C70.832 99.504 70.7659 99.465 70.6719 99.41C69.6449 98.943 68.7759 98.435 68.0679 97.928C67.9079 97.809 67.787 97.701 67.627 97.58C66.719 96.806 66.211 96.045 66.171 95.336C66.171 95.323 66.171 95.297 66.171 95.283C66.171 94.455 66.8529 93.547 68.0679 92.638C69.4569 93.306 70.9529 93.908 72.6229 94.402C73.6909 94.736 74.8119 95.029 75.9619 95.283C76.4159 95.39 76.898 95.483 77.377 95.577C78.887 95.857 80.4639 96.098 82.0649 96.271C82.7999 96.351 83.5749 96.418 84.3499 96.472C85.9529 96.591 87.5819 96.645 89.1989 96.645C90.8279 96.645 92.4709 96.591 94.0739 96.472C96.9989 96.271 99.8169 95.857 102.449 95.283C105.401 94.629 108.098 93.748 110.343 92.638C111.572 93.546 112.239 94.454 112.239 95.283C112.239 96.098 111.571 97.02 110.343 97.928Z" fill="#A6A5A4"/>
</svg>
