<svg width="130" height="130" viewBox="0 0 130 130" fill="none" xmlns="http://www.w3.org/2000/svg">
<path d="M65.108 3.00005C30.8587 3.00005 3 30.8587 3 65.104C3 83.4014 10.9573 99.8734 23.5867 111.251C29.944 116.976 37.4773 121.405 45.788 124.133C51.8707 126.128 58.364 127.212 65.108 127.212C71.6587 127.212 77.9747 126.189 83.9067 124.301C92.4147 121.589 100.137 117.095 106.624 111.251C119.253 99.8734 127.211 83.4014 127.211 65.104C127.211 30.8587 99.3507 3.00005 65.108 3.00005ZM65.108 120.319C52.2613 120.319 40.4227 115.912 31.0333 108.525C35.1507 105.525 41.452 102.275 46.9627 99.6814C53.0347 96.8214 58.132 94.7574 58.2347 94.716C58.7547 94.5094 59.1893 94.164 59.5027 93.732C59.816 93.2947 60.012 92.7787 60.0493 92.2187C60.0867 91.6654 59.9667 91.124 59.712 90.6534C59.46 90.1787 59.0787 89.7774 58.5947 89.5C55.756 87.8814 53.296 85.3347 51.48 82.3174C49.6653 79.2974 48.4933 75.7974 48.2293 72.2667C48.176 71.5094 47.8307 70.8387 47.3147 70.3574C46.796 69.8747 46.0933 69.5787 45.3347 69.5787H45.2853H45.228C44.968 69.564 44.7253 69.4214 44.5547 69.2C44.3867 68.9774 44.2747 68.68 44.2747 68.3587C44.2747 68.0667 44.356 67.8174 44.4773 67.6227C44.6 67.428 44.7653 67.2854 44.9253 67.2094C45.584 66.8947 46.0747 66.3627 46.3453 65.7387C46.6147 65.1107 46.6667 64.388 46.4467 63.6974C46.0867 62.58 45.8173 61.4427 45.6387 60.2907C45.4547 59.1387 45.3653 57.9707 45.3653 56.7947C45.3653 50.948 47.5867 45.6441 51.1787 41.8054C54.7493 37.9841 59.6733 35.6174 65.108 35.5894C70.5373 35.6174 75.4653 37.9841 79.032 41.8054C82.624 45.6441 84.8507 50.948 84.8507 56.7947C84.8507 57.9707 84.756 59.1387 84.5773 60.2907C84.3973 61.4427 84.1253 62.58 83.764 63.6974C83.544 64.388 83.5933 65.1107 83.8653 65.7387C84.136 66.3627 84.6267 66.8947 85.2867 67.2094C85.4507 67.2854 85.6107 67.428 85.7307 67.6227C85.8533 67.8174 85.936 68.0667 85.936 68.3587C85.936 68.68 85.8293 68.9774 85.652 69.2C85.4813 69.4214 85.244 69.564 84.988 69.5787H84.9293H84.876C84.1133 69.5787 83.42 69.8747 82.9 70.3574C82.38 70.8387 82.0347 71.5094 81.9773 72.2667C81.7173 75.7974 80.5453 79.2974 78.7307 82.3174C76.9133 85.3347 74.4547 87.8814 71.616 89.5C71.1347 89.7774 70.7507 90.1787 70.4987 90.6534C70.2453 91.124 70.124 91.6654 70.1627 92.2187C70.1987 92.7787 70.3947 93.2947 70.7093 93.732C71.0227 94.164 71.46 94.5094 71.972 94.716C72.084 94.7574 77.1813 96.8214 83.2507 99.6814C88.7573 102.275 95.064 105.525 99.1813 108.525C89.788 115.912 77.9547 120.319 65.108 120.319ZM103.625 104.621C100.797 102.423 96.944 100.14 92.956 98.028C87.8507 95.328 82.5293 92.908 78.8507 91.312C81.0853 89.2174 83.004 86.6707 84.4893 83.864C85.9747 81.0574 87.0267 77.996 87.5173 74.8667C88.7573 74.3427 89.8147 73.4494 90.5613 72.32C91.308 71.1907 91.7453 69.824 91.7453 68.3587C91.7453 67.4387 91.5693 66.5427 91.2467 65.72C90.9213 64.892 90.4467 64.1387 89.8573 63.496C90.1213 62.4 90.32 61.2907 90.4587 60.1707C90.588 59.0547 90.6573 57.924 90.6573 56.7947C90.6573 49.344 87.7827 42.5894 83.1413 37.7C81.236 35.6907 79.0293 34.0014 76.6027 32.704C76.6293 32.684 76.652 32.6654 76.6787 32.6507C74.952 31.7307 73.1147 31.016 71.1907 30.5254C69.6253 30.1267 68.0067 29.8894 66.3453 29.8134C66.3027 29.8094 66.26 29.8094 66.2147 29.8054C65.876 29.7934 65.54 29.7747 65.1947 29.7747C65.164 29.7747 65.1373 29.7787 65.108 29.7787C65.0773 29.7787 65.0453 29.7747 65.02 29.7747C64.676 29.7747 64.3387 29.7934 63.9933 29.8054C63.9547 29.8094 63.9107 29.8094 63.864 29.8134C62.2093 29.8894 60.5853 30.1267 59.0253 30.5254C57.1027 31.016 55.2587 31.7307 53.532 32.6507C53.556 32.6654 53.5813 32.684 53.608 32.704C51.1867 34.0014 48.98 35.6907 47.0747 37.7C42.428 42.5894 39.5533 49.344 39.5533 56.7947C39.5533 57.924 39.624 59.0547 39.756 60.1707C39.8867 61.2907 40.0893 62.4 40.3547 63.496C39.76 64.1387 39.2893 64.892 38.964 65.72C38.6413 66.5427 38.4667 67.4387 38.4667 68.3587C38.4667 69.824 38.9027 71.1907 39.6493 72.32C40.396 73.4494 41.452 74.3427 42.6907 74.8667C43.1893 77.996 44.236 81.0574 45.7227 83.864C47.2067 86.6707 49.1307 89.2174 51.3613 91.312C47.684 92.908 42.3573 95.328 37.256 98.028C33.2667 100.14 29.4147 102.423 26.5813 104.621C16.2947 94.5854 9.89067 80.58 9.89067 65.104C9.89067 34.66 34.6613 9.88805 65.108 9.88805C95.5507 9.88805 120.319 34.66 120.319 65.104C120.319 80.58 113.92 94.5854 103.625 104.621Z" fill="white"/>
</svg>
