<svg width="150" height="150" viewBox="0 0 150 150" fill="none" xmlns="http://www.w3.org/2000/svg">
<path d="M74.7158 0.449005C33.5238 0.449005 0.00976562 33.962 0.00976562 75.155C0.00976562 116.362 33.5238 149.874 74.7158 149.874C115.908 149.874 149.408 116.362 149.408 75.155C149.408 33.961 115.908 0.449005 74.7158 0.449005ZM74.7158 143.463C37.0628 143.463 6.42177 112.822 6.42177 75.154C6.42177 37.501 37.0628 6.86 74.7158 6.86C112.369 6.86 142.997 37.501 142.997 75.154C142.997 112.822 112.369 143.463 74.7158 143.463Z" fill="#A6A5A4"/>
<path d="M91.1184 81.566C90.2104 82.314 89.1944 82.942 88.0984 83.449C87.8054 83.596 87.5254 83.743 87.2044 83.864C85.5334 84.506 83.7984 84.825 82.0354 84.825C79.5904 84.825 77.2124 84.211 75.0894 83.062C73.1654 83.983 71.0154 84.491 68.8374 84.491C67.1284 84.491 65.4984 84.17 63.8964 83.569C63.6024 83.476 63.3484 83.382 63.0544 83.261C62.2804 82.914 61.5454 82.487 60.8764 82.033C59.7154 81.271 58.7274 80.363 57.8584 79.334V118.444C57.8584 119.673 58.5924 120.768 59.7144 121.235C60.0744 121.395 60.4884 121.462 60.8754 121.462C61.6374 121.462 62.4124 121.155 62.9864 120.581L75.9964 107.624L88.9924 120.581C89.8344 121.448 91.1434 121.702 92.2654 121.235C93.3854 120.768 94.1334 119.673 94.1334 118.444V78.172C93.3364 79.442 92.3084 80.604 91.1184 81.566Z" fill="#A6A5A4"/>
<path d="M99.5882 45.208C99.4262 44.768 99.2382 44.366 99.0122 43.979C98.9182 43.845 98.8252 43.725 98.7582 43.604C98.5992 43.364 98.4392 43.11 98.2372 42.896C98.1192 42.75 97.9842 42.629 97.8502 42.509C97.6912 42.322 97.5032 42.122 97.3172 41.948C97.1832 41.828 97.0232 41.721 96.8882 41.614C96.7012 41.468 96.4752 41.321 96.2872 41.174C96.1272 41.08 95.9672 40.987 95.8072 40.907C95.5782 40.787 95.3522 40.68 95.1252 40.573C94.9662 40.507 94.7782 40.44 94.6182 40.373C94.3892 40.293 94.1632 40.212 93.9092 40.159C93.7502 40.106 93.5502 40.066 93.3632 40.026C93.1342 39.986 92.8812 39.946 92.6542 39.92C92.4662 39.893 92.2672 39.879 92.0392 39.879C91.7192 39.852 91.3722 39.839 91.0252 39.866C91.4382 36.273 89.5682 32.64 86.0702 31.104C85.6962 30.944 85.3072 30.81 84.9212 30.704C84.8272 30.677 84.7202 30.65 84.6672 30.637C84.2782 30.543 83.8652 30.476 83.4792 30.436C83.4132 30.436 83.3442 30.436 83.2782 30.436C82.9582 30.41 82.6112 30.41 82.2492 30.423C82.1552 30.436 82.0892 30.436 81.9962 30.45C81.6092 30.476 81.2232 30.543 80.8482 30.623C80.7812 30.637 80.6872 30.663 80.6202 30.69C80.3002 30.77 79.9792 30.864 79.6852 30.997C79.5912 31.023 79.4972 31.064 79.4042 31.104C79.0442 31.251 78.6972 31.425 78.3772 31.625C78.3362 31.652 78.2702 31.678 78.2432 31.705C77.9482 31.893 77.6682 32.092 77.3752 32.333C77.3082 32.386 77.2142 32.453 77.1472 32.52C76.8672 32.787 76.5732 33.054 76.2802 33.361C76.0252 33.04 75.7712 32.747 75.4772 32.466C75.3832 32.386 75.2892 32.319 75.2232 32.239C74.9962 32.025 74.7442 31.839 74.4892 31.652C74.4232 31.598 74.3292 31.532 74.2622 31.478C73.9142 31.265 73.5802 31.078 73.2332 30.904C73.1402 30.864 73.0742 30.837 73.0062 30.81C72.7252 30.677 72.4042 30.557 72.1112 30.463C71.9782 30.423 71.8842 30.396 71.7502 30.37C71.4302 30.276 71.1092 30.196 70.7622 30.156C70.6962 30.143 70.6682 30.129 70.6022 30.115C70.1882 30.075 69.8012 30.062 69.3872 30.062C69.3212 30.062 69.2522 30.075 69.1862 30.075C68.7722 30.102 68.3852 30.142 67.9712 30.222C67.9302 30.235 67.8772 30.235 67.8372 30.249C67.4232 30.342 67.0092 30.462 66.5942 30.623C62.9892 31.999 60.9712 35.565 61.2252 39.199C60.8382 39.145 60.4642 39.145 60.0772 39.145C59.8772 39.158 59.7172 39.171 59.5302 39.185C59.2762 39.199 59.0492 39.225 58.7952 39.279C58.6362 39.305 58.4352 39.345 58.2742 39.386C58.0202 39.439 57.7942 39.506 57.5662 39.573C57.3792 39.64 57.2192 39.706 57.0582 39.76C56.8302 39.853 56.6042 39.961 56.3772 40.067C56.2162 40.148 56.0562 40.228 55.8972 40.321C55.7092 40.455 55.4832 40.588 55.2952 40.735C55.1352 40.829 55.0002 40.936 54.8672 41.042C54.6402 41.203 54.4532 41.39 54.2932 41.563C54.1602 41.683 54.0392 41.79 53.9452 41.924C53.7452 42.137 53.5582 42.378 53.3982 42.618C53.3042 42.725 53.1972 42.832 53.1442 42.952C52.8762 43.326 52.6502 43.714 52.4902 44.128C50.9532 47.614 52.0092 51.541 54.7472 53.932C51.8892 56.162 50.6062 60.076 51.9822 63.642C52.1422 64.082 52.3692 64.484 52.5962 64.871C52.6502 65.005 52.7562 65.112 52.8492 65.232C53.0102 65.485 53.1702 65.739 53.3572 65.966C53.4642 66.086 53.5852 66.206 53.7182 66.327C53.9052 66.527 54.0662 66.714 54.2652 66.901C54.4262 67.007 54.5462 67.114 54.7062 67.221C54.9062 67.368 55.0932 67.528 55.3202 67.662C55.4812 67.769 55.6402 67.849 55.8012 67.942C56.0282 68.049 56.2142 68.169 56.4422 68.263C56.6422 68.343 56.8032 68.41 56.9902 68.464C57.2182 68.557 57.4442 68.624 57.6572 68.691C57.7242 68.717 57.7922 68.731 57.8582 68.744C57.9782 68.785 58.1122 68.785 58.2452 68.825C58.4602 68.865 58.7262 68.905 58.9542 68.931C59.1402 68.958 59.3272 68.972 59.5282 68.972C59.6482 68.972 59.7812 68.999 59.9152 68.999C60.1422 68.999 60.3562 68.999 60.5572 68.972C60.4232 70.134 60.5572 71.283 60.8762 72.365C61.3852 74.101 62.4132 75.651 63.8962 76.76C64.3762 77.134 64.9252 77.468 65.4992 77.735C65.8872 77.909 66.3012 78.028 66.6872 78.149C66.7812 78.163 66.8482 78.19 66.9412 78.203C67.3292 78.309 67.7162 78.363 68.1032 78.403C68.1572 78.416 68.2242 78.416 68.2912 78.416C68.6392 78.442 68.9992 78.442 69.3202 78.416C69.4132 78.416 69.5072 78.416 69.6132 78.403C69.9872 78.363 70.3752 78.309 70.7612 78.215C70.8272 78.202 70.8952 78.175 70.9492 78.162C71.2692 78.082 71.6032 77.975 71.9242 77.855C71.9792 77.815 72.0842 77.788 72.1782 77.749C72.5262 77.588 72.8872 77.415 73.2332 77.214C73.2602 77.188 73.3002 77.16 73.3272 77.134C73.6482 76.947 73.9422 76.746 74.1952 76.519C74.2882 76.466 74.3562 76.399 74.4502 76.332C74.7442 76.065 75.0372 75.785 75.2902 75.491C75.5452 75.812 75.8392 76.093 76.1192 76.373C76.1862 76.467 76.2802 76.533 76.3862 76.613C76.6002 76.813 76.8672 77.014 77.0812 77.188C77.1882 77.254 77.2552 77.308 77.3482 77.361C77.6682 77.588 78.0172 77.775 78.3772 77.949C78.4302 77.975 78.4962 78.016 78.5902 78.042C78.8842 78.176 79.1782 78.296 79.4982 78.389C79.5922 78.429 79.7262 78.456 79.8192 78.482C80.1392 78.576 80.4872 78.643 80.8072 78.696C80.8732 78.709 80.9422 78.723 81.0082 78.723C81.3822 78.777 81.8082 78.789 82.2242 78.777C82.2902 78.777 82.3572 78.777 82.4112 78.777C82.7982 78.75 83.2252 78.71 83.6002 78.63C83.6662 78.616 83.7052 78.603 83.7592 78.603C84.1862 78.51 84.6012 78.389 85.0152 78.229C86.2312 77.749 87.2572 77.014 88.0992 76.105C89.7032 74.382 90.5312 72.044 90.3432 69.654C90.5972 69.681 90.8652 69.681 91.1182 69.681C91.2392 69.681 91.3722 69.708 91.5322 69.694C91.6922 69.694 91.8792 69.681 92.0812 69.654C92.3082 69.641 92.5602 69.614 92.7872 69.573C92.9752 69.547 93.1762 69.507 93.3362 69.453C93.5502 69.399 93.8162 69.333 94.0302 69.266C94.0692 69.253 94.0962 69.239 94.1352 69.226C94.2562 69.186 94.4162 69.132 94.5512 69.079C94.7782 68.986 95.0042 68.892 95.1922 68.786C95.3512 68.706 95.5112 68.613 95.6712 68.519C95.9002 68.398 96.0872 68.265 96.2862 68.118C96.4462 68.011 96.6062 67.918 96.7262 67.811C96.9282 67.65 97.1152 67.463 97.3152 67.29C97.4082 67.17 97.5292 67.05 97.6622 66.929C97.8492 66.716 98.0092 66.475 98.2112 66.248C98.2772 66.128 98.3712 66.021 98.4642 65.901C98.6912 65.527 98.9172 65.14 99.1052 64.713C100.656 61.24 99.5872 57.299 96.8602 54.922C99.7212 52.674 100.976 48.774 99.5882 45.208ZM83.3182 57.737C83.1562 58.084 82.9962 58.404 82.7972 58.712C82.7312 58.792 82.7032 58.873 82.6372 58.953C82.4502 59.233 82.2482 59.487 82.0622 59.741C82.0622 59.741 82.0372 59.754 82.0372 59.767C82.0372 59.78 81.9962 59.793 81.9962 59.807C81.7692 60.074 81.5162 60.328 81.2622 60.555C81.1962 60.622 81.1292 60.675 81.0752 60.729C80.8072 60.929 80.5542 61.117 80.3002 61.29C80.2602 61.316 80.2332 61.33 80.2072 61.356C79.9132 61.543 79.5922 61.704 79.2992 61.851C79.2052 61.891 79.1382 61.917 79.0442 61.957C78.7902 62.077 78.4962 62.184 78.2162 62.264C78.1762 62.278 78.1102 62.305 78.0832 62.318C77.7352 62.411 77.4012 62.479 77.0542 62.531C76.9882 62.545 76.8942 62.558 76.8012 62.572C76.5072 62.598 76.2262 62.625 75.9332 62.638C75.8662 62.638 75.8392 62.638 75.7992 62.638C75.7722 62.638 75.7452 62.638 75.7452 62.638C75.5712 62.638 75.4252 62.625 75.2512 62.612C75.1572 62.612 75.0372 62.598 74.9032 62.585C74.7442 62.572 74.5832 62.545 74.4232 62.519C74.2882 62.505 74.1952 62.479 74.1022 62.465C73.9152 62.425 73.7162 62.371 73.5562 62.318C73.4622 62.292 73.3682 62.278 73.2612 62.252C73.0072 62.158 72.7532 62.065 72.4602 61.945C71.3112 61.424 70.3102 60.663 69.5482 59.741C67.5582 57.416 66.9702 54.077 68.2922 51.099C68.4252 50.765 68.6122 50.444 68.8002 50.137C68.8392 50.057 68.9072 49.977 68.9332 49.896C69.1212 49.603 69.3222 49.335 69.5482 49.082C69.5742 49.068 69.5742 49.056 69.6142 49.028C69.8272 48.761 70.0942 48.521 70.3482 48.28C70.4152 48.227 70.4682 48.174 70.5362 48.107C70.7902 47.92 71.0162 47.72 71.2702 47.559C71.3102 47.533 71.3362 47.506 71.4042 47.493C71.6982 47.306 71.9792 47.146 72.2992 46.999C72.3662 46.959 72.4602 46.918 72.5272 46.892C72.8202 46.772 73.0752 46.665 73.3692 46.571C73.4352 46.558 73.4632 46.545 73.5292 46.531C73.8492 46.424 74.1962 46.371 74.5172 46.304C74.6112 46.291 74.7172 46.291 74.7712 46.277C75.0642 46.237 75.3842 46.224 75.6792 46.211C75.7052 46.211 75.7722 46.197 75.7992 46.197C75.8392 46.197 75.8392 46.211 75.8652 46.211C76.0252 46.211 76.1592 46.224 76.3192 46.224C76.4392 46.237 76.5732 46.237 76.7072 46.251C76.8272 46.264 76.9872 46.291 77.1472 46.318C77.2542 46.344 77.3752 46.358 77.5072 46.384C77.6672 46.411 77.8282 46.464 77.9882 46.505C78.1082 46.545 78.2152 46.558 78.3082 46.599C78.5882 46.692 78.8552 46.786 79.1102 46.906C83.2772 48.734 85.1472 53.596 83.3182 57.737Z" fill="#A6A5A4"/>
</svg>
