<svg width="151" height="150" viewBox="0 0 151 150" fill="none" xmlns="http://www.w3.org/2000/svg">
<path d="M75.4028 0.108002C34.1998 0.108002 0.675781 33.631 0.675781 74.835C0.675781 116.026 34.1988 149.536 75.4028 149.536C116.592 149.536 150.09 116.026 150.09 74.835C150.09 33.631 116.593 0.108002 75.4028 0.108002ZM75.4028 143.123C37.7388 143.123 7.08679 112.486 7.08679 74.834C7.08679 37.184 37.7388 6.545 75.4028 6.545C113.053 6.545 143.679 37.184 143.679 74.834C143.68 112.486 113.054 143.123 75.4028 143.123Z" fill="#A6A5A4"/>
<path d="M112.346 98.648H69.1405C67.4975 98.648 66.1895 99.984 66.1895 101.627C66.1895 103.256 67.4985 104.578 69.1405 104.578H112.346C113.989 104.578 115.325 103.256 115.325 101.627C115.324 99.984 113.988 98.648 112.346 98.648Z" fill="#A6A5A4"/>
<path d="M112.346 69.719H69.1405C67.4975 69.719 66.1895 71.042 66.1895 72.684C66.1895 74.313 67.4985 75.636 69.1405 75.636H112.346C113.989 75.636 115.325 74.314 115.325 72.684C115.324 71.042 113.988 69.719 112.346 69.719Z" fill="#A6A5A4"/>
<path d="M112.346 40.777H69.1405C67.4975 40.777 66.1895 42.099 66.1895 43.742C66.1895 45.371 67.4985 46.707 69.1405 46.707H112.346C113.989 46.707 115.325 45.372 115.325 43.742C115.324 42.099 113.988 40.777 112.346 40.777Z" fill="#A6A5A4"/>
<path d="M56.6792 60.824H38.9022C37.2592 60.824 35.9512 62.146 35.9512 63.776V81.566C35.9512 83.209 37.2602 84.545 38.9022 84.545H56.6792C58.3222 84.545 59.6442 83.21 59.6442 81.566V63.776C59.6442 62.146 58.3212 60.824 56.6792 60.824ZM53.7272 78.614H41.8542V66.754H53.7272V78.614Z" fill="#A6A5A4"/>
<path d="M56.6792 89.753H38.9022C37.2592 89.753 35.9512 91.088 35.9512 92.731V110.507C35.9512 112.15 37.2602 113.474 38.9022 113.474H56.6792C58.3222 113.474 59.6442 112.15 59.6442 110.507V92.731C59.6442 91.089 58.3212 89.753 56.6792 89.753ZM53.7272 107.543H41.8542V95.684H53.7272V107.543Z" fill="#A6A5A4"/>
<path d="M63.0093 30.292C61.7943 29.411 59.9243 29.651 59.0023 30.813L45.1253 48.002L40.5713 42.9C39.5693 41.791 37.6863 41.631 36.5243 42.579C35.9093 43.06 35.5363 43.754 35.4683 44.516C35.4023 45.278 35.6553 46.013 36.1763 46.587L43.0413 54.28C43.5883 54.895 44.3913 55.255 45.2183 55.255C45.2583 55.255 45.2853 55.255 45.2853 55.255C46.1933 55.228 46.9943 54.841 47.5423 54.173L63.5563 34.285C64.0363 33.684 64.2643 32.936 64.1573 32.188C64.0373 31.428 63.6493 30.76 63.0093 30.292Z" fill="#A6A5A4"/>
</svg>
