<svg width="130" height="130" viewBox="0 0 130 130" fill="none" xmlns="http://www.w3.org/2000/svg">
<path d="M60.3974 77.6661C60.3974 75.41 60.7551 73.429 61.4704 71.7231C62.2408 70.0172 63.1763 68.559 64.2769 67.3484C65.3774 66.1378 66.8082 64.7621 68.5691 63.2213C70.9353 61.1302 72.6687 59.3143 73.7692 57.7735C74.9248 56.1777 75.5026 54.2517 75.5026 51.9955C75.5026 48.969 74.3195 46.5478 71.9533 44.7318C69.5871 42.8609 66.3404 41.9254 62.2133 41.9254C55.3898 41.9254 50.1347 44.154 46.4478 48.6113L42.073 45.3096C46.7504 39.5867 53.6014 36.7252 62.626 36.7252C68.404 36.7252 72.9988 38.0184 76.4106 40.6047C79.8773 43.191 81.6107 46.6853 81.6107 51.0876C81.6107 53.3437 81.2255 55.3523 80.4551 57.1132C79.7398 58.819 78.8318 60.2773 77.7312 61.4879C76.6857 62.6985 75.2825 64.1017 73.5216 65.6975C71.1554 67.8436 69.3945 69.7696 68.2389 71.4755C67.0833 73.1263 66.5055 75.1899 66.5055 77.6661H60.3974ZM63.4515 95.4127C62.2408 95.4127 61.2228 95 60.3974 94.1746C59.572 93.2941 59.1593 92.2761 59.1593 91.1205C59.1593 89.9099 59.572 88.9194 60.3974 88.149C61.2228 87.3236 62.2408 86.9109 63.4515 86.9109C64.7171 86.9109 65.7626 87.3236 66.5881 88.149C67.4135 88.9194 67.8262 89.9099 67.8262 91.1205C67.8262 92.2761 67.386 93.2941 66.5055 94.1746C65.6801 95 64.6621 95.4127 63.4515 95.4127Z" fill="white"/>
<path d="M65 124.5C97.3385 124.5 123.5 98.0549 123.5 65.5C123.5 32.9451 97.3385 6.5 65 6.5C32.6615 6.5 6.5 32.9451 6.5 65.5C6.5 98.0549 32.6615 124.5 65 124.5Z" stroke="white" stroke-width="7"/>
</svg>
