<svg width="148" height="148" viewBox="0 0 148 148" fill="none" xmlns="http://www.w3.org/2000/svg">
<path d="M73.942 0C33.163 0 0 33.184 0 73.963C0 114.742 33.163 147.926 73.942 147.926C114.722 147.926 147.885 114.742 147.885 73.963C147.885 33.184 114.722 0 73.942 0ZM73.942 141.566C36.667 141.566 6.34601 111.238 6.34601 73.962C6.34601 36.686 36.666 6.36 73.942 6.36C111.218 6.36 141.539 36.686 141.539 73.962C141.539 111.238 111.218 141.566 73.942 141.566Z" fill="#A6A5A4"/>
<path d="M95.7812 49.547V94.631C95.7812 94.631 92.0552 102.981 75.6152 102.981C59.1742 102.981 55.4492 93.989 55.4492 93.989V49.547" fill="#A6A5A4"/>
<path d="M75.6152 103.75C58.8512 103.75 54.8972 94.67 54.7372 94.283L54.6782 94.142V49.547H56.2192V93.817C56.7472 94.86 60.9932 102.21 75.6152 102.21C83.8292 102.21 88.6892 100.054 91.3202 98.245C93.7242 96.591 94.7522 94.921 95.0092 94.446V49.547H96.5512V94.795L96.4842 94.945C96.3242 95.305 92.3632 103.75 75.6152 103.75Z" fill="#A6A5A4"/>
<path d="M38.1094 88.336C37.7534 88.336 37.3994 88.19 37.1454 87.9C36.9944 87.73 22.2614 70.64 37.0724 55.832C37.5734 55.33 38.3874 55.33 38.8884 55.832C39.3904 56.332 39.3904 57.146 38.8884 57.648C33.4124 63.123 31.7514 69.544 33.9494 76.738C35.6324 82.238 39.0394 86.166 39.0734 86.205C39.5414 86.738 39.4884 87.549 38.9564 88.017C38.7134 88.23 38.4104 88.336 38.1094 88.336Z" fill="#A6A5A4"/>
<path d="M42.7336 83.451C42.3786 83.451 42.0236 83.303 41.7696 83.015C41.6646 82.896 31.4306 71.025 41.7376 60.716C42.2396 60.214 43.0526 60.214 43.5536 60.716C44.0556 61.218 44.0556 62.032 43.5536 62.532C39.9476 66.139 38.8616 70.37 40.3266 75.104C41.4496 78.739 43.6736 81.29 43.6966 81.315C44.1656 81.848 44.1136 82.659 43.5816 83.127C43.3386 83.344 43.0356 83.451 42.7336 83.451Z" fill="#A6A5A4"/>
<path d="M46.5876 79.785C46.2326 79.785 45.8766 79.639 45.6226 79.349C43.1976 76.597 40.0776 69.927 45.6226 64.382C46.1246 63.88 46.9376 63.88 47.4386 64.382C47.9406 64.882 47.9406 65.696 47.4386 66.196C42.1936 71.442 47.3296 77.399 47.5496 77.651C48.0196 78.184 47.9676 78.995 47.4356 79.463C47.1916 79.679 46.8886 79.785 46.5876 79.785Z" fill="#A6A5A4"/>
<path d="M112.659 88.336C112.357 88.336 112.055 88.232 111.81 88.016C111.279 87.547 111.227 86.737 111.695 86.205C111.729 86.166 115.137 82.238 116.819 76.738C119.017 69.545 117.356 63.123 111.88 57.648C111.378 57.146 111.378 56.332 111.88 55.832C112.382 55.33 113.194 55.33 113.696 55.832C128.507 70.641 113.774 87.73 113.624 87.9C113.37 88.189 113.015 88.336 112.659 88.336Z" fill="#A6A5A4"/>
<path d="M108.035 83.451C107.733 83.451 107.43 83.346 107.186 83.129C106.654 82.662 106.602 81.85 107.071 81.318C107.441 80.894 115.8 71.121 107.215 62.533C106.713 62.033 106.713 61.219 107.215 60.717C107.716 60.215 108.529 60.215 109.03 60.717C119.338 71.026 109.103 82.897 108.999 83.016C108.745 83.303 108.39 83.451 108.035 83.451Z" fill="#A6A5A4"/>
<path d="M104.181 79.785C103.879 79.785 103.577 79.68 103.332 79.465C102.8 78.996 102.748 78.188 103.215 77.654C103.23 77.638 104.635 76.009 105.314 73.752C106.168 70.912 105.501 68.369 103.329 66.199C102.828 65.697 102.828 64.883 103.329 64.383C103.831 63.881 104.643 63.881 105.145 64.383C110.691 69.928 107.57 76.598 105.145 79.35C104.891 79.638 104.537 79.785 104.181 79.785Z" fill="#A6A5A4"/>
<path d="M75.6792 58.795C86.852 58.795 95.9092 54.6545 95.9092 49.547C95.9092 44.4395 86.852 40.299 75.6792 40.299C64.5065 40.299 55.4492 44.4395 55.4492 49.547C55.4492 54.6545 64.5065 58.795 75.6792 58.795Z" fill="white"/>
<path d="M75.6782 59.564C63.9032 59.564 54.6782 55.164 54.6782 49.546C54.6782 43.927 63.9032 39.526 75.6782 39.526C87.4542 39.526 96.6792 43.926 96.6792 49.546C96.6792 55.164 87.4552 59.564 75.6782 59.564Z" fill="#A6A5A4"/>
<path d="M70.5204 47.019C71.3008 47.019 71.9334 46.5785 71.9334 46.035C71.9334 45.4916 71.3008 45.051 70.5204 45.051C69.74 45.051 69.1074 45.4916 69.1074 46.035C69.1074 46.5785 69.74 47.019 70.5204 47.019Z" fill="white"/>
<path d="M75.6586 47.019C76.439 47.019 77.0716 46.5785 77.0716 46.035C77.0716 45.4916 76.439 45.051 75.6586 45.051C74.8782 45.051 74.2456 45.4916 74.2456 46.035C74.2456 46.5785 74.8782 47.019 75.6586 47.019Z" fill="white"/>
<path d="M80.7963 47.019C81.5767 47.019 82.2093 46.5785 82.2093 46.035C82.2093 45.4916 81.5767 45.051 80.7963 45.051C80.0159 45.051 79.3833 45.4916 79.3833 46.035C79.3833 46.5785 80.0159 47.019 80.7963 47.019Z" fill="white"/>
<path d="M70.5204 54.212C71.3008 54.212 71.9334 53.7714 71.9334 53.228C71.9334 52.6845 71.3008 52.244 70.5204 52.244C69.74 52.244 69.1074 52.6845 69.1074 53.228C69.1074 53.7714 69.74 54.212 70.5204 54.212Z" fill="white"/>
<path d="M75.6586 54.212C76.439 54.212 77.0716 53.7714 77.0716 53.228C77.0716 52.6845 76.439 52.244 75.6586 52.244C74.8782 52.244 74.2456 52.6845 74.2456 53.228C74.2456 53.7714 74.8782 54.212 75.6586 54.212Z" fill="white"/>
<path d="M80.7963 54.212C81.5767 54.212 82.2093 53.7714 82.2093 53.228C82.2093 52.6845 81.5767 52.244 80.7963 52.244C80.0159 52.244 79.3833 52.6845 79.3833 53.228C79.3833 53.7714 80.0159 54.212 80.7963 54.212Z" fill="white"/>
<path d="M67.9516 50.617C68.7319 50.617 69.3646 50.1765 69.3646 49.633C69.3646 49.0896 68.7319 48.649 67.9516 48.649C67.1712 48.649 66.5386 49.0896 66.5386 49.633C66.5386 50.1765 67.1712 50.617 67.9516 50.617Z" fill="white"/>
<path d="M73.0893 50.617C73.8696 50.617 74.5023 50.1765 74.5023 49.633C74.5023 49.0896 73.8696 48.649 73.0893 48.649C72.3089 48.649 71.6763 49.0896 71.6763 49.633C71.6763 50.1765 72.3089 50.617 73.0893 50.617Z" fill="white"/>
<path d="M78.2274 50.617C79.0078 50.617 79.6404 50.1765 79.6404 49.633C79.6404 49.0896 79.0078 48.649 78.2274 48.649C77.4471 48.649 76.8145 49.0896 76.8145 49.633C76.8145 50.1765 77.4471 50.617 78.2274 50.617Z" fill="white"/>
<path d="M83.3656 50.617C84.146 50.617 84.7786 50.1765 84.7786 49.633C84.7786 49.0896 84.146 48.649 83.3656 48.649C82.5852 48.649 81.9526 49.0896 81.9526 49.633C81.9526 50.1765 82.5852 50.617 83.3656 50.617Z" fill="white"/>
</svg>
