<svg width="150" height="150" viewBox="0 0 150 150" fill="none" xmlns="http://www.w3.org/2000/svg">
<path d="M74.525 0.552979C33.424 0.552979 0 33.991 0 75.092C0 116.205 33.425 149.644 74.525 149.644C115.627 149.644 149.049 116.206 149.049 75.092C149.05 33.99 115.627 0.552979 74.525 0.552979ZM74.525 143.246C36.957 143.246 6.396 112.673 6.396 75.092C6.396 37.522 36.957 6.94897 74.525 6.94897C112.096 6.94897 142.653 37.521 142.653 75.092C142.653 112.673 112.097 143.246 74.525 143.246Z" fill="#A6A5A4"/>
<path d="M59.76 54.848C59.572 54.834 59.372 54.834 59.188 54.834H58.733C40.608 54.834 26.069 65.669 25.616 79.477C25.616 79.623 25.616 79.796 25.616 79.943C25.656 87.86 30.52 95.376 38.69 100.214C38.143 101.228 37.211 102.694 35.998 104.479C35.198 105.719 34.398 106.958 33.759 108.091L33.532 108.518C33.012 109.463 32.532 110.371 32.506 111.582C32.28 112.781 33.306 114.594 34.745 114.888L34.944 114.941C35.224 115.008 35.451 115.034 35.745 115.034H35.77L35.797 115.021C37.342 114.928 38.488 114.328 39.929 113.555L40.701 113.169C42.433 112.209 44.513 110.942 46.498 109.73C47.458 109.13 48.418 108.544 49.351 107.984C50.83 107.091 52.11 106.371 53.002 105.906C53.482 105.666 53.895 105.479 54.162 105.373C54.188 105.359 54.215 105.346 54.215 105.346C55.695 105.519 57.108 105.626 58.613 105.653L59.638 105.667C77.764 105.667 92.303 94.831 92.715 81.024C92.715 80.865 92.715 80.718 92.715 80.545C92.598 66.549 78.111 55.261 59.76 54.848ZM87.173 80.889C87.053 91.485 74.686 100.106 59.639 100.106C59.319 100.106 59.026 100.106 58.733 100.106C57.361 100.081 55.948 99.973 54.696 99.814C54.508 99.76 54.163 99.76 54.055 99.76C52.55 99.867 51.47 100.44 50.123 101.158L49.257 101.626C47.618 102.531 45.699 103.705 43.807 104.878C43.007 105.357 42.207 105.838 41.435 106.316C42.181 105.183 42.914 104.023 43.528 102.932L43.714 102.584C44.261 101.585 44.74 100.652 44.808 99.319C44.9 98.452 44.394 96.92 43.076 96.294C35.613 92.456 31.16 86.339 31.16 79.941L31.187 79.661C31.294 69.026 43.648 60.378 58.734 60.378C59.027 60.378 59.32 60.378 59.574 60.391C74.66 60.724 87.308 69.947 87.175 80.555V80.889H87.173Z" fill="#A6A5A4"/>
<path d="M95.289 35.1631H94.97C94.77 35.1631 94.583 35.1631 94.449 35.1771C82.029 35.4571 71.261 41.6801 67.676 50.6761L67.223 51.8491L68.475 52.009C69.461 52.143 70.488 52.3021 71.448 52.5021L72.221 52.662L72.539 51.9551C75.712 45.1181 84.547 40.3891 94.61 40.1741C94.797 40.1601 95.062 40.16 95.289 40.16C107.965 40.16 118.345 47.3971 118.439 56.3011V56.54C118.439 61.885 114.721 67.0021 108.511 70.2001C107.256 70.7871 106.817 72.1601 106.91 72.8921C106.974 74.0781 107.389 74.877 107.841 75.717L108.029 76.0641C108.417 76.7841 108.895 77.5561 109.403 78.3561C108.895 78.0501 108.388 77.716 107.841 77.397C106.27 76.437 104.738 75.4781 103.352 74.7181L102.646 74.3441C101.5 73.7181 100.567 73.2381 99.194 73.1321C98.995 73.1321 98.807 73.1581 98.781 73.1581C98.448 73.2121 98.101 73.224 97.756 73.251L96.116 73.358L96.343 74.7971C96.408 75.1561 96.462 75.516 96.462 75.889L96.568 76.342L96.502 78.3821L97.596 78.3021C98.102 78.2621 98.581 78.2211 99.101 78.1561V78.1691C99.354 78.2631 99.674 78.409 100.061 78.608C100.887 79.036 101.981 79.6611 103.125 80.3801C103.924 80.8461 104.739 81.3541 105.566 81.8591C107.256 82.8731 108.989 83.939 110.496 84.764L111.137 85.0981C112.363 85.7511 113.323 86.257 114.667 86.337H114.722C114.987 86.337 115.201 86.3231 115.333 86.2831L115.52 86.243C116.866 85.936 117.839 84.3241 117.638 83.3781C117.574 82.2051 117.159 81.4331 116.707 80.6071L116.519 80.22C115.973 79.286 115.307 78.2471 114.628 77.1951C113.668 75.7561 112.895 74.57 112.414 73.73C119.306 69.598 123.411 63.2281 123.437 56.5381C123.437 56.4051 123.437 56.2581 123.437 56.1511C123.05 44.3861 110.696 35.1631 95.289 35.1631Z" fill="#A6A5A4"/>
</svg>
