<svg width="150" height="150" viewBox="0 0 150 150" fill="none" xmlns="http://www.w3.org/2000/svg">
<path d="M74.775 0C33.537 0 0 33.55 0 74.789C0 116.042 33.537 149.592 74.775 149.592C116.028 149.592 149.591 116.042 149.591 74.789C149.592 33.551 116.028 0 74.775 0ZM74.775 143.173C37.08 143.173 6.418 112.498 6.418 74.789C6.418 37.094 37.08 6.418 74.775 6.418C112.485 6.418 143.173 37.093 143.173 74.789C143.174 112.498 112.485 143.173 74.775 143.173Z" fill="#A6A5A4"/>
<path d="M117.044 42.7771H87.44L86.705 49.0751H113.862V103.204H35.704V49.0751H64.12L63.37 42.7771H32.548C30.823 42.7771 29.405 44.1941 29.405 45.9321V106.36C29.405 108.098 30.823 109.515 32.548 109.515H117.045C118.783 109.515 120.189 108.098 120.189 106.36V45.9321C120.187 44.1951 118.782 42.7771 117.044 42.7771Z" fill="#A6A5A4"/>
<path d="M80.084 31.9199H70.697C69.801 31.9199 68.959 32.2939 68.357 32.9759C67.742 33.6439 67.488 34.5399 67.582 35.4359L69.454 51.2419C69.641 52.8329 70.992 54.0239 72.596 54.0239H78.226C79.83 54.0239 81.181 52.8339 81.342 51.2419L81.596 49.0759L82.077 45.1709L83.24 35.4359C83.334 34.5399 83.04 33.6439 82.465 32.9759C81.849 32.2939 80.98 31.9199 80.084 31.9199Z" fill="#A6A5A4"/>
<path d="M105.826 81.061H82.371C81.689 81.061 81.114 81.636 81.114 82.332C81.114 83.027 81.689 83.589 82.371 83.589H105.826C106.534 83.589 107.083 83.027 107.083 82.332C107.083 81.636 106.534 81.061 105.826 81.061Z" fill="#A6A5A4"/>
<path d="M105.826 71.0989H82.371C81.689 71.0989 81.114 71.6599 81.114 72.3549C81.114 73.0509 81.689 73.6259 82.371 73.6259H105.826C106.534 73.6259 107.083 73.0509 107.083 72.3549C107.083 71.6599 106.534 71.0989 105.826 71.0989Z" fill="#A6A5A4"/>
<path d="M74.295 72.4759L68.906 72.3559L65.722 72.2889L64.372 72.2759L63.729 72.2489L63.368 71.2999L60.253 62.3539C60.093 61.9789 59.745 61.7119 59.357 61.7119C58.942 61.7119 58.581 61.9789 58.461 62.3539L55.306 71.2999L54.958 72.2489L54.343 72.2759L52.965 72.2889L49.782 72.3559L44.38 72.4759C43.966 72.4759 43.605 72.7439 43.484 73.1319C43.35 73.5189 43.484 73.9469 43.832 74.1879L52.257 80.5129L49.195 90.5409C49.075 90.9299 49.195 91.3429 49.515 91.5839C49.622 91.6379 49.716 91.6909 49.81 91.7179C49.836 91.7319 49.876 91.7319 49.904 91.7449C49.97 91.7579 50.038 91.7709 50.105 91.7709C50.171 91.7709 50.224 91.7579 50.292 91.7449C50.318 91.7319 50.359 91.7449 50.385 91.7319C50.48 91.7049 50.546 91.6509 50.654 91.5969L59.359 85.6069L68.038 91.5969C68.198 91.7179 68.385 91.7709 68.585 91.7709C68.773 91.7709 69 91.7169 69.161 91.5829C69.481 91.3419 69.601 90.9289 69.509 90.5399L66.433 80.5109L74.884 74.1859C75.205 73.9449 75.325 73.5169 75.205 73.1299C75.07 72.7429 74.723 72.4759 74.295 72.4759Z" fill="#A6A5A4"/>
</svg>
