<svg width="100" height="100" viewBox="0 0 100 100" fill="none" xmlns="http://www.w3.org/2000/svg">
<path d="M50 80C66.602 80 80 66.5048 80 50C80 33.398 66.5048 20 50 20C33.398 20 20 33.4952 20 50C20 66.602 33.4952 80 50 80Z" stroke="#FEFEFE" stroke-width="2" stroke-linecap="round"/>
<path d="M61.8687 58.9262C62.3768 58.5023 63 57.8428 63 56.8133C63 55.8914 62.6139 55.279 62.2616 54.8551C62.221 54.7743 62.1871 54.7003 62.1532 54.6263L62.1397 54.5523C62.0922 54.3167 62.1397 54.0745 62.2751 53.8794C62.5055 53.5429 62.6681 53.0517 62.6681 52.15C62.6681 51.3694 62.3429 50.9118 62.0109 50.5888C61.7129 50.2994 61.5977 49.7477 61.7332 49.3574C62.0584 48.422 61.7467 47.4463 61.1777 46.8137C60.4664 46.0197 59.8025 45.9255 58.0344 46.0264C56.815 46.1005 54.2746 46.4907 52.6014 46.7532C51.9171 46.8608 51.321 46.9551 51.1381 46.9685C50.2777 47.056 50.1084 46.9685 50.0271 46.6388C49.9932 46.4975 50.1558 46.1745 50.359 45.764C50.63 45.2189 51.0026 44.472 51.3413 43.355C52.0255 41.1209 51.951 38.6984 51.1584 37.2853C50.7858 36.6191 50.1558 36 49.3768 36C48.5977 36 47.7983 36.1615 47.4867 36.5316C47.2564 36.8008 47.3309 37.3122 47.0667 38.335C46.8567 39.1694 46.5925 40.4143 46.2538 41.1613C45.7457 42.2783 43.5644 44.1961 42.3924 45.2257C42.1146 45.4679 41.8775 45.6765 41.7082 45.838C41.1188 46.3831 40.5159 47.2579 39.9807 48.0385C39.6149 48.5633 39.2762 49.0613 39.0526 49.2833C38.5717 49.7611 37.9281 50.0168 37.5419 50.0168C37.2439 50.0168 37 50.2591 37 50.5552V61.2881C37 61.5977 37.2507 61.8467 37.5623 61.8467C39.9672 61.8467 40.9833 62.237 42.0604 62.6407C42.8869 62.957 43.7473 63.28 45.2038 63.4549C47.3986 63.7241 50.2303 64 52.8317 64C54.2137 64 55.5347 63.8654 56.666 63.7376C58.766 63.4953 61.0151 63.0108 61.7603 61.2478C62.038 60.595 61.9093 60.0634 61.7264 59.653C61.6993 59.5991 61.679 59.5386 61.6722 59.478C61.6316 59.2559 61.7129 59.0541 61.8687 58.9262Z" fill="white"/>
</svg>
