<svg width="149" height="152" viewBox="0 0 149 152" fill="none" xmlns="http://www.w3.org/2000/svg">
<path d="M74.409 151.653C33.38 151.653 0 117.636 0 75.826C0 34.016 33.38 0 74.409 0C115.446 0 148.833 34.016 148.833 75.826C148.833 117.636 115.447 151.653 74.409 151.653ZM74.409 6.527C36.9 6.527 6.38501 37.614 6.38501 75.826C6.38501 114.038 36.901 145.126 74.409 145.126C111.926 145.126 142.448 114.038 142.448 75.826C142.448 37.614 111.926 6.527 74.409 6.527Z" fill="#A6A5A4"/>
<path d="M111.828 37.1109C108.343 33.5739 102.594 35.2549 94.598 42.1409L90.405 45.8409L40.838 41.8689C36.74 41.3689 33.866 41.9639 32.176 43.6719L29.009 46.8989L74.384 63.6519L55.81 85.6129L39.175 84.6639L33.094 90.8449L53.466 95.1969L58.936 117.13L64.978 110.95L64.06 94.0169L85.643 75.0939L102.21 121.48L105.375 118.254C107.066 116.546 107.65 113.605 107.173 109.429L103.26 58.9349L106.906 54.6649C107.707 53.5939 108.451 52.6039 109.116 51.7239C109.822 50.8429 110.618 49.6089 111.551 48.0369C112.469 46.4379 113.054 44.5259 113.28 42.2889C113.492 40.0389 113.013 38.3049 111.828 37.1109Z" fill="#A6A5A4"/>
</svg>
