<svg width="149" height="150" viewBox="0 0 149 150" fill="none" xmlns="http://www.w3.org/2000/svg">
<path d="M74.7223 0.625977C33.8043 0.625977 0.529297 33.914 0.529297 74.832C0.529297 115.763 33.8043 149.051 74.7223 149.051C115.638 149.051 148.927 115.763 148.927 74.832C148.927 33.914 115.638 0.625977 74.7223 0.625977ZM74.7223 142.683C37.3203 142.683 6.8983 112.247 6.8983 74.832C6.8983 37.431 37.3203 6.99498 74.7223 6.99498C112.122 6.99498 142.559 37.431 142.559 74.832C142.559 112.247 112.122 142.683 74.7223 142.683Z" fill="#A6A5A4"/>
<path d="M95.2599 32.827C94.7149 32.296 93.9869 31.991 93.2569 31.991H43.7019C42.0689 31.991 40.7959 33.291 40.7959 34.896V114.78C40.7959 116.385 42.0689 117.686 43.7019 117.686H105.754C107.347 117.686 108.66 116.385 108.66 114.78V47.235C108.66 46.452 108.341 45.709 107.796 45.165L95.2599 32.827ZM102.849 111.875H46.6059V37.789H91.5029V47.262C91.5029 48.23 92.2589 49 93.2559 49H102.848V111.875H102.849Z" fill="#A6A5A4"/>
<path d="M82.2823 76.265L89.8464 68.689C90.5094 68.025 90.5094 66.911 89.8464 66.234L83.9144 60.317C83.2784 59.667 82.1243 59.667 81.4463 60.317L73.8974 67.88L66.3343 60.317C65.6983 59.667 64.5183 59.667 63.8813 60.317L57.8584 66.327C57.1944 67.004 57.1944 68.118 57.8584 68.795L65.4203 76.344L57.9243 83.853C57.2463 84.53 57.2463 85.644 57.9243 86.321L63.8154 92.238C64.5184 92.915 65.6063 92.915 66.3093 92.238L73.8053 84.729L81.4203 92.332C81.7383 92.677 82.1913 92.849 82.6283 92.849C83.0793 92.849 83.5283 92.677 83.8753 92.332L89.8724 86.322C90.2174 85.99 90.3764 85.552 90.3764 85.088C90.3764 84.624 90.2174 84.186 89.8724 83.854L82.2823 76.265Z" fill="#A6A5A4"/>
</svg>
