<svg width="150" height="149" viewBox="0 0 150 149" fill="none" xmlns="http://www.w3.org/2000/svg">
<path d="M74.8618 0.415985C33.9478 0.415985 0.675781 33.715 0.675781 74.629C0.675781 115.543 33.9468 148.842 74.8618 148.842C115.79 148.842 149.089 115.543 149.089 74.629C149.089 33.715 115.79 0.415985 74.8618 0.415985ZM74.8618 142.475C37.4638 142.475 7.04378 112.041 7.04378 74.629C7.04378 37.231 37.4638 6.811 74.8618 6.811C112.274 6.811 142.721 37.231 142.721 74.629C142.722 112.041 112.274 142.475 74.8618 142.475Z" fill="#A6A5A4"/>
<path d="M102.219 60.926C101.489 60.926 100.786 60.965 100.056 61.031C97.6559 53.23 90.4239 47.685 81.9999 47.685C81.0189 47.685 79.6789 47.764 78.4319 47.923C73.6559 43.863 68.6149 41.966 62.6849 41.966C50.0809 41.966 39.8259 51.027 37.7439 63.749C32.2379 67.159 28.6299 72.931 28.6299 78.556C28.6299 88.293 36.7229 96.201 46.6469 96.201H63.9589V89.846H46.6459C39.4409 89.846 35.0109 83.983 35.0109 78.557C35.0109 74.828 37.9429 70.716 42.1219 68.567L43.6469 67.785L43.8329 66.073C44.9209 55.792 52.8659 48.323 62.6849 48.323C67.4599 48.323 71.3609 49.954 75.3149 53.642L76.5469 54.796L78.2059 54.399C79.0419 54.2 80.9269 54.04 81.9999 54.04C88.3549 54.04 93.6749 58.79 94.4439 65.079L94.8549 68.7L98.3969 67.771C99.6299 67.439 100.905 67.28 102.218 67.28C108.878 67.28 114.755 72.548 114.755 78.557C114.755 84.579 108.878 89.846 102.218 89.846H84.4939V96.201H102.219C112.448 96.201 121.123 88.122 121.123 78.556C121.123 69.004 112.447 60.926 102.219 60.926Z" fill="#A6A5A4"/>
<path d="M75.6315 63.035C75.2745 62.544 74.7035 62.252 74.0935 62.252C73.4965 62.252 72.9125 62.544 72.5285 63.035L59.8195 80.586C59.3935 81.156 59.3275 81.926 59.6455 82.563C59.9775 83.2 60.6415 83.611 61.3445 83.611H69.1175V105.409C69.1175 106.456 69.9805 107.305 71.0275 107.305H77.1575C78.2055 107.305 79.0415 106.455 79.0415 105.409V83.61H86.8545C87.9025 83.61 88.7655 82.748 88.7655 81.701C88.7655 81.183 88.5655 80.705 88.2215 80.36L75.6315 63.035Z" fill="#A6A5A4"/>
</svg>
