<svg width="150" height="151" viewBox="0 0 150 151" fill="none" xmlns="http://www.w3.org/2000/svg">
<path d="M74.992 150.01C33.64 150.01 0 116.364 0 75.005C0 33.647 33.641 0 74.992 0C116.343 0 149.983 33.647 149.983 75.005C149.983 116.364 116.342 150.01 74.992 150.01ZM74.992 6.446C37.195 6.446 6.44501 37.202 6.44501 75.006C6.44501 112.81 37.195 143.566 74.992 143.566C112.788 143.566 143.538 112.81 143.538 75.006C143.538 37.202 112.788 6.446 74.992 6.446Z" fill="#A6A5A4"/>
<path d="M120.558 43.9489C118.493 41.8839 115.114 41.8839 113.049 43.9489L112.057 44.9679L103.809 39.1879L106.021 36.9349C108.126 34.8699 108.126 31.5039 106.061 29.4389C103.997 27.3599 100.618 27.3599 98.552 29.4389L93.685 34.3069C87.462 40.5029 86.47 47.0199 86.269 51.9949C86.243 52.6659 86.202 53.3359 86.202 54.0059C86.243 55.8299 86.296 57.6279 86.404 59.3699C86.497 61.0869 86.5639 62.6019 86.5639 64.1439C86.5899 64.8409 86.5639 65.5249 86.5639 66.2089C86.4699 67.8719 86.295 69.6549 85.787 71.5199L76.373 64.9219C78.733 63.9569 80.986 63.6079 83.078 63.4879C83.052 62.2539 82.983 60.9669 82.917 59.5719C82.85 57.9219 82.757 56.2999 82.729 54.6369C75.89 54.5159 68.6749 55.4409 62.0639 62.0659C55.1989 68.9179 54.46 76.3999 54.649 83.4409C54.649 84.1239 54.689 84.7949 54.716 85.4649C54.755 86.0279 54.782 86.5909 54.81 87.1549C54.944 90.0919 55.1049 93.1359 54.7829 96.0189C54.6889 96.7969 54.5549 97.5069 54.4339 98.1779C54.1129 99.7199 53.589 101.154 52.946 102.522L46.147 97.7619C47.755 96.8099 49.4589 96.1259 51.2959 95.6829C51.6179 93.0949 51.457 90.2919 51.336 87.3289L51.269 86.2969C46.402 86.5649 40.22 87.7719 34.32 93.6719L29.425 98.5529C27.36 100.618 27.36 103.984 29.425 106.05C31.517 108.114 34.8679 108.114 36.9209 106.05L38.021 104.937L46.267 110.716L43.948 113.064C41.856 115.142 41.856 118.495 43.948 120.559C46.013 122.637 49.365 122.637 51.431 120.559L56.326 115.691C62.52 109.497 63.554 102.993 63.74 98.0039C63.74 97.3339 63.781 96.6639 63.781 95.9929C63.781 94.2089 63.6739 92.4389 63.5799 90.7229C63.4859 88.9929 63.419 87.4239 63.419 85.8689C63.393 85.1719 63.419 84.4739 63.445 83.7899C63.512 82.0339 63.7149 80.1429 64.2909 78.1579L73.959 84.9299C71.479 86.0019 69.092 86.3779 66.905 86.5129C66.931 87.7869 67 89.0869 67.066 90.4289C67.16 92.0379 67.227 93.6739 67.254 95.3639C74.094 95.4849 81.308 94.5459 87.919 87.9349C94.784 81.0829 95.549 73.6139 95.321 66.5599C95.321 65.8759 95.294 65.2059 95.267 64.5349L95.16 62.8459C95.039 59.9089 94.878 56.8649 95.227 53.9819C95.293 53.1909 95.428 52.4929 95.548 51.8229C95.91 50.2269 96.42 48.7529 97.104 47.3579L103.97 52.1589C102.321 53.1509 100.577 53.8619 98.673 54.3309C98.391 56.9189 98.512 59.7079 98.646 62.6719L98.7129 63.7039C103.58 63.4359 109.763 62.2289 115.69 56.3289L120.558 51.4479C122.623 49.3789 122.623 46.0129 120.558 43.9489ZM48.816 108.181L48.654 108.355L40.4079 102.589L41.789 101.168C42.312 100.671 42.795 100.229 43.305 99.7989L51.243 105.351C50.533 106.317 49.754 107.256 48.816 108.181ZM77.1499 83.1579L65.55 75.0179C66.101 73.9309 66.798 72.8049 67.669 71.6789L80.3009 80.5299C79.2429 81.5759 78.2089 82.4339 77.1499 83.1579ZM82.501 78.0499L69.9369 69.2389C70.9969 68.2059 72.055 67.3479 73.115 66.6509L84.594 74.6829C84.043 75.7959 83.373 76.9229 82.501 78.0499ZM108.18 48.8289C107.737 49.2849 107.255 49.7139 106.773 50.1159L98.834 44.5379C99.518 43.6119 100.256 42.7009 101.154 41.8149L101.449 41.5469L109.697 47.3259L108.18 48.8289Z" fill="#A6A5A4"/>
</svg>
