<svg width="151" height="151" viewBox="0 0 151 151" fill="none" xmlns="http://www.w3.org/2000/svg">
<path d="M75.727 147.456C115.269 147.456 147.44 115.284 147.44 75.728C147.44 36.186 115.269 4 75.727 4C36.172 4 4 36.186 4 75.728C4 115.284 36.172 147.456 75.727 147.456Z" stroke="#A6A5A4" stroke-width="6.4408" stroke-linecap="round"/>
<path d="M75.713 58.014C78.164 58.014 80.576 58.483 82.962 59.354C92.851 38.571 88.12 32.434 84.702 37.714C81.193 43.167 80.804 51.944 68.703 37.486C58.227 25.024 66.025 51.757 68.383 59.394C70.755 58.497 73.234 58.014 75.713 58.014Z" fill="#A6A5A4"/>
<path d="M75.713 62.9189C61.096 62.9189 49.223 84.6659 49.223 100.665C49.223 116.665 61.096 122.318 75.713 122.318C90.371 122.318 102.216 116.665 102.216 100.665C102.216 84.6659 90.371 62.9189 75.713 62.9189ZM84.086 103.734C83.443 104.913 82.52 105.878 81.286 106.616C80.067 107.365 78.62 107.807 76.904 107.955V110.89C76.904 111.587 76.851 112.083 76.718 112.405C76.556 112.725 76.261 112.887 75.82 112.887C75.39 112.887 75.069 112.753 74.908 112.498C74.748 112.242 74.653 111.827 74.653 111.291V107.982C73.274 107.835 72.082 107.499 71.049 107.016C69.992 106.507 69.147 105.892 68.438 105.155C67.768 104.417 67.245 103.64 66.897 102.85C66.575 102.046 66.415 101.269 66.415 100.491C66.415 99.9289 66.643 99.4059 67.085 98.9639C67.513 98.5089 68.089 98.2799 68.733 98.2799C69.282 98.2799 69.698 98.4009 70.085 98.6549C70.435 98.8959 70.702 99.2449 70.863 99.6999C71.184 100.664 71.439 101.402 71.693 101.925C71.921 102.433 72.27 102.903 72.753 103.331C73.234 103.761 73.878 104.082 74.654 104.31V96.0559C73.075 95.6269 71.761 95.1309 70.702 94.5949C69.63 94.0459 68.76 93.2819 68.089 92.2909C67.446 91.2989 67.085 90.0259 67.085 88.4579C67.085 86.4199 67.769 84.7599 69.054 83.4599C70.342 82.1599 72.216 81.3969 74.655 81.1819V78.5559C74.655 77.5639 75.045 77.0689 75.782 77.0689C76.531 77.0689 76.906 77.5649 76.906 78.5289V81.1819C78.206 81.3159 79.264 81.5709 80.163 81.9729C81.061 82.3609 81.878 82.9509 82.547 83.7419C83.059 84.3449 83.485 84.9749 83.768 85.6039C84.06 86.2339 84.22 86.8229 84.22 87.3589C84.22 87.9489 83.993 88.4719 83.579 88.8999C83.122 89.3299 82.613 89.5439 81.997 89.5439C80.844 89.5439 80.067 88.9139 79.745 87.6679C79.357 86.1799 78.392 85.2019 76.904 84.7199V92.1019C78.392 92.5049 79.558 92.8659 80.415 93.2009C81.286 93.5219 82.063 94.0049 82.734 94.6349C83.483 95.2779 84.059 96.0699 84.449 96.9799C84.864 97.8769 85.024 98.8699 85.024 99.9409C85.025 101.295 84.731 102.555 84.086 103.734Z" fill="#A6A5A4"/>
<path d="M76.905 96.7119V104.485C78.098 104.256 79.036 103.774 79.68 103.05C80.323 102.327 80.643 101.495 80.643 100.531C80.643 99.4989 80.363 98.7089 79.719 98.1459C79.062 97.5829 78.139 97.0999 76.905 96.7119Z" fill="#A6A5A4"/>
<path d="M71.504 88.0159C71.504 88.9529 71.761 89.6629 72.27 90.1319C72.819 90.6289 73.596 91.0569 74.654 91.4459V84.6389C73.663 84.9469 72.885 85.3359 72.337 85.8179C71.785 86.2999 71.504 87.0379 71.504 88.0159Z" fill="#A6A5A4"/>
</svg>
