<svg width="148" height="149" viewBox="0 0 148 149" fill="none" xmlns="http://www.w3.org/2000/svg">
<path d="M73.8867 0.640991C33.1507 0.640991 0.00976562 33.782 0.00976562 74.517C0.00976562 115.252 33.1507 148.393 73.8867 148.393C114.621 148.393 147.749 115.252 147.749 74.517C147.749 33.782 114.621 0.640991 73.8867 0.640991ZM73.8867 142.053C36.6507 142.053 6.34976 111.752 6.34976 74.517C6.34976 37.282 36.6507 6.98099 73.8867 6.98099C111.121 6.98099 141.408 37.282 141.408 74.517C141.408 111.752 111.121 142.053 73.8867 142.053Z" fill="#A6A5A4"/>
<path d="M124.832 77.885C120.988 74.173 116.285 71.531 111.24 70.264C111.121 70.198 110.963 70.158 110.83 70.158H110.354C110.222 70.158 110.064 70.198 109.946 70.264C108.414 71.082 106.326 71.558 104.226 71.558C102.099 71.558 99.9987 71.082 98.4797 70.264C98.3607 70.198 98.2027 70.158 98.0697 70.158H97.7147C97.6617 70.158 97.5957 70.172 97.5287 70.184C95.2697 70.713 93.1167 71.532 91.0557 72.588C89.9727 76.286 87.9387 79.826 85.1787 82.548H124.224C124.699 82.548 125.083 82.152 125.083 81.662V78.532C125.084 78.294 124.99 78.069 124.832 77.885Z" fill="#A6A5A4"/>
<path d="M113.115 54.704C113.432 53.7 113.631 52.603 113.631 51.48C113.631 45.972 109.404 41.495 104.227 41.495C99.0224 41.495 94.7953 45.973 94.7953 51.48C94.7953 52.603 94.9933 53.7 95.3113 54.704C94.7293 54.968 94.3604 55.575 94.3604 56.263C94.3604 57.213 95.0874 57.98 95.9724 57.98C95.9724 57.98 95.9724 57.98 96.0124 57.98C96.3284 62.497 99.8814 67.001 104.227 67.001C108.545 67.001 112.099 62.496 112.456 57.98C113.367 57.98 114.066 57.213 114.066 56.263C114.066 55.575 113.684 54.968 113.115 54.704Z" fill="#A6A5A4"/>
<path d="M50.5718 70.264C50.4528 70.198 50.2948 70.158 50.1628 70.158H49.6868C49.5688 70.158 49.3958 70.198 49.2778 70.264C47.7568 71.082 45.6588 71.558 43.5578 71.558C41.4328 71.558 39.3448 71.082 37.8118 70.264C37.6928 70.198 37.5348 70.158 37.4038 70.158H37.0598C36.9938 70.158 36.9268 70.172 36.8608 70.184C31.6828 71.413 26.8618 74.08 22.9248 77.885C22.7678 78.07 22.6748 78.294 22.6748 78.532V81.662C22.6748 82.151 23.0588 82.548 23.5608 82.548H62.1028C59.2768 79.761 57.2158 76.102 56.1598 72.298C54.3508 71.426 52.4868 70.752 50.5718 70.264Z" fill="#A6A5A4"/>
<path d="M52.4474 54.704C52.8044 53.7 52.9634 52.603 52.9634 51.48C52.9634 45.972 48.7364 41.495 43.5594 41.495C38.3554 41.495 34.1294 45.973 34.1294 51.48C34.1294 52.603 34.3264 53.7 34.6434 54.704C34.0764 54.968 33.6924 55.575 33.6924 56.263C33.6924 57.213 34.4194 57.98 35.3044 57.98C35.3044 57.98 35.3044 57.98 35.3444 57.98C35.6604 62.497 39.2134 67.001 43.5594 67.001C47.8794 67.001 51.4324 62.496 51.7884 57.98C51.7884 57.98 51.7884 57.98 51.8154 57.98C52.7004 57.98 53.4014 57.213 53.4014 56.263C53.4004 55.575 53.0164 54.968 52.4474 54.704Z" fill="#A6A5A4"/>
<path d="M88.865 62.431C89.406 60.701 89.722 58.852 89.722 56.923C89.722 47.505 82.511 39.87 73.621 39.87C64.771 39.87 57.559 47.505 57.559 56.923C57.559 58.852 57.875 60.7 58.416 62.431C57.466 62.893 56.791 63.91 56.791 65.099C56.791 66.711 58.033 68.018 59.566 68.018H59.591C59.816 70.912 60.792 73.79 62.351 76.287C62.96 77.265 63.66 78.177 64.413 78.995C66.896 81.663 70.094 83.42 73.62 83.42C77.396 83.42 80.832 81.426 83.342 78.454C83.658 78.084 83.937 77.714 84.227 77.317C86.168 74.623 87.437 71.321 87.688 68.018C87.688 68.018 87.714 68.018 87.752 68.018C89.245 68.018 90.475 66.711 90.475 65.099C90.477 63.91 89.816 62.893 88.865 62.431Z" fill="#A6A5A4"/>
<path d="M85.6286 88.215C85.4306 88.096 85.1796 88.042 84.9286 88.042H84.1356C83.9116 88.042 83.6596 88.096 83.4356 88.215C80.8336 89.614 77.2806 90.406 73.6226 90.406C70.0026 90.406 66.4496 89.6 63.8486 88.215C63.6236 88.096 63.3726 88.042 63.1476 88.042H62.5816C62.4486 88.042 62.3306 88.056 62.2246 88.069C53.3746 90.169 45.1446 94.725 38.4496 101.238C38.1716 101.528 37.9746 101.911 37.9746 102.321V107.671C37.9746 108.504 38.6466 109.163 39.5056 109.163H107.822C108.64 109.163 109.314 108.504 109.314 107.671V102.321C109.314 101.911 109.115 101.528 108.837 101.238C102.258 94.871 94.2536 90.367 85.6286 88.215Z" fill="#A6A5A4"/>
</svg>
