<svg width="153" height="45" viewBox="0 0 153 45" fill="none" xmlns="http://www.w3.org/2000/svg">
<path d="M20.6557 0.442215C17.2792 0.442215 14.5648 3.11085 14.5648 6.43038C14.5648 9.7499 17.2792 12.4185 20.6557 12.4185C24.0322 12.4185 26.7466 9.7499 26.7466 6.43038C26.7466 3.11085 24.0322 0.442215 20.6557 0.442215ZM20.6557 10.0753C18.6033 10.0753 16.882 8.44813 16.882 6.36529C16.882 4.34754 18.5371 2.65523 20.6557 2.65523C22.7081 2.65523 24.4294 4.28245 24.4294 6.36529C24.4294 8.38304 22.7743 10.0753 20.6557 10.0753Z" fill="#FEFEFE"/>
<path d="M35.1547 8.18776C31.7782 8.18776 29.0638 10.8564 29.0638 14.1759C29.0638 17.4954 31.7782 20.1641 35.1547 20.1641C38.5312 20.1641 41.2456 17.4954 41.2456 14.1759C41.2456 10.8564 38.5312 8.18776 35.1547 8.18776ZM35.1547 17.8209C33.1023 17.8209 31.381 16.1937 31.381 14.1108C31.381 12.0931 33.0361 10.4008 35.1547 10.4008C37.2071 10.4008 38.9284 12.028 38.9284 14.1108C38.9284 16.1286 37.2733 17.8209 35.1547 17.8209Z" fill="#FEFEFE"/>
<path d="M6.09089 8.18776C2.71442 8.18776 0 10.8564 0 14.1759C0 17.4954 2.71442 20.1641 6.09089 20.1641C9.46736 20.1641 12.1818 17.4954 12.1818 14.1759C12.1818 10.8564 9.46736 8.18776 6.09089 8.18776ZM6.09089 17.8209C4.03852 17.8209 2.31719 16.1937 2.31719 14.1108C2.31719 12.0931 3.97232 10.4008 6.09089 10.4008C8.14325 10.4008 9.86459 12.028 9.86459 14.1108C9.86459 16.1286 8.20946 17.8209 6.09089 17.8209Z" fill="#FEFEFE"/>
<path d="M20.6557 44.4422C24.0322 44.4422 26.7466 41.7736 26.7466 38.4541C26.7466 35.1345 24.0322 32.4659 20.6557 32.4659C17.2792 32.4659 14.5648 35.1345 14.5648 38.4541C14.5648 41.7736 17.2792 44.4422 20.6557 44.4422ZM20.6557 34.8091C22.7081 34.8091 24.4294 36.4363 24.4294 38.5191C24.4294 40.5369 22.7743 42.2292 20.6557 42.2292C18.6033 42.2292 16.882 40.602 16.882 38.5191C16.882 36.5014 18.5371 34.8091 20.6557 34.8091Z" fill="#FEFEFE"/>
<path d="M6.09089 36.6967C9.46736 36.6967 12.1818 34.028 12.1818 30.7085C12.1818 27.389 9.46736 24.7204 6.09089 24.7204C2.71442 24.7204 0 27.389 0 30.7085C0 34.028 2.71442 36.6967 6.09089 36.6967ZM6.09089 27.0635C8.14325 27.0635 9.86459 28.6908 9.86459 30.7736C9.86459 32.7914 8.20946 34.4837 6.09089 34.4837C4.03852 34.4837 2.31719 32.8564 2.31719 30.7736C2.31719 28.7559 3.97232 27.0635 6.09089 27.0635Z" fill="#FEFEFE"/>
<path d="M35.1547 36.6967C38.5312 36.6967 41.2456 34.028 41.2456 30.7085C41.2456 27.389 38.5312 24.7204 35.1547 24.7204C31.7782 24.7204 29.0638 27.389 29.0638 30.7085C29.0638 34.028 31.7782 36.6967 35.1547 36.6967ZM35.1547 27.0635C37.2071 27.0635 38.9284 28.6908 38.9284 30.7736C38.9284 32.7914 37.2733 34.4837 35.1547 34.4837C33.1023 34.4837 31.381 32.8564 31.381 30.7736C31.381 28.7559 33.0361 27.0635 35.1547 27.0635Z" fill="#FEFEFE"/>
<path d="M19.3977 17.7558C19.3977 18.7972 18.537 19.6434 17.4777 19.6434C16.4184 19.6434 15.5578 18.7972 15.5578 17.7558C15.5578 16.7144 16.4184 15.8682 17.4777 15.8682C18.537 15.8682 19.3977 16.7144 19.3977 17.7558Z" fill="#FEFEFE"/>
<path d="M25.4885 17.7558C25.4885 18.7972 24.6278 19.6434 23.5685 19.6434C22.5092 19.6434 21.6486 18.7972 21.6486 17.7558C21.6486 16.7144 22.5092 15.8682 23.5685 15.8682C24.6278 15.8682 25.4885 16.7144 25.4885 17.7558Z" fill="#FEFEFE"/>
<path d="M19.3977 27.1286C19.3977 28.17 18.537 29.0162 17.4777 29.0162C16.4184 29.0162 15.5578 28.17 15.5578 27.1286C15.5578 26.0872 16.4184 25.241 17.4777 25.241C18.537 25.241 19.3977 26.0872 19.3977 27.1286Z" fill="#FEFEFE"/>
<path d="M25.4885 27.1286C25.4885 28.17 24.6278 29.0162 23.5685 29.0162C22.5092 29.0162 21.6486 28.17 21.6486 27.1286C21.6486 26.0872 22.5092 25.241 23.5685 25.241C24.6278 25.241 25.4885 26.0872 25.4885 27.1286Z" fill="#FEFEFE"/>
<path d="M28.402 22.4421C28.402 23.4836 27.5414 24.3297 26.4821 24.3297C25.4228 24.3297 24.5621 23.4836 24.5621 22.4421C24.5621 21.4007 25.4228 20.5546 26.4821 20.5546C27.5414 20.5546 28.402 21.4007 28.402 22.4421Z" fill="#FEFEFE"/>
<path d="M16.6832 22.4421C16.6832 23.4836 15.8225 24.3297 14.7632 24.3297C13.7039 24.3297 12.8433 23.4836 12.8433 22.4421C12.8433 21.4007 13.7039 20.5546 14.7632 20.5546C15.8225 20.5546 16.6832 21.4007 16.6832 22.4421Z" fill="#FEFEFE"/>
<path d="M54.023 28.17L54.8174 26.5428C55.9429 27.5191 57.8629 28.2351 59.7828 28.2351C62.3648 28.2351 63.4903 27.2588 63.4903 25.957C63.4903 22.312 54.354 24.6552 54.354 19.1227C54.354 16.8446 56.1415 14.8919 60.1139 14.8919C61.9014 14.8919 63.689 15.3475 64.9469 16.1937L64.2186 17.886C62.8945 17.0398 61.438 16.6493 60.1139 16.6493C57.5319 16.6493 56.4726 17.6907 56.4726 18.9925C56.4726 22.6375 65.6089 20.3594 65.6089 25.7617C65.6089 28.0398 63.7552 29.9925 59.7828 29.9925C57.4657 29.9925 55.2147 29.2114 54.023 28.1049V28.17Z" fill="#FEFEFE"/>
<path d="M80.9028 20.2292C80.9028 23.4186 78.5194 25.3712 74.6132 25.3712H70.9058V29.8624H68.721V15.0872H74.6132C78.5194 15.0872 80.9028 17.0399 80.9028 20.2292ZM78.718 20.2292C78.718 18.0813 77.2615 16.9097 74.547 16.9097H70.9058V23.5488H74.547C77.3277 23.5488 78.718 22.3121 78.718 20.2292Z" fill="#FEFEFE"/>
<path d="M95.0037 27.9747V29.8622H84.0798V15.022H94.6727V16.8445H86.1984V21.4007H93.7458V23.2232H86.1984V27.9747H95.0037Z" fill="#FEFEFE"/>
<path d="M97.1888 22.4422C97.1888 18.0813 100.565 14.8919 105.2 14.8919C107.517 14.8919 109.569 15.673 110.893 17.17L109.503 18.4718C108.311 17.2351 106.921 16.7144 105.266 16.7144C101.889 16.7144 99.3736 19.1227 99.3736 22.3771C99.3736 25.6316 101.889 28.0398 105.266 28.0398C106.921 28.0398 108.311 27.454 109.503 26.2824L110.893 27.5842C109.503 29.0813 107.517 29.9274 105.133 29.9274C100.565 29.9274 97.1888 26.7381 97.1888 22.3771V22.4422Z" fill="#FEFEFE"/>
<path d="M116.785 16.8445H111.621V15.022H124.068V16.8445H118.904V29.8622H116.785V16.8445Z" fill="#FEFEFE"/>
<path d="M136.515 29.8624L133.271 25.3061C132.94 25.3061 132.675 25.3712 132.344 25.3712H128.636V29.8624H126.452V15.0872H132.344C136.25 15.0872 138.633 17.0399 138.633 20.2292C138.633 22.5073 137.442 24.1346 135.323 24.9156L138.898 29.8624H136.581H136.515ZM136.449 20.2292C136.449 18.0813 134.992 16.9097 132.278 16.9097H128.636V23.5488H132.278C135.058 23.5488 136.449 22.3121 136.449 20.2292Z" fill="#FEFEFE"/>
<path d="M153 27.9747V29.8622H142.076V15.022H152.669V16.8445H144.195V21.4007H151.742V23.2232H144.195V27.9747H153Z" fill="#FEFEFE"/>
<path d="M66.8006 41.1877H63.6228L63.0269 42.6197H61.8352L64.6821 36.4362H65.8076L68.6544 42.6197H67.4627L66.8006 41.1877ZM66.4034 40.2765L65.2117 37.5427L64.02 40.2765H66.4034Z" fill="#FEFEFE"/>
<path d="M74.2159 40.2765C74.2159 41.7736 73.1566 42.6848 71.7663 42.6848C71.1042 42.6848 70.5746 42.4896 70.1774 42.0339V42.6197H69.1181V36.0458H70.2436V38.4541C70.6408 37.9984 71.1704 37.8032 71.7663 37.8032C73.1566 37.8032 74.2159 38.7795 74.2159 40.2114V40.2765ZM73.0904 40.2765C73.0904 39.3653 72.4945 38.7795 71.7001 38.7795C70.9056 38.7795 70.2436 39.3653 70.2436 40.2765C70.2436 41.1878 70.8394 41.7736 71.7001 41.7736C72.4945 41.7736 73.0904 41.1878 73.0904 40.2765Z" fill="#FEFEFE"/>
<path d="M74.6134 42.1641L75.0768 41.3179C75.474 41.5783 76.1361 41.7736 76.7319 41.7736C77.4602 41.7736 77.725 41.5783 77.725 41.2529C77.725 40.3416 74.7458 41.1878 74.7458 39.3002C74.7458 38.389 75.5402 37.8032 76.8643 37.8032C77.5264 37.8032 78.2546 37.9333 78.6519 38.1937L78.1884 39.0398C77.725 38.7795 77.2616 38.7144 76.7981 38.7144C76.1361 38.7144 75.8051 38.9097 75.8051 39.2351C75.8051 40.2114 78.7843 39.3653 78.7843 41.1878C78.7843 42.099 77.9236 42.6197 76.5995 42.6197C75.8051 42.6197 75.0106 42.3594 74.5471 42.099L74.6134 42.1641Z" fill="#FEFEFE"/>
<path d="M79.3135 40.2765C79.3135 38.8445 80.3728 37.8682 81.8955 37.8682C83.4183 37.8682 84.4775 38.8445 84.4775 40.2765C84.4775 41.7084 83.4183 42.6848 81.8955 42.6848C80.439 42.6848 79.3135 41.7084 79.3135 40.2765ZM83.2859 40.2765C83.2859 39.3652 82.69 38.7794 81.8293 38.7794C81.0349 38.7794 80.439 39.3652 80.439 40.2765C80.439 41.1877 81.0349 41.7735 81.8293 41.7735C82.6238 41.7735 83.2859 41.1877 83.2859 40.2765Z" fill="#FEFEFE"/>
<path d="M85.2063 42.6197H86.3318V36.1108H85.2063V42.6197Z" fill="#FEFEFE"/>
<path d="M92.0915 37.9334V42.6848H91.0322V42.099C90.7012 42.5547 90.1053 42.7499 89.5095 42.7499C88.2516 42.7499 87.4571 42.099 87.4571 40.6671V37.9985H88.5826V40.5369C88.5826 41.3831 88.9798 41.7736 89.7081 41.7736C90.5025 41.7736 91.0322 41.318 91.0322 40.3417V37.9334H92.1577H92.0915Z" fill="#FEFEFE"/>
<path d="M96.2616 42.3593C95.9968 42.5546 95.5996 42.6848 95.2024 42.6848C94.1431 42.6848 93.5472 42.1641 93.5472 41.1227V38.8446H92.7528V37.9333H93.5472V36.8268H94.6727V37.9333H95.9306V38.8446H94.6727V41.1227C94.6727 41.5783 94.9375 41.8386 95.3348 41.8386C95.5996 41.8386 95.7982 41.7735 95.9968 41.6434L96.3278 42.4244L96.2616 42.3593Z" fill="#FEFEFE"/>
<path d="M101.36 40.667H97.5859C97.7183 41.383 98.3141 41.7735 99.1086 41.7735C99.6382 41.7735 100.102 41.5783 100.433 41.2528L101.029 41.9037C100.565 42.4244 99.9031 42.6848 99.1086 42.6848C97.5197 42.6848 96.4604 41.6433 96.4604 40.2765C96.4604 38.8445 97.5197 37.8682 98.91 37.8682C100.3 37.8682 101.36 38.8445 101.36 40.2765C101.36 40.3416 101.36 40.4717 101.36 40.6019V40.667ZM97.5859 39.951H100.3C100.234 39.3002 99.7044 38.7794 98.91 38.7794C98.1817 38.7794 97.6521 39.2351 97.5197 39.951H97.5859Z" fill="#FEFEFE"/>
<path d="M104.604 39.5605C104.604 37.738 106.061 36.3712 107.98 36.3712C108.974 36.3712 109.9 36.7617 110.496 37.4126L109.768 38.1286C109.305 37.673 108.775 37.4126 108.113 37.4126C106.789 37.4126 105.862 38.3238 105.862 39.5605C105.862 40.8623 106.789 41.7085 108.113 41.7085C108.775 41.7085 109.305 41.4481 109.768 40.9925L110.496 41.7085C109.9 42.3593 109.04 42.7499 107.98 42.7499C106.061 42.7499 104.604 41.383 104.604 39.5605Z" fill="#FEFEFE"/>
<path d="M115.792 40.667H112.019C112.151 41.383 112.747 41.7735 113.608 41.7735C114.137 41.7735 114.601 41.5783 114.932 41.2528L115.528 41.9037C115.064 42.4244 114.402 42.6848 113.608 42.6848C112.019 42.6848 110.959 41.6433 110.959 40.2765C110.959 38.8445 112.019 37.8682 113.409 37.8682C114.799 37.8682 115.859 38.8445 115.859 40.2765C115.859 40.3416 115.859 40.4717 115.859 40.6019L115.792 40.667ZM112.019 39.951H114.733C114.667 39.3002 114.137 38.7794 113.343 38.7794C112.615 38.7794 112.085 39.2351 111.953 39.951H112.019Z" fill="#FEFEFE"/>
<path d="M119.301 37.8682V38.9096C119.169 38.9096 119.103 38.9096 119.037 38.9096C118.176 38.9096 117.646 39.4303 117.646 40.3416V42.6197H116.521V37.8682H117.58V38.5842C117.911 38.0635 118.507 37.8682 119.301 37.8682Z" fill="#FEFEFE"/>
<path d="M123.473 42.3593C123.208 42.5546 122.811 42.6848 122.413 42.6848C121.354 42.6848 120.758 42.1641 120.758 41.1227V38.8446H119.964V37.9333H120.758V36.8268H121.884V37.9333H123.142V38.8446H121.884V41.1227C121.884 41.5783 122.149 41.8386 122.546 41.8386C122.811 41.8386 123.009 41.7735 123.208 41.6434L123.539 42.4244L123.473 42.3593Z" fill="#FEFEFE"/>
<path d="M128.041 39.8859V42.6848H126.982V42.099C126.717 42.4895 126.187 42.7499 125.459 42.7499C124.334 42.7499 123.671 42.1641 123.671 41.3179C123.671 40.5368 124.201 39.8859 125.658 39.8859H126.916V39.8209C126.916 39.17 126.518 38.7794 125.724 38.7794C125.194 38.7794 124.598 38.9747 124.267 39.2351L123.804 38.454C124.334 38.0635 125.062 37.8682 125.856 37.8682C127.247 37.8682 128.041 38.5191 128.041 39.8859ZM126.916 41.1877V40.667H125.724C124.929 40.667 124.731 40.9274 124.731 41.3179C124.731 41.7084 125.062 41.9688 125.658 41.9688C126.187 41.9688 126.651 41.7084 126.849 41.2528L126.916 41.1877Z" fill="#FEFEFE"/>
<path d="M128.901 36.5014C128.901 36.1109 129.232 35.8505 129.63 35.8505C130.027 35.8505 130.358 36.1109 130.358 36.5014C130.358 36.8919 130.093 37.2174 129.63 37.2174C129.232 37.2174 128.901 36.957 128.901 36.5665V36.5014ZM129.034 37.9333H130.159V42.6848H129.034V37.9333Z" fill="#FEFEFE"/>
<path d="M135.985 39.9511V42.6848H134.86V40.1464C134.86 39.3002 134.463 38.9097 133.734 38.9097C132.94 38.9097 132.41 39.3653 132.41 40.3417V42.7499H131.285V37.9985H132.344V38.5843C132.741 38.1286 133.271 37.9334 133.999 37.9334C135.125 37.9334 135.985 38.5843 135.985 40.0162V39.9511Z" fill="#FEFEFE"/>
<path d="M140.09 42.3593C139.825 42.5546 139.428 42.6848 139.031 42.6848C137.972 42.6848 137.376 42.1641 137.376 41.1227V38.8446H136.581V37.9333H137.376V36.8268H138.501V37.9333H139.759V38.8446H138.501V41.1227C138.501 41.5783 138.766 41.8386 139.163 41.8386C139.428 41.8386 139.627 41.7735 139.825 41.6434L140.156 42.4244L140.09 42.3593Z" fill="#FEFEFE"/>
<path d="M145.519 37.9333L143.268 43.0102C142.805 44.0516 142.209 44.3771 141.415 44.3771C140.951 44.3771 140.421 44.2469 140.157 43.9214L140.62 43.1404C140.819 43.3357 141.15 43.4658 141.481 43.4658C141.878 43.4658 142.143 43.2706 142.341 42.8149L142.408 42.6197L140.289 37.8682H141.481L143.003 41.383L144.526 37.8682H145.585L145.519 37.9333Z" fill="#FEFEFE"/>
</svg>
