<svg width="154" height="45" viewBox="0 0 154 45" fill="none" xmlns="http://www.w3.org/2000/svg">
<path d="M20.9973 0.752182C17.6208 0.752182 14.9064 3.42082 14.9064 6.74035C14.9064 10.0599 17.6208 12.7285 20.9973 12.7285C24.3738 12.7285 27.0882 10.0599 27.0882 6.74035C27.0882 3.42082 24.3738 0.752182 20.9973 0.752182ZM20.9973 10.3853C18.945 10.3853 17.2236 8.7581 17.2236 6.67526C17.2236 4.65751 18.8788 2.9652 20.9973 2.9652C23.0497 2.9652 24.771 4.59242 24.771 6.67526C24.771 8.69301 23.1159 10.3853 20.9973 10.3853Z" fill="#9EA0A2"/>
<path d="M35.4963 8.49773C32.1199 8.49773 29.4054 11.1664 29.4054 14.4859C29.4054 17.8054 32.1199 20.4741 35.4963 20.4741C38.8728 20.4741 41.5872 17.8054 41.5872 14.4859C41.5872 11.1664 38.8728 8.49773 35.4963 8.49773ZM35.4963 18.1309C33.444 18.1309 31.7226 16.5036 31.7226 14.4208C31.7226 12.4031 33.3778 10.7107 35.4963 10.7107C37.5487 10.7107 39.27 12.338 39.27 14.4208C39.27 16.4386 37.6149 18.1309 35.4963 18.1309Z" fill="#9EA0A2"/>
<path d="M6.43265 8.49773C3.05618 8.49773 0.341766 11.1664 0.341766 14.4859C0.341766 17.8054 3.05618 20.4741 6.43265 20.4741C9.80912 20.4741 12.5235 17.8054 12.5235 14.4859C12.5235 11.1664 9.80912 8.49773 6.43265 8.49773ZM6.43265 18.1309C4.38029 18.1309 2.65895 16.5036 2.65895 14.4208C2.65895 12.4031 4.31408 10.7107 6.43265 10.7107C8.48501 10.7107 10.2063 12.338 10.2063 14.4208C10.2063 16.4386 8.55122 18.1309 6.43265 18.1309Z" fill="#9EA0A2"/>
<path d="M20.9973 44.7522C24.3738 44.7522 27.0882 42.0835 27.0882 38.764C27.0882 35.4445 24.3738 32.7758 20.9973 32.7758C17.6208 32.7758 14.9064 35.4445 14.9064 38.764C14.9064 42.0835 17.6208 44.7522 20.9973 44.7522ZM20.9973 35.119C23.0497 35.119 24.771 36.7463 24.771 38.8291C24.771 40.8469 23.1159 42.5392 20.9973 42.5392C18.945 42.5392 17.2236 40.9119 17.2236 38.8291C17.2236 36.8113 18.8788 35.119 20.9973 35.119Z" fill="#9EA0A2"/>
<path d="M6.43265 37.0066C9.80912 37.0066 12.5235 34.338 12.5235 31.0185C12.5235 27.699 9.80912 25.0303 6.43265 25.0303C3.05618 25.0303 0.341766 27.699 0.341766 31.0185C0.341766 34.338 3.05618 37.0066 6.43265 37.0066ZM6.43265 27.3735C8.48501 27.3735 10.2063 29.0007 10.2063 31.0836C10.2063 33.1013 8.55122 34.7936 6.43265 34.7936C4.38029 34.7936 2.65895 33.1664 2.65895 31.0836C2.65895 29.0658 4.31408 27.3735 6.43265 27.3735Z" fill="#9EA0A2"/>
<path d="M35.4963 37.0066C38.8728 37.0066 41.5872 34.338 41.5872 31.0185C41.5872 27.699 38.8728 25.0303 35.4963 25.0303C32.1199 25.0303 29.4054 27.699 29.4054 31.0185C29.4054 34.338 32.1199 37.0066 35.4963 37.0066ZM35.4963 27.3735C37.5487 27.3735 39.27 29.0007 39.27 31.0836C39.27 33.1013 37.6149 34.7936 35.4963 34.7936C33.444 34.7936 31.7226 33.1664 31.7226 31.0836C31.7226 29.0658 33.3778 27.3735 35.4963 27.3735Z" fill="#9EA0A2"/>
<path d="M19.7395 18.0658C19.7395 19.1072 18.8788 19.9533 17.8195 19.9533C16.7602 19.9533 15.8995 19.1072 15.8995 18.0658C15.8995 17.0244 16.7602 16.1782 17.8195 16.1782C18.8788 16.1782 19.7395 17.0244 19.7395 18.0658Z" fill="#00BFFF"/>
<path d="M25.8303 18.0658C25.8303 19.1072 24.9696 19.9533 23.9103 19.9533C22.851 19.9533 21.9904 19.1072 21.9904 18.0658C21.9904 17.0244 22.851 16.1782 23.9103 16.1782C24.9696 16.1782 25.8303 17.0244 25.8303 18.0658Z" fill="#00BFFF"/>
<path d="M19.7395 27.4386C19.7395 28.48 18.8788 29.3262 17.8195 29.3262C16.7602 29.3262 15.8995 28.48 15.8995 27.4386C15.8995 26.3972 16.7602 25.551 17.8195 25.551C18.8788 25.551 19.7395 26.3972 19.7395 27.4386Z" fill="#00BFFF"/>
<path d="M25.8303 27.4386C25.8303 28.48 24.9696 29.3262 23.9103 29.3262C22.851 29.3262 21.9904 28.48 21.9904 27.4386C21.9904 26.3972 22.851 25.551 23.9103 25.551C24.9696 25.551 25.8303 26.3972 25.8303 27.4386Z" fill="#00BFFF"/>
<path d="M28.7437 22.7521C28.7437 23.7936 27.8831 24.6397 26.8238 24.6397C25.7645 24.6397 24.9038 23.7936 24.9038 22.7521C24.9038 21.7107 25.7645 20.8646 26.8238 20.8646C27.8831 20.8646 28.7437 21.7107 28.7437 22.7521Z" fill="#00BFFF"/>
<path d="M17.025 22.7521C17.025 23.7936 16.1644 24.6397 15.1051 24.6397C14.0458 24.6397 13.1851 23.7936 13.1851 22.7521C13.1851 21.7107 14.0458 20.8646 15.1051 20.8646C16.1644 20.8646 17.025 21.7107 17.025 22.7521Z" fill="#00BFFF"/>
<path d="M54.3647 28.48L55.1591 26.8528C56.2846 27.8291 58.2046 28.5451 60.1245 28.5451C62.7065 28.5451 63.832 27.5688 63.832 26.267C63.832 22.622 54.6957 24.9652 54.6957 19.4327C54.6957 17.1546 56.4832 15.2019 60.4555 15.2019C62.2431 15.2019 64.0306 15.6575 65.2885 16.5037L64.5603 18.196C63.2362 17.3498 61.7797 16.9593 60.4555 16.9593C57.8735 16.9593 56.8143 18.0007 56.8143 19.3025C56.8143 22.9475 65.9506 20.6694 65.9506 26.0717C65.9506 28.3498 64.0968 30.3025 60.1245 30.3025C57.8073 30.3025 55.5564 29.5214 54.3647 28.4149V28.48Z" fill="#00BFFF"/>
<path d="M81.2445 20.5392C81.2445 23.7285 78.8611 25.6812 74.955 25.6812H71.2475V30.1723H69.0627V15.3972H74.955C78.8611 15.3972 81.2445 17.3498 81.2445 20.5392ZM79.0597 20.5392C79.0597 18.3912 77.6032 17.2196 74.8888 17.2196H71.2475V23.8587H74.8888C77.6694 23.8587 79.0597 22.622 79.0597 20.5392Z" fill="#00BFFF"/>
<path d="M95.3455 28.2847V30.1722H84.4216V15.332H95.0145V17.1545H86.5402V21.7107H94.0876V23.5332H86.5402V28.2847H95.3455Z" fill="#00BFFF"/>
<path d="M97.5306 22.7522C97.5306 18.3913 100.907 15.2019 105.541 15.2019C107.859 15.2019 109.911 15.983 111.235 17.48L109.845 18.7818C108.653 17.5451 107.263 17.0244 105.608 17.0244C102.231 17.0244 99.7154 19.4327 99.7154 22.6871C99.7154 25.9416 102.231 28.3499 105.608 28.3499C107.263 28.3499 108.653 27.7641 109.845 26.5925L111.235 27.8942C109.845 29.3913 107.859 30.2374 105.475 30.2374C100.907 30.2374 97.5306 27.0481 97.5306 22.6871V22.7522Z" fill="#00BFFF"/>
<path d="M117.127 17.1545H111.963V15.332H124.41V17.1545H119.246V30.1722H117.127V17.1545Z" fill="#00BFFF"/>
<path d="M136.856 30.1723L133.612 25.6161C133.281 25.6161 133.017 25.6812 132.686 25.6812H128.978V30.1723H126.793V15.3972H132.686C136.592 15.3972 138.975 17.3498 138.975 20.5392C138.975 22.8173 137.783 24.4445 135.665 25.2256L139.24 30.1723H136.923H136.856ZM136.79 20.5392C136.79 18.3912 135.334 17.2196 132.619 17.2196H128.978V23.8587H132.619C135.4 23.8587 136.79 22.622 136.79 20.5392Z" fill="#00BFFF"/>
<path d="M153.342 28.2847V30.1722H142.418V15.332H153.011V17.1545H144.536V21.7107H152.084V23.5332H144.536V28.2847H153.342Z" fill="#00BFFF"/>
<path d="M67.1424 41.4977H63.9646L63.3687 42.9297H62.177L65.0238 36.7462H66.1493L68.9961 42.9297H67.8045L67.1424 41.4977ZM66.7452 40.5865L65.5535 37.8528L64.3618 40.5865H66.7452Z" fill="#9EA0A2"/>
<path d="M74.5576 40.5866C74.5576 42.0836 73.4983 42.9948 72.108 42.9948C71.446 42.9948 70.9163 42.7996 70.5191 42.344V42.9298H69.4598V36.3558H70.5853V38.7641C70.9826 38.3085 71.5122 38.1132 72.108 38.1132C73.4983 38.1132 74.5576 39.0895 74.5576 40.5215V40.5866ZM73.4321 40.5866C73.4321 39.6753 72.8363 39.0895 72.0418 39.0895C71.2474 39.0895 70.5853 39.6753 70.5853 40.5866C70.5853 41.4978 71.1812 42.0836 72.0418 42.0836C72.8363 42.0836 73.4321 41.4978 73.4321 40.5866Z" fill="#9EA0A2"/>
<path d="M74.955 42.4741L75.4185 41.6279C75.8157 41.8883 76.4778 42.0835 77.0736 42.0835C77.8019 42.0835 78.0667 41.8883 78.0667 41.5628C78.0667 40.6516 75.0875 41.4977 75.0875 39.6102C75.0875 38.6989 75.8819 38.1131 77.206 38.1131C77.8681 38.1131 78.5963 38.2433 78.9936 38.5037L78.5301 39.3498C78.0667 39.0895 77.6032 39.0244 77.1398 39.0244C76.4778 39.0244 76.1467 39.2196 76.1467 39.5451C76.1467 40.5214 79.126 39.6753 79.126 41.4977C79.126 42.409 78.2653 42.9297 76.9412 42.9297C76.1467 42.9297 75.3523 42.6693 74.8888 42.409L74.955 42.4741Z" fill="#9EA0A2"/>
<path d="M79.6552 40.5865C79.6552 39.1546 80.7144 38.1782 82.2372 38.1782C83.7599 38.1782 84.8192 39.1546 84.8192 40.5865C84.8192 42.0185 83.7599 42.9948 82.2372 42.9948C80.7806 42.9948 79.6552 42.0185 79.6552 40.5865ZM83.6275 40.5865C83.6275 39.6753 83.0316 39.0895 82.1709 39.0895C81.3765 39.0895 80.7806 39.6753 80.7806 40.5865C80.7806 41.4977 81.3765 42.0835 82.1709 42.0835C82.9654 42.0835 83.6275 41.4977 83.6275 40.5865Z" fill="#9EA0A2"/>
<path d="M85.5479 42.9297H86.6734V36.4208H85.5479V42.9297Z" fill="#9EA0A2"/>
<path d="M92.4331 38.2434V42.9949H91.3739V42.4091C91.0428 42.8647 90.447 43.0599 89.8512 43.0599C88.5933 43.0599 87.7988 42.4091 87.7988 40.9771V38.3085H88.9243V40.8469C88.9243 41.6931 89.3215 42.0836 90.0498 42.0836C90.8442 42.0836 91.3739 41.628 91.3739 40.6517V38.2434H92.4993H92.4331Z" fill="#9EA0A2"/>
<path d="M96.6035 42.6694C96.3387 42.8646 95.9415 42.9948 95.5443 42.9948C94.485 42.9948 93.8891 42.4741 93.8891 41.4327V39.1546H93.0947V38.2433H93.8891V37.1368H95.0146V38.2433H96.2725V39.1546H95.0146V41.4327C95.0146 41.8883 95.2794 42.1487 95.6767 42.1487C95.9415 42.1487 96.1401 42.0836 96.3387 41.9534L96.6697 42.7345L96.6035 42.6694Z" fill="#9EA0A2"/>
<path d="M101.701 40.977H97.9277C98.0601 41.693 98.6559 42.0835 99.4504 42.0835C99.98 42.0835 100.443 41.8883 100.774 41.5628L101.37 42.2137C100.907 42.7344 100.245 42.9948 99.4504 42.9948C97.8615 42.9948 96.8022 41.9534 96.8022 40.5865C96.8022 39.1546 97.8615 38.1782 99.2518 38.1782C100.642 38.1782 101.701 39.1546 101.701 40.5865C101.701 40.6516 101.701 40.7818 101.701 40.9119V40.977ZM97.9277 40.2611H100.642C100.576 39.6102 100.046 39.0895 99.2518 39.0895C98.5235 39.0895 97.9939 39.5451 97.8615 40.2611H97.9277Z" fill="#9EA0A2"/>
<path d="M104.946 39.8705C104.946 38.048 106.402 36.6812 108.322 36.6812C109.315 36.6812 110.242 37.0717 110.838 37.7226L110.11 38.4386C109.646 37.983 109.117 37.7226 108.455 37.7226C107.13 37.7226 106.204 38.6338 106.204 39.8705C106.204 41.1723 107.13 42.0185 108.455 42.0185C109.117 42.0185 109.646 41.7581 110.11 41.3025L110.838 42.0185C110.242 42.6693 109.381 43.0599 108.322 43.0599C106.402 43.0599 104.946 41.693 104.946 39.8705Z" fill="#9EA0A2"/>
<path d="M116.134 40.977H112.36C112.493 41.693 113.089 42.0835 113.949 42.0835C114.479 42.0835 114.942 41.8883 115.273 41.5628L115.869 42.2137C115.406 42.7344 114.744 42.9948 113.949 42.9948C112.36 42.9948 111.301 41.9534 111.301 40.5865C111.301 39.1546 112.36 38.1782 113.751 38.1782C115.141 38.1782 116.2 39.1546 116.2 40.5865C116.2 40.6516 116.2 40.7818 116.2 40.9119L116.134 40.977ZM112.36 40.2611H115.075C115.009 39.6102 114.479 39.0895 113.685 39.0895C112.956 39.0895 112.427 39.5451 112.294 40.2611H112.36Z" fill="#9EA0A2"/>
<path d="M119.643 38.1782V39.2196C119.511 39.2196 119.445 39.2196 119.378 39.2196C118.518 39.2196 117.988 39.7404 117.988 40.6516V42.9297H116.862V38.1782H117.922V38.8942C118.253 38.3735 118.849 38.1782 119.643 38.1782Z" fill="#9EA0A2"/>
<path d="M123.814 42.6694C123.55 42.8646 123.152 42.9948 122.755 42.9948C121.696 42.9948 121.1 42.4741 121.1 41.4327V39.1546H120.306V38.2433H121.1V37.1368H122.225V38.2433H123.483V39.1546H122.225V41.4327C122.225 41.8883 122.49 42.1487 122.888 42.1487C123.152 42.1487 123.351 42.0836 123.55 41.9534L123.881 42.7345L123.814 42.6694Z" fill="#9EA0A2"/>
<path d="M128.383 40.196V42.9948H127.323V42.409C127.059 42.7995 126.529 43.0599 125.801 43.0599C124.675 43.0599 124.013 42.4741 124.013 41.6279C124.013 40.8469 124.543 40.196 125.999 40.196H127.257V40.1309C127.257 39.48 126.86 39.0895 126.065 39.0895C125.536 39.0895 124.94 39.2847 124.609 39.5451L124.145 38.764C124.675 38.3735 125.403 38.1782 126.198 38.1782C127.588 38.1782 128.383 38.8291 128.383 40.196ZM127.257 41.4977V40.977H126.065C125.271 40.977 125.072 41.2374 125.072 41.6279C125.072 42.0184 125.403 42.2788 125.999 42.2788C126.529 42.2788 126.992 42.0184 127.191 41.5628L127.257 41.4977Z" fill="#9EA0A2"/>
<path d="M129.243 36.8114C129.243 36.4208 129.574 36.1605 129.971 36.1605C130.369 36.1605 130.7 36.4208 130.7 36.8114C130.7 37.2019 130.435 37.5273 129.971 37.5273C129.574 37.5273 129.243 37.267 129.243 36.8765V36.8114ZM129.375 38.2433H130.501V42.9948H129.375V38.2433Z" fill="#9EA0A2"/>
<path d="M136.327 40.2611V42.9949H135.201V40.4564C135.201 39.6102 134.804 39.2197 134.076 39.2197C133.282 39.2197 132.752 39.6753 132.752 40.6517V43.0599H131.626V38.3085H132.686V38.8943C133.083 38.4386 133.613 38.2434 134.341 38.2434C135.466 38.2434 136.327 38.8943 136.327 40.3262V40.2611Z" fill="#9EA0A2"/>
<path d="M140.432 42.6694C140.167 42.8646 139.77 42.9948 139.373 42.9948C138.313 42.9948 137.717 42.4741 137.717 41.4327V39.1546H136.923V38.2433H137.717V37.1368H138.843V38.2433H140.101V39.1546H138.843V41.4327C138.843 41.8883 139.108 42.1487 139.505 42.1487C139.77 42.1487 139.968 42.0836 140.167 41.9534L140.498 42.7345L140.432 42.6694Z" fill="#9EA0A2"/>
<path d="M145.861 38.2433L143.61 43.3202C143.146 44.3617 142.551 44.6871 141.756 44.6871C141.293 44.6871 140.763 44.5569 140.498 44.2315L140.962 43.4504C141.16 43.6457 141.491 43.7759 141.822 43.7759C142.22 43.7759 142.484 43.5806 142.683 43.125L142.749 42.9297L140.631 38.1782H141.822L143.345 41.693L144.868 38.1782H145.927L145.861 38.2433Z" fill="#9EA0A2"/>
</svg>
