<svg width="149" height="149" viewBox="0 0 149 149" fill="none" xmlns="http://www.w3.org/2000/svg">
<path d="M104.86 45.7639H90.113C90.208 44.0469 89.927 42.1699 88.902 40.4119C86.693 36.6459 81.835 34.7029 74.447 34.6489C67.047 34.5829 62.256 36.4729 60.019 40.1999C58.955 42.0099 58.675 43.9669 58.794 45.7639H44.048C37.979 45.7639 33.08 50.6749 33.08 56.7309V96.0469C33.08 102.104 37.978 107.028 44.048 107.028H104.86C110.903 107.028 115.841 102.103 115.841 96.0469V56.7309C115.842 50.6749 110.903 45.7639 104.86 45.7639ZM63.986 42.5169C65.291 40.3339 68.871 39.1889 74.408 39.2279C79.97 39.2689 83.618 40.4659 84.963 42.7149C85.509 43.6469 85.641 44.7379 85.574 45.7639H63.374C63.28 44.6459 63.4 43.4869 63.986 42.5169ZM88.742 80.7019H78.188V91.2439C78.188 93.3199 76.524 94.9829 74.447 94.9829C72.397 94.9829 70.734 93.3199 70.734 91.2439V80.7019H60.179C58.089 80.7019 56.439 79.0249 56.439 76.9629C56.439 74.8999 58.089 73.2359 60.179 73.2359H70.734V62.6809C70.734 60.6179 72.397 58.9539 74.447 58.9539C76.524 58.9539 78.188 60.6179 78.188 62.6809V73.2359H88.742C90.793 73.2359 92.482 74.8999 92.482 76.9629C92.482 79.0249 90.793 80.7019 88.742 80.7019Z" fill="#A6A5A4"/>
<path d="M74.447 148.894C33.396 148.894 0 115.497 0 74.447C0 33.397 33.396 0 74.447 0C115.49 0 148.882 33.397 148.882 74.447C148.882 115.497 115.49 148.894 74.447 148.894ZM74.447 6.397C36.925 6.397 6.397 36.924 6.397 74.447C6.397 111.97 36.924 142.496 74.447 142.496C111.963 142.496 142.483 111.97 142.483 74.447C142.483 36.924 111.963 6.397 74.447 6.397Z" fill="#A6A5A4"/>
</svg>
