<?xml version="1.0" encoding="utf-8"?>
<!-- Generator: Adobe Illustrator 16.0.0, SVG Export Plug-In . SVG Version: 6.00 Build 0)  -->
<!DOCTYPE svg PUBLIC "-//W3C//DTD SVG 1.1//EN" "http://www.w3.org/Graphics/SVG/1.1/DTD/svg11.dtd">
<svg version="1.1" id="Layer_1" xmlns="http://www.w3.org/2000/svg" xmlns:xlink="http://www.w3.org/1999/xlink" x="0px" y="0px"
	 width="200px" height="200px" viewBox="0 0 200 200" enable-background="new 0 0 200 200" xml:space="preserve">
<path fill="#42BAEB" d="M99.942,0.993C45.375,0.993,1,45.396,1,99.963c0,54.566,44.375,98.97,98.942,98.97
	c54.567,0,98.943-44.403,98.943-98.97C198.886,45.396,154.51,0.993,99.942,0.993z M99.942,190.423
	c-49.878,0-90.45-40.582-90.45-90.46c0-49.879,40.571-90.459,90.45-90.459c49.878,0,90.451,40.58,90.451,90.459
	C190.394,149.841,149.82,190.423,99.942,190.423z"/>
<g>
	<path fill="#42BAEB" d="M147.718,125.082c1.067-5.184-2.465-8.004-7.452-10.432c5.813-0.567,10.624-1.572,10.787-7.924
		c0.113-4.398-3.308-7.457-9.689-9.038c0.213-0.315,0.344-0.755,0.607-0.864c3.352-1.371,5.52-3.684,5.175-7.45
		c-0.371-4.094-3.037-6.799-6.799-7.689c-4.123-0.975-8.436-1.213-12.682-1.578c-3.629-0.312-7.28-0.36-10.924-0.507
		c-3.431-0.137-4.171-1.929-3.492-5.058c1.087-5.024,2.391-10.074,2.699-15.169c0.271-4.42-0.294-9.014-1.307-13.34
		c-0.518-2.2-2.463-4.655-4.448-5.751c-1.874-1.034-5.123-1.289-6.881-0.304c-1.533,0.858-2.828,4.104-2.491,5.985
		c1.342,7.484-0.923,13.909-4.657,20.065c-5.5,9.069-13.151,16.106-21.343,22.677c-1.313,1.053-2.443,3.197-2.469,4.855
		c-0.202,12.825-0.026,25.656-0.181,38.482c-0.032,2.673,1.02,4.111,3.1,5.444c11.049,7.092,23.454,9.508,36.229,10.199
		c6.623,0.357,13.307-0.138,19.947-0.536c3.676-0.221,6.925-1.939,8.591-5.345c2.053-4.194-0.068-7.411-3.834-10.239
		C141.334,130.932,146.524,130.875,147.718,125.082z M47.956,86.929c0,17.235,0,34.276,0,51.646c6.024,0,12.087,0,18.402,0
		c0-17.076,0-34.214,0-51.646C60.099,86.929,54.122,86.929,47.956,86.929z"/>
	<path fill-rule="evenodd" clip-rule="evenodd" fill="#42BAEB" d="M136.204,131.566c5.13-0.635,10.32-0.691,11.514-6.484
		c1.067-5.184-2.465-8.004-7.452-10.432c5.813-0.567,10.624-1.572,10.787-7.924c0.113-4.398-3.308-7.457-9.689-9.038
		c0.213-0.315,0.344-0.755,0.607-0.864c3.352-1.371,5.52-3.684,5.175-7.45c-0.371-4.094-3.037-6.799-6.799-7.689
		c-4.123-0.975-8.436-1.213-12.682-1.578c-3.629-0.312-7.28-0.36-10.924-0.507c-3.431-0.137-4.171-1.929-3.492-5.058
		c1.087-5.024,2.391-10.074,2.699-15.169c0.271-4.42-0.294-9.014-1.307-13.34c-0.518-2.2-2.463-4.655-4.448-5.751
		c-1.874-1.034-5.123-1.289-6.881-0.304c-1.533,0.858-2.828,4.104-2.491,5.985c1.342,7.484-0.923,13.909-4.657,20.065
		c-5.5,9.069-13.151,16.106-21.343,22.677c-1.313,1.053-2.443,3.197-2.469,4.855c-0.202,12.825-0.026,25.656-0.181,38.482
		c-0.032,2.673,1.02,4.111,3.1,5.444c11.049,7.092,23.454,9.508,36.229,10.199c6.623,0.357,13.307-0.138,19.947-0.536
		c3.676-0.221,6.925-1.939,8.591-5.345C142.091,137.611,139.97,134.395,136.204,131.566z"/>
	<path fill-rule="evenodd" clip-rule="evenodd" fill="#42BAEB" d="M66.358,86.929c-6.259,0-12.236,0-18.402,0
		c0,17.235,0,34.276,0,51.646c6.024,0,12.087,0,18.402,0C66.358,121.499,66.358,104.361,66.358,86.929z"/>
</g>
</svg>
