<svg width="150" height="150" viewBox="0 0 150 150" fill="none" xmlns="http://www.w3.org/2000/svg">
<path d="M74.656 0C33.492 0 0 33.479 0 74.629C0 115.779 33.492 149.258 74.656 149.258C115.806 149.258 149.272 115.779 149.272 74.629C149.272 33.479 115.807 0 74.656 0ZM74.656 142.853C37.027 142.853 6.405 112.243 6.405 74.628C6.405 37.013 37.027 6.40298 74.656 6.40298C112.269 6.40298 142.866 37.012 142.866 74.628C142.866 112.243 112.27 142.853 74.656 142.853Z" fill="#A6A5A4"/>
<path d="M85.304 101.515L83.476 105.264C93.284 106.505 99.221 109.655 99.221 111.976C99.221 114.938 89.667 119.235 74.657 119.235C59.645 119.235 50.093 114.938 50.093 111.976C50.093 109.227 58.364 105.331 71.548 104.784L74.657 111.055L95.952 68.0089H95.912C98.033 64.3939 99.248 60.2039 99.248 55.7199C99.248 42.1369 88.214 31.1289 74.657 31.1289C61.087 31.1289 50.052 42.1369 50.052 55.7199C50.052 60.2039 51.28 64.3939 53.361 68.0089L69.654 100.941C57.271 101.729 46.142 105.492 46.142 111.976C46.142 119.329 60.473 123.184 74.658 123.184C88.828 123.184 103.158 119.329 103.158 111.976C103.156 106.493 95.205 102.97 85.304 101.515ZM64.328 52.6929C64.328 46.9809 68.945 42.3509 74.656 42.3509C80.366 42.3509 84.9829 46.9809 84.9829 52.6929C84.9829 58.3899 80.366 63.0199 74.656 63.0199C68.945 63.0199 64.328 58.3899 64.328 52.6929Z" fill="#A6A5A4"/>
</svg>
