<svg width="150" height="150" viewBox="0 0 150 150" fill="none" xmlns="http://www.w3.org/2000/svg">
<path d="M74.983 0C33.638 0 0 33.633 0 74.963C0 116.295 33.639 149.92 74.983 149.92C116.314 149.92 149.926 116.295 149.926 74.963C149.926 33.633 116.314 0 74.983 0ZM74.983 143.486C37.19 143.486 6.433 112.744 6.433 74.963C6.433 37.184 37.19 6.44501 74.983 6.44501C112.763 6.44501 143.493 37.183 143.493 74.963C143.493 112.744 112.763 143.486 74.983 143.486Z" fill="#A6A5A4"/>
<path d="M95.3398 28.338H54.6658C45.3518 28.338 37.8198 33.94 37.8198 40.856V109.059C37.8198 115.987 45.3508 121.59 54.6658 121.59H95.3398C104.615 121.59 112.188 115.986 112.188 109.059V40.856C112.187 33.939 104.615 28.338 95.3398 28.338ZM77.1808 115.664H73.0788C70.5058 115.664 68.4158 114.111 68.4158 112.193C68.4158 110.277 70.5058 108.722 73.0788 108.722H77.1808C79.7528 108.722 81.8448 110.277 81.8448 112.193C81.8448 114.111 79.7538 115.664 77.1808 115.664ZM102.135 102.933H48.1248V35.775H102.135V102.933Z" fill="#A6A5A4"/>
</svg>
