<svg width="151" height="151" viewBox="0 0 151 151" fill="none" xmlns="http://www.w3.org/2000/svg">
<path d="M75.322 0.924072C34.066 0.924072 0.5 34.4771 0.5 75.7191C0.5 116.962 34.066 150.515 75.322 150.515C116.565 150.515 150.105 116.962 150.105 75.7191C150.105 34.4771 116.565 0.924072 75.322 0.924072ZM75.322 144.096C37.611 144.096 6.91998 113.418 6.91998 75.7191C6.91998 38.0201 37.611 7.34207 75.322 7.34207C113.02 7.34207 143.685 38.0201 143.685 75.7191C143.685 113.418 113.021 144.096 75.322 144.096Z" fill="#A6A5A4"/>
<path d="M93.897 37.7131C93.643 36.8841 92.8411 36.389 91.9711 36.524C91.1021 36.657 90.487 37.406 90.487 38.262C90.487 41.324 90.6881 44.186 91.0361 46.781V96.128C87.2511 95.726 82.5171 97.706 78.8531 101.263C73.1961 106.773 71.658 114.061 75.349 117.872C76.7 119.263 78.6241 119.998 80.8851 119.998C84.5091 119.998 88.6961 118.059 92.0381 114.81C96.8251 110.169 98.752 104.018 96.785 99.966V62.214C99.259 65.477 102.162 67.496 104.822 69.341C108.846 72.15 111.763 74.183 112.31 79.639C112.404 80.548 113.154 81.243 114.075 81.216C115.013 81.202 115.749 80.4821 115.814 79.5711C116.458 68.6451 111.348 62.935 105.945 56.918C101.681 52.143 96.854 46.7271 93.897 37.7131Z" fill="#A6A5A4"/>
<path d="M75.0959 46.271H37.6779C36.0729 46.271 34.762 47.568 34.762 49.187C34.762 50.805 36.0729 52.102 37.6779 52.102H75.0959C76.7409 52.102 78.025 50.805 78.025 49.187C78.024 47.568 76.7399 46.271 75.0959 46.271Z" fill="#A6A5A4"/>
<path d="M75.0959 62.8411H37.6779C36.0729 62.8411 34.762 64.1521 34.762 65.7561C34.762 67.3751 36.0729 68.6861 37.6779 68.6861H75.0959C76.7409 68.6861 78.025 67.3751 78.025 65.7561C78.024 64.1511 76.7399 62.8411 75.0959 62.8411Z" fill="#A6A5A4"/>
<path d="M75.0959 79.4102H37.6779C36.0729 79.4102 34.762 80.7211 34.762 82.3391C34.762 83.9431 36.0729 85.2542 37.6779 85.2542H75.0959C76.7409 85.2542 78.025 83.9431 78.025 82.3391C78.024 80.7211 76.7399 79.4102 75.0959 79.4102Z" fill="#A6A5A4"/>
</svg>
