<svg width="150" height="150" viewBox="0 0 150 150" fill="none" xmlns="http://www.w3.org/2000/svg">
<path d="M75.246 0.50293C34.037 0.50293 0.507996 34.0189 0.507996 75.2149C0.507996 116.411 34.037 149.927 75.246 149.927C116.442 149.927 149.944 116.411 149.944 75.2149C149.944 34.0189 116.442 0.50293 75.246 0.50293ZM75.246 143.515C37.576 143.515 6.92 112.871 6.92 75.2149C6.92 37.5579 37.576 6.91492 75.246 6.91492C112.902 6.91492 143.533 37.5589 143.533 75.2149C143.533 112.871 112.902 143.515 75.246 143.515Z" fill="#A6A5A4"/>
<path d="M115.147 42.968H39.9C38.457 42.968 37.269 44.13 37.269 45.573V49.006H29.494C28.787 49.006 28.146 49.273 27.638 49.767C27.158 50.261 26.864 50.929 26.864 51.623V99.392C26.864 101.943 27.892 107.874 37.297 107.874H115.149C119.811 107.874 123.631 104.067 123.631 99.392V51.436C123.63 46.762 119.81 42.968 115.147 42.968ZM37.27 100.302C37.069 100.876 36.428 102.386 34.918 102.44C32.127 101.892 32.127 100.315 32.127 99.394V54.244L37.27 54.257V100.302ZM118.366 99.393C118.366 101.183 116.924 102.64 115.147 102.64H41.957C42.186 102.131 42.346 101.638 42.439 101.237C42.464 101.049 42.505 100.849 42.505 100.649V48.205H115.147C116.923 48.205 118.366 49.661 118.366 51.438V99.393Z" fill="#A6A5A4"/>
<path d="M60.859 61.0149H47.768C47.22 61.0149 46.806 61.4429 46.806 61.9909V82.5499C46.806 83.0839 47.22 83.5109 47.768 83.5109H60.859C61.407 83.5109 61.821 83.0839 61.821 82.5499V61.9899C61.821 61.4419 61.407 61.0149 60.859 61.0149Z" fill="#A6A5A4"/>
<path d="M94.482 61.0149H66.416C65.869 61.0149 65.428 61.4429 65.428 61.9909V62.8719C65.428 63.4069 65.869 63.8479 66.416 63.8479H94.482C95.029 63.8479 95.444 63.4069 95.444 62.8719V61.9909C95.444 61.4419 95.029 61.0149 94.482 61.0149Z" fill="#A6A5A4"/>
<path d="M94.482 67.2258H66.416C65.869 67.2258 65.428 67.6538 65.428 68.1888V69.0828C65.428 69.6178 65.869 70.0448 66.416 70.0448H94.482C95.029 70.0448 95.444 69.6178 95.444 69.0828V68.1888C95.444 67.6538 95.029 67.2258 94.482 67.2258Z" fill="#A6A5A4"/>
<path d="M94.482 73.959H66.416C65.869 73.959 65.428 74.387 65.428 74.935V75.816C65.428 76.35 65.869 76.778 66.416 76.778H94.482C95.029 76.778 95.444 76.35 95.444 75.816V74.935C95.444 74.387 95.029 73.959 94.482 73.959Z" fill="#A6A5A4"/>
<path d="M94.482 80.6909H66.416C65.869 80.6909 65.428 81.1179 65.428 81.6519V82.5479C65.428 83.0819 65.869 83.5089 66.416 83.5089H94.482C95.029 83.5089 95.444 83.0819 95.444 82.5479V81.6519C95.444 81.1189 95.029 80.6909 94.482 80.6909Z" fill="#A6A5A4"/>
<path d="M94.482 87.4238H66.416C65.869 87.4238 65.428 87.8508 65.428 88.3848V89.2808C65.428 89.8158 65.869 90.2418 66.416 90.2418H94.482C95.029 90.2418 95.444 89.8148 95.444 89.2808V88.3848C95.444 87.8508 95.029 87.4238 94.482 87.4238Z" fill="#A6A5A4"/>
<path d="M94.482 94.144H66.416C65.869 94.144 65.428 94.584 65.428 95.118V96C65.428 96.549 65.869 96.976 66.416 96.976H94.482C95.029 96.976 95.444 96.549 95.444 96V95.119C95.444 94.584 95.029 94.144 94.482 94.144Z" fill="#A6A5A4"/>
<path d="M112.101 61.0149H99.385C98.851 61.0149 98.423 61.4429 98.423 61.9909V62.8719C98.423 63.4069 98.851 63.8479 99.385 63.8479H112.101C112.65 63.8479 113.064 63.4069 113.064 62.8719V61.9909C113.063 61.4419 112.649 61.0149 112.101 61.0149Z" fill="#A6A5A4"/>
<path d="M112.101 67.2258H99.385C98.851 67.2258 98.423 67.6538 98.423 68.1888V69.0828C98.423 69.6178 98.851 70.0448 99.385 70.0448H112.101C112.65 70.0448 113.064 69.6178 113.064 69.0828V68.1888C113.063 67.6538 112.649 67.2258 112.101 67.2258Z" fill="#A6A5A4"/>
<path d="M112.101 73.959H99.385C98.851 73.959 98.423 74.387 98.423 74.935V75.816C98.423 76.35 98.851 76.778 99.385 76.778H112.101C112.65 76.778 113.064 76.35 113.064 75.816V74.935C113.063 74.387 112.649 73.959 112.101 73.959Z" fill="#A6A5A4"/>
<path d="M112.101 80.6909H99.385C98.851 80.6909 98.423 81.1179 98.423 81.6519V82.5479C98.423 83.0819 98.851 83.5089 99.385 83.5089H112.101C112.65 83.5089 113.064 83.0819 113.064 82.5479V81.6519C113.063 81.1189 112.649 80.6909 112.101 80.6909Z" fill="#A6A5A4"/>
<path d="M112.101 87.4238H99.385C98.851 87.4238 98.423 87.8508 98.423 88.3848V89.2808C98.423 89.8158 98.851 90.2418 99.385 90.2418H112.101C112.65 90.2418 113.064 89.8148 113.064 89.2808V88.3848C113.063 87.8508 112.649 87.4238 112.101 87.4238Z" fill="#A6A5A4"/>
<path d="M112.101 94.144H99.385C98.851 94.144 98.423 94.584 98.423 95.118V96C98.423 96.549 98.851 96.976 99.385 96.976H112.101C112.65 96.976 113.064 96.549 113.064 96V95.119C113.063 94.584 112.649 94.144 112.101 94.144Z" fill="#A6A5A4"/>
<path d="M60.859 87.4238H47.768C47.22 87.4238 46.806 87.8508 46.806 88.3848V89.2808C46.806 89.8158 47.22 90.2418 47.768 90.2418H60.859C61.407 90.2418 61.821 89.8148 61.821 89.2808V88.3848C61.821 87.8508 61.407 87.4238 60.859 87.4238Z" fill="#A6A5A4"/>
<path d="M60.859 94.144H47.768C47.22 94.144 46.806 94.584 46.806 95.118V96C46.806 96.549 47.22 96.976 47.768 96.976H60.859C61.407 96.976 61.821 96.549 61.821 96V95.119C61.821 94.584 61.407 94.144 60.859 94.144Z" fill="#A6A5A4"/>
</svg>
