<svg width="151" height="150" viewBox="0 0 151 150" fill="none" xmlns="http://www.w3.org/2000/svg">
<path d="M75.416 0.160156C34.223 0.160156 0.709991 33.6801 0.709991 74.8731C0.709991 116.066 34.223 149.58 75.416 149.58C116.61 149.58 150.109 116.066 150.109 74.8731C150.109 33.6801 116.61 0.160156 75.416 0.160156ZM75.416 143.17C37.763 143.17 7.12099 112.527 7.12099 74.8731C7.12099 37.2201 37.763 6.58417 75.416 6.58417C113.07 6.58417 143.698 37.2201 143.698 74.8731C143.698 112.527 113.07 143.17 75.416 143.17Z" fill="#A6A5A4"/>
<path d="M74.548 35.7642C52.749 35.7642 34.997 53.5022 34.997 75.3282C34.997 97.1402 52.749 114.877 74.548 114.877C96.374 114.877 114.124 97.1412 114.124 75.3282C114.124 53.5022 96.374 35.7642 74.548 35.7642ZM63.142 43.3632C60.51 46.7562 58.332 51.3511 56.796 56.7481H46.163C50.171 50.6171 56.155 45.8752 63.142 43.3632ZM44.2 60.1272H55.955C55.059 64.2812 54.513 68.8362 54.419 73.6312H40.647C40.901 68.7962 42.157 64.2282 44.2 60.1272ZM40.647 77.0102H54.418C54.512 81.9122 55.059 86.5332 56.021 90.7552H44.334C42.21 86.6022 40.901 81.9392 40.647 77.0102ZM46.324 94.1352H56.85C58.4 99.4382 60.55 103.94 63.142 107.278C56.249 104.807 50.331 100.145 46.324 94.1352ZM72.878 109.215C71.81 109.16 70.781 109.055 69.753 108.908C65.933 106.463 62.634 101.121 60.456 94.1352H72.878V109.215ZM72.878 90.7552H59.521C58.519 86.5472 57.877 81.8992 57.784 77.0102H72.878V90.7552ZM72.878 73.6312H57.784C57.878 68.8502 58.493 64.2682 59.454 60.1272H72.878V73.6312ZM72.878 56.7481H60.39C62.54 49.6541 65.88 44.2052 69.753 41.7342C70.781 41.5882 71.81 41.4802 72.878 41.4272V56.7481ZM76.245 41.4282C77.3 41.4812 78.394 41.5881 79.45 41.7481C83.31 44.2321 86.649 49.6681 88.8 56.7481H76.245V41.4282ZM76.245 60.1272H89.722C90.697 64.2682 91.298 68.8502 91.392 73.6312H76.245V60.1272ZM76.245 77.0102H91.391C91.297 81.8992 90.657 86.5472 89.667 90.7552H76.245V77.0102ZM79.45 108.895C78.394 109.055 77.3 109.161 76.245 109.215V94.1352H88.733C86.583 101.107 83.271 106.449 79.45 108.895ZM86.062 107.238C88.666 103.898 90.818 99.4101 92.327 94.1341H102.759C98.778 100.118 92.94 104.754 86.062 107.238ZM104.748 90.7552H93.168C94.13 86.5332 94.677 81.9122 94.798 77.0102H108.449C108.182 81.9392 106.899 86.6022 104.748 90.7552ZM108.449 73.6312H94.798C94.677 68.8362 94.156 64.2812 93.222 60.1272H104.882C106.938 64.2282 108.182 68.7962 108.449 73.6312ZM92.393 56.7481C90.884 51.3651 88.706 46.7971 86.062 43.4041C93.035 45.9161 98.939 50.6561 102.919 56.7481H92.393Z" fill="#A6A5A4"/>
</svg>
