<svg width="130" height="130" viewBox="0 0 130 130" fill="none" xmlns="http://www.w3.org/2000/svg">
<path d="M91.7853 61.2863L56.696 35.8103C55.42 34.8757 53.712 34.7383 52.3 35.457C50.888 36.1863 50 37.6437 50 39.2277V90.1917C50 91.7743 50.888 93.2317 52.3 93.9503C52.904 94.2583 53.564 94.4183 54.2133 94.4183C55.0907 94.4183 55.9667 94.133 56.696 93.609L91.7853 68.1197C92.8787 67.3223 93.528 66.0583 93.528 64.7037C93.528 63.3477 92.8787 62.0837 91.7853 61.2863Z" fill="white"/>
<path d="M65 124.5C97.3385 124.5 123.5 98.0549 123.5 65.5C123.5 32.9451 97.3385 6.5 65 6.5C32.6615 6.5 6.5 32.9451 6.5 65.5C6.5 98.0549 32.6615 124.5 65 124.5Z" stroke="white" stroke-width="7"/>
</svg>
