<svg width="151" height="151" viewBox="0 0 151 151" fill="none" xmlns="http://www.w3.org/2000/svg">
<path d="M75.836 0.59082C34.502 0.59082 0.888 34.2178 0.888 75.5528C0.888 116.888 34.502 150.515 75.836 150.515C117.185 150.515 150.825 116.888 150.825 75.5528C150.825 34.2178 117.185 0.59082 75.836 0.59082ZM75.836 144.082C38.054 144.082 7.321 113.336 7.321 75.5528C7.321 37.7698 38.053 7.0238 75.836 7.0238C113.633 7.0238 144.393 37.7698 144.393 75.5528C144.393 113.336 113.633 144.082 75.836 144.082Z" fill="#A6A5A4"/>
<path d="M100.993 44.1628H92.041C91.33 35.3968 83.985 28.4688 75.032 28.4688H74.804C65.851 28.4688 58.506 35.3977 57.796 44.1628H48.654C47.032 44.1628 45.746 45.4638 45.746 47.0858V109.877C45.746 111.499 47.032 112.8 48.654 112.8H100.992C102.6 112.8 103.928 111.499 103.928 109.877V100.912L98.058 104.234V106.956H51.578V50.0067H57.728V56.1458C57.728 57.7678 59.015 59.0807 60.664 59.0807C62.273 59.0807 63.56 57.7688 63.56 56.1458V50.0067H86.238V56.1458C86.238 57.7678 87.564 59.0807 89.174 59.0807C90.781 59.0807 92.109 57.7688 92.109 56.1458V50.0067H98.06V64.4547L99.896 64.9637C101.156 65.2987 102.188 66.1038 102.804 67.2168L103.93 69.1598V47.0858C103.929 45.4638 102.602 44.1628 100.993 44.1628ZM63.666 44.1628C64.338 38.6278 69.067 34.3257 74.805 34.3257H75.033C80.769 34.3257 85.473 38.6278 86.184 44.1628H63.666Z" fill="#A6A5A4"/>
<path d="M99.773 68.9579C99.572 68.6499 99.318 68.4359 98.969 68.3419L98.058 68.088L85.083 64.5349C84.99 64.4959 84.855 64.4819 84.762 64.4819C84.722 64.4819 84.696 64.4959 84.628 64.4959C84.601 64.4959 84.561 64.5089 84.533 64.5089C84.373 64.5349 84.238 64.5759 84.118 64.6559C83.797 64.8299 83.596 65.1109 83.502 65.4469L79.669 79.3179C79.602 79.6539 79.642 80.0029 79.803 80.3099L92.174 102.05C92.268 102.184 92.362 102.304 92.495 102.397C92.521 102.424 92.549 102.438 92.589 102.465C92.684 102.545 92.818 102.612 92.938 102.652C92.938 102.652 92.979 102.652 92.979 102.666C93.072 102.693 93.193 102.707 93.327 102.707C93.367 102.707 93.393 102.693 93.421 102.693C93.461 102.693 93.488 102.693 93.515 102.679C93.649 102.652 93.81 102.613 93.944 102.532L98.059 100.201L103.929 96.877L111.662 92.4669C112.266 92.1179 112.493 91.3149 112.144 90.6979L99.773 68.9579ZM90.754 76.3029C90.499 76.4239 90.272 76.5319 90.017 76.5979C89.951 76.6119 89.882 76.6249 89.788 76.6389C89.628 76.6779 89.428 76.7049 89.266 76.7049C89.173 76.7189 89.106 76.7189 89.012 76.7189C88.784 76.7049 88.556 76.6779 88.368 76.6249C88.341 76.6249 88.302 76.6249 88.274 76.6109C88.019 76.5439 87.791 76.4509 87.563 76.3299C87.497 76.2899 87.429 76.2499 87.403 76.2099C87.242 76.1149 87.082 75.9949 86.92 75.8609C86.88 75.8199 86.827 75.767 86.76 75.713C86.599 75.525 86.398 75.3119 86.278 75.0699C85.367 73.5019 85.917 71.5049 87.498 70.6209C87.726 70.4859 87.981 70.3919 88.235 70.3259C88.302 70.2989 88.369 70.2849 88.435 70.2709C88.623 70.2319 88.785 70.2179 88.985 70.2049C89.039 70.2049 89.146 70.2049 89.199 70.2049C89.428 70.2049 89.655 70.2319 89.883 70.2849C89.91 70.2989 89.951 70.299 89.978 70.299C90.206 70.365 90.433 70.4729 90.661 70.5939C90.715 70.6209 90.782 70.6599 90.849 70.7009C91.009 70.8079 91.171 70.9159 91.304 71.0499C91.358 71.1029 91.425 71.1559 91.465 71.2109C91.653 71.3979 91.815 71.5999 91.975 71.8399C92.845 73.4079 92.296 75.4059 90.754 76.3029Z" fill="#A6A5A4"/>
</svg>
