<svg width="148" height="149" viewBox="0 0 148 149" fill="none" xmlns="http://www.w3.org/2000/svg">
<path d="M73.9532 0.382996C33.1742 0.382996 0.0112305 33.567 0.0112305 74.346C0.0112305 115.125 33.1742 148.309 73.9532 148.309C114.733 148.309 147.896 115.125 147.896 74.346C147.896 33.567 114.733 0.382996 73.9532 0.382996ZM73.9532 141.949C36.6782 141.949 6.35722 111.621 6.35722 74.345C6.35722 37.069 36.6772 6.743 73.9532 6.743C111.229 6.743 141.55 37.069 141.55 74.345C141.55 111.621 111.229 141.949 73.9532 141.949Z" fill="#A6A5A4"/>
<path d="M35.166 96.041C35.166 80.023 35.166 64.004 35.166 47.984C35.245 47.773 35.33 47.56 35.405 47.347C36.024 45.572 37.245 44.431 39.074 44.033C39.794 43.877 40.562 43.916 41.309 43.914C58.686 43.91 76.063 43.912 93.441 43.91C98.709 43.91 103.975 43.906 109.244 43.912C111.947 43.914 113.635 45.191 114.415 47.797C114.436 47.865 114.495 47.922 114.537 47.985C114.537 64.005 114.537 80.024 114.537 96.042C114.047 97.626 113.269 99.048 111.638 99.628C110.671 99.972 109.579 100.091 108.542 100.095C99.81 100.13 91.078 100.113 82.345 100.113C82.074 100.113 81.803 100.136 81.485 100.152C81.485 101.146 81.52 102.05 81.472 102.949C81.44 103.539 81.641 103.726 82.226 103.822C88.058 104.771 93.883 105.76 99.713 106.726C100.437 106.845 100.978 107.162 101.216 107.878C101.649 109.181 100.59 110.224 99.053 109.972C94.928 109.298 90.813 108.562 86.682 107.919C83.426 107.413 80.212 106.554 76.868 106.73C75.555 106.798 74.233 106.736 72.916 106.742C71.857 106.748 70.779 106.64 69.744 106.799C65.613 107.44 61.496 108.166 57.373 108.854C55.031 109.245 52.691 109.649 50.344 109.999C49.296 110.153 48.53 109.534 48.399 108.571C48.28 107.68 48.903 106.917 49.899 106.741C50.458 106.641 51.016 106.544 51.577 106.452C56.923 105.563 62.27 104.681 67.612 103.774C67.831 103.739 68.178 103.503 68.187 103.344C68.238 102.295 68.213 101.244 68.213 100.151C67.863 100.137 67.611 100.114 67.359 100.114C63.639 100.114 59.919 100.116 56.198 100.116C50.954 100.116 45.71 100.12 40.466 100.114C37.749 100.112 36.056 98.835 35.288 96.237C35.266 96.164 35.207 96.105 35.166 96.041ZM41.838 93.465C63.898 93.465 85.87 93.465 107.854 93.465C107.854 79.135 107.854 64.861 107.854 50.547C85.831 50.547 63.859 50.547 41.838 50.547C41.838 64.865 41.838 79.141 41.838 93.465Z" fill="#A6A5A4"/>
<path fill-rule="evenodd" clip-rule="evenodd" d="M41.8379 93.465C41.8379 79.141 41.8379 64.865 41.8379 50.547C63.8589 50.547 85.8299 50.547 107.854 50.547C107.854 64.861 107.854 79.135 107.854 93.465C85.8699 93.465 63.8969 93.465 41.8379 93.465ZM75.2529 60.451C71.4859 60.408 67.7039 61.254 64.6979 63.039C62.9379 64.084 61.3369 65.41 59.7309 66.693C58.9609 67.308 58.9929 68.381 59.6219 69.037C60.2569 69.703 61.2259 69.719 61.9869 69.072C62.1449 68.939 62.2899 68.791 62.4399 68.648C68.1489 63.273 76.8689 62.177 83.6849 66.078C85.1019 66.889 86.3479 68.012 87.6409 69.029C88.2169 69.484 88.7999 69.703 89.4959 69.425C90.1259 69.173 90.5809 68.673 90.4819 68.009C90.4019 67.47 90.1359 66.857 89.7509 66.486C85.6219 62.514 80.6499 60.553 75.2529 60.451ZM74.8489 67.047C70.9099 67.121 67.4249 68.443 64.5479 71.229C64.2199 71.545 63.9579 72.028 63.8759 72.473C63.7449 73.168 64.1259 73.713 64.7569 74.045C65.4339 74.4 66.1199 74.24 66.8589 73.576C71.6169 69.291 78.0669 69.287 82.8309 73.566C83.7389 74.382 84.7479 74.429 85.4259 73.687C86.1129 72.935 85.9879 71.98 85.0649 71.117C82.2009 68.445 78.7919 67.139 74.8489 67.047ZM75.0129 73.74C72.7489 73.734 70.6189 74.554 69.1609 75.941C68.3849 76.677 68.2939 77.629 68.9319 78.345C69.5589 79.05 70.5499 79.077 71.3499 78.411C73.5849 76.552 76.0999 76.54 78.3029 78.378C79.1439 79.077 80.1529 79.056 80.7789 78.325C81.4019 77.596 81.3039 76.653 80.5109 75.919C78.9199 74.451 77.0079 73.803 75.0129 73.74ZM78.1359 83.6C78.1339 81.764 76.6979 80.297 74.8799 80.272C73.0459 80.247 71.5469 81.754 71.5579 83.614C71.5679 85.44 73.0249 86.891 74.8529 86.895C76.6609 86.898 78.1389 85.416 78.1359 83.6Z" fill="white"/>
<path fill-rule="evenodd" clip-rule="evenodd" d="M75.253 60.451C80.65 60.553 85.622 62.513 89.752 66.486C90.138 66.857 90.403 67.47 90.483 68.009C90.582 68.673 90.127 69.173 89.497 69.425C88.801 69.702 88.218 69.484 87.642 69.029C86.349 68.011 85.103 66.888 83.686 66.078C76.87 62.178 68.15 63.273 62.441 68.648C62.291 68.791 62.146 68.939 61.988 69.072C61.226 69.718 60.258 69.703 59.623 69.037C58.994 68.381 58.963 67.308 59.732 66.693C61.337 65.41 62.939 64.084 64.699 63.039C67.704 61.254 71.486 60.408 75.253 60.451Z" fill="#A6A5A4"/>
<path fill-rule="evenodd" clip-rule="evenodd" d="M74.8488 67.047C78.7918 67.139 82.2018 68.445 85.0638 71.117C85.9878 71.98 86.1118 72.935 85.4248 73.687C84.7468 74.429 83.7378 74.382 82.8298 73.566C78.0658 69.287 71.6158 69.291 66.8578 73.576C66.1198 74.24 65.4328 74.4 64.7558 74.045C64.1248 73.713 63.7438 73.168 63.8748 72.473C63.9568 72.028 64.2188 71.545 64.5468 71.229C67.4248 68.443 70.9088 67.121 74.8488 67.047Z" fill="#A6A5A4"/>
<path fill-rule="evenodd" clip-rule="evenodd" d="M75.013 73.74C77.008 73.802 78.92 74.451 80.512 75.92C81.305 76.654 81.403 77.598 80.78 78.326C80.154 79.056 79.145 79.078 78.304 78.379C76.101 76.541 73.586 76.553 71.351 78.412C70.551 79.078 69.56 79.051 68.933 78.346C68.294 77.629 68.385 76.678 69.162 75.942C70.619 74.555 72.749 73.734 75.013 73.74Z" fill="#A6A5A4"/>
<path fill-rule="evenodd" clip-rule="evenodd" d="M78.1361 83.6C78.1391 85.416 76.6611 86.899 74.8531 86.895C73.0251 86.891 71.5682 85.44 71.5582 83.614C71.5472 81.755 73.0462 80.247 74.8802 80.272C76.6982 80.297 78.1341 81.764 78.1361 83.6Z" fill="#A6A5A4"/>
</svg>
