<svg width="150" height="150" viewBox="0 0 150 150" fill="none" xmlns="http://www.w3.org/2000/svg">
<path d="M74.692 0C33.5 0 0 33.526 0 74.719C0 115.911 33.5 149.438 74.692 149.438C115.885 149.438 149.383 115.912 149.383 74.719C149.384 33.526 115.886 0 74.692 0ZM74.692 142.999C37.039 142.999 6.412 112.372 6.412 74.719C6.412 37.066 37.039 6.438 74.692 6.438C112.346 6.438 142.971 37.065 142.971 74.719C142.971 112.373 112.347 142.999 74.692 142.999Z" fill="#A6A5A4"/>
<path d="M95.3288 104.892C94.6198 104.465 93.7668 104.478 93.0848 104.959C87.5018 108.926 80.9558 111.022 74.1168 111.022C67.3058 111.022 60.7338 108.925 55.1778 104.959C54.4958 104.478 53.6288 104.465 52.9198 104.892C52.2268 105.333 51.8648 106.134 52.0248 106.95L54.4958 121.042C54.6968 121.99 55.5248 122.698 56.4858 122.698H91.7748C92.7368 122.698 93.5638 121.99 93.7238 121.042L96.2368 106.95C96.3578 106.147 96.0088 105.333 95.3288 104.892Z" fill="#A6A5A4"/>
<path d="M93.7249 28.397C93.5649 27.436 92.7379 26.74 91.7759 26.74H56.4859C55.5249 26.74 54.6969 27.435 54.4959 28.397L52.0249 41.941C51.8649 42.756 52.2259 43.57 52.9199 43.998C53.2409 44.211 53.6289 44.318 53.9879 44.318C54.4019 44.318 54.8159 44.184 55.1769 43.944C60.7599 39.977 67.3059 37.88 74.1159 37.88C80.9549 37.88 87.5009 39.977 93.0839 43.944C93.7659 44.412 94.6189 44.438 95.3279 43.998C96.0079 43.57 96.3569 42.756 96.2359 41.941L93.7249 28.397Z" fill="#A6A5A4"/>
<path d="M86.3798 73.249H74.8248V56.82C74.8248 55.819 74.0228 55.017 73.0218 55.017C72.0198 55.017 71.2178 55.818 71.2178 56.82V75.654C71.2178 76.041 71.3528 76.389 71.5388 76.669C71.9268 77.484 72.7268 78.058 73.6888 78.058H86.3778C87.6858 78.058 88.7798 76.975 88.7798 75.654C88.7818 74.331 87.6878 73.249 86.3798 73.249Z" fill="#A6A5A4"/>
<path d="M112.051 69.322H107.429C107.336 69.322 107.242 69.376 107.176 69.483C107.11 69.563 107.082 69.697 107.082 69.83V71.499H105.28C103.769 55.778 90.52 43.437 74.398 43.437C57.288 43.437 43.396 57.354 43.396 74.452C43.396 91.55 57.288 105.467 74.398 105.467C90.52 105.467 103.769 93.125 105.28 77.391H107.082V79.074C107.082 79.208 107.109 79.341 107.176 79.435C107.242 79.528 107.336 79.568 107.429 79.568H112.051C112.159 79.568 112.253 79.514 112.32 79.435C112.386 79.341 112.414 79.208 112.414 79.074V69.831C112.414 69.698 112.387 69.564 112.32 69.484C112.253 69.376 112.159 69.322 112.051 69.322ZM74.399 98.774C60.989 98.774 50.076 87.861 50.076 74.451C50.076 61.041 60.989 50.128 74.399 50.128C87.823 50.128 98.71 61.041 98.71 74.451C98.71 87.861 87.822 98.774 74.399 98.774Z" fill="#A6A5A4"/>
</svg>
