<svg width="149" height="149" viewBox="0 0 149 149" fill="none" xmlns="http://www.w3.org/2000/svg">
<path d="M74.115 0C33.241 0 0 33.254 0 74.129C0 115.004 33.241 148.257 74.115 148.257C115.003 148.257 148.27 115.004 148.27 74.129C148.27 33.254 115.003 0 74.115 0ZM74.115 141.897C36.754 141.897 6.361 111.493 6.361 74.129C6.361 36.766 36.754 6.362 74.115 6.362C111.491 6.362 141.909 36.766 141.909 74.129C141.909 111.492 111.491 141.897 74.115 141.897Z" fill="#A6A5A4"/>
<path d="M106.986 50.471H78.516L89.755 37.005C89.941 37.031 90.073 37.097 90.259 37.097C92.115 37.097 93.613 35.613 93.613 33.757C93.613 31.915 92.116 30.418 90.259 30.418C88.444 30.418 86.919 31.916 86.919 33.757C86.919 34.154 87.012 34.539 87.17 34.897L74.182 50.471H72.937L59.975 34.898C60.094 34.54 60.2 34.155 60.2 33.758C60.2 31.916 58.702 30.419 56.846 30.419C55.004 30.419 53.506 31.917 53.506 33.758C53.506 35.614 55.004 37.098 56.846 37.098C57.045 37.098 57.203 37.032 57.364 37.006L68.602 50.472H40.16C36.462 50.472 33.467 53.467 33.467 57.152V103.951C33.467 107.636 36.462 110.631 40.16 110.631H106.986C110.683 110.631 113.678 107.636 113.678 103.951V57.151C113.679 53.466 110.684 50.471 106.986 50.471ZM93.612 97.257C93.612 100.955 90.616 103.95 86.919 103.95H46.812C43.115 103.95 40.16 100.955 40.16 97.257V63.8309C40.16 60.1459 43.115 57.151 46.812 57.151H86.918C90.615 57.151 93.611 60.1459 93.611 63.8309V97.257H93.612ZM103.446 67.396C100.835 67.396 98.675 65.2489 98.675 62.6109C98.675 59.9739 100.834 57.84 103.446 57.84C106.097 57.84 108.23 59.9739 108.23 62.6109C108.23 65.2489 106.098 67.396 103.446 67.396Z" fill="#A6A5A4"/>
</svg>
