<svg width="112" height="112" viewBox="0 0 112 112" fill="none" xmlns="http://www.w3.org/2000/svg">
<circle cx="56" cy="56" r="55" fill="#42BAEB" stroke="#42BAEB" stroke-width="2"/>
<path d="M42.75 51H35.25C34.0073 51 33 52.0073 33 53.25V75.75C33 76.9927 34.0073 78 35.25 78H42.75C43.9927 78 45 76.9927 45 75.75V53.25C45 52.0073 43.9927 51 42.75 51ZM39 74.25C37.7573 74.25 36.75 73.2427 36.75 72C36.75 70.7573 37.7573 69.75 39 69.75C40.2427 69.75 41.25 70.7573 41.25 72C41.25 73.2427 40.2427 74.25 39 74.25ZM69 37.6361C69 41.6126 66.5653 43.8431 65.8803 46.5H75.4168C78.5478 46.5 80.9853 49.1012 80.9999 51.9467C81.0078 53.6284 80.2925 55.4388 79.1775 56.5589L79.1672 56.5692C80.0893 58.7571 79.9394 61.8227 78.2946 64.0194C79.1084 66.4471 78.2881 69.4292 76.7587 71.0279C77.1617 72.6777 76.9691 74.0818 76.1824 75.2122C74.2689 77.9613 69.5265 78 65.5162 78L65.2494 77.9999C60.7225 77.9983 57.0176 76.3501 54.0407 75.0257C52.5447 74.3602 50.5887 73.5363 49.1047 73.509C48.4915 73.4977 48 72.9974 48 72.3842V52.3433C48 52.0433 48.1202 51.7553 48.3336 51.5444C52.0474 47.8747 53.6443 43.9894 56.6883 40.9403C58.0762 39.5498 58.5809 37.4494 59.0689 35.4182C59.4858 33.6837 60.3578 30 62.25 30C64.5 30 69 30.75 69 37.6361Z" fill="#FEFEFE"/>
</svg>
