<svg width="100" height="100" viewBox="0 0 100 100" fill="none" xmlns="http://www.w3.org/2000/svg">
<path d="M50 80C66.602 80 80 66.5048 80 50C80 33.398 66.5048 20 50 20C33.398 20 20 33.4952 20 50C20 66.602 33.4952 80 50 80Z" stroke="#FEFEFE" stroke-width="2" stroke-linecap="round"/>
<path d="M62.7692 37.5798C61.4688 36.6521 59.704 36.8376 58.7751 38.1365L45.3994 55.6708L41.0337 50.4755C40.0119 49.2694 38.2471 49.0839 37.0396 50.1044C36.4822 50.5682 36.1107 51.3104 36.0178 52.0526C35.9249 52.7948 36.2036 53.537 36.668 54.0937L43.3559 61.9795C43.9132 62.6289 44.6563 63 45.5852 63H45.678C46.514 63 47.35 62.5361 47.9073 61.8867L63.4195 41.5691C64.3483 40.3631 64.1626 38.5076 62.8621 37.5798H62.7692Z" fill="#FEFEFE"/>
</svg>
