<svg width="151" height="151" viewBox="0 0 151 151" fill="none" xmlns="http://www.w3.org/2000/svg">
<path d="M75.239 0C33.753 0 0 33.74 0 75.212C0 116.685 33.753 150.424 75.239 150.424C116.711 150.424 150.437 116.685 150.437 75.212C150.437 33.74 116.71 0 75.239 0ZM75.239 143.97C37.317 143.97 6.45502 113.121 6.45502 75.212C6.45502 37.303 37.317 6.455 75.239 6.455C113.147 6.455 143.983 37.304 143.983 75.212C143.983 113.121 113.147 143.97 75.239 143.97Z" fill="#A6A5A4"/>
<path d="M126.177 81.3851C122.883 68.8241 99.673 65.9201 95.665 65.5171C85.068 54.9741 81.223 54.1541 80.281 54.1541H63.674C47.281 54.1541 37.559 61.5091 32.314 67.6961C26.626 74.3521 24.299 81.7611 24.043 84.3031C23.908 85.3251 24.232 86.2661 24.944 87.0461C27.055 89.3591 32.313 89.5341 33.927 89.5341H33.966L36.294 89.5881C36.132 88.9021 36.037 88.2031 36.037 87.4771C36.037 82.1911 40.327 77.9021 45.599 77.9021C50.898 77.9021 55.16 82.1921 55.16 87.4771C55.16 88.3101 55.039 89.1171 54.838 89.8971L94.563 90.5691C94.334 89.7621 94.172 88.9291 94.172 88.0411C94.172 82.7701 98.476 78.4801 103.747 78.4801C109.018 78.4801 113.308 82.7701 113.308 88.0411C113.308 89.0371 113.12 89.9781 112.825 90.8791L116.671 90.9461H117.034C120.812 90.9461 123.529 89.8971 125.075 87.8261C127.213 85.0281 126.205 81.5051 126.177 81.3851ZM62.53 65.9471H47.538C48.962 58.2551 61.765 56.1431 61.765 56.1431H62.531V65.9471H62.53ZM65.288 65.9471V56.1431H80.376C80.376 56.1431 89.076 61.0391 92.627 65.9471H65.288Z" fill="#A6A5A4"/>
<path d="M45.5339 81.21C42.0769 81.21 39.2659 84.007 39.2659 87.477C39.2659 90.933 42.0769 93.743 45.5339 93.743C48.9889 93.743 51.8129 90.933 51.8129 87.477C51.8129 84.007 48.9889 81.21 45.5339 81.21Z" fill="#A6A5A4"/>
<path d="M103.774 81.21C100.318 81.21 97.535 84.007 97.535 87.477C97.535 90.933 100.318 93.743 103.774 93.743C107.231 93.743 110.04 90.933 110.04 87.477C110.04 84.007 107.231 81.21 103.774 81.21Z" fill="#A6A5A4"/>
</svg>
