<svg width="150" height="150" viewBox="0 0 150 150" fill="none" xmlns="http://www.w3.org/2000/svg">
<path d="M74.732 0C33.526 0 0 33.526 0 74.719C0 115.912 33.526 149.438 74.732 149.438C115.925 149.438 149.424 115.912 149.424 74.719C149.424 33.526 115.926 0 74.732 0ZM74.732 143C37.065 143 6.412 112.373 6.412 74.719C6.412 37.065 37.065 6.438 74.732 6.438C112.386 6.438 143.013 37.065 143.013 74.719C143.013 112.373 112.386 143 74.732 143Z" fill="#A6A5A4"/>
<path d="M60.7084 50.543C59.6524 50.703 58.9714 51.424 59.2254 52.159H59.1994C59.8134 53.815 60.0674 55.512 60.0674 57.221C60.0944 58.945 59.7734 60.654 59.1994 62.337C58.9454 63.072 59.6134 63.793 60.7094 63.967C60.8684 63.993 61.0033 63.993 61.1633 63.993C62.0583 63.993 62.8864 63.565 63.1124 62.951C63.7544 61.068 64.0754 59.144 64.1144 57.221C64.0754 55.311 63.7544 53.414 63.1124 51.545C62.8584 50.811 61.8024 50.369 60.7084 50.543Z" fill="#A6A5A4"/>
<path d="M77.5641 38.388C76.5621 38.708 76.1221 39.51 76.6021 40.178V40.192C80.3821 45.588 82.2521 51.399 82.2521 57.235C82.2521 63.071 80.3821 68.896 76.6021 74.292C76.1221 74.973 76.5351 75.774 77.5641 76.095C77.8441 76.175 78.1371 76.215 78.3921 76.215C79.1661 76.215 79.8741 75.922 80.2221 75.441C84.2681 69.684 86.2851 63.46 86.2851 57.235C86.2851 51.024 84.2671 44.799 80.2221 39.043C79.7411 38.361 78.5521 38.081 77.5641 38.388Z" fill="#A6A5A4"/>
<path d="M69.8163 45.547C68.8023 45.788 68.2543 46.562 68.6013 47.27C70.2443 50.462 71.0723 53.829 71.0723 57.208C71.0723 60.614 70.2443 64.006 68.5743 67.239C68.2143 67.933 68.7623 68.708 69.8163 68.948C70.0443 69.002 70.2443 69.028 70.4713 69.028C71.2993 69.028 72.1013 68.667 72.3943 68.107C74.1583 64.594 75.0933 60.907 75.0933 57.208C75.0933 53.548 74.1853 49.875 72.3943 46.388C72.0083 45.681 70.8853 45.307 69.8163 45.547Z" fill="#A6A5A4"/>
<path d="M114.376 85.899H53.1344V51.611C53.1344 51.184 52.7744 50.85 52.3604 50.85H48.7004C48.2864 50.85 47.9274 51.184 47.9274 51.611V85.899H35.0644C33.0064 85.899 31.3374 87.582 31.3374 89.639V107.431C31.3374 109.501 33.0064 111.171 35.0644 111.171H114.377C116.475 111.171 118.145 109.501 118.145 107.431V89.639C118.143 87.582 116.473 85.899 114.376 85.899ZM43.1174 101.006C41.8344 101.006 40.8054 99.964 40.8054 98.682C40.8054 97.387 41.8334 96.344 43.1174 96.344C44.3984 96.344 45.4544 97.386 45.4544 98.682C45.4544 99.964 44.3984 101.006 43.1174 101.006ZM51.7184 101.006C50.4364 101.006 49.4074 99.964 49.4074 98.682C49.4074 97.387 50.4354 96.344 51.7184 96.344C53.0014 96.344 54.0294 97.386 54.0294 98.682C54.0294 99.964 53.0014 101.006 51.7184 101.006ZM60.2934 101.006C59.0124 101.006 57.9824 99.964 57.9824 98.682C57.9824 97.387 59.0114 96.344 60.2934 96.344C61.5764 96.344 62.6044 97.386 62.6044 98.682C62.6034 99.964 61.5764 101.006 60.2934 101.006Z" fill="#A6A5A4"/>
</svg>
